/* XPM */
static char *_cb7b921ef094c2cc503e93332d38d8d0cbMlOifAJOtUJGM[] = {
/* columns rows colors chars-per-pixel */
"80 80 198 2 ",
"   c black",
".  c #010101",
"X  c #020202",
"o  c gray1",
"O  c #040404",
"+  c gray2",
"@  c #070707",
"#  c gray3",
"$  c #090909",
"%  c gray4",
"&  c #0B0B0B",
"*  c #0C0C0C",
"=  c gray5",
"-  c #0E0E0E",
";  c gray6",
":  c #101010",
">  c gray7",
",  c #131313",
"<  c gray8",
"1  c #151515",
"2  c #161616",
"3  c gray9",
"4  c #181818",
"5  c #191919",
"6  c gray10",
"7  c #1B1B1B",
"8  c gray11",
"9  c #1D1D1D",
"0  c #1E1E1E",
"q  c gray12",
"w  c gray13",
"e  c #222222",
"r  c gray14",
"t  c gray15",
"y  c #272727",
"u  c #282828",
"i  c gray17",
"p  c #2C2C2C",
"a  c #2D2D2D",
"s  c gray18",
"d  c #2F2F2F",
"f  c gray19",
"g  c #313131",
"h  c #323232",
"j  c #343434",
"k  c #353535",
"l  c #373737",
"z  c gray22",
"x  c #393939",
"c  c #3A3A3A",
"v  c #3C3C3C",
"b  c #3F3F3F",
"n  c gray25",
"m  c #414141",
"M  c gray26",
"N  c #434343",
"B  c #444444",
"V  c #464646",
"C  c gray28",
"Z  c #484848",
"A  c #494949",
"S  c gray29",
"D  c #4B4B4B",
"F  c #4C4C4C",
"G  c #505050",
"H  c #515151",
"J  c gray32",
"K  c #535353",
"L  c gray33",
"P  c #555555",
"I  c #565656",
"U  c gray34",
"Y  c #585858",
"T  c gray35",
"R  c #5A5A5A",
"E  c #5B5B5B",
"W  c #5D5D5D",
"Q  c gray37",
"!  c gray38",
"~  c #646464",
"^  c #656565",
"/  c gray40",
"(  c #676767",
")  c #6A6A6A",
"_  c gray42",
"`  c #6C6C6C",
"'  c #6D6D6D",
"]  c gray43",
"[  c #6F6F6F",
"{  c gray44",
"}  c #747474",
"|  c #767676",
" . c #777777",
".. c gray48",
"X. c #7B7B7B",
"o. c #7C7C7C",
"O. c gray49",
"+. c #7E7E7E",
"@. c gray50",
"#. c #808080",
"$. c #818181",
"%. c #838383",
"&. c #868686",
"*. c #888888",
"=. c #898989",
"-. c gray55",
";. c #8D8D8D",
":. c #8E8E8E",
">. c #909090",
",. c gray57",
"<. c #939393",
"1. c #959595",
"2. c gray59",
"3. c #979797",
"4. c gray60",
"5. c #9A9A9A",
"6. c gray61",
"7. c #9D9D9D",
"8. c #9F9F9F",
"9. c gray63",
"0. c #A2A2A2",
"q. c gray64",
"w. c #A5A5A5",
"e. c gray65",
"r. c #A7A7A7",
"t. c gray66",
"y. c #A9A9A9",
"u. c gray67",
"i. c #ACACAC",
"p. c gray68",
"a. c #AEAEAE",
"s. c gray69",
"d. c #B1B1B1",
"f. c #B2B2B2",
"g. c gray70",
"h. c gray71",
"j. c #B6B6B6",
"k. c #B7B7B7",
"l. c gray72",
"z. c #B9B9B9",
"x. c gray73",
"c. c #BCBCBC",
"v. c gray75",
"b. c #C0C0C0",
"n. c #C1C1C1",
"m. c gray76",
"M. c #C3C3C3",
"N. c gray77",
"B. c #C6C6C6",
"V. c gray78",
"C. c #CACACA",
"Z. c #CBCBCB",
"A. c #CDCDCD",
"S. c #CECECE",
"D. c gray81",
"F. c #D0D0D0",
"G. c gray82",
"H. c #D2D2D2",
"J. c gray83",
"K. c gray84",
"L. c #D7D7D7",
"P. c #D8D8D8",
"I. c gray85",
"U. c #DADADA",
"Y. c gray86",
"T. c gainsboro",
"R. c #DDDDDD",
"E. c gray87",
"W. c gray88",
"Q. c #E1E1E1",
"!. c #E2E2E2",
"~. c gray89",
"^. c #E4E4E4",
"/. c #E6E6E6",
"(. c #E7E7E7",
"). c #E9E9E9",
"_. c #EAEAEA",
"`. c gray92",
"'. c #ECECEC",
"]. c gray93",
"[. c #EEEEEE",
"{. c #EFEFEF",
"}. c gray94",
"|. c #F1F1F1",
" X c gray95",
".X c #F3F3F3",
"XX c #F4F4F4",
"oX c gray96",
"OX c #F6F6F6",
"+X c gray97",
"@X c #F8F8F8",
"#X c #F9F9F9",
"$X c gray98",
"%X c #FBFBFB",
"&X c gray99",
"*X c #FDFDFD",
"=X c #FEFEFE",
"-X c white",
/* pixels */
"-X-X-X-X-X-X-X-X-X-X-X-X-X-X-X-X-X-X-X-X-X-X-X-X-X-X-X-X-X-X-X-X-X-X-X-X-X-X-X-X-X-X-X-X#X#X-X-X-X-X-X-X-X-X-X-X#XXX-X-X-X-X-X-X-X-X-X-X-X-X-X-X-X-X-X-X-X-X-X-X",
"-X-X-X-X-X-X-X-X-X-X-X-X-X-X-X-X-X-X-X-X-X-X-X-X-X-X-X-X-X-X-X-X-X-X-X-X-X-X-X-X-X-X-X#X-X-XXX-X-X-X-X-X-X-X-X-X#X-X-X-X-X-X-X-X-X-X-X-X-X-X-X-X-X-X-X-X-X-X-X-X",
"-X-X-X-X-X-X-X-X-X-X-X-X-X-X-X-X-X-X-X-X-X-X-X-X-X-X-X-X-X-X-X-X-X-X-X-X-X-X-X-X-X-X-X-X-X-X-X#X-X-X-X-X-X-X-X-X-X-X-X-X-X-X-X-X-X-X-X-X-X-X-X-X-X-X-X-X-X-X-X-X",
"-X-X-X-X-X-X-X-X-X-X-X-X-X-X-X-X-X-X-X-X-X-X-X-X-X-X-X-X-X-X-X-X-X-X-X-X-X-X-X-X-X-X-X-X-X-X-X-X-X-X-X-X-X-X-X-X-X-X-X-X-X-X-X-X-X-X-X-X-X-X-X-X-X-X-X-X-X-X-X-X",
"-X-X-X-X-X-X-X-X-X-X-X-X-X-X-X-X-X-X-X-X-X-X-X-X-X-X-X-X-X-X-X-X-X-X-X-X-X-X-X-X-X-X-X-X-X-X-X-X-X-X-X-X-X-X-X-X-X-X-X-X-X-X-X-X-X-X-X-X-X-X-X-X-X-X-X-X-X-X-X-X",
"-X-X-X-X-X-X-X-X-X-X-X-X-X-X-X-X-X-X-X-X-X-X-X-X-X-X-X-X-X-X-X-X-X-X-X-X-X-X-X-X-X-X-X-X-X-X-X-X-X-X-X-X-X-X-X-X-X-X-X-X-X-X-X-X-X-X-X-X#X#X-X-X-XY.#X-X-X-X-X-X",
"-X-X-X-X-X-X-X-X-X-X-X-X-X-X-X-X-X-X-X-X-X-X-X-X-X-X-X-X-X-X-X-X-X-X-X-X-X-X-X-X-X-X-X-X-X-X-X-X-X-X-X-X-X-X-X-X-X-X-X-X-X-X-X-X-X-X-X-X-X-XS.!   L.-X#X-X-X-X-X",
"-X-X-X-X-X-X-X-X-X-X-X-X-X-X-X-X-X-X-X-X-X-X-X-X-X-X-X-X-X-X-X-X-X-X-X-X-X-X-X-X-X-X-X-X-X-X-X-X-X-X-X-X-X-X-X-X-X-X-X-X-X-X#X-X-X-X-X_.} +     q.-X#X-X-X-X-X-X",
"-X-X-X-X-X-X-X-X-X-X-X-X-X-X-X-X-X-X-X-X-X-X-X-X-X-X-X-X-X-X-X-X-X-X-X-X-X-X-X-X-X-X-X-X-X-X-X-X-X-X-X-X-X-X-X-X-X-X-X-X-X-X#X-X-XZ.z         k -X-X-X-X-X-X-X-X",
"-X-X-X-X-X-X-X-X-X-X-X-X-X-X-X-X-X-X-X-X-X-X-X-X-X-X-X-X-X-X-X-X-X-X-X-X-X-X-X-X-X-X-X-X-X-X-X-X-X-X-X-X-X-X-X-X-X-X-X-X-X-X-XL.f             R.-X-X-X-X-X-X-X-X",
"-X-X-X-X-X-X-X-X-X-X-X-X-X-X-X-X-X-X-X-X-X-X-X-X-X-X-X-X-X-X-X-X-X-X-X-X-X-X-X-X-X-X-X-X-X-X-X-X-X-X-X-X-X-X-X-X-X-X-X#X-X-XG           +   z -X#X-X-X-X-X-X-X-X",
"-X-X-X-X-X-X-X-X-X-X-X-X-X-X-X-X-X-X-X-X-X-X-X-X-X-X-X-X-X-X-X-X-X-X-X-X-X-X-X-X-X-XXX-X-X-X-X-X-X-X#X-X-XXXXX-X-X#X#X-Xk.      +           u.-X-X-X-X-X-X-X-X-X",
"-X-X-X-X-X-X-X-X-X-X-X-X-X-X-X-X-X-X-X-X-X-X-X-X-X-X-X-X-X-X-X-X-X-X-X-X-X-X-X-X-XXX-X-X-X-X-X-X-XXX-X-X-X-X#X#X-X-X-X`     +               W.-X#X-X-X-X-X-X-X-X",
"-X-X-X-X-X-X-X-X-X-X-X-X-X-X-X-X-X-X-X-X-X-X-X-X-X-X-X-X-X-X-X-X-X-X-X-X-X-X-X-X-X-X-XXX#X#X-X-X-Xk.z.-X#X#X-X#X.X-XB                       #X-X-X-X-X-X-X-X-X-X",
"-X-X-X-X-X-X-X-X-X-X-X-X-X-X-X-X-X-X-X-X-X-X-X-X-X-X-X-X-X-X-X-X-X-X-X-X-X-X-X-X-X-X-X-X-X-X-X-X-XS.  XX-X#X-X#X-Xz                         .X-X-X-X-X-X-X-X-X-X",
"-X-X-X-X-X-X-X-X-X-X-X-X-X-X-X-X-X-X-X-X-X-X-X-X-X-X-X-X-X-X-X-X-X-X-X-X-X-X-X-X-X-X-X-X` -X-X-X-XS.    3.-X-X-XG   +                       /.-X-X-X-X-X-X-X-X-X",
"-X-X-X-X-X-X-X-X-X-X-X-X-X-X-X-X-X-X-X-X-X-X-X-X-X-X-X-X-X-X-X-X-X-X-X-X-X-X-X-X-X-X-X-X1 B -X-X-Xz.      O.-X#.                            u.-X-X-X-X-X-X-X-X-X",
"-X-X-X-X-X-X-X-X-X-X-X-X-X-X-X-X-X-X-X-X-X-X-X-X-X-X-X-X-X-X-X-X-X-X-X-X-X-X-X-X-X-X-X-Xm   m -X-XO.        a.                              ! -X-X-X-X-X-X-X-X-X",
"-X-X-X-X-X-X-X-X-X-X-X-X-X-X-X-X-X-X-X-X-X-X-X-X-X-X-X-X-X-X-X-X-X-X-X-X-X-X-X-X-X-X-X-X!     8 4.      +       +                             -X-X-X-X-X-X-X-X-X",
"-X-X-X-X-X-X-X-X-X-X-X-X-X-X-X-X-X-X-X-X-X-X-X-X-X-X-X-X-X-X-X-X-X-X-X-X-X-X-X-X-X-X-X-X=.                                        +   4.-XXX_ m.-X-X-X-X-X-X-X-X",
"-X-X-X-X-X-X-X-X-X-X-X-X-X-X-X-X-X-X-X-X-X-X-X-X-X-X-X-X-X-X-X-X#X-X-X-X-X-X-X-X-X-X-X-Xu.                                          $ -X-X-X-X#X#X-X-X-X-X-X-X-X",
"-X-X-X-X-X-X-X-X-X-X-X-X-X-X-X-X-X-X-X-X-X-X-X-X-X-X-X-X-X-X-X-X-X-X#XB.-./ P R _ 4.R.-XS.                                          8 -X-X-X-X-X-X-X-X-X-X-X-X-X",
"-X-X-X-X-X-X-X-X-X-X-X-X-X-X-X-X-X-X-X-X-X-X-X-X-X-X-X#X#X-X-X#X3.a                   1 R                                           r -X#X-X-X-X-X-X-X-X-X-X-X-X",
"-X-X-X-X-X-X-X-X-X-X-X-X-X-X-X-X-X-X-X-X-X-X-X-X-X-X-X-X-X].P           + +               $                                         1 -X#XXX-X-X-X-X-X-X-X-X-X-X",
"-X-X-X-X-X-X-X-X-X-X-X-X-X-X-X-X-X-X-X-X-X-X-X-X-X#X-X-XR                                                               +           $ -X-X#XXX-X-X-X-X-X-X-X-X-X",
"-X-X-X-X-X-X-X-X-X-X-X-X-X-X-X-X-X-X-X-X-X-X-X-X-X-X3.                                                                      $ <.4.k   XX-X-X-X.X#X-X-X-X-X-X-X-X",
"-X-X-X-X-X-X-X-X-X-X-X-X-X-X-X-X-X-X-X-X-X-X-X-XXXa     +                                                                 + -X-X-X-X<.L.-X-X-X-XXX#X-X-X-X-X-X-X",
"-X-X-X-X-X-X-X-X-X-X-X-X-X-X-X-X-X-X-X-X#X-X-Xa.                                                                          f.-X-X-X-X-X-X-X-X-X-X-X#XXX-X-X-X-X-X",
"-X-X-X-X-X-X-X-X-X-X-X-X-X-X-X-X-X-X-X-X-X-XP                                                                           $ -X-X-X-X-X-X-X-X-X-X-X-X-X#XXX#X-X-X-X",
"-X-X-X-X-X-X-X-X-X-X-X-X-X-X-X-X-X-X-X-X-Xk.8.v.f.=.u                                                                   G -X-X-X-X-X-X-X-X-X-X-X-X-X-X-XXX-X-X-X",
"-X-X-X-X-X-X-X-X-X-X-X-X-X-X-X-X-X-X-X-X-X-X-X-X-X-X-XL.          +       +                                             -.-X-X-X-X-X-X-X-X-X-X-X-X-X-X-X-XXX#X-X",
"-X-X-X-X-X-X-X-X-X-X-X-X-X-X-X-X-X-X-X-X-X-X#X-X-X-X-X-X-X          / #Xv.                                              a.-X-X-X-X-X-X-X-X-X-X-X-X-X-X-X-X-X#XXX",
"-X-X-X-X#X-X-X-X-X-X-X-X-X-X-X-X-X-X-X-X-X-X-X-X-X-X-X#X-Xk.      w.-X-X-X#.                                            Z.-X-X-X-X-X-X-X-X-X-X-X-X-X-X-X-X-X-X#X",
"-X-X-X#X-X-X-X#X-X-X-X-X-X-X-X-X-X-X-X-X-X-X-X-X-X-X-X-X-X-X+   <.-X-X-X-X#X            - $                             ].-X-X-X-X-X-X-X-X-X-X-X-X-X-X-X-X-X-X-X",
"-X-X-X_.G H.-X-X-X-X-X-X-X-X-X-X-X-X-X-X-X-X-X-X-X-X-X-X-X-XB B -X#X-X#X-X-Xf     1 u.XX-X-XW.P                         -X-X-X-X-X-X-X-X-X-X-X-X-X-X-X-X-X-X-X-X",
"-X-X-X-XO.  , } .X-X-X-X-X-X-X-X-X-X-X-X-X-X-X-X-X-X-X-X-X-X3.-X-X#X-X-X-X-XO.  _ -X-X-X-X-X-X-Xm.                    - -X-X-X-X-X-X-X-X-X-X-X-X-X-X-X-X-X-X-X-X",
"XX-X-X-X-X4       B R.-X-X-X-X-X-X-X-X-X-X-X-X-X-X-X-X-X-X-X-X-X-X-X-X-X-X-Xa.P -X-X-X-X-X-X-X-X-XY.    +   +         r -X-X-X-X-X-X-X-X-X-X-X-X-X-X-X-X-X-X-X-X",
"#XXX-X#X-Xm.  +       D .X-X-X#XXX-X-X-X-X-X-X-X-X-X-X-X-X-X#X-X-X-X-X-X-X-X].-X-X-X-X-X-X-X-X-X-X-X-X8       f /     F -X#X-X-X-X-X-X-X-X-X-X-X-X-X-X-X-X-X-X-X",
"-X#XXX-X-X-X+             q.-X#X-X-X#X-X-X-X-X#X-X-X-X-X-X-X-X-X-X-X-X-X-X-X-X-X-X-X-X-X-X-X-X-X-X-X-X-X{     - -X4   { -X-X-X-X-X-X-X-X-X-X-X-X-X-X-X-X-X-X-X-X",
"-X-X-XXX-X-Xk               R -X-X#X-X#X-X_.-X-X-X-X-X-X-X-X-X-X-X-X-X-X-X-X-X-X-X-X-X-X-X-X-X-X-X-X-X#X-XS.+   -XW.  <.-X#X-X-X-X-X-X-X-X-X-X-X-X-X-X-X-X-X-X-X",
"-X-X-X-X-X-XD                 b -X-X-X-X-Xk -X#X-X-X-X-X-X-X-X-X-X-X-X-X-X-X-X-X-X-X-X-X-X-X-X-X-X-X-X-X#X-X-X  z.-X{ a.-X#X-X-X-X-X-X-X-X-X-X-X-X-X-X-X-X-X-X-X",
"-X-X-X-X#X-Xm +   +             B -X-X/.1 , -X-X-Xv.].-X-X-X-X-X-X-X-X-X-X-X-X-X-X-X-X-X-X-X-X-X-X-X-X-X-X-X-X.XO.-X-X_.-X-X-X-X-X-X-X-X-X-X-X-X-X-X-X-X-X-X-X-X",
"-X-X-X#X#X-X- - 1 $               #.-X    + -X-XR.  -X-X-X-X-X-X-X-X-X-X-X-X-X-X-X-X-X-X-X-X-X-X-X-X-X-X-X-X-X-X/.-X-X-X-X-X-X-X-X-X-X-X-X-X-X-X-X-X-X-X-X-X-X-X",
"-X-X-X-X-XY.    + 4                 1   +   R.z.    -X-X-X-X-X-X-X-X-X-X-X-X-X-X-X-X-X-X-X-X-X-X-X-X-X-X-X-X#X#X-X-X-X-X-X-X-X-X-X-X-X-X-X-X-X-X-X-X-X-X-X-X-X-X",
"-X#X-X#X-X&.O.S.z , +                             1 -X-X-X-X-X-X#X-X-X-X-X-X-X-X-X-X-X-X-X-X-X-X-X-X-X-X-X-X-X-X-X-X-X-X-X-X-X-X-X-X-X-X-X-X-X-X-X-X-X-X-X-X-X-X",
"-X-X-X-X#X-X-X-XZ.                                z -X-X-X-X-X-X-X-X-X-X-X-X-X-X-X-X-X-X-X-X-X-X-X-X-X-X-X-X-X-X-X-X-X-X-X-X-X-X-X-X-X-X-X-X-X-X-X-X-X-X-X-X-X-X",
"-X-X#X-X#X#X#X-XW.                                D H.R 8 - - 4 m -./.-X-X-X-X-X-X-X-X-X-X-X-X-X-X-X-X-X-X-X-X-X-X-X-X-X-X-X-X-X-X-X-X-X-X-X-X-X-X-X-X-X-X-X-X-X",
"-X.X-X-X-X-X-X-XY.    +   +                                           r w.-X-X#X#X-X-X-X-X-X-X-X-X-X-X-X-X-X-X-X-X-X-X-X-X-X-X-X-X-X-X-X-X-X-X-X-X-X-X-X-X-X-X-X",
"XX-X-X-X-X-X-X-Xv.                                                +       - k.-X-X-X-X-X-X-X-X-X-X-X-X-X-X-X-X-X-X-X-X-X-X-X-X-X-X-X-X-X-X-X-X-X-X-X-X-X-X-X-X-X",
"-X-X-X-X-X-X-X-X#.G W.B.$                                           +         a XX-X-X-X-X-X-X-X-X-X-X-X-X-X-X-X-X-X-X-X-X-X-X-X-X-X-X-X-X-X-X-X-X-X-X-X-X-X-X-X",
"-X-X-X-X-X-X-X-X].-X-X-XW.                                                        q.-X-X#X-X-X-X-X-X-X-X-X-X-X-X-X-X-X-X-X-X-X-X-X-X-X-X-X-X-X-X-X-X-X-X-X-X-X-X",
"-X-X-X-X-X-X-X-X-X#X#X-X-Xb                                                         m XX-X-X-X-X-X-X-X-X-X-X-X-X-X-X-X-X-X-X-X-X-X-X-X-X-X-X-X-X-X-X-X-X-X-X-XXX",
"-X-X-X-X-X-X-X-X-X-X#X-X-X<.                                          +       } S._.L.Y.-X-X-X-X-X-X-X-X-X-X-X-X-X-X-X-X-X-X-X-X-X-X-X-X-X-X-X-X#X-X-X-X-X-XXX-X",
"-X-X-X-X-X-X-X-X-X-X-X-X-Xm.  +                             $ $ O.1       - XX-X-X-X-X-X-X-X-X-X-X-X-X-X-X-X-X-X-X-X-X-X-X-X-X-X-X-X-X-X-X-X-X-X-X-X-X-X-X#X-X.X",
"-X-X-X-X-X-X-X-X-X-X-X-X-XY.                                  R.-X-Xf     L.-X#X#X-X-X-X-X-X-X-X-X-X-X-X-X-X-X-X-X-X-X-X-X-X-X-X-X-X-X-X-X-X-X-X-X-X-X#XXX.X#X#X",
"-X-X-X-X-X-X-X-X-X-X-X-X-XXX          +         e G k       u -X-X-X-X1 8 -X-X-X-X-X-X-X-X-X-X-X-X-X-X-X-X-X-X-X-X-X-X-X-X-X-X-X-X-X-X-X-X-X#X#XXX-X-X#X-X-X-X-X",
"-X-X-X-X-X-X-X-X-X-X-X-X-X-X          +     + H.-X-X-X-XG   ..-X-X-X-X]./ -X-X-X-X-X-X-X-X-X-X-X-X-X-X-X-X-X-X-X-X-X-X-X-X-X-X-X-X-X-X-X-X-X#X#X#X#X-X-X-X-X-X-X",
"-X-X-X-X-X-X-X-X-X-X-X-X-X-X1         +   4 #X-X#X#X-X-X-X/ f.-X-X-X-X-X-XXX-X-X-X-X-X-X-X-X-X-X-X-X-X-X-X-X-X-X-X-X-X-X-X-X-X-X-X-X-X-X-X-X-X#X-X-X-X-X-X-X-X-X",
"-X-X-X-X-X-X-X-X-X-X-X-X-X-Xk   G f     P -X-X#X-X-X-X-X-X-XXX-X-X-X-X#X-X-X-X-X-X-X-X-X-X-X#X#X#X-X-X-X-X-X-X-X-X-X-X-X-X-X-X-X-X-X-X-X-X-X-XXX#X-X-X-X-X-X-X-X",
"-X-X-X-X-X-X-X-X-X-X-X-X-X-XR   -X-   u.-X-X-X#X#X#X-X-X-X-X-X-X-X-X-X-X-X-X-X-X-X-X-X-X-X-X-X#X-X-X#X-X-X-X-X-X-X-X-X-X-X#X-X-X-X-X-X-X-X-XXX#XXX#X-X-X-X-X-X-X",
"-X-X-X-X-X-X-X-X-X-X-X-X-X-X_ k.#X  .X-XXX-X#X-X-XXX-X-X-X-X-X-X-X-X-X-X-X-X-X-X-X-X-X-X-X-X].-X-X/.-X-X-X-X-X-X-X-X-X-X-X-X-X-X-X-X-X-X-X-X#X#X-X-X-X-X-X-X-X-X",
"-X-X-X-X-X-X-X-X-X-X-X-X-X-X].-Xf.W.-X-X-X-X-X-X-X-XXX#X-X-X-X-X-XXX-X-X-X-X-X-X-X-X-X-X#X-Xe -X-Xu -X-X-X-X/.-.P u 8 ,   w.-X-X-X-X-X-X-X-X#X#X#X-X-X-X-X-X-X-X",
"-X-X-X-X-X-X-X-X-X-X-X-X-X-X-X-XXX-X#X-X-X-X-X-X-X-X-X#XXX-X-X-X-X-X-XB...b 4 - 4 m -..X-X.X  w.8.  8.-Xa.4             Z.-X-X-X-X-X-X-X-X-XXX-X#X#X-X-X-X-X-X-X",
"-X-X-X-X-X-X-X-X-X-X-X-X-X-X-X#X-X#X-X-X-X-X-X-X-X-X-X-X#XXX-X-X-Xf.$                   &.m.        u b       +       f.-X#X-X-X-X-X-X-X-X-X-X#X#X#X-X-X-X-X-X-X",
"-X-X-X-X-X-X-X-X-X-X-X-X-X-X-X-X-X-X-X-X-X-X-X-X-X-X-X-X-X-X.X-X-X-X-X<.                  $                         , -X-X-X-X-X-X-X-X-X#X-X-X-X-X-X-X-X-X-X-X-X",
"-X-X-X-X-X-X-X-X-X-X-X-X-X-X-X-X-X-X-X-X-X-X-X-X-X-X-X-X-X-X-XXX#X-X-X-X/               + +                         G -X-X-X-X-X-X-X-X-XXX-X-X-X-X-X-X-X-X-X-X-X",
"-X-X-X-X-X-X-X-X-X-X-X-X-X-X-X-X-X-X-X-X-X-X-X-X-X-X-X#X-X-X-X-XXX#X-X-XB.    z                                 8 z Q -X-X-X-X#X-X-X#XXX-X-X-X-X-X#X-X-X-X-X-X-X",
"-X-X-X-X-X-X-X-X-X-X-X-X-X-X-X-X-X-X-X-X-X-X-X-X-X-X-X-X-X-X-X-X-X#XXX-Xa.G -X-XQ                       + +     .X-XB.-X-X-X-X-X-X#X#X-X-X-X-X-X-X#X-X-X-X-X-X-X",
"-X-X-X-X-X-X-X-X-X-X-X-X-X-X-X-X-X-X-X-X-X-X-X-X-X-X-X-X-X-X-X-X-X-X#X.X#X-X-X-XO.                    +   1   1 -X-X-X-X-X-X-X-X#XXX-X-X-X-X-X-X-X-X-X-X-X-X-X-X",
"-X-X-X-X-X-X-X-X-X-X-X-X-X-X-X-X-X-X-X-X-X-X-X-X-X-X-X-X-X-X-X-X-X-X-X-X#X#X#X-XR m =./                 { -X.XR -X#X-X-X-X-X-X#X#X-X#X-X-X-X-X-X-XY.-X-X-X-X-X-X",
"-X-X-X-X-X-X-X-X-X-X-X-X-X-X-X-X-X-X-X-X-X-X-X-X-X-X-X-X-X-X-X-X-X-X-X-X-XXXXX-X].-X-X-XW.            4 -X-X-X-X-X-X-X#X-X-X-XXX-X-X-X-X-X-X-X-X-X#X-X-X-X-X-X-X",
"-X-X-X-X-X-X-X-X-X-X-X-X-X-X-X-X-X-X-X-X-X-X-X-X-X-X-X-X-X-X-X-X-X-X-X-X-X-X#XXX-X#X#X#X-X<.    +     k.-X#X#X-X-X-X-X-X-X#XXX-X-X-X-X-X-X-X-X-X-X#X-X-X-X-X-X-X",
"-X-X-X-X-X-X-X-X-X-X-X-X-X-X-X-X-X-X-X-X-X-X-X-X-X-X-X-X-X-X-X-X-X-X-X#X-X-X-X#XXX-X-X-X-X-X4       - -X-X#X-X-X-X-X-X-X#X#X-X-X-X-X-X-X-X-X-X-X-X-X-X-X-X-X-X-X",
"-X-X-X-X-X-X-X-X-X-X-X-X-X-X-X-X-X-X-X-X-X-X-X-X-X-X-X-X-X-X-X-X-X-X-X-X-X-X-X-X-XXX-X-X-X-X_.  `   8.-X-X-X-X-X-X-X-X#XXX-X-X-X-X-X-X-X-X-X-X-X-X-X-X-X-X-X-X-X",
"-X-X-X-X-X-X-X-X-X-X-X-X-X-X-X-X-X-X-X-X-X-X-X-X-X-X-X-X-X-X-X-X-X-X-X-X-X-X-X-X-X-XXX#X-X-X-X} R.  -X-X-X-X-X-X-X-XXXXX-X-X-X-X-X-X-X-X-X-X-X-X-X-X-X-X-X-X-X-X",
"-X-X-X-X-X-X-X-X-X-X-X-X-X-X-X-X-X-X-X-X-X-X-X-X-X-X-X-X-X-X-X-X-X-X-X-X-X-X-X-X-X-X-X#XXX-X-X_..XZ.-X-X-X-X-X-X-X#X#X-X-X-X-X-X-X-X-X-X-X-X-X-X-X-X-X-X-X-X-X-X",
"-X-X-X-X-X-X-X-X-X-X-X-X-X-X-X-X-X-X-X-X-X-X-X-X-X-X-X-X-X-X-X-X-X-X-X-X-X-X-X-X-X-X-X-X#X#X-X-X-X-X#X-X-X-X-X-X#X#X-X-X-X-X-X-X-X-X-X-X-X-X-X-X-X-X-X-X-X-X-X-X",
"-X-X-X-X-X-X-X-X-X-X-X-X-X-X-X-X-X-X-X-X-X-X-X-X-X-X-X-X-X-X-X-X-X-X-X-X-X-X-X-X-X-X-X-X-X#XXX-X#X#X#X-X-X-X-X#XXX-X-X-X-X-X-X-X-X-X-X-X-X-X-X-X-X-X-X-X-X-X-X-X",
"-X-X-X-X-X-X-X-X-X-X-X-X-X-X-X-X-X-X-X-X-X-X-X-X-X-X-X-X-X-X-X-X-X-X-X-X-X-X-X-X-X-X-X-X-X-X-X-X-X-X-X-X-X-X#XXX-X-X-X-X-X-X-X-X-X-X-X-X-X-X-X-X-X-X-X-X-X-X-X-X",
"-X-X-X-X-X-X-X-X-X-X-X-X-X-X-X-X-X-X-X-X-X-X-X-X-X-X-X-X-X-X-X-X-X-X-X-X-X-X-X-X-X-X-X-X-X-X-X#X#X-X#X#X-X-X#X-X-X-X-X-X-X-X-X-X-X-X-X-X-X-X-X-X-X-X-X-X-X-X-X-X"
};
