/* XPM */
static char *_ba775f1efd242a5e5999c74613a4584g1wjnxzDVj6lnBaD[] = {
/* columns rows colors chars-per-pixel */
"80 80 256 2 ",
"   c #050209",
".  c #170209",
"X  c #090317",
"o  c #160417",
"O  c #0E1419",
"+  c #260205",
"@  c #360502",
"#  c #3C140F",
"$  c #270419",
"%  c #340518",
"&  c #271318",
"*  c #37181A",
"=  c #382819",
"-  c #0B0B24",
";  c #180426",
":  c #0F102E",
">  c #1B1429",
",  c #1B1A34",
"<  c #2A0226",
"1  c #390D28",
"2  c #261429",
"3  c #2A0736",
"4  c #350336",
"5  c #2A1A38",
"6  c #391738",
"7  c #172437",
"8  c #35242B",
"9  c #272537",
"0  c #460F0A",
"q  c #4A1A18",
"w  c #571D19",
"e  c #48261B",
"r  c #54251C",
"t  c #5C241C",
"y  c #56281A",
"u  c #5C2A1D",
"i  c #50301E",
"p  c #602515",
"a  c #64261D",
"s  c #6B251E",
"d  c #642A1E",
"f  c #6D2B1D",
"g  c #732B1D",
"h  c #78281D",
"j  c #6F321E",
"k  c #44052B",
"l  c #451A25",
"z  c #561B2B",
"x  c #480735",
"c  c #441737",
"v  c #651121",
"b  c #462825",
"n  c #4C2B23",
"m  c #5C2622",
"M  c #542B24",
"N  c #552926",
"B  c #5C2C24",
"V  c #5C2D29",
"C  c #5C3124",
"Z  c #553328",
"A  c #55322A",
"S  c #5C332B",
"D  c #492C36",
"F  c #582C33",
"G  c #5C3734",
"H  c #632624",
"J  c #6C2722",
"K  c #642C24",
"L  c #6B2C23",
"P  c #642D2A",
"I  c #6B2D2A",
"U  c #742621",
"Y  c #7B2622",
"T  c #732C24",
"R  c #7B2C24",
"E  c #742E2A",
"W  c #7C2E2A",
"Q  c #643225",
"!  c #6C3126",
"~  c #63322C",
"^  c #6C322C",
"/  c #663A2C",
"(  c #6D392C",
")  c #743124",
"_  c #7C3225",
"`  c #7D3827",
"'  c #74332C",
"]  c #7C332C",
"[  c #74392D",
"{  c #7D392D",
"}  c #6B2F33",
"|  c #732D31",
" . c #643531",
".. c #6C3532",
"X. c #663932",
"o. c #6C3A34",
"O. c #6C353B",
"+. c #733532",
"@. c #7C3532",
"#. c #743934",
"$. c #7C3A33",
"%. c #75393A",
"&. c #7B3B3B",
"*. c #7F4036",
"=. c #361949",
"-. c #192744",
";. c #17254E",
":. c #172D53",
">. c #39254B",
",. c #32304F",
"<. c #29396B",
"1. c #491846",
"2. c #55184B",
"3. c #68194B",
"4. c #4D2C4E",
"5. c #5A2548",
"6. c #583C46",
"7. c #493A55",
"8. c #712C54",
"9. c #52396A",
"0. c #713065",
"q. c #3B4353",
"w. c #364C70",
"e. c #554B56",
"r. c #6D4550",
"t. c #71635E",
"y. c #505070",
"u. c #69546E",
"i. c #6A4876",
"p. c #774979",
"a. c #7A6972",
"s. c #84281D",
"d. c #852623",
"f. c #832D25",
"g. c #8B2D25",
"h. c #832D2B",
"j. c #8B2E2C",
"k. c #922C24",
"l. c #972E2B",
"z. c #833226",
"x. c #8B3226",
"c. c #833824",
"v. c #83332C",
"b. c #8B342C",
"n. c #84392D",
"m. c #8B392E",
"M. c #923326",
"N. c #993425",
"B. c #93342D",
"V. c #9B342D",
"C. c #93392E",
"Z. c #9B392D",
"A. c #8F2E31",
"S. c #833531",
"D. c #8B3532",
"F. c #843A33",
"G. c #8B3A33",
"H. c #893538",
"J. c #843B3A",
"K. c #8C3C39",
"L. c #933532",
"P. c #9B3532",
"I. c #933B33",
"U. c #9B3B33",
"Y. c #983639",
"T. c #933C3A",
"R. c #9C3C3A",
"E. c #A32D2B",
"W. c #A2342C",
"Q. c #A73A2C",
"!. c #B3362E",
"~. c #A23532",
"^. c #A93533",
"/. c #A23A34",
"(. c #AB3B33",
"). c #A43C3A",
"_. c #AB3C39",
"`. c #B43934",
"'. c #9C402D",
"]. c #874139",
"[. c #974236",
"{. c #9C423B",
"}. c #A64135",
"|. c #A3413C",
" X c #B3403B",
".X c #913849",
"XX c #A83940",
"oX c #8D2F67",
"OX c #864643",
"+X c #954545",
"@X c #A44542",
"#X c #894D73",
"$X c #876D78",
"%X c #AC6473",
"&X c #8E8071",
"*X c #593E8A",
"=X c #4F558C",
"-X c #515F96",
";X c #71598E",
":X c #786686",
">X c #6B7391",
",X c #6877A9",
"<X c #944B83",
"1X c #875D8A",
"2X c #AF528F",
"3X c #876A8B",
"4X c #9B6787",
"5X c #8E768E",
"6X c #986695",
"7X c #AE6F95",
"8X c #8F6EAA",
"9X c #B273A9",
"0X c #D76AA1",
"qX c #D473AD",
"wX c #EF7CC2",
"eX c #7B8EAF",
"rX c #958592",
"tX c #A88C94",
"yX c #B3A895",
"uX c #918FA9",
"iX c #B290AE",
"pX c #B3ACB4",
"aX c #BEA7B8",
"sX c #C38E96",
"dX c #C9A79C",
"fX c #CE8EB3",
"gX c #EB85B9",
"hX c #CBACB7",
"jX c #E5ADBC",
"kX c #D5C0B4",
"lX c #E9C7B8",
"zX c #B392C5",
"xX c #A7ABDA",
"cX c #D38DC6",
"vX c #D796C4",
"bX c #EE93CA",
"nX c #D4AFCE",
"mX c #F0AACA",
"MX c #DCB9E8",
"NX c #D4C8D1",
"BX c #F1CDCB",
"VX c #E6C7D8",
"CX c #F9D9D8",
"ZX c #DFE1DD",
"AX c #E7E3DB",
"SX c #FCE5DA",
"DX c #D3C8E8",
"FX c #FADAE7",
"GX c #F0D2EB",
"HX c #FEEAE6",
"JX c #FCF7EC",
"KX c #EDE9F1",
"LX c #FBEAF7",
"PX c #FCF4F6",
"IX c #FEFBF5",
"UX c #FDFCFB",
/* pixels */
"e r B ~ [ ` { _ z.n.g s _ ` L T x.m.Z.Z.m.f.R ] Y T ' ~ V S A A ~ +.| E H.S.I P ~ ^ +.@.H.S.S.W h.L.B.B.b.h.R ] b.m.` j ! L a L J I M n i n e = S ~ P H e e y K ",
"M r r m ! ) ` z.f.z.G.v.{ { ) g z.x.x.B.m.x.b.h.T ] E I P V G S P ^ | E +.+...Q B P } @.E W W W B.I.L.l.b.v.R _ b.I.n.) d L T T T ' K M N e b e r B ^ I e i u d ",
"M B K K ! { v.j.D.I.I.f._ _ n._ h.h.b.j.b.b.b.h.W S.E H H H ~ X.S B P ........~ B N B P +.' { { b.I.L.V.z.v._ F.v.v.R Y j ) g s v.v.] ' ^ P r e r B P I C d d s ",
"N B K t ! ].C.P.L.L.L.f.R S.z._ ] G.S.D.n.z.D.d.h.v.| | E ^ I P G A S ....S V B V V S A ( o.] W b.I.U.B.) R _ _ T v.G.G._ _ R h m.b.S.v.+...r M ~ V K P C Q s s ",
"y r L T v.G.m.C.B.B.P.P.P.m.h j ] S.F.G.] Y j.D.B.L.H.W ' E L I E +.+.+.E E W @.j.v.S.H.b.B.L.B./.W.W.Z.N.V.x.h.h.j.H.&.[ _ G.U.~.P.B.g.S.] a K K ) T h s s g T ",
"r r ! ] G.F.G.C.U.B.P.U.U.L.m.n.] T h.h.h f.b.U.U.I.b.W E T T ' +.@.@.{ F.S.v.T.T.L.Y.T.b.B.T.L.P.R.Z./.(./.I.m.f.S.K.H.` _ m.C.V.V.M.B.h.h.' L f ] F.F._ Y t f ",
"~ K ' $.G.G.b.I.I.I.U.L.B.B.m.G.] s Y W R x.U.B./.I.z._ D.v.R _ W W h.h.B.C.U.U.U.I.U.P.I.D.G._ z.[.[./.Q.N.Z.I.L.T.+XD.[ ' ] F.C.B.U.P.f.f.b.f.g.b.B.I.b.f.g f ",
"' +.' ' S.n.b.b.b.U.U.I.I.I.I.I.] T S.G.c.C.Z./.Z.'.z.c.b.v.G.m.@.v.I./.Z././.V.U.U.U.U.b.b.z.n.` G.}./.N.C.'.U.I.R.K.S.$.[ { $.C.U.R.P.g.s.g.P./.U.V.U.P.b.R g ",
"$.] W W _ z.m.m.g.x.[.I.C.C.C.I.C.C.[.I.x.m.'.[.m.C.b.x.B.x.b.b.B.U.U./.Q.V.(.}._.)._./.B.f.v.].[.Z.U.U.'.'.'.U.K.].+.%.8.$.%.*.G.U.@Xl.L.b.g.l.C.M.Z.N.~.~.l.j.",
"v.] v.v._ z.m.G.b.x.I.G.C.I.Z.C.C.C.Z.C.m.m.z._ z.G.z._ g.b.v.v.x./.U././.V.V./.U.)./.R.G.v.f.I.U.Z.U./.'.U.[.x.{ $.#...*.$.r.].F.F.T.j.D.b.L.B.x.M.Z.W.^.l.A.j.",
"D.j.h.W R z.z.m.D.m.z.z.m.[.{.N.x.[.C.b.I.T.v.' [ $.' T { S.S.R Z.U././.).Y.I.G.].[ [ [ _ n.{.Y.m.M.Z.Z.[.C.` L ) #.( ~ ..+.].T.| | S.h.f.f.P.U.k.N.W.N.W.P.b.h.",
"Y.D.b.R _ z._ b.m.G.m._ _ C./.B.x.[.C.C.L.S.' I ( ( I ^ ] @.@.h.Z.U./.(.).P.T.G.! ! ! ( ) G.@X).x.C.U.Z.Z.m.[ ( L ^ ~ ~ ( +.F.T.+.| | S.b.f.l.U.W.W.E.E.B.M.h.v.",
"H.G.D.D.b.z._ _ ) c.n.z.h C.m.x.G.[.[.I.@.E E +.P ..I ..E P ^ o.{.+XK.].OXr.o.} S Z S X.E J.@X).I.I.C.m.S.D.Y.T.@.] E R v.S.$.' L W W h.E U Y h.k.V.V.l.L.D.' Q ",
"] R S.G.F.v.S.{ ) j _ T z.m.z._ v.R f.f.S.S.F.F.+.+.^ ~ ^ I I ..v.@.' ] E E } P X.~ S  .I S.R.Y.I.b.n.v.h.b.R.XX].G.n.v.v.W W W ] R j.W T T U W k.N.k.s.Y R L r ",
"{ ' ] ] E U E L L L T T T R R R Y f.D.b.j.S.I.L.G.{ ^ Q ^ ~ P B K L I @.$.' #...o.o.#.o.#.OXv.h._ ` v.F.D.D.b.D.b.v.b.n.z.z.f.x.v.f.d.d.Y h U U h B.j.s.s d t p ",
"' ] ] ] E L L L L L L I T ) $.F.v.j.D.x.v.b.B.P.b._ [ [ o.~ B C X.o.( #.' ' ( ..#...^ ..E F.W W ! ' ] { K.T.v.v.x.m.c.m.m.x.I.U.h.f.s.k.h.Y U U h m.h.f.j f p u ",
"~ ( ^ ' ] E s K E ' d a f R ] W L W D.A.L.j.S.H.S.] ] { $.' L Q I ^ %.%.S S o.+.%.o.S G  .~ I E n.] z.b.m.C.G.m.M.g.B.I.L.B.U./.Z.s.k.V.M.s.h R s.m.h h L d y e ",
"' ' $.@.S.W L d ] ' d a J ] W E T S.v.h.h.j.G.F.S.] ' W ) { ' E ) E I } ~ V %.%.%...( o.^ I +.T ) _ G.b.b.G.m.b.v.b.G.[.I.B.P.).B.k.V.W.k.s.g.z.z.b.Y d.! f d y ",
"T.S.v.] v.S.] a L ! d a s U ] ] T ] s U U U D.D.h.W W W T R W S.C.G.@.J .. .o. .L ^ ..I E E { _ T _ G.I.x.L.b.x.v.] v.{ z.b.P.P.Z.Z.P.W.B.V.B.M.b.b.x.j.T L d y ",
"L.Y.H.v.S.S.] s K L L J s s T W R T T T W W S.j.j.S.h.S.R W d.A.Z.I.S.J o.~ P S ! +.J.J.v.z.n.` g T D.x.b.I.b.x._ ] T ) n.I./.~.U.U.V.V.E.(.V.V.b.j.h.b.R ! ! t ",
"U.I.G.b.$.' ' ( T ! L L H J T v.] W T W { ] T h.D.D.L.A.d.A.j.R N.U.m.g ) K ~  .o.o.I.[.I.I.m.s.f g z.v.@.@.) ! ( L I ' $.F.[.I.Z.V.W./.Q./.Z.M.x.R _ ] ' T ' s ",
"L.B.D.G.S.L s [ E T L L s a s T E J J U E Y U h.S.D.j.j.T.[.K.K.V.Z.m.z.T ' #.! ^ ' x.m.b.b.B.f.v.n.v.v.W ' L Q K L I ' _ _ v.G.C.Z.W./.W.Z.B.Z.z.Y T _ I L T f ",
"L.B.b.x.' T _ v.] ] @.] T T L s J U W T T R W h.j.h.h.S.@.v.W F.U.V.Z.m.v.S.@.E W { W./.L.l.L.B.G.G.z.W L ! Q C K ' ' E T ] m.I.'.}.V.V.V./././.m.R h L T ) ' ) ",
"L.L.T.v.R @.G.G.W W h.W v.S.] ' J T T W F.D.D.h.L.D.v.v.' E Y D.Z.U.Z.Z.b.b.h.W W x.^.Q.P.P.P.V.m.b.v.` L K Q Q ^ ' ' ' _ _ [.G.U.'.Z.N.W./.P.^.v.c.R f L [ { ' ",
").).L.h.v.v.z.R S.D.D.L.b.v.F._ S.] T ' ' ] v.H.I.G.n.) d d ) $.U.Z.}.!.Y.L.S.E h.z.~./.P.I.T.S.g.b.x.v._ T L ( ! ( @.' { G.I.C.U.R.I.L.~.~._.^.).L.v.] E T ! L ",
").@XT.x.v.h.f.h.G.L.Y.L.v.b.n.n.] E ] ' T ] ] S.G._ ) ) / ( ^ ' m.C.}.Q.Y.A.S.` +.+.B.x.m.h.f.R j.b.D.b.T E #.[ L ^ ' E W S.G.I.V.U.M.x.L.P.)._.Y.T.F.n.] ] ) I ",
"I.G.b.b.g.x.L.Y.U.P.B.B.G.G.v.{ ' ' S.F.G.F.S.$.{ ' #.Q y / [ ^ g C.N.}.Y.j.T '  . .) ` U W Y R h.x.j.j.v.h.F.+.K I ' ' n.G.b.x.~.).D.b.j.j.b.j.W W { @.@.] ' W ",
"F.z.v.b.j.D.@X|.W.V.B.I.G.G._ _ ' ' S.S.D.] ) ) @.! y @ @ 0 ~ #.c.c.C.N.Y.b._ f # = t K E E h s.v.j.g.A.L.S.@.' ^ ! ' $.F.n.G.I.~.Y.b.h.h.v.D.j.] ] S.] W W W W ",
"].m.v.x.m.Z._.`.).~.P.~.U.T.H.@.{ S.E T L ' ' ] ] [ q lXdX@ C &.G.b.M.x.l.j.J.m . & & O 8 A L R B.L.L.b.I.b.h.b.G.] ] F.m.I.}.U.Y.h.h.W W W S.v.$.] ' E W v.{ S.",
"G.[.T.T.C.U._.(.).).).).I.T.S.@.S.v.S.W $.F.] ' { ' p &XSXe + ( D.I.v.z.L.S.%.... NXJXtX. *  .I b.G.L.B.L.I.b.G.H.S.G.G.G.U.R._.Y.d.h.h.h.h.h.S.@.] ] ] v.F.S.] ",
"b.+X|.).U./.(.(.U.|.@X|.z.z.S.H.W S.H.K.F.@.W v.v.' u @ kXHX. 0 T.].].#.A i * . b LXFXjXtX& * F T _ h.g.j.B.m.f.v.S.j.W b.L./._.L.h.h.] f.h.D.D.] @.S.J.G.D.S.S.",
"b.U.).).V.V./.~.L.U.).Z._ R @.h.j.H.K.D._ { ] S.S.@.#.0 e HXtX. v F.y * & & a.yXPXLXBXdXiX$X& c j T f.B.b.b.h.h W h.b.D.b.L.).^.L.h.W S.h.h.S.j.S.F.F.F.H.D.G.S.",
"z.m.U.V.V.P./.P.b.D.D.v.W m.j.j.z.L.W.E.x.M.Z.U.V.R.L.h 0 OXHXOXo O 6.t.SXHXIXUXUXUXUXhXqXmX6.* I I W j.` L T s ' z.B.W.Z.Z.P.Y.Y.A.h.v.E R T W S.G.G.F.n.n.n._ ",
"z.m.B.B.B.I.P.P.b.b.x.x.f.T.R.B.m.V._.`.).U.Z.V.V.B.j.b.d 0 jXjX>   SXIXLXJXJXIXUXUXKX7.vXfXa.. m P | | f ! ! T ' v.b.V.W.V.~.Y.L.j.h.W E U T ] G.F.K.S._ ] n.n.",
"z.b.D.h.) z.m.M.b.j.G.G.b.C.}.U./.Q. X X`.Q.V.M.A.j.m.D.{ r + $X7.iX7XjXGXHXPXHXJXVX,., cXvX$X& N F F F j a L I T ) z.m.~.).~.k.f.R T ! T L E ' K.K.D.G.@.S.F.@.",
"D.h.W ] ! ) v.I.h.b.b.m.B.x./.}.Q.!.`.!.`.(.W.Z.R.L.z.f.L S & o 9 :X7XmXiXhXNXkXnXe.- uX;XMX4.$ r.r.l * t d Q I f ) W W l.P.~.k.R T T ! L E E ] F.S.G.K.@.E @.@.",
"E J R W R Y _ z.x.B.B.V.x.c.`.(.!.!.Q.'.!.!.Q.(.(.}.OXM * D 6.o 6.mXiX5.w.-XnXVX>X7 ,.ZXiXuX6.$XCXBXiX5.* D } | L W D.R.Y.P.P.x.D._ L Q ) ! d Q ' ' $.F.' ' E ] ",
"J s J ' R s Y z.V.P././.M.M.`.`.(.Q.Q.Q.Q.Q.Q.(.(.~.F % D pXrX,.HXLXVX4X*X-XvXFXuX7 , a.;X0.VXmXSXSXVX8X2 2 | @.].S.d.g.d.s.b.b.] ' L ( ! L L T ' T ] v.' I d d ",
") d d d T v.L.~.V.V././.V.V.`.`.!.Q.W./.Z.V.W.W.@XW 2 9 3XKX5X: a.nXFXCXPXAX3X1.5Xu.o 9 hXCXCXCXFXtXDXuX:.- S H.T Y s.k.f.f.x.S.' [ ! ! L T F.H.D.G.F.' L K B B ",
"T d K C T G.~.E.k.l.V.W.N.W.!.!.Q.(.l.l.g.s.l.E.Y.w > eX7.pX,.-.5XVXVXCXUXUXGXMXGXKXLXLXCXCXSXBX5X* ,.w.y.7 q OXn.].V.N.x.z.h.W ) #.' ! L ` T.Y.Y.I.K.] L K C i ",
"R v.n.F.m.M.Z.V.k.g.g.x.N./.M.B.B.A.z.) j _ h D.[.q , eXe.a.y.xXlXlX0 iXDXGXLXLXAXPXUXUXGXrXnX0.& CXSXyX>X9 q J.Z.Z.B.s._ ].m.c.L.L.I.h.f.I.I.).B.I.F.) Q d y u ",
"Y ] _ R h x.V.V.{.'.s.x.M.k.M.Z.M.f._ _ _ g v.T.+X~ O >XNXuX-.7.sXdXl nX8 6.3Xp.e.e.y.5XaXaXnX6Xr.CX$X&Xq.  F OXU.Z.g.x.F.n.v.v.x.T.I.b.b.T.U.I.L.b.n._ Q C B B ",
"f g n.z.g h C.U.[.[.z.c.g.s.C.U.v.h z.z._ ` F.].r. .O O hXGXGX. =.>.;X;XsXdXqX*X<.9.u.5XGXBXp.nXVXrX  pXKX= + N I.R.Y f._ f.b.b.I.I.v.b.].G.I.I.b.b.D.D.v.R S.S.",
"d f c.v.j _ I.x.s.z.c.m.f.x.I.U.]._ c._ c.c.{ { = . O :.VXGXLXNX<.;.8XzXBXFXcXzX*X=XnXFXHXD =.i.& & NXUXJXJXtX& f.R.G.D.n.S.[.I.I.b.f.v.G.v.v.C.I.L.f.b.K.[.K.G.",
"d s f g M.B.n.h j g z.c.f.I.B.b.K.D.G.v.c.$.O.l O 7 w.-XnXUXJXSXBXlXBXsXqXmX:X>.*X9.:XzXiXu.iXNXKXJXCXBXSXJXJX6.N OXR.Z.T.L.b.b.G.b.h.v.W W T R L.b.f.Y j.H.Y.D.",
"a f f g x.m.m.m.{ h f.s.f.G._ R W E v.h.z.{ o.l 7 <.<.<.y.rXNXAXSXJXSXBXmXhXDXGXMXzXzXnXVXJXJXJXJXJXGXFXNXa.AXe.z OXR.[.L.D.b.B.I.b.b.G.W S.R R f.v.R R W K.K.H.",
") f Y _ z.c.x.m.n.].b.I.D.G._ ) ' ] ] S.v.] ~ r.y.: -X=XeX;.,.uXBXHXFXBXCXHXUXPXLXFXHXJXUXPXAXHXCXHXNXnX-X=X>X5 t OXR.}.T.x.b.L.I.D.I.L.' v.] h.z._ ` ] W K.G.R ",
"! s J _ R ] z.x._ v.b.I.b._ j Q ! [ T R B.@.F G ,X:.-XeX,X<.-.7 6.$XhXSXHXJXUXJXFXFXSXHXIXIXSXlXdXNX:X9.<.eXxX-.m OX}./.b.b.D.T.B.L.b.b.E ] W W ` ) _ _ ' F.@.E ",
"u u H f s L ! ! W D.A.A.S.@.L u V V P ..f.' ~ & O 9 q.>Xw.;.<.:.q., X >XhXnXKXAXDXVXLXDXaXrXDXu.7 : eX,.<.=XuX8 f ].[.[.c.c.b.G.G.v.m.b.W S.] R f._ v.v.v.S.$.' ",
"u d a L a L L H Y S.D.b.S.S.{ @.I I H | g I ..l O ,.DXu.;., w.;.rXtXuX: o < ; 6 6 6 4.2 X X e.u.q.7 -.w.DXy.O & _ ].I.[.f.v.b.v.v.v.b.b.S.v._ S.v.v.v.v.S.S.{ { ",
"u H L I L L L a f ) _ z.j.B.x.v.] ' ' ' ] @.I ..9 ; 9 5 c c < >.# k 4.c 5.x ; $ x x 4 < c 4 3.F ; ;X3 < 2.< . l { F.m.s.Y _ v.{ f.h.T.I.S.W v.S.v._ z.v.S.v.H.D.",
"t m L ' L a L J j j h v.B.g.g.l.b.] ] { %.+.H +.9 6 ;X1.7XfX1 3XjX7X$ 3XbX7X6.7XcXfX#X6XnX8.+XfX4 fXiX0.<X#X. D v.v.m.s.g R @.] R x.I.I.W h.S.v.v.m.v.v.S.v.L.L.",
"M m P H I J T | R f.d.M.~.V.V.V.V.k.d.d.h.] T L 8 % cX2XoXbXc 2 bXwX% fXbXoX2XgXwX0X0XqXvXk 0X2Xv wX9X8.vX#X+ b { _ { ) T E ' K R ] v.S.T F.S.H.v.D.T.Y.b.b.D.I.",
"B P m P P I I L Y _ b.b.U.Z.P.M.b.B.U.I.v.] v.{ b + 5.9X8.fXiX. bX0X$ fXbX3.oXgXwX2X0.wX6X4 wXoX%XqX4X3.fX% +  ._ _ { _ E L f L v._ ' ] I $.] S.v.D.D.L.G.I.I.I.",
"~  .P S V m m P L T n.m.I.c.v.v.m.n.B.I.L.C.C.z.( q $ #Xk 7XGX. bXqX< vXfX3.0.cXcX0.1.cX4.1.fXx oXmX5.p.#X% w } _ ] _ n.J E W v.n.T f Q K ' @.] v.D.D.j.I.T.b.G.",
"I  .S S n n M C ! ) _ z.F.n._ ` n.n.m.L.C.I.m.R ) Q + 1 1.0.VX. wX0Xo iXfX3.8.wX9X4 2.qX4 <X7Xx %XmX1 9Xk % O.O._ { W { W W j.L.].) u u C Q ] v.S.D.XX+X).I.f._ ",
"] [ L K P m ~ ~ ' ..+.I ^ ' #.' ] F.I.P.I.G.) [ _ ! = o =.2 nXo 8.7Xo i.9X< 3.vX9X=.2XoX1 fX#X6 fXc < #X$ b / [ ` T s T { S.m.b.S.@.! C Q ! ' @.$.$.F.H.L.D.D.j.",
"S.F.' [ I P ( ~ I ^ I P K ^ ( ' ' v.L.).I.m.] _ ) ' b + X 5 vX; 2.9X- 7.5Xo 8.vX6X3 <X2.3.9X1.5.nX% 4X5.q X.Q u a ' ' E ' $.S.z.S.@.$.K Q ' @.$.$.] $.S.S.H.T.D.",
"_ { S.F.%.+.^ I B P Q ~ B K P ~ _ b.U./.P.U.U.Y.G.I ~ e o o <X1.4 6XX 5 ;X; 0.cX1.; 6X4 0.6X4 3X#X$ iX+ w | [ j d ! +.^ } P #.*.G.S.F.E ' $.&.$.].$.S.{ v.S.].G.",
"f.v.n.S.%.' +.^ o.o.~ ~ B S ~ S _ G.I.V.N././.~.].) ( ~ $ X 0.;X3 1XX 5 0.; <XqX5 =.1X3 8X2.4 9X4 iX1 % @.H.[ ( L ! ^ K N B m ~ h.S.S.v.@.@.] #.*.].@.F.S.v.{ S.",
"A.D.F.#.o... .o.#.o.[ ' ) ' ] ] _ z.Q.Q.Q.Q.c.n.v.' ! ~ 8 . - =X: e.X 5 9.3 0.;X- >.>.3 8X< 9.i.3 3X+ q Y.).L.b.E I S A A A A S T @.S.S.S.+.+.+.] F.S.S.#.#.$.$.",
"j.v.{ ' %.+.%.+.#.#.$.) ' _ *.S.m.x.'./.}.|.x._ z.F.' ' G *   ; : y.X 7 9.> ;X0.; e.=.>.i.3 4Xc o $ l &._.Y.Y.).*.' Q V A S S S ] ] S.F.H.@.J.^ I ' @.+.#.$.$.$.",
"E E T ^ | +.S.F.Y.U.P.A.V.W././.R.U.I.B.I.I.G.v.c.n.] #.S.@.z @ X o X e.,.=.;X9.: 9.2 u.>.2 6 $ 0 F.b.}._./._.|.T.T.D.j.E v.F.G.{ ] ] F..X%.%.I Q K K o.$.#.J.J.",
"' [ ' #.@.@.+X.XY.U.P.V./.}.V.N./.U.[.[.G.S.K.S._ v.G.H.v.v.%.P l + . o   - 1.=.; , X o X X & c ( _ M.}. X_.Q. XI.b.G.D.z.R v.v.$.@.@.@.J.@.I ! C C u Q #.$.$.S.",
"m.x.j.B.I.I././.~._.Y.B._.).m.z.m.C.[.P.G.F.S.{ _ ` T.b.z.v.n._ ] v.v.Y 0 @ @ + @ @ @ 0 H P m ~ ^ ` D.R.R.).)._.I.x.m.K.x.c.b.I.F.m.D.H.W &.+.}  .B N A ~ ! $.@.",
"z.m.I.[.I.U.R.R.Y.R.P.P.P.R.m.n.m.C.[.C.v.G.F.{ n.z.b.D.] v.v.n.] S.K.T..XJ.#.o.o.o.&.r.J.@.+.~ ) ' W ] B.Y.).@XI.m.m.b.z.g.I.T.[.n.K.H.@.@.%.+.P V V M B L @.H.",
"v.C.I.{.U.I.C.m.B.L.T.I.T.T.D.G.G.G.I.H.W W @.$.G.H.G.F.S.S.v.S.] ] G.D.S.$.@.' J.@.v.S.K.v.{ L K H ' ' W W W W T G.D.z.j.D.Y.H.G.m.H.F.+.' I ^ M B B B K ^ J.D.",
"b.m.I.C.P.U.v.x.L.I.I.m.v.S.G.H.K.G.K.G._ W S.$.H.H.K.H.W _ S.S.S.] F.S.] z.v.v.S.R h.j.S.j.v.{ t K ! ! E E E E T F.h.j.j.D.D.j.I.G.].J.J.%.I P Z B K L ! ' F.j.",
"S.S.D.T.).L.R _ W @.' ^ ( ^ +.H.K.J.S.S.&.&.o.o.%.+.+.#.+...I +.] ] ' ] ] @.] ] L s _ $.f._ n.` %.E I I I  .P V ~ ^ E | ' @.$.+.] v.K.G.$.F.' I d ! d d d ^ S.{ ",
"v.v.h.T.U.G._ F.{ ] ' ....P E @.S.$.F.S.#.#.Q M ....o.^ } I I I { @.@.S.] ] J s s L ' ' _ Y n.S.@.H E I ..P V V B P I | @.' ' ' ' E F.G.@.F.) I K d Q K s ) @.] ",
"S.S.W { D._ h n.F.#.( .. .~ ^ ..E ] $.$.+.^ B M ~ / / S m K K m ] W ] z.%.@.I a a H ! ! ' I ] S.%.I +.I ~ B S B B B I E I ^ I ! I ) H.@.{ { ' ) ! K d [ ' ' [ ! ",
"j.W f L _ _ R F.$.[ ..o...o. .S I ' ' +.P M B n B S ~ A m ~ m m W ] @.] ' #.' ! K P K u ! ' @.h.%.| } I B B N M M V o.( ' L Q Q ! +.#.$.] S.I ' ( d u #.` I ! Q ",
"H K K K T W ] n.#.( S S S B A B C C u u M B P P ~ K w H r M w L W W +.+.! ! ! [ ! Q u Q B B P M K ^ ^ T m P P M a K %.#.@.@.I ) ........+.^ I +.' E E @.o.S B A ",
"Q K K Q I ! I ' #.#. .Z M B B M C / B u r B I E P H t m r m w I W W E ^ K d Q ! ! ! d u B m B m r K ^ ' +.%.^ P m H E &.@.] ' s P P P P ( P I ..^ I E |  .~ S A ",
"/ C C C j d d d ' ..~ M M M V B i Q ~ H M K I I P K K H V m H H W E ! Q C u u C ( ^ H H V m V V B ( [ ] +.| @.+...P %.&.' +.+.L ..P P P C C ~ S V H K P V B N A ",
"C u C C C C Q Q I ^ B M M V A M C Q ( ( P ^ I I H H H P m K I E E ' ! ~ K C u y ' ' ' .. .B M B B ! #.] @.E @.%.~ K I E E E ^ ....P P P C G S S V N m m m N M M ",
"r y m I E E ^ ( J H Q y K d L I I E v.h.' +.^ ' Q K ^ L B K | | | ..B Z n A Z b n N m } X.S V ~ B H I ..@.+.I | K I P I +.I ..+. .m P Q V X.X.X.S N n e A A b F ",
"C M K L E E Q d d Q C u t Q +.' ' ) E @.' ^ ' ( ! d a K m K I E | I V M n n n n n N V ..o.X. .~ C ~ P H ..+...I H P P I ^ ..^ K V B M M N S o.X.S M n = e D n n ",
"B P C B I ! u r e r y u K L #.[ ' I +.( K ! ! ~ ^ L w t r H I E P P ~ ~ A Z n n n M ~ ..o.o...V Q ~ P K I ^ P I P C ~ ~  . .~ P n M M S ~ X. .X.G e n e = b n A ",
"M B B A I s t y e e y u d Q ' ) T ! K P L K ! B E ! r r r ^ @.| .. . .~ A Z A A n n G  .~  .o.P B P L I I ^ P K ~ ~ B ~  .S  . .S A G S X. .A ~  .e b e b b b n "
};
