/* XPM */
static char *_0770ec485d14755dbe6b0fba017faefGWN3q6kOKm8mOVBz[] = {
/* columns rows colors chars-per-pixel */
"80 80 253 2 ",
"   c #010102",
".  c #030509",
"X  c #0B030C",
"o  c #180705",
"O  c #18150C",
"+  c #0C0715",
"@  c #140617",
"#  c #1C031B",
"$  c #161518",
"%  c #250C09",
"&  c #380306",
"*  c #271906",
"=  c #36190B",
"-  c #22021C",
";  c #280619",
":  c #36071C",
">  c #291717",
",  c #1B2D1A",
"<  c #2B240A",
"1  c #37270A",
"2  c #2E2713",
"3  c #382B14",
"4  c #3A3018",
"5  c #1D1823",
"6  c #240122",
"7  c #2C0124",
"8  c #280B24",
"9  c #350328",
"0  c #271827",
"q  c #3D0131",
"w  c #371D31",
"e  c #0E2D2E",
"r  c #28252B",
"t  c #312D2B",
"y  c #342C35",
"u  c #363538",
"i  c #4E010A",
"p  c #6A000E",
"a  c #482F0C",
"s  c #472B15",
"d  c #483517",
"f  c #56381B",
"g  c #47002B",
"h  c #4E152E",
"j  c #470433",
"k  c #56023A",
"l  c #46133A",
"z  c #661724",
"x  c #593C22",
"c  c #492E31",
"v  c #653828",
"b  c #154F33",
"n  c #394D34",
"m  c #595019",
"M  c #5A4525",
"N  c #524D31",
"B  c #644325",
"V  c #6A4526",
"C  c #664529",
"Z  c #6A4629",
"A  c #674828",
"S  c #6B482A",
"D  c #6E5736",
"F  c #746631",
"G  c #243A49",
"H  c #4E0540",
"J  c #590945",
"K  c #581746",
"L  c #650446",
"P  c #6C0F4F",
"I  c #7A0556",
"U  c #503047",
"Y  c #66254A",
"T  c #732F59",
"R  c #723562",
"E  c #32494C",
"W  c #1D636A",
"Q  c #474547",
"!  c #554C56",
"~  c #505653",
"^  c #665553",
"/  c #4E674E",
"(  c #6D6655",
")  c #5A5A61",
"_  c #754E6A",
"`  c #5B6865",
"'  c #70706F",
"]  c #9E011E",
"[  c #94022F",
"{  c #BA0227",
"}  c #C3042A",
"|  c #C70634",
" . c #87035B",
".. c #91005F",
"X. c #B40751",
"o. c #913157",
"O. c #8C0864",
"+. c #980767",
"@. c #911D67",
"#. c #A4046B",
"$. c #A30D6E",
"%. c #A50E71",
"&. c #AB0E74",
"*. c #AC0F78",
"=. c #B10E76",
"-. c #B30E7A",
";. c #B80C7A",
":. c #AC1279",
">. c #B21379",
",. c #B4107B",
"<. c #BB117D",
"1. c #91326B",
"2. c #993677",
"3. c #AA2B73",
"4. c #CE0C45",
"5. c #D30E4B",
"6. c #D60758",
"7. c #CE1154",
"8. c #DC0C63",
"9. c #D71564",
"0. c #DD1366",
"q. c #DE146A",
"w. c #C20B7F",
"e. c #C2127F",
"r. c #E3166B",
"t. c #E42C77",
"y. c #85784B",
"u. c #8C5075",
"i. c #9E5770",
"p. c #708576",
"a. c #95823C",
"s. c #988C4C",
"d. c #AF9D51",
"f. c #948A6C",
"g. c #A9996E",
"h. c #BAAE61",
"j. c #C2B75F",
"k. c #C6B273",
"l. c #DAC86E",
"z. c #E4D374",
"x. c #136B87",
"c. c #7B7B85",
"v. c #B51281",
"b. c #BE1282",
"n. c #B91887",
"m. c #B03888",
"M. c #C50E84",
"N. c #C31283",
"B. c #CB1286",
"V. c #C31489",
"C. c #CD1389",
"Z. c #D01386",
"A. c #D3148C",
"S. c #D9148E",
"D. c #CE1892",
"F. c #D51591",
"G. c #DC1592",
"H. c #DC1A9A",
"J. c #E11695",
"K. c #E5169A",
"L. c #E7199C",
"P. c #CD2E9A",
"I. c #DF1EA0",
"U. c #EA1CA4",
"Y. c #F41DAB",
"T. c #E824A7",
"R. c #EB24AB",
"E. c #F325AD",
"W. c #EE2CB2",
"Q. c #F32CB4",
"!. c #FC2AB9",
"~. c #EC38B2",
"^. c #F735B7",
"/. c #885D86",
"(. c #B94D8D",
"). c #936B8B",
"_. c #AF6997",
"`. c #B775A2",
"'. c #C74C95",
"]. c #CE529A",
"[. c #D8599F",
"{. c #F04C8D",
"}. c #EC5AAD",
"|. c #F753B8",
" X c #C673A8",
".X c #FD63BB",
"XX c #F868B9",
"oX c #EF76B9",
"OX c #F353C2",
"+X c #FE6BC1",
"@X c #FA77C5",
"#X c #0F8DAA",
"$X c #7B8282",
"%X c #8B8D90",
"&X c #969799",
"*X c #A99D88",
"=X c #9DA897",
"-X c #AFAC93",
";X c #AE8FA8",
":X c #9DA4A5",
">X c #A7A9AA",
",X c #B2B2A9",
"<X c #AEB8B7",
"1X c #B6B7B7",
"2X c #CE8BB5",
"3X c #D4A2B6",
"4X c #A6C9A6",
"5X c #DECF93",
"6X c #EAD88F",
"7X c #FEF18B",
"8X c #FFF898",
"9X c #D5D0B5",
"0X c #E5DCB7",
"qX c #FFFAA6",
"wX c #F3E9B0",
"eX c #FFF9B9",
"rX c #DD95C4",
"tX c #F989CD",
"yX c #EC93CA",
"uX c #F897D4",
"iX c #F69BD4",
"pX c #F99CD5",
"aX c #FD9EDA",
"sX c #D7AACA",
"dX c #F5A1D6",
"fX c #F9A4DA",
"gX c #FEA3DC",
"hX c #E9B1D5",
"jX c #FFA5E1",
"kX c #FFABE3",
"lX c #FFAAE8",
"zX c #FBB7E6",
"xX c #BDC8C4",
"cX c #C6C8C8",
"vX c #D0D6D3",
"bX c #E1DED3",
"nX c #E7E7CD",
"mX c #F3EBC8",
"MX c #FFF7CF",
"NX c #FFFACA",
"BX c #FFF6D2",
"VX c #FFFBD5",
"CX c #FFFDDA",
"ZX c #FDC4EB",
"AX c #FFC9F5",
"SX c #F8D9F6",
"DX c #DCE6E3",
"FX c #E7EAE8",
"GX c #FFFFE3",
"HX c #FEFDEB",
"JX c #F0EEF1",
"KX c #F6F8F7",
"LX c #FFFFFF",
/* pixels */
"LXLXLXLXLXLXLXLXLXLXLXLXLXLXLXLXLXLXLXLXLXLXLXLXLXLXLXLXLXLXLXLXLXLXLXLXLXLXLXLX1XbXLXLXLXLXLXLXLXLXLXLXLXLXLXLXLXLXLXLXLXLXLXLXLXLXLXLXLXLXLXLXLXLXLXLXLXLXLXLX",
"LXLXLXLXLXLXLXLXLXLXLXLXLXLXLXLXLXLXLXLXLXLXLXLXLXLXLXLXLXLXLXLXLXLXLXLXLXLXLX`     LXLXLXLXLXLXLXLXLXLXLXLXLXLXLXLXLXLXLXLXLXLXLXLXLXLXLXLXLXLXLXLXLXLXLXLXLXLX",
"LXLXLXLXLXLXLXLXLXLXLXLXLXLXLXLXLXLXLXLXLXLXLXLXLXLXLXLXLXLXLXLXLXLXLXLXLXLX,X0 1XDXLXLXLXLXLXLXLXLXLXLXLXLXLXLXLXLXLXLXLXLXLXLXLXLXLXLXLXLXLXLXLXLXLXLXLXLXLXLX",
"LXLXLXLXLXLXLXLXLXLXLXLXLXLXLXLXLXLXLXLXLXLXLXLXLXLXLXLXLXLXLXLXLXLXLXLXLXJX  LXLXLXLXLXLXLXLXLXLXLXLXLXLXLXLXLXLXLXLXLXLXLXLXLXLXLXLXLXLXLXLXLXLXLXLXLXLXLXLXLX",
"LXLXLXLXLXLXLXLXLXLXLXLXLXLXLXLXLXLXLXLXLXLXLXLXLXLXLXLXLXLXLXLXLXLXLXLXLX@ cXLXLXLXLXLXLXLXLXLXLXLXLXLXLXLXLXLXLXLXLXLXLXLXLXLXLXLXLXLXLXLXLXLXLXLXLXLXLXLXLXLX",
"LXLXLXLXLXLXLXLXLXLXLXLXLXLXLXLXLXLXLXLXLXLXLXLXLXLXLXLXLXLXLXLXLXLXLXLXJX$ LXLXLXLXLXLXLXLXLXLXLXLXLXLXLXLXLXLXLXLXLXLXLXLXLXLXLXLXLXLXLXLXLXLXLXLXLXLXLXLXLXLX",
"LXLXLXLXLXLXLXLXLXLXLXLXLXLXLXLXLXLXLXLXLXLXLXLXLXLXLXLXLXLXLXLXLXLXLXLXcXu LXLXLXLXLXLXLXLXLXLXLXLXLXLXLXLXLXLXLXLXLXLXLXLXLXLXLXLXLXLXLXLXLXLXLXLXLXLXLXLXLXLX",
"LXLXLXLXLXLXLXLXLXLXLXLXLXLXLXLXLXLXLXLXLXLXLXLXLXLXLXLXLXLXLXLXLXLXLXLXDXt LXLXLXLXLXLXLXLXLXLXLXLXLXLXLXLXLXLXLXLXLXLXLXLXLXLXLXLXLXLXLXLXLXLXLXLXLXLXLXLXLXLX",
"LXLXLXLXLXLXLXLXLXLXLXLXLXLXLXLXLXLXLXLXLXLXLXLXLXLXLXLXLXLXLXLXLXLXLXLXLX. LXLXLXLXLXLXLXLXLXLXLXLXLXLXLXLXLXLXLXLXLXLXLXLXLXLXLXLXLXLXLXLXLXLXLXLXLXLXLXLXLXLX",
"LXLXLXLXLXLXLXLXLXLXLXLXLXLXLXLXLXLXLXLXLXLXLXLXLXLXLXLXLXLXLXLXLXLXLXLXLX! >XLXLXLXLXLXLXLXLXLXLXLXLXLXLXLXLXLXLXLXLXLXLXLXLXLXLXLXLXLXLXLXLXLXLXLXLXLXLXLXLXLX",
"LXLXLXLXLXLXLXLXLXLXLXLXLXLXLXLXLXLXLXLXLXLXLXLXLXLXLXLXLXLXLXLXLXLXLXLXLXJX+ LXLXLXLXLXLXLXLXLXLXLXLXLXLXLXLXLXLXLXLXLXLXLXLXLXLXLXLXLXLXLXLXLXLXLXLXLXLXLXLXLX",
"LXLXLXLXLXLXLXLXLXLXLXLXLXLXLXLXLXLXLXLXLXLXLXLXLXLXLXLXLXLXLXLXLXLXLXLXLXLX~ &XLXLXLXLXLXLXLXLXLXLXLXLXLXLXLXLXLXLXLXLXLXLXLXLXLXLXLXLXLXLXLXLXLXLXLXLXLXLXLXLX",
"LXLXLXLXLXLXLXLXLXLXLXLXLXLXLXLXLXLXLXLXLXLXLXLXLXLXLXLXLXLXLXLXLXLXLXLXLXLXJX  LXLXLXLXLXLXLXLXLXLXLXLXLXLXLXLXLXLXLXLXLXLXLXLXLXLXLXLXLXLXLXLXLXLXLXLXLXLXLXLX",
"LXLXLXLXLXLXLXLXLXLXLXLXLXLXLXLXLXLXLXLXLXLXLXLXLXLXLXLXLXLXLXLXLXLXLXLXLXLXLXU ,XLXLXLXLXLXLXLXLXLXLXLXLXLXLXLXLXLXLXLXLXLXLXLXLXLXLXLXLXLXLXLXLXLXLXLXLXLXLXLX",
"LXLXLXLXLXLXLXLXLXLXLXLXLXLXLXLXLXLXLXLXLXLXLXLXLXLXLXLXLXLXLXLXLXLXLXLXLXLXLX>Xy LXLXLXLXLXLXLXLXLXLXLXLXLXLXLXLXLXLXLXLXLXLXLXLXLXLXLXLXLXLXLXLXLXLXLXLXLXLXLX",
"LXLXLXLXLXLXLXLXLXLXLXLXLXLXLXLXLXLXLXLXLXLXLXLXLXLXLXLXLXLXLXLXLXLXLXLXLXLXLXLX. LXLXLXLXLXLXLXLXLXLXLXLXLXLXLXLXLXLXLXLXLXLXLXLXLXLXLXLXLXLXLXLXLXLXLXLXLXLXLX",
"LXLXLXLXLXLXLXLXLXLXLXLXLXLXLXLXLXLXLXLXLXLXLXLXLXLXLXLXLXLXLXLXLXKXLXLXKXDXvXJXX LXLXLXLXLXLXLXLXLXLXLXLXLXLXLXLXLXLXLXLXLXLXLXLXLXLXLXLXLXLXLXLXLXLXLXLXLXLXLX",
"LXLXLXLXLXLXLXLXLXLXLXLXLXLXLXLXLXLXLXLXLXLXLXLXLXLXLXLXLXLXLXLXLXKX%Xc z P [ p + U ' 1XLXLXLXLXLXLXLXLXLXLXLXLXLXLXLXLXLXLXLXLXLXLXLXLXLXLXLXLXLXLXLXLXLXLXLXLX",
"LXLXLXLXLXLXLXLXLXLXLXLXLXLXLXLXLXLXLXLXLXLXLXLXLXLXLXLXLXLXLXLX` g 3.t.{.7.| [ & | 5.o.y <XLXLXLXLXLXLXLXLXLXLXLXLXLXLXLXLXLXLXLXLXLXLXLXLXLXLXLXLXLXLXLXLXLXLX",
"LXLXLXLXLXLXLXLXLXLXLXLXLXLXLXLXLXLXLXLXLXLXLXLXLXLXLXLXLXLXDX5 X.r.{.r.r.o.i o & g {.{.{.h %XLXLXLXLXLXLXLXLXLXLXLXLXLXLXLXLXLXLXLXLXLXLXLXLXLXLXLXLXLXLXLXLXLX",
"LXLXLXLXLXLXLXLXLXLXLXLXLXLXLXLXLXLXLXLXLXLXLXLXLXLXLXLXLXJX- 6.r.6.8.8.9.t.{.{.{.{.t.r.r.t.g >XLXLXLXLXLXLXLXLXLXLXLXLXLXLXLXLXLXLXLXLXLXLXLXLXLXLXLXLXLXLXLXLX",
"LXLXLXLXLXLXLXLXLXLXLXLXLXLXLXLXLXLXLXLXLXLXLXLXLXLXLXFXvXu X.r.6.JX{.8.r.0.0.8.9.6.[.LXoX8.| % y Q %XJXLXLXLXLXLXLXLXLXLXLXLXLXLXLXLXLXLXLXLXLXLXLXLXLXLXLXLXLX",
"LXLXLXLXLXLXLXLXLXLXLXLXLXLXLXLXLXLXLXLXLXLXLXLXLXc.t ^ N g r.r.6.ZX8.0.0.0.9.r.8.r.5.bXLXr.6.p ' HX,XQ Q JXLXLXLXLXLXLXLXLXLXLXLXLXLXLXLXLXLXLXLXLXLXLXLXLXLXLX",
"LXLXLXLXLXLXLXLXLXLXLXLXLXLXLXLXLXLXLXLXLXLXLXc.4 9XHXeXN X.r.0.9.6.8.0.0.0.8.0.r.8.6.2XLXr.5.[ 4 CXVXGX0Xu %XLXLXLXLXLXLXLXLXLXLXLXLXLXLXLXLXLXLXLXLXLXLXLXLXLX",
"LXLXLXLXLXLXLXLXLXLXLXLXLXLXLXLXLXLXLXLXLXJXr *X0X' mX8X> 8.r.0.0.0.9.q.0.0.0.0.0.0.0.t.8.9.6.] 1 eXVXBXBXGX' ' LXLXLXLXLXLXLXLXLXLXLXLXLXLXLXLXLXLXLXLXLXLXLXLX",
"LXLXLXLXLXLXLXLXLXLXLXLXLXLXLXLXLXLXLXLXvX$ mXGX$ x.4 8X% 7.r.0.0.0.0.0.q.0.0.q.0.0.0.0.0.r.| z m NXCXBXMXBXHX( :XLXLXLXLXLXLXLXLXLXLXLXLXLXLXLXLXLXLXLXLXLXLXLX",
"LXLXLXLXLXLXLXLXLXLXLXLXLXLXLXLXLXLXLXcX2 CXVXVX7Xd.8X7Xx [ 8.0.0.0.0.0.0.0.q.q.0.0.0.0.q.5.{ o l.7X5XCXBXMXBXVX> LXLXLXLXLXLXLXLXLXLXLXLXLXLXLXLXLXLXLXLXLXLXLX",
"LXLXLXLXLXLXLXLXLXLXLXLXLXLXLXLXLXLXKX> VXVXMXBXVXD m a.k.& | 0.q.q.0.q.0.q.9.q.0.0.r.r.7.} g 4 N t ^ CXGXVXGXLX' %XLXLXLXLXLXLXLXLXLXLXLXLXLXLXLXLXLXLXLXLXLXLX",
"LXLXLXLXLXLXLXLXLXLXLXLXLXLXLXLXLXLXN -XCXBXBXMXVXGXCX,X( X & { 4.8.r.r.r.r.q.q.0.0.7.{ { i   ` wXGXGX` W x.Q LXnXy LXLXLXLXLXLXLXLXLXLXLXLXLXLXLXLXLXLXLXLXLXLX",
"LXLXLXLXLXLXLXLXLXLXLXLXLXLXLXLXLXLX< NXCXBXCXHX9XQ 0XCXGXBXf.> p ] } | 4.5.5.| | { { p X ' HXGXVXBXGX( N F 9XLXHX$ ' 1XLXLXLXLXLXLXLXLXLXLXLXLXLXLXLXLXLXLXLXLX",
"LXLXLXLXLXLXLXLXLXLXLXLXLXLXLX,X' u a 8XCXBX9X~ W W g.VXBXBXGXHX9X( c i i i p p & h ) <XLXLXGXmXBXHXmXGXCXCXLXLXnXY [.2.U ! 1XLXLXLXLXLXLXLXLXLXLXLXLXLXLXLXLXLX",
"LXLXLXLXLXLXLXLXLXLXLXLXLX%X9 @.]..Xl z.eXCXnXu %XVXVXBXMXVX0X,XVXCXGXNXFXvXvXDXKXLXLXLXHXBXBXBXCX~ G 0XCXBXLXKX-X3.+XaXlXiXu.u JXLXLXLXLXLXLXLXLXLXLXLXLXLXLXLX",
"LXLXLXLXLXLXLXLXLXLXLXDX9 3.fXZXuX+X[.d 8XNXVXGXVXMXVXBXVXGXe 5 5XCXBXBXGXLXLXLXHXHX' E ' 0XVXBXCX=X#Xa eXCXVXeXt m.1.Y _.LXLXhX0 JXKXLXLXLXLXLXLXLXLXLXLXLXLXLX",
"LXLXLXLXLXLXLXLXLXKXsX: yXzXLXSX].Y c @ m 7XeXBXVXBXMXBXVXFXG b l.VXBXBXBXmX0XVXMXBXd.n e F CXMXBXCXd.5XNXNX6XM c ).3XhXiXdXSXLXyXy LXLXLXLXLXLXLXLXLXLXLXLXLXLX",
"LXLXLXLXLXLXLXLXLXDX- aXpXuXuXyXiXzXZXhX_ < z.qXeXMXVXBXVXBX' s.0XCXBXBXGXE e h.CXBXCXeXqXVXBXBXBXMXNXqX6XF r 2XSXzXlXfXpXiXuXfXjX).' LXLXLXLXLXLXLXLXLXLXLXLXLX",
"LXLXLXLXLXLXLXLXLXr 2XaXfXfXpXiXiXiXfXZXSXhXc m j.7XqXeXNXVXGXGXCXVXBXVXmXe b 0XCXCXCXVXVXNXeXqX8X6Xs.d U ;XAXzXgXiXiXiXpXjX XrXjXjXy KXLXLXLXLXLXLXLXLXLXLXLXLX",
"LXLXLXLXLXLXLXLX>XY lXdXu.^ `.gXiXpXrX_ _.zXAXhX_ c d F j.6X8X8XqXqXeXNXwXf.g.NXeXqX8X8X7X7Xk.y.t c ).ZXAXlX2XR 2XdXiXiXgXU =X) `.jX_ :XLXLXLXLXLXLXLXLXLXLXLXLX",
"LXLXLXLXLXLXLXLXy yXaXrXt cXq gXuXgXr nX- rXdXfXZXAXAXrX).U c M F y.s.d.d.h.h.d.s.y.D N t c _ ;XzXAXlXiXiXdXr :Xh fXiXiXgX).u.h  XkX].~ LXLXLXLXLXLXLXLXLXLXLXLX",
"LXLXLXLXLXLXLXJX8 lXiXjX_.T yXpXpXfX_.K '.uXiXiXyXhXKXLXKXSXAXzXsX;X).)./././.).).;X2XhXzXzXzXgXiXiXyXiXiXiX2Xu.oXaXiXiXiXgXuXuXdXdX+Xy LXLXLXLXLXLXLXLXLXLXLXLX",
"LXLXLXLXLXLXLX1XY jXuXiXgXgXpXiXuXpXaXaXjXiXuXuXuXiXiXiXyXiXdXgXjXjXkXgXzXkXkXkXjXgXiXpXuXpXuXpXiXiXiXiXiXiXiXgXfXiXiXuXiXiXdXiXzXfX+Xy KXLXLXLXLXLXLXLXLXLXLXLX",
"LXLXLXLXLXLXLX>XY lXiXiXiXiXiXiXuXuXiXiXiXiXiXiXiXiXiXiXiXaX`._.aXiXiXiXiXuXiXuXiXiXiXiXuXiXdXjXaXiXiXiXiXiXiXiXiXiXiXjXaXaXuXhXLXKX.X0 KXLXLXLXLXLXLXLXLXLXLXLX",
"LXLXLXLXLXLXLXvXg pXdXiXiXiXiXiXiXiXdXfXgXiXiXiXiXiXiXiXgX_./ vX9 jXiXiXiXiXiXiXiXiXiXiXuXfXrX_  XgXiXiXiXiXiXiXiXiXuX^ '  XgXdXLXkX[.y LXLXLXLXLXLXLXLXLXLXLXLX",
"LXLXLXLXLXLXLXLX8 }.yXdXiXiXpXiXiXpXdX_ _.gXiXiXiXiXiXiXiXiXY h (.gXiXiXiXiXiXiXiXiXiXiXpXdXO vX6 dXiXiXiXiXiXiXuXaX_.' =XR gXiXiX.XR O c.KXLXLXLXLXLXLXLXLXLXLX",
"LXLXLXLXLXLXLXLX&Xk .XtXfXiXiXuXiXfX0 nXQ  XfXpXiXiXiXiXiXfXjXaXkXiXiXiXiXiXiXiXiXiXiXiXiXgX`.K (.aXiXiXiXiXiXiXiXiXgX_.m.tXiXfX@X'.O s = > :XKXLXLXLXLXLXLXLXLX",
"LXLXLXLXLXLXLX' * > 9 m.XXtXdXfXpXgX`.Y 1.iXpXuXiXiXiXiXiXiXiXpXiXiXiXiXiXiXuXuXiXiXiXiXiXiXaXgXaXiXuXuXiXiXiXiXiXiXaXjXgXgXuX+X'.% 1 = -XD > ' LXLXLXLXLXLXLXLX",
"LXLXLXLXLXJX0 3 s s s * h '..X@XuXiXaXjXgXiXiXpXiXiXiXiXiXiXiXiXiXiXiXiXaXiXrXjXiXiXiXiXiXiXiXiXpXiXiXiXiXuXiXiXuXuXiXfXaXtXXX2.% a a v v f LX~ &XLXLXLXLXLXLXLX",
"LXLXKXLXJX@ v S S v f f 3 O 8 2.}.+XtXtXfXdXiXiXiXiXiXiXiXiXiXiXiXiXiXfX2Xr ` R jXiXiXiXiXiXiXiXiXiXiXiXiXiXpXpXdXdXuX@X|.i.= o s f V V V B f.i.$ LXLXLXLXLXLXLX",
"LXLXLXLXy x B A V V V S v f s > o l 2.}..XoXtXuXpXdXdXiXiXpXiXiXiXiXiXiXrXU c 2.gXiXiXiXiXiXiXiXiXiXdXdXfXpXtXtX@XXX(.z % o a B S S V V V V v V * &XLXLXLXLXLXLX",
"LXLXLXvXo v B V V V V V V A Z x s = * o l 1.}..X+XoX@XtXtXuXdXdXdXiXdXiXgXgXpXgXdXiXaXiXaXuXuXuXtX@X@X@X+XXX'.o.h o o < a S S S V V C Z Z Z Z V d ! LXLXLXLXLXLX",
"LXLXLX:X* C A B V Z V B V V Z S S Z f f 1 * o : K 1.(.}.|..X.XXX+XXX@X@X@X@X@XoX@X@X+XXX.X.X.X.XXX'.2.Y = o % 1 a M S S S S V V Z Z C C C Z C C c ~ LXLXLXLXLXLX",
"LXLXLX1X% 4 % s V B B B V Z V V Z Z S S V V v f d 1 * o > w Y T 1.(.'.'.].].].'.m.m.2.o.Y h : > % * 1 f x Z S A A Z Z V Z Z V V C C A A M % 1 d > u LXLXLXLXLXLX",
"LXLXLXu j n.F.k < d > 4 V C C V C Z Z A V S A S S A A B V M f d 3 < 2 * < * < * < 1 s a f x M B V S V Z V Z V V V V Z V V S S C M < < 2 2 L b.P   cXLXLXLXLXLXLX",
"LXLXLXcXg !.R.B.L -.F.P < 4 > o a A S A B B v Z Z V A S V A A B V S A V A S S S A A C A Z S Z Z V V A A A A V V A C v M 3 < 3 d 4 k F.v.J +.!.O.` LXLXLXLXLXLXLX",
"LXLXLXLX' I !.H.b.b.Z.K.I +.M.T.j 1 f 4 > * d Z B B f v B Z A B C V V V Z C A Z A V S S S A Z Z B M A A V V C s < x A < L v.*.I g %.Q.U.%.T.U.+ JXLXLXLXLXLXLXLX",
"LXLXLXLXLX5 D.W.M.%.C.S.<.C.A.R.E.k k ..D.W.: 3 3 ; j = B A M 3 0 1 A V V f 3 B Z v B a 3 A B B 4 ; > 2 M f > J +.h > k G.A.Q.L.*.G.W.b.b.!.I ' LXLXLXLXLXLXLXLX",
"LXLXLXLXLXcX9 !.G.&.e.A.B.=.C.H.Q.<.C.A.A.Q.D.L &.G.E.m.o > j +.Q.I * 3 > L O.: 4 4 8 I  .> > 8  .S.!.n.q k =.G.U.!.-.B.B.F.Q.*.,.I.R.+.I.U.+ KXLXLXLXLXLXLXLXLX",
"LXLXLXLXLXLXu v.E.<.*.Z.G.%.B.G.W.F.*.B.C.R.H.,.A.G.H.!.#.M.G.G.W.L. . .S.J.L.^.H O.F.G.Y.Y.O.S.A.F.Q.K.%.A.A.A.R.U.&.C.M.U.U.%.M.Q.n.-.!.I ` LXLXLXLXLXLXLXLXLX",
"LXLXLXLXLXLXcX9 !.F.%.C.A.<.e.C.T.R.$.B.B.I.W.%.C.S.F.Q.*.C.C.S.W.H.*.C.C.Z.H.!.-.Z.Z.Z.T.U.*.Z.B.H.Q.S.%.C.B.F.R.G.&.A.F.E.A.%.F.R.+.G.K.# JXLXLXLXLXLXLXLXLXLX",
"LXLXLXLXLXLXLXt M.H.=.=.A.A.&.C.G.W.;.<.I.n.Q.&.C.Z.S.Q.*.M.C.S.W.G.$.N.Z.A.G.Q.*.B.C.Z.T.I.*.A.V.T.T.Z.=.G.F.K.L.J v.F.L.L.<.;.H.b.;.K.I ` LXLXLXLXLXLXLXLXLXLX",
"LXLXLXLXLXLXLXcX9 U.B.%.Z.G.*.B.C.W.A. .~.R :.F.M.A.S.E.v.C.C.S.R.G.$.V.C.A.H.Q.%.C.C.Z.T.H.*.C.B.W.Y.v.I I P O.*.7 [.H T.G.*.B.F.%.C.J.# FXLXLXLXLXLXLXLXLXLXLX",
"LXLXLXLXLXLXLXLXQ #.S.=.e.S.N.<.B.L.T.I P OXY J 9 7 X # j %.G.A.R.A.$.N.C.F.G.R.$.C.C.A.R.D.=.C.B.W.J - 6 6 . . @ j K P.^.B.*.F.e.*.G.%.E LXLXLXLXLXLXLXLXLXLXLX",
"LXLXLXLXLXLXLXLXFX; G.V.%.A.G.%.C.A.U.=.m.H 9 8 - @ X X @ 6 J A.T.S.%.B.C.A.G.K.%.C.C.A.T.C.<.A.M.0 . - 7 6 c.r @ # K ^.G.*.<.G.&.M.J.j >XLXLXLXLXLXLXLXLXLXLXLX",
"LXLXLXLXLXLXLXLXLXE #.A.$.C.J.*.N.Z.G.M.I 6 7 9 - KX>X5 w 7 6  .L.F.$.B.C.A.G.G.%.C.C.A.G.b.<.G.K . + # 7 8 JXr ;XsX+ k L.%.Z.A.*.C.S.@ KXLXLXLXLXLXLXLXLXLXLXLX",
"LXLXLXLXLXLXLXLXLXcX9 G.,.<.S.A.*.C.G.G.7 8 6 + @ 5   LXFX- 7 9 G.G.$.B.B.A.G.G.%.Z.C.F.G.,.M.C.; X @ 6 9 # . . r 5 X # V.=.G.*.M.F.#.n LXLXLXLXLXLXLXLXLXLXLXLX",
"LXLXLXLXLXLXLXLXLXLXu &.M.%.A.J.%.C.A.<.# 7 6 + $ @ + 5 + 6 6 7 Z.G.%.B.C.Z.S.J.%.C.C.A.G.>.B.<.X $ + # $ $ + + + # @ @ *.M.S.%.A.J.q >XLXLXLXLXLXLXLXLXLXLXLXLX",
"LXLXLXLXLXLXLXLXLXLX<Xj G.%.N.G.N.,.S.P.8 + $ $ $ # 6 @ + 6 6 j J.S.$.B.Z.H.J.J.%.A.C.C.H.>.Z.C.8 . . @ - + + @ 6 6 + j *.F.B.=.F.A.$ LXLXLXLXLXLXLXLXLXLXLXLXLX",
"LXLXLXLXLXLXLXLXLXLXLXr M.w.&.G.G.$.B.T.Y r $ X + @ 6 @ . @ - +.J.S.$.C.L @.J.L.&.<.q +.L.%.C.S.2.n e   . . + X X @ + P.;.S.*.B.J. .` LXLXLXLXLXLXLXLXLXLXLXLXLX",
"LXLXLXLXLXLXLXLXLXLXLX&XL S.$.B.J.,.e.Z.P.j ~ , Q + n . E 6 @.G.G.F.$.Z.Z.P g q j j $.S.J.%.C.B.^.(.@ / , 4Xt / / 8 P.D.N.G.%.Z.K.9 cXLXLXLXLXLXLXLXLXLXLXLXLXLX",
"LXLXLXLXLXLXLXLXLXLXLXKX- A.;.;.J.B.*.A.A.>.m.Y ~ r p.6 K O.^.B.G.G.$.Z.Z.G.S.Z.%.A.C.G.G.%.B.A.A.T.v.2.l l K J m.^.U.&.Z.N.-.A.v.r LXLXLXLXLXLXLXLXLXLXLXLXLXLX",
"LXLXLXLXLXLXLXLXLXLXLXLX~ #.C.$.S.G.%.C.A.%.A.~.~.3.V.|.^.>.e.B.S.G.$.e.C.A.G.S.$.C.C.S.G.%.C.A.J.B.>.R.~.^.^.;.H.S.Z.%.J.*.M.K.L p.LXLXLXLXLXLXLXLXLXLXLXLXLXLX",
"LXLXLXLXLXLXLXLXLXLXLXLXxXg S.&.N.J.,.N.A.*.e.B.Z.;.<.M.G.&.B.Z.S.G.:.N.C.A.G.D.$.C.B.G.S.&.B.G.G.V.<.Z.S.G.Z.*.C.G.<.N.G.*.C.K.6 vXLXLXLXLXLXLXLXLXLXLXLXLXLXLX",
"LXLXLXLXLXLXLXLXLXLXLXLXLX8 B.w.*.J.B.,.A.N.*.C.G.V.,.A.J.>.N.Z.S.G.%.N.C.A.G.A.$.A.C.S.C.&.Z.G.J.,.N.B.G.G.e.<.A.G.*.Z.N.,.A.M.r LXLXLXLXLXLXLXLXLXLXLXLXLXLXLX",
"LXLXLXLXLXLXLXLXLXLXLXLXLX) I A.$.S.G.$.C.C.&.C.G.B.&.Z.G.<.<.A.S.G.&.e.C.A.G.A.%.A.C.S.V.,.A.G.G.&.B.A.G.G.=.V.A.S.*.J.-.M.J.I ~ LXLXLXLXLXLXLXLXLXLXLXLXLXLXLX",
"LXLXLXLXLXLXLXLXLXLXLXLXLXbX; ;.&.B.H.&.B.S.%.B.A.F.*.A.G.V.-.A.A.G.*.<.B.S.G.C.%.D.C.G.N.,.C.G.G.&.C.S.G.G.%.C.S.V.N.S.&.Z.U.7 xXLXLXLXLXLXLXLXLXLXLXLXLXLXLXLX",
"LXLXLXLXLXLXLXLXLXLXLXLXLXLXvX; I ;.S.,.e.S.*.B.C.G.%.Z.G.B.*.Z.S.H.&.e.B.S.G.C.%.S.C.S.b.<.A.J.D.&.Z.G.G.A.%.A.G.,.A.C.&.A.=.X LXLXLXLXLXLXLXLXLXLXLXLXLXLXLXLX",
"LXLXLXLXLXLXLXLXLXLXLXLXLXLXLXLX_ ;  .=.<.C.;.;.D.G.%.B.F.A.&.C.A.G.&.<.C.S.H.C.%.S.B.S.<.<.A.G.B.<.A.G.G.b.<.Z.S.*.A.,.-. .o :XLXLXLXLXLXLXLXLXLXLXLXLXLXLXLXLX",
"LXLXLXLXLXLXLXLXLXLXLXLXLXLXLXLXLXKX).l k  .#.;.B.S.&.B.A.A.%.A.A.J.%.<.B.S.J.V.*.S.C.H.*.e.S.J.,.N.A.A.C.-.M.B.b.+.O.g 7 ) DXLXLXLXLXLXLXLXLXLXLXLXLXLXLXLXLXLX",
"LXLXLXLXLXLXLXLXLXLXLXLXLXLXLXLXLXLXLXLXbX%X! 9 k L I #.;.M.*.Z.Z.Z.=.N.V.A.D.N.=.C.B.C.*.B.C.B.&.w.;.+.I k j 9 0 U $X1XLXLXLXLXLXLXLXLXLXLXLXLXLXLXLXLXLXLXLXLX",
"LXLXLXLXLXLXLXLXLXLXLXLXLXLXLXLXLXLXLXLXLXLXLXLXKXxX%X' U w 9 g k L L I ...... ..... . .k L g 7 7 U ! ' &X1XJXLXLXLXLXLXLXLXLXLXLXLXLXLXLXLXLXLXLXLXLXLXLXLXLXLX",
"LXLXLXLXLXLXLXLXLXLXLXLXLXLXLXLXLXLXLXLXLXLXLXLXLXLXLXLXLXLXLXLXFXvX1X,X>X&X%X%X&X&X>X<XvXDXKXLXLXLXLXLXLXLXLXLXLXLXLXLXLXLXLXLXLXLXLXLXLXLXLXLXLXLXLXLXLXLXLXLX"
};
