/* XPM */
static char *_ebd6d17fe96467ca33b06cd5aa06f08x2N7oL1wNq1pWMEO[] = {
/* columns rows colors chars-per-pixel */
"80 80 256 2 ",
"   c #0D0007",
".  c #180208",
"X  c #0B0218",
"o  c #120114",
"O  c #1B0114",
"+  c #17061A",
"@  c #18131A",
"#  c #0C131E",
"$  c #260509",
"%  c #33070A",
"&  c #250112",
"*  c #2A0218",
"=  c #380518",
"-  c #29151A",
";  c #37141A",
":  c #2D130A",
">  c #34231E",
",  c #180626",
"<  c #191527",
"1  c #10142F",
"2  c #290627",
"3  c #380328",
"4  c #271727",
"5  c #361B25",
"6  c #290B36",
"7  c #291634",
"8  c #3A1A39",
"9  c #350433",
"0  c #1B2738",
"q  c #3D2425",
"w  c #2A2837",
"e  c #362739",
"r  c #2B292E",
"t  c #46191A",
"y  c #4A1312",
"u  c #4A261C",
"i  c #54251C",
"p  c #5B251C",
"a  c #53291D",
"s  c #5C291E",
"d  c #592415",
"f  c #63251D",
"g  c #63291E",
"h  c #6A291E",
"j  c #6B251B",
"k  c #732A1E",
"l  c #78271E",
"z  c #470536",
"x  c #4C132E",
"c  c #641B2B",
"v  c #4C2B24",
"b  c #482725",
"n  c #5A2622",
"m  c #542B24",
"M  c #5C2C24",
"N  c #5C2D29",
"B  c #542726",
"V  c #5C322B",
"C  c #593127",
"Z  c #472934",
"A  c #593534",
"S  c #4F2E30",
"D  c #642C24",
"F  c #6B2C24",
"G  c #642E2A",
"H  c #6B2E2A",
"J  c #662622",
"K  c #732C24",
"L  c #7B2D24",
"P  c #742E29",
"I  c #7B2E29",
"U  c #742622",
"Y  c #643125",
"T  c #6B3126",
"R  c #64322C",
"E  c #6C322C",
"W  c #6C392E",
"Q  c #733126",
"!  c #7C3126",
"~  c #74332C",
"^  c #7B332C",
"/  c #75382E",
"(  c #7C382E",
")  c #643531",
"_  c #6B3532",
"`  c #6C3933",
"'  c #683936",
"]  c #743631",
"[  c #7C3531",
"{  c #743933",
"}  c #7C3A33",
"|  c #7B3C3A",
" . c #773939",
".. c #6C2D32",
"X. c #3D423B",
"o. c #7D403F",
"O. c #331942",
"+. c #321343",
"@. c #1A2B4F",
"#. c #39344A",
"$. c #283B59",
"%. c #312D50",
"&. c #343668",
"*. c #061944",
"=. c #51144A",
"-. c #661551",
";. c #482847",
":. c #49344A",
">. c #5B3459",
",. c #4D3152",
"<. c #6E3151",
"1. c #4A3664",
"2. c #653965",
"3. c #6D346C",
"4. c #38466E",
"5. c #3A455C",
"6. c #4E4657",
"7. c #6C4C54",
"8. c #555879",
"9. c #514C6E",
"0. c #66476A",
"q. c #65566A",
"w. c #674B77",
"e. c #7B5477",
"r. c #725370",
"t. c #716972",
"y. c #51626A",
"u. c #83291E",
"i. c #822D25",
"p. c #8D2D24",
"a. c #832E2A",
"s. c #8A2E2A",
"d. c #842720",
"f. c #942E27",
"g. c #833126",
"h. c #8A3226",
"j. c #83332C",
"k. c #8B342C",
"l. c #84392E",
"z. c #8C392E",
"x. c #93342D",
"c. c #9B342C",
"v. c #93392E",
"b. c #9B392E",
"n. c #963226",
"m. c #843631",
"M. c #8C3631",
"N. c #843A33",
"B. c #8B3A33",
"V. c #833C39",
"C. c #8C3C39",
"Z. c #8C3639",
"A. c #933631",
"S. c #9B3632",
"D. c #933B33",
"F. c #9B3B33",
"G. c #943D39",
"H. c #9B3D3A",
"J. c #933738",
"K. c #A1352D",
"L. c #A7382E",
"P. c #A33B34",
"I. c #AB3B33",
"U. c #A33E3A",
"Y. c #A63935",
"T. c #B43C35",
"R. c #8A423C",
"E. c #9B4135",
"W. c #93413C",
"Q. c #9C413C",
"!. c #954136",
"~. c #A44139",
"^. c #B5413A",
"/. c #843162",
"(. c #8F4442",
"). c #885679",
"_. c #894A77",
"`. c #8D6B79",
"'. c #A64641",
"]. c #A78A7D",
"[. c #514D8A",
"{. c #705788",
"}. c #586991",
"|. c #706E8C",
" X c #7873A5",
".X c #8D558B",
"XX c #B65999",
"oX c #AB578C",
"OX c #896C98",
"+X c #92718F",
"@X c #AB6998",
"#X c #AC7093",
"$X c #8B74A2",
"%X c #A878A6",
"&X c #B878A5",
"*X c #B46EA8",
"=X c #CA78AA",
"-X c #D474AD",
";X c #D26BA6",
":X c #ED7BC2",
">X c #D97EC1",
",X c #7C85A7",
"<X c #788598",
"1X c #97879B",
"2X c #8A8895",
"3X c #AA9398",
"4X c #928FAF",
"5X c #B885AB",
"6X c #A998A8",
"7X c #B796A6",
"8X c #B28EB2",
"9X c #B6A6A7",
"0X c #B7A7B7",
"qX c #B3B1B7",
"wX c #B3A19D",
"eX c #C18C96",
"rX c #D788B9",
"tX c #CE8CB3",
"yX c #E38BB8",
"uX c #C5A7A9",
"iX c #C6A9BA",
"pX c #D4B0B7",
"aX c #E9B8BB",
"sX c #D4C4B8",
"dX c #E9C6BB",
"fX c #ADAFCA",
"gX c #9E9BCD",
"hX c #D690C3",
"jX c #EB90C5",
"kX c #C6A9C7",
"lX c #D6B9C7",
"zX c #CFB2CD",
"xX c #E7B7C9",
"cX c #D9C4C9",
"vX c #DBC7D7",
"bX c #D6D1D7",
"nX c #E8C5C8",
"mX c #F5C9CA",
"MX c #E6CAD8",
"NX c #F9D8D7",
"BX c #F0D3D4",
"VX c #F8E8DB",
"CX c #D6C8E2",
"ZX c #E9D8E6",
"AX c #F8DAE5",
"SX c #EED1EE",
"DX c #FDE4E3",
"FX c #FEECEC",
"GX c #FBE6E7",
"HX c #FDF4EA",
"JX c #FEEBF7",
"KX c #FFF5F3",
"LX c #FFFBFA",
"PX c #FFF7F8",
"IX c #EAEBEC",
"UX c #D8E5F6",
/* pixels */
"u i M T / ( l.! g.l.K k ! ! Q k z.k.v.v.z.g.L I K P ~ H G N A C ) _ ] U } ( F D Y E { [ N.m.m.j.i.A.A.s.h.j.L g.j.l.g.Q h g h J J F n u v v u q C E T s u u s G ",
"m a i s T Q ! g.u.l.z.( ( ( ^ k g.h.h.A.z.k.M.I I I P D M M V V N H ] E ] ] ] Y M N H ] P ~ ^ L M.D.x.x.z.j.L ( l.!.l.! h h K Q K ^ G n m v v u u s E R a u s D ",
"a M M g ~ l.j.h.z.v.B.! l ( ( ! I i.k.M.z.M.a.a.I [ P J J M R ` V m R _ ` _ ` R B m M N ] ] ( j.k.D.A.A.g.! ! B.! j.g.K k Q Q k a.m.^ E T N a i a D D Y C Y T J ",
"m M D s Q B.B.A.x.v.A.i.L j.j.j.j.B.a.z.k.j.s.a.a.m.I H P E D R ' N R _ _ D D N G G R D ] ~ ~ L k.v.F.x.L l j.j.l j.N.l.( Q ! L k.z.B.j./ E i a R D D F h T J f ",
"i a D Q ^ B.z.v.A.x.F.x.v.M.L L ^ N.m.m.j.L s.k.A.J.l.L ~ K J E H ~ { ~ / E ~ [ m.[ m.Z.j.B.B.v.F.F.c.S.n.x.k.a.a.m.N.m.Q ! z.D.b.b.x.i.j.~ f g F T K h h h F K ",
"m s F ( B.A.B.A.A.v.F.F.F.v.k.l.L K j.a.l L k.F.F.A.l.! L L K ~ ~ [ m.[ m.j.B.G.G.J.J.G.M.v.v.z.b.H.P.P.I.U.A.v.s.M.Z.m.( ( M.v.c.c.c.k.s.a.^ h j ! m.g.( l j j ",
"D F E N.B.z.z.z.D.D.F.D.x.v.z.z.( K l ! ! k.E.b.P.v.g.! l.j.^ L I I L h.z.v.v.F.F.A.F.F.D.k.h.! h.!.~.P.P.b.x.D.A.H.(.N.[ ^ ( B.v.x.S.F.i.i.k.i.h.k.v.v.k.i.K j ",
"~ / Q ! j.j.z.z.k.D.F.v.D.D.z.D.! k j.z.j.v.b.E.F.!.u.l.z.g.B.B.j.M.A.F.F.P.P.c.S.P.H.H.s.j.j.( j.B.~.b.c.c.~.v.G.G.C.[ } { [ N.R.F.H.S.s.d.s.v.E.F.c.F.c.n.i.k ",
"m.^ ! L L j.z.z.h.h.!.D.v.!.v.F.v.z.!.v.z.z.!.v.z.D.k.k.z.k.z.B.A.D.H.F.P.n.~.~.^.I.~.U.A.i.l.!.E.F.F.b.E.~.E.D.Z.V.}  .| | { R.Z.Q.'.A.F.s.u.n.b.h.c.K.Y.c.k.s.",
"m.! ! j.L g.z.D.k.k.z.v.v.v.b.v.v.v.D.D.z.z.j.L j.B.g.L s.g.j.s.s.U.F.P.Y.c.c.P.F.D.H.G.D.j.g.B.F.S.P.E.E.E.v.h.( } { _  . .o.} [ C.Z.k.v.k.v.x.p.n.K.K.K.c.f.s.",
"A.s.g.L L g.h.z.v.z.! l.B.E.E.x.h.!.v.v.A.C.N.^ } } ~ P m.N.m.i.x.P.b.P.U.S.F.A.M.( ~ ^ Q j.Q.D.z.z.F.v.b.v.^ T Q | ` R T { R.R.~ I I m.i.i.S.F.f.n.K.K.K.S.h.i.",
"A.M.g.! g.g.g.j.z.z.B.! g.z.F.n.h.E.A.z.B.j.~ H E _ H P ] ^ ^ ^ F.F.H.~.F.J.G.N.Q E R W ~ R.'.U.h.A.v.b.E.z.^ ~ F E H T E } V.N.[ P I a.s.i.h.A.n.K.K.f.f.A.z.! ",
"B.M.B.M.z.j.! ^ ! ( B.! L z.v.k.z.!.!.B.j.K P / D R _ _ E F T [ W.(.G.W.R.V.[ ..G V V ` E N.U.~.D.D.A.z.M.Z.D.W.m.~ L Q ( ( j.~ K K j.a.L l l f.n.K.n.f.n.g.! T ",
"m.L j.M.l.j.( ^ Q K ^ ! L l.j.! j.g.i.g.j.N.N.V.} ] E R W R R E [ B.~ [ ] T H ) ' ) V ) H N.(.A.A.z.j.j.i.M.H.H.G.B.N.! a.j.! L ( L i.L K K L U f.n.f.u.l k h s ",
"} L ^ ^ L Q K F Q h F K K K K ! U a.M.k.j.j.A.B.B.( T Y R R N N F F T { ] { ] E ` ` ` E } (.j.L ( ^ l.l.m.M.z.z.j.z.l.z.! g.g.j.g.L i.d.U l k U u.x.f.u.j j d d ",
"~ [ [ ~ K K F F F h F F K ! } N.^ a.M.M.g.M.A.A.j.( / / ] T D Y _ / E { E E / E { _ W E E } ~ ! Q ^ ! j.B.D.g.j.l.k.j.z.v.k.D.D.s.i.u.s.s.U k l U k.s.U h T s d ",
"F / / ~ I K J f P K J f h ^ [ L U I M.A.M.j.M.M.m.^ ^ m.[ ^ T F E { ~ { R N ` _ { W R R G T E Q } ^ g.h.z.z.D.j.k.g.z.D.A.x.v.F.D.u.p.S.x.l l l l l.L l k g d d ",
"[ ] ] [ m.[ F J ( ~ F g U K I P L m.j.i.I a.Z.m.m.[ U ^ ^ L ^ Q Q K F E V N  . .` ` R W _ E ] H K ( l.z.h.v.v.z.j.k.z.!.F.x.v.E.x.x.c.c.f.u.s.h.h.h.L L Q h g a ",
"M.M.[ j.^ m.P J F E F J J K P ^ I I U h K U j.Z.a.I ^ K K ^ I ^ B.z.( F ) ) ' W R W ~ P I K l.Q F l.!.z.h.v.M.j.! g.j.j.h.z.c.F.S.x.S.c.f.f.c.x.A.z.i.g.L g Y d ",
"A.Z.B.m.m.N.^ h D T F J F U U [ L K F E P a.B.a.j.M.j.j.L K P j.D.!.N.F _ ) D G T Q V.M.M.k.l.! K K g.h.M.D.m.^ ( Q K ! j.D.E.b.F.F.K.L.K.L.c.f.k.h.i.j.L Q T d ",
"D.H.D.m.m.~ ~ Q H H F J F F K ( m.K F ~ m.I L a.x.k.z.j.a.M.j.a.h.D.R.K E D G _ W ( D.!.F.v.z.! K K l.! l.( ] ~ / T h / N.z.!.v.b.P.K.Y.L.P.c.v.h.L ! ( ! Q Q h ",
"D.k.k.B.( K F ~ P P H F J f f U K U F U P U U s.l.l.m.m.Z.H.B.B.A.D.D.g.^ P ] E _ ] j.A.p.p.k.h.( j.l.! Q ~ H G g Y T Q / ! h.v.b.P.b.P.K.c.c.F.k.l k Q Q h k h ",
"A.k.k.k.L K I m.I [ [ I I U U F J F F K I I I F g y p { I m.( z.E.x.v.M.M.j.] G ) ' | G.J.A.A.z.B.B.j.^ h Q T G Y T T T K ^ M.A.H.b.b.c.P.K.P.S.h.L k Q T Q Q Q ",
"x.S.D.j.L j.B.N.I I a.I a.m.^ P K F P I m.m.[ d $ : $ i ] U L z.D.F.F.F.x.M.^ a : : B G | C.J.s.k.h.j.~ F D E G W E ~ ^ ^ m.W.D.E.F.b.x.P.Y.U.Y.k.g.L h F ^ ( ~ ",
"H.H.A.g.j.m.a.L j.z.M.M.j.m.m.^ ^ P K I ^ ^ Q y ].HXV : a h F l.!.b.Y.Y.A.M.m.n : - q @ ; B  .m.s.s.g.( Q J _ _ / E ~ ^ ( C.B.M.D.U.F.x.S.Y.Y.Y.H.J.j.P Q K F F ",
"U.Q.D.k.s.a.a.j.Z.A.D.M.z.N.B.N.^ ^ ^ L L ! ~ t Y NXdX$ : Y T Q z.!.Y.U.Z.[ ] A . t.HXcX7.- t  .m.M.z.j.! ~ } ] F E ~ P I M.B.B.x.S.k.k.x.c.U.U.D.D.B.m.( ^ Q Q ",
"D.Z.B.M.k.k.B.D.A.S.A.A.B.l.g.^ I ^ N.N.l.( / R $ 7.VXuX  > _ ~ I A.J.(.o.<.S : - BXHXBXlXr.$ t ] s.j.z.j.! N.~ J T Q ~ j.N.N.z.S.U.A.k.s.s.A.s.i.I m.} ^ [ ^ ~ ",
"M.j.k.M.h.A.Q.U.P.S.A.D.A.z.j.^ [ L ( ^ N.l.~ R u $ pXHX: . S _  . . .n % $   . 9XGXBXaX+XzX:.. c V.j.h.v.i.j.[ ~ Q ~ N.N.B.M.G.H.S.s.a.s.j.z.j.j.[ m.I I I K I ",
"B.B.z.k.k.S.^.U.Y.P.S.F.H.D.B.( j.^ ~ K K I P ~ W : % mXmX$ . A S - . > - 3XKXLXLXKXHXBXiX.XlXb $  .C.k.H.x.g.m.V.^ ( V.Z.C.F.F.A.p.i.I I j.m.m.m.^ ~ ~ I j.[ N.",
"C.W.G.F.D.P.I.I.Y.P.Y.H.H.G.M.[ m.[ [ ^ N.m.[ ^ / T % 7.NXuX& - . q.6XHXLXHXKXLXLXLXKXDX+XtXpX7X* ' V.s.x.x.M.m.B.Z.B.Z.W.D.U.~.S.s.a.I L L s.m.[ ^ ( ^ j.m.j.^ ",
"z.Q.~.H.U.P.Y.Y.P.U.'.~.g.I N.N.I m.C.N.V.[ I ^ ( / m % eXxX<.. r AXFXFXJXPXLXLXLXHXFXcX;.kXtXrX& 5 ] m.s.B.M.I j.z.a.a.Z.A.P.U.A.a.a.I L i.s.M.m.^ m.B.B.B.l.! ",
"s.F.H.U.x.c.Y.c.x.A.U.A.i.I j.a.j.N.Z.M.j.a.k.k.h.( } t $ `.r.Z vX`.lXAXAXPXKXKXKXZXpXo ,.kXrXrXO 5 .. .m.[ ~ F L L s.v.k.x.Y.Y.A.s.L m.j.a.j.j.m.m.N.M.M.j.B.l.",
"g.A.F.S.A.F.P.S.x.v.M.k.g.k.k.g.h.z.F.x.A.S.c.b.v.W.} _ : O :.;.+X7XlXiXkXJXSXMXBXiX@ # <X6.xX8Xo w Z Z x = u G P a.z.v.c.c.c.K.U.p.a.^ L K K I m.B.m.B.z.l.l.j.",
"s.k.M.k.v.A.F.c.s.k.s.g.g.D.H.n.h.b.P.^.Y.Y.c.b.M.Q g v Z . o ,.lX`.iX$Xw.$X7XiX3X6.# y.UX4XCX:.2 +XpX5X7.- 4 b  .[ k.c.Y.P.K.P.x.s.a.^ P K K ~ m.N.B.m.! ( l.l.",
"s.j.k.i.L j.v.k.M.s.k.v.z.v.~.b.b.P.T.T.T.Y.v.! b ; ; 7.6.- q.0XAXtXZ e w.gXxXSX,X@.1 t.bX1Xq.+X#XxXDXmXxX3Xw < Z ..[ k.S.Y.Y.p.i.L Q Q F F ~ ^ N.B.M.B.j.N.V.j.",
"m.a.a.^ K ! l.A.s.f.x.v.z.h.K.~.Y.I.T.T.T.U.R.M . 4 q.zX1Xe ZXIXAXxX8XOX{.4XkXvX4X5.# e t..X6.MXnXdXNXNXBXiX8.# - N ] a.s.S.Y.p.i.L F T F H K ( m.N.B.N.( Q ^ ( ",
"I U I I ^ K L j.s.x.S.x.z.h.P.I.I.L.T.L.^.E.W ; e %.9XZX|.< :.cXmXmXAXFXGXlXe.2.+X4Xr 7 r.hXBXNXdXNXNX6XfXqX}.0 + S V.B.J.x.c.x.j.! F E / T D T Q ~ N.N.( Q Q ~ ",
"P f F I K l l i.D.F.Y.F.n.n.^.I.T.L.L.L.b.!.u o 4Xy.0.fX%.1 e cXmXNXNXHXKXFXzXzXZXvXZXJXSXMXNXGXNXNX+X5 w 6.4.5.< b P s.u.u.h.h.j.Q F E W h D Q ~ K ^ ^ ~ F h F ",
"~ f f D k g.x.P.x.c.P.Y.x.c.T.T.L.L.K.L.b.N.q < fX5.#.|.9.4XuXnX3X<.7XVXHXDXDXAXNXFXKXLXLXJXMXMX9XZ :.lXpX9X<X4X< ; U s.u.g.h.g.Q / T T h F [ B.B.M.m.^ g D M M ",
"K h D h K M.S.K.u.x.c.b.n.L.I.L.L.I.f.p.h.Q q # |.|.|.<X<XqXuXNXkX- wX7.t.3XnXlXcXZXZXbXcX0X;.1X8X>.5 BXBXsXt.w 2 S R.v.g.j.i.L ^ ( ( Q F g.W.D.D.G.Z.^ F Y C a ",
"I ^ l.R.g.z.b.n.p.p.n.p.n.E.n.n.c.n.h.L L E S + w CXvX1Xr < Z 6X1.&.kX:.<.e.w.1.O.*.+.&.|.lXZXpXzX(.wXuXX.X.sX:   :.{ ( N.B.l.j.M.D.B.I a.J.W.H.A.A.B.~ T C m m ",
"K ^ l.l l h.c.c.b.E.u.h.p.p.n.!.k.g.! Q / ) S 4 X 6.cXZXIX@ 4 ;.&. Xe.tXxXtX4X{.&.[.}.OX6XMXMX:.#XdXdX].# t.VXVX> : u W ( m.z.j.k.G.G.s.B.G.D.A.A.i.( K F h Y D ",
"j ! j.! k ! v.F.!.!.g.g.h.u.v.b.x.l L ( ' > @ # 1 8XZXDXKXZXt.;.;.@X5XxXDXNX$XgX[.[.$XzXZXIXq.7 1X6.> X.9XHXHXHXVX].: v  .j.M.k.D.D.j.B.B.B.D.D.z.z.B.B.( K ] } ",
"h h ( g.k g.v.h.g.g.g.!.g.h.v.b.z.l.! ` 5 # 1 5.8.4XZXJXKXNXNXuX0XpXeXeXxXnXw.%.[.[.{.gXlX3X6.y.1XlXBXVXdXVXNXHXHXVXr >  .m.J.H.G.g.i.j.l.j.g.A.A.A.a.j.G.D.C.Z.",
"h T Q k g.z.z.u.L k ! g.! D.A.z.z.N.7.S X 1 4.4.&.[.fXbXDXGXNXGXHXFXmXpX`.oX$X4X4X3.3.w.r.7XbXJXKXLXPXJXBXBXBXbXcXIX2Xr  .z.z.z.v.i.g.j.L ^ L I B.B.L L j.D.Z.M.",
"h h h k g.!.g.!.! L ! u.i.B.! ! ! L ] q 6.@.$.@.4.4.@.$.9XnXNXNXKXGXnXmXAXJXJXJXJXSXSXJXJXJXKXBXFXHXVXGXvXJXZXt.0 fX5.< | j.A.z.M.z.D.B.^ j.L L j.g.I L I C.W.m.",
"F J F ! g.g.l.z.z.B.z.v.A.R.! Q ^ ~ ' q }.[.*.}.4.gX,X1 0 6.pXpXGXAXnXNXGXPXLXPXJXAXAXJXLXKXKXNXDXDXBXZXCX,X X9.,X}.0 r  .k.j.M.v.x.M.M.L ( ^ a.j.L ^ ^ I Z.N.I ",
"F h K Q Q ! g.g.j.j.M.M.z.g.Q F T ` V q 9.}.@.}.gX}.<X$.$.1 #.q.`.iXAXGXGXKXLXGXSXAXAXAXFXGXHXHXnXuXwXqX X[.4.$.4XfXw q <.M.M.D.k.D.k.z.L ^ I L ^ ! L ^ ^ N.( P ",
"D h g F h h Q K L g.k.M.M.m.F D D N B Z X 0 0 $.}.}.5.@.$.$.&.w < - 2XfXkXAXIXZXSXCXSXSXbXpX1XbX6X6.0 0 4X4.@.[.[.fXw q  .Z.m.D.B.z.B.k.L j.^ L L j.j.j.m.( N.( ",
"h s g g D F F F K m.m.k.a.m.[ } _ G G A - # 6.bX,X$.$.*.8.1 CXCX6Xt.< , 4 4 r 0.0.w.$Xw.r - . :.y.zXt.# &.%.gXfX}.# 2 A _ ~ j.j.g.j.k.B.m.^ L N.j.m.a.a.M.j.^ ( ",
"p J F F H J J h F ^ ! g.s.M.k.a.I ] H _ A o < |.}., # , O.w . % :.6Xq.7 o @ @ o o O X , O o + fX8 o X 2X, X 6.,X# + - V E ! j.j.i.g.D.D.z.I j.m.j.a.^ j.j.m.M.j.",
"n D H H F J J F K k k h.v.p.p.x.z.a.I  .<.> @ + o 7 &X7.& >.`.3X* O 3 +X#X2 2 x _.#XZ Z ;.).;.* >.8X2 ;.e.>., 7 X   b ` F ( l.L L j.J.B.L I m.( ^ m.M.z.M.j.M.J.",
"n D G J J J F P L i.i.h.S.n.c.x.v.z.L ~ [ t x %X2.2.rXyX;.).yXyX&Xz =XyX-X3.oX>XyXyX*XoX-XjX_.3.jX#Xy hX-XoX/.yX).& n E F K k L l ^ j.( I [ N.C.g.G.A.M.M.M.M.J.",
"G M G M G G D F K g.h.x.F.F.F.v.k.v.D.B.m.d z *X&Xz oXjX,.* yX-X&X3 -XyX*X-.;X:X:X-XXXXX-X-Xz @XyX/.U yX-X<.oXyX>.* J ^ F ~ K l l.^ ^ ~ F } ^ m.a.M.A.M.A.F.D.B.",
"G R V V N M M D F K j.z.!.h.g.l.z.j.M.J.Z.P % Z tX-..XyX&X* yX-X@X% :XyXXX3 ;X:X:X;X-.oXyXoXz &XrXz _.-X&Xz XX-X& $ ] m.K H K ! l.K Y Y D ~ [ ^ a.D.M.a.D.D.M.G.",
"G E R N m i m Y E Q Q ( N.j.( ! N.h.J.J.J.V.= . @X-.=.tXhX$ jXyXoX% yXyX*X9 XX:X>X;X3 oXrX/.=.hXoXy XXyX_.z tX/.$ b E [ P ^ j.B.N.Q g s D T [ I m.Z.W.'.Q.J.a.j.",
"~ ( F D M M R G E / ] H ~ ] [ Q ^ B.A.D.F.N.i $ 9 2.3 #XxX$ =XjXoX& *XhX@X3 XX:X:X/.9 @X&X=.-.-X_.x ;XjXz <.&X= % B G D } j.N.B.m.^ E Y T E ~ ^ } N.N.B.D.M.M.j.",
"N.} ( { E T ] G G G E Y D E E E ^ k.D.F.!.z.T ; O 0.5 ).hX& 3.=X_.+ XX>X.X2 XX-X*X=.2 @X.Xz .X;Xz c tX-X& %X_.& y _ _ T { } l.^ [ [ } D D ] [ ] } ( ( j.j.Z.B.M.",
"^ j.[ } ~ ] _ R G N Y R N R G H Q z.D.F.v.!.!./ $ 5 2 6 5X& 3 &X2.+ 3.5X;.o XX>X*X+.-.*X>.3 *X>X= ).tXy * %X* * B ) _ W R T ~ N.N.Z.V.P H | [ V.V.[ [ N.m.m.B.B.",
"a.j.N.} / / / _ { ` R R M G R H ^ z.F.b.n.b.F.R.t . + 8 8X2 2 8X0., -.%X6 , XX>XXX+.1.%XO.,.*XoX2 =X5X& e.).% b ) .._ N M a g K I m.m.m.m.| [ } V.V.} N.} ^ N.N.",
"j.m.m.{ / E E ` / E ] T T Q ~ ^ L l.b.b.P.U.M.m.) $ @ , {.2.2 %X2., =.$X+ o @X>X>.2 3.@X9 >.5X2 =.*X).o 5X3 % ] H H G N N C D J K j.m.m.[ [ [ ] [ C.[ [ [ ( { ( ",
"m.j.[ ~ ] ] _ } } } V.! ( j.B.l.z.h.~.P.~.~.M.I  .t . X 2.@X, OXw.X +..X< 2 *X*X%., %X3.2 e.w.+ _.=X* >._.& c (.C.^ J G V D T ^ ^ ^ m.m.[ m.| H P ~ ] [ { } | } ",
"P P P T _ ] [ m.B.D.D.k.x.b.F.F.~.v.J.H.A.D.B.j.^ ) &   O.{., r.1.X +.{.1 +..X.X6 6 %X+.9 %X6 2 .X.X+ kX& = B.~.v.D.m.[ H / } V.^ ~ [ V.V.V.} H F D D ] } | | V.",
"^ ^ ~ [ } m.G.H.H.H.S.b.P.~.b.b.F.F.H.H.B.j.B.j.^ } b . o OXX #.%.X +.[.6 +.{.3., +.{., =.{., ;.+X8 3 8 . ..!.~.b.v.J.Z.^ ^ m.N.N.[ m.m.Z. .H E R R n G { } [ N.",
"M.j.g.B.D.H.H.H.H.U.S.f.U.U.x.h.z.!.D.!.Z.m.N.j.( ( } t . O X 6.6.X +.w., %..X3., 1.[., .X1.+.{.{.O . % c (.~.^.P.p.J.J.B.a.z.B.B.B.m.C.P |  .H R M B C Y E } [ ",
"k.h.D.E.F.F.F.F.S.H.H.H.H.S.A.j.z.z.!.A.m.m.N.N.j.j.( o.t $ .   <   #.1., 1.{.1.6 9.7 6 OX;.9 ,.O . ; ..m.D.E.~.A.z.M.k.s.a.B.D.D.m.B.N.}  . ._ R N V M n F [ N.",
"g.D.D.E.H.A.A.v.x.A.H.H.J.D.B.B.B.B.G.M.I I ( } N.N.B.V.] _ B & . . o o   r q.:.< #.X   O *   . $ b A _ ..^ j.L I N.m.m.m.M.M.A.!.Z.B.m.[ ~ _ G C C Y M Y E N.m.",
"j.z.A.A.F.D.i.k.B.D.B.^ I m.N.C.C.C.C.Z.[ ~ } } V.N.V.N.] _ _ _ S t ; .                 $ 5 b A N ......~ P F Q F } [ ^ m.m.m.g.B.B.C.N.[ [ H G M M M g E ^ N.j.",
"j.z.j.D.F.v.j.L j.( ~ Q E ~ [ N.B.B.[ N.| [ ] ] [ ~ ~ ] ~ E ] E _ ] _ ..H D R V v B R ` R _ | } { E G ..H G G G Y W H ~ I m.[ ^ ^ j.C.N.N.N.~ H D D s g g Q ( ( ",
"j.^ j.B.D.D.L N.^ Q ~ _ _ E H [ ^ } N.}  .{ G D _ _ { E _ H J H [ [ [ [ ^ ( F d s D T Q [ K j.( / F T H G _ ) n M M F ~ ~ ~ ~ ~ H ~ V.m.m.[ ] F F Y Y Y J ~ ( ^ ",
"m.m.! l.B.g.L j.R./ / ` _ R R _ T / } { ~ T M n G _ ..N M M G D / ^ I [ ^ ^ F D s Y F Q ~ K j.( ] F _ P J G N n N M H P ~ H ..H T Q V.[ ( } ~ Q T Y Y E ~ ~ / T ",
"j.P J K ! ! ! V.} ] W ` ` ' ) R R W E / H D N M n ` ) G B G N n P I ^ [ [ ^ ] H D g F F h ~ ( ~ / E H H G n D N s N ] P [ H G G E { } } [ V.F ~ W g h } ( T T Y ",
"J h D h Q ! ^ R.Q W C V V V V M R N M n p M N D ) G n n B B p J ^ ^ [ ] ..] ]  .E T D Y D N G J D / H D J D G p s D / } [ [ H H _ _ _ ~ ] ~ Y / ~ F ~ } / N a C ",
"R D D Y T T T ~ / ` R C m m B B V ) D p a Y Y W G n a m i p p F K P P E G n G T G E D s M M R n p G T ] ] ~ ~ D s M E } [ ] ] J G G N R E T T W E H P ~ W V V C ",
"R Y s Y Y g s F ~ W R a m m C m M R R D p s Y Y G D D Y D n f U ! Q T R G M n s F E T s s M V N M _ { { ] ] } ] _ G { }  .[ ~ D ] R D G Y C R R N N G n C C C C ",
"C M M Y D Y Y Y D T C C s C C N N R / / Y T T h g s g g D J F P ^ ~ E V N V M i E W E E R M B M N T ` { ] F ~ ] H D H ] P ~ ~ ] _ B G G V V V C M M M B C C v C ",
"M a s F E T E / D T M s Y M T T F Q ^ ~ Q / E T H J H G D D P I ~ E D m v C S b u m M W _ G B V M n T W { ] ~ H D H G H ] H E _ ) B V V V ) ' ) V m v v v C v v ",
"C M g D P Q D D n R Y s s T ~ ~ Q ~ ^ ~ E E ~ ~ P f f J p J P P P G V m v v v v v v N ) _ _ ' R N E R n H ]  .H D G G G .._ _ D V B m m M ) ' ) V m v u v v S v ",
"C C Y Y H H n i i a s a s T / ~ ~ E E ] G H _ G / D p p i D H ..G G ) V V m B v v C R ' _ ` ` C Y R D D G E G F G M R G R ' R B m m C V ) ` ' ' C v v q > v v v ",
"a s C M H D a i u u a M g T ~ T T T T Y G ..G G H H d i p G ] ] _ ` ) ) V N V C v v V ' _ ) W Y D D D R H E D G R R M R _ R ' ' V C V V V ) N R A u u v q v q v "
};
