/* XPM */
static char *b7ca80a99ab145adfc41eb082375bdf3Q3Z2MUA1OZvlLvIk[] = {
/* columns rows colors chars-per-pixel */
"80 80 256 2 ",
"   c #09000D",
".  c #16010B",
"X  c #0A0219",
"o  c #180315",
"O  c #14011B",
"+  c #1B021B",
"@  c #270009",
"#  c #270216",
"$  c #330612",
"%  c #0D0324",
"&  c #090627",
"*  c #130223",
"=  c #180628",
"-  c #181235",
";  c #250B24",
":  c #281427",
">  c #34162D",
",  c #281839",
"<  c #36252A",
"1  c #4D1417",
"2  c #711719",
"3  c #47281B",
"4  c #56271C",
"5  c #5C2A1D",
"6  c #56301F",
"7  c #6C251D",
"8  c #632A1D",
"9  c #67281D",
"0  c #75291E",
"q  c #6D301E",
"w  c #4A172D",
"e  c #541B25",
"r  c #4C2C22",
"t  c #492B26",
"y  c #542B23",
"u  c #572827",
"i  c #5C2C24",
"p  c #5C2D2A",
"a  c #583326",
"s  c #5C322C",
"d  c #4F2C34",
"f  c #5A3435",
"g  c #682623",
"h  c #642C23",
"j  c #6C2C23",
"k  c #642D2B",
"l  c #6C2D2B",
"z  c #772622",
"x  c #732C24",
"c  c #7B2D24",
"v  c #732E2A",
"b  c #7B2E2A",
"n  c #653125",
"m  c #6C3226",
"M  c #64322C",
"N  c #6C322B",
"B  c #6A3A2B",
"V  c #743225",
"C  c #7C3225",
"Z  c #74332C",
"A  c #7C332C",
"S  c #75392D",
"D  c #7C3A2D",
"F  c #6A2E33",
"G  c #772E33",
"H  c #633533",
"J  c #6C3432",
"K  c #6A3837",
"L  c #743432",
"P  c #7B3432",
"I  c #733A34",
"U  c #7C3A33",
"Y  c #77373A",
"T  c #7B3B3B",
"R  c #75413C",
"E  c #2E1C44",
"W  c #312849",
"Q  c #262850",
"!  c #372A55",
"~  c #563748",
"^  c #4D3353",
"/  c #693A46",
"(  c #783C45",
")  c #60325B",
"_  c #713B53",
"`  c #473C68",
"'  c #513F68",
"]  c #3D405C",
"[  c #5B4455",
"{  c #6B444F",
"}  c #784448",
"|  c #794756",
" . c #544A72",
".. c #6D4E71",
"X. c #6B5878",
"o. c #7C677C",
"O. c #85271D",
"+. c #912F1E",
"@. c #822622",
"#. c #832D24",
"$. c #8B2D25",
"%. c #832D2B",
"&. c #8A2E2C",
"*. c #942E28",
"=. c #833225",
"-. c #8B3326",
";. c #893925",
":. c #84342B",
">. c #8B342C",
",. c #84392C",
"<. c #8C392D",
"1. c #953526",
"2. c #93352C",
"3. c #9C342D",
"4. c #933A2C",
"5. c #9B3A2E",
"6. c #842E32",
"7. c #942E31",
"8. c #843432",
"9. c #8C3532",
"0. c #843A33",
"q. c #8B3B33",
"w. c #823B3A",
"e. c #88393B",
"r. c #933533",
"t. c #9A3532",
"y. c #933B33",
"u. c #9B3B33",
"i. c #943A3A",
"p. c #9C3C3A",
"a. c #A2342C",
"s. c #A8392D",
"d. c #A23533",
"f. c #AD3532",
"g. c #A23A33",
"h. c #A43C3B",
"j. c #AA3A38",
"k. c #8C4136",
"l. c #984239",
"z. c #A7402E",
"x. c #A54139",
"c. c #863C44",
"v. c #9E3C42",
"b. c #B13440",
"n. c #8E4D52",
"m. c #A55054",
"M. c #8C536A",
"N. c #A95D63",
"B. c #9B6669",
"V. c #A7656A",
"C. c #B4686D",
"Z. c #A86C73",
"A. c #B66C73",
"S. c #A9747B",
"D. c #B8757A",
"F. c #C26C74",
"G. c #C6747B",
"H. c #6E5C84",
"J. c #73678D",
"K. c #7E72A4",
"L. c #936E91",
"P. c #9E6B99",
"I. c #A87984",
"U. c #B77A84",
"Y. c #AF7090",
"T. c #C77B83",
"R. c #CE7A90",
"E. c #CC7EA7",
"W. c #BA838B",
"Q. c #AB8891",
"!. c #AC8A95",
"~. c #B58A96",
"^. c #B5919C",
"/. c #9883A7",
"(. c #AC9CA5",
"). c #B699A6",
"_. c #B48DB2",
"`. c #B4A4B0",
"'. c #BAA8B7",
"]. c #C5838C",
"[. c #C88A98",
"{. c #D98A96",
"}. c #D78998",
"|. c #E38B9C",
" X c #CE94AE",
".X c #D697A8",
"XX c #E898AC",
"oX c #E99DB6",
"OX c #F297B1",
"+X c #C4A8B6",
"@X c #CDA9B1",
"#X c #D9A6B9",
"$X c #E8A5BA",
"%X c #F3A5BB",
"&X c #F8B2BC",
"*X c #B79BC0",
"=X c #B6ADC3",
"-X c #BAB7C9",
";X c #BBBDD3",
":X c #CEA2CA",
">X c #D8AAC3",
",X c #C6B8C8",
"<X c #D7B5C9",
"1X c #C7BDD4",
"2X c #D7BCD4",
"3X c #E8AAC4",
"4X c #F8ABC6",
"5X c #E8B6CB",
"6X c #F9B4C9",
"7X c #E0ACD3",
"8X c #E8BAD5",
"9X c #F8BBD5",
"0X c #BAC4D6",
"qX c #BDCADC",
"wX c #B8D0DE",
"eX c #BDCDE2",
"rX c #B9CFE5",
"tX c #BCD5E7",
"yX c #C9C9D2",
"uX c #C3C5DA",
"iX c #C9C5D9",
"pX c #C3CADD",
"aX c #D6C6D9",
"sX c #EDC8D6",
"dX c #E7C5DB",
"fX c #F8C5DA",
"gX c #C3CDE2",
"hX c #CCCDE2",
"jX c #C8CCE8",
"kX c #D6CBE4",
"lX c #C4D2E4",
"zX c #CBD3E6",
"xX c #C7D8E7",
"cX c #C4D3EA",
"vX c #CBD5EA",
"bX c #C5DAEB",
"nX c #CCDBEC",
"mX c #D4D3E5",
"MX c #D2D4EA",
"NX c #DAD6EA",
"BX c #D3DBEE",
"VX c #C8DAF3",
"CX c #CCDDF2",
"ZX c #D3DDF2",
"AX c #D9DAF3",
"SX c #E6CAE4",
"DX c #F6C9E4",
"FX c #E6D5EB",
"GX c #E4D9F4",
"HX c #CFE3EC",
"JX c #CDE2F3",
"KX c #CBE2F7",
"LX c #D3E3F4",
"PX c #D4E5FB",
"IX c #D9E5FA",
"UX c #E5E2F7",
/* pixels */
"3 y u k V S ,.C ,.,.0 7 V D q x ,.>.5.d.&.:.C D z v v v p s s s s J N l 9.:.j 7 H H L I 8.8.9.%.=.<.<.>.%.-.c =.;.;.:.#.j 8 8 8 j j i 3 r r 3 < i i l h 3 3 4 h ",
"y 4 4 5 q C C =.#.=.q.:.D ,.c q =.:.>.3.9.>.:.C c b v l k p M s p H J J &.8.b x g p l Y Z Z b b <.4.<.9.<.=.0 ,.;.<.>.x j h n q z Z h y u r t 3 4 5 M l 3 4 4 8 ",
"y i h h V R :.>.<.y.y.#.c :.:.C C =.>.<.:.:.:.#.#.b v g h p M H s i M J K H K M t a y a L Z A P >.9.r.r.:.=.V ,.D ,.C v x v q q =.:.P v M h 4 3 4 i l l 6 n g 7 ",
"u u g 5 m 0.q.t.r.r.r.@.c :.A C C ,.:.:.,.:.:.#.$.:.Z h F l H M H s M J H p k p a s s s J S Z V 2.r.v.t.c c D C q A U k.A C c q q.:.9.8.I J 4 y k p h k i n g 7 ",
"3 4 j x :.0.<.2.2.2.t.3.5.r.0 q P 8.9.r.P z :.7.2.<.,.C v V 9 v v Z P P S m Z S :.:.8.q.*.r.y.q.d.d.d.a.a.3.>.#.C :.0.D C =.>.u.3.d.2.$.8.A 9 8 h m x 7 7 0 q q ",
"4 5 m A q.q.q.4.t.4.t.u.r.4.<.,.A x 6.&.z c >.5.5.4.:.C v c x Z Z P A 8.0.0.U k.y.9.q.y.r.2.q.:.u.g.u.g.j.g.4.-.#.=.k.0.C :.<.y.3.5.*.>.%.A b g 7 A 0.9.A 0 7 0 ",
"h k Z U q.q.>.r.y.y.u.r.2.r.<.q.A 7 z %.#.:.l.1.g.4.#.%.:.8.b x V V #.%.4.4.r.y.u.u.u.4.t.>.>.:.=.4.x.5.u.5.2.5.4.p.l.0.S D A 8.4.4.t.p.#.@.<.#.-.>.2.y.>.#.0 7 ",
"Z L Z V 8.,.>.<.>.p.u.y.y.y.4.y.Z x 8.9.-.4.<.z.s.g.$.<.9.:.i.q.S ,.u.p.5.u.g.5.3.g.a.g.7.&.:.,.=.k.l.z.4.4.g.3.u.u.y.>.L L 8.0.4.p.g.t.$.@.$.u.j.u.4.u.3.>.c q ",
"P D b c c :.<.<.$.$.p.y.<.4.4.5.k.1.z.y.:.4.p.l.>.y.9.7.0.%.<.1.r.r.t.u.g.3.g.z.z.x.x.j.8.:.:.i.u.u.u.5.h.h.h.p.e.c.Y Y R U U T q.l.m.7.r.>.$.*.4.1.1.1.f.d.7.&.",
":.b 8.:.C C <.4.>.>.4.q.<.k.5.3.4.<.k.4.<.<.%.c :.0.8.6.8.:.:.>.r.p.p.y.x.y.4.l.x.p.p.h.k.A 0.q.u.4.u.5.x.h.i.6.8.w.I J I I k.e.0.q.9.$.>.>.r.2.+.1.s.a.a.3.7.&.",
"9.&.%.b C =.=.q.<.>.:.:.<.l.l.3.-.l.4.;.<.<.0.b L T v Z A q.8.v _ | d > > : : ; ; ; > d B J n.t.=.<.5.u.5.2.c v G ( J M s S k.e.V v G 6.@.$.u.u.+.1.a.a.t.t.&.b ",
"t.9.>.b C =.c <.<.<.<.C =.4.u.1.<.l.;.;.;.:.S l K Y h N C 8.G 4 $ $ o # = : , = = * X O . 1 m.h.;.4.4.5.5.y.C Z k J M s a I e.i.L L G 8.>.@.2.t.3.a.a.*.3.&.:.%.",
"e.e.9.9.:.:.C C V ;.,.C 0 4.<.-.4.u.l.k.A v Z G g j n R f ~ O % $ w | E.oX|.|.|.|.XXU.M.w ; > [ T n.q.r.;.<.y.n.8.b c b ;.,.D V j v A %.v z z %.*.3.3.*.2.>.Z m ",
"A c 8.q.0.:.,.A C q V c O.<.=.=.-.-.O.=.,.8.8.w.D Z a a : # + ^  X#XoX3X6X4X4XOX%X6X4X4X3XP.; + e c.9.9.C :.y.p.l.q.9.b =.V C C A b %.b z x z c $.3.*.O.0 0 j 5 ",
"U V A A v z v j j 9 x v x c c A z %.9.7.P 8.9.r.c.( ~ . # $ E.4X%X4X3X6X9XfX9X5X5X5XdX8X6X7X3XM.: > } / U 0.:.:.:.<.-.>.A :.=.=.C C @.@.z 0 z x O.>.*.@.7 7 8 4 ",
"Z A A A v x j j j h j j x v U 0.G 6.r.7.G 9.r.3.c.Y . X X.:X4XOX4X4X3X9XDX9XDX4X5X8X8X8X3X6X9X9X..; $ ( k.k.=.;.2.>.-.>.q.:.y.p.:.#.O.$.%.c z 7 z >.%.@.7 9 8 5 ",
"n B N Z A v j 9 b Z 9 5 7 b A v @.%.>.9.8.9.8.9.) @ $  XOXOX%X6X9XfX5X5X8X2X2X2XDXdXaXNXdXSXSXaX3XL.# * } R l.1.<.=.<.5.i.>.d.s.4.O.*.3.2.O.0 0 O.<.c 0 j 8 4 3 ",
"A L S U 8.b j 9 A Z 9 5 0 b A x z 8.8.b @.6.e.w.. #  X4X&XOX%X9X5X8X<XsX2X<XiX2XaX2XaXFXFXSXSX2X5XsXP.+ @ } l.;.>.:.>.y.l.>.3.s.1.*.3.a.$.O.$.-.=.>.@.@.j q n 4 ",
"q.9.%.P :.8.Z 9 m m g 9 7 z A A b b v g 7 j / @ # ~.OX4X&X6X9X9XDXDX2X,XaXaXNXmXzXpXNXNXNXmXiXiXdXdXaX[   # R L A =.:.:.>.2.p.u.5.u.3.a.*.3.*.2.<.<.&.%.x j n 4 ",
"r.i.9.8.8.8.A g 8 h j j g 7 x b v z j v C L $ o M.4X4X%X4X6X4X5XaXSXaXaXaXAXMXzXwXlXxXmXBXAXMXNXyX<XdX2X,   1 L D C x A -.4.y.y.5.u.t.5.a.f.a.2.>.$.&.&.c x m 4 ",
"t.y.9.<.8.D m B m j j 9 8 g x :.A Z 7 v R L   ; 4X6X4XOXoX9X9X8XFXNXhXiXzXIXLXnXLXLXlXgXvXjXMXZXUXyX2XSXfX# . ^ S n n L =.<.k.l.5.3.a.d.s.g.4.1.$.c C D V v V 7 ",
"r.2.<.q.U j 7 Z v v x j g 7 7 x v x 9 x K @ +  X4X6X4XOX3X9X8X2XkXGXNXkXMXZXzXnXPXPXLXIXeXvXvXAXMXNXFXSX8X<X. o i n k N C C :.:.5.4.5.s.3.3.3.5.=.c c V v 9 x 9 ",
"r.>.9.>.Z x A :.A A A A x x g j g z v c d . w :X%XoX%X4X5XDXSXaXiXUXAXBXCXvXrXtXKXPXPXPXcXrXVXVXlXMXGX2XdXSX) o d K k v Z A <.4.4.z.3.3.3.g.g.g.:.c 0 j j x Z V ",
"r.y.y.>.x 8.q.9.b b %.b 6.8.A V x x x %.o O Y.OXXX%X4X9X5XDXdXaXNXNXmXBXvXvXKXtXtXtXtXtXVXVXVXcXgXgXAXkXdXSX7X* . f L P L 0.k.5.l.z.a.1.g.g.j.d.<.=.c 7 m D D Z ",
"j.h.y.:.:.<.#.c 8.0.r.9.>.,.q.A P b l A X X }.OX4X3X9XfXsXyXaXyXhXAXNXpXPXbXJXbXtXtXtXtXPXKXtXtXJXlXjXMXSXSX8Xw . [ m L U 0.q.9.u.l.5.2.d.d.j.j.h.r.:.A V v m j ",
"h.v.r.>.:.#.#.#.q.r.i.r.:.>.,.,.8.x L L   - oX4X4X4X6X9XaXaXmXzXpXUXMXIXJXbXJXbXCXPXKXKXtXtXCXPXbXvXMXkXFXkX8X X  : S C A 0.q.y.t.t.1.=.3.t.h.j.i.i.0.8.A A x v ",
"q.y.<.>.&.&.y.l.t.3.2.r.q.<.:.C A b c.J X X.&X6X4X%X3X5XaXSXGXpXLXzXgXxXLXbXbXbXcXCXVXcXtXCXPXVXKXxXMXAXFXkX7X>Xo o B q P 0.:.y.d.v.9.8.%.&.2.&.b b P D A A b Z ",
",.:.:.>.>.y.v.x.d.t.3.4.q.<.A A V L Y 1 . L.%X&X$X4XfXfXsXaXGXMXLXnXHXLXnXxXJXHXMXZXjXvXtXPXPXcXwXJXAXGXFXSX8X8X .o B D w.P >.y.d.t.7.:.:.%.>.:.A A 0.A b b b A ",
"q.q.:.>.<.5.j.f.h.t.t.d.h.y.0.P A I F $ #  X%X%X6X9XDXsXaXkXGXAXJXJXbXnXJXeXLXLXJXLXLXlXlXbXbXJXHXHXZXcXMXpXaXSX+X@ 1 ( y.y.p.p.t.&.%.%.b %.8.8.U A A V A A P U ",
"q.l.p.i.4.u.j.f.h.d.h.h.y.y.0.P A T Y @ # #X&XXX4X9XfXsXaXaXhXBXpXqXHXnXlXPXxXeXHXLXLXqXxXxXeXbXLXHXgXvXpXhXGXSX#X$ @ | q.p.l.h.7.%.%.%.c b %.8.U Z A L %.0.8.A ",
":.l.x.x.u.a.j.j.g.h.x.x.-.=.8.e.A L ( @ # :X&XOX3X7X3XDXaXiXpXlXmXMXZXGXJXbXJXLXbXKXtXtXtXHXLXbXgXgXhXaXjXkXFXkXaX$ @ _ 7.u.d.z.i.%.b A %.%.8.q.A :.8.0.9.q.8.:.",
">.u.h.v.3.3.g.g.u.u.l.u.c c :.b 8.c._ @ # #X%X%X4X5X8XsXaXNXlXJXUX2X'.GXbXlXHXPXKXHXwXtXeXbXLXCXVXZXaX1X1XGXFXkXdXd # / r.3.s.s.r.%.c 8.&.%.&.&.0.8.e.0.r.9.q.8.",
":.<.t.a.r.t.d.t.7.9.q.:.O.;.-.=.=.;.| @ $ XXoX&X9X8XdXaXAXAXPXPXAXE E _.jXVXZXVXjXcXPXtXtXtXHXBXxXbX2X^ ^ GXAXjX9X... ~ h.d.3.3.u.$.>.%.V j j Z >.<.<.<.0.:.9.&.",
"c >.2.3.q.r.p.3.&.>.:.:.=.l.u.2.-.4.n.@ w 3X4X6X9X9XaX2XBXZXPXZX;XE E L.PXZXIXnXVXCXPXrXKXtXlXzXeXnX XE W /.AX1X5XY.. > p.d.a.a.2.1.%.%.v j j V <.q.<.>.A A 8.9.",
":.8.:.#.b :.<.2.>.>.>.4.;.4.z.j.d.d.n.@ _ 4X4X4X9X8X2XFXHXpXZXCX=X- ! iXJXgXnXzXrXPXCXrXwXKXtXbXVXZXGX! , P.NXGXfX[.X : t.g.u.+.0 q n m j m V S q.y.9.9.8.0.0.D ",
"8.A A C Z c :.4.=.:.>.4.<.$.j.j.b.j.n.@ Y.oX4X4X8X2XaXaXxXzXjXAXjXE E AXJXeXqXqXcXPXCXjXKXtXrXlXVXVXGX! ^ SXAXNX9X#XX = r.d.g.#.C 0 m h v j v L 9.9.r.<.A Z S S ",
"Z z z 6.6.z c C -.3.3.a.2.*.j.j.j.x.K @ XX%X%X$X9X9XSXaX9X$X#X6XDXSXNXZXvXlXgXgXKXrXaXSXjXMXnXPXVXAXNXUXfX&X4X$X6X$X* * k.t.3.+.:.c x G L m h n m Z U e.Y v m m ",
"j 7 z b v z c c 4.u.g.a.1.3.j.f.f.j.> # %X6XXXOXfXfXSXFX$XoXoX4X2XFXMXzXlXpXlXZXrXQ ! ! , Q CXPXVXjXpXzX6X4X%X4X5X#X* * b O.*.-.C x l L v j j n V V A P V j 8 n ",
"c q 7 9 j 8.<.4.1.3.s.s.1.3.j.j.f.g.# O 4X6X6X6XfXfXNXkX@X<X#X<XkXkXuXHXnXeXgXCXPXrXE Q Q LXLXJXLXLXzXzX>X>X>XdX5X>X* X c $.-.:.C D l l g x 0.q.,.q.0.v k h i 5 ",
"q 9 8 8 v 0.u.3.-.-.3.3.1.s.f.f.f.h.+ % oX6X6X6X$X$XyXNXFXaXdXdXMXjXBXxXLXeXqXZXCXtX;X;XjXIXnXJXLXLXBXzXkX8XdXDXDX>X= O =.<.%.V C D L F x :.i.y.y.y.0.C k k i 4 ",
"V C ,.<.9.9.y.<.*.*.*.+.1.4.2.*.3.U   % %X6X6X&X3X7X1XMXKXcXZXZXMXZXZX0XnXvXvXzXZXZXjXcXxXLXpXiXrXcXcXAXmXaXSXSXfX6X> ; ;.q.<.:.3.r.0.V -.4.u.u.4.<.0.P n i u u ",
"m D ,.0 z &.4.4.t.p.+.$.=.=.2.h.q.Z . > &X6X6X6X$XDXiXmXqXeXgXvXAXAXeXgXLXLXgXzXZXVXZXvXHXhXzXuXVXZXgXgXmXaXyX2X9X9XE ; D 8.:.$.r.k.q.D <.y.y.r.;.:.:.v j g 9 h ",
"9 q ;.=.z 0 4.5.t.p.&.>.C 0 y.t.( 1 . ~.fX6X6X$X8X9X1X1XuXhXZXvXBXZXBXqXcXnXvXcXBXxXLXIXIXIXlXpXrXgXLXAXmXmXaX<X3X$XW + T S q.>.9.y.:.:.q.4.<.u.4.>.q.0.8.x U 8.",
"9 7 ;.=.c =.4.1.&.%.>.>.C <.i.v.( @ . #X&X$X&X$X3X5XaX2XhXjXhXvXzXnXlXbXbXlXgXlXzXqXpXzXpXnXqXwXjXvXBXzXyXyX1XSX9X9X... e T i.u.p.=.c >.<.:.$.r.r.q.c D i.p.9.9.",
"2 x j n -.<.>.#.c c C C K ( } { ; o M.4X&X$X3X6XdX2X1XkXpXuXiXpXqXlX0XcXjXkXgX0XtXgXpXuXqXlXgXlXbXzXMXhX1X2X7XfXfX9X.X$   ~ { _ e.8.:.:.A b b x e.q.c z =.q.e.c.",
"7 7 j g :.<.>.>.c :.:.V 1 @ @ @ O ;  XoX%X4X6XfX8X<XiXiXzXuXpXuXvXbXlXqXjXzXgXuXlXqXLXBXBXnXIXLXnXpXmXiX1X2X8X<X9X4X%XY.. . # # 1 w.e.9.A :.%.b %.8.c c #.y.k.w.",
"V j v G =.-.:.<.4.q.C k.. . > ~ ).>X4X3XoXoX4X3X<XsXyXmXmXuXzXBXbXlXgXnXMXMXzXpXpXzXBXnXnXlXqXZXeXgX1XhXaXaXSX>X$X%X4X.X,X{ + X @ K w.9.c :.b 8.8.b C :.#.q.T L ",
"j 7 x b #.#.:.-.#.:.q.:.o o.2XdX5X5X3X7XoXoX3X$X$XsXaXmXqXzXhX0XqXpXzXgXpXgXuXuXpXpX0XHXlXpXlXcXqX0X1XhXaXSX8XfXsX6X[.@ # + % = $ d c.e.C b A b %.b A C =.0.L K ",
"g g 8 h g x v l c A :.,.* W <XaXdXaX>X3X3X$X$X3XfXsXzX0XiXzXpXlX0XuXzXxXuX0X0XyXxXlXqXpXqX0XqXpXhXiXyXiX5X5X3X9X7X> % & & % & & & o ( U :.#.c C A A P 8.=.:.0.G ",
"5 8 8 h g j j j c C :.<.+ ; aXsXdXsX5X5X6X5X$X5X8XdX-X0XiXhXlXpX;XuXzXyX;X-XzX0XpXzXqXpX0X0XqXqXkXaXaXaXsX9X3X3X; = & H. .X.H.! - O $ } :.:.A 8.:.8.b 6.;.:.:.T ",
"4 5 j j j j h h 0 V C =.1 $ S.6XdX<X3X#X%X$X#X$XdX8X-X-X0XzX0X0X1X0X;X0X-XzX0X-XuXpXuXpXzXmXqXhXiX1X1X2X#X5X5X; & & H.` X.H.J.` H.` O O L v 8.6.8.%.%.8.-.>.e.6.",
"5 8 l v h j h h 0 c C =.c.1 e [.5X>X#X4X6X$X#X@X<X<X1X-X'.qX0X0X;X-X=X1X0XpX-X0XiXpXpX;X;XuX-XuXyX1X2XaX>X5X5X+ & H.` - + = & - ! Q E & 1 m e.6.:.0.9.6.$.&.e.c.",
"y i g g g g v j b b @.&.v.2 $ d  X$X%XOXXXoX.X#X+X,XiX,X-X0X=X0X1X=X1X-X0X'.0X0X;XyX;X=X1X-X-X=XyX+X#X5X$X3X/.% ]  .E X W & O O % & J.& @ / <.e.A q.y.q.;.<.q.e.",
"i i i k z l 7 x x b 6.r.p.7.4 1 / .XOXoX.XXX#X#XyX+X'.,XyX-X'.,X,X'.1X,X-X-X'.-X=X-X1X1X-X;XiXyXyX+X@X@X$X$X: X H. .% = X   # ~ X & ] & o / 0.>.A :.<.9.<.y.y.e.",
"s M k n y y 6 6 j Z 6.i.t.r.J 1 e I.XX.X|.$X#X$X@X+X'.'.,X'.=X=X'.`.`.`.`.'.-X(.`.-X'.,X*X,X,X1X<X<X@X@X#X$XX % K.] * X o $ Y P | # , ^ o { D C D <.<.*.u.p.>.r.",
"M B M i y 6 6 a Z x 6.6.5.7.Y T 4 I ].{.{.{..X@X'.`.`.'.'.,X+X,X'.`.`.`.`.'.'.`.`.'.,X+X,X'.,X,X#X+X@X@X$X$XX X  .Q * * : ~ P y.{ # > X.o ^ D C D q.p.h.h.r.$.$.",
"C D j p p g m 9 V B K K B S J J e K |.R.{.{.}..X).(.(.`.'.'.'.,X`.`.@X+X`.`.).(.).'.'.+X'.'.,X`.).+X#X.X$X$X& & ] & + ~ U e.:.<./ # , ! = ^ Z A U 0.9.i.q.:.<.=.",
":.0.L I F M Z k j N M s 8 J M J u } |.}.{.{..X[.^.(.(.'.'.).).`.).).`.@X).(.).).!.'.).+X`.).+X'.+X X.X.X#X#XX -  .- + ~ L P 8.:./ # Q ` * > D R P A 8.9.:.9.q.q.",
"A %.0.8.L L J M k M s a i p H e 8 n.R.|.{.{.].}.).).(.(.^.).).).^.~.[.!.^.^.^.^.!.^.).!.^.+X+X#X X@X.X}..XZ.% E ^ ^ O + [ ~ { ..E X Q H.* + R ,.w.0.A 8.A 8.i.e.",
"8.%.9.9.S S K K H M s a a a s e Z T.G.|.].].].[.^.^.(.(.!.Y.).^.~.~.!.Q.~.~.~.~.!.~.^.~.^.).^.^.^..X}.}.).w % X.*XJ.* % . o + # & &  .` X O R D w.0.U U 0.P 8.e.",
"8.8.U U J N N Z K I S V v I u d N.G.G.G.G.].W.W.Q.Q.Q.!.Q.!.^.Q.Q.U.W.W.].[.W.U.~.~.~.Q.~.~.^.!.[. X[.[.[ # * P.E.OXL.E.| w ; > ..P.P.P.& % K V U w.T P Y U T L ",
"b 8.P S I Y L U I I U A S P u H F.G.T.G.T.].].W.Q.Q.Q.!.Q.Q.Q.S.W.U.].W.].].U.T.I.W.W.~.~.[.~.[.[. X.XU.< $ = P.R.R.P.E.~. XP.H.H.E.E...X ; R L N m L P P P U U ",
"c x l v J L ,.:.t.t.p.7.6.v G n.G.F.G.G.G.T.I.D.S.Q.Q.Q.I.Q.W.Q.D.D.D.G.U.T.T.T.D.D.W.S.W.W.W.W.].[.U.F e n.; ..Y.Y.M.Y.Y. XL.) H.H.L. .O : T l k k k I U U k.T ",
"C Z L Y / Y k.p.t.h.d.d.p.6.G D.G.G.G.T.G.F.S.S.S.B.L.Q.S.S.S.Z.D.D.D.T.G.T.T.T.W.U.W.W.U.D.W.].U.U.( u v.c.* ! E.R.Y. XXXE._.L.J.L.X...o ~ L l s p h k U U U U ",
"<.-.-.4.r.u.u.p.h.h.t.7.6.e.C.C.F.F.F.F.A.A.U.A.I.Z.I.Y.Z.S.Z.Z.V.C.G.F.F.F.G.G.F.U.T.U.D.D.U.W.I.} F n.1.n.+ , .XY.P. XP.P.:XL.` L. .Q o _ L C s y y a n M P P ",
"<.=.y.p.y.u.p.p.p.i.v.b c.N.C.C.F.F.F.F.A.A.Z.C.S.I.S.S.S.S.Z.V.V.C.D.C.G.F.C.A.A.C.D.D.D.S.S.S.| } Y T <.k.O = P.) ) Y.H.) ' L.X.` Q & @ / U V s p s y h l P e.",
"=.y.u.l.t.4.2.<.i.p.V k.N.A.C.C.A.C.C.C.Z.V.Z.A.A.Z.Z.Z.B.V.Z.V.V.N.n.n.U Y N.C.A.C.C.A.D.Z.S.M.| H K G A v * % L.L.:X XP.P.H.P.` H.` & $ K J N p p k p n m U e.",
":.<.q.4.d.u.#.<.9.e.N } N.C.A.F.N.m.m.m.n.m.V.V.C.A.Z.Z.B.B.B.V.V.L M k i g G c.C.N.N.A.A.D.M.| f H F F Z L * * ..L.L.| L.E.H.' ' /.- & / K M i u u g l n V 0.A ",
",.;.-.4.f.3.#.#.A P a t } K } n.} K K K B J } n.V.B.Z.B.B.B.B.M.l g G L Z S 8 9 J ( n.M.| | } I ( l N 8 h H ~ # ,  .X.X. .K.K.` H.' O # ( T N j k g g g 8 V ,.P ",
"C =.<.<.p.r.%.,.8.b f R f d K K R } } K Y I i y / M.B.B.B.n.K l l U G L S S 9 4 u k k F J h ( T L l N k M H f @ & = L.o.`  .` ! = O # / w.P L m k l k j 8 m A b ",
":.,.c A q.C x D R :.K K K f F F l P w.T I k y y y p K f f u p u L Y P P Z P j 8 g i g i L v L U L v L l k u d u + O + O * * = O # # K } V L v v l k 8 S m V A b ",
":.c q V V V Z U U Z K K K R F l v l v G l h y y u d u t w u p u G G P U A Z V v 5 8 h k g P A A S Z F G u p p h d ^ > ; = = : < / / R D V k.z P B h 8 U S m j b ",
"8 n n 5 n Z S 0.P L n a f a a p M p i i y i k l l k 4 4 4 4 4 8 C C C A v v P Y n n 8 h a n i i 5 B M j 5 i n 5 y k Y c.T Y F F H J B n S m q C b v m S H a a p ",
"n h 5 n m m m S P Y H a r a y y k H p i y p k J k h u y 4 4 4 g x v v m l g l l n N h 5 5 i i y 4 n N N J I B 8 p i G Y U L L g l k h n N j j S v j m m R s n s ",
"N h k h n h 8 j N J M y r r i i i M n M 4 i n N h h h g h 5 9 j Z Z l l p u u p V N j g 5 5 p i 8 Z L P S Z S Z N l P T A P G l Z M s a n p J l h i i i a d a a ",
"h h j n 5 n 8 m k M i i r y i i h n N N a s n g a i h k h g x v G L F F s s y r v Z L v B 5 4 i 9 V P P A V Z D l j v v b x v A V i s f p f k k h i 4 i a t t a ",
"y 4 i k v v V S g l k i h 8 m v j Z A %.Z Z m Z n g j x g g l v J J i i r a a r t r y H B p p k u f F K Y L V m p M k F F l I B f y f s s F J K M u t 3 t a r a ",
"i i i h l m n n g l i y 4 k Z Z V V Z P Z m S B l 8 9 7 8 7 j l M k k i y r y r r y a H K H J M p H k h m L Z m p k k l J N M n a y y d d s I J p y 3 3 3 t r r ",
"i i k k j N 4 3 4 4 y y 8 h U L S l N N j m B n V k 4 4 1 h j v k k M s a y r r y y H H K I M k k M h n m m j j k k k M H H H i 6 y u s M H K B s 3 t < 3 3 t t ",
"y i h h N i 3 3 4 1 6 y i m Z V v M n M h j h 8 v m 4 4 8 N Z Z J J H H a a a y r y M K M J M M 9 h i a l N k 8 v l i M H s K M a i s s H B n n f 3 3 3 < 3 r r "
};
