/* XPM */
static char *_aa0c17da3c845b4f01765020e80799fb6IYMfXqSZDBWtQR[] = {
/* columns rows colors chars-per-pixel */
"80 80 256 2 ",
"   c #0D0009",
".  c #19000B",
"X  c #0A0118",
"o  c #0C021C",
"O  c #130114",
"+  c #1A0113",
"@  c #14011C",
"#  c #1B041C",
"$  c #27010A",
"%  c #340A0D",
"&  c #260217",
"*  c #350717",
"=  c #3D2B1D",
"-  c #0C0323",
";  c #0D0729",
":  c #160526",
">  c #160C32",
",  c #1E1B3A",
"<  c #260926",
"1  c #36162A",
"2  c #30142E",
"3  c #281536",
"4  c #382737",
"5  c #491117",
"6  c #49271B",
"7  c #54271C",
"8  c #5A251B",
"9  c #5C2B1D",
"0  c #6A271D",
"q  c #64291D",
"w  c #772A1D",
"e  c #72341D",
"r  c #50172B",
"t  c #661E25",
"y  c #492727",
"u  c #4D2B22",
"i  c #4B2D28",
"p  c #542B24",
"a  c #562926",
"s  c #5C2C24",
"d  c #5C2D2A",
"f  c #5C3125",
"g  c #553329",
"h  c #5C332C",
"j  c #592D34",
"k  c #5C3336",
"l  c #672623",
"z  c #632C23",
"x  c #6C2C23",
"c  c #642D2A",
"v  c #6B2D2B",
"b  c #762624",
"n  c #732C24",
"m  c #7B2D24",
"M  c #742D2B",
"N  c #7C2D2A",
"B  c #643125",
"V  c #6B3225",
"C  c #63322B",
"Z  c #6C322C",
"A  c #6A392D",
"S  c #753225",
"D  c #7C3225",
"F  c #74332B",
"G  c #7C332C",
"H  c #74392C",
"J  c #7B392C",
"K  c #662C33",
"L  c #772D33",
"P  c #653432",
"I  c #6C3432",
"U  c #693837",
"Y  c #743533",
"T  c #7C3433",
"R  c #743933",
"E  c #7C3A33",
"W  c #75363B",
"Q  c #7B3C3C",
"!  c #75413B",
"~  c #261D43",
"^  c #312C4E",
"/  c #2B2B5B",
"(  c #583846",
")  c #522955",
"_  c #4C3553",
"`  c #683B46",
"'  c #773B45",
"]  c #6E3853",
"[  c #4B3B69",
"{  c #6B4648",
"}  c #78444B",
"|  c #6A4552",
" . c #664B5C",
".. c #7A4855",
"X. c #534A71",
"o. c #6D5175",
"O. c #85261D",
"+. c #832620",
"@. c #832D24",
"#. c #8A2D25",
"$. c #832D2B",
"%. c #8A2E2C",
"&. c #952E28",
"*. c #833225",
"=. c #8B3325",
"-. c #8A3B25",
";. c #84332C",
":. c #8B342C",
">. c #843A2E",
",. c #8B392D",
"<. c #93342C",
"1. c #98362A",
"2. c #9B352D",
"3. c #93392D",
"4. c #8D2D33",
"5. c #843532",
"6. c #8C3532",
"7. c #833A34",
"8. c #8B3A33",
"9. c #843B3B",
"0. c #8C3B3A",
"q. c #933533",
"w. c #9B3532",
"e. c #933B33",
"r. c #9B3B33",
"t. c #943C39",
"y. c #9B3A3A",
"u. c #A3362C",
"i. c #AB342A",
"p. c #A83734",
"a. c #A23B33",
"s. c #A43D3B",
"d. c #B53735",
"f. c #C03C3C",
"g. c #95412C",
"h. c #874139",
"j. c #9A4138",
"k. c #A3413A",
"l. c #B44339",
"z. c #863E42",
"x. c #84474B",
"c. c #8D4F57",
"v. c #A44B4C",
"b. c #8E516F",
"n. c #955C62",
"m. c #A75E64",
"M. c #9A6669",
"N. c #896573",
"B. c #A76569",
"V. c #B4676C",
"C. c #AA6C72",
"Z. c #B76B74",
"A. c #AA757A",
"S. c #B7747B",
"D. c #C36D76",
"F. c #C47079",
"G. c #6D5A82",
"H. c #6E6992",
"J. c #90658C",
"K. c #906D90",
"L. c #AE718D",
"P. c #B97B86",
"I. c #9074A3",
"U. c #C37985",
"Y. c #C87699",
"T. c #CB7DA4",
"R. c #B9838C",
"E. c #AD8A95",
"W. c #B68996",
"Q. c #B5929D",
"!. c #9E87AC",
"~. c #AA9AA7",
"^. c #B699A5",
"/. c #B28EB0",
"(. c #B9A1AC",
"). c #B9A7B7",
"_. c #B2AAB5",
"`. c #C4828B",
"'. c #C58996",
"]. c #D78A9C",
"[. c #C9919B",
"{. c #E58E9F",
"}. c #C98CA9",
"|. c #CF97AE",
" X c #D797A7",
".X c #E898AA",
"XX c #EB92B1",
"oX c #E898B7",
"OX c #F59AB7",
"+X c #CCA5AD",
"@X c #C6A7B8",
"#X c #D9A6B8",
"$X c #E8A5BA",
"%X c #F5A5BC",
"&X c #B89BC2",
"*X c #B4ACC3",
"=X c #B9B7C8",
"-X c #BABCD4",
";X c #C8A6C1",
":X c #D7AAC4",
">X c #C6B8CB",
",X c #D8B5CA",
"<X c #C8BDD6",
"1X c #D6BCD3",
"2X c #DBB3D8",
"3X c #E7ABC2",
"4X c #F8A9C7",
"5X c #FCACC5",
"6X c #E7B5CA",
"7X c #F6B6CA",
"8X c #FCB3CB",
"9X c #E7BBD4",
"0X c #F7BCD5",
"qX c #BCC3D5",
"wX c #B9C7DA",
"eX c #BDCBDC",
"rX c #BDD1DE",
"tX c #BCCDE2",
"yX c #BCD4E6",
"uX c #C4C6DB",
"iX c #C9C5D9",
"pX c #C3CADD",
"aX c #D6C5D9",
"sX c #CED3DB",
"dX c #E7C5DB",
"fX c #F7C3D9",
"gX c #C4CEE2",
"hX c #CCCCE2",
"jX c #CBCCE8",
"kX c #D8CCE4",
"lX c #C4D3E5",
"zX c #CBD3E5",
"xX c #C9DBE5",
"cX c #C4D4EA",
"vX c #CCD5EA",
"bX c #C6DAEB",
"nX c #CCDBEC",
"mX c #D2D4EA",
"MX c #D9D6E9",
"NX c #D4DBED",
"BX c #CBCBF0",
"VX c #CDDDF3",
"CX c #CBD9F4",
"ZX c #D4DDF2",
"AX c #DBD8F2",
"SX c #E8CBE4",
"DX c #F6C8E4",
"FX c #E4D5E9",
"GX c #ECD8F3",
"HX c #C8E2ED",
"JX c #CEE2F3",
"KX c #CCE4F8",
"LX c #D3E2F4",
"PX c #D3E5FB",
"IX c #D9E5F9",
"UX c #E2E3F6",
/* pixels */
"6 7 p C H H >.D *.>.m 0 D D S 0 >.>.e.e.&.:.@.*.v M F M c d d g v Y M M 9.T v x v Y Y Y E E 4.$.4.q.<.=.%.=.N J =.8.*.D V q q q x v s u u u = = f C v z 6 6 7 q ",
"p 7 8 s V S D *.m ;.,.;.J J S w ;.;.=.q.6.:.;.+.n F M x c c d h c K I M L 7.L b l l L T H Y N $.6.q.<.&.:.;.N D ,.8.,.w q 0 V w b F z 7 p u y 6 7 a v v 7 6 8 q ",
"a s s l A >.;.:.<.e.e.m m ;.>.D $.$.:.%.:.:.:.#.@.G b l z s h A h s c Z A P P h a a p g Z R H 5.=.e.e.<.$.D ;.6.*.>.m w n D n w @.7.G F C d 7 6 7 s c v f B x 0 ",
"a s z 8 V 7.3.w.q.q.q.@.m 5.D D *.6.<.&.5.$.:.$.@.;.F x I Z C h h f C A P g d g d h C g A R Y M &.e.y.q.m N N ;.w *.>.h.;.*.w e :.8.:.;.Y I 8 7 C d z c f z q 0 ",
"6 9 x n ;.8.:.3.q.<.w.w.w.3.m 0 ;.5.5.5.G n ;.:.w.q.>.D M M z A C I Y T A V F ;.;.>.5.7.;.,.q.1.r.r.r.2.<.<.<.=.D G 7.Y U I q.a.u.r.<.#.6.F q z z n b w 0 x 0 n ",
"7 9 V G 8.5.8.3.w.<.w.r.e.<.,.>.N m ;.5.n N 6.e.r.r.;.e m n x S H E T G ! >.8.h.j.8.8.j.:.,.3.<.e.r.w.u.s.r.w.<.*.>.9.7.R R 4.y.2.2.<.%.$.N N x 0 G >.8.m w 0 0 ",
"d z F E 8.8.,.e.e.e.r.q.q.3.,.8.G b b D D -.r.2.s.w.D D ;.;.m m m N $.%.:.3.3.e.r.1.w.1.e.:.:.*.-.r.p.d.j.3.3.1.,.e.t.0.R I %.5.3.<.r.w.@.+.,.@.=.=.6.e.:.%.0 e ",
"F Y F F 5.>.:.:.:.j.r.3.e.e.3.e.D l >.7.*.3.r.a.u.y.D >.,.=.e.<.;.:.q.s.r.a.k.e.2.a.r.r.<.:.;.D *.2.l.p.1.1.r.3.r.r.t.6.W R 5.7.e.r.y.w.=.+.#.w.a.a.w.r.w.:.w w ",
"E G N N D ;.,.,.#.#.j.e.,.g.3.w.e.e.t.t.=.1.j.e.w.t.6.;.=.=.3.,.w.r.y.r.w.<.a.a.l.l.s.s.7.;.5.0.k.r.u.w.k.k.k.1.,.h.J R ! R Q Q 8.j.k.q.q.=.#.&.1.=.1.1.p.i.4.%.",
";.D T $.D D ,.3.:.=.3.8.,.3.e.1.,.e.e.e.1.-.@.@.;.8.G F ;.:.:.;.%.y.y.j.s.p.w.s.r.w.z.t.h.Y 5.0.e.q.w.a.g.k.g.*.>.7.R Z E E h.h.T 8.t.6.6.:.e.<.=.1.1.2.u.2.4.%.",
"q.5.;.N m *.*.8.8.,.;.;.,.g.k.1.;.j.e.:.3.e.;.D Y Q M F E 5.*.@.w.s.z.z.( 1 < < : # 1 2 1 r ....7.0.e.r.1.-.D n Y W I v B J h.h.Y M 5.$.#.#.q.w.&.&.i.u.w.w.6.$.",
"q.q.=.N D *.D :.,.,.,.D *.3.j.&.=.j.e.:.q.;.H v C R z Z H E G *.s.s.5 5 * + : - > 3 > < # . * $ t 9.g.g.g.3.S Z K U v C V R 9.0.I M L 5.%.@.<.w.u.i.&.i.4.&.$.*.",
"6.0.6.6.:.;.D D S >.>.G m e.:.=.g.g.h.e.T M Y L B z I I P K k ! _ 2 * r b.Y.XXXX].{..X.X`.c.* & @ # ..' >.h.1.j.5.m D m ;.>.E H v n G $.n b b $.&.&.u.&.<.:.S B ",
"G N 5.6.5.;.>.G S n D m m :.;.*.=.*.@.#.T 7.T 5.J H V I P g k 4 < 1 K.6X4X4X4X4XOX%X%X5X4XoX3X|._ O & r R J r.a.h.8.;.D D D N N G N $.$.b m b @.O.1.&.O.w D x 9 ",
"E S G D n n n x x x x M b m m D w #.:.6.T 5.0.0.>.5.Z Z k { 1 2 ..3X3X4X9XDX3X6X7XfXfXfX7X%X4X4XOXT.* & & ( z.5.<.=.-.-.D D N 5.*.@.+.O.w b b b w :.&.O.0 0 8 8 ",
"F T J F M v x x v l x M x S >.J #.%.6.4.5.6.q.y.=.G H I { & < o.fX9X6X6X0X9X0X2X6XfXfXfX0X3X4X4XOX4X:Xo.@ & L 5.<.:.*.-.g.;.e.y.;.#.O.#.$.b 0 b w 6.*.+.0 0 q 8 ",
"V A Z F D N x l N F q 8 w M ;.N w N 6.6.4.6.q.q.4.W W } : + K.6XaXSXSXfXkX1XSXDX1X1X9X6X6X6X0XfX0X%X.X%XoXr : ] *.*.e.q.e.=.a.r.3.O.&.2.&.O.w w @.,.+.w x q 8 6 ",
"G Y E T 5.F x q G F q q w N F n w 8.$.$.$.$.%.%.W W K & # I.dX1XaXFXaXFXFXaXaXaXiXiX,XaX9X9X9X6X0X%XoX%X8XT.+ # H J 8.t.3.3.1.a.&.<.2.2.#.O.#.*.@.:.+.m V x B 7 ",
"0.6.G G ;.;.G q V V 0 q l b N G $.$.l x b b q.q.Y U & + | ,XdXdXiXiXmXMXAXAXlXzXMXkXkXaX1X1XSXDXfX8X5X5X4XOXW.* $ ! R ;.,.,.e.r.r.1.r.p.2.&.2.1.:.:.%.%.n x q 8 ",
"q.q.6.5.5.5.G l q z v x 0 0 b G N b n S F G $.%.U 5 . ~ >XaXaXaXMXMXZXnXvXvXyXwXzXmXMXiXaXiXSXdX7X3X8X8X%X4X6Xb.  % F N =.3.r.1.r.1.u.u.i.u.2.<.:.@.%.%.n S V 8 ",
"e.r.e.:.T F F A F v 0 0 q 0 n ;.9.L x V *.D b G _ O & DXdXaXiXNXNXvXzXvXlXgXZXIXxXLXUXmXiXaXMXFXdX9X7X$X.X%X5X4X< O j I J 7.j.r.2.u.2.u.u.a.1.-.:.N D J F n F 0 ",
"q.6.:.8.7.x x S M n x x 0 t 0 b L l b x m m M Y @   :XSXkXFXMXzXZXvXzXeXIXPXPXPXnXxXNXvXzXMXAXkX,X6XfX3X.X5X8X5X;X+ + U J G =.=.2.u.2.g.u.u.1.r.=.w n S n x n x ",
"q.<.:.;.D n D 5.G G 5.F N n 0 l t b M b N l I K O _ dXfXaXMXmXzXCXCXtXcXPXPXPXKXeXtXvXnXAXAXUXiXaXSXDX6X%X%X%X.X|.r O _ S D 1.1.g.k.1.2.2.a.u.a.;.D w x x S F S ",
"q.e.e.:.F G 0.6.N N N N ;.5.F F 0 b b N 0.h.Q $ @ aXfXfXsXMXuXgXyXCXCXCXyXyXyXyXyXVXnXnXZXmXMXMXsXaXdX6X0X8X%X.XoXI.O X H >.3.j.2.r.r.1.r.p.p.p.:.*.n w V F J F ",
"p.s.q.;.*.5.$.N 5.6.6.q.;.,.>.>.H D M $.T 5.] $ r 9XMXkXkXzXvXKXyXtXCXPXyXyXyXyXbXHXbXKXzXNXAXhXaXaXdXdXfXfX$X%XOXT.X X H 0.0.q.w.j.r.<.u.a.d.s.s.y.*.G F b M x ",
"s.k.e.:.*.$.@.*.6.e.q.q.;.,.;.>.J e L L G F < + }.9XiXFXkXzXvXVXPXCXyXtXKXKXKXKXbXJXbXJXIXvXUXiXiXkXaXaXfX7X8X%X%XOX3 X T z.5.6.q.r.<.%.q.w.s.s.q.t.7.E G F F n ",
"8.8.6.:.%.=.e.t.w.q.q.<.8.,.G D M F 7.9.>.7.& < :X6XaXAXLXxXcXVXCXPXCXcXcXcXKXcXnXbXnXIXxXgXsXLXpXGXFX1XfX$X%X%X4X%Xo.+ l x.9.8.p.y.6.:.%.%.<.%.N N 5.J ;.G F F ",
">.;.:.5.:.q.k.k.u.u.<.e.8.,.;.G T F E G G Y + X.9X9XMXMXJXIXVXtXyXPXPXcXCXjXCXCXHXJXlXvXJXJXnXLXmXAXFXFXDXfX3X$X4XOXJ.. 5 W 5.h.p.w.=.$.$.$.6.$.T F E G N N N D ",
"8.8.;.;.:.1.s.d.s.a.w.a.r.e.8.T %.*.H V j * & ;XdXaXhXAXlXvXLXLXLXbXbXyXvXLXZXZXLXJXyXJXHXHXLXVXLXNXaXSXdXDX0X7XOX%X}.$ & ..e.j.q.4.$.N N $.6.5.E T G F N ;.5.T ",
"8.j.e.e.r.r.p.d.s.a.a.s.e.e.8.T %.5.G G { % & ,XaXFXsXiXzXpXnXLXbXrXbXlXgXLXPXnXtXlXIXlXbXNXeXgXNXsXhXaXdXfXfX4XOX8X@X$ $ x.j.a.q.%.$.N m N $.5.G F G F ;.7.5.G ",
"=.k.y.v.r.a.p.p.y.s.v.k.;.N :.5.;.5.0.0.` $ & 9XdXFXkXsXiXhXgXtXbXLXbXbXyXyXHXJXLXLXcXJXIXAXMXMXgXuXiXiXFX,X6X3XOX4X#X& $ } a.d.q.$.$.*.$.$.5.6.;.G 5.8.8.5.7.G ",
":.y.k.s.1.2.a.u.w.r.a.w.S D 5.$.G 6.6.q.` $ ) dXsXFXUX>XaXhXZXCXHXJXxXyXyXyXHXJXLXJXcXcXGX).aXGXAXhXAXaXdX9X6X3X4X4X+X* $ ' u.d.q.$.N 5.$.$.5.%.5.5.0.7.6.6.8.;.",
"4.q.q.y.2.w.j.r.6.:.6.4.D ,.-.O.,.:.p.&.P . b.DXBXIXGX) ) 1XnXyXnXJXbXlXyXKXbXtXnXJXVXyX/.4 ~ BXPXPXZXNXSXdX6X0X5XoX#X$ * ] r.u.w.=.;.m S n x F :.:.:.,.6.5.,.;.",
"$.6.4.q.<.1.r.1.%.:.:.6.@.3.g.1.=.<.d.v.r . J.9XhXBXI.~ ~ &XnXtXxXxXbXJXyXPXPXyXbXLXLXIXJ.~ ~ -XKXPXJXxX1X,X0X0X8X%X6X* $ ' y.a.<.#.@.D F x x F 8.e.8.:.G ;.>.>.",
"5.5.:.$.N ;.:.:.<.#.:.q.<.1.k.r.r.u.f.l.2   }.DXGXMX/.3 ) AXIXCXbXyXVXwXlXCXPXyXbXJXtXnX2X) , &XZXLXrXHXFXaX6XfX%X5X3X' & z.w.w.m m m S v V Z H 8.8.8.;.5.7.>.J ",
"5.$.;.N S m ;.3.#.:.<.q.3.#.u.p.p.p.d.l.> X :X9XMXAXdX) ^ GXCXCXyXeXbXKXjXCXCXyXeXwXeXLXGX~ , BXAXhXsXxXiXaX9X6X4X7X%XL.$ ' s.4.N D 0 x C v Z R ,.,.8.8.G S S J ",
"S 0 w $.N b S D &.1.2.2.<.=.d.d.i.l.i.k.# - $X7X$X%X8XfXUXNXJXbXPXbXCXjXSX2XBXPXlXgXcXlXZXAXSXSX4X$X$X0XkX9XfX0X4XOXOXXX$ j <.=.E M b S A C z C Z F E 5.H Z V A ",
"e 0 b N N l m D 1.u.a.a.&.1.d.d.g.i.d.g.O o #X0X%X%X5X5XsXwXlXbXKXJX~ , ^ ^ ^ yXZXlXgXlXjXjXGX9X8XoXoXoXGXDXfXfXOXoX4X%X. 1 5.=.H F x F I l x M F n N T F V z 9 ",
"e 0 0 0 b ;.<.e.<.<.a.p.1.1.d.d.d.p.u.e.X o #X9XdX3X#X#XsXxXZXZXPXVXZX^ ~ , wXPXVXgXpXnXNXpXmXkX1X@X:X,XkXSXdXdX4X8X8X4XX # E >.F F S M w b 5.h.8.8.5.G l z q s ",
"q q l x M 8.y.2.#.&.w.u.1.u.d.d.i.d.&.;.# ; #XDXDX9XdXFXsXxXIXZXVXCXIXBX-XtXBXCXLXeXeXLXvXNXpXkXSXSX1XFXFX1X,X3X8X8X8X.X- X R S F T H n w N j.e.e.t.0.D v v z s ",
"D N ,.,.-.<.1.&.#.=.=.D -.1.-.=.-.-.w *.# 4 7XfXSXSXsXvXKXlXlXtXpXgXZXmXvXgXZXVXvXvXvXnXwXNXLXNXCXCXbXHXkX>X,X$X4X8X8X%XX X 7.6.,.e.e.@.=.e.e.3.8.8.7.D f f p p ",
"n 5.;.w O.=.<.2.j.r.=.O.O.-.,.e.:.@.m D < 4 $XfX1X<XkXvXtXgXVXCXpXlXzXNXmXZXZXZXvXgXLXLXgXpXLXMXNXlXyXwXkX<XDX3X8X8X8X5X4   Q 5.,.j.,.*.:.e.e.e.0.5.;.N B 9 f s ",
"l S >.*.w w e.r.j.g.=.-.-.@.3.r.6.N M F . 4 $X$XaX1XFXmXNXNXgXpXeXsXIXIXZXZXzXNXvXlXnXlXeXnXNXZXlXZXpXpXiXaXdX6X3X8X8X8XE.+ 5 W 7.0.7.0.e.e.,.e.6.6.8.5.*.m 5.5.",
"z q ;.;.e *.e.-.w =.=.1.*.*.r.r.y.5.T 7 . o.fXfXSX1X<X-XNXNXmXhXrXeXNXwXmXpXpXgXlXtXlXcXbXzXvXlXcXlXzXqXpXaX1X:X3X4X$X8X#X. % x.0.5.G G :.;.;.6.q.0.G 5.r.y.6.0.",
"l x V 0 =.<.,.N w w -.O.$.8.,.h.{ | ( X $ '.0XDXfX,X1XuXkXkXhXbXlXeXtXwXrXeXhXvXgXuXhXlXbXwXcXpXuXuXuXhXhX<X,XfX7X3X$X7X4Xo.& : { U U Q ;.N N N q.0.N M #.6.8.7.",
"l 0 0 e *.:.,.:.D w O.O.$.0.H 5 . +   O S.4X4XDX6X9X1X>X<XhXgXHXLXLXnXVXNXJXpXsXpXzXzXpXwXyXnXvXpXuXqXhXsXaX,X6X8X7X4X4X3X|.< @ $ . $ 5 5.5.N D 4.;.L N $.0.h.7.",
"n b w S G ;.:.q.,.,.:.3.6.9.P . O @  .;XoXOX4X3X:XdXSX2X<XiXrXrXZXeXlXCXbXxXvXwXiXhXmXmXbXpXlXmXNXzXuXvXsXaXdX6X8X5XoXoX#X6X3X^.j 4 + $ L T J e @.N D G $.0.0.M ",
"b x n n S D :.%.D *.3.1.6.W i < ; @ < & * }.7X8XfX1XSXkXkXiXwXrXjXzXeXgXJXwXpXiXiXuXgXuXyXvXpXqXqXgXzXpXMXaX1X,X$X$X3X$X3X$X6X7XkX>XJ.& K Y D e *.m D J $.0.T M ",
"c l q 0 q x S m b 4.:.-.Q ' O - - : - ; - X 2 6X8XoX9X9XaXiXiXsXeXeXwXwXtXqXzXMXpXqXqXqXxXzXpXwXgXiXhXpXqXsXdXfX7XoX3X5X3X#XaXdXkXaX4 O 8.>.;.S F G G ;.:.;.T J ",
"s l q 0 q x x x N 5.;.>.' * & 3 ^ G.o.X.o.: @ : :X3X9X0XaXiXiXsXuXpXqXwXeXiXzXpXuXjX=X-XpXvXqXuXpXzXpXiXqX=XdXdX7X#X7X8X6X9XdXdXaX1X& O 0.5.m 7.5.7.N *.5.6.;.T ",
"s z q 0 x 0 l l b n F E X o / H.[ H.G.o.X.H.> ; * 6X6X#X,X1X<XhXpXiXMXmXeXuXpXiX=XuXhXqXqX=X-X>XqXqXvXqX).qX9XdX$X$X$X$X#X6X6XdX7XL.* r T G 5.*.;.D @.;.;.5.6.5.",
"s s V V b x z z x n c % - ~ ^ / > > ; : , / G.; & 1X6X#X9X1X<X<X<X<XiXuXqXpXiXuX-X=XeXqXqX*X-X<X-XqXwX_.=XiX,X>X+X#X3X3X$X#X$X$XY.r 5 ' L F 6.@.N >.:.:.5.5.6.q.",
"a s s l v t b N m L U $ ; H.; o O O : ^ ; , H.X.@ I.$X$XdX#X>X<X=X=X-XqX_.qXeXuX=X=X=X=X>X<X).<X-X*X=XqX_.iXaX#X#X X$X.X$X%X%X[.y % a ' M G q.w.;.8.h.,.q.q.<.2.",
"a s c s v v x x n Y ' $ ; _ o # { * . O ; ; X.X.X 2 $X$X@X+X>X>XuXiX*X=XqXiX_.=X*X>X).*X<X>X&X>X=X*XqXqX=X@X@X,X#X$X.X X#X#X[.V 5 5 ' W l Q ;.:.*.:.:.,.q.r.e.e.",
"c c h c d a z z M v ` $ _ ~ # { 9.' % . ; ; / H.o o $X.X+X+XaX,X@XqXqX_.qXqX_._._.=X).).(.).).@X@X_._.=X).).).@X#X.XoX].[. XS.a 7 C B C d Z G G ;.0.:.&.w.y.:.8.",
"v I P g u p a s M I U * G.2 & ` :.7.} = o o / X.; o $X%X#X,X@X#X=XqX_._._.).=X~.(.@X)._.@X).(.@X>X).=X_.).^.(.@X#X X X].'.'.K y ! Z s g g f H G 7.0.y.k.p.3.*.Y ",
";.G B 9 s s C K n F ( . / , < ( G 5.h.q.} + > / ; - #XoX X+X|.+X).@X)._._._.).~.~.(.).^.@X@X+X(.qX_._.~.~.~.~.~.[.[.].].U.{.' a 5.T v C B C T L 5.5.7.7.e.6.6.5.",
"5.7.S H C C P K A z , # X., & ( W E t.v.| & > X., - $X X X X+X@X@X).^._.(.~.(.Q.^.^.^.^.(.(.^.^.~.~.~.(._.(.~.~.[.[.`.`.`.].} r 7.T T x z Y T L 7.T 5.7.;.6.0.7.",
"$.G 7.J H R U P c h o o X.^ # 2 { | ..x.< + ) _ ~ ; A.|.[. X@X@X+X+X(.~.Q.Q.Q.Q.Q.E.^.Q.Q.Q.W.W.Q.Q.Q.Q.~.(.^.Q.W.R.W.`.'.U.c.j l 9.h.w Y T Q z.h.E J E T 5.0.8.",
"5.;.7.7.F H U P k ! ; o X.X.; o . . $ $ : @ J./.o.; 6 W. X[.|./.Q.Q.(.E.E.Q.E.E.W.E.W.W.E.W.[.Q.Q.Q.Q.E.^.^.Q.E.R.R.R.`.P.P.L.j t T J *.L 9.T 5.h.! E E W T 5.6.",
"$.5.E T Y I I W W W : : !.I.L.o.< < r o.T.J.OXT.I.: < [ [.[.[.[.E.W.W.W.E.R.R.W.P.R.'.R.R.P.R.R.E.E.R.E.[.Q.W.W.P.P.S.A.Z.Z.L.c.r s 7.>.T T T I H Q E T Y E E H ",
"*.G T Y U R E E T Q < X X.~.L.J.J.I.}.T.Y.L.Y.T.I.< < r P.[.[.[.[.W.[.W.W.'.'.P.P.P.P.P.R.R.P.R.P.E.E.R.W.W.W.'.R.R.P.S.Z.A.S.S.d r W 5.9.W Q Z V Z R Y T E Q E ",
"m n v F I R D ,.<.j.2 @ [ K.G.G.) J.T.Y.L.b.L.L.o.& ] 5 a L.`.R.R.'.`.R.R.`.U.U.F.`.S.S.L.A.A.S.A.E.A.R.R.R.U.U.R.S.S.Z.L.S.S.F.c.d t E 0.9.R v v l c U Q 7.E 7.",
"D G Y R U R g.g.u.y.) - G.G.J.J.J.&XT.T.XXY.Y.T._ O } } y { `.U.`.`.U.`.`.U.U.U.`.F.S.S.A.S.A.A.A.C.A.R.P.U.U.U.S.S.S.F.Z.Z.Z.U.P.K l Y 9.T F v v v a P T E 7.E ",
"0.;.*.-.r.r.s.s.i.j.} $ 3 o.I.[ b.:XI.I.}.L.I.:X~ > h.,.' W } A.U.P.U.`.S.S.F.F.S.V.D.D.V.C.B.M.M.M.A.A.R.U.U.F.F.F.F.D.V.V.V.F.D.V.L c Y Q T Y g s a s B V E 7.",
"6.=.3.j.w.r.y.a.u.j.x.$ ; ~ [ G.K. .] G.J.] ] L.: : 7.=.W W x...A.S.P.U.F.S.V.D.V.V.D.D.S.V.B.M.C.M.A.A.A.A.P.U.Z.V.S.D.V.Z.D.F.D.V.B.Z l W Q I f d d d q x J T ",
"$.e.e.g.r.w.q.q.<.0.z.% ; X.X._ I.G.T.I.|.:XJ.H.- O 9.,.T ' K ..n.C.P.Z.F.D.V.m.B.m.J ! } c.B.n.M.n.M.M.M.M.B.C.B.V.B.V.V.C.V.V.V.V.V.m.W d K I d d h s x S E 7.",
"5.0.,.3.w.w.%.6.q.t.' I - > !.X.[ G.T.b.z.J.J.G.- < 5.=.F I ' ` } n.Z.S.D.m.V.V.x.v z B K U W n.n.n.N.M.M.M.B.M.B.B.v.c.c.v.v.n.D.D.V.V.} P d C s s a g x G 7.T ",
"4.q.<.e.y.q.@.D G E Y U O O [ o.[ H.I.X.o.G.o.~ : ( U Y A V ' ' K ' c.c.c.c...' 8 8 Z E M x Z Y n.n.M.n.B.M.M.M.{ ! h d C I W Q } x.x.} I I I K f z f q B V E G ",
"%.=.*.e.j.8.*.;.D Y I ` ( + O : / [ X.[ J.J.: : $ ` U Y B Z t b ' W K W K v s 8 8 q F J N F E l k ' c.n.n.n.} k p a C I R R W Y v v I I W Y R c q B z B q Z G J ",
"G 5.m G >.D m 5.7.E A k { g + # - @ : - + O + # U U U a s z s l Y T T W v Z A 8 8 z v v Y x T 7.I c P I ! h u 6 a s I M I v Z c v I Q Q T ! Z H V V q H S F F F ",
"G F 0 S D D N 6.7.H U k ! ! ( ( ^ < : > # 2 k j c P K j a s z q F N F T H H Z V z l x x q G F ;.W v f 7 = 6 p g d c W W L v c h I Y Q E T T x F F x q R G n x V ",
"z 9 B f B H G 5.G F C C c k d j P d j g p d d P z q 8 7 8 q 8 9 N N F H V S S H v v c l z s f s s A V v z c d a s z L 5.%.T c B Z V Z I H V n N F m M T L l f g ",
"B B s C C B S H H H V h a g g y C P s p p d C Y z s 8 7 8 8 8 B M M n Z B q z v c I z s 9 s d 8 8 z v H Y Y I d s z L 9.5.F Z B c c d C B B V F F v M M I Z h g ",
"V s s B V q q q V Z C a p 7 g p z C V z 7 s z l B 9 B s z 8 q l N F Z z s a c s v Y x z s a d s 9 Z Y H T F R R I v T Q Y H Z l I V s h B f C B d a s d j a j g ",
"B q f f z B B f V V s s 6 g g s 9 V F S f z V l 9 9 s f 9 s x m T G v z h d a p I M Y Y C s p d z A T F T M Y Y v l v M F F Z H Y d h g f h B C d d a a i g i a ",
"s 7 s x v M I R 9 B V q 9 q M b z Z J G F H V Z V q V z d z x n L Z z s i u g 6 y y j K P C g h s s C Z T Y Y v c v v V I v I Y C a d d d I U I h d i = i g y i ",
"s s z z v v c C 9 B q q 7 B F F V F H H Z V H H V q s c s l x S M v d d i u u 6 a a d P A P P C g C c l Z Q I V z c c c I I v c d a a g d P W U g p 6 = y i i i ",
"d d C z M I s 5 6 6 9 9 s V R G F F Z Z B V I M S 0 5 a 7 l x S v c ! h g u u p 7 g h U U ! I z f C z z v C c c c d B C C P C d p u g g P P A P C u u = = y u a ",
"p p z z I l 8 7 6 6 7 9 9 B R M M v z C s c v M n x 8 7 a Z F S H A g h g g f g u 7 h A P C I c f h c v v Z z c C C s C P h U A g g h h C P d P P 6 6 = = y u u "
};
