/* XPM */
static char *f094cd484732441ab51fe8660a164bfcPOMYcBNQXhepu5dB[] = {
/* columns rows colors chars-per-pixel */
"80 80 252 2 ",
"   c #1D000A",
".  c #150114",
"X  c #1B0113",
"o  c #14031C",
"O  c #1B021C",
"+  c #180A1C",
"@  c #0F0118",
"#  c #21000C",
"$  c #2B000C",
"%  c #260005",
"&  c #230114",
"*  c #280418",
"=  c #370919",
"-  c #340813",
";  c #0C0626",
":  c #140423",
">  c #170626",
",  c #1B1136",
"<  c #290924",
"1  c #381628",
"2  c #351936",
"3  c #2D142F",
"4  c #38272C",
"5  c #4B1519",
"6  c #4A271D",
"7  c #55251C",
"8  c #5B251C",
"9  c #59291C",
"0  c #64291D",
"q  c #6B291E",
"w  c #67251C",
"e  c #732A1E",
"r  c #79281D",
"t  c #471824",
"y  c #4D1A2E",
"u  c #4B2B24",
"i  c #542B24",
"p  c #5C2B24",
"a  c #5D2D29",
"s  c #582626",
"d  c #5C322B",
"f  c #573229",
"g  c #582D34",
"h  c #5C3437",
"j  c #472736",
"k  c #642C24",
"l  c #6B2C24",
"z  c #632D2A",
"x  c #6B2D2A",
"c  c #652623",
"v  c #732C24",
"b  c #7B2D24",
"n  c #732E2A",
"m  c #7C2E29",
"M  c #742622",
"N  c #633125",
"B  c #6B3126",
"V  c #64322B",
"C  c #6C322B",
"Z  c #6E392D",
"A  c #743125",
"S  c #7C3226",
"D  c #74332C",
"F  c #7C332C",
"G  c #7C392D",
"H  c #73392E",
"J  c #672D34",
"K  c #653432",
"L  c #6C3432",
"P  c #6B3934",
"I  c #6A373A",
"U  c #733533",
"Y  c #7B3532",
"T  c #743934",
"R  c #7C3A33",
"E  c #74393B",
"W  c #7B3C3C",
"Q  c #76353A",
"!  c #281D41",
"~  c #292949",
"^  c #38284C",
"/  c #393256",
"(  c #3E3864",
")  c #50344F",
"_  c #683A46",
"`  c #783C44",
"'  c #663259",
"]  c #4A3C66",
"[  c #6F3D63",
"{  c #78444A",
"}  c #794755",
"|  c #684350",
" . c #534B6F",
".. c #6E5071",
"X. c #5C4154",
"o. c #7B413F",
"O. c #83291E",
"+. c #832D25",
"@. c #832E2A",
"#. c #8B2D27",
"$. c #952E27",
"%. c #833226",
"&. c #8A3226",
"*. c #83332C",
"=. c #8B342C",
"-. c #84392E",
";. c #8B392E",
":. c #93352D",
">. c #9B342C",
",. c #933A2E",
"<. c #98362A",
"1. c #843631",
"2. c #8C3532",
"3. c #833A34",
"4. c #8C3A33",
"5. c #833B3B",
"6. c #8A3B3A",
"7. c #943631",
"8. c #9B3631",
"9. c #933A33",
"0. c #9B3B33",
"q. c #943D3A",
"w. c #9B3D3A",
"e. c #A3362E",
"r. c #A23B34",
"t. c #AA3B33",
"y. c #A43B37",
"u. c #B43B35",
"i. c #89413A",
"p. c #994138",
"a. c #A44239",
"s. c #B54137",
"d. c #873E46",
"f. c #913F41",
"g. c #854449",
"h. c #8E4F54",
"j. c #A54A4B",
"k. c #965E62",
"l. c #8E536E",
"z. c #9A6568",
"x. c #92647E",
"c. c #AA676B",
"v. c #B3676D",
"b. c #A86C72",
"n. c #B86C73",
"m. c #AC747A",
"M. c #B8737A",
"N. c #C2737B",
"B. c #6B5B83",
"V. c #716991",
"C. c #845C83",
"Z. c #88688A",
"A. c #9B6C89",
"S. c #987799",
"D. c #8C6D96",
"F. c #AD7A84",
"G. c #BB7B84",
"H. c #B77B85",
"J. c #B27191",
"K. c #A27CA3",
"L. c #C37A85",
"P. c #C67B97",
"I. c #B8838B",
"U. c #AE8995",
"Y. c #B88A95",
"T. c #B5929C",
"R. c #AD8994",
"E. c #AA98A5",
"W. c #B699A5",
"Q. c #B18AAC",
"!. c #B7A2AD",
"~. c #B8A8B7",
"^. c #B0A7B5",
"/. c #9986A5",
"(. c #C68896",
"). c #CA8A96",
"_. c #C996A6",
"`. c #D898AA",
"'. c #D79BB6",
"]. c #CA8EAE",
"[. c #E99BB4",
"{. c #E99BB2",
"}. c #C6A8B7",
"|. c #D9A6BA",
" X c #CAA8B4",
".X c #EBA3BB",
"XX c #E7A6BA",
"oX c #F4A7BB",
"OX c #BAB8C8",
"+X c #B3B3CD",
"@X c #B39EC5",
"#X c #D6ABC4",
"$X c #C5B7C9",
"%X c #D7B6CA",
"&X c #CBBED6",
"*X c #D9BCD3",
"=X c #C8ADC1",
"-X c #E8ABC3",
";X c #F3ACC4",
":X c #FDADC4",
">X c #F6AAC6",
",X c #ECB3CB",
"<X c #E7B5CA",
"1X c #FDB3CB",
"2X c #F7B5CA",
"3X c #E5BCD4",
"4X c #E9BBD5",
"5X c #F8BCD4",
"6X c #BCC3D4",
"7X c #BCCBDC",
"8X c #BCC6DA",
"9X c #BBC1CF",
"0X c #BCCDE2",
"qX c #BDD2E4",
"wX c #BDD7EA",
"eX c #C2C3D5",
"rX c #C3CADD",
"tX c #CAC6DA",
"yX c #D6C5D9",
"uX c #CDD2DE",
"iX c #E4C4DB",
"pX c #E7C4D9",
"aX c #F8C4DA",
"sX c #F0C0CE",
"dX c #C4CDE2",
"fX c #CBCCE4",
"gX c #D6CDE2",
"hX c #C4D2E4",
"jX c #CBD2E5",
"kX c #C4D5EA",
"lX c #CCD6EA",
"zX c #CBDBED",
"xX c #C6D9EB",
"cX c #D4D3E5",
"vX c #D3D5E9",
"bX c #D3DBED",
"nX c #DBD7EB",
"mX c #CDDDF2",
"MX c #C5DAF1",
"NX c #D4DEF3",
"BX c #D9D9F3",
"VX c #D8CCF0",
"CX c #E8CCE3",
"ZX c #E4D5EA",
"AX c #E3DBF4",
"SX c #F6CCE4",
"DX c #CCE2F5",
"FX c #D3E2F4",
"GX c #D4E5FA",
"HX c #D8E4F8",
"JX c #CDE1EF",
"KX c #E3E4FD",
/* pixels */
"6 7 p N H G -.S *.-.b e A D A e 4.;.7.,.:.&.b @.v x Y n z z d f K L D l 5.F l l x D T T W Y 1.=.@.7.:.&.#.%.S *.*.-.-.e B 0 0 0 c l s 6 6 u u 6 f V l p 6 6 9 V ",
"i 7 9 9 B A S %.S %.-.*.F -.F v S ;.@.9.2.*.=.m m A n x c z d d z V U C Y Y U x s c x T D D m m 2.7.&.=.;.*.b *.-.4.;.e q l B l v F x p i 6 6 6 6 9 C x 9 6 p k ",
"9 p p 0 D -.*.&.:.,.4.S e F G S b +.=.7.=.=.#.@.m F v c 8 p d K V p K L P L P d s p p d L T D Y =.,.8.:.@.*.@.4.%.-.%.A e A A e m 3.F D C a 6 7 9 k k N p p l w ",
"i p p 0 A 4.4.7.:.,.2.+.%.*.*.%.@.4.#.&.2.*.1.@.@.*.m l n C V V V a V C C a p p a K z k T D F m =.:.w.7.b b @.*.r S -.-.G S b r =.=.4.F H Z 7 9 V N k k 0 B c w ",
"6 9 k A *.4.;.=.,.7.0.:.,.,.b b S ;.1.3.F b =.=.7.2.-.A b A x C C C R D Z B H F G G 1.i.*.4.9.:.w.0.0.:.:.:.:.+.%.G 3.R H D 4.0.0.>.:.+.1.F 8 0 k v v q 0 q e v ",
"9 p l G 4.4.4.9.9.:.0.0.9.,.;.*.S b *.S e S =.0.0.0.;.A b v l A D R Y Y 3.3.-.p.p.=.4.9.;.=.9.=.,.w.r.e.a.w.8.,.+.1.4.5.T Y 2.8.>.<.:.:.+.F S q q F ;.-.%.e w q ",
"k k A R 4.;.;.,.9.9.0.9.:.:.;.;.F e e S S &.p.>.0.9.%.S -.*.*.b m m +.#.9.,.=.0.0.8.0.0.9.=.*.%.&.0.t.y.0.8.,.,.:.w.q.1.U Y F 2.9.:.8.8.@.+.=.+.+.&.,.=.=.+.e q ",
"H U A F *.*.;.=.&.9.9.,.9.9.,.9.F M *.-.%.p.,.0.0.w.S %.4.#.9.2.%.2.7.8.0.r.p.8.8.r.r.0.&.*.*.*.&.0.y.t.<.,.p.<.w.q.6.1.R T Y 4.0.w.0.8.#.+.#.0.a.8.8.8.0.:.+.e ",
"1.F A b S *.;.=.&.&.p.,.,.9.,.p.9.4.p.4.&.,.p.,.2.9.-.*.;.%.9.=.7.7.w.r.r.$.y.>.s.s.y.p.=.@.1.q.p.0.e.<.r.a.p.,.;.4.R R W W F 3.6.p.j.7.q.#.O.&.<.<.$.>.e.>.:.&.",
"1.S %.*.r %.;.9.=.;.;.p.;.,.,.<.,.4.9.9.:.=.%.b *.4.*.Y m 2.&.#.:.w.q.0.f.2.6.j.6.6.f.g.d.U Y f.0.<.p.<.a.a.p.%.G R T C T W o.i.1.6.7.#.7.=.<.:.$.$.e.e.e.>.:.=.",
"2.#.@.b S %.%.,.9.=.%.%.;.p.a.:.&.p.,.;.,.9.-.D F W n D 1.3.*.+.8.8.6.g.Q t = < < = 1 1 1 u } g.3.4.<.p.,.&.A v H E L C C H i.i.D m 1.*.+.+.7.0.$.$.e.>.e.8.;.r ",
"7.2.&.A %.%.%.*.*.4.4.S %.,.0.&.&.p.,.=.;.-.S l B T k C D T Y Y f.j.5 - = < < < < 3 < < * & $ $ s W i.i.p.i.F T l L x C B G 3.5.U n m @.#.@.=.>.e.<.e.$.7.$.&.S ",
"6.2.4.2.;.*.S F S -.4.S b =.;.=.;.p.p.;.3.v n U B c T L V z K I _ 1 = y l.P.'.`.].`.`.{.G.} 1 $ & * { { 1.4.4.p.-.S S e G G 3.D l v *.+.b r r #.$.e.$.$.&.&.r A ",
"*.m *.4.;.*.F G A l F b b ;.*.S &.+.S *.G R 3.3.R H C C V d _ 4 < 2 A.,X-X>X>X.XoXoX1X1X.X-X-X].' O $ 5 Q Q 4.p.p.i.-.S %.S m m F m @.b M b r b O.>.$.O.r r e 9 ",
"*.D F F v A v l B l A v v b A b M +.2.2.@.1.6.2.4.Y B V K | 4 1 } -X-X-X,XaX,X,X>X5X5X5X1X-X.X>X-XP.= & = _ 5.2.&.*.&.i.S S S *.@.+.+.m M M M M r :.$.O.w w 8 8 ",
"D F Y m v v l l l q l l l A 3.-.@.@.2.2.@.6.7.2.;.G D P | X 3 ..aX%X<X3X4X4X4X4X,XaX5XaX5X;X1X1X[.>X-X..* * J 5.;.&.&.&.i.*.,.w.#.+.O.#.#.M e r M ;.#.r w 0 0 9 ",
"C H A D Y n c w D v c 0 q m Y v M +.*.2.2.2.2.7.1.Y Q { & O A.%XiXpXCXiXCXyXCXCX*X*X3X3X4X<X5X5X1XoX{.[.].= = _ 1.&.2.q.9.&.w.0.9.+.#.>.:.r r r r ;.b r e 0 9 6 ",
"U D Y Y Y m l c F D k 0 l v m m M 4.F m Y @.#.2.5.Q J &   /.3X%X*XZXyXZXZXyXyXyXyXyX$X*X3X3X4X<X5XoX[.>X>X].* * E S 2.q.7.:.:.r.:.$.>.>.$.O.+.&.&.*.+.M A q 0 9 ",
"2.1.1.Y 1.*.F w l C l c M n m Y *.@.M M l M 2.2.Y J * & X.*XiXiXtXtXcXnXnXnXrXcXcXnXgXyX&X*XCXaXaX1X:X1X:X[.J.$ $ E G %.:.=.,.0.0.:.8.e.$.$.>.:.:.2.+.%.A q 0 9 ",
"7.9.4.1.1.3.F c k B l c c M l m M n l n F m *.@.Q t X ! %X*XyXtXnXvXNXbXjXkXjX7XjXvXnXyXtXyXCXpX5X,X2X:XoX:X1Xl.# = U F -.,.p.,.0.0.>.e.e.e.>.$.=.&.+.*.S q q 8 ",
"q.q.9.*.F F H H x C c l l c n Y Y n v B *.S r T _ . < CXiXyXyXBXbXvXjXjXhXlXmXGXzXNXKXcXtXgXgXZX3X5X4XXX{.oX1X-X< X g U -.;.p.9.,.r.e.r.e.r.>.:.=.b A -.S A A q ",
",.:.2.4.*.l l D n n v l l w w M n M l M v M v E X o #XiXyXZXnXvXNXlXlXqXHXDXGXGXzXlXNXlXcXBXAXCX*X*X5X-X{.:X1XoX'.X # h H S &.:.8.e.e.r.e.e.>.0.%.r q A A q v q ",
":.=.=.=.b v v 1.m Y Y m b M M l M M v M m v x K O ) 3XpXyXZXnXjXlXNXqXxXGXGXGXDX0X0XxXzXNXnXAXtXyXiXSX,XoXoXoXXX'.y . h C A ,.:.r.0.8.>.r.e.e.8.=.A e A l A A v ",
":.8.q.*.b *.4.1.m m m m @.1.F A l n v m 1.5.` $ * *XiXiXnXnXrXdXkXkXGXMXMXwXwXwX0XGXxXxXNXvXnXcXyXgXCX<XaXoXoX{.'.A.. . U -.p.w.p.r.,.:.r.r.y.y.:.%.b e l H G H ",
"0.0.2.@.1.2.@.b *.2.2.2.*.1.1.F F A v m *.Q _ & y 4XCXgXgXjXjXDX0XqXMXGXwXwXwXwXwXDXwXGXhXBXnXcXtXyXyXpXaXaXoXoX[.].O . L 6.4.9.q.w.0.:.>.r.y.y.0.q.*.D n v B l ",
"y.j.q.%.@.@.+.*.2.7.9.2.;.-.4.3.G v Y m m D = * Q.4XyXAXnXvXjXJXGXmXkXqXMXDXmXDXwXGXDXJXHXlXKXtXuXZXyXpXsX2X1XoX:X[.3 . I 6.3.4.:.8.:.#.:.>.t.y.w.2.4.1.F F A v ",
"9.9.7.2.=.=.7.0.7.8.7.4.4.-.*.F A F Y 3.1.` & < #X<XyXnXAXjXxXDXMXDXmXkXkXkXDXkXmXxXzXHXjXhXhXFXtXAXZX*XsX,XoXoXoX>X..X J 5.3.4.w.y.8.=.=.#.7.2.b m 1.1.G F F D ",
"1.*.*.;.=.7.p.f.r.8.>.q.9.*.*.*.G D Y R T I X ..3X*XcXnXFXHXJX7XkXGXGXMXmXkXNXMXmXFXhXzXFXJXJXFXbXnXgXCXSXaXoX.X:X>Xx.$ t Q 5.0.8.8.@.@.@.%.2.1.1.m Y F m m v F ",
"6.4.&.=.=.8.a.u.y.e.8.0.w.q.4.G *.F F B z = * =XiXyXtXbXjXbXFXGXFXxXxXkXVXNXNXmXDXFXhXzXJXJXFXbXNXnXgXiX3XSX5X1X.X[.].% $ ` q.p.8.#.m m @.%.*.1.1.F F A m *.Y -.",
"6.p.q.q.0.r.t.t.y.r.y.y.0.q.3.*.1.1.F D { * * %XiXZXgXrXlXhXbXFXxXqXkXkX0XmXGXmXqXxXHXkXxXzXhXdXbXfXyXyXCXSXaX-XoX1X'.* $ g.q.y.8.@.@.m b m @.*.Y F F Y *.1.*.F ",
"=.w.j.y.w.0.t.t.r.y.j.w.#.*.1.1.@.1.6.W ` # < 4XiXcXcXuXtXfXdXqXxXGXMXwXwXwXDXDXFXFXxXJXBXnXnXcXjXrXrXyXCX#X,X-X[.>X|.* $ d.y.y.8.+.S *.m +.=.2.1.S 3.3.4.4.1.S ",
"=.0.0.y.>.<.r.>.:.8.0.7.b m *.S m 4.7.6._ # j CXyXAXAX$XtXtXNXzXmXDXxXqXwXwXDXDXGXzXxXlXAX~.&XAXFXhXNXyXCX3X,X>X>X:X'.* $ ` 0.t.8.@.b *.*.m *.*.1.1.1.4.*.2.4.-.",
"@.7.q.7.8.e.r.8.:.2.2.*.%.-.&.O.*.2.8.2.J # } pXVXBXVX) ) &XlXxXzXJXzXqXwXGXwXqXzXFXJXdX!.^ ~ VXNXDXHXBXiX3X,X5X:X{.'.$ $ d.q.8.w.&.+.S S v l F *.;.;.2.2.1.3.*.",
"@.2.7.7.:.,.,.<.=.#.=.2.*.p.p.&.=.>.r.j.y * A.4XtXVXK.^ ^ @XvXqXzXkXkXmXqXGXGXxXxXFXDXHXD.! ~ +XNXGXFXcXyX*X4X5X2XoX-Xt $ d.f.8.:.#.&.b A l l D -.9.=.;.*.*.3.*.",
"*.2.=.@.S *.=.=.=.=.:.7.=.:.a.0.e.e.u.j.t . Q.SXAXnXQ.! ] VXBXmXjXqXJX0XkXmXDXqXkXJXhXzX&X) ! @XBXFX0XFXnXyX3X5XoX;X;X_ $ d.f.$.+.b b v l l V Y 4.4.2.2.-.3.3.G ",
"@.@.@.@.v S *.9.#.#.:.8.:.$.e.t.t.t.u.q.1 o |.4XCXZXiX) ^ AXlXxXkXqXxXDXkXNXmXwXqX7X7XJXAX! ! VXAXyXuXcXyX*X3X4X;X5XXXH.$ d.f.$.@.v v l C C x R 1.;.4.3.F A D G ",
"m e b m m v b &.&.<.:.>.<.$.t.t.t.t.t.p.* O #X<X-X,X;XsXAXbXFXxXNXMXmXkXVXfXVXmXhX0XkXjXVXAXVXiX,X-X|.aXiXCX5X5X.XoX[.{.$ g 6.=.1.m l C Z V k B A D 3.3.H A B Z ",
"l 0 M m m M v +.0.0.r.0.<.$.t.u.t.e.e.p.X O |.2XoX;X>X4XgX7XjXzXNXMX~ ~ / ^ ~ dXNXhXrXhXlXgXZX*X4X[.|.|.SXCXSX5X[.{.:X.X$ 5 W #.Y A l D H N l B A M S F A C k 0 ",
"B 0 0 c v S =.9.,.:.r.y.<.<.u.u.u.t.>.6.  o %X,X4X-X|.#XuXuXNXGXGXmXBX~ ~ ! 8XmXxXhX0XzXNXrXgXCX3X|.#X#XZXCXpXaX1X1X1X>XO * T 1.m D A v q v F 4.4.3.;.D l k z p ",
"l 0 l e b 4.0.>.O.:.<.<.<.e.t.e.e.t.:.1.& > |.SXSXpXpXgXcXbXFXNXmXmXBX0X8X8XMXmXFX7XhXFXlXzXrXcXgXCX&XZXnX*X%X<X1X1X:X'.: . E v F Y G v v @.p.i.9.9.4.F l z p p ",
"F S -.4.-.=.0.<.O.<.&.O.<.p.<.<.:.&.O.D * 2 pXsXSXCXyXcXFXjXkX0X0XkXBXlXjXdXmXmXMXlXlXbX7XNXNXbXbXFXjXbXgXyX|.<X>X1X1X;XO . W *.2.3.4.+.&.9.4.0.4.4.4.D B k p i ",
"v F *.r r &.:.:.p.:.&.O.&.O.&.p.,.+.%.H < j sXsX*X&XfXzXdXhXNXmX0XfXkXNXvXFXNXNXlXkXGXNXhX7XNXnXzXqXqX8XuXyXCXXX1X1X1X,X2 X ` 1.;.q.2.&.=.9.9.9.4.*.F m l k k a ",
"c A *.%.r %.9.9.p.p.&.:.&.r p.,.&.m b Q $ j |.<X*X&XnXvXNXbXdX8XrXhXFXHXFXnXlXzXlXxXMXkX7XNXNXNXjXFXrXrXeXyXpX<X-X1X1X2XU.# 5 Q ;.9.3.4.4.9.4.0.2.2.6.3.F b F 1.",
"c l *.-.r %.,.&.O.%.&.=.%.&.p.,.6.Y Q t # ..2X4XSX*X&X&XvXbXbXhXhX7XmX7XlXrXrXkXhXdXhXlXxXxXlXdXkXjXlXeXtXyX*X-X-X;XXX1X#X# $ g.g.Y D Y 3.%.*.2.4.2.@.@.q.q.q.6.",
"0 l A e %.,.=.%.r r &.+.+.4.3.5.{ | )   % ].5X5XaX%X&XeXcXvXuXjXhX7X0X7XhXrXuXxXrX8XdXlXkX8XlXrXrXdXtXfXuX$X*XaX5X;XXX;X;X} O < { I I W Y m b b 2.2.m m @.4.4.1.",
"w q q e %.;.;.&.%.A %.+.@.6.U 5 % X . O F.-X>X5X<XpXyX$X&XcXhXJXFXFXxXJXzXFX7XuXrXjXlXdX7XqXlXlXdXrX&XfXyXyX%X4XaXsXoXXXXX'.3 O   % % 5 Q F S S *.2.m b *.9.i.1.",
"v v A A F S =.,.;.;.=.7.4.5.K   . O X.'.'.[.-X-X|.iXyXyXeXeXuXqXFX0XhXzXzXbXvXeXrXjXlXbXMXhXdXlXbXjX8XfXuXyXpX<XoX2X.XXXXXXX|.W.) y # % Q Y F A *.+.F F m 6.5.Y ",
"v w e A A S *.*.%.*.;.;.2.Q u < > o > & * ].,X5X5X3XSXiXgXeX9X7XhXjXrXdXbX7XrXrXtX&XdX8XdXlXdX6X8XdXjXrXcXyXyX#X-XoX.XXX<X|.-X4XyX%XZ.& J m S b S b A S m 1.F n ",
"k c c q q l v M b *.=.;.1.` O o ; ; > ; > O 1 ,X,X-X4X*XyXtXtXuXrX7X6X7XdX6XlXnXrXeX6X8XzXvXrXrXhX7XjXeX9XcXpXpX,XXX.X2XXX%XsXyXyX*Xj & Q G F A S F F -.*.*.1.F ",
"c c 0 q 0 l l l v 1.-.R `   > , ~ B... . .> > < #X[.4X4XyXtXtXuX8XrX6X8XrXrXjXrXtXjX+X6XrXjX6X9XrXjXrXrX9XeXpXsX,XXX2X2X<X3XpXpXiX*X< & 5.*.b 3.G 1.m *.2.1.1.Y ",
"s 9 N q l q l q v m C E X ; ] B.( V.B... .V., > < <X4X#X%X%X&XcXtXrXjXcXrXrXrXtXOXeXuX9X9X9X9X9X6XrXjXeXOX$XyXpXXXXXXXXX|.sXXXpX4XF.t t Q m 1.*.*.m +.=.*.1.2.*.",
"p k B B c q k c q m x = o ! ~ / , ; ; > , (  .; < <X#X|.3X*X&X$XeX$XuX6X6XtXrXeXOXOXrX9X9X^.OXeX9XrX7X^.~.eX%X#X XXX.X;XXX|.XXXXJ.t 5 ` Y F 2.@.*.;.;.*.2.2.=.9.",
"p s c c c l l v v Y L & + B.; ; o o o ^ ; ~ B.( o S.|.|.sX|.$XtXOX$X6XOXOX9XrXeX&XOXOXOXeXeX~.tXOXOXOX9XOX$XyX|.|.`.{.{.XXXXXX).s = s E n F 2.4.*.4.4.;.2.4.:.7.",
"p z z z x z z l M U ` & : / + + | - . o ; ; ( B.@ 3 |.XX|. X|.$X&XtXOX9X9XeXOX~.+XOX~.~. XeX~.$XOX^.OXeXOX}.}.%X|.oX`.{.XX{.`.K 5 5 I U l R *.2.*.*.2.=.7.0.9.9.",
"k V V d a p p k n J _   ) 2 O | E W = . ; ; / V.; O XX`. X XyXyX$X$XOX^.9XOXOX^.^.OX~.~.~.~.~.}.=X~.~.OX~.!.}. XXX'.{.).)._.m.s 7 z V V p L F *.*.4.=.:.0.0.2.i.",
"x V V a i 7 i k C U _ + ..2 & I 5.1.{ t : ; ~  .; > XXXX|.|.|. X$XOX~.OX~.OX~.^.!.~.=X!. X!.~. X$X~.OX~.^.!.!.}.`.`.`.).`.P.h s { C p 9 d d D Y *.6.p.p.w.7.b *.",
"F G N N p p V V x L h + ~ ! . I Q 4.6.d.} X , / > > |.{.`.|. X_.~.}.~.~.~.~.~.E.!.!.!.!. X X!. X}.^.^.E.E.E.!.E. X).).).L.`.5.c Q Y x z V V F m 1.4.1.4.9.2.1.*.",
"1.-.H Z B V K z C K 1 +  .! O ) E T 6.g.} & ,  ., O  X`.`.`._. X}.}.!.!.!.E.~.E.W.!.W.!.!.W.W.T.^.E.E.^.~.!.E.T.(._.(.(.P.).` s 5.Y 1.l l U F 1.5.Y *.1.*.2.q.4.",
"*.S G R T T P V a h + ;  ./ + 3 | | g.[ * : ^ ) ~ > A._._.`. X X X!.W.E.T.W.T.U.T.R.T.T.T.T.T.Y.W.T.T.T.E.!.!.T.T.I.(.(.P.G.h.J x 1.5.v D Q 1.5.3.Y G Y Y 1.4.4.",
"F *.-.3.U Z L L P h + ; (  .> O O X * < O < C.Q...> u Y._.).'.W.W.T._.T.T.T.R.Y.Y.Y.Y.I.I.R._.T.T.T.T.R.W.!.U.R.I.I.I.G.G.H.m.J c T Y F Y 5.Q Y 5.5.W R W Y 1.-.",
"*.*.3.T U L L U L _ * > /.K.S...! 2 y l.P.C..XP.S.: < ' T.)._.T.R.R.T.R.R.Y.Y.I.I.I.).I.I.I.I.I.I.Y.I.R.W._.Y.Y.F.H.F.H.n.m.H.h.s s 6.1.Y Y Q U H R W H T Y Y G ",
"*.G Y U U U U R T ` < > X.Q.Q.B.C.D.P.J.P.J.P.P.K.< 3 2 I.).(.).(._.).(.Y.I.(.G.M.G.I.I.I.I.F.I.F.I.I.Y.(.Y.Y.(.(.I.M.M.m.n.J.n.g s Q 1.5.Y R A B H U T Q R 5.R ",
"m v v C Z U F ;.7.d.1 > ] D.B...' D.].J.J.l.J.J...O _ t g F.(.I.(.(.I.M.G.(.L.G.L.G.M.M.m.m.m.F.F.I.I.F.I.I.G.L.L.M.M.M.m.M.n.n.g.J c R 5.5.U l l k V L W 3.3.3.",
"F F D G T R 9.0.r.q.g : ..B.D.Z.D.].P.'.[.J.J.].) . { W i o.I.M.(.I.(.M.(.(.L.N.L.L.G.m.M.m.m.m.b.m.F.I.I.H.G.L.M.M.M.M.M.v.N.M.H.x J Y W Y H l l z p V R R Y R ",
"3.*.r i.p.p.,.r.y.g.d.& , B.S.] C.#XD.D.].K.A.'.! * d.3.E I { m.H.I.G.(.L.M.N.N.M.n.N.N.v.b.c.z.b.z.m.F.I.I.M.N.L.N.N.N.v.v.v.N.v.v.n J Q Q Q x V p i p C A G G ",
"*.*.p.p.<.<.r.0.0.p.g.$ : ~ ] ..D.[ [ C.D.' [ S.> O W *.Q ` } h.F.m.G.N.N.n.n.v.v.v.v.n.n.v.c.z.z.z.m.F.b.m.L.L.v.n.v.n.v.n.N.N.v.v.c.Q c Q E U V f f p p l R R ",
"*.9.9.p.0.7.,.7.:.4.g.$ >  . .] D...K.J.].'.Z.D.> X 5.;.R ` J h.k.b.G.n.N.v.v.v.c.c.R g.` h.c.k.z.z.z.z.z.b.b.c.v.v.v.c.v.n.c.v.v.n.v.k.E a L K a p f p l D 3.1.",
"=.2.,.:.0.0.@.=.9.6.` h . > /. . .B.Q.C.} A.Z...o * ` -.A U _ J { l.n.M.n.v.v.v.g.k s k J L T k.z.k.k.z.z.z.z.z.k.c.k.h.h.j.h.c.n.n.v.v.{ a J z a p p N x D 3.Y ",
"2.9.&.,.0.=.*.*.%.R U h + + ] ..] D.D. .B....., : _ L T L C E E J d.g.h.h.h.g.E 8 8 Z T D l x Q k.k.z.k.z.b.z.k.{ { K z z U W ` g.g.{ g.U I L z a N p p 0 B Y F ",
"@.%.&.,.p.;.m -.F D L I h . + + ~ ]  .] B.D.> > X _ I P V C c L ` Q J E K z z 8 8 k B W n Y T x K E g.k.k.k.} d s s a I Q U T T J K T L E U T z k B N q k Z Y F ",
"1.1.A *.4.S b *.4.W P P _ h & + > ; ; ; < o O O h K I s a k c z U Q Y W x x B 7 8 B l l U v Y 5.L z V P P d f 6 a a L x x J V x J U W W U o.n H B k N B A H F A ",
"F v q A A D m 4.3.U Z P I h h ) ) < < O * 1 g g a K z d p p z 8 n n Y F D H C C c c k l k D D T U J d p 7 6 u f a c Q Y Q x z V V U W T G Y l D H q q Y G A l B ",
"0 l k k B H F 3.F H l V V h h f h g g u u g g z V z 7 p 7 9 7 0 D F Y D B B H H l x k z k k V k k L C l p z d i p k T 5.Y T x C H C L Z H B B F A v A R D k p f ",
"B p p N C B l D H T V a 9 i f u V K a p i z V Z l 9 7 p 7 7 7 l m v n C l 0 k x k C k p 9 p d 6 7 V x U D U L a 8 c n 1.Y U U k l z a N B k B D A B x C Z N d f ",
"B k p N N k 0 k C Z V i i u f p p N B N 8 a z k k N N N k p w l n U C V a p a p V D l c k p z p p Z T D Y U T U Z x T W U F D k U N p f d N V V a a a a f f f f ",
"N 9 N d N l k B k B z p u f p p 9 B D D k N l k 9 9 N 9 p c l n n Y C V d f a 7 L U U L V p s p p B T Y U v H Y x c x n x D C H C k d d f V V d f f i i f f u u ",
"9 9 9 k D C B T k l N p N a B l B B D F Z H H C B k a J z c n D D n z p u f f 6 i s a J P f f f i N C D T n A V c C k n D C U L K p d d a L L L V i u 6 u f u f ",
"d p p N x D k p 9 N 0 0 9 N D D A H D D B B A H B 0 8 c s c v v n V a i u 6 u u u s g K P P K K p V x k n T T x p k k V x C C z a i i f i K P P d u 6 4 u u u u ",
"a d k 0 x C p 7 6 9 9 9 9 B Y D D C H Z k N n L D l 8 s 7 c l A N N d P f u u i i i h P P P C z d V k k x x l k N a V V K L K d i u i d K P K K d u u 6 4 4 u f ",
"i p 9 N l z 7 6 6 6 9 9 k N H B D C x N k z x l n l 8 7 s L D A Z P Z d f f f f i i d K d K C z p V k z x L k z V V p V L V K K K f d d d P f K K 6 6 u 6 6 6 u "
};
