/* XPM */
static char *d20ba929ef7d40c3b03dcf7426f83df8ahdbdlDT4AVXNY3U[] = {
/* columns rows colors chars-per-pixel */
"80 80 132 2 ",
"   c #020202",
".  c #0B0B0B",
"X  c #131313",
"o  c #1B1B1B",
"O  c #232323",
"+  c #2B2B2B",
"@  c #343434",
"#  c #3B3B3B",
"$  c #434343",
"%  c #4B4B4B",
"&  c #535353",
"*  c #5B5B5B",
"=  c #646464",
"-  c #6B6B6B",
";  c #747474",
":  c #7B7B7B",
">  c #838383",
",  c #8C8C8C",
"<  c #949494",
"1  c #9B9B9B",
"2  c #A3A3A3",
"3  c #ACACAC",
"4  c #B4B4B4",
"5  c #BCBCBC",
"6  c gray76",
"7  c #C0C0C0",
"8  c gray77",
"9  c #C5C5C5",
"0  c #C6C6C6",
"q  c gray78",
"w  c #C4C4C4",
"e  c #C8C8C8",
"r  c gray79",
"t  c #CACACA",
"y  c #CBCBCB",
"u  c gray80",
"i  c #CDCDCD",
"p  c #CECECE",
"a  c gray81",
"s  c #CDCDCD",
"d  c #D0D0D0",
"f  c gray82",
"g  c LightGray",
"h  c gray83",
"j  c gray84",
"k  c #D7D7D7",
"l  c #D4D4D4",
"z  c #D8D8D8",
"x  c gray85",
"c  c #DADADA",
"v  c gray86",
"b  c gainsboro",
"n  c #DDDDDD",
"m  c gray87",
"M  c #DFDFDF",
"N  c #DCDCDC",
"B  c gray88",
"V  c #E1E1E1",
"C  c #E2E2E2",
"Z  c gray89",
"A  c #E4E4E4",
"S  c #E6E6E6",
"D  c #E7E7E7",
"F  c #E4E4E4",
"G  c gray91",
"H  c #E9E9E9",
"J  c #EAEAEA",
"K  c gray92",
"L  c #EBECEF",
"P  c #ECECEC",
"I  c gray93",
"U  c #EEEEEE",
"Y  c #EFEFEF",
"T  c #ECECEC",
"R  c #F1F3EB",
"E  c #F0F4EB",
"W  c #F3F5EF",
"Q  c #EDEEF2",
"!  c gray94",
"~  c #F1F1F1",
"^  c gray95",
"/  c #F3F3F3",
"(  c #F3F5F4",
")  c #F4F4F4",
"_  c gray96",
"`  c #F5F7F6",
"'  c #F5F6F7",
"]  c #F6F6F6",
"[  c gray97",
"{  c #F4F4F4",
"}  c #F6F8F1",
"|  c #F7F9F4",
" . c #F8F9F5",
".. c #F9FBF7",
"X. c #FAFBF7",
"o. c #FCFCF7",
"O. c #F6F6F8",
"+. c #F8F8F8",
"@. c #F9F9F9",
"#. c #FBFBF8",
"$. c gray98",
"%. c #FBFBFB",
"&. c #FCFBF8",
"*. c #FAFCF8",
"=. c #FBFCF8",
"-. c #FBFCFB",
";. c #FCFDF9",
":. c #FCFDFA",
">. c #FCFCFB",
",. c #FDFEFA",
"<. c #FDFFFA",
"1. c #FFFFFB",
"2. c gray99",
"3. c #FDFDFC",
"4. c #FCFCFD",
"5. c #FDFDFD",
"6. c #FDFEFC",
"7. c #FDFEFD",
"8. c #FEFEFC",
"9. c #FEFFFC",
"0. c #FFFFFC",
"q. c #FEFEFD",
"w. c #FFFFFD",
"e. c #FDFDFE",
"r. c #FCFDFF",
"t. c #FDFEFF",
"y. c #FEFEFE",
"u. c #FFFFFE",
"i. c #FEFEFF",
"p. c #FEFFFF",
"a. c white",
"s. c #FEFEFE",
/* pixels */
"2.2.2.2.2.2.2.2.2.2.2.2.2.2.2.2.2.2.2.2.2.2.2.2.2.2.2.2.2.2.2.2.2.2.2.2.2.2.2.2.2.2.2.2.2.2.2.2.2.2.2.2.2.2.2.2.2.2.2.2.2.2.2.2.2.2.2.2.2.2.2.2.2.2.2.2.2.2.2.2.",
"2.2.2.2.2.2.2.2.2.2.2.2.2.2.2.2.2.2.2.2.2.2.2.2.2.2.2.2.2.2.2.2.2.2.2.2.2.2.2.2.2.2.2.2.2.2.2.2.2.2.2.2.2.2.2.2.2.2.2.2.2.2.2.2.2.2.2.2.2.2.2.2.2.2.2.2.2.2.2.2.",
"2.2.2.2.2.2.2.2.2.2.2.2.2.2.2.2.2.2.$.$.2.[ I 2.2.$.2.2.2.2.2.2.2.2.2.2.2.2.2.2.2.2.2.2.2.2.2.2.2.2.2.2.2.2.2.2.2.2.2.2.2.2.2.2.2.2.2.2.2.2.2.2.2.2.2.2.2.2.2.2.",
"2.2.2.2.2.2.2.2.2.2.2.2.2.2.2.2.2.2.2.2.$./ $.2.2.2./ C j z z D [ 2.2.2.2.2.2.2.2.2.2.2.2.2.2.2.2.2.2.2.2.2.2.2.2.2.2.2.2.2.2.2.2.2.2.2.2.2.2.2.2.2.2.2.2.2.2.2.",
"2.2.2.2.2.2.2.2.$.$.2.2.2.2.$.$.2.2.2.[ K $.2.[ [ [ 3 * # # # - 4 / 2.2.2.2.2.2.2.2.2.2.2.2.2.2.2.2.2.2.2.2.2.2.2.2.2.2.2.2.2.2.2.2.2.2.2.2.2.2.2.2.2.2.2.2.2.2.",
"2.2.$.$.2.2.2.2.$.2.2.2.2.2.$.$.2.2.2.$.I [ 2.$.j , % X       o & < j 2.2.2.2.2.2.$.$.$.2.2.2.2.2.2.2.2.2.2.2.2.2.2.2.2.2.2.2.2.2.2.2.2.2.2.2.2.2.2.2.2.2.2.2.2.",
"2.2.[ / [ 2.2.$.2.$.2.2.2.$.2.2.2.2.$.$.$.I 2.$.2 X       X       O > a 2.2.2.2.2.[ I 2.2.$.[ $.2.2.2.2.2.2.2.2.2.2.=.=.2.2.2.2.2.2.2.2.2.2.2.2.2.2.2.2.2.2.2.2.",
"2.2.$./ [ $.[ / $.2.2.2.2.2.2.[ I $.[ $.2.$.2.4 $             .     + : K 2.2.2.2.$.2.2./ n n I 2.2.2.2.2.2.2.2.2.2.=.=.2.2.2.2.2.2.2.2.2.2.2.2.2.2.2.2.2.2.2.2.",
"2.2.$.[ [ 2.$./ $.$.2.2.2.2.$.[ / [ / [ 2.$.$.> .   $ $ O O O o .     + t 2.2.2.2.2.[ 7 < : ; , z 2.2.2.2.2.2.2.2.2.1. .2.2.2.2.%.O.2.2.2.2.2.2.2.2.2.2.2.2.2.2.",
"2.2.$.[ $.2.2.2.[ [ 2.2.2.2.[ $.$./ / $.$./ n =   o 2 1 = & ; + . X     ; 2.2.2.2.2.j - o . o + 5 2.2.2.2.2.2.2.2.2.1.1.R } 1.2.%.Q 2.2.2.2.2.2.2.2.2.2.2.2.2.2.",
"2.2.2.$.$.2.2.2.[ $.2.2.2.2.$.2.2.2.2.[ / I 2 #   o 8 4 : < 8 %   . X   % / 2.2.2.I 2 @   O : 2 K 2.2.2.2.2.2.2.2.2.2.1.E } 1.=.( Q 2.2.2.2.2.2.2.2.2.2.2.2.2.2.",
"2.2.2.2.2.2.2.[ [ 2.$.[ 2.2.[ C a 8 C / [ I - o   + z 4 : 3 / -   . .   # 2 $.2.2.n > o   % f 2.2.2.2.2.2.2.2.2.2.2.2.2.| =.2.1.| $.2.2.2.2.2.2.2.2.2.2.2.2.2.2.",
"2.2.2.2.2.2.2.I $.$.I / 2./ a 1 ; = 1 z 2.K $   . % a 1 * < K > o       o - / 2.2.j - X   & D $.2.2.2.2.2.2.2.2.2.2.2.2.2.2.2.2.2.2.2.2.2.2.2.2.2.2.2.2.2.2.2.2.",
"2.2.2.2.2.2.2.$.$./ / $./ 4 = @ O o @ < 2.n #     O ; $ o % n > o         & / 2.2.j = X   $ 3 / 2.2.2.2.2.2.2.2.2.2.2.2.2.2.2.2.2.2.2.2.2.2.2.2.2.2.2.2.2.2.2.2.",
"2.2.2.2.2.2.2.2.$./ $.2.I 1 $ o o     - 2.a @       @ % % & < & X         # z 2.2.f * X   + > I 2.2.2.2.2.2.2.2.2.2.2.2.2.2.2.2.2.2.2.2.2.2.2.2.2.2.2.2.2.2.2.2.",
"2.2.2.2.2.2.2.2.$.[ $.2.[ 8 > = & .   - I 4 @     . $ 4 n 3 @ .       .   @ 7 [ 2.a & .   O : I 2.2.2.2.2.2.2.2.2.2.2.2.2.2.2.2.2.2.2.2.2.2.2.2.2.2.2.2.2.2.2.2.",
"2.2.2.2.2.2.2.2.2.2.2.[ $.K j t 3 $   * 8 , O     X < K 2.n * X   .       + 1 K 2.a * .   o ; I 2.2.2.2.2.2.2.2.2.2.2.2.2.2.2.2.2.2.2.2.2.2.2.2.2.2.2.2.2.2.2.2.",
"2.2.2.2.2.2.2.2.2.2.2.$.2.2.2.2.D * X + : - o     + f 2.2./ 2 @   X   .   o : C 2.t * .   o - K 2.2.2.2.2.2.2.2.2.2.2.2.2.2.2.2.2.2.2.2.2.2.2.2.2.2.2.2.2.2.2.2.",
"2.2.2.2.2.2.2.2.2.2.2.2.2.2.2.2.n # .   + % o   . % z 2.$.I t $       o . X * j 2.7 # .   o * D 2.2.2.2.2.2.2.2.2.2.2.2.2.2.2.2.2.2.2.2.2.2.2.2.2.2.2.2.2.2.2.2.",
"2.2.2.2.2.2.2.2.2.2.2.2.2.2.2.2.j +     . O .   o - C 2.2.[ n %       . .   + a 2.4 o   . O ; K 2.2.2.2.2.2.2.2.2.2.2.2.2.2.2.2.2.2.2.2.2.2.$.2.2.2.2.2.2.2.2.2.",
"2.2.2.2.2.2.2.2.2.2.2.2.$.2.2.2.j +         .   + < D 2.2.$.K &             X 5 / , .     O , I 2.2.2.2.2.2.2.2.2.2.2.2.2.2.2.2.2.2.2.2.2.2.[ $.2.2.2.2.2.2.2.2.",
"2.2.2.2.2.2.2.2.2.2.2.2.2.$.2.2.n & o .     .   # t [ $.[ $.[ &   . o .     X 2 1 #       @ 3 [ 2.2.2.2.2.2.2.2.2.2.2.2.2.2.2.2.2.2.2.2.2.2.$.2.2.2.2.2.2.2.2.2.",
"2.2.2.2.2.2.2.2.2.2.2.2.2.2.2.2.I 2 #   .   .   $ K 2.$.[ 2.$.- .   . . .   X % # .       $ 7 [ 2.2.2.2.2.2.2.2.2.2.2.2.2.2.2.2.2.2.2.2.2.2.2.2.2.[ $.2.2.2.2.2.",
"2.2.2.2.2.2.2.2.2.2.2.2.2.2.2.2.2.[ * . X .     % / 2.$.2.2.2.> o     . . . .         .   & z $.2.2.2.2.2.2.2.2.2.2.2.2.2.2.2.2.2.2.2.2.2.2.2.2.2.[ $.2.2.2.2.2.",
"2.2.2.2.2.2.2.2.2.2.2.2.2.2.2.2.2.$.> O         % I 2.$.$.2.2., +               .         * $.2.2.2.2.2.2.2.2.2.2.2.2.2.2.2.2.2.2.2.2.2.2.2.2.2.2.2.2.2.2.2.2.2.",
"2.2.2.2.2.2.2.2.2.2.2.2.2.2.2.2.2.2.a =         $ / 2.2.2.2.2.1 @         .             . > 2.2.2.2.2.2.2.2.2.2.2.2.2.2.2.2.2.2.2.2.2.2.2.2.2.2.2.2.2.2.2.2.2.2.",
"2.2.2.2.2.2.2.2.2.2.2.2.2.2.2.2.2.2.2.2 o       $ C / I / 2.2.< @     . . o             @ 4 2.2.2.2.2.2.2.2.2.2.2.2.2.2.2.2.2.2.2.2.2.2.2.2.2.2.2.2.2.2.2.2.2.2.",
"2.2.2.2.2.2.2.2.2.2.2.2.2.2.2.2.2.2.2./ < X .   @ 2 4 2 t 2.2.; o     o o     .         : K 2.2.2.2.2.2.2.2.2.2.2.2.2.2.2.2.2.2.2.2.2.2.2.2.2.2.2.2.2.2.2.2.2.2.",
"2.2.2.2.$.$.2.2.2.2.2.2.2.2.2.2.2.$.2.2.a + . . o % & % * : : #   .   . o .   .     . @ 4 2.2.2.2.2.2.2.2.2.2.2.2.2.2.2.2.2.2.2.2.2.2.2.2.2.2.2.2.2.2.2.2.2.2.2.",
"$.2.$.2.2.$.2.2.2.2.2.2.2.2.2.2.2.[ $.2.f $ X                   . .     X o         o : z 2.2.2.2.2.2.2.2.2.2.2.2.2.2.2.2.2.2.2.2.2.2.2.2.2.2.2.2.2.2.2.2.2.2.2.",
"2.[ $.2.2./ [ 2.2.2.2.2.2.2.2.2.2.[ 2.2.z * X                     . .     .       X & t [ $.2.2.2.2.2.2.2.2.2.2.2.2.2.2.2.2.2.2.2.2.2.2.2.2.2.2.2.2.2.2.2.2.2.2.",
"2.$.$.2.2.[ [ 2.2.2.2.2.2.2.2.2.2.2.[ 2.j & X                       X     .       @ 4 / $.$.2.2.2.2.2.2.2.2.2.2.2.2.2.2.2.2.2.2.2.2.2.2.2.2.2.2.2.2.2.2.2.2.2.2.",
"2.$.[ 2.2./ $.2.2.2.2.2.2.2.2.2.2.$./ $.j % .     .                 . . . .       % C $.2.$.2.2.2.2.2.2.2.2.2.2.2.2.2.2.2.2.2.2.2.2.2.2.2.2.2.2.2.2.2.2.2.2.2.2.",
"2.$.$.$.2.$.$.2.2.2.2.2.2.2.2.2.$.I / 2.z = X                         . . . .     @ 2 / 2.$.2.2.2.2.2.2.2.2.2.2.2.2.2.2.2.2.2.2.2.2.2.2.2.2.2.2.2.2.2.2.2.2.2.2.",
"2.2.[ / 2.2.2.2.2.2.2.2.2.2.2.2.$.I [ 2.j * .                                 .   X * C 2.$.2.2.2.2.2.2.2.2.2.2.2.2.2.2.2.2.2.2.2.2.2.2.2.2.2.2.2.2.2.2.2.2.2.2.",
"2.2.[ I $.2.2.2.2.2.2.2.2.2.2.2.2.2.[ 2.a # .       . .   . .                 o .   o 5 2.2.[ $.2.2.2.2.2.2.2.2.2.2.2.2.2.2.2.2.2.2.2.2.2.2.2.2.2.2.2.2.2.2.2.2.",
"2.2.$.I $.$.$.2.2.2.2.2.2.2.2.2.2.2.$.2.8 O           o o             . .     . .   . * a 2./ [ $.2.2.2.2.2.2.2.2.2.2.2.2.2.2.2.2.2.2.2.2.$.$.$.2.2.2.2.2.2.2.2.",
"$.2.[ [ 2.2.$.2.2.2.2.2.2.2.2.2.2.2.2.2.7 o           o O             . .       .     o < I $.$.$.2.2.2.2.2.2.2.2.2.2.2.2.2.2.2.2.2.2.2.2.$.$.$.$.2.2.2.2.2.2.2.",
"K [ $.[ 2.2.2.2.2.2.2.2.2.2.2.2.$.[ 2.2.5 o       .   O O             .         . .     = 7 2.2.2.2.2.2.2.2.2.2.2.2.2.2.2.2.2.2.2.2.2.2.2.2.$.2.$.2.2.2.2.2.2.2.",
"I $.$.[ $.2.2.2.2.2.2.2.2.2.2.2.2.[ 2.$.2 X     . .   O O             . .               o > 2.2.2.2.2.2.2.2.2.2.2.2.2.2.2.2.2.2.2.2.2.2.2.2.2.$.$.2.2.2.2.2.2.2.",
"[ $.2.$./ [ 2.2.2.2.2.2.2.2.2.2.2.[ 2.n : .     . .   O +             .           .       # t [ $.$.2.2.2.2.2.2.2.$.2.2.2.2.2.2.2.2.2.2.2.2.$.2.2.2.2.2.2.2.2.2.",
"2.$.$.$./ [ 2.2.2.2.2.2.2.2.2.2.2.[ 2.5 # .   . .     + @ .                 .     . .     X = C $.[ $.2.2.2.2.2.2.[ 2.2.2.2.2.2.2.2.2.2.2.2.$.2.$.2.2.2.2.2.2.2.",
"$.I / $.[ 2.2.2.2.2.2.2.2.2.2.2.2.[ 2.2 X     X o     + @ X                       . .     . @ 4 / [ $.2.2.2.2.2.2.$.2.2.2.2.2.2.2.2.2.2.2.2.2.$.$.2.2.2.2.2.2.2.",
"[ K I $.$.2.2.2.2.2.2.2.2.2.2.2.2.$.2.,       o O     @ # o                       . X . .   o - z 2.2.2.2.2.2.2.2.2.2.2.2.2.2.2.2.2.2.2.2.2.2.2.$.2.2.2.2.2.2.2.",
"[ I $.2.2.$.2.2.2.2.2.2.2.2.2.2.$.[ / >       O @     + # o                         . o X   . o 4 2.2.2.2.2.2.2.2.2.2.2.2.2.2.2.2.2.2.2.2.2.$.$.$.2.2.2.2.2.2.2.",
"[ [ $.2.2.[ 2.2.2.2.2.2.2.2.2.2.2.$.j -     . + +     + $ O                 X         X o .     ; j 2.2.2.2.2.2.2.2.2.2.2.2.2.2.2.2.2.2.2.2.$.$.$.$.2.2.2.2.2.2.",
"[ $.2.2.$.[ $.2.2.2.2.2.2.2.2.2.2.2.5 &     o @ o     @ $ O .             . + .         . .     @ 2 2.2.2.2.2.2.2.2.2.2.2.2.2.2.2.2.2.2.2.2.$.$.$.2.2.2.2.2.2.2.",
"/ [ 2.2.2.2.2.2.2.2.2.2.2.2.2.2.2.2.2 #     @ @ X   . @ $ O .             X $ o       X .   .     : 2.2.2.2.2.2.2.2.2.2.2.2.2.2.2.2.2.2.2.2.$.$.$.2.2.2.2.2.2.2.",
"[ 2.2.2.2.2.2.2.2.2.2.2.2.2.2.2.$.$.< +     $ #       @ % +       . o .   . + $ o   . . .         % j 2.2.2.2.2.2.2.2.2.2.2.2.2.2.2.2.2.2.2.2.2.2.2.2.2.2.2.2.2.",
"2.2.2.2.2.2.2.2.2.2.2.2.2.2.2.2.[ $.> O   . & @       # & O       X O .   . o * # X . . . X . .   O > $.2.2.2.2.2.2.2.2.2.2.2.2.2.2.2.2.2.2.2.2.2.2.2.2.2.2.2.2.",
"2.2.2.2.2.2.2.2.2.2.2.2.2.2.$.2.2.$.-     O & +       # & o       . + X   . . # * # . X o o . . . . $ D 2.2.2.2.2.2.2.2.2.2.2.2.2.2.2.2.2.2.2.2.2.2.2.2.2.2.2.2.",
"2.2.2.2.2.2.2.$.2.2.2.2.2.2.2.2.2.[ &   X $ % O   .   $ & .       . # o       o * * o . . o + X .   O 1 I 2.2.2.2.2.2.2.2.2.2.2.2.2.2.2.2.2.2.2.2.2.2.2.2.2.2.2.",
"2.2.2.2.2.2.2.$.2.2.2.2.2.2.2.2.2.$.&   o = # .   .   $ %         X $ o         # = $ X   o @ O .   . & 7 2.2.2.2.2.2.2.2.2.2.2.2.2.2.2.2.2.2.2.2.2.2.2.2.2.2.2.",
"2.2.2.2.2.2.2.$.2.2.2.2.2.2.[ I [ [ %   O ; +         $ %         . $ + .       o % - O     o $ + .   o : C 2.2.2.2.2.2.2.2.2.2.2.2.2.2.2.2.2.2.2.2.2.2.2.2.2.2.",
"2.2.2.2.2.2.2.2.2.2.2.2.2.$./ I [ z $   @ = o   .   . # #         X $ # o         + - % o   . @ % +     + , $.2.2.2.2.2.2.2.2.2.2.2.2.2.2.2.2.2.2.2.2.2.2.2.2.2.",
"2.2.2.2.2.2.2.2.2.2.2.2.2.$./ $.I 2 + o % & o . .   o # +         . # & +         o % - # .   o $ # .     @ 1 [ 2.2.2.2.2.2.2.2.2.2.2.2.2.2.2.2.2.2.2.2.2.2.2.2.",
"2.2.2.2.2.2.2.2.2.2.2.2.2./ [ 2.C * . + = @ .       + @ O         . # * @     .     o = - #     X $ & .   . # , I 2.2.2.$./ [ $.2.2.$.[ $.2.2.2.2.2.2.2.2.2.2.2.",
"2.2.2.2.2.2.2.2.2.2.2.2.[ / 2.2.a +   $ = o .     . + O o         . @ = #     . .   . @ - = o     O % + .   . # > j 2.2.2.$.$.$.2.2.2.2.$.2.2.2.2.2.2.2.2.2.2.2.",
"2.2.2.2.2.2.2.2.2.2.2.2.[ [ 2.[ 2 o o & * . .     . o o           . @ = $ . .     . .   # = & o     o $ + .   . o : f z K [ 2.2.2.2.2.2.[ 2.2.2.2.2.2.2.2.2.2.2.",
"2.2.2.2.2.2.2.2.2.2.2.2.[ 2.2.z : . @ * %           . .           . # - $ . . .         . $ - & o     o % $ o .   O # % > j 2.2.2.2.2.2.2.2.2.2.2.2.2.2.2.2.2.2.",
"2.2.2.2.2.2.2.2.2.2.[ [ [ / 2.5 % O & = $ .                       o % - & O               o % & @ o     @ # @ @ X     . @ - , 1 5 D $.2.2.[ 2.2.2.2.2.2.2.2.2.2.",
"2.2.2.2.2.2.2.2.2.2./ I $.K I 2 # $ = - # .               .     . + * ; - $ X       . .     . + % @ . . . O $ % O . . X   . . O & 2 f D K D [ 2.2.2.2.2.2.2.2.2.",
"2.2.2.2.2.2.2.2.2.2.$.$.2.$.5 > = - ; - #                     O $ * - ; : - # o .     . .     . o o . . o @ @ + @ $ @     o @ + o + $ & : 4 / 2.$.K $.2.2.2.2.2.",
"2.2.2.2.2.2.2.2.2.2.[ $.2.2.1 * = ; : ; & + o o o X X o O O o # % & $ $ % * $ O X       .         . .   @ & # o % = & @ O @ $ & @ O X . + = , 7 [ I 2.2.2.2.2.2.",
"2.2.2.2.2.2.2.2.2.2.[ I $.2.< $ # * ; : : * % # + O O $ * % % $ # @ O o + @ $ @ o .               . .   # * * # * * = ; % # $ = - = # o   . O ; [ $.$.2.2.2.2.2.",
"2.2.2.2.2.2.2.2.2.$.$./ K $.z , @ o + $ & & $ + o X X o + & - : > , , < < < , ; $ X             . X . . O # $ @ % % % * * & % % % $ # O o   @ < [ / $.2.2.2.2.2.",
"2.2.2.2.2.2.2.2.2.$.$.I D / 2.j : & $ $ & * * & % & * & - , 4 5 a z K I D z j 5 < - $ @ + O O + @ # $ * = - ; > > > > , < 1 , ; - - ; - = = , a 2.[ 2.2.2.2.2.2.",
"2.2.2.2.2.2.2.2.2.$.I K $.I $.$.I f 4 1 , , 1 2 5 f D D K I [ [ [ [ [ [ / / [ [ I D t 1 > : ; ; ; > 2 f D K I I I I / / / / D j t 8 t f z D I / 2.2.2.2.2.2.2.2.",
"2.2.2.2.2.2.2.2.2.$.[ $.$./ / $.2.$.D j f j z D / 2.2.2.$.[ $.2.2.2.2.2.$.2.2.2.2.2./ n j f f f a j n / $.2.2.2.2.2.2.2.2.2.$./ I / / $.$.2.2.2.$.$.2.2.2.2.2.2.",
"2.2.2.2.2.2.2.2.2.$.2.2.2.[ / [ 2.2.$.[ 2.2.2.$.$.2.2.2.[ [ [ $.2.2.2.2.2.2.$.$.2.2.2.2.2.2.2.2.2.2.2.[ [ 2.2.$.2.2.2.[ 2.2.$.[ $.2.2.2.2.$.2.2.[ $.2.2.2.2.2.2.",
"2.2.2.2.2.2.2.2.2.$.$.$.2.2.[ / [ 2.$.$.2.2.[ I / 2.2.2.2.2.2.2.2.2.$.2.2.$.K / 2.2.2.2.2.$.2.2.[ [ 2.$.2.2.[ K [ 2./ D $.2.2.[ $.2.2.2.[ / $.2.$.[ 2.2.2.2.2.2.",
"2.2.2.2.2.2.2.2.2.$.$.$.$.$.$.$.$.2.$.$.2.2.[ [ $.2.2.2.2.2.2.2.2.$.I / $.2.[ 2.2.2.2.$.[ [ 2.2.I I 2.2.2.2.$.I $.$./ / $.2.2.2.2.2.2.$.[ [ [ [ $.[ 2.2.2.2.2.2.",
"2.2.2.2.2.2.2.2.2.2.2.2.$.[ $.2.2.2.$.2.2.2.2.2.2.2.2.2.2.2.2.2.2.2.I I $.2.2.2.$.$.$.$.[ 2.2.2./ / 2.2.2.2.2.2.2.$.[ 2.2.2.2.2.2.2.2.2.2.2.[ [ 2.$.2.2.2.2.2.2.",
"2.2.2.2.2.2.2.2.2.2.2.2.2.2.2.2.2.2.2.2.2.2.2.2.2.2.2.2.2.2.2.2.2.2.2.2.2.2.2.2.2.2.2.2.2.2.2.2.$.2.2.2.2.2.2.2.2.2.2.2.2.2.2.2.2.2.2.2.2.2.2.2.2.2.2.2.2.2.2.2.",
"2.2.2.2.2.2.2.2.2.2.2.2.2.2.2.2.2.2.2.2.2.2.2.2.2.2.2.2.2.2.2.2.2.2.2.2.2.2.2.2.2.2.2.2.2.2.2.2.2.2.2.2.2.2.2.2.2.2.2.2.2.2.2.2.2.2.2.2.2.2.2.2.2.2.2.2.2.2.2.2.",
"2.2.2.2.2.2.2.2.2.2.2.2.2.2.2.2.2.2.2.2.2.2.2.2.2.2.2.2.2.2.2.2.2.2.2.2.2.2.2.2.2.2.2.2.2.2.2.2.2.2.2.2.2.2.2.2.2.2.2.2.2.2.2.2.2.2.2.2.2.2.2.2.2.2.2.2.2.2.2.2.",
"2.2.2.2.2.2.2.2.2.2.2.2.2.2.2.2.2.2.2.2.2.2.2.2.2.2.2.2.2.2.2.2.2.2.2.2.2.2.2.2.2.2.2.2.2.2.2.2.2.2.2.2.2.2.2.2.2.2.2.2.2.2.2.2.2.2.2.2.2.2.2.2.2.2.2.2.2.2.2.2.",
"2.2.2.2.2.2.2.2.2.2.2.2.2.2.2.2.2.2.2.2.2.2.2.2.2.2.2.2.2.2.2.2.2.2.2.2.2.2.2.2.2.2.2.2.2.2.2.2.2.2.2.2.2.2.2.2.2.2.2.2.2.2.2.2.2.2.2.2.2.2.2.2.2.2.2.2.2.2.2.2.",
"2.2.2.2.2.2.2.2.2.2.2.2.2.2.2.2.2.2.2.2.2.2.2.2.2.2.2.2.2.2.2.2.2.2.2.2.2.2.2.2.2.2.2.2.2.2.2.2.2.2.2.2.2.2.2.2.2.2.2.2.2.2.2.2.2.2.2.2.2.2.2.2.2.2.2.2.2.2.2.2.",
"2.2.2.2.2.2.2.2.2.2.2.2.2.2.2.2.2.2.2.2.2.2.2.2.2.2.2.2.2.2.2.2.2.2.2.2.2.2.2.2.2.2.2.2.2.2.2.2.2.2.2.2.2.2.2.2.2.2.2.2.2.2.2.2.2.2.2.2.2.2.2.2.2.2.2.2.2.2.2.2."
};
