/* XPM */
static char *f036c68b0a9643d0960c84ccf47fd274sH12g1ycMADddvb5[] = {
/* columns rows colors chars-per-pixel */
"80 80 251 2 ",
"   c #1B000C",
".  c #15000D",
"X  c #1B0114",
"o  c #15021D",
"O  c #1B021C",
"+  c #190515",
"@  c #0E0016",
"#  c #27000A",
"$  c #220114",
"%  c #280419",
"&  c #34061A",
"*  c #310C15",
"=  c #0E0726",
"-  c #130423",
";  c #180626",
":  c #1A0E33",
">  c #290723",
",  c #371428",
"<  c #28183B",
"1  c #33132E",
"2  c #3C2526",
"3  c #49141B",
"4  c #4E151A",
"5  c #4B271B",
"6  c #55251B",
"7  c #59281C",
"8  c #632A1E",
"9  c #6A291D",
"0  c #67251C",
"q  c #76281E",
"w  c #4B1A2A",
"e  c #4C2B24",
"r  c #482922",
"t  c #542B24",
"y  c #5C2B24",
"u  c #5C2D2A",
"i  c #562827",
"p  c #5C312B",
"a  c #563127",
"s  c #582C36",
"d  c #5A3435",
"f  c #462337",
"g  c #642C24",
"h  c #6B2C24",
"j  c #642D2A",
"k  c #6C2E2A",
"l  c #672622",
"z  c #732C24",
"x  c #7B2D24",
"c  c #742E2A",
"v  c #7B2E29",
"b  c #752622",
"n  c #633125",
"m  c #6B3126",
"M  c #64322C",
"N  c #6C322B",
"B  c #68392D",
"V  c #743126",
"C  c #7B3126",
"Z  c #74332C",
"A  c #7C332C",
"S  c #7B392D",
"D  c #75392D",
"F  c #682E34",
"G  c #643432",
"H  c #6C3433",
"J  c #6B3934",
"K  c #683839",
"L  c #733532",
"P  c #7B3533",
"I  c #743934",
"U  c #7C3A33",
"Y  c #733A3B",
"T  c #7B3A3B",
"R  c #762E30",
"E  c #691A1D",
"W  c #73413E",
"Q  c #2C1D45",
"!  c #2A2746",
"~  c #362B52",
"^  c #3A2D4F",
"/  c #4D314E",
"(  c #693944",
")  c #763C44",
"_  c #693357",
"`  c #483B65",
"'  c #563D63",
"]  c #6C3E66",
"[  c #5C414D",
"{  c #7A4348",
"}  c #724550",
"|  c #534971",
" . c #675478",
".. c #724E6E",
"X. c #85271E",
"o. c #832D25",
"O. c #832E2A",
"+. c #8B2D26",
"@. c #952E28",
"#. c #823226",
"$. c #83342C",
"%. c #8B342C",
"&. c #84392D",
"*. c #8C392E",
"=. c #8B3326",
"-. c #93352D",
";. c #9B342C",
":. c #923A2E",
">. c #9A392E",
",. c #953326",
"<. c #843631",
"1. c #8B3632",
"2. c #843A33",
"3. c #8C3A33",
"4. c #833B3B",
"5. c #8D3C3B",
"6. c #893639",
"7. c #943632",
"8. c #9B3632",
"9. c #943B33",
"0. c #9B3B33",
"q. c #943C3A",
"w. c #9B3C3A",
"e. c #993738",
"r. c #A2362E",
"t. c #A23A34",
"y. c #AB3A35",
"u. c #A23D3A",
"i. c #A53834",
"p. c #B43D38",
"a. c #984139",
"s. c #8B403D",
"d. c #A4423A",
"f. c #883D45",
"g. c #854549",
"h. c #944343",
"j. c #8F5157",
"k. c #8E5369",
"l. c #996468",
"z. c #9F6D70",
"x. c #A76569",
"c. c #B4686C",
"v. c #A96D73",
"b. c #B76C73",
"n. c #A9737A",
"m. c #B77479",
"M. c #A65356",
"N. c #C5747B",
"B. c #C36E74",
"V. c #6D5B83",
"C. c #746790",
"Z. c #855B82",
"A. c #886889",
"S. c #967092",
"D. c #A97A84",
"F. c #B77C84",
"G. c #B97997",
"H. c #AD6D8F",
"J. c #A07CA5",
"K. c #C77C84",
"L. c #CE798A",
"P. c #CC7FA1",
"I. c #AE848D",
"U. c #B8838B",
"Y. c #AA8A95",
"T. c #B68A95",
"R. c #B3929C",
"E. c #AD9BA7",
"W. c #B699A6",
"Q. c #B08EB1",
"!. c #B9A9B7",
"~. c #B3A6B3",
"^. c #9885A7",
"/. c #C78B98",
"(. c #D88B98",
"). c #CD8690",
"_. c #C689A8",
"`. c #CB97A8",
"'. c #D997A8",
"]. c #C998B7",
"[. c #D899B5",
"{. c #D18DAD",
"}. c #E89DB4",
"|. c #E999AF",
" X c #C6AAB8",
".X c #D9A5B9",
"XX c #C9A6B2",
"oX c #E3A4BB",
"OX c #EAA5BA",
"+X c #F2A5BA",
"@X c #BCBBCB",
"#X c #B9B5C6",
"$X c #BABDD3",
"%X c #B1AAC5",
"&X c #DAAAC3",
"*X c #C6B8C8",
"=X c #D8B7CA",
"-X c #C8BDD4",
";X c #D7BCD4",
":X c #CBABC4",
">X c #ECACC3",
",X c #E6ABC4",
"<X c #F3ACC4",
"1X c #FAACC4",
"2X c #EBB3CB",
"3X c #E7B5CA",
"4X c #FEB2CA",
"5X c #F7B5C9",
"6X c #E4BCD4",
"7X c #E8BAD3",
"8X c #F7BBD4",
"9X c #BCC3D5",
"0X c #BDCBDC",
"qX c #BCC6DA",
"wX c #B8C0CD",
"eX c #BDCDE2",
"rX c #BDD2E5",
"tX c #BDD7EB",
"yX c #C3CBDD",
"uX c #C9C5D8",
"iX c #D6C6DA",
"pX c #D7C9D7",
"aX c #E5C4DC",
"sX c #E9C5DA",
"dX c #F8C4DB",
"fX c #C4CDE2",
"gX c #CBCDE3",
"hX c #D8CCE4",
"jX c #C4D2E4",
"kX c #CBD2E5",
"lX c #C4D5EA",
"zX c #CCD5EA",
"xX c #CBDBED",
"cX c #C5D9EC",
"vX c #D3D5EA",
"bX c #D3DBEE",
"nX c #D7D5E7",
"mX c #CDDDF3",
"MX c #C5DBF1",
"NX c #D3DDF2",
"BX c #DBDCF2",
"VX c #E7CBE3",
"CX c #F7CAE3",
"ZX c #E5D4E9",
"AX c #E4DBF3",
"SX c #CCE2F5",
"DX c #D3E2F5",
"FX c #D4E4FA",
"GX c #D8E5F9",
"HX c #CDE1EF",
"JX c #E4E2F9",
/* pixels */
"5 6 y m Z S &.C &.#.z q V Z V q 3.*.7.>.%.O.x A c v c c j u p u G J L h 2.$.c l M N I L 2.<.<.=.x *.*.%.+.#.C #.#.*.&.x h 0 8 8 l h y 5 e r r 5 a M h y 5 5 7 j ",
"t t 6 7 m V C #.C &.*.$.A &.A z #.#.+.9.:.%.&.v v v c l g u p M u M L m P A A k y y M I Z Z v x *.9.-.%.%.&.x #.#.a.*.z h 9 h h z P l t y 5 r 5 5 y N h 7 5 y g ",
"7 y y 8 Z &.$.=.:.:.3.C q A S C C o.%.*.&.<.=.O.o.S k l y i M J M u M H L H J M t t t y H Z Z S %.7.e.7.=.v A &.C S S V z V V z v <.A m M a 6 5 y 7 j m a n g l ",
"t y 7 8 V 3.3.7.-.-.1.o.C $.$.#.A 3.$.<.&.#.$.o.o.$.Z k m H j j N u j H H j j i M M M g L S A v 1.7.e.7.o.x #.$.V C &.2.S A z x *.-.1.A I Z 7 7 M n g g 9 g h 0 ",
"6 7 g c A 3.*.-.9.-.8.7.9.*.x x v 1.1.6.#.C =.,.-.3.&.V V m h m m Z P P L m Z P P P &.3.#.3.9.*.0.t.t.8.;.-.%.o.x &.2.2.A v 1.9.>.>.-.O.<.V 7 8 9 m z 0 9 9 q z ",
"t y h S 3.9.*.9.9.-.0.0.0.:.%.&.v z O.O.z C =.a.0.9.=.C C z z Z V P $.O.2.U &.s.9.*.9.0.7.-.9.*.8.u.t.t.u.t.:.-.o.&.3.<.A S 1.1.>.;.-.-.O.O.A h 9 A &.&.C z 0 9 ",
"g m m U 3.3.*.*.9.9.0.9.-.:.:.3.A b b o.o.%.a.,.t.>.o.C &.$.v x V x O.%.9.9.:.9.0.>.0.8.0.%.%.#.=.9.d.0.t.>.>.0.-.w.s.2.A S &.1.:.-.8.8.o.o.%.o.+.-.-.-.-.o.q 9 ",
"Z D Z C $.#.%.*.=.9.9.:.9.9.:.*.A z <.%.&.:.,.a.t.0.o.%.*.=.3.3.$.<.7.0.8.0.t.0.8.t.t.0.%.+.%.#.#.:.a.>.-.>.0.>.0.w.3.P U P P 2.q.0.u.8.+.o.+.>.a.>.>.>.0.-.x q ",
"<.A V x x &.*.%.=.%.a.a.:.:.:.0.a.=.a.=.#.a.a.a.7.9.1.%.1.=.3.1.3.7.0.t.t.@.t.d.d.d.y.u.*.$.$.s.a.>.>.>.t.u.u.w.5.4.I I W T S 4.5.h.d.-.e.+.+.+.>.,.@.;.i.;.%.%.",
"<.v $.#.x #.*.9.%.%.*.*.:.:.>.:.,.=.a.a.s.#.#.#.$.<.<.O.$.%.#.=.1.h.f.5.h.5.3.h.s.q.h.h.4.A <.3.a.>.d.>.d.u.w.O.<.T Y H T T s.4.<.1.q.%.7.%.:.,.+.@.r.r.r.8.@.=.",
"7.O.#.v q #.=.3.:.*.#.$.*.a.a.,.=.a.a.*.=.a.W C I T Z c P 3.A A f.f.u w w & , > > * , f W J h.:.=.=.a.>.0.-.v z Z Y J M B I s.s.V Z <.$.o.o.7.0.,.,.r.r.r.8.=.x ",
"7.1.=.x #.#.o.&.%.*.2.#.#.3.0.-.#.a.s.=.=.#.q m L H g k Z I L i % & # % , 1 1 > > > + $ # 4 j.h.&.3.:.:.9.9.S Z k c j N m D 2.<.P c v O.%.o.+.>.r.;.r.@.@.@.=.#.",
"3.1.3.1.%.&.C C C &.2.C x *.*.%.9.a.9.:.&.z c L g m B B d d > $ & 3 k.G.[.{.{.(.'.[.G.k.w & 3 _ { f.3.9.*.*.3.a.<.A C V S S S C z z $.O.x q q +.@.;.@.@.,.=.q V ",
"<.x $.1.%.&.S S V z A x o.&.$.o.+.O.o.#.#.2.2.6.U B B d * % O ' ].[.oXoX4X1X1X+X+X1X<X2X,XS., % i g.P P x &.9.a.a.3.&.C #.C C V A v O.b b b x q X.r.@.X.q q 9 7 ",
"&.c A A z z z h m 9 z V z z z C b o.1.1.O.<.1.6.6.) d + X > P.+X<X>XOX4X8X8X8X<X>X2XdX2X2X,X,X.., , { L 2.3.=.&.#.%.=.*.#.#.C #.O.x o.o.b b q b b -.@.X.0 0 0 7 ",
"Z S P A z z h h h h h h z V 2.&.O.O.1.1.<.1.1.7.) K $ O ...X1X+X4X1X>X8XCX8XCX2X2XsX7X7X3X3X2XCX..1 & ) T 5.&.*.*.%.#.=.a.%.:.a.+.o.X.+.O.x q q x %.=.q 9 9 7 7 ",
"k Z Z V P c l 0 c c 9 8 h x P v b O.1.1.1.1.1.f.( & & {.}.}.+X4X8X8X2X7X7X6X=X;XVXVXpXaXVXCXVX6X6XS.% % { 4.s.*.=.$.-.:.3.-.t.8.7.o.+.;.-.q q q o.%.x q q 8 7 5 ",
"S L L P <.v h l S Z g 0 h c v v b 1.<.c v A T R % % {.<X+X}.+XdX2X7X6X;X;X*XiXiXhXiXiXZXZXiXnX;X=X6XJ.O * { 2.*.&.$.*.9.a.%.;.t.;.+.;.;.@.X.o.#.#.=.x x V 9 8 6 ",
"1.1.P <.A <.Z l h k g l h z v A v O.b b q h ) % % G.}.1X4X+XdXdXdXVX;X;XiXhXnXnXgXiXbXBXnXnXuXuXaXsX=X[ + % T &.C A &.$.=.*.>.0.0.>.8.r.@.@.;.;.-.*.+.o.z 9 9 7 ",
"7.1.3.<.<.<.S 0 g m h l 0 b z R c h k h A Z * $ k.1X1X+X1X8X>X7XsXZXiXuXiXBXvXkX0XjXkXkXbXbXvXBXuXuX;X;X1 @ 3 I S V z A %.:.9.0.0.0.;.r.r.r.;.@.%.=.o.A C 9 m 7 ",
"e.9.9.1.<.A Z Z k k h h h l c P P Z h Z I J   > ,X4X1X}.oX8X8X6XZXZXhXuXvXGXGXbXDXHXlXfXzXkXzXvXAXpXiXsXCX%   d H m k Z &.*.a.a.0.0.r.i.r.i.>.-.%.x C S C V V 9 ",
"9.%.1.3.S h h Z Z c h h l 0 0 b c b l h H # $ ].1X1X1X|.>X8X6X;XpXAXBXkXzXNXkXzXFXFXDXGXeXmXzXBXzXnXZXaX6X&XX X a M g Z V C &.#.>.t.r.t.r.r.;.0.=.q 9 C z 9 z 9 ",
"7.*.%.%.x h x <.A A P v c b b l b h z k s   w [.}.+X<X<X2XCXsXiXiXAXBXBXzXMXeXrXSXFXGXGXzXeXmXmXjXbXAXiXVXaX/ X s K k Z V A *.:.0.0.0.;.i.r.t.8.%.x q m m V V V ",
"-.-.9.$.x &.3.<.v v O.v O.<.A x z b z L $ ; H.}.}.+X1X8X2XVXiXhXvXnXvXbXMXMXSXtXtXMXtXtXMXmXlXlXjX0XnXhXaXaX6X;   d L c P S a.0.0.0.0.,.t.t.i.t.*.#.z q z Z D Z ",
"u.w.9.O.1.1.v x $.1.1.1.<.<.<.S A v z H @ o _.}.+X+X8XdXsXpXiXuXgXbXbXkXFXcXMXHXtXtXtXtXFXtXtXrXmXlXvXhXhXVX7Xf   [ N S S 3.3.:.0.w.0.,.8.t.y.i.w.5.&.c Z z z h ",
"u.w.q.=.O.O.o.$.7.1.e.1.%.&.3.2.P z <.F + < }.1X1X4X5X8XpXpXnXiXuXJXzXGXDXcXSXtXmXmXSXSXMXtXmXFXmXlXvXvXAX;X7XQ.. * B V A <.3.9.7.8.-.%.@.8.u.u.e.7.3.<.A Z V k ",
"9.5.3.1.=.$.3.9.8.-.9.1.3.&.$.A V c 4.K   ..5X+X5X+X5X7XpXVXAXgXGXjXjXkXFXmXMXMXlXmXlXlXlXMXNXMXmXMXzXBXAX6X2X&X+ + W V A 6.<.9.8.u.7.%.%.O.7.1.x O.<.P A A v A ",
"<.$.%.%.%.7.d.d.t.8.8.9.9.&.$.$.Z R Y 3 $ A.<X1XOXOXdXdXVXiXBXnXDXbXHXDXzXjXSXHXzXNXlXxXlXFXFXlXeXmXBXBXBXZX;X;X..  p W 4.<.<.q.w.8.O.+.O.#.1.%.$.A <.A v A z v ",
"3.3.%.%.*.8.u.y.u.i.8.0.w.9.<.S <.L F # # {.OX+X4X8XdXsXVXpXBXBXHXDXHXHXNXjXDXSXHXDXDXzXjXcXcXDXNXDXNXjXbXuXiXVX X# & f.5.9.w.w.e.+.v v v $.%.<.2.A P c v $.<.&.",
"5.a.w.9.0.0.y.y.t.i.u.u.w.q.3.A <.T T # % .X4X|.+XdXdXsXpXkXgXbXjX0XHXkXjXGXlXrXHXFXDXrXlXlXjXcXDXNXfXbXyXgXZXVX=X& # g.5.w.0.u.8.+.o.v x v O.$.S V A S <.<.S A ",
"%.w.h.u.0.0.y.y.t.u.d.d.O.#.2.2.A P ) # & [.+X}.>X2X&XCXpXuXyXkXvXnXnXJXxXcXDXDXMXSXrXtXtXHXFXcXrXfXgXuXgXnXnXVX6X& # ) 1.8.t.d.7.O.v #.x O.1.1.A A <.3.1.1.<.#.",
"%.0.u.y.8.;.t.;.-.7.u.9.x x $.O.A 4.{ $ % [.5X+X5X3X7XVXiXbXzXDXAX-X%XAXkXcXHXFXSXMXtXtXrXcXSXmXxXNXiX-X*XAXBX;X7X/ $ ( 6.;.r.i.-.O.O.<.#.O.$.#.<.<.3.<.&.1.3.&.",
"O.9.8.>.8.8.i.8.-.7.1.&.C #.#.o.#.2.g.# & [.}.4X8X2XsXaXZXGXNXFXbX! ~ Q.gXmXSXmXfXlXFXtXtXMXDXxXjXzXiX^ / ZXBXhX6X..  K f.r.r.;.t.%.O.#.v z h x &.*.*.&.&.&.*.&.",
"O.%.-.-.7.7.0.>.1.1.$.&.#.a.a.,.,.q.g.# 3 >X+X1X8XsX;XuXbXBXFXmX$XQ ~ A.BXmXFXzXMXmXmXtXMXtXjXcXjXxX%Xf ^ ^.vXuX6XH.. w e.i.8.t.,.=.O.v c h z A &.*.*.&.&.C &.&.",
"S $.%.O.v $.*.+.1.+.%.*.=.:.r.t.>.w.j.# ) 1X<X<X8X6X;XZXBXfXFXmX%XQ ~ uXxXjXmXlXeXmXmXtXeXMXlXxXmXBXvX` < Q.BXZXdXR.o , f.y.r.+.q C V Z k c c A 3.3.1.%.s.C s.C ",
"<.v C v v x &.:.+.+.,.:.:.@.y.p.y.d.h.# H.}.4X1X2X6XiXhXpXgXhXZXhXQ ! BXHX0X0XeXlXNXmXzXmXMXeXjXlXzXAX~ / aXZXZX7X.Xo % 6.;.8.+.C V h h m k k P <.2.3.3.C V V W ",
"v b x v v b x =.+.-.;.;.,.,.y.p.y.u.K # '.|.+X1XdXsXVXaXdX.X&X7XaXZXnXbXcXkXyXjXmXlXgXhXzXmXlXFXzXNXNXJXdX>X2XoX>X&XO % f.;.8.+.&.x h N L k g m Z A 2.4.S Z m V ",
"c 0 b v x b x o.9.0.r.r.,.,.d.p.y.w.w & +X1X|.}.dXdXZXZX.X.XOX2X;XZXvXzXjXyXjXNXtX! ~ ~ ! ! xXFXzXzXfXpX7X5X>X>X2X.X; $ v X.+.*.C C h Z L h h m V h V P Z m n 8 ",
"V 0 0 g z A *.>.:.,.r.d.,.,.p.d.p.w.& $ <X4X8X5XdXsXVXVX.X=X.X=XVXvXyXbXzXrXjXxXFXqX! ! ! NXNXDXNXNXzXgX:X&X,X8X2X&X; X L o.$.&.v Z N k l z S 3.3.&.&.V g g y y ",
"z 9 9 9 z 3.a.>.X.,.,.r.,.r.y.r.y.f.$ O .X4X4X5XOX&XpXnXZXuXVXhXhXfXvXbXDXfXeXNXmXlXqX$XlXFXzXxXNXFXbXnXVX;XsXCXCX&X; $ P =.v v C 2.I c b $.a.9.*.s.3.A h j y 7 ",
"V V s.=.#.*.a.=.@.+.@.+.,.:.,.-.;.P . o >X4X4X>X2X=X-XkXbXkXNXbXzXBXNXqXxXzXzXzXNXNXlXlXzXDXgXyXeXcXcXbXnXpXaXVXCX2X1 & U *.&.<.1.1.3.v O.9.9.9.:.3.3.A h g 7 y ",
"m S #.q q =.:.:.0.0.+.=.#.=.,.a.1.H X 1 >X8X4X5XoXdXpXhX0XjXjXxXbXBXeXfXDXFXkXzXNXNXNXzXHXkXzX0XNXHXkXyXxXpXuX;X8X7Xf , P &.$.%.1.w.5.&.%.9.0.9.*.#.A c h g g g ",
"9 V #.C q #.:.a.8.w.+.%.#.C -.e.T 3 . T.+XdX5XOX7XsX=XuXyXyXNXjXNXDXmX0XlXmXzXzXmXzXNXBXDXDXcX0XeXfXbXBXnXnXuX=X,X&X/ $ Y A 3.%.*.9.$.<.3.9.*.0.*.*.3.2.$.c S <.",
"0 9 &.&.C C ,.,.o.o.1.3.C U q.f.) $ # .XdXOX5XOXoX6XhXuXuXkXnXkXkXzXlXcXzXjXfXjXjX0XfXzX0XHXqX0XlXzXxXpXuXuX=XCX7X8X..  w Y s.5.s.O.x &.&.&.o.1.7.1.A =.5.q.5.4.",
"0 q h q C *.,.#.x x &.A L g.) ) % + k.5X+XOX3XdXsX.XuXpXkX9XyXyX0XzXqXjXlXkXqX0XjXjXjXyXyXrX0XcXzXzXnXuX-X;X=XsXdX8X{.$ # ( ( ) 4.v 1.=.#.x O.x <.1.v x =.3.6.<.",
"9 h g h #.*.=.*.C C C z 3 # # # + 1 {.OX+X+X5XdXsXpXpXyXkXuXyXyXjXcXjX0XgXzXkXyXjX0XbXbXHXkXGXDXxXyXvXuX-X;X6X6X8X>X>XH.X @ X $ 4 4.5.1.A $.v v <.$.x x x q.h.U ",
"q h k A #.#.*.*.3.3.#.U #   f / W..X,XoXOXOX+X3XOXVXpXkXkXyXkXHXzXjXjXxXbXkXgXyXyXkXbXxXxXjX0XDXjX0X-XuXiXiXsX.X<X+XOX'.:X[ O + # K 4.3.x A c A $.v C #.o.3.4.L ",
"h 8 h Z x C $.#.o.*.*.D   A.*X6X7X3X.X,X}.OXOXoXOXpXpXnXuXkXjX9XqXyXzXyXyXfXuXqXyXyX9XHXyXyXjXjX0XuXuXhXpXVXsXdX8X2X_.% > ; - ; , s T <.A x A x $.x A #.#.<.L k ",
"9 8 h h b h z h z =.%.T $ ^ *XaXaXpX.XOX+XOXOXsXdXpXpXuXuXkX0XjX9XyXkXzXqXqX9XfXkXkX0XyX0X9XyXyXyXuXuXpX;X7X,X8X3X1 ; ; - - ; = = + { I $.#.x C C v <.<.&.#.2.P ",
"8 7 g 8 h l j h h $.$.<.% > pXsXaXsX3XsX+XsX.XOXsXsX*XwXyXjXjXyXwX9XvXuX$X@XgX9XyXzX0XyX9X9XyXyXnXiXiXpXsX7XoX&X> - = | |  .V.~ < ; # { S A A A S &.v O.*.#.&.P ",
"y 7 h h h l g 8 q #.x P 4 & D.2XsX3X3XoX+X.XOXOX3X;X*X!.9XkX0XwXuX9X@X@X-XyXqX$XyXyXgXyXkXkX9XkXiX-X*X=X&X3X3X> - : C.|  . .C.` V.~ ; $ Y A $.<.<.v O.<.#.%.6.<.",
"y l k c h g h h z q x &.f.3 4 /.,XoX.X+X5XOX.X.X.XpXuX#X!.yX9XwXuX#X#X@XuXyX@X9X9XuXyX@X9XyXwX9X$X-XiX6X&X2X=Xo - | ~ < = = = : ~ ~ ! o * P 6.<.O.1.<.1.%.%.<.5.",
"i 7 j l h h h z A v v O.f.E 4 s /.oX<X}.|..X'..X=X*XpXwXwXwXwXwXuX!.uX@XwXwX@XwX@XuXwX#XwX*XuX!.uX X XsXoX.XY.- ` V.! = ^ = o - = = V.= $ K 6.5.$.6.q.%.*.1.1.6.",
"y u g g k l n 9 h O.O.1.8.e.4 4 ( '.|.+X'.|.OX.X=X X!. XuX!.!.wX#X!.*X@X#X~.#X!.!.@X*XuX@X@XuXuX*X*X X.XoX.X1 = | ^ = - @ @ * / X = ^ = $ ( P *.#.&.1.1.9.9.q.3.",
"g M p y u y y n k c 6.q.7.7.A 4 y F.|.'.(.+XOX.X X X~.!.uX!.!.!. X~.~.~.~.!.#X~.~.#X*X*X!.*XuX*X=X=XXX`..X.X+ = C.` = = @ % H H } X Q / X } L A S *.%.@.e.0.7.q.",
"k M M a i 6 7 n V c R A 3.%.$.) 7 B ).(.(.(.'.XXXX~.~.~.!. X XuX!.~.~.~.~.!.~.~.~.!.*X!.uX!. X*X X.X.X.XOX.X+ ; | ~ - o , K A 3.{ $ 1  .O s Y V &.3.a.u.w.7.O.+.",
"A I M u y y M h N Z I H N D L H i ) (.L.(.(.(.`.W.E.E.E.~. X!. XXXW. X!.~.~.E.E.E.!. X X!.!. X!.XX`..X`..X.X; = ~ : o d ( 4.&.2.( $ Q ~ ; s H A 2.<.1.1.3.*.%.o.",
"&.<.L L H M D g 9 M M p y B M H y W (.(.).(.(./.W.R.~.!.!.E.R.~.W.W.W.XXW.R.W.W.R.~.W.!.~.E.!.XX~.`.`.'.'..Xo < | : = ( Y I T T ( % Q | ; 1 ) U 2.<.S &.&.3.s.<.",
"$.$.<.4.P Z J M p M a a y p M i 7 j.(.(.(.(.).`.R.W.E.E.W.W.W.W.R.T.W.T.R.R.R.W.Y.R.R.R.R.!.XXXX`..X'.'._.n.; < ` / = o [ ( } } 1 o ~ | - % W U 2.<.P <.P <.5.3.",
"v $.1.2.Z H J G B B n B n y M w V N.L.L.(.).K./.T.R.E.E.Y.Y.W.R.R.T.T.I./.T.T.I.T.T.R.R.R.`.W.R.T.'.(._.T.f ; V.Q.C.; O O X O % ; ; | ` = + Y D 2.4.2.U U P 2.2.",
"<.<.<.P H B L L H D B Z h I i i M.K.K.K.K.).).F.T.Y.Y.Y.Y.T.R.Y.I.F.T.G.U./.U.U.U.T.T.I.T.T.T.T./.`.)./.} > ; S.P.P.S.G...w > 1 ..J.J.J.= + K Z D 4.2.P P P U S ",
"$.<.S Z L Y L P I U <.v A P u F B.N.K.N.K.K.).F.I.I.Y.Y.Y.I.I.n.U.F.U.K.K.).F.F.I.U.U.U.T.R.T./.R.`.(.F.w 1 ; J.P.P.H.G.G./.H.C.Z.J.J...o > W m m B L P U U T U ",
"q z h N H L <.&.3.9.e.O.1.b R j.N.N.N.N.K.N.F.D.z.Y.I.D.D.I.I.I.m.F.F.K.K.K.K.K.m.n.U.n.U.U.U.T./.U.F.F 4 ) > ] G.H.k.H.G.].Z.' V.V.S.[ o , ) F j j j L U 2.W U ",
"C A S P P P q.w.w.u.i.i.f.6.R F.N.N.B.K.m.b.n.D.n.z.D.D.D.D.n.v.m.m.m.K.m.L.K.K.K.K.U.U.I.m.U.).F.G.) j j.f.; / P.P.G.[.{.P.].A.A.C.V. .+ f H k j M i j U S &.T ",
"&.&.#.9.9.q.0.w.w.u.e.q.O.6.c.c.B.B.B.B.b.m.m.m.n.v.D.D.n.n.n.z.x.b.N.b.N.b.B.N.b.m.F.F.F.n.F.m.n.} F g.q.j.X 1 [.H.H.Q.H.S.:XZ.` J.V.: - ( L Z M a a u M Z U P ",
"%.&.9.w.9.0.0.0.e.e.q.O.6.x.c.c.c.B.B.c.c.b.c.v.n.n.v.n.n.n.z.x.x.x.b.c.N.b.c.b.b.c.m.N.F.v.v.D.j.{ Y T 1.g.O ; S.] _ S.Z.] ' S.V.` ~ : X ( T Z p a u i u l U U ",
"O.3.9.a.0.9.3.-.9.a.A W x.c.b.c.b.b.b.c.x.x.v.b.b.n.v.v.z.v.v.v.x.x.M.f.4.) M.c.b.b.c.m.m.v.n.k.} s K L P F O - A.A.].{.S.P.V.J.` | | = $ K M M u u u g g m 2.&.",
"=.*.9.-.0.0.o.&.3.<.D s.M.x.v.m.M.M.M.j.j.j.x.x.v.b.n.v.l.l.l.x.x.L G F j l R g.c.M.x.b.m.v.l.} d K F k c K % ; ..A.S...Z.J.V.' ` J.: : ( Y m y u i j l m V s.A ",
"&.*.=.9.0.-.+.O.v U u d { ( { j.{ ) I H H Y { j.v.l.z.z.l.l.k.j.R l F L Z I l l N { g.j.j.} { L ) F M j j F / $ <  ... . .C.A.`  .| + $ ) T H m j j j l 8 V S $.",
"$.#.#.:.0.9.C <.<.Z G d p u K K I { { Y Y J i i ( j.l.l.l.j.K m F T P P D D m 7 t y G F K j T T P k m m j G F $ o ; A.C.` | | ! ; o % ( ) P I k j k l g 0 V S A ",
"&.&.C &.3.#.z U 2.U B W W d G F N P P I I M t t i s K d u s i j L P P S Z I h 7 y g y u I c P 2.A h L k M y i s + o - ; = - o o $ $ ( W Z U m Z m M n Z m D S V ",
"A z 9 V V V Z 2.T L B M K K G j H k L N j g y a u i i e r i u l R v v P A A Z m 8 g n g l L Z L S Z h H y y y y d / , > X > , f K Y I I D 2.h Z Z g 9 I D m h h ",
"8 9 n 8 m Z A 2.S L M p p d p y M y y y t y y g j j y t 6 i 6 l A A A A c c Z Z m m 8 y g y j u g N m j u g n 7 a s Y ( ( Y F G G J N Z D N h S Z k Z T J g u y ",
"M y 7 n m m h Z P I M u 7 a t y p B y 7 t n M H j g 7 t 6 6 6 h z z V Z j g k k n m g g 7 y M t 6 n m I H D B 8 y l R <.P L L l k j y M N j m Z k h m N G d p p ",
"N g n m m g 8 m N D M t t e t y y M M n 6 y m n g l g g u y 0 h Z c F j u y u u m Z l l g y u y y Z I P I Z I Z H k I T A A L g B M y p u j M N g g y y a a a a ",
"M u y g n g g m g M y y a y y g y m Z m n M B 7 y y g g l l z c L L N M u p a 5 J H L L m y 7 y g k I P D h C S g j R c c Z Z H N u p p u G M p y y a t a s e a ",
"y 6 y h h Z m D j m M 7 n n m h h Z Z A Z D N N k g j h l l F L H N j y i t a e e i y G B u u p y j F H P Z V m g G j F L k D B G t d d u K K G M a r r e a e a ",
"y y 7 g k Z m 9 l j a 7 7 m L Z V Z Z Z h Z N Z k l 0 h y 0 c k N j u y t e i e e e a G K B G H u M M j k P D m y j j M k H N y p t i a i G J B p e r 2 r e e r ",
"y n n g h M 7 5 6 7 7 7 7 m I Z L N Z D g m N m Z l 6 0 6 7 h k M M M M p t e e e a d K K J J g l M y y k m m h l j j n G G M y t t y p G W M B p e r 5 2 r r a ",
"7 t y n m y 5 6 5 6 5 y 7 m D m N m M n g m M h k m 6 6 7 N Z Z H B M M a a a a i t d B M B M j g m y n j N g g N k g M G G J B d a p p p M a M d r r r r r r r "
};
