/* XPM */
static char *_c97b2be7b93452fdb9b5677eb615aaco4jPeb0ETAonzFxb[] = {
/* columns rows colors chars-per-pixel */
"80 80 245 2 ",
"   c #010200",
".  c #060A02",
"X  c #0A0D04",
"o  c #070908",
"O  c #0C0D0A",
"+  c #100D0C",
"@  c #0D1104",
"#  c #04140A",
"$  c #0E120A",
"%  c #121506",
"&  c #12150B",
"*  c #15190C",
"=  c #191C0D",
"-  c #03171B",
";  c #131412",
":  c #161A12",
">  c #1B1D13",
",  c #171919",
"<  c #1B1D1A",
"1  c #201F0D",
"2  c #211E17",
"3  c #1A220C",
"4  c #1D2214",
"5  c #152018",
"6  c #1D221A",
"7  c #222515",
"8  c #252915",
"9  c #282A15",
"0  c #23251B",
"q  c #2A251C",
"w  c #25291C",
"e  c #292C1D",
"r  c #2B311E",
"t  c #3B321E",
"y  c #091F22",
"u  c #141C24",
"i  c #0B2525",
"p  c #1C2223",
"a  c #1A282B",
"s  c #192A34",
"d  c #133233",
"f  c #173639",
"g  c #242421",
"h  c #292521",
"j  c #262A22",
"k  c #2A2D23",
"l  c #23252D",
"z  c #252B2D",
"x  c #2B2C2C",
"c  c #302F25",
"v  c #2E3123",
"b  c #25302D",
"n  c #2C322E",
"m  c #36392A",
"M  c #242535",
"N  c #252B32",
"B  c #2B2D35",
"V  c #272C3C",
"C  c #2C2E3A",
"Z  c #322D3A",
"A  c #253334",
"S  c #2C3235",
"D  c #2B313B",
"F  c #2A3839",
"G  c #323535",
"H  c #3B3537",
"J  c #353B33",
"K  c #3A3C36",
"L  c #31343C",
"P  c #343A3B",
"I  c #3C3D3A",
"U  c #49332E",
"Y  c #344332",
"T  c #3B4137",
"R  c #5B4D1B",
"E  c #4A4929",
"W  c #454739",
"Q  c #575130",
"!  c #625C38",
"~  c #6C6639",
"^  c #776E34",
"/  c #0D364E",
"(  c #173A43",
")  c #2B2B40",
"_  c #2A3745",
"`  c #353943",
"'  c #273650",
"]  c #1C4647",
"[  c #144C57",
"{  c #24454A",
"}  c #334D45",
"|  c #244A54",
" . c #2A525D",
".. c #3B5958",
"X. c #185464",
"o. c #25576D",
"O. c #1C6374",
"+. c #306D73",
"@. c #376A76",
"#. c #434641",
"$. c #454942",
"%. c #4A4C45",
"&. c #4C4C4B",
"*. c #504F4D",
"=. c #4D5348",
"-. c #545749",
";. c #4C5A59",
":. c #575955",
">. c #5A5C55",
",. c #655D46",
"<. c #6E544D",
"1. c #526C50",
"2. c #5A6659",
"3. c #5D625C",
"4. c #726D47",
"5. c #686A57",
"6. c #62665C",
"7. c #656A5A",
"8. c #737053",
"9. c #516F6C",
"0. c #47737A",
"q. c #686A64",
"w. c #6C6D6A",
"e. c #786F6D",
"r. c #6D7567",
"t. c #6D726B",
"y. c #74786C",
"u. c #6B7874",
"i. c #737774",
"p. c #757A72",
"a. c #797D74",
"s. c #7B7D7B",
"d. c #837653",
"f. c #827A6A",
"g. c #6B846C",
"h. c #7D8173",
"j. c #7E827A",
"k. c #9A8846",
"l. c #8F8C53",
"z. c #968C59",
"x. c #A8964B",
"c. c #A4995B",
"v. c #BAA758",
"b. c #BDAC5C",
"n. c #BDB156",
"m. c #8F8B67",
"M. c #86867A",
"N. c #A4976A",
"B. c #A59D73",
"V. c #BEAB63",
"C. c #B3AB6E",
"Z. c #B8A968",
"A. c #C0AB4E",
"S. c #C4AC54",
"D. c #C4A85B",
"F. c #C2AB5C",
"G. c #C3B25B",
"H. c #C2A664",
"J. c #C2AC63",
"K. c #C4AC69",
"L. c #C4B367",
"P. c #C1AF7B",
"I. c #C6B775",
"U. c #CBC077",
"Y. c #2F7180",
"T. c #3D9393",
"R. c #548A8D",
"E. c #569598",
"W. c #6F9190",
"Q. c #61A2A4",
"!. c #838682",
"~. c #858A83",
"^. c #898D85",
"/. c #8C8D8B",
"(. c #8A9287",
"). c #95968A",
"_. c #8A9393",
"`. c #939592",
"'. c #979C96",
"]. c #9A9B95",
"[. c #A8988C",
"{. c #92A38C",
"}. c #9EA49B",
"|. c #AEB186",
" X c #A5A799",
".X c #A1A39E",
"XX c #95ACA6",
"oX c #A5AAA3",
"OX c #A7A8A4",
"+X c #ABADAA",
"@X c #ACB3A9",
"#X c #B2B6AF",
"$X c #ACBAB1",
"%X c #B3B4B2",
"&X c #B9BCB7",
"*X c #C4BA84",
"=X c #C4BEBA",
"-X c #B7C2B8",
";X c #BDC3BC",
":X c #C1C3BD",
">X c #DDCCB4",
",X c #95C0C0",
"<X c #B8CECA",
"1X c #C5C5C4",
"2X c #C5CBC4",
"3X c #CACCC6",
"4X c #C6CACB",
"5X c #CCCCCA",
"6X c #D2CECE",
"7X c #C5D4C1",
"8X c #CDD2CB",
"9X c #D3D5CE",
"0X c #C9DBD4",
"qX c #D4D5D3",
"wX c #D7DBD5",
"eX c #DBDDD9",
"rX c #E1DEDA",
"tX c #DBE4D7",
"yX c #DCE2DA",
"uX c #E3E6DB",
"iX c #DFE5E1",
"pX c #E3E5E1",
"aX c #E5EBE3",
"sX c #E7EAE7",
"dX c #EAECEA",
"fX c #EAF7E9",
"gX c #EDF4EC",
"hX c #F2F5EE",
"jX c #F2FAEE",
"kX c #FBF9EB",
"lX c #F0EEF2",
"zX c #ECF5F4",
"xX c #ECFBF3",
"cX c #F5F5F5",
"vX c gray97",
"bX c #F9F6F5",
"nX c #F5FAF4",
"mX c #F9FBF5",
"MX c #F6F6F9",
"NX c #F9F6F9",
"BX c #F5FAFA",
"VX c #F9F9F9",
"CX c #FDFDFD",
"ZX c #FDFEFD",
"AX c #FFFFFF",
/* pixels */
"vXvXvXvXvXvXvXvXvXvXvXvXvXvXvXvXvXvXvXvXvXvXvXvXvXvXvXvXvXcXvXMXcXcXmXZXVXZXZXZXZXZXZXZXZXZXZXbXbXNXlXnXVXVXZXcXMXCXMX1XvXMXMXvXvXvXvXvXvXvXvXvXvXvXvXvXvXvXvXvX",
"vXvXvXvXvXvXvXvXvXvXvXvXvXvXvXvXvXvXvXvXvXvXvXvXvXvXvXvXvXmXcXcXZXZXZX5X].oXw.I T &.%.>.p.'.eXmXZXZXMXNXBXZX-.&.< O &.h ;XCXMXvXvXvXvXvXvXvXvXvXvXvXvXvXvXvXvXvX",
"vXvXvXvXvXvXvXvXvXvXvXvXvXvXvXvXvXvXvXvXvXvXvXvXMXMXcXNXVXMXZXZX&X*.  * q.e 0 >.`.6.> =.~.7 X & q.].ZXZXM.  }.J + &.qX  :.ZXCXZXNXNXvXvXvXvXvXvXvXvXvXvXvXvXvXvX",
"vXvXvXvXvXvXvXvXvXvXvXvXvXvXvXvXvXvXcXvXcXbXvXvXNXMXMXlXZXZX#X0   X r.5.@ -.M.5.> Q r.(.I % m y.W & = ^.^.. 2X# p 5X>.g   k .   CXCXvXvXvXvXvXvXvXvXvXvXvXvXvXvX",
"vXvXvXvXvXvXvXvXvXvXvXvXvXvXvXvXvXvXvXcXvXvXvXNXvXMXvXZXdXH   0 7 h.m X y.5.=.* h.2.5.@ r 5.r.w 7 7 e = 7 0 W & -.BX2X, < 2 &.4XZXNXvXvXvXvXvXvXvXvXvXvXvXvXvXvX",
"vXvXvXvXvXvXvXvXvXvXvXvXvXvXvXvXvXvXvXvXvXmXvXmXZXZXZX:X  $ 4 < * a.3 ).e r.3 M.W -.@ 5.y.6.m 5.m = 8 7 4 e # >.ZX^.* h k #.i.}.sXZXMXbXcXvXvXvXvXvXvXvXvXvXvXvX",
"vXvXvXvXvXvXvXvXvXvXvXvXvXvXvXvXvXvXMXnXvXhXZXZX@Xw.m   : $ $ * > @ : & X %.6.= ).= * Q m % =.W m -.1 9 w 6 3 }.=.:.>.:.:.).ZX%X&.ZXcXcXvXvXvXvXvXvXvXvXvXvXvXvX",
"vXvXvXvXvXvXvXvXvXvXvXvXvXvXvXvXvXvXvXNXZXVXe..   > * e 4 = e e & 0 k k e * = & n * %.M.Y m 7.2.=.9 y.= 4 w w # :   O *   I w./.sXvXvXvXvXvXvXvXvXvXvXvXvXvXvXvX",
"vXvXvXvXvXvXvXvXvXvXvXvXvXvXvXvXbXMXMXZXeX; . 7 e = 7 7 = e 0 3 w 0 e > > 4 w 0 4 & * % W 1 T 3 3 5.1 -.W 4 4 J VXZX+X:.< , * w.CXlXcXvXvXvXvXvXvXvXvXvXvXvXvXvX",
"vXvXvXvXvXvXvXvXvXvXvXvXvXvXvXvXBXZXZX1X  & 7 7 2 0 7 = e 9 * 1 8 3 7 % e 7 7 = = 0 e 0 X # M.,.>.8.y.r -.W * 0 : W ^.wXM.O X G 1XmXvXvXvXvXvXvXvXvXvXvXvXvXvXvX",
"vXvXvXvXvXvXvXvXvXvXvXvXvXvXvXvXVXVXqX  & k = e 1 e > 7 e 7 = 7 9 9 = 7 7 7 8 * 7 7 0 e * 9 X W 8 T * r 5.h.>.k yXX ;   t.9X>.pXCXvXvXvXcXvXvXvXvXvXvXvXvXvXvXvX",
"vXvXvXvXvXvXvXvXvXvXvXvXvXvXvXvXNXZX  0 2 0 c = e k = k e 7 7 e 7 7 = e 4 0 3 4 0 6 0 4 4 w e X W  X3 {.(.3 >.0 1X%.O , g .X].eXcXcXvXvXcXvXvXvXvXvXvXvXvXvXvXvX",
"vXvXvXvXvXvXvXvXvXvXvXvXvXvXvXcXZXw.  < k 4 7 X X ;   O X   # * & * 6 4 8 8 3 w w < 0 * e 4 e 3 X =.m = * 7.J wX`.].vXK   sXVXVXNXvXcXNXvXvXvXvXvXvXvXvXvXvXvXvX",
"vXvXvXvXvXvXvXvXvXvXvXvXvXcXvXvXZX  g k * & %.j.+XqXdXBXnXaX8X X).6.k % * 6 6 w 4 7 4 6 w 4 w 3 e $ -.h.e W J ZXZXZXBXZXZXVXZXNXvXvXvXcXvXvXvXvXvXvXvXvXvXvXvXvX",
"vXvXvXvXvXvXvXvXvXvXvXvXvXvXvXZX4X  6 $ (.jXZXZXZXBXZXBXmXBXnXZXmXZXZXsXh.j   6 6 w 5 e 4 7 = w w 0 O e y.> G ZXBXvXcXBXnXCXvXnXcXvXvXvXvXvXvXvXvXvXvXvXvXvXvXvX",
"vXvXvXcXcXvXcXvXcXvXvXvXvXvXvXVX%X  S ZXnXjXhXxXzXBXMXnXzXnXnXgXZX`.6 oXZXZXtX3.* X v 0 w 7 * 8 0 > k   I a.=.dXvXvXvXzXcXcXvXvXvXvXvXvXvXvXvXvXvXvXvXvXvXvXvXvX",
"vXvXvXcXMXMXnXcXNXZXMXbXMXbXcXMXsX  oXW cXmXnXvXvXnXVXVXvXvXnXgXxXtXtXp mXnXmXZXdXp.  6 0 4 7 w 4 4 4 e   0 , `.ZXVXvXvXcXvXvXMXvXvXvXvXvXvXvXvXvXvXvXvXvXvXvXvX",
"vXvXvXMXnXMXMXCXeXpXZXBXvXvXvXCXZXg >.uXmXhXnXbXnXvXVXvXvXvXnXnXnXgXZX7XBXgXgXCXVXZXuXw . w w 0 = v = k < & < s.ZXMXvXvXvXvXvXvXvXvXvXvXvXvXvXvXvXvXvXvXvXvXvXvX",
"vXvXvXcXVXZXZX&X~.`.s.ZXvXvXvXcXZX, ZXmXjXjXjXbXvXvXvXBXmXnXnXnXgXnXjXnXgXnXnXBXvXvXbXZXq.X e * w w * v > : . !.ZXVXMXvXVXNXcXvXvXvXcXvXvXvXvXvXvXvXvXvXvXvXvXvX",
"vXvXvXvXmX~.`.~.mXZXOX%XCXvXcXvXZX< ZXbXhXZXhXnXnXcXvXvXvXvXnXnXZXfXZXnXnXnXgXnXvXnXjXVXZX X  0 w 3 7 v > >   oXZXVXVXvXeXZXNXmXcXvXNXvXvXvXvXvXvXvXvXvXvXvXvXvX",
"vXMXbXCX@XqXZX%XI ZXZXw.ZXvXvXNXZXx ZXgXmXmXbXnXcXnXvXvXBXnXZXOX3.3.=.ZXjXnXnXvXnXnXvXnXjXZX&X. 4 3 7 8 7 > & `.ZXBXpX/.w.%XNXNXZXZXlXmXvXvXvXvXvXvXvXvXvXvXvXvX",
"vXbXnXvXhX.XmX~.M.j.ZX%XqXVXbXMXZXG ZXhXw.e.gXnXvXvXvXcXNXmX2X`.ZXZX.X'.nXnXjXvXcXbXvXnXcXnXZX%X  9 r 3 e 4 & G ZXZX/.zXZX].ZX+X/.%XZXvXvXvXvXvXvXvXvXvXvXvXvXvX",
"vXvXNXmX%X+XW %XZXnXa.yX%XZXvXgXZXx ZX%.1X9X3.mXnXgXnXBXvXmXu.mXgXnXZX=.ZXnXcXcXvXmXmXvXvXvXMXZXoX@ 3 = w 7 * I dX8X^.ZXsX+X].vXbXt.ZXbXvXvXvXvXvXvXvXvXvXvXvXvX",
"vXvXVX4XOXmX%Xt.3XnXtX1X].ZXvXZXZXH sXt.ZXmX;X.XmXnXvXnXmX2X}.ZXnXxXZXq.nXnXvXvXbXBXbXvXvXNXnXvXZX6.& v * e X !.!.%X*.ZXeXt.ZXmX+XwXZXbXvXvXvXvXvXvXvXvXvXvXvXvX",
"vXvXVXdX^.eXZXZXj.fXnXZXp.hXmXvXZXoX`.3.ZXgXZXj.BXnXnXxXnXoXqXgXmXZXZXt.ZXnXnXmXvXvXbXmXvXvXvXvXmXmX5 = e > & &X1XZXW.rXgX;XZX+Xa.:X+X1XZXvXvXvXvXvXvXvXvXvXvXvX",
"vXvXvXmXZXOXM.ZXw.ZXnXcXpX6.ZXvXvXZXK -X9XnXdX(.yXnXnXnXBXj.nXnX6 6 fX~.ZXcXcXnXmXvXBXNXvXVXbXBXmXZX(.@ e 0   ZX`.fXnXy.kXmXgXaXZXZXgX~.ZXcXvXvXvXvXvXvXvXvXvXvX",
"vXvXvXbXbXZX+XnX^.mXnXnXZX< &.ZXZXZXp.@XoXZXj   3XmXgXnXBXj.ZX'.    t.gXhXnXbXbXvXVXMXNXNXvXvXvXmXbXbX& @ k g ZX%X3XnXnXr.BXjXmXeX6..XvXbXvXvXvXvXvXvXvXvXvXvXvX",
"vXvXvXNXvXZX;X1X8XtXjXCXeXz >.q.`.lXZXi.@XyXo   8XmXxXnXZXp.ZXq.    t.ZXnXjXbXbXbXmXNXvXBXbXNXVXMXvXZX=.e   .XZX_.sXnXnX%XnXgXnX-.ZXCXhXbXNXvXvXvXvXvXvXvXvXvXvX",
"vXvXvXvXvXhXZXa.yXZXZXcX, ~.>.; o   eXsX!.}.;   wXpXyXnXnXoXBXp.  . jXnXnXnXmXbXbXvXvXvXBXvXbXcXmXgXCX>.@ < ZX:.J yXvXmXnXnXgX;X].ZXhXvXvXvXvXvXvXvXvXvXvXvXvXvX",
"vXvXvXvXvXcXVXZXI 6.e., `.>.h.@ k 4   &X~.8X  0 ZX'.xXxXfX8X1.=.  @XnXjXBXvXBXmXvXbXvXmXbXmXvXvXjXvXjX    pXoXS q..XZXnXvXgXZX3.lXZXbXVXvXvXvXvXvXvXvXvXvXvXvXvX",
"vXvXvXvXvXvXcXZX4X-.!./.K `.h 4 e e 8 . . uXZXhXh.t.p.3XmXuXZXZXmXwXfXnXcXBXbXvXvXbXbXvXbXvXvXjXzXCXU ~.sX.   I y.$.:XZXZXpXI eXZXvXcXvXvXvXvXvXvXvXvXvXvXvXvXvX",
"vXvXvXvXvXvXvXlXZX!.x s.a.; : e w e v # j.mXmX$XfXZXZX3XmXbXgXnXmXkXnXBXMXvXvXvXvXvXmXbXvXnXnXgXZXs.qX8X  e r % j.j.w.6.s.$.i.ZXZXsXcXcXvXvXvXvXvXvXvXvXvXvXvXvX",
"vXvXvXvXvXvXvXvXNXZX; . * 0 7 7 8 9 4 6 ZXjXgXjXnXjXnXBXmXnXbX@XnXnXjXnXzXnXNXvXjXbXbXbXnXhXjXmX@X1X/.  k 7 7 9 = f.i.t.-.>.ZXmXvXcXmXvXvXvXvXvXvXvXvXvXvXvXvXvX",
"vXvXvXvXvXvXvXvXvXZX&.6 6 w w 7 8 8 @ M.mXmXjXjXjXjXzXxXnXmXmXM.*  XtXnXzXBXBXNXbXmXmXvXnXhXCX-X* >.O h 0 7 7 7 k O x &.; 5XZXMXvXvXvXvXvXvXvXvXvXvXvXvXvXvXvXvX",
"vXvXvXvXvXvXvXvXNXZX&X  4 0 7 8 8 8 . ;XZXfXmXnXjXuXdXaX$X6.+   @ kXnXnXMXvXNXbXbXnXvXnXnXCX}.# 0 = w w 7 7 7 7 0 0 p 0   eXZXvXvXvXvXvXvXvXvXvXvXvXvXvXvXvXvXvX",
"vXvXvXvXvXvXvXlXVXBXZXa.  > 0 7 3 8 & ~.mXjXjXnXaXwXe.      U <.[.bXnXgXMXZXNXvXmXjXjXnXCX:.. 4 7 7 q 7 9 q q 0 0 0 w k ; mXnXvXvXvXvXvXvXvXvXvXvXvXvXvXvXvXvXvX",
"vXvXvXvXvXvXvXvXbXvXvXZX4X, + 0 9 e w # sXZXnXVXvXBXZX:X$.U 8.[.ZXxXMXNXvXNXNXBXxXxXjXZXm X e q 2 q 2 h q e 0 7 w 1 0   ].ZXNXZXvXcXvXvXvXvXvXvXvXvXvXvXvXvXvXvX",
"vXvXvXvXvXvXvXvXvXvXvXvXZXZX&.X 6 r 7 > j mXZXhXmXCXxXnXmXmXmXmXfXxXMXNXNXbXbXbXjXjXZX2.o e 2 2 h 0 q q q 0 7 7 = 0 > $.ZXvXvXlXvXcXvXvXvXvXvXvXvXvXvXvXvXvXvXvX",
"vXvXvXvXvXvXvXvXvXcXvXvXvXvXZXq.O 0 0 k * < 1XZXmXvXfXxXnXjXfXxXxXxXNXmXbXnXjXkXjXmX2X  4 w 0 q h h h h k 0 0 > 0 & k mXCXvXMXMXvXvXvXvXvXvXvXvXvXvXvXvXvXvXvXvX",
"vXvXvXvXvXvXvXvXvXvXvXvXVXNXmXZXw.O j e 6 e X W 3XZXZXxXmXmXnXxXmXmXbXbXjXjXjXjXmXtXk 6 7 w q w q h h h 0 0 0 0 = I cXBXvXvXvXvXcXvXvXvXvXvXvXvXvXvXvXvXvXvXvXvX",
"vXvXvXvXvXvXvXvXvXvXvXvXbXvXvXvXZX>.< < k > k 4   $ -.).=X9XaXaXyXeXcXnXxXBXBX7X1.  : 6 q q q q h h h g 0 w = < *.ZXMXvXvXvXcXvXvXvXvXvXvXvXvXvXvXvXvXvXvXvXvXvX",
"vXvXvXvXvXvXvXvXvXvXvXcXcXvXvXbXvXZXp 0 0 q 4 w 8 r 3 # X   # ;.-XqXgXnXZX<X9.{ i , 5 0 2 q q q h h h h h < j 0 ZXNXMXvXvXvXvXvXvXvXvXvXvXvXvXvXvXvXvXvXvXvXvXvX",
"vXvXvXvXvXvXvXvXvXvXvXcXcXvXvXvXbXZXlX& < w w 4 7 1 3 r q 5 i 0.g.xXnX<X@.@.0.y A : e > c q q q q h q 0 h , $ `.ZXbXvXvXvXvXcXcXvXvXvXvXvXvXvXvXvXvXvXvXvXvXvXvX",
"vXvXvXvXvXvXvXvXvXvXvXvXmXvXvXcXMXBXZXeXO 4 e 7 8 3 4 8 w * Y ..[ $XXX/ +.X.X., K 6 4 0 q q q 2 q q q q 2 2 h ZXVXMXvXvXvXvXvXbXvXvXvXvXvXvXvXvXvXvXvXvXvXvXvXvX",
"vXvXvXvXvXvXvXvXvXvXvXvXvXvXvXvXvXvXvXZXsX; X 7 e 7 7 7 q = J 9.[ R.g.Q.y f W.p K k 5 0 w q q q q q h 2 2   oXZXcXvXvXvXvXvXvXvXvXvXvXvXvXvXvXvXvXvXvXvXvXvXvXvX",
"vXvXvXvXvXvXvXvXvXvXvXvXvXvXvXvXvXvXcXmXmXZX%.  > e 9 1 1 9 5 ;.} @.E.] w.} 2.n P m : w w 7 0 0 q 2 h h X &.ZXvXvXvXvXvXvXvXvXvXvXvXvXvXvXvXvXvXvXvXvXvXvXvXvXvX",
"vXvXvXvXvXvXvXvXvXvXvXvXvXvXvXvXvXvXvXcXMXmXZX1XK   7 q q q & P ;.| +.] u.5 v G a n v : 0 0 > w 0 h 2   >.ZXcXvXcXvXvXvXvXvXvXvXvXvXvXvXvXvXvXvXvXvXvXvXvXvXvXvX",
"vXvXvXvXvXvXvXvXvXvXvXvXvXvXvXvXvXvXvXMXmXbXVXZXZXqX&.X   & ; ` a ( X.f s J j S XX>.W 0 > 4 0 6 6 6   `.ZXZXZXbXcXvXvXvXvXvXvXvXvXvXvXvXvXvXvXvXvXvXvXvXvXvXvXvX",
"vXvXvXvXvXvXvXvXvXvXvXvXvXvXvXvXvXvXvXvXvXvXmXvXvXCXZXZX8X/.+ ` a { @.{ y u j.0XXX9XmXj.v j 5 : * < J 5 +X%XbXZXMXNXmXNXvXvXvXvXvXvXvXvXvXvXvXvXvXvXvXvXvXvXvXvX",
"vXvXvXvXvXvXvXvXvXvXvXvXvXvXvXvXvXvXvXvXvXvXvXvXvXvXMXVXZXqXO ` a 0.E.] F a <X;.r.{ 0X[.t I _ F J N B }   p ; s.ZXZXmXmXhXbXNXlXvXvXvXvXvXvXvXvXvXvXvXvXvXvXvXvX",
"vXvXvXvXvXvXvXvXvXvXvXvXvXvXvXvXvXvXvXvXvXcXvXcXvXbXMXNXZX1X$ F a @.E.+.f I ZX>.. ..dX>X<.L _ A G B l Z I B P < K }.wXZXZXNXvXvXvXvXvXvXvXvXvXvXvXvXvXvXvXvXvXvX",
"vXvXvXvXvXvXvXvXvXvXvXvXvXvXvXvXvXvXvXvXvXvXvXvXvXMXMXNXZX1XO F l | X.] F < OXhX4X0XhXd.t D _ S x L D l u L P G > ,.4.,.6XZXbXhXvXvXvXvXvXvXvXvXvXvXvXvXvXvXvXvX",
"vXvXvXvXvXvXvXvXvXvXvXvXvXvXvXvXvXvXvXvXvXvXvXvXvXvXvXBXCX:X$ P z | [ ( A n %.7.ZX Xf.,.q A V C L Z B B D S z N 0 m *XC.,.f.ZXZXvXcXcXNXcXvXvXvXvXvXvXvXvXvXvXvX",
"vXvXvXvXvXvXvXvXvXvXvXvXvXvXvXvXvXvXvXvXvXvXvXvXvXvXBXcXCX:Xo B A  .+.0.i : q h z m h h x V F C Z B C B C P B P Z % N.n.G.z.W ZXZXvXcXvXvXvXvXvXvXvXvXvXvXvXvXvX",
"vXvXvXvXvXvXvXvXvXvXvXvXvXvXvXvXvXvXvXvXvXvXvXvXvXvXBXcXCX5X  L D | T.Q.i z L L D B Z M ` Z C B S C C B B L ` L ` 0 c.G.S.I.N.<.ZXMXbXvXcXvXbXNXvXvXvXvXvXvXvXvX",
"vXvXvXvXvXvXvXvXvXvXvXvXvXvXvXvXvXvXvXvXvXvXvXvXvXvXBXzXCXiX; B B ( Y.E._ D B D ) ) ) ` ) Z Z S A D C C C u L L P 4 l.b.D.b.K.~ :XZXvXcXvXMXNXcXvXvXvXvXvXvXvXvX",
"vXvXvXvXvXvXvXvXvXvXvXvXvXvXvXvXvXvXvXvXvXvXvXvXNXcXbXbXZXNX6 L L f o./ ' ( N V ) C C C C C B B B S B M M M V Z A 4 B.k.x.D.G.D.! ZXNXhXnXMXNXNXvXvXvXvXvXvXvXvX",
"vXvXvXvXvXvXvXvXvXvXvXvXvXvXvXvXvXvXvXvXvXvXvXvXbXcXjXcXbXZX} z G s X./ 0.s P N _ D C C C Z V M l l M M M C ` ` 6 -.4.L.x.x.J.L.4.dXNXvXMXMXNXbXvXvXvXvXvXvXvXvX",
"vXvXvXvXvXvXvXvXvXvXvXvXvXvXvXvXvXvXvXvXvXvXvXvXbXvXjXcXvXZX/.u S F | T.Y.f x ; s A C C C D C C V l V L ` M P N n ! c.V.G.k.v.L.m.=XZXnXnXMXMXcXcXvXvXvXvXvXvXvX",
"vXvXvXvXvXvXvXvXvXvXvXvXvXvXvXvXvXvXvXvXvXvXvXvXvXvXvXMXvXZX4XO G P i Q.T.R.a z A D C D D D D C D D D D V M P p 2.Q C.V.D.J.k.K.z.).ZXjXNXMXMXvXcXvXvXvXvXvXvXvX",
"vXvXvXvXvXvXvXvXvXvXvXvXvXvXvXvXvXvXvXvXvXvXvXvXvXvXcXbXcXBXZXx S z a o.O.O.( F G D C C C C C C Z D C C D B z n 8.4.K.S.D.b.x.V.l.M.mXbXMXMXcXkXvXvXvXvXvXvXvXvX",
"vXvXvXvXvXvXvXvXvXvXvXvXvXvXvXvXvXvXvXvXvXvXvXvXvXvXcXvXvXcXZXs.p K S / o./ @.i Z C C D D C C C C C L C M S ; !.W B.K.S.S.V.Z.x.c.).ZXmXMXNXcXcXcXBXvXvXvXvXvXvX",
"vXvXvXvXvXvXvXvXvXvXvXvXvXvXvXvXvXvXvXvXvXvXvXvXvXvXcXbXcXvXZXvX, p b s +.T.+.+.s F x B Z Z C C Z ) B B S a 2.r.Q I.K.J.D.b.J.x.Z.< u.0XZXNXMXvXvXvXvXvXvXvXvXvX",
"vXvXvXvXvXvXvXvXvXvXvXvXvXvXvXvXvXvXvXvXvXvXvXvXvXvXvXvXcXvXvXZX_.O a Y 5 Q.T.T.O.i b u ) Z Z D D ) x n b J i.Y c.F.K.H.H.L.b.x.d.} / a '.ZXlXvXvXvXvXvXvXvXvXvX",
"vXvXvXvXvXvXvXvXvXvXvXvXvXvXvXvXvXvXvXvXvXvXvXvXvXvXvXvXcXvXcXMXZX6 b n A - +.[ +.' d / ` F S A z D K z z a.-.~ I.D.H.H.V.H.b.v.^ 1.Q.@.W.:XZXnXvXvXvXvXvXvXvXvX",
"vXvXvXvXvXvXvXvXvXvXvXvXvXvXvXvXvXvXvXvXvXvXvXvXvXvXvXvXvXvXcXvXmXdX# J H , - | X.0.R._ a n A N A F p P r.,.Q I.J.H.v.H.v.H.L.V.^ 5.g.g.0XW.BXxXvXvXvXvXvXvXvXvX",
"vXvXvXvXvXvXvXvXvXvXvXvXvXvXvXvXvXvXvXvXvXvXvXvXvXvXvXvXvXvXvXcXvXZX;X  H L u - ..} 1.2.Y = x u V 6 z %.E R U.D.D.V.H.H.H.V.b.b.^ Q g.Y 0X~.kXnXvXvXvXvXvXvXvXvX",
"vXvXvXvXvXvXvXvXvXvXvXvXvXvXvXvXvXvXvXvXvXvXvXvXvXvXvXvXvXvXvXvXMXBXZX4XO p K o 9.E |.C.N.N.E w g > w * 8.I.D.D.v.V.H.H.H.H.b.b.G.V.l.=.zX}.rXZXvXvXvXvXvXvXvXvX",
"vXvXvXvXvXvXvXvXvXvXvXvXvXvXvXvXvXvXvXvXvXvXvXvXvXvXvXvXvXvXvXvXvXvXNXBXZX].n   X m.N.L.L.L.C.l.t m m 4.C.L.G.K.H.J.H.H.H.V.b.b.V.L.~ u.BX@XtXnXvXvXvXvXvXvXvXvX",
"vXvXvXvXvXvXvXvXvXvXvXvXvXvXvXvXvXvXvXvXvXvXvXvXvXvXvXvXvXvXvXvXcXvXvXcXMXZXZX4X/.tX8.P.D.S.G.L.I.I.c.I.R I.J.S.b.V.J.K.H.V.b.b.n.C.T zXBX{.yXMXvXvXvXvXvXvXvXvX",
"vXvXvXvXvXvXvXvXvXvXvXvXvXvXvXvXvXvXvXvXvXvXvXvXvXvXvXvXvXvXvXvXvXcXvXvXmXvXvXZXZXZXm.B.V.n.S.F.J.J.D.x.k.^ I.n.n.b.D.D.D.V.H.b.n.4.yXZXZXr.iXZXcXBXvXvXvXvXvXvX",
"vXvXvXvXvXvXvXvXvXvXvXvXvXvXvXvXvXvXvXvXvXvXvXvXvXvXvXvXvXvXvXvXvXvXvXvXvXvXvXMXZXmXuX! I.G.S.S.S.D.I.x.c.^ ^ U.Z.J.D.S.S.D.D.I.l.).ZXxXZX2.MXBXcXvXvXvXvXvXvXvX",
"vXvXvXvXvXvXvXvXvXvXvXvXvXvXvXvXvXvXvXvXvXvXvXvXvXvXvXvXvXvXvXvXvXvXvXvXcXvXvXcXvXlXZX).~ I.K.D.D.S.S.v.*XB.E m B.I.L.L.G.L.I.z.8.mXBXBXsXi.ZXNXvXvXvXvXvXvXvXvX",
"vXvXvXvXvXvXvXvXvXvXvXvXvXvXvXvXvXvXvXvXvXvXvXvXvXvXvXvXvXvXvXvXvXvXvXvXvXvXvXvXcXZXvXZX XE C.P.K.V.L.C.4.8 u.BXm.E 4.k.k.d.Q |.mXjXgXZX~.8XmXZXvXvXvXvXvXvXvXvX",
"vXvXvXvXvXvXvXvXvXvXvXvXvXvXvXvXvXvXvXvXvXvXvXvXvXvXvXvXvXvXvXvXvXvXvXvXvXvXvXvXvXlXNXvXZXuXM.,.,.,.E Q M.:XBXjXZX X].@X X:XM.uXnXjXmX;Xs.ZXvXlXvXvXvXvXvXvXvXvX",
"vXvXvXvXvXvXvXvXvXvXvXvXvXvXvXvXvXvXvXvXvXvXvXvXvXvXvXvXvXvXvXvXvXvXvXvXvXvXvXvXvXcXBXBXlXZXZXZXZXdX$XCXjXjXfXfXZXu.MXZXZXBXZXu.-X7XM.h.ZXMXcXvXvXvXvXvXvXvXvXvX",
"vXvXvXvXvXvXvXvXvXvXvXvXvXvXvXvXvXvXvXvXvXvXvXvXvXvXvXvXvXvXvXvXvXvXvXvXvXvXvXvXvXvXvXvXvXcXvXMXVXvXi.ZXnXnXxXgXcXa.ZXNXMXvXvXZX3XoXuXZXMXvXvXvXvXvXvXvXvXvXvXvX",
"vXvXvXvXvXvXvXvXvXvXvXvXvXvXvXvXvXvXvXvXvXvXvXvXvXvXvXvXvXvXvXvXvXvXvXvXvXvXvXvXvXvXvXvXvXvXvXvXvXZX(.wXnXnXgXZX/.3XmXNXvXvXvXvXBXZXcXvXvXvXvXvXvXvXvXvXvXvXvXvX",
"vXvXvXvXvXvXvXvXvXvXvXvXvXvXvXvXvXvXvXvXvXvXvXvXvXvXvXvXvXvXvXvXvXvXvXvXvXvXvXvXvXvXvXvXvXvXvXvXnXgXZXj.&XgXyXj.%XZXvXvXvXvXvXvXvXvXVXvXvXvXvXvXvXvXvXvXvXvXvXvX",
"vXvXvXvXvXvXvXvXvXvXvXvXvXvXvXvXvXvXvXvXvXvXvXvXvXvXvXvXvXvXvXvXvXvXvXvXvXvXvXvXvXvXvXvXvXvXvXcXvXvXvXZX4X+X%XwXZXMXvXMXvXvXvXvXbXMXvXvXvXvXvXvXvXvXvXvXvXvXvXvX"
};
