/* XPM */
static char *b9d80863240c4416dfbbb3d4d9367d7fx8V0k0kzzSk6uokx[] = {
/* columns rows colors chars-per-pixel */
"80 80 172 2 ",
"   c #591F1B",
".  c #661E18",
"X  c #4E2313",
"o  c #4A2917",
"O  c #42261E",
"+  c #4B251C",
"@  c #452A1E",
"#  c #4C2A1D",
"$  c #552317",
"%  c #5A2517",
"&  c #54251C",
"*  c #5C241D",
"=  c #542A1D",
"-  c #5B2A1E",
";  c #64261D",
":  c #6B261D",
">  c #63291E",
",  c #6D2A1D",
"<  c #71261D",
"1  c #7C251E",
"2  c #722B1E",
"3  c #7B2B1D",
"4  c #6B301C",
"5  c #71301E",
"6  c #462722",
"7  c #4F2720",
"8  c #462B22",
"9  c #4C2C24",
"0  c #4E2E2A",
"q  c #532720",
"w  c #5C2622",
"e  c #542B24",
"r  c #5C2C24",
"t  c #502E2A",
"y  c #5D2E29",
"u  c #4C3326",
"i  c #553126",
"p  c #5C3124",
"a  c #55332B",
"s  c #5C322B",
"d  c #5E3430",
"f  c #5A3830",
"g  c #622622",
"h  c #6D2722",
"j  c #642C24",
"k  c #6B2C23",
"l  c #642D2A",
"z  c #6B2D2A",
"x  c #732621",
"c  c #792623",
"v  c #732C24",
"b  c #7C2C24",
"n  c #742E2A",
"m  c #7C2E2A",
"M  c #643125",
"N  c #6D3225",
"B  c #613827",
"V  c #693927",
"C  c #63322B",
"Z  c #6C322C",
"A  c #66392C",
"S  c #6D392D",
"D  c #743225",
"F  c #7C3226",
"G  c #703A25",
"H  c #74332B",
"J  c #7C332C",
"K  c #74382D",
"L  c #7C392E",
"P  c #692F30",
"I  c #7A2F30",
"U  c #643631",
"Y  c #6C3431",
"T  c #663933",
"R  c #6C3A34",
"E  c #6F3C3A",
"W  c #733532",
"Q  c #7C3632",
"!  c #743933",
"~  c #7C3A33",
"^  c #703639",
"/  c #7E3738",
"(  c #743A3A",
")  c #7B3B3A",
"_  c #7A403C",
"`  c #83241C",
"'  c #8B271E",
"]  c #832A1E",
"[  c #922B1F",
"{  c #832622",
"}  c #8E2724",
"|  c #832D25",
" . c #8A2D24",
".. c #832D2A",
"X. c #8B2E2A",
"o. c #912D25",
"O. c #9B2C24",
"+. c #932E2A",
"@. c #9A2E2B",
"#. c #833126",
"$. c #8C3226",
"%. c #84332B",
"&. c #8B342C",
"*. c #84392D",
"=. c #8B392E",
"-. c #943326",
";. c #9B3226",
":. c #93342C",
">. c #9B342D",
",. c #93392D",
"<. c #9B392E",
"1. c #8D2E31",
"2. c #833531",
"3. c #8B3532",
"4. c #843A34",
"5. c #8B3A33",
"6. c #863639",
"7. c #883638",
"8. c #843D39",
"9. c #8B3C39",
"0. c #933532",
"q. c #9C3532",
"w. c #933A33",
"e. c #9B3B34",
"r. c #933638",
"t. c #9A3739",
"y. c #933C3A",
"u. c #9C3C39",
"i. c #A02D25",
"p. c #A42F2D",
"a. c #A3352D",
"s. c #A9342D",
"d. c #A3392D",
"f. c #AB392E",
"g. c #B3342F",
"h. c #BB352E",
"j. c #B03B2F",
"k. c #A33633",
"l. c #AA3532",
"z. c #A33B34",
"x. c #AC3B34",
"c. c #A2363A",
"v. c #A43D3A",
"b. c #AB3C3A",
"n. c #B33634",
"m. c #B83030",
"M. c #B33B35",
"N. c #BA3A36",
"B. c #B33E38",
"V. c #BA3D39",
"C. c #C03D3B",
"Z. c #854235",
"A. c #894033",
"S. c #824039",
"D. c #8C423A",
"F. c #934235",
"G. c #9D4135",
"H. c #94413C",
"J. c #9C423C",
"K. c #A54034",
"L. c #AA4136",
"P. c #A2413C",
"I. c #AD413D",
"U. c #B1413A",
"Y. c #BA413C",
"T. c #933F43",
"R. c #A73A40",
"E. c #814641",
"W. c #944542",
"Q. c #9A4141",
"!. c #A04042",
"~. c #AA4641",
/* pixels */
"+ & r C L L F L #.#.v , F F 2 v &.&.,.,.,.#.b H b n H z y d a a P Y n n 6./ l j l Y W Q 7.1.2.H X.0.0.&.&...b L #.=.F 2 k j : h x k e # # 9 8 @ y M l r o o = j ",
"q q - w N D F #.F *.=.%.L *.F , ..&.$.w.=.&.&.m b m n z l y s a l Z ^ I I / Y r e l z ! I m m b ,.0.:.:.=.%.b #.=.=.=.v , k k v c H j - e 7 9 @ & w Z l o = - g ",
"r r r r N *.%.&.&.w.5.b 3 L L F | #.&.&.*.=.%...m Q z h g g C T s y l P Y Y Y M e e y y H H J L :.,.0.,.#.F F *.#.%.F v 4 D v < %.2.Q n C l # + w w l l p > k ; ",
"r r j * N Z.5.>.,.0.0.| v *.F L #.&.%.&.*.%.X.X...2.n z n H C l f y y T T y y r d y s a T ! K J &.0.e.:.v b F %.b J 5.5.L F 3 2 3.3.3.%.^ Z & & M y j l p M k : ",
"# & k v ..5.=.=.:.:.q.q.q.,.b 2 J 2.4.7.b b &.+.:.0.%.m H n j n z H K K n n n Q %.&.&.3.&.0.0.@.k.k.k.;.@.>.:.......5./ D F w.q.q.<.+. .2.%.: > j N v : : 2 2 2 ",
"= * Z J 5.5.5.=.q.,.w.e.w.,.=.*.m n %.%.3 b :.q.e.e.=.b m n v H W Q Q J 5.2.3.y.y.0.0.w.&.0.0.,.w.e.z.e.I.v.w.&.X.2.9.4.L H 5.w.>.>.:.+...m J : 2 F 5.2.b 2 : , ",
"j j Z L 5.2.=.=.w.w.e.q.,.,.=.=.J x v #.F &.e.<.e.w.#.F =.#.m b m m ....,.w.0.e.e.q.e.0.w.3.=.J %.F.P.d.e.;.w.w.r.y.W.6.L H J ~ ,.,.e.q.b b 5.....&.-.w.:.%.< , ",
"Y ! H H =.3.&.=.&.u.e.0.q.w.5.w.m x 2.%.*.w.e.z.e.e.#.*.=...9.=...3.y.e.<.d.z.>.t.u.z.k.&.%.L J F A.P.z.;.<.e.w.t.T.5.4.Q H L _ ,.e.v.>...` $.q.v.e.q.e.q.&.F 2 ",
"~ J m b 3 #.*.=. .#.F.F.,.,.,.e.F.,.G.F.#.A.F.F.$.F.$.$.:.$.&.=.0.e.z.z.z.a.l.x.b.b.b.v.,.| %.Z.G.e.q.<.G.G.e.<.9.8.! ! _ ) ( / 9.Q.Q.+.0.&. .o.&.<.;.-.l.p.+.X.",
"%.m 2.%.F F =.=.&.&.=.=.,.w.<.>.=.,.,.,.,.$.F F F 5.#.| #.&.&...:.e.z.<.v.>.q.v.k.t.e.v.w.%.%.5.G.<.e.G.K.G.F.&.Q ~ W A ( ) 8.8.4.5.y.1.0.0.w.,.[ -.<.d.l.q.1.X.",
"r.....m F #.%.=.=.=.#.*.=.,.G.>.$.F.,.,.,.5.2.J K ~ H n %.7.2.m >.q.<.k.v.e.>.w._ K N G F *.J.y.$.,.e.<.<.=.F 4 H ~ Z C Z ! D.8.H n I ..| { q.w.[ ;.d.;.t.q.X.m ",
"0.0.%.F F #.#.&.=.=.5.F #.,.e.@.$.G.,.&.0.%.J k A S z z L H H 2.z.<.z.x.x.e.y.5.5 N N V H 5.P.v.$.,.,.q.e.=.L Z j D C M A W 8.5.W W n 2.X.{ :.q.;.;.p.O.q.X.%.#.",
"7.9.3.r.%.%.F F D L *.F 3 ,.=.&.5.F.F.9.Q n H H l l P Y Z l z R y.Q.y.W.E.) ^ z f i s T n 7.Q.R.<.w.&.=.3.9.t.c.%.L b F %.2.L H h n %...n c c ..>.@.>.@.0.3.H k ",
"J b 2.5.2.2.L L F N F v b =.%.#.%.| #.| 2.2.6.4.Q W Y C Z l l Y 2.2.m H Z Z Z Y T C s T n 4.Q.0.w.=.%.%...3.y.T.H.5.%.F %...F b L m ..c v b x m o.,.} ` c b k ; ",
"~ D J J m x H k k , n n v b b F x | 3.%...3.0.w.9.Q k M Y Z j r k k z Q K H ! Z R R E Y Q W.%...L F L %.3.3.&.3.%.*.%.=.#.#...$.F #.{ { x x x x ` &.:.{ : : % % ",
"H J L H n n h h h j h n k v *.L %.%.3.&.#.&.0.>.&.#.G S ! C y M T R Z ! Z Z Z S ! Z Z Y z ~ H m N L H %.9.y.%.%.*.%.%.5.=.$.w.y.$...` o...c x : c =.X.b , , > - ",
"M S Z Z J m j > J H > ; < H Q m x ..3.3.3.1.7.r.2.%.Q 6.2.J n k D H ! E d d E ^ ! Y C Z Z j Z N L F #.&.=.=.w.&.:. .:.w.,.0.e.k.<.' } @.-.` 3 3 3 =.b 1 v > % X ",
"H H Q W %.J k , J H > ; < m J v v 5.%.m ....1.3.%.J m m m J H K 5 v z z d y E E R S Z S Z H H v 5 %.5.&.&.=.=.&.#.&.5.F.e.&.q.b.>.o.>.>. .`  .$.| &.b 1 v k > % ",
"3.3.%.%.%.Q H : k N , > : v m J b H v v : x 6.7.#.#.b b v F D F =.5.Q h T U R C B S H k v n L m 2 F 5.w...,.&.$.#.J #.L %.&.0.k.<.<.<.<.;.>.:.:.,.&.X.X.v k M % ",
"t.r.7.2.2.2.J h j j k j < h v n n h j D n v 7.L #.#.#.%.2 5 5 F ,.F.6.x Y U l y B S ~ 9.2.2.5.#., v =.&.,.,.&.#.L J v H *.5.z.k.e.e.>.>.a.l.>.+.&.&...X.m k N $ ",
"w.e.0.&.Q H D H k k k : j j n 2.H n v m %.m b ..%.3.:.+.{ &.%.b -.w.,.3 N j N S D L 5.e.,.w.*.b , v #...2.Q H N S k j H L 4.w.w.<.d.d.k.d.z.>.-.%.b D H H F v , ",
"w.&.3.3.~ k k H n n k k < ; . v m : h v m b c J &.&.&.X.5.H.w.y.<.q.,. .D D K k D L &.>.:.&.=.L %.=.*.%.n H N M j Z k n L F %.=.<.<.<.d.<.<.>.<.&.3 v F v k n , ",
"3.&.=.&.n v F %.m J I m b v h : h h n v b b m m &...#.%.*.#.| &.G.,.,.<.&.#...v b =.q.k.>.+.0.3.5.5.%.F k N M > k Z H H D F =.,.z.<.>.>.d.d.d.z.#.b 2 k n D D N ",
"&.0.0.=.m 2.5.4.m m m b 2.2.J N : n v n 7.2.2.%.:.&.%.#.L 2 1 3.F.e.<.<.&.&.....b X.t.l.q.q.0.3.&.%.%.F k j M B H H J H H %.D.w.G.<.<.-.k.z.z.a.&.#.v 2 N H L H ",
"b.v.r...%.&.| { *.3.3.3.*.=.5.%.H m v J ..m 2.4.5.4.J K Z j n Q w.w.v.v.,.,.%.b H 4.q.c.u.t.+.t. .X.%.#.F n k A z Z W H J 5.w.,.e.J.w.0.q.k.c.b.c.0...J n n n k ",
"R.J.w.&...| | ..0.5.0.0.%.%.*.5.J n J m b m J 2.3.2.L H j H H n &.w.u.z.,...#.%.D %.3.X.X.X.{ ..&.&.3.&.b H Q S k H H H m 4.w.w.>.q.:. .0.q.v.v.y.y.4.L J D n n ",
"w.5.&.=.&.&.w.y.q.>.,.0.5.*.L #.H n 6.4.4.4.L 4.%.m %.%.N H Z Z { &.e.v.w.=.m J v n v b b b c m ..&.X.X.%.m 8.H j k H H %.5.&.$.c.t.3.3.X.X.:.:.m m 2.~ J J H J ",
"4.#.%.&.&.w.J.J.q.q.q.:.5.5.#.L J m L 2.%.J H H Q n %.2.Z Z k S %.=.w.>.w.&.J J N j n n b v b b %.X.X.+.r.2.Q J Z Z H ~ 4.4.=.w.l.q.&.%.....3.X.L J 4.H v b m n ",
"5.5.&.%.&.<.b.n.v.q.q.q.u.y.4.%.Q Q n N k N H J J L H 4.K 4 v L $.:.o.o.$.$. .-.%.F 2 < , v 2 b :.0.0.@.w.3...&.9.m J 7.=.w.K.z.t.X.........3.2.2.H J n ..%.L 2.",
"w.H.J.w.<.q.b.x.v.k.v.v.w.w.5.2.2.Q Q m ~ 8.H m J ~ 8.2.L b v 4.$.,.-.-.$.$.,.,.%.#.b 2 v v b 2 &.0.0.3.,.w.&.3.4.5.3.5.w.w.u.b.t.....m b m ..3.Q J J J %.4.2.J ",
"&.J.v.Q.e.z.b.l.u.v.~.v.%.F 2.7.J J 5.9.4.J m 2.J J J J ,.:.0.w.<.e.q.&.$.$.>.-.#.F b v k D v , b #.%...X.3.&.| ..2...%.5.0.z.b.0...m ......3.3.Q J 6.4.3.2.4.%.",
"+.e.v.v.,.;.k.a.q.e.e.q.D F #...%.7.9.3.J #.%.3.L J 2.J @.v.q.q.k.z.e.,.$.$.-.&.| %.3.b D H F 2 < b b =.&.&...c b ..%.3.&.:.v.l.r.....2.....X...4.4.4.4.7.3.5.4.",
"#.=.0.<.>.q.z.q.3.&.3.&.b &.:.X.L 3.0.>.O.@.d.k.0.e.&.| <.L.K.K.z.K.-.$.$.$.$.,.&.&.=.%.J %.m m v v J J H k j , ....0.w.q.q.:.k.t.1.....n n v v 2.7.2.4.%.*.*.F ",
"b &.,.:.&.0.e.>.X.&.&.%...w.t.+.=.,.b.x.f.k.a.a.,.:.&.$.<.K.;.-.q.<.$.<.$. .o.,.w.&.| b v J v x k : v H N k D n m #.&.,.q.q.q.q.0.X...b n n n n 5.5.5.%.J J *.*.",
"&.%.=...F %.&.:.3.&.=.=.&.,.K.z.k.a.U.N.M.f.i.O.}  ...$.-.,.,.-.-.' $.$.&.' ,.:.&.,...| v v v v n 2 k v k k j H v F | &.q.z.k.+.m b v D x n n J 5.9.5.7./ Q 4.Q ",
"0...m b D F &.0...X.&.=.=.$.z.v.s.n.N.h.j.f.d.a.u.w.$.$.] ] $.,.&. .] $.#. .e.>.&.-.w.,.v : k v v H H D H h , N M D F #.@.q.l.+.b b k k v v n H 4.4.5.7.Q n Q Q ",
"v h x H m b b F -.:.;.<.$.#.L.j.g.N.M.j.f.x.s.M.b.x.>.,.#. .,.] F F #.#.5 L 5.*.F #.5.%.: , k M ; F *.*.D 4 4 , , b 0.k.0.q.t.@.3.m j A G M > N N K 4.4.K H m m ",
"v h v n b < 1 | ,.q.z.z.-.$.j.j.g.s.s.f.x.d.s.x.B.v.<.$.#.$.,.] b b %...3 &.3 1 ....$.&.v D k k 2 F &.%.L F F F A.=.] } | ` X.:.J H k Z H , k k H b J Q H Z j > ",
"D ; > g v #.,.t.>.>.z.z.-.<.N.N.M.s.;.<.e.<.<.<.x.d.-.-.$.-.$.$.| | &.:. .:.q.+.w.0. .{ h v D Z $.=.&.$.%.%.%.9.3 ] {  . .| &.#.H L N Z h v 4.9.3.5.4.b j j > p ",
"k > j p v 5.k.p.} +.>.a.;.>.m.m.n.M.o. .| `  .-.d.x.<.<.-.] $.-.q.-.q.q.q.z.U.k.z.e. .| b v N H ,.,.&. .&.&.,.0.,.w.e.:. .$.F F Z ~ H k v J y.y.t.y.9.H j j p = ",
"b | *.*.=.,.<.>.[ -.o.$.@.<.-.:.=.%.F 3 F J b %.K.K.d.f.<.;.;.-.,.-.;.i.x.x.L.O.-.:.<.>.o.} X.&.l.q.:.,.} q.q.e.e.y.&.3 =.w.%.L ,.0.w...| w.w.u.:.w.4.D B M = - ",
"3 L #.F 3 ] ,.;.<.G.' $.o.-.&.>.=.#.F #.F b *.=.K.L.d.;.<.<.$.-.$.-.d.f.x.B.B.[ -.>.v.z.k.q.>.q.c.v.+.{ } u.u.t.<.q.#.#.=.5.=.F &.w.w.&.&.w.w.0.:.&.%.b M > r w ",
": 2 *.F 2 3 ,.e.F.F.#.$.&.{ w.e.%.b F #.J #.w.5.-.;.K.d.-.<.#.$.-.d.L.M.B.M.M.V.x.z.d.d.z.k.l.b.b.v.+.&.&.&.&.X.w.e.b b #.b =.&.w.w.&.%.5.w.5.w.3.&.=.=.#.b 2.2.",
"> : #.%.5 F ,.:.] #.$.*.| $.w.w.=.#.#.#.#.=.#.=.[ -.K.K.,.&.,.#.K.L.L.x.V.M.N.C.L.s.s.s.k.k.b.B.b.v.+.:.......| >.w.w.%.%.5.w.t.y.&.b %.5.%.%.,.w.0...%.y.y.9.9.",
": 2 5 2 ' ,.=.#.5 3 #.$.b D.5.&.A.A.*.%.&.&.#.&.,.,.d.L.e.>.>.P.<.<.z.x.L.L.L.B.d.d.f.s.a.a.B.B.x.v.:.#.#.| #.,.,.e.G.w.0.:.&.,.w.%...&.n m b m &.,.{ b 1.9.r.3.",
"> , , 4 #.=.=.=.F F ..{ F 5.b | 3 2 F F %.&.&.w.<.e.z.x.v.k.d.x.;.;.x.s.f.x.V.V.x.d.x.x.<.d.U.x.B.k.-.$.&.| &.,.G.G.<.e.0.&.X.,.3.3.5.=.b 2.b m %.%.b b m y.y.2.",
"v , v F #.#.%.=.*.=.&.0.=.5.F 2 J J J H $.| &.w.G.z.x.z.x.x.B.f.I.M.k.p.V.Y.M.N.Y.M.x.d.;.;.x.x.x.>.<.:.X.:.e.e.e.K.e.v.0. .:.&.0.&.w.=.n J #.m F b b L m 9.4.m ",
"h , k F 3 F *.$.F &.&.:.=.#.D , H H v J $.| &.&.;.<.x.z.f.s.a.V.M.s.s.p.M.V.N.N.N.M.x.d.>.@.z.a.>.k.<.>.:.q.v.v.z.v.z.x.,.X.:.,.,.0.3.3.b m J | H F D F H 4.Q n ",
"g > j j ; j n k m 3.1.1.6.Q j - l l y P H F | } >.c.l.l.w.+.:.e.&. . .:.k.c.n.n.l.l.b.x.X.:.e.u.-.<.<.,.;.e.K.z.G.,.G.,.5.=.=.0.5.*.*.=.m 2.J b ..#.#.%.2.%.~ H ",
"> > > , : j j k v 2.3.&.%.2.L Q P z l j N 2 | ..q.q.q.+.#.w.0.0.&. . .:.} +.@.+.+.:.w.<.:.X.,. .:.&.,.=.&.0.w.w.$.,.G.-.J #.%.#.%.%.%.&.3.%.m 4.%.%.#.%.2.2.L J ",
"> w j Z k , : h 2 F F #.&.,.&.&.J m D K G F D 2 L L H k : %.e.0.&.w.w.X.@.0.:.:.X.=...%.X.{ X. .....A.Z.H %.J #.=.=.F.#.b F %.%.F #.w.y.2...%.2.%.#.J %.%.2.7.&.",
"* g k Z k > k j , 5 2 #.,.X.o.o.&.L D G L D 4 N N N , N N F 5.0.&.3.0.{ t.&.5.%.b m 2 F  .{ =.-.0.%.k N S n n n F #.*.#.2 %.%...| %.w.r.b m 2.J #.%.=.%.2.&.3.r.",
"e r g l h n v n b #.{ -.q.>.>.@.q.:.{ { #.J x v v v H m m J 2 F %...w.X.4.Q Q D M Z J H b #.*.&.%.%.n ~ Z j M M H H 2.J k N D k b m L %.v ~ 4.S.2.w.t.3.3.0.=.w.",
"r l w y z l k k b #.&.,.e.q.>.:.>.,.0.w.#.F 2.4.n v H 2.=.5.=.A.=.9.5.&.J H H Z k k Q %.%.w.,.=.3.2.Q 6.H , > N %.H Q Q k k k D J J J H n ~ Q 6...3.3.3.w.y.w.w.",
"l C l l w r w p , v #.=.A.#.#.&.&.&.,.q.5.9.9.#.H J J 4.5.,.w.&.=.D.J H ! W Z Z H m J %.w.w.0.,.@.X.m n D H n H m Q Q 2.n v v ..4.v 4 M > D Q ..2.r.1.X.w.y.=.5.",
"P U d a 9 7 = i Z D H #.A.*.F F &.&.0.z.=.5.4.m J J H H &.w.,.,.#.A.Q H ! Z C l n m %.3.e.z.e.w.q.q...c n L H n J Q ..%.m J %.5.5.N > = j M L ..3.3.H.Q.t.w...#.",
"J K k j j g Z C Z W W z Z H ! H L *.w.q.w.,.b F H N v H t.0.r.r.3.3.9.5.W k S Z W W 2.5.w.&.&.,.5.5.v k k N H H H Z : n F *.&.-.2.H Z p M Z W J ~ 8.4.4.0.3.3.X.",
"~ 4.H H z l Y C l Z z Z j Z Z S D *.=.z.q.,.#.F K v , ~ y.y.w.y.H.9.y.9.n h z H ! H 2.4.=.&.&.&.2.4.J Q ~ H H h > Z H N H L 4.%.%.Q ~ j M H H L ~ Q Q Q %.7.y.5.",
"#.L 4.4.^ W Y z r r j C r C l C 5 *.y.z.<.e.e.q.4.b k ~ 6.9.6.y.5.%.2.m H L H H n H J b #.&.q.w...4.5.2.2.2.H x j z ! Z C Z H S.9.7.4.n H ~ ~ 8.4.L L 2.2.2.5.4.",
"#.#.5.4.W Y W Z ( T C C r M s M F =.q.>.@.d.z.e.9.J H Z ~ ~ 6.9.2.m %.J H L H D H H %.F ..:.e.,.%.J 2.3.3.9.2.n n H Z r r e w z %.2.2.%.2.Q W ! 8.8.Q 4.2.J L 4.",
"X.3.6.L W W C T S Z K Z n H J H | #.e.e.b.v.-.$.~ J Z Z Q ~ 6.4.#.&.&.=.&.3.&.&.L 4.*.L 2.1.3.3.X.&.$.%.>.e.w.0.n j M e a y y P v J 2.2.2./ Q W H 4.7.Q ! ! ~ Q ",
"..2.L H ^ ! ! ( ! L _ H H L L *.&.X.P.G.b.P.&.#.L L H H Q 4.2.J %.5.w.0.:.w.0.&.F #.#.F 2...9...0.3.#.5.e.>.e.v.~ K M e p p y Y n J 2.4.6.Q ) Z n H W J ! ! _ ~ ",
"m H k Z n W / 6.t.u.0.@.>.<.z.x.u.e.e.,.w.w.5.L H J 2.2.J 2.2.2...3.3.w.v.!.v.u.3.5.#.#.6.Q J L %.=.$.J.I.b.b.b.u.0.2.Q v J 3.7.Q J L 6.6.6.^ z j j j H ~ ~ 8.8.",
"H H H ! W / T.T.y.e.q.q.d.x.>.a.v.e.t.y.w.%.5.L J 2.9.3.L 2.%.m &.&.w.y.b.v.k.c.v.J.3.%.Q n H L %.#.$.P.U.x.x.b.u.0.5.4.F F %.&.~ Q Q / 6./ n N M M > C Q ~ ~ ~ ",
"5.&.&.&.w.w.z.z.l.b.0.0.b.v.=.#.%.w.w.G.A.*.*.*.F #.w.3.#.%.%.F | -.J.v.q.+.v.u.5.,.w.w.5.%.n k J L 2.H.z.v.v.b.,. .=.A.=.#.&.w.5.4.2.7.m / ! P U y t e C Z Q Q ",
"%.&.,.J.w.e.u.e.t.u.t.e.t.u.=.*.5.w.y.5.#.4.*.*.*.*.%.&.L %.%.*.#.%.G.u.t.w.&.&.&.%.3.w.9.m n , H n m ..0.t.v.!.w.&.=.%.#...5.w.9.5.5.7.Q / ) Y C y y q j h Q 7.",
"#.,.F.G.e.w.w.&.:.r.y.w.w.w.5.5.5.=.w.&.v m L ~ 4.3.5.2.Q 2.%.6.D F 7.&.%.#.=.b 5.%.%.5.4.L Q N j > H H m I ..m b 5.=...X.3.r.r.w.5.9.2.Q W Z l e y M r M H 4.6.",
"=.&.w.w.e.e.#.&.0.w.w.&...%.5.9.D.9.9.w.m m 4.Q 7.7.9.7.I m %.Q Z.H 4.=.F %.%.L #.{ b | 4.L ~ H - j z J n I n n v 2.....1.3.3.1.w.5.9.4./ ! z l e r r j Z H 4.2.",
"2.7.%.y.u.0.F F J Q H z Z H W 4.5.4.6.2.) ! R _ ! ^ W ^ ^ H Y Y m H Q Q J Q H J 2 , F F m m 2.&./ P z z l U l y M U P I H H ! K J Q 8.5.~ 8.H k j > M - , N ~ %.",
"%.2...5.u.5.F L J H Z S S Z Z Q Q 6.4.Q ( ! p i A Y S Z z z l z 2.2.J Q H m v ; : , D L J v 7.2.W z h z U l y y r r z I H H W H D v 9.2./ 4.H , , j M , > H Q H ",
"%.2.m L 3.| 3 4.8.L S S A Z C Y v Q 8.Q ^ A r e l U T p w g g j ..m m Q J 2.n ; > N > j J v Q 4.! z W z l e y r r r z n H H Z k H n 8.L J ~ H H N M > K H H H N ",
"X.m k D | F b *.~ W Z T Y R C C H H H H j w r e i C s y g l r w m J %.Q J J k H g j j p j H J H ( I W z r y y e e l Y W H z z M Z J Q ~ J ~ D H Z > > ! L k j S ",
"w r j M v D H 4.S A C f s y s e p - p - q r l l z g   g q w   g m Q W H z Z W W Z z k l y r l y j Z z k w j j r w l ! ) Q J k n Y Y Y R W W z H H n n Q T y e i ",
"M j - M N N n H H R C p e e r e B A p - e w z H l j   g q w   l m n n Z l j z z z z l g r y l q $ j H H W ^ Y g g g Z ( Q J H j l l y l Z l C Y W z z n U U s s ",
"C M M p 4 p ; j Z K C = e e y r - B C j w j l z l j j g l e g z m H Z k y r r r z W z g w y l r - S W J W W / ^ Y l ! ) J W H z Y l l l B r C s l g g l w y y a ",
"M - r M p > p p k Z e i e r a e - M A S l C z k j g l j w w z n n n Z N s p e & P W ^ Y U q q y j Z ! H / n I W z l z n Z H H W P l l P p f i s y y w w q y 7 e ",
"= = w z n n Z S j k M - j j z z n H ..I H H Z Z N j M k r g W I H Z y e 8 u u 6 q 7 y U U s r y w j z Y ! W Y n j z z z Y z ^ z C e y s r T T T d t 8 8 0 t 7 t ",
"s w r j n H j M g k p - * k S H H n H Q Z Z Z H N * g j w g z n P P y a u 9 9 8 e q y U R U U C l C l l Y ! ! z w l l l Y Y z l y e e e r U E T s t # @ 6 t 0 7 ",
"r y s r k k * $ X = = & > j ! H H k H H k N S Z Z j % *   g z n l l C d a e 0 7 e e s T R R Y y j C j g z z l z l r M C C U U l e e e s U T f U d 7 6 O 6 6 0 t ",
"- w p s z j * & o o & - > k G Z Z Z l M j j j j k Z $   q P W I P Y U U s y y y e t d T Y U T l r C j z z z l j U C y C U s U U s e f s U U y C U # @ @ 8 6 6 0 "
};
