/* XPM */
static char *ground1[] = {
/* columns rows colors chars-per-pixel */
"80 80 256 2 ",
"   c #030000",
".  c #0C0000",
"X  c #0C080B",
"o  c #130100",
"O  c #1B0100",
"+  c #190A05",
"@  c #1C0B0A",
"#  c #1C1512",
"$  c #230201",
"%  c #2B0201",
"&  c #240A04",
"*  c #2B0B04",
"=  c #220709",
"-  c #230C0A",
";  c #2C0E0A",
":  c #330301",
">  c #330B02",
",  c #380C06",
"<  c #2C130C",
"1  c #28150C",
"2  c #381406",
"3  c #34130C",
"4  c #3B140C",
"5  c #2E0C14",
"6  c #2B1614",
"7  c #371A15",
"8  c #2B241D",
"9  c #38231A",
"0  c #3B1F20",
"q  c #3A2722",
"w  c #3E3130",
"e  c #460C03",
"r  c #471609",
"t  c #5E150D",
"y  c #54190B",
"u  c #441C14",
"i  c #491C16",
"p  c #521B16",
"a  c #58240B",
"s  c #482519",
"d  c #4C241C",
"f  c #502C17",
"g  c #552619",
"h  c #67270A",
"j  c #662A16",
"k  c #782A11",
"l  c #67331B",
"z  c #78371A",
"x  c #462926",
"c  c #4B2C23",
"v  c #522D24",
"b  c #5A2C24",
"n  c #4B332A",
"m  c #573528",
"M  c #4D3531",
"N  c #583935",
"B  c #682C27",
"V  c #683727",
"C  c #643B2C",
"Z  c #753C28",
"A  c #663C33",
"S  c #78431D",
"D  c #554131",
"F  c #5D4439",
"G  c #67432C",
"H  c #794529",
"J  c #684638",
"K  c #784937",
"L  c #77543A",
"P  c #663F48",
"I  c #5A4746",
"U  c #6A4A43",
"Y  c #784C42",
"T  c #6D5246",
"R  c #795647",
"E  c #695A51",
"W  c #795B54",
"Q  c #796347",
"!  c #796258",
"~  c #7C6A65",
"^  c #89391B",
"/  c #923A1A",
"(  c #A33D1C",
")  c #893B25",
"_  c #903A28",
"`  c #90421D",
"'  c #A94A1F",
"]  c #884629",
"[  c #974829",
"{  c #84502F",
"}  c #98522D",
"|  c #874C37",
" . c #974C34",
".. c #87553A",
"X. c #8B543C",
"o. c #9B5334",
"O. c #965739",
"+. c #9B543A",
"@. c #A44A2A",
"#. c #A7542C",
"$. c #B6572B",
"%. c #A54E33",
"&. c #A65635",
"*. c #A35C3C",
"=. c #AB5D3B",
"-. c #B35B39",
";. c #96623B",
":. c #AA623B",
">. c #B3633C",
",. c #B9673A",
"<. c #B86E39",
"1. c #C05C3C",
"2. c #C66839",
"3. c #865846",
"4. c #8B5D4A",
"5. c #925B44",
"6. c #985B47",
"7. c #925248",
"8. c #875C54",
"9. c #A85C44",
"0. c #B35A48",
"q. c #8A644B",
"w. c #996548",
"e. c #9C644C",
"r. c #8B6453",
"t. c #896658",
"y. c #966555",
"u. c #9C6C54",
"i. c #936B5C",
"p. c #9B6D5B",
"a. c #957354",
"s. c #9B7359",
"d. c #A46443",
"f. c #AC6444",
"g. c #AC6A45",
"h. c #A3644B",
"j. c #AB644B",
"k. c #A66B4B",
"l. c #AC6B4C",
"z. c #B86646",
"x. c #B36B44",
"c. c #B36C4C",
"v. c #BA6C4B",
"b. c #AB714E",
"n. c #B6734A",
"m. c #BC724C",
"M. c #A66A57",
"N. c #AB6C53",
"B. c #B36D53",
"V. c #B86B56",
"C. c #AC7354",
"Z. c #A3735C",
"A. c #AB745B",
"S. c #A87858",
"D. c #B47353",
"F. c #BC7453",
"G. c #B57B54",
"H. c #BC7954",
"J. c #B3755B",
"K. c #BB745A",
"L. c #B47A5C",
"P. c #BC7B5C",
"I. c #8A6B63",
"U. c #956D64",
"Y. c #9A7767",
"T. c #91776F",
"R. c #A57664",
"E. c #AC7B64",
"W. c #AD7168",
"Q. c #A47B6B",
"!. c #AB7D6B",
"~. c #B37B63",
"^. c #BB7D63",
"/. c #B67968",
"(. c #A77D73",
"). c #C36B49",
"_. c #C3734B",
"`. c #C67749",
"'. c #C56D54",
"]. c #C37453",
"[. c #C37B54",
"{. c #C97957",
"}. c #C37C5B",
"|. c #D47952",
" X c #C77D64",
".X c #D07D60",
"XX c #9C845B",
"oX c #A8835C",
"OX c #BA825A",
"+X c #9C8475",
"@X c #AA836B",
"#X c #BC8364",
"$X c #B48468",
"%X c #BB846C",
"&X c #BC8B6D",
"*X c #BC9165",
"=X c #A98576",
"-X c #B78775",
";X c #BB8B73",
":X c #BB9379",
">X c #C4835C",
",X c #CB835B",
"<X c #C88759",
"1X c #D48D56",
"2X c #D58659",
"3X c #E58959",
"4X c #C48464",
"5X c #C68767",
"6X c #CC8563",
"7X c #CC8B64",
"8X c #C3846B",
"9X c #C48B6C",
"0X c #CB8C6C",
"qX c #D58965",
"wX c #D38D6A",
"eX c #CA936B",
"rX c #D7946B",
"tX c #C38C73",
"yX c #C68977",
"uX c #CB8D74",
"iX c #D48C75",
"pX c #C49273",
"aX c #CB9374",
"sX c #C5937B",
"dX c #CC947B",
"fX c #C89A7B",
"gX c #D39373",
"hX c #D89877",
"jX c #D39B7C",
"kX c #ED9368",
"lX c #E59A6A",
"zX c #E49976",
"xX c #D9A37C",
"cX c #D0A97D",
"vX c #E7A772",
"bX c #E6A57C",
"nX c #B08C83",
"mX c #AE9487",
"MX c #B99585",
"NX c #C69786",
"BX c #CC9B83",
"VX c #CB978B",
"CX c #D59A83",
"ZX c #E19D87",
"AX c #CCA28A",
"SX c #D8A587",
"DX c #CBA696",
"FX c #D8A895",
"GX c #DCB291",
"HX c #E7A787",
"JX c #E4AC93",
"KX c #E7B498",
"LX c #F0B491",
"PX c #D9B3A6",
"IX c #ECBAA5",
"UX c #F5C9B1",
/* pixels */
"i X.q.f K MXY.-Xu % n.1XbXE.d & O o Y.dXzX:.H.,X1X1X9XUXU.% ..xXOXeXDXO w.JXk.UXMX3 t.A.[.6Xj pX0XS.S.L.f PXGX=X- o 6 + m 3.Y.AX@X] [ [ :.{ :Xq.2 L GXJXaXQ.D O ",
"H.<.<.`.<X7XHXIXu % OX2X<.hXLXrXO F :X7XlX%.N.g.<X1X<XKX3.o ..F.,.,.sXb h { w.% J 7 nXMXgXBXR ;XfXJ , O r XXGXLXC . mX&XqXgXa } O.h O.aX*Xw.<Xm.rXr.1 =XH KXf . ",
"x.[ >.#.>.[.}.HX% , [.2.-.'.|.1X6.$ R OXvX&.9.+.<.<.OXSX3.o K h.H.P.V O g d.N.r % O .   O   6 6 * . O 3.L.h d.6XB o t.%X.XL.z ]  . .9XH { oXhX{.rXNX6 s HXJXu o ",
"=.=.[ $.#.,.`.0X$ , v.2.$.,.-.`.HXv o OX<XgXK 9.>.2.m.jXY . C -Xh.a $ Z 5X0X#X0XX...s F ..6 X o > T R w.+.O.<XeXj * A O.z.}.h ] z uXHXxXSXw.g.&.k.Y.= :XdXyXK O ",
"^ %.@.@.&.$.`.6X: , 0.$.' %.@.2..XL.. q.OXSXZ j.-.$.x.L.R.$ = y.V : u.O.4XG.*.P.l.P.L.hX7XL + y n.7X4X[ 4X;.<XrXg O D H k k k o.k.^.jXKXoXw.L.HXCXMX  O 4...7 . ",
"o./ -.-.).:.`.rXp O +.#.` @.' ' `.u.. s.eXxXH D.].).qXdXIXN O * , e.jXz 5Xl.*.hX} g.hXbXLX4 . l <XH.7X] S XXeXxXE.o . w./ ^  .h d.H C.H H ..&X#XfXE     ;.K %   ",
"*.@.` _.>.].rXgXR O e.=./ [ @.$.kXe.O M.<XOXa O.o.,XrXsXA c . r w.P.4X] D.D.H.D.l.HXbXfXUXO   R m.;.w.jX{ ;.;.d.FXq   y.z.j.l.0Xl L.HX9XeXxXdXeXfX1 X . :XOX@Xs.",
"*.:.>.=.wXn. .V n . C c. .V.,.2.kXK o sXn.<XS jXP.G...* O   Y ..D.[.F.>X] P.gXd.hXHXgX7XKX.   3.:.n.jX7XCX9XoXxXIX6 o ..{.9.K.A.{ SXS.%XuX8XhXrXfX6   7 eXD.%XuX",
"&XeXxX;.u.g O o 6 F O : a J | g.>XB : iXhX<X*X;.n.qXK o ; R.SXhX} :.P.0XK { H r LXhXhXbXfX+   3.1XlX<X>XCXK ;XFXFX5 o r.E.pX;XH $XOX#XeXwXrX6X0X%X3 . U gX;.] ) ",
"J f 1 .   * n o !.VXe.3 6 X   . 1 2 i Z.SXxXxX>X].'.Z o a iX|.-.dXr.w.u.~.3 p.R.a G l S L . o R #XeX5XL.K 4 T 7 7 o . . 7 M f T NXA.5XOXqXrXvXgXR.% o J &X<X7XhX",
"O * 7 7 J DXPX$ 3.iXiXl.cXfX%X3.8     . G vX2X|.9.7.u ; U %XH.1X>X<X7XeXjXf :X&XoXS.eXeXDX7 . J BX9X0Xr H t.> @XR./.y.C d 7 * ; AXdXjX5XhXzXzXuXJ 1   8 fX6X3X{.",
"b.7XbXxXGXjXxX> V HXv.{.<Xx.v.zXJXMX5 . + m a * O   o - 6 i.pX7X|.|.2Xm.L.4 ;XBXpXw.eXeXS.7 . c Y.FXL q.GXfX; :X^.K.iXiXFX3.-Xs p./.BXFXSX6./.B 1     9 fXP.qX] ",
"[.<.,XrXrXvXOX& a IXf.`.-.,.$.|.1XlXiX, o   . 9 Y.a.G u . o n $XqX2.>.{.hXl K 3.H H O.] eX@X+   n =Xv ;XhXJX$ 4.dXc.K.4X| l R.K % * : 3.f O % o . o W R g ~.9.z ",
"`.`.<.`.1X3X1X1 J IXg.{.-.2.#.`.lXrXz * & F NXZXHXGXO.tX8..   8 :X8Xx.c.HXy y.JXSXgXxXHXwXUXNXn   O t.-XiXJXb g NX$X5.3.u.CX5.5.M.@XK 7 K Y.. + 8.W./.L.e j l } ",
"2X`.,.,.H.1X>X* 4 AX9X6X,.=.x.wXgX, . 7 Z.lX1X2X>X<XlX*.jXq.    q i.hX^.SXe R.A.9XrX7X0X7XP.UXI.  @ XX~.wXJX4., y.u.aXpX&X^.uXA.X.dXBXs.VXt.  6 W. Xz.%.+.] : g ",
"x.,._.x.x.qXHXi . u.#X]._.m.n.5X, $ x (.C.vX1X<X7X7XrXrXn.FX8.  o N e.9XZ.a s.SXk.6Xm.}.6X>XKXA . 1 :XL.>XKXB = %XpXgXF.H. X5XL.OXZ w.&XfXG   c %X].).@.( [ [ p ",
"hX6Xn.b.P.hXHXV O G eX,X_.kXxXq.  U | yXh.e.9X].]./.4Xn.<XvXCXc   1 3.g e $ , Z.jX4X<XxX7X7XCX3 . I =XG.4XSXO r sX X.X|..XqX4X;.eXH jX#X*X* . K $XOX<.$.( @._ Z ",
"2 R DXUX:XB Z 7.$ . R w.:.F.y.&   UXM.&.[.x.] &.=.l.+.o.`.`.qXGX7 X   < u.jXJ . @ D x 6 c G 7 #   I ~ :XAX@Xo J s.@XOX,X`.`.D.0XOX} <XjXd   O $XG ..eXn.0.@.^ ) ",
"G.j u , h e [ &.Z . ; SXrX>X> o * i.UXl c..Xz.].&.m.6Xd.<X6X<Xr + + t.SXqXqXhXNXm J q.t.L q . . I 7 O   o + . q J =X8X.X].g.S.FXY.s.b.3   $ E.W.7X] z x.^ t _ _ ",
"n.<X<X1X`.qX).3XP.$ O =X9Xe r ^.A., s ;X| 9.@.&.:.-.qXj.#X9Xl 2 . ! 6X`.,.,.).8XS.*X&XdX:X6 + =XKX$XsX$Xs.XX=Xo   J ;X/.iXtXK w -   n K Q.-XB.z.] / k t ^ _ _ ( ",
"qXz._.,.2.).$.2.rX, $ c $ a rX<.[.hX4., e 9.9.%./ 2.m.CXK C C % $ d #Xj.>.>.2X,X&.H.m..Xb   ! @X0Xv. XW.wXh.NXt.. 6 ! W O e b W @ . T.K B.v.).0.^ h [ k ) _ _ ( ",
",XqXqX2X=.#.2.$.2X> O 1 R HX2X`.5Xz CXFXv % |  X-.{.iXV > % O K s O 3 @X!.E.0XlX` ,.v.wXr . +X:XqX@.K.B. X9.BXL o     X =X5XtXnX-   T 6._.#.t } z.o.] h | _  . .",
"g.&.^ [ rXm.` 2.wXB O 3 NXC.1X1XOX&.{.V.BXg $ /.iXj.y $ $ , S.FXFXv . . ! =X;XH.#.{.{.CX: O J Z.} hX/.C.$Xs.2 J PX+XN = =X:.m.;X; . ! V ] kXHXO.a { X.a Z z h z ",
"B. .[ #.).,X<X7Xh...u $ MXk.1X1X7Xd.6Xv.P.uX: B Y 2 ; O d ~.P.gXpX;XJ O   M R.{ 9X%X-Xv . G 3.g > e yX@X-Xs L @Xq.=XR O !.[.,X5Xf . + nXC.[.6XjXuXy a w.^.c.f.6X",
"=.%.@.$._.2X,X&XV $ % O C dX>.<.rXO.bXgXwXiXM.d = + o 9 @X%X>XrXg.fXHX:X1   c s.E.C ;   s &XyXNXPXd > :XCXy FX:Xa.Y.N . s.7Xg.5X;X1   8 =X6.G.J.dXi A.~.F.v.=.9.",
"f.%.).{.rX:.j . & Y d O + @XxXHXDXs n J R T.c . J FX% o W  X'.n.S.G.5X&XAXf   + 6 o F L.eXb.D.P.P.dXC % 4 b C.^.k.@XJ o I.H.[.H.#XsX*   E PXw.Z.R.l 5.g.D.}.z.v.",
"qX{.0.Z % o 6 S.GXKXNXo o 8.C f * o & * O o & J AXSX5.o s yX0.f.S.C.L.G.w.Z.f 7 o x &X}.D.G.x.:.c.5XV 8.MXe.OX>Xg.9XL   ! W.k.uXE.@XG +   q T.=XMXT K P.].c.^.8X",
"B e % r l f $XcXeXxXIX4 O O $ 2 p 5.C.O.O.+.+.*.>XHXCX$ o %XV.d.G.hXhXiXeXu.U.5 O J (.D.F.F.[.{.l.j 3.Z.A.+.} >.} 0Xi.. U (.-X:Xq.s . .     . # 1 w t.5.5Xn.D.pX",
"$ V D.K.gX .b.SXLXgXpX2 O 9 s.u.g.+.v.^ o.[ -.%./ ] A.O o q.S.#X] 8XN.L.xXZ.R.u O x R.D.[.>.>.x.P.: dXM.k.o.^ ' :. XNXO 6 R N 9 &   9 =Xc . .       6 Q.3.=X@Xk ",
"N.iX[.v.C.k.| %X#X7XLX&X$ o R $XC.n.h ] / / ( %.-.#.HXi   7 q.X. .hXfX*XE.Z.r.u O o I.W.*.=.>.+.%XO -X8X0Xx.t ` &.4X:X1 . o . o > t.AXsXsXE.q.(.@ X X 9 8 n n u.",
"F.{.,Xz.D.0Xl k.rXrXxXGX8.o O U.l.| ] ] ) / ^ _ %.-.SXY $ + =XdX8X5.s.q.C L @X:Xo . N =XG.>.x.L.AX$ 3.VXw.X.g.:.g.$Xi.. . J r.p.3.$X^.b.n.H.qXAX=X6 + o . .   + ",
"E.rX`.`.|.,.*.;.*XvXvX$XMXU O % +.B. .k ] ) ^ _ %.2XdXU.r o E L 6.w.3.R.AX@XY.a.t.o o t.S.m.n./.+X7 c !.=Xy.u.L.&X;XW . X :XBX=Xy.A.N.6X{.).m.dXi.O 9 m < 2 6 + ",
"a 6XqX].hX| CXJ q.#XOXSXMX$ O G c.f.=.#.%.[ [ -.{.,.K p p O F E.u.u.b.4.8.7.K ..s.d o + ~.n.n.L @ . 1 2 E T C L ..R q   @ @XY.i.!.V sX9.V.'.}.!.d O i.;X#XgX0Xq.",
"u m A.^.rXZ M./.4XD.H.C.$ . ! :X.X@.-.#.@.@.0.M.j % Z hX3.o W W.C.E.@X-XW.R.S.X.a.!.; o U :X8.O   6 C O                 X =XS.$XM.E.K NX^.}.C.A O v ;X Xm.v.4Xw.",
"$ . Y A.z aX0X0X].:.P.9XZ & M ! ^.jXb.G.x.F.;.$ O Z.qXzXb   m H e.Y M.-X;Xs.R.a.3.u.K $ o ~ 1 . g NX%Xs.J v m C L I 9 X X T.&X;.N.E.t.K BX#XBXB   t.yXv.>.>XdX@X",
"B % $ 3 !...{ :. X%X%X-XW f 4 9 8 M x n D Q o u S.^._.hX3.o x R.R.3.Z K K H V K 3.q.R.N o #   C V.V.S.&XjXSXxXhXCXKX@XO . M @X;Xu.R.DXJ r d.y.U o t.VXP.[.hXe.s.",
"#.] : o * Q.SX6.L.K 3 $ o % , O . o $ o     c l. Xk.[.,XZ.$ $ R B V K K y.p.3.U.(.R x @ o o L #Xc.j.] OX`._.z.{.qX0XIXs $ . MXW 8.r.Y.a tXZ b u @ x AXg.>XO.^.0X",
"' |.w.o O O X.pXr o $ v W U.r u.l.9.7.) r.s s B.'.7X:.5XaXd . U.8.3.U.T.R U F N M 6     . U.E.J.4XO.g.qX>.].z.=.v.P.CXy.% . x +XmXnXd u.8X^.9.7.o ; cXx.<.} HX{.",
"2.2.5Xr.O O % N O - Y.=XPXZ g P.$.( 1.'.yXR . 6. XxX..AXpXK   ~ I.T O . . .   .   . M A O & 8.M.+. XOX#Xl.B.5X^.M./.u.B C * . @ ~ 4 K CXC.O.9.M.O c FXG.;.G.xXqX",
"`.,.m.hXAXl * - $ 4.BXC.JXu., C.$.$.-.'.OX:X$ f (.w.L r.M.Z.o X . O x . ; 7 J U A W VXLXi   @ y.7.iXjXS.S.~.sX:XBX8.* r.p.Y.; .   t.sX^.%XL.V.y.. U MXoX;.Z.Y.$X",
"n.[.2X<.bXS.x . 7 sXD.m.4Xw.: 7.-.m.m.`.,X6X6.% GXDX9   O .     = % O =Xt.U.K ~.l CX#XV.JX, o @ T.y.L w.L r.m r.N 2 @Xs.s.pX=X8 o ; dX6XjXyXCXW   X 8 .         ",
"n.qX2X2Xl 7 + + o N -XX.z P.: X.V.v.m.m.qX6X/.g O & - =XKXE.b nXY.B o U U.| 5.j g.c._.m.V.yXr o & +XR.&X*X&XMXq.2 r.s.S.S.pXAXU & - L H h l y i   # 9 G 4.8.U m ",
"qX>Xw.f o   q a.; . @ i.a.fXp Z F.x.:.[ c.e.i.; O n J -XdX^.uXpXNX@X6 5 Y.r.l xX7Xm.&.[  . XCXe . T MX@X&X:X:X9 XXi.@XS.C.&XfXt.2 $ 8.%XN.o.%.7.  I ;XOX[.j.J.g.",
"R.C o   < s.fXfXJXp o o O 2 o 4 | h.>X>.}.uX-Xo x U.4.H ~.J.AXS.Q i.% * Q.q.S.#XL.O.O.*.V.K.VXMX<   Y.@Xa.s.AXs =X3.3.;.w.W.Y.y.$ $ K W.M.B.9.) . T aX<X<.v.j.z.",
"o   6 Y.AX7X:.<XHXj | B 2 7 x o s -XD.m.{.rXg . U %XdXu.L b.S.XXXXq.d O r.V K aX9XC.L.S.9X;XMXU.& . s MXfX:Xq.v (.Y.(.4.u.nXmXT.M 9 n m J R p.m   E BX2X$.).{.'.",
"m !.hX[.rX6XrX,Xz D.SX;Xd /.FXf . 3.yX>X[.P.O + T.$XtXLXS &XpX;XfXfXu O G 3.b > b 4.Z.S.K K Y $ & =X* d MXMXI.n ! n U (.q.M   # X     .     o o   I.FXhX.X'.z.z.",
"^.2X3X3X`.0X5XV ..pX9Xe.: hXbX9X$ . | tXaX..o n =XS.u.FXw.w.5./.L./.s $ -X@XAXu.q.g f u e A Y % W MXQ.$ . . o . o 7 q 8 . . O o O 9 U t.T m = X q x J t.*X&XaXtX",
"B.).|.|.{.P.y 6.tXSXSX| : uXH.bXNXs . ; K 8.o m R ..H L i.r.IXZ./.!.7 $ Y.q.q.L 4.w.R.&X:XR.8.% F MXi.g T c T.W E M U o 3 Z M.!.7.yXNX%XyXNXx . y.-XR C f < 7 d ",
"6.V.V.v.7Xj O.B.k.OX;.r p FXhXOX$XNXi.O . + o 9 R.!.NXMXT . + 9 T T . s I.q...3.Z.u.$XAX6./.(.2 N i.4 q.Z.s.p.p.R.Q.7 > t.yX X/.6.] HX8Xk.~.+ . ..L fX9XW.S.x.x.",
"r VX6.7.X...#Xc.H.gXeXe 3.M.h.#Xl.A.i.7 M 4 * o K 8.v 3   + 1 # o   1 I.! s.r.r.s.u.C.yXW.M.3.2 . i.&X%XP.pXL.$XE.w.% u NX#X#XC.b.z Z fXfXr.  8 oXO.z HX'.v.'.].",
"% ^.0X^.h &X{ =.6XL.Z., ~.G.2X1X`.HXZ -XHXj.: O   .   * +X:Xl K J O D ~ q.i.I.I.=X(.(.!.$XR.U.$ . p.k.c.l.k.J.^./.sXu = (.5Xn.D.{.B.H V t.M   N S.k.} k 6X4Xl.n.",
"O 3./.M.2 { { ` z 4Xk.r #XH.m.,X7X5XB uXVXyX* . - v 8.MX:XAXAXL % O   . o O < - 7 c C t.i.v P 0 . I.E.9XG.4XOXk.L.BXG o p.4X*.F.c.K.M.MXW . O Z.P.g.:.O.j 6.8XP.",
": 3.VXK 6.D.H.6.O.D.}.y rXH.G.aXA.a zXhXNXv o m 3.z | 3.| H H a.I.o w W J b f ; ; % O . o O 6 # . T.8.E.C.G.#XOX$X;XC o R OX[ ] f.P.h.:Xc . v M.^.F.N.7.9.B ) #X",
"; 5 x u !.J.A.5.~.N.c.e N.5XCXw.V wXqXZXb o ; %XD.G.l.N.d.0XSX..DX% . nXsX~.sX-XNX%Xe.p.w.PXY.7   ! (.%XZ...E.E.&XPXK O Y.#XG.` c.f.M.p.o . F G Z.%XC.e.6.9.&.j ",
"      . x J r.r.R.5.k.+.l KXJ K yXl.gXC.> . r.^.:.x.}.F.c.OXjXu.(.A o J G.m.g.}.L.6X X0XaXSXR.4 O U NXtX@XW.NXy.i.nXx = nXk.K.g.{.D.tXV O o     9 Y.-X@X6.:.{.B.",
"W U < O O o . % i 3.-XsX, 3.R yXN.N.;Xr O 7 yX].>.:.F.c.}.m.rXxXW.$ O u.}._.x.v.B.m._.n.[.wXSXg = v e.5.v $ $ : p : $ u nXJ.c.x.} O.e.L - I.I o   O 9 +XBXg.<.D.",
"HXLXJXhXp i B % % . . n N s FX%X{.CXm o o R.[.qX{.g.c.o.n.:.7XgXe.% . (.J.f.m.g.D.G.F.x.m.P.BXd O d r p C !./.y.!.-X% 7 VXD.D.g.f. XaXY O T.U.u.b % .   J pXJ.z.",
"1XlXlXLXu x (.w.C s @ o . * G aXzXK o . Y L.x.].{.f.j.] l.} <Xb.W.e . * %Xj.D.| M.V.j.f.,X5Xq.2   nX:X;XfX;XsXC.BXSX$ ; AXD.}.}.].D.yXf - NX'.v.uXA.N =   x ;XiX",
",.{.{.dX, x MX{ 6.9.9.s   o   5 n o o b K.} *.0.V.V.}.*.g.} b.e.FX3.% o R NXR.X.j.&.z.[.m.lXH *   mXE.#X%X4XD.D.G.9Xr $ DX&X9X#XsXFXT.o 3 xXv.z.D.D.W.7.$ . 6 N ",
"#.-.=.^.r * !.| j.9.| e R =Xc O o   F R.M.O.%.-.).9.} &.&.G.*.W.4.O 5 W O , Y BX6.N.j.C.5XS.b o 6 n r.E.~.^.J.x. XtXY o W Q.:X@XY.N o O G 9Xz.>.o.=.z. XM.s o $ ",
"#.@.[ k e.: p. .| w.p % yXVXIX7.. o 6 W y.M.%.%.%.#.&.z.z.0.B.E.$ o y.VX| g % b BXA.B.;XI.6   + x % o $ A /.~.~./.CX6.p 4 w - o . O o = Q.-Xz.z.#.#.`.).W.R.O = ",
"@.` [ z aXa 3.6.q.L . .. X X9.B i.@ O o W (.M.:.#.] o.^ =.'.uXg . f .X&.'.qX] $ OX5X9XL o   o i.JX~.A * o O r.W.~.-Xa Y.(.  # o 4 4 I.v $ /.9XB.n.x.=. XyX3 * e.",
"^ [ #.` L.r.L 4.c . T ;X^.5Xh H.iX_ : $ = x Y.pXS.C.G.J.K./.yXu . Q 5X9.9.j.%Xr y.s.f O . 6 U.8X].wXyXY Q.3 o . $ J J @X+X  M U.;X/.-XyXj O 3.VX8XA.L.!.: O 8.V.",
"/ [ &.: b Y * O . D +X-XBXh <X[.1.ZXZ % o O . + G w.5.Z./.MXPXv O I.=XMX-X=XnXq     o O m !.%X X).6Xz -XsXs.V b $ O . . .   n CXD..Xj.j.wX .o i p.-XMX% . 8./.V.",
"/ _ +.g % O   * : % : $ V aX}.{._.{.6X^.U.v O + . , v m N N & . $ O o o , $ . 1 6 5 o N !.+.9.f.J.7.4.aXc.6X^.%XNXt.; < o   J &Xn.m.].K.B.0X~.g = 7 0   L /.'.z.",
"^  .9.: ; o 6 3.W.B : : O Z.F.]._.m.x.B.HXW.$ o x : O . .   o 7 4 R oXa.H X./.;XDXg $ @ R.*.&.0./.f L tX1.'.V.iX-X% 7 N q   + tXF.*.x.N.j.N.G.4X/.c   7 @XV.1.9.",
"_ M.C 7 < r k.].[.iX~.r % . J -X>Xm.=.F.uXK % . P W.7.C L X.;XVX> f ^.D.qXqXqX].CXy.$ o Y /.6.C.@Xo   Y zXiXFX8.6 . Q.GXr..   R sXC.d.x.z.>.2.g.-Xr X R /.D.9.$.",
"Z K 4 O $ 6.x.`._.F.wXSXG % o % K &XtXgXdXe.$ o P M. X8XOXP. XyXm $ N.K.v.'.).v.B.dX4 . u W.M.e.; AXA O y.R = . O t./.8X^.6 o O R.BXL.f.>.z.d.~.-X, . 3.6.6.x.&.",
"4 O o . d V.0.m.v.}.H.0XJXL.p $ . o G ] J.e.% $ b L J.B.m.f.f. XM.% Z 9Xc.m.).].9.uX3.o o J e.r M.M.:Xu o . O d Z.8XK.V.iXi.$ O 4 Y E.;XtXyX-XNXMXM X v %Xo.v.^.",
"O o o r M.0.v.v.v.g.H.}.>XhXhXE.N   VXtXe.| p ; x K J.z.).z.m.k.K.h % %XN.g.f.g.H.4X-XN o O g 6.'.'.C.a.  N r.^.K.v.z.V. XyX, : O . s 8.r.C d x n 7 X O MXA.C.p.",
"O 4 J 6.6.x.>.*.f.9.v.].m.{.2XhX=X. u.dXFXMX7 @ @ Q ~.'.).z.g.n.].o.O | %Xd.D.B.#X9XsXT.1   G hX).).V.y.o N !.K.x.).v.D.M. X~.p.s & . < % % : : ; 3 o . J U L I ",
", b H S &.#.[ o.&.o.f.>.>.>.<.x.L.$ i -XA O o o @ > | yXV.9.d.d.D.F.4 2 -X$XE.~.A.Z.G $ o s %X'.V.'.}.6.= A /.'._.x.c.k.C.6Xh.BXnXO 7 m d 5.f. XBXMX- o o . - 9 ",
"; * V h @.[ o. . .[ [ &.#.#.&.#.].H O ; . o % f g e % b !.A.D.j.[.9XU.2 f 7 3 : . O 7 2 L yXV.0.0.V.K.h.O b /.K.].[.g.D.D.2Xf.sXT o J nX^.0Xv. XM.VXA 7 s & & = ",
"o o b z _ 7.9.o. .] [ %.#.@.[ @.gX3.$ . o 6 A m.6XB $ & < L %XK.6XL.L $ O % $ = $ 1 +XG 8X'.0.B.j.h.N.W.. c Z.h.g.z.{.z.v.`.v.sXf o @XtXH.v. X9./.y.$ Z %XE.%X$X",
"; O 5 Z ) _  .&. .)  .6.*.[ @.z.4.< . . c y.c.-.,.V.] $ * = , 8.c < . o : g 5.@Xu O N H ~. X0.z.g.:.z.W.o c u.X.j.j.*.9.9.:.sXi.< C y X.eXc.J.9Xy.O , u.HX0X>XyX",
"C % O P V ) [ o. .o.9.f.9.&.{.6.5 - . 2 5.0.v.v.x.z.iX$Xi : 5 O o . O Y pXSX>X0XV $ % g 7.VXV.j.g.D.%X) . Y A.o.=.v.K.j.w.oXr.o 3 -XF.e b VXsXC o % K yXk.[.n.tX",
"R.= o v K  . .7.o.@.$.$.z.D.K ; . . , 5.d.c.F.9.qXqXH.eXSX7.b N + 6 R.^.D.m.].6X/.: $ O x 8.U.W.Z.Q.=Xu o y.5.) [ z.9.=.}.A.o 4 -XB.C.K.B 6 = b p | W.h. .B.c.~.",
"X., $ : | Z ) | } @.#.-.V.L 0 .   ; M.o.9.} +.V.V.K.}.m.F.uX7.i . 6 /.9.]._._.v.CXe.4 o o . 5 x O R I o 9 T 4.| o.:.F.].6Xd O 5.K.K.M.M.nXo u AXw.h. .+.o.j.j.g.",
"hXZ % , K 7.) ] 6.9.3.A c O .   6 W 7.@.&.o._ 7.7.0.f.>.]. X7.o . F 0.-.).).,.=.l.8X;X+X1 o - o % O o o o O L r.5./././.V . K w.o.*.V.NX7   U.3.y.O. . .9._ 6.j.",
"dX7.% i g | 7.3.4.N o . . o ; * X 4 6._ =.9.%.7.7. .=.,.].8X% O @ U.O.o.f.f.z.f.:.c. XDXo . U 6.{ j g 2 3 $ o 4 R U.T.U O x W.+.k.N.M.t.o u u g 3.y.M.e.7.| 6.7."
};
