/* XPM */
static char *house1[] = {
/* columns rows colors chars-per-pixel */
"80 80 169 2 ",
"   c #010102",
".  c #070508",
"X  c #09060A",
"o  c #0C0A0D",
"O  c #18150D",
"+  c #030316",
"@  c #0F0D10",
"#  c #01021A",
"$  c #060A1B",
"%  c #0C0C1A",
"&  c #110E12",
"*  c #100F1B",
"=  c #141315",
"-  c #171917",
";  c #151419",
":  c #19171A",
">  c #1B191B",
",  c #221F17",
"<  c #211B19",
"1  c #262217",
"2  c #2A2B17",
"3  c #252419",
"4  c #2C2219",
"5  c #2C291A",
"6  c #362D15",
"7  c #3B3415",
"8  c #3B341A",
"9  c #141522",
"0  c #1C1E38",
"q  c #211E21",
"w  c #252325",
"e  c #272229",
"r  c #29262B",
"t  c #2C2B2C",
"y  c #2F302F",
"u  c #2F2D30",
"i  c #302C31",
"p  c #343334",
"a  c #39373A",
"s  c #3C3B3C",
"d  c #423B14",
"f  c #493A16",
"g  c #453D19",
"h  c #503D16",
"j  c #3F403F",
"k  c #4D4319",
"l  c #514413",
"z  c #534D14",
"x  c #53431C",
"c  c #604D15",
"v  c #645311",
"b  c #63591A",
"n  c #745C1A",
"m  c #6E6614",
"M  c #6C6518",
"N  c #726612",
"B  c #7D6312",
"V  c #7F7316",
"C  c #323541",
"Z  c #3F3E40",
"A  c #413F42",
"S  c #434344",
"D  c #494748",
"F  c #4C4B4C",
"G  c #555355",
"H  c #595759",
"J  c #575859",
"K  c #5B5B5C",
"L  c #605E61",
"P  c #646465",
"I  c #676768",
"U  c #696769",
"Y  c #6D6C6D",
"T  c #616576",
"R  c #6F6F70",
"E  c #737374",
"W  c #787877",
"Q  c #767578",
"!  c #7B7B7B",
"~  c #937A0D",
"^  c #866B16",
"/  c #857915",
"(  c #987715",
")  c #998D0B",
"_  c #998D13",
"`  c #9F9510",
"'  c #A18D0E",
"]  c #AD970D",
"[  c #B6970C",
"{  c #A98212",
"}  c #A58C12",
"|  c #B08F13",
" . c #B49E12",
".. c #AEA00E",
"X. c #B4A008",
"o. c #B8A414",
"O. c #BDAB13",
"+. c #C79B13",
"@. c #CBA70A",
"#. c #CABA0A",
"$. c #D6B808",
"%. c #D3BC0A",
"&. c #CBA713",
"*. c #C3B216",
"=. c #DAB11D",
"-. c #E2B108",
";. c #EDB80D",
":. c #F4BD00",
">. c #E0AF14",
",. c #E2CE04",
"<. c #FDC300",
"1. c #FFCB01",
"2. c #E2D507",
"3. c #EEDD03",
"4. c #F3D407",
"5. c #FFD200",
"6. c #FFDD00",
"7. c #FEE301",
"8. c #FFEB02",
"9. c #FFF101",
"0. c #FFFF02",
"q. c #8F846B",
"w. c #80807F",
"e. c #C8A644",
"r. c #7F7E80",
"t. c #807F80",
"y. c #838384",
"u. c #878887",
"i. c #878789",
"p. c #888789",
"a. c #8D8C8D",
"s. c #8F8F90",
"d. c #908F90",
"f. c #929292",
"g. c #979799",
"h. c #989798",
"j. c #9B9B9B",
"k. c #A0A09F",
"l. c #9E9FA0",
"z. c #A09FA0",
"x. c #A3A3A4",
"c. c #A6A7A8",
"v. c #A7A8AA",
"b. c #ABABAC",
"n. c #AEAFB0",
"m. c #AFB0B2",
"M. c #B2B3B4",
"N. c #B8B7B7",
"B. c #B5B7B8",
"V. c #B8B7B8",
"C. c #B7B8BA",
"Z. c #BBBBBC",
"A. c #BDBFC1",
"S. c #BFC0C2",
"D. c #C5C5C5",
"F. c #C6C7C9",
"G. c #CBCBCB",
"H. c #CFCFD0",
"J. c #D0CFD0",
"K. c #D3D3D3",
"L. c #D6D7D9",
"P. c #D8D7D8",
"I. c #DCDCDC",
"U. c #E0E0DF",
"Y. c #E4E4E4",
"T. c #EBEBEB",
"R. c #F4F4F4",
"E. c #F7F8F7",
"W. c #FEFEFE",
/* pixels */
"T.W.W.P.G.P.W.W.T.G.G.E.W.E.K.G.U.W.W.Y.G.G.W.W.R.G.G.T.W.W.K.G.K.W.W.T.G.G.R.W.W.G.G.K.W.W.Y.G.G.E.W.W.D.G.I.W.W.I.G.G.W.W.E.F.G.T.W.W.P.G.K.W.W.T.G.G.R.W.W.K.",
"T.W.W.K.D.P.W.W.T.D.G.E.W.W.G.D.U.W.W.I.D.G.W.W.R.G.D.T.W.W.K.G.G.W.W.T.D.D.R.W.W.D.G.K.W.W.Y.G.D.E.W.W.D.D.I.W.W.I.G.G.W.W.E.D.D.T.W.W.K.G.K.W.W.R.D.G.R.W.W.G.",
"Y.Y.Y.T.T.T.Y.Y.Y.T.T.Y.Y.Y.T.T.T.Y.Y.T.T.T.Y.Y.Y.T.T.T.Y.Y.T.T.T.Y.Y.T.R.T.Y.Y.Y.T.T.T.Y.Y.Y.T.T.Y.Y.Y.T.R.T.Y.Y.T.T.T.Y.Y.Y.T.T.T.Y.Y.T.T.T.Y.Y.Y.T.T.Y.Y.Y.T.",
"Y.D.K.E.W.R.G.F.T.W.W.P.G.K.W.W.T.F.D.R.W.W.K.G.P.W.W.Y.G.D.W.W.W.G.G.I.W.W.P.G.D.W.W.E.K.I.E.W.W.K.G.G.W.W.T.D.G.R.W.W.G.G.K.W.W.Y.G.G.E.W.W.G.G.Y.W.W.I.D.K.W.",
"Y.G.G.E.W.E.G.F.T.W.W.P.G.K.W.W.T.G.F.T.W.W.K.G.P.W.W.Y.G.D.E.W.E.G.D.Y.W.W.P.G.D.W.W.E.f.s K I.W.K.G.G.W.W.T.G.G.R.W.W.J.G.K.W.W.Y.G.G.E.W.W.G.G.I.W.W.I.G.K.E.",
"T.E.E.I.P.Y.E.E.Y.P.P.R.E.R.I.K.Y.E.E.Y.P.P.E.E.R.P.K.T.E.E.U.P.I.E.E.T.P.K.R.E.W.G.K.T.!   a K.P.R.W.W.Y.I.Y.E.E.Y.P.I.E.E.R.P.K.T.E.E.Y.P.I.E.E.T.P.P.T.E.R.I.",
"T.W.W.P.F.P.W.W.T.D.F.E.W.E.K.F.Y.W.W.P.G.G.W.W.R.G.F.T.W.W.K.G.J.W.W.T.G.D.R.W.W.  Y u > o Z.K.G.E.V.G W G.Y.W.W.I.F.G.W.W.E.D.D.T.W.W.K.G.K.W.W.T.G.G.E.W.W.K.",
"T.E.E.I.K.I.E.W.T.K.J.R.W.E.K.K.Y.E.W.Y.J.K.E.W.T.K.K.T.W.W.P.K.K.W.E.T.K.G.R.W.E         y.E.K.K.I.K     > R.W.E.Y.K.K.E.W.R.G.K.T.W.E.P.K.I.E.W.T.G.K.T.W.E.K.",
"Y.K.K.E.W.R.K.J.Y.W.W.I.K.P.E.W.T.K.G.T.W.E.K.K.I.W.W.T.K.J.E.W.E.K.K.Y.W.W.I.I.f.D.f.R Y K.T.W.W.T.K X < B.W.K.Y.R.W.W.K.K.I.W.W.T.K.K.E.W.E.K.G.Y.W.W.I.K.P.E.",
"Y.G.G.E.W.E.G.G.T.W.W.P.G.K.W.W.R.G.F.R.W.W.K.G.P.W.W.Y.G.D.E.W.W.G.D.Y.W.W.I.G.G.W.W.W.K.G.Y.W.W.P.Z.; ;   P Z.: I.W.W.G.G.Y.W.W.T.K.K.E.W.E.G.G.Y.W.W.I.D.K.E.",
"Y.P.I.R.R.T.I.P.Y.R.R.U.I.I.R.R.T.P.P.T.E.R.I.P.Y.R.E.Y.P.P.R.R.R.P.P.Y.E.R.Y.P.P.E.E.T.P.I.Y.E.R.U.K.K . : o w   p E.E.Y.Y.j.! E F H P I.E.R.I.P.Y.E.R.Y.P.Y.R.",
"T.W.W.P.G.P.W.W.T.G.G.E.W.E.K.G.Y.W.W.Y.G.G.W.W.E.G.G.T.W.W.P.G.K.W.W.T.G.G.R.W.W.G.J.K.W.W.Y.G.G.E.W.W.  .         f.I.R.w o . .   w Y.K.J.K.W.W.R.G.G.R.W.E.K.",
"T.W.W.K.F.P.W.W.T.D.D.E.W.E.J.F.I.W.W.I.D.G.W.W.R.G.D.T.W.W.K.G.G.W.W.T.G.D.E.Y.W.D.G.J.W.W.T.D.D.E.W.W.B.K.Y.I.W.D.f.Y.y.y o : : & U.W.K.F.K.W.W.T.D.G.R.W.E.G.",
"T.T.T.T.Y.Y.T.T.Y.T.Y.T.T.T.T.Y.T.T.T.Y.Y.Y.T.T.Y.Y.Y.T.T.Y.Y.Y.T.T.T.Y.Y.Y.E.s R.T.Y.T.E.Z.u.R.Y.T.T.T.T.Y.T.T.T.T.T.T.R.W.D o :   x.E.T.Y.T.T.T.T.Y.Y.T.T.T.T.",
"Y.G.G.E.W.E.G.G.T.W.W.P.G.K.W.W.T.G.D.T.W.W.K.G.P.W.W.Y.G.D.W.W.W.G.G.I.W.W.f.  x.W.W.W.B.  P W.W.K.G.D.W.W.R.J.G.T.W.W.x.t y ; o p t.K.E.W.E.G.D.Y.W.W.I.G.K.W.",
"Y.D.G.W.W.E.G.D.Y.W.W.K.D.K.W.W.R.D.D.E.W.W.G.G.P.W.W.Y.D.D.W.W.W.D.D.Y.W.W.p   R W.W.E.w   D W.W.J.G.D.W.W.E.x.p D.W.I.s   ; :   K.I.G.E.W.E.G.D.Y.W.W.P.D.J.W.",
"T.R.R.Y.I.Y.R.E.T.P.I.T.E.T.I.I.Y.E.E.Y.I.I.R.R.T.I.I.T.R.R.I.Y.I.R.R.T.T.t.X & r E.R.P . = w I.U.R.R.R.I.Y.D.o   F K.p o : : :   d.W.R.Y.I.Y.R.E.T.I.I.T.R.T.I.",
"T.W.W.P.G.K.W.W.T.G.G.E.W.E.K.G.Y.W.W.I.G.G.W.W.R.G.G.T.W.W.K.G.K.W.W.W.M.  = :   N.I.h.r o o V.G.E.W.W.D.I.H   : . X > - : : & > K.W.W.K.G.K.W.W.T.G.G.R.W.W.K.",
"T.W.W.K.D.K.W.W.Y.D.F.E.W.W.G.D.I.W.W.I.F.G.W.W.R.G.G.T.W.W.K.G.K.W.W.B.& & : : ; ; > = @ o f.K.G.E.W.W.D.T.o ; : - : : : ; =   Q W.W.W.K.D.K.W.W.T.D.G.R.W.W.J.",
"Y.G.K.E.W.E.K.G.T.W.W.I.G.P.W.W.R.G.G.R.W.W.P.G.I.W.W.Y.G.G.E.W.P p e   ; : : : - ; ; .   S E.W.W.P.G.K.W.W.  X . ; .   . = p p P W.G.K.E.W.E.K.G.Y.W.W.Y.G.K.E.",
"Y.G.G.E.W.E.G.G.Y.W.W.P.G.K.W.W.T.G.G.T.W.W.K.G.P.W.W.Y.G.D.W.W.Y.    : : : : : - : . Y k.K.T.W.W.K.G.G.W.W.  P w.  P M.s R Y.W.K.T.G.H.E.W.E.G.G.Y.W.W.I.G.K.W.",
"Y.K.P.R.E.R.K.K.T.E.E.U.K.P.E.E.T.K.K.T.E.E.P.K.I.W.W.Y.K.G.E.E.W.G.w.& : ; % : = : ; q M.P.R.E.W.P.K.K.W.W.f.G.Y.b.W.W.U.K.I.W.W.Y.K.K.R.E.E.K.K.Y.W.E.I.K.K.E.",
"T.W.W.P.G.P.W.W.T.G.G.E.W.E.K.G.Y.W.W.Y.G.K.W.W.T.G.G.T.W.W.K.K.K.W.W.  : # _ *.8 = : & . s H G.G.E.W.W.G.G.Y.W.W.T.G.K.W.W.E.G.G.T.W.W.P.G.P.W.W.R.G.G.R.W.W.K.",
"T.W.W.P.G.P.W.W.T.F.F.E.W.W.K.G.Y.W.W.P.G.G.W.W.R.G.G.T.W.W.K.G.G.W.R.  ; : 2.O.z * : : . p M.G.G.E.W.W.D.G.Y.W.W.I.G.G.W.W.E.D.G.T.W.W.K.G.K.W.W.T.D.G.R.W.E.K.",
"T.R.T.Y.I.Y.T.R.T.I.I.T.T.T.Y.I.Y.R.R.Y.I.I.R.T.T.Y.Y.R.R.T.Y.I.Y.E.P.  ; 1 o.V d * : X G W.R.I.I.R.T.T.Y.I.Y.T.R.Y.I.Y.T.R.T.I.I.T.T.R.Y.P.Y.R.T.T.I.I.T.R.T.I.",
"Y.G.J.E.W.E.G.G.Y.W.W.I.G.K.W.W.T.G.D.R.W.W.K.G.P.W.M.! Y.G.E.W.W.K.M.  * k 7. .g * : . L K.T.W.W.K.G.G.W.W.T.G.G.T.W.W.K.G.K.W.W.T.G.J.E.W.E.G.G.Y.W.W.I.G.K.W.",
"Y.G.G.E.W.E.G.D.Y.W.W.P.D.K.W.W.R.G.D.T.G.W.K.D.P.W.!   W K.W.W.E.K.j.  = 7 &.' 6 * : . P K.Y.W.W.K.G.G.W.W.R.D.G.R.W.W.G.G.K.W.W.Y.F.G.E.W.W.F.G.Y.W.W.I.F.K.W.",
"T.T.T.Y.Y.Y.T.T.T.Y.Y.T.T.T.Y.Y.Y.T.T.D.w T.T.T.T.W.s o . i D.W.R.E.k.  * l +.{ 4 = : . a.E.Y.T.Y.T.T.T.Y.Y.Y.T.T.Y.Y.Y.T.T.T.Y.U.T.T.T.Y.Y.Y.T.T.Y.U.Y.T.T.T.Y.",
"T.W.W.K.G.P.W.W.T.D.G.E.W.E.K.D.I.W.W.Z.  R W.W.E.U.  : : =   r j.W.V.  * v &.;.> - - & D.W.Y.G.G.W.W.W.D.D.Y.W.W.I.G.G.W.W.E.G.G.T.W.W.K.G.K.W.W.T.G.G.R.W.E.K.",
"T.W.W.K.D.P.W.W.Y.D.D.E.W.W.G.D.Y.W.W.M.    Y.W.E.M.  : = % : o   p D o ; , g ^ ; ; - & L.W.Y.G.U.K.y.W.D.D.I.W.W.I.D.G.W.W.E.D.D.T.W.W.K.D.K.W.W.R.D.D.R.W.W.G.",
"Y.K.P.R.W.R.K.K.T.E.W.I.K.P.E.W.T.K.P.N.  o s P.R.u.  $ 5 8 $ : > & & : : * % % : : ; = G.U.R.R.P     b.W.W.T.K.K.T.W.E.K.K.I.W.W.T.K.K.E.E.E.K.K.Y.E.E.Y.K.P.E.",
"Y.G.H.E.W.E.G.G.T.W.W.P.G.K.W.W.R.G.K.b.  : . E W.p + M / 0.N # : : : : : : : : : : ; = f.Z.Q     2 O p W.W.W.I.I.R.W.W.K.G.K.W.W.Y.G.J.E.W.E.G.G.Y.W.W.I.G.K.W.",
"Y.D.G.W.W.E.G.D.T.W.W.K.D.K.W.W.T.D.G.M.  ; = M.U.> # #._ ,.8.q = : : : : : : : : : : : & ; . & 3 *.b . ! x.d.s S W.W.W.G.D.K.W.W.Y.D.G.E.W.W.D.D.Y.W.W.P.D.G.W.",
"T.W.W.K.D.K.W.W.Y.D.D.E.W.W.G.D.Y.W.W.K.P @ X s s.@ ; 3.o.) 0._ $ : : : : : : : : : : : ; - : * d  .M $         P R.D.G.W.W.E.D.D.T.W.W.K.F.K.W.W.T.D.G.E.W.W.G.",
"T.W.W.P.G.P.W.W.T.G.G.E.W.E.K.G.Y.W.W.T.Z.. = o   = , 9.#.V %.m % ; : : : : : : : : : : : : : % c $.g $ : > :   a.R.G.K.W.W.E.F.K.T.W.W.P.G.P.W.W.T.D.G.R.W.W.K.",
"T.E.E.P.K.I.E.E.T.G.J.R.E.E.K.K.Y.E.E.U.U.a.o & > ; : b z b $.4.$ : : : > : : : : : : : : : : * g | < ; : : : . p.T.b.Y.E.W.R.U.a.I.W.E.I.K.P.E.E.T.J.K.T.E.E.K.",
"Y.D.G.W.W.E.G.D.T.W.W.P.D.K.W.W.T.F.D.T.W.W.F.j.  ; 3 6.8./ 7.9.5 * : : : : : : : : : : : : : * n >.# : : : : . P W.H D.M.Z.Y.Z.p E.F.G.E.W.W.F.G.Y.W.W.I.D.K.W.",
"Y.G.G.E.W.E.G.F.Y.W.W.P.G.K.W.W.R.G.D.R.W.W.U.x.  ; < 4.9.N 4.9.z % : : : : : : : : : : : : : : ; = ; : : : : = t W.T.m.h.r b.D Y.T.G.K.E.W.E.G.D.Y.W.W.I.G.K.W.",
"T.I.Y.T.T.T.Y.I.Y.T.T.Y.I.Y.T.T.T.Y.I.T.T.T.E.L X : : ` X.l ^ ^ c $ : : : > : : : : : : : : : : ; ; > : : : : = w R.R.E.R.G.o j E.T.T.f.Y.T.T.U.I.Y.T.T.Y.I.Y.T.",
"T.W.W.K.G.K.W.W.T.D.G.E.W.E.K.D.I.W.W.I.F.G.W.p & : $ ^ @.{ ( 6.+.# : : : ; : : : : : : : : : : > : : : : : : ; - J.G.G.W.W.K.= J.W.Y A.T.G.K.W.W.R.D.G.R.W.W.G.",
"T.W.W.K.G.K.W.W.T.D.D.E.W.W.K.D.U.W.W.I.G.K.Y.; ; > # ( 1.1.6 6.:.# ; : = ; ; ; : : : : : : : : : : : : : : : : . y.K.J.E.W.W.w W W.Z.j.N.Z.P.W.W.R.G.G.R.W.W.K.",
"T.I.Y.T.T.T.Y.I.T.T.T.Y.I.Y.T.T.T.I.I.T.T.E.h.o : > # n 6.9.k ;.~ $ : : $ } O.# : : : : : : : : : : : : : : : : o j E.W.E E.W.p = j w - c.Z.Y.U.I.Y.T.T.Y.I.U.T.",
"Y.G.G.W.W.E.G.G.Y.W.W.P.G.K.W.W.T.G.D.T.W.W.F o : : = : B > $ # $ : : : # #.7.# > : : : : : : : : : : : : > : : :   M.W.N.K a.  s Z.x.K.T.W.E.G.G.Y.W.W.I.G.K.E.",
"Y.G.G.E.W.E.G.D.T.W.W.P.D.K.W.W.R.G.D.R.W.T.  - : : : = $ = : : : : : : #  .#.$ : : : : : : : : : : : : : : : : : :   F.T.K   o U.W.R.G Y.W.W.G.G.I.W.W.I.D.K.W.",
"T.E.E.I.J.I.E.E.Y.J.J.R.E.R.K.K.Y.E.E.P.x.s o = @ = : : : : : : : : : : # @.7.3 = : : : = * : : : : : : : : : : : : @ . U.F .   ; S a.N.T.D.K.E.E.T.K.K.T.W.E.P.",
"T.W.W.P.G.P.W.W.T.F.G.E.W.E.K.G.Y.W.W.K.X o = > S w - : : : : : : : : : $ V | h $ : > % 3 7 $ : : : > : : : : : : : ; p =   j V.F.! - y.p.y.P.W.W.T.G.G.R.W.E.K.",
"T.W.W.P.D.K.W.W.T.D.G.E.W.W.G.G.Y.W.W.T.D.  i R.W.h.  : : : : : : : : : $ B ;.^ # > # m ..3., $ : : : : : : : : : o         x.T.G.W.W.T.T.P.K.W.W.T.D.G.R.W.W.G.",
"Y.D.G.E.W.E.G.D.T.W.W.K.D.K.W.W.T.D.A.R.W.u.      > = : : : : : : : : : : = # # > % 7 %._ ] _ $ : : : : : : : : o K E.T.D.I.U Z.W.G.! K.K.T.W.D.D.Y.W.W.P.D.K.W.",
"Y.G.G.E.W.E.G.G.T.W.W.P.G.K.W.W.T.G.G.T.W.W.a.W f.F . : : : : : : : : : : ; : : ; ; ( &.n { o.* : : : : : : : =   D K.W.Y.I.T.K.W.x.D s u.I.W.G.G.Y.W.W.I.G.K.W.",
"T.P.I.E.E.R.P.P.T.E.E.U.P.U.R.E.R.P.K.T.E.E.T.Y.T.W.  & : : : : : : : : : : : : ; 4 1.:.1.<.-.& : : : : : : = > R ;   P d.! c.W.W.s u.G.E.E.E.K.P.T.E.R.Y.P.I.E.",
"T.W.W.K.D.K.W.W.Y.D.D.E.W.W.G.D.I.W.W.I.D.F.W.W.E.K.f.X - : : : : : : : : : : : % f 5.<.<.1.-.$ : : : : : : X M.W.E.f.    H H p = L W.W.I.F.K.W.W.T.D.D.R.W.W.G.",
"T.W.W.K.G.P.W.W.T.D.G.E.W.E.J.G.Y.W.W.I.G.G.W.W.W.I.G.t = : : : : : : : : : : : % v 5.<.<.1.[ % : : : : : ; w E.W.I.I.L   D.W.N.W s P B.F.G.K.W.W.T.G.G.R.W.W.K.",
"T.T.T.T.Y.Y.T.Y.T.Y.T.T.T.T.Y.Y.T.Y.T.Y.Y.Y.R.D.: G W.L & : : : : : : : : : : : % c 5.<.<.1.B $ : : : : : = s E.T.Y.Y.W.G : : M.W.W.V.F.T.Y.Y.T.T.T.Y.T.Y.T.T.Y.",
"Y.D.G.E.W.E.G.D.Y.W.W.P.D.K.W.W.R.D.D.R.W.W.Y.K     s . o : : : : : : : : : : : * f 8.5.1.1.x $ : : : : ; = s P.G.R.W.W.I.K.j.o E.T.G.K.E.W.E.G.D.Y.W.W.I.D.G.W.",
"Y.G.K.E.W.E.G.G.T.W.W.P.G.K.W.W.R.G.G.R.P.x.A.d.  : . E s @ : : : : : : : : : : : $ 0 q.e.=.= X > : : : : = s Y.G.R.W.W.K.G.Y.W.T.T.G.G.E.W.E.G.G.Y.W.W.I.G.K.W.",
"T.T.T.Y.I.Y.T.R.T.I.P.T.R.T.Y.I.Y.T.R.E.U   w i.  =   u.c.  > : : : : : : : : : : : o 9 C T y.S   X : : : = s W.W.R.P.Y.R.T.R.U.I.T.R.R.Y.I.Y.R.T.T.P.I.T.R.T.U.",
"T.W.W.P.G.P.W.W.Y.G.G.E.W.E.K.G.Y.W.E.Y.j.& = . F t & = F @ : : : > : : : : : : : : : : @ o w a.z.G . o = : & X U B.  - R.W.W.G.G.T.W.W.K.G.K.W.W.R.G.G.R.W.W.K.",
"T.W.W.K.G.P.W.W.T.G.G.E.W.E.K.G.Y.Y.: : V.r @ o W P.  : @ : : : : : : : : : : : : : : : : : =   t a.m.L : X : ; o o ;   K y.K f.K.T.W.E.P.K.P.W.W.T.G.G.R.W.E.K.",
"Y.K.K.E.W.R.K.G.Y.E.W.I.K.P.E.W.R.b.  = : & t @ = r - : : : : : : : : : : : : : : : : : : : : > & . W D.b.F o : : : : : ;     p E.T.K.K.R.E.E.K.K.Y.W.E.I.K.K.E.",
"Y.G.G.E.W.E.G.G.T.W.W.P.G.K.W.W.R.K.y.o : X E.A @ = : : : : : > : : : : : : > : : : : : : : > > =   G Z.m.P.. : : : : : - : o F W.T.D.K.E.W.E.G.G.U.W.W.I.F.K.W.",
"Y.K.P.E.W.R.K.K.Y.W.W.I.K.I.W.W.T.Y.j.    = a i = : : : : : : : : : : : : : : : : : : ; ; &     & K m.m.A.p.. : : : : : : : . D.K.T.K.K.R.W.E.K.K.Y.W.W.U.K.P.E.",
"T.W.W.K.F.K.W.W.T.F.D.E.W.E.G.D.U.W.W.A.y.o = = : : : : : : : : : : : : : : > : = X o ; ; Z r.x.c.M.B.A.E o = : : : : : : : ;     Y.W.W.K.G.K.W.W.T.D.G.R.W.W.G.",
"T.W.W.K.G.P.W.W.T.D.F.E.W.W.K.G.U.W.W.T.P.= - : : : : : : : : : : : : : : =   . p G Q l.V.D.A.B.y.B.l.S . = : : : : : : : : - -   W.W.W.K.G.K.W.W.R.D.G.R.W.E.K.",
"T.R.T.Y.P.Y.R.T.T.I.Y.T.T.T.U.I.Y.R.T.R.K X : : : : : : : : : : : : : = o ; I b.M.Z.C.m.m.M.B.M.j.A . @ : : : : : : : : : : ; . Q W.T.R.Y.I.Y.R.T.T.I.I.T.R.T.U.",
"Y.D.G.E.W.E.G.D.Y.W.W.P.F.K.W.W.R.D.P.x.  ; : : : : : : : : : : : : = o R D.n.v.n.R M.M.V.g.J w   o ; : : : : : : : : : > : & a W.T.D.G.E.W.W.G.D.Y.W.W.I.D.H.W.",
"Y.G.K.E.W.E.G.F.T.W.W.P.D.K.W.W.T.J.P.= = : : : : : : : : : : : : : & Q A.M.K y.x.v.n.n.s       o & = = = = ; : ; : : : : : ; o Y W.G.G.E.W.E.G.F.Y.W.W.P.G.J.W.",
"Y.T.T.Y.Y.Y.T.T.Y.Y.Y.T.T.T.Y.Y.Y.E.F X : : : : : : : : : : : : : : & K V.Z.D.x.w n.n.n.x.f.f.Q Y F s t 9 w : &   . o = > : : :   a.W.T.Y.Y.Y.T.T.T.Y.Y.T.T.T.Y.",
"T.W.W.P.G.P.W.W.T.D.D.E.W.W.J.F.Y.T.@ = : : : : : : : : : : : : : : = & t Q x.F.H.B.M.m.M.B.B.C.Z.Z.C.C.n.v.j.p.Q P F :   & : : ; X I.W.K.G.K.W.W.T.D.G.R.W.W.K.",
"T.W.E.K.G.P.W.W.T.G.G.E.W.E.K.G.R.N.  : : : : : : : : : : : : : : : : : = X   & J r.j.b.M.B.C.B.m.n.n.n.M.M.V.V.C.l.m.D.j.t o : : . i W.P.G.K.W.W.T.G.G.R.W.E.K.",
"T.P.I.R.E.T.P.P.Y.E.E.I.P.I.R.E.R.j.  : : : : : : : : : : : : : : : : : : : : = o   X e p F Y f.v.B.D.A.M.Z.E W B.P f.C.E D.y ; : . o T.R.E.R.I.K.Y.E.E.Y.P.I.R.",
"Y.G.G.W.W.E.G.G.Y.W.W.P.G.K.W.W.R.H.s . ; - : : : : : : : : : : : : : : : : : : ; > : = @ @ @ & o o p L s.x.v.x.M.A.y.f.b.D.e o   a G.K.E.W.E.G.G.U.W.W.I.F.K.W.",
"Y.K.K.E.E.R.K.K.T.W.W.I.K.P.E.E.T.P.Y.J . o : : : : : : : : : : : : : : : : : : : : : : ; : : ; ; : & .     j M.g.! B.B.Z.P   p Z.W.K.K.R.E.E.K.K.Y.W.E.U.K.P.E.",
"T.W.E.P.K.P.E.W.T.K.G.E.W.E.K.J.Y.W.W.R.x.s   X ; : > : : : : : : : : : : : : : : : : : : : : : : : : > > . a B.l.f.M.A.J a b.P.I.T.W.E.I.K.P.W.W.T.K.K.T.W.E.K.",
"T.W.W.K.G.K.W.W.Y.G.D.E.W.E.K.D.I.W.W.I.J.Y.Y.K w     o : > > : : - : : : : : : : : : : : : : : : : ; o o S D.M.m.l.g.Y K.W.W.D.G.T.W.W.K.G.K.W.W.T.D.G.R.W.W.J.",
"T.E.E.I.P.Y.R.R.T.P.P.T.E.T.U.P.Y.E.R.Y.P.I.E.W.Y.k.U S         o ; ; : - : : : : : : : : : : : ; o   S j.Z.j.p.f.M.D.Y.E.E.R.P.P.T.E.R.U.P.I.E.E.T.P.P.T.E.R.U.",
"Y.G.G.E.W.E.G.G.T.W.W.I.G.K.W.W.T.G.D.R.W.W.K.G.I.W.W.R.K.M.k.Q S = = @ @ o & X X X . . o o X X . D b.b.b.x.K.J.K.E.W.W.G.G.K.W.W.Y.G.G.E.W.W.G.D.Y.W.W.I.D.K.E.",
"Y.D.G.E.W.E.G.G.Y.W.W.P.F.K.W.W.R.G.D.T.W.W.K.G.P.W.W.Y.G.G.W.W.W.K.G.G.Y.D.x.u.W x.j.Q P y.a.x.G.S.M.D.W.W.E.D.G.T.W.W.G.G.K.W.W.Y.G.G.E.W.E.G.D.Y.W.W.P.G.K.W.",
"Y.Y.Y.T.T.T.Y.Y.T.T.T.Y.Y.Y.T.T.Y.Y.Y.T.Y.T.Y.Y.Y.T.T.Y.Y.Y.T.T.T.T.Y.T.T.E.T.R.T.E.E.E.R.R.E.E.R.T.T.Y.T.T.T.Y.Y.T.T.T.Y.Y.Y.T.T.T.Y.Y.T.T.T.Y.Y.Y.T.T.Y.Y.Y.T.",
"T.W.W.K.D.P.W.W.Y.D.D.E.W.W.G.D.Y.W.W.I.G.G.W.W.E.G.D.T.W.W.K.D.G.W.W.T.G.D.R.W.W.F.G.K.W.W.Y.G.D.E.W.W.D.G.I.W.W.I.G.G.W.W.E.D.D.T.W.W.K.G.K.W.W.R.D.G.E.W.W.G.",
"T.W.W.P.G.P.W.W.T.G.G.E.W.E.K.G.I.W.W.U.G.G.W.W.R.G.G.T.W.W.K.G.J.W.W.T.G.G.R.W.W.F.G.K.W.W.Y.G.D.E.W.W.D.D.I.W.W.I.G.G.W.W.E.F.G.T.W.W.K.G.K.W.W.T.G.G.R.W.E.K."
};
