/* XPM */
static char *moon1[] = {
/* columns rows colors chars-per-pixel */
"80 80 254 2 ",
"   c #010001",
".  c #0B0102",
"X  c #050906",
"o  c #01010A",
"O  c #0B020A",
"+  c #130102",
"@  c #1B0302",
"#  c #140B05",
"$  c #1C0B05",
"%  c #130409",
"&  c #1B030B",
"*  c #1C0B0B",
"=  c #1C130C",
"-  c #010112",
";  c #0B0714",
":  c #110411",
">  c #230302",
",  c #2A0503",
"<  c #230A06",
"1  c #2B0A04",
"2  c #26090A",
"3  c #2D0C0B",
"4  c #330503",
"5  c #330C04",
"6  c #3B0E05",
"7  c #350909",
"8  c #281204",
"9  c #2C1409",
"0  c #3B1205",
"q  c #381608",
"w  c #3C150C",
"e  c #2B1411",
"r  c #371B14",
"t  c #37240B",
"y  c #282113",
"u  c #3B2511",
"i  c #2D2A2A",
"p  c #312C2C",
"a  c #3B3835",
"s  c #420A06",
"d  c #481806",
"f  c #571B06",
"g  c #531C05",
"h  c #611A0F",
"j  c #472109",
"k  c #5C2404",
"l  c #5B220A",
"z  c #552808",
"x  c #58340B",
"c  c #523118",
"v  c #672808",
"b  c #792C08",
"n  c #6B3507",
"m  c #783609",
"M  c #7F2C12",
"N  c #6E3812",
"B  c #7A3812",
"V  c #4A3325",
"C  c #453939",
"Z  c #744713",
"A  c #57472E",
"S  c #6F522E",
"D  c #4E4D4D",
"F  c #686969",
"G  c #891B04",
"H  c #842A05",
"J  c #952806",
"K  c #873708",
"L  c #973805",
"P  c #853611",
"I  c #9E3A15",
"U  c #A82E08",
"Y  c #A73904",
"T  c #AC3D02",
"R  c #B43603",
"E  c #B23C02",
"W  c #BA3907",
"Q  c #C53C04",
"!  c #994306",
"~  c #9A5608",
"^  c #8B4610",
"/  c #984717",
"(  c #885614",
")  c #995913",
"_  c #A34305",
"`  c #AA4907",
"'  c #B84806",
"]  c #A85408",
"[  c #B65A0B",
"{  c #AF4812",
"}  c #AB5811",
"|  c #B95815",
" . c #886114",
".. c #9D6C1F",
"X. c #AE6706",
"o. c #BA690A",
"O. c #B76B18",
"+. c #AA7413",
"@. c #9A7124",
"#. c #C34303",
"$. c #CC4401",
"%. c #C54B04",
"&. c #CD4B03",
"*. c #C94A0A",
"=. c #D54402",
"-. c #D44D02",
";. c #DB4C02",
":. c #D94904",
">. c #DA4D0A",
",. c #CB5707",
"<. c #D45403",
"1. c #DC5302",
"2. c #DD5B03",
"3. c #DB5609",
"4. c #D65B09",
"5. c #C85914",
"6. c #D95615",
"7. c #E44D03",
"8. c #E94E03",
"9. c #F04B04",
"0. c #E45402",
"q. c #EB5502",
"w. c #E45B02",
"e. c #EC5C03",
"r. c #E35509",
"t. c #EB560A",
"y. c #E45D0A",
"u. c #EA5C0A",
"i. c #F55501",
"p. c #F35D02",
"a. c #FA5D02",
"s. c #F45B08",
"d. c #E65D13",
"f. c #C86608",
"g. c #D86408",
"h. c #C5720E",
"j. c #DB720B",
"k. c #D76515",
"l. c #C27C1D",
"z. c #D67312",
"x. c #E36606",
"c. c #EC6303",
"v. c #ED6A04",
"b. c #ED640A",
"n. c #EC6C0B",
"m. c #F46303",
"M. c #FA6503",
"N. c #F56B02",
"B. c #FB6C03",
"V. c #F4640A",
"C. c #FA640A",
"Z. c #F46C0B",
"A. c #FC6C0A",
"S. c #EA7407",
"D. c #EC7B0A",
"F. c #F57303",
"G. c #FC7303",
"H. c #F57A02",
"J. c #FD7B03",
"K. c #F5720B",
"L. c #FD730A",
"P. c #F4790C",
"I. c #FD7B0A",
"U. c #E96812",
"Y. c #F36B13",
"T. c #FB6A14",
"R. c #E97A14",
"E. c #F77417",
"W. c #FE7511",
"Q. c #FD7B12",
"!. c #DE7A37",
"~. c #BB8019",
"^. c #AD892E",
"/. c #DB880B",
"(. c #C78A1B",
"). c #D58B18",
"_. c #EA8208",
"`. c #F48301",
"'. c #FD8303",
"]. c #F58C01",
"[. c #FD8C03",
"{. c #F3820B",
"}. c #FE830B",
"|. c #F68B0C",
" X c #FD8C0B",
".X c #F59303",
"XX c #FD9303",
"oX c #F49B02",
"OX c #FD9B03",
"+X c #F6940A",
"@X c #FD930B",
"#X c #F79E0B",
"$X c #FD9B0B",
"%X c #E88D11",
"&X c #FD8512",
"*X c #F78817",
"=X c #FE8C12",
"-X c #E69616",
";X c #FE9312",
":X c #FE9B11",
">X c #F89916",
",X c #FD941C",
"<X c #F6A303",
"1X c #F6A506",
"2X c #FDA203",
"3X c #FCAB03",
"4X c #FDA30B",
"5X c #F6AD0E",
"6X c #FDAB0B",
"7X c #FDB304",
"8X c #F7B50A",
"9X c #FDB30C",
"0X c #FCBA0D",
"qX c #FDA413",
"wX c #F5AB16",
"eX c #FCAC13",
"rX c #FDA21B",
"tX c #FDAA1A",
"yX c #F4B716",
"uX c #FDB513",
"iX c #FDBC14",
"pX c #FCB31B",
"aX c #FDBC1A",
"sX c #C9942A",
"dX c #F78A23",
"fX c #E69C23",
"gX c #EFAC2C",
"hX c #FBAA28",
"jX c #FDBC23",
"kX c #FAB72A",
"lX c #FDB939",
"zX c #FEC40F",
"xX c #FFDC08",
"cX c #FDC213",
"vX c #F6C51D",
"bX c #FCC31C",
"nX c #FED31C",
"mX c #FFE21F",
"MX c #FDC424",
"NX c #FCC924",
"BX c #FAC429",
"VX c #FDCC2B",
"CX c #FBD22B",
"ZX c #FFC736",
"AX c #FED334",
"SX c #FCD83B",
"DX c #B48940",
"FX c #D7BC5B",
"GX c #FED747",
"HX c #E6CE53",
"JX c #FFE647",
"KX c #FFED5A",
"LX c #FFF454",
"PX c #FFFF72",
/* pixels */
"                                                    . .   . X                       o       o .     . O .   . .       .                               .         ",
"                                      .   . .     .   X     o @ d B ! _ _ ` T ' *.#.' %.` L v 1                   . .     .                                 .   ",
"                    X     .         .   . . .   .     & k K ' ,.2.w.<.<.<.w.b.Z.w.w.c.p.M.Z.V.m.e._ g @ o     X . .     .   .   .                           .   ",
"                                      .       - o v g.N.m.w.2.w.3.3.1.<.w.N.G.H.J.G.G.B.m.m.w.w.F.A.a.y.' g O       . .   .   .   .       .                     ",
"                                          o w ' I.[.u.K.w.A.A.m.w.0.1.2.b.N.B.B.N.G.'.J.G.B.m.V.m.F.N.V.w.M.V.P ,           .               .                   ",
"                            O     O     f 3.G.}.m.t.1.y.Z.2.G.A.2.<.w.c.c.c.c.m.B.L.G.J.J.G.B.J.N.b.Z.B.G.G.L.B.m.| d     . . o   . .                     .     ",
"                            . . O   w 3.B.B.G.c.V.w.c.1.F.c.m.e.w.c.N.N.e.w.u.B.'.N.B.G.G.J.G.L.B.M.c.w.c.F.G.J.c.V.Y.%.2 o   . X   .                           ",
"                            O o   { A.G.J.B.B.L.e.N.N.J.F.m.c.c.A.J.G.N.c.w.c.B.G.L.B.B.M.`.'.'.J.B.w.2.g.q.J.'.N.G.J.v.M.K       .   .         .               ",
"                              6 3.B.G.I.P.C.L.G.L.G.H.'.J.c.N.e.m.c.m.V.0.2.c.J.I.G.M.M.G.G.G.'.H.I.m.V.e.c.e.F.I.N.J.G.I.L.w.q o .   .                         ",
"                .     . X o v I.M.G.'.G.M.M.G.J.I.'.G.L.M.L.N.A.V.q.q.e.e.N.J.m.J.G.G.[.[.[.'.J.J.G.'.J.N.B.w.0.c.w.L.J.H.G.A.B.n o . .   .   .   .             ",
"                          L L.a.F.L.G.G.p.B.L.B.M.G.B.B.M.m.c.M.p.m.G.F.N.B.'.M.B.G. X'.J.J.H.J.N.B.I.A.s.A.L.G.A.Z.m.c.L.'.J.b.Y.K   X +               .       ",
"                      X f.J.V.C.'.A.G.B.B.M.i.m.m.B.B.B.M.N.c.N.H.[.J.M.B.H.}.J.G.B.L.M.p.L.A.M.M.M.N.G.B.G.G.I.G.G.F.N.M.F.I.I.1.u.B     . .                   ",
"                X o   5.I.L.B.G.J.B.m.J.B.m.p.B.M.M.N.M.e.w.m.m.'.'.N.L.A.I.}.'.G.I.K.G.A.m.c.G.m.M.A.m.J.G.G.'.J.G.'.}.G.N.G.M.M.v.0.K   O                   . ",
"    X           X o 4.[.L.L.B.J.J.M.M.I.M.G.L.N.M.M.B.v.c.p.m.L.J.B.L.G.` % 2 ! W.J.L.J.B.M.m.M.m.M.m.M.B.B.B.B.'.}.M.N.J.'.'.J.M.m.B.w.m o   .                 ",
"                  I [.H.B.B.G.H.B.B.J.L.p.H.'.G.B.B.B.}.N.B.B.'.[.G.G.x.o   o   g }.G.J.G.M.M.B.G.B.q.A.B.G.J.B.G.J.L.q.p.p.m.M.N.G.L.I.u.f                     ",
"          . X - v J.L.J.B.I.B.G.G.G.G.B.'.J.L.M.M.A.B.B.B.G.J.G.J.G.J.b { [ ;   - K [.I.I.F.B.G.J.'.m.A.G.G.B.G.F.J.'.V.r.1.c.r.N.B.N.J.L.B.7         .       . ",
"          O   3 `.J.H.J.+XJ.'.J.A.A.a.J.F.B.p.c.p.m.p.N.J.J.J.G.G.K.G.B.A.H.}   . o | XX[.]. X'.'.G.B.G.G.B.B.M.B.B.B.G.c.1.w.3.w.v.v.N.J.L.c.O o .             ",
"        .   o D.}.H.J.'.'.J.[.'.I.G.I.J.J.M.i.m.M.B.V.L.XX'.G.B.G.G.A.Z.C.[.]     X   ) OX@XXX[.[.'.[.G.L.B.B.B.M.M.m.I.N.7.3.<.&.<.3.c.F.L.XX}   o .           ",
"            _ @XL.'.B. XH.'.'.F.}.F.&XH.J.G.i.B.M.V.i.G.[.'.J.B.B.G.G.L.M.J.P         o m qX[.XX@X+XXX[.B.G.L.a.p.c.u.e.w.;.&.&.<.&.<.c.c.u.G.OXh o O           ",
"          * @XW.G.J.J.B.G.G.M.}.W.a.G.J.G.B.M.M.m.1.Z.J.G.G.}.G.B.G.B.m.V.B.r o       o   O Z X.H.OX[.oXXX'.H.M.M.m.0.w.0.-.<.$.1.<.2.e.c.w.e.G.H.  X           ",
"          4. XH.H.G.V.0.L.m.i.p.q.G.J.G.F.m.M.q.0.1.M.L.J.$X;X'.G.G.M.G.J.k.O         .   o       x *X[.`. XN.J.}.H.G.q.e.r.0.0.m.N.N.G.J.N.c.N.@XL o           ",
"    o   g }.H.J.'.A.=.u.A.q.t.q.q.G.J.[. XM.M.p.7.e.N.G.'.$X$XJ.G.G.B.L.^                   o X o -   n. X}.B.L.[.[.}.B.m.m.q.V.F.M.}.[.[.Z.e.w.H.=Xo     O     ",
"  X     Q.[.}.'.N.:.0.M.A.p.8.q.q.G.[.XX XG.L.M.p.A.XX[.OX2XXXJ.G.J.I.n                       % ) [.>XH.`.XXH.G.B.N.I.J.I.N.B.M.A.M.M.[.[.J.I.c.v.B.]   .       ",
"  O   d OX'.'.G.q.b.M.G.A.q.t.=.7.'.[.'.H.G.&XB.M.M.[.XX2XXXJ.B.B.J.I.                      o X.OXOXOXoXXX[.I.m.m.A.J.G.G.M.m.M.H.}.M.B.`.'.[.N.Z.B.I.%   X     ",
"      g.].[.L.p.m.'.B.B.A.p.r.=.y.H.J.G.M.M.I.m.a.W.@X[.2X|.A.G.B.I.L -                     o m XX[.OXOX[.L.N.w.e.A.N.M.N.M.V.B.[.@Xm.q.Z.}.'.}.G.v.Y.K o O     ",
"    $ @XL.[.I.L.G.`.=XG.B.p.7.0.A.I.G.A.M.M.p.M.W.L }.A.OXJ.G.C.L.'.9                 .     o x }.J.J.G.G.N.p.V.m.q.e.m.e.e.r.m.[. Xe.V.2.'.J.G.B.G.1.U.        ",
"    b L.L.J.|.'.'. X X XI.A.0.q.B.'.[.B.a.p.q.V.a.v . _.eX2X XB.G.g.o                   X   - { XXG.B.B.M.m.m.m.w.1.7.0.0.1.;.w.B.G.W.e.A.J.[.J.J.[.c.L.j       ",
"    -.C.B.}.|.[.J. XG.}.F.B.8.L.[.XX2X@Xm.e.m.q.9.T.> o g ~ ~ ! n %   o o             X   ^ ] G.B.N.B.m.N.B.m.w.1.;.;.<.-.&.;.r.e.B.m.e.G.L.F.'.XXXXF.m.{ o     ",
"    T.1.I.}.H.J.H.}. XJ.I.W.m.'.XXOXOX[.N.q.q.0.2.B.T.k -                               - 9X XG.A.H.B.B.G.M.N.q.1.1.q.0.>.>.e.;.0.N.m.w.m.p.L.'.H.H.G.L.x.      ",
"  j $.w.XXF.B.'. X X[.H.L.G.'.'.XX2XOXB.a.M.q.8.9.Z.'.[.dX#                             o ] 7X[.'.J.G.G.J.N.B.m.q.p.G.G.0.:.B.m.0.V.q.w.m.m.c.G.G.G.I.G.L.9     ",
"  M 3.v.[.}.m.}.B.L.J.XX'.`.@XG.}.`.XXB.p.Q.q.s.L.2Xj.q                               o     O.4X`.[.H.I.I.G.G.B.m.M.J.[.I.I.I.Z.w.V.e.c.B.G.}.I.J.F.B.}.J.v     ",
"  ' C.I.[.B.7.C.B.B.'.H.F.A.[.J.m.'.OXOX@X@XI.p.] 9                                         o @X&X<X[.G.XX4X'.G.B.B.`.XX[.@X|.'.i.q.A.m.V.G.'. Xm.0.m.I.XX_     ",
"  #.s.J.L.7.W.p.G.'.I.I.J.Y.`.L.}.$XOX3X3X`.B.V.).o.x                                       o x 4X[.XX'.XX$XH.B.B.B.J. XH.G.B.}.T.q.W.M.m.I.F.L.w.1.r.B. Xc.    ",
"# q.L.J.8.Q J.B.J.`.}.m. Xc.XX2X`.B.J.XX[.M.L.M.6XS.;                                         o # h.4X[.'.XX'. XL.B.G.[.OX@Xv.N 4 u.G.J.L.L.L.p.w.w.0.m. XJ.    ",
"$ &.XXB.Y.W XXB.M. XN.B.P. XXXOXJ.M.i.$X6X`.J.'.+X  w u o   m ~.R.& o X o n ;                       N 9XG.J.].@XG.L.J.}.] 9   o K q.M.}.G.M.P.F.0.F.q.B.[.OX&   ",
"0 n.J.I.*.*.XXH.M.M.XXB.e. X`.Z.p.q.M.I.}.`.[.OXl f.hX    k.cX7XB     o  ./.- X                     o x }.G.J.uX[.k.z   o o k *XG.M.L.J.J.[.[.J.q.L.L.J.[.3Xq   ",
"f N.A.'.W x.[.XXa.Z.}.a.G.XX'.B.L.m.a.P.G.M.OXOX6X9Xl o ' @XtX| o * o x xXc   O                   o     B ` ! L 9     2 +.$X[.M.L.G.M. XN.OXXXH.s.A. XI.'.2Xk   ",
"k G.}.w.G g.J.XXJ.[.I.H.'.OX#XM.a.A.XX4XI.F.3X2XOX).x ,XJ.G.! - ] v . pXuX  X                                 o o z _.G.B.G.;Xm.q.m.J.J.N.J.[.G.M.H.'.'.'.OXb   ",
"g J.G.u.U Z.M.}.G.M.G.2XXXOX[.M.i.v.qX'.[.oX2X4X@X5.iX XJ.P.f.T.J.K D.9X)   X                                   K  XI.B.V.s.V.b.1.0.L.c.C.M.N.J.A.`.[.'.J.XXH   ",
"d }.J.B.u.J.}.H.'.a.XX2XXXXXI.M.M.G.8X X9XOXOX1X5X6X+X[.J.@XrXq.b.qXqX-Xo   o                                 O d.M.L.'.H.c.;.&.b.w.e.p.G.'.[.'.L.[.[.H.J.XXK   ",
"3 a.c.=XF.G.'.].`.}.`.2XOXOXG.i.A.[.5X4XuXOX<X7X9X3X2XOX.XjX#XP.a.I.@XX                           o X   t ) ` Y.M.G.@XJ.OXL.&.$.u.w.s.m.L.J.[.@Xm.[.[.[.G.XXm   ",
"& m.1.K.L.'.`.XXXX'.XXOX2X2XG.M.G.J.XXOXuXOX6X9XzXiXyXbXbXCXpXtXH.OXw                               o ( cX7X}.A.B.B.H.#XXXL.<.;.1.1.q.N.J.[.J.H.H.[.XXXXG.OXv   ",
". B.A.w.B.'.'.J.XXXX[.OXOX3X].[.'.[.iXaX0XOXeX8XuXaXVXCXvXaXwXeXXX^   o o                           O.@X4X3XOXH.G.}.J.[.J.m.B.w.;.E.q.m.G.'.J.L.G.'.2XXXJ.OXz   ",
"  v.B.}.H.[.XX[.J.:XXX[.2X3X$X$XXX4X6X9X0X<X0X8X$XOX6X6XeX4XbXtX2X8 o                               X.5X8X4X}.}.F.J.[.'.M.}.'.u.-.w.;.0.m.e.m.q.m.`.OXXXL.OXw   ",
"  g.'.@X'.[.].[.'.J.XX[.2XOX[.H.$XaX<XiXaX<X7XbXnXeXJ.H.;XyXeX4XaX                                  - +.zX2XZ.B.J.[.2X'.C.B.B.7.$.-.-.v.J.G.N.L.G.'.OXOXG.2X+ o ",
"  ' OXXX[.[.OXXX+XG.}.[.OX2X6XuX[.5X2XuX5XXX6XMXNX`.J.@XD.}.G.AXLX                                  X   ( nX[.G.J.qXOX].G.M.i.I.b.;.-.F.J.G.G.'.'.J.OXOXJ.'.    ",
"  K XX'.[.].XXXX$XJ.N.J.OX7XOX<XuX5X2X[.eX[.4XVXvXeXXXH.>X'.J.SXJX#                                   o   +.}.P.q.J.`.OXXX[.|.[.0.;.Z.m.p.B.[.'.'.'.XXXX'.%.    ",
"  j OXJ. X[.OXOXoX$XF.[.2X2XOXOX6X6XbX4XqXXX+XNXNXeX].>XAXVX%.t   o X                                     s J.F.I.i.;X3X2X[.OXXXQ ;.V.e.B.F.[.[.XXXXXX+XJ.K     ",
"  . XX+X`.XXqX2X+X6X[.`.2X4XeX`.eXNXcXbX$X X'.VXAXBXjXVXsXu   -   A #   o                                 9 eXH.eXc.G.$XF.x.S.D.x.P.m.:.c.XXXXH.].XX[.OX}.9     ",
"    [.XX}.$Xf.4Xf./ XX}.2X7X<X[.@XyXuXkX'.'.$XVXBXVX} y     O H %XKXO o                           o        .9XpX6X`.B.N.q.Q Q R Q L.I.1.7. XOX X[.OX[.XXF.      ",
"    ` OX X`.>X> O.O q Y.$X2XXX}.G.I.bX7X4X Xj.h.S       e l. X'.'.^.                                o   8 AXcXoXG.qXM.c.e.t.Y.T :.v.m.}.7.H.[.`.[.XXXX[.L o     ",
"    f XX].'.3X$X- O o   b L.=X'. Xj.+.@.r         o z 1.'.pXVXKXfX                                  o o ).6XhX XJ.tXm.B.'.v.W W 5.-.e.'.=.L.'.[.[.OXOXJ.2 o     ",
"    ;  X'.=XD.x o X o X o   g w             o o S 3X4XA.m.`.hX(.o     o                           X - ( bX@XaXeXJ.J.@Xp.I.3.R *.R %.I.'.W.m.[.[.XXOXOX-.-       ",
"      ` 2XXXz.c     .                 o   ; -   ZXMXBX}.L.B.).  o                                     /.9X4X'.'.G.B.+Xm.L.N.$.dX%.&.L.m.XX}.H.OXoX'. Xg   o     ",
"      % OX@XOX_.  o                           sXSXSX6XS.B.&X+                                     o   -X1XpXqX`.B.XXuX].2X7Xr.W R U T $.}.[.F.OX[.2X4.  o       ",
"    O   g.@X].9XX.                o   o j (.gXiXiXSXrX;XJ.n   o X                                   X kXuXyXeX$X2X3XOX3X#XOXZ.#.Y H J <.J.J.].$X@XG.d     X     ",
"        d  XG.o.o.{ O               o   A.eXnXGXkXKXBXB o                                   X X   o h.NX|.@X+X$X6X$XG.B.J.XXr.' E J J <. X[.'.[.G.' o           ",
"      o o o.J.4Xj - #               o 4.G.L.9XMXJX^.      .                         o X X     o   (.GX.XG.$X6XcXuX+XJ.5X`.}.N.-.R J R 2.H.[.'.e.I.2             ",
"          - ,.5.>Xw o               K C.;XG.XXJX@.  ; o X                         o K O     o   c ZXB.>XF.+X#XbXcXbX7X'.}.B.H.7.1.x.=.N.$X`.[.L.f.              ",
"          - g l     o         o v R.M.q. XkX0XDX          X - o         u -XS   X o * y.& B o -   S AXhXM.>XqXvXbX7XOXN.J.@X'.C.'.}.c.@XXXXXV.}.>               ",
"          O o 4.Q.X.! ` T w.{.[.J.b.m.Z.b (.)           o       = u c FXPXtXmX..      ` =X@X!.      y =Xs.m.:X4XOX2X2XOX<XXXL.`.M.1.XX2XXXS.e.H o   o           ",
"          + o   E.3X6X[.C.v.[.K.,.' &. X{ o   O           r Y i.ZXJX9XGXGXBX'.wX*Xx.*.I &.r.s.*XkXHX*.n.4XN..X2X`.[.9X<X'.a.F.'.=.'.2XXXJ.d.] o                 ",
"        .   .   + ;XOX].@XF.e.L.N.%.Y P.B.6.5 o       A 6.,XI.gXgX'.].AXkX>X5XVX'.C.2.Q *.m.M.J.S.*XB.F.lX;X'.tXeX@XoX6XH.'.[.}.K.XXXXS.*.;.:                   ",
"      . .       o 2 I.J.`.$XZ.J.c.r.Y T ` 2.u.D.k.dX{.rX,Xu.a.gXAX$XG.*X,XH.I.,XF.=.%.#.v.x.;.0.Y.7.P.}.0.Z.s.B.'.`.4X<XOX9XXX'.G. X.X:.,.w                     ",
"      .         > o 8 =X[.[.'.4X[.G.v.Y L Y &.H.q.1.m.Q.L.e.c.B.G.AXZXrXS.,XN.4.;.3.e.;.3.Q R.}.,Xp.F.;X,X1.1.F.[.XX2X7XOX1X].J.J.J.W U.v     o                 ",
"        .   + +   + . m 6XoX2XXXOXJ.c.' Y ` ' Z.E.0.1.e.H.1.u.;X=X,XP.tXJ.q.L.q.Q <.G.N.1.H.hXS.F.M.G.H.y.=.c.$X$X2X7X9X].@X}.'.2Xw.2.v o   X                   ",
"  . . + . . + + . + + : ] iX2XXXOX[.N.1.&.2.<.w.*XZ.A.m.K.Q.L.a.F.].M.,XkXkXP.q.;.dXhXp.q.e.w.c.A.+XdX0.;.B.[.9X5X7X7X#XXX'.J.G.L.N.b - . . .                   ",
"  . . + + + + . + @ > @ . ] iX9X3X4XOX`.c.N.G.m. XF.m.,X].H.`.N.}.OX;XN.gXkX].kX>XM.M.L.m.p.&X=XH.$X7.c.4X6X8X9XiX7X3X<X6X2X'.G.x.f +       . .                 ",
".   . . . @ + . $ > , > 1 + ` 7X3X$X2XOX}.G.I.B.L.v.c.i.I.}.P.[.`.:X$XI.M.m.'.wX`.,XqXJ.I.B.tX>X|.M.M.@X2X9X2XXX3X7X0XXXOX2X[.,.4 % & @     . .   .             ",
". + + + @ + @ . . . @ 3 , 7 s v oXqX3X9XqXH.H.@X.XqX|.=X'.M.L.>X#XeX}.`.J.M.M.H.pXBXVX'.[.@XOXjXMX4XXX<XCXbXiXuX0X7X2X[.+XOXN > > > @ + + .       . . .         ",
". + > @ > < @   + 2   , , , 7 @ 4 ` OX2X$XJ.J.;X4XoX4X`.4X|.N.c.:XAXyXtXeXqXhXjXaXoXpX3X6XbXuXiXcXiXXX4XbXbXcX7X7X3X`.$X$Xv . .   . + . + .       . . .         ",
". .     O @ 4 $ 2 s 5 > 5 s 4 4 2   , } 6XXX[.qXN.@X$X6X0XaXqXM.m.>X5X6XCXaXOX7XSXjX<X2XOX2X5X6X3XiX8XiXcXvX7X<XXX'.$Xz.>   3 , > .   . .                       ",
". . . . . @ 1 1 1 > 5 > > 5 5 > , @     % g.XX.XqX`.2XOXXX;XjXMXtX>XjXyXbX9X9XVXwXVXMXaX6X}.F.2XaXaXbXcXiX0X3XJ.}.U.v . < 4 > > > + @ @ + . .       .           ",
"  + + + + @ @ > > + @ 9 > > 5 4 2 . $ . o o l {.9XcX[.G.$X`.tX5XqX+XeXaXbXiXeX@X.XAXMX@X`.`.@XOXuXiX0X0X7XXXC.] g > @     + , > * + > > @ + .       .           ",
"    + > 4 @ + @ 1 1 s 5 0 > > , , 1 . o   o o o j X.{.}.OX X{.M.m.H.eX8XaXqX'.M. XVXiXXXJ.@XqX`.oXcX7XiXg.d o     O 4 5 @ @ + @ @ . . + @ + . . .     . X       ",
".     . @ .   2 > > 5   + + . . + +                   & K +XeX}.C.A.=X'.`.H.J.G.XXyX1X2XXX[.J.;X$X_.! 3             . > , 4 < + , @ @ @ . . % + + # .   .     o ",
"+ . . + # @     @ < , @ > , > + @ +                     o   , b [ S.x.M.}.OX$X3XOXOX$XXXj._ v >   o                     . @ @ < 7 , > > > < . < @ * a p p   D   ",
"@ > @ +   . + + + + , + . @ > @ + +                   o X o         . * 1 1 0 0 q 1 * + o   o     - o   X           + @ +     < 7 @ + @ > > 1 , < * C p i i F p ",
". . + @ 1 > @ .   . + .     . .                                                                                     + +     % , 4 6 > @ @ @ 1 , @ + r V a C C D ",
".         @ < .     .     + @ @ @ .                                                                                 + + $ + . + > @ 1 5 , 3 @ r V @ @ %         "
};
