/* XPM */
static char *_5891c6703c5428da3d4b3c8dac7e7aaeV2o3mOo0wdqGmMj[] = {
/* columns rows colors chars-per-pixel */
"80 80 256 2 ",
"   c #080300",
".  c #170303",
"X  c #181806",
"o  c #270101",
"O  c #330000",
"+  c #3C0000",
"@  c #360A09",
"#  c #291D1C",
"$  c #341D1C",
"%  c #3B1B1A",
"&  c #381A16",
"*  c #36140C",
"=  c #2B221D",
"-  c #36231B",
";  c #283212",
":  c #2C1F22",
">  c #361E21",
",  c #242324",
"<  c #2B2223",
"1  c #252429",
"2  c #292329",
"3  c #352222",
"4  c #353823",
"5  c #1B2E09",
"6  c #430100",
"7  c #4B0201",
"8  c #4B0B05",
"9  c #530100",
"0  c #5B0100",
"q  c #550B05",
"w  c #581406",
"e  c #431A19",
"r  c #501911",
"t  c #630200",
"y  c #6B0100",
"u  c #670B02",
"i  c #760700",
"p  c #681702",
"a  c #791702",
"s  c #701512",
"d  c #49251C",
"f  c #54251C",
"g  c #54291D",
"h  c #5B271C",
"j  c #582803",
"k  c #662700",
"l  c #782306",
"z  c #63291E",
"x  c #68271C",
"c  c #76281C",
"v  c #6E3509",
"b  c #4C2B23",
"n  c #482824",
"m  c #542B24",
"M  c #5C2C24",
"N  c #5C2D2A",
"B  c #562926",
"V  c #5C322B",
"C  c #573229",
"Z  c #593533",
"A  c #51332C",
"S  c #642C24",
"D  c #6B2C24",
"F  c #632E2A",
"G  c #6B2E2A",
"H  c #642623",
"J  c #732C24",
"K  c #7B2D24",
"L  c #732E2A",
"P  c #7B2E29",
"I  c #752622",
"U  c #643126",
"Y  c #6C3125",
"T  c #64322B",
"R  c #6C332C",
"E  c #69382D",
"W  c #753226",
"Q  c #7C3126",
"!  c #74332B",
"~  c #7C332C",
"^  c #79392D",
"/  c #643531",
"(  c #6C3532",
")  c #6C3933",
"_  c #683936",
"`  c #733532",
"'  c #7C3532",
"]  c #743933",
"[  c #7C3A33",
"{  c #783C3A",
"}  c #6B2E32",
"|  c #31431A",
" . c #394626",
".. c #734600",
"X. c #79423B",
"o. c #694139",
"O. c #764343",
"+. c #860902",
"@. c #970703",
"#. c #871702",
"$. c #961603",
"%. c #8F1A14",
"&. c #AA0701",
"*. c #B50800",
"=. c #B81505",
"-. c #A91910",
";. c #862602",
":. c #9A2702",
">. c #883703",
",. c #85281D",
"<. c #972717",
"1. c #96360C",
"2. c #A82807",
"3. c #B53B06",
"4. c #A62618",
"5. c #B92819",
"6. c #BA3819",
"7. c #AC3309",
"8. c #832D25",
"9. c #832D2A",
"0. c #8B2D26",
"q. c #982A26",
"w. c #823226",
"e. c #83332B",
"r. c #8B342C",
"t. c #84392E",
"y. c #8B392E",
"u. c #8B3326",
"i. c #93352D",
"p. c #9B342C",
"a. c #93392E",
"s. c #9B392E",
"d. c #953425",
"f. c #833631",
"g. c #8B3532",
"h. c #833A34",
"j. c #8B3A33",
"k. c #833D3A",
"l. c #8D3D39",
"z. c #873738",
"x. c #923632",
"c. c #9B3632",
"v. c #933B33",
"b. c #9B3B34",
"n. c #973D3A",
"m. c #A2362C",
"M. c #A23B33",
"N. c #A43A37",
"B. c #B53229",
"V. c #C71909",
"C. c #CE1A0E",
"Z. c #C62418",
"A. c #D62718",
"S. c #D02F11",
"D. c #EA370B",
"F. c #E62B18",
"G. c #E93718",
"H. c #F33C1C",
"J. c #F63718",
"K. c #ED2E0D",
"L. c #C73927",
"P. c #D93A26",
"I. c #CF322B",
"U. c #E73926",
"Y. c #F83B26",
"T. c #E9372E",
"R. c #E81D16",
"E. c #8A4801",
"W. c #B24E0D",
"Q. c #966D04",
"!. c #B07100",
"~. c #89423C",
"^. c #9B423C",
"/. c #964138",
"(. c #8F472B",
"). c #A6413A",
"_. c #B44829",
"`. c #B86530",
"'. c #D15015",
"]. c #EA4616",
"[. c #F5441C",
"{. c #F9481B",
"}. c #E95A18",
"|. c #F8581B",
" X c #ED490D",
".X c #CF6A0B",
"XX c #EB6F0F",
"oX c #D74627",
"OX c #D85729",
"+X c #D84839",
"@X c #CC4E2F",
"#X c #E94528",
"$X c #F54323",
"%X c #FC4424",
"&X c #FD4A23",
"*X c #FD442B",
"=X c #FE4B2B",
"-X c #F44A28",
";X c #EB5727",
":X c #FC5325",
">X c #FD542B",
",X c #FE5B2C",
"<X c #F65827",
"1X c #E64735",
"2X c #FE4C33",
"3X c #FA4934",
"4X c #E75538",
"5X c #FE5332",
"6X c #FE5B33",
"7X c #FF543A",
"8X c #FE5C3B",
"9X c #F35535",
"0X c #D46A32",
"qX c #E86628",
"wX c #F9652A",
"eX c #FA772A",
"rX c #E86738",
"tX c #FE6334",
"yX c #FE6A34",
"uX c #FF643B",
"iX c #FF6B3C",
"pX c #F36537",
"aX c #FE733C",
"sX c #FB7637",
"dX c #E87731",
"fX c #8A4443",
"gX c #AA4643",
"hX c #D35145",
"jX c #FF5943",
"kX c #EA5444",
"lX c #D86B47",
"zX c #FD6745",
"xX c #FE7847",
"cX c #F5724E",
"vX c #8B3F41",
"bX c #B4930A",
"nX c #C99710",
"mX c #EF8F13",
"MX c #F9AC19",
"NX c #F98D2F",
"BX c #F6B42D",
"VX c #D6A026",
"CX c #F9D718",
"ZX c #FAD311",
"AX c #FEE919",
"SX c #FCEC0D",
"DX c #FBCB27",
"FX c #FED728",
"GX c #F7D533",
"HX c #FFE725",
"JX c #FEE930",
"KX c #DBC62B",
"LX c #FC844D",
"PX c #FF9661",
"IX c #FDD648",
"UX c #FFE747",
/* pixels */
"d f M U ! ^ t.Q w.t.K c W ~ W c y.y.a.a.y.w.K P J L L R F N Z C / ` ` J h.~ Y S T R ! ' z.f.t.e.8.c.i.r.0.t.K ^ u.t.e.W Y z x D H D M f d n n d C T D S d d g F ",
"m f g h Y W Q e.Q w.t.e.~ [ W J ~ u.0.a.a.r.r.P P P L S M M V V N F ` G ` ` ! U M M T ] L P P K g.v.i.r.y.e.K Q y.y.t.c x z J J L ~ S B m b d d d M Y U m d z S ",
"g M M S ! t.e.u.a.v.j.K c ~ ^ w.8.8.r.r.r.g.r.9.P ' L H M H T / V N T ( ) ( _ T B B M N ) ] ! [ r.v.x.x.u.~ ~ h.e.e.Q W J W W c 9.f.~ Y R C g d h M F U M U D H ",
"m M z z W j.g.v.i.a.y.8.Q t.e.w.~ g.g.r.t.9.r.9.9.f.P L L R Y F / N T / ( S F M T F F F ` ~ ~ K r.i.b.p.c K w.e.K Q g.h.~ W Q J y.y.g.e.^ R f h T S D S z S D x ",
"g g S J ~ j.y.i.v.x.c.a.v.y.K K ~ f.g.f.w.K r.i.x.x.t.W P L D R G ! ] ! ! L ! ' h.' z.z.e.j.a.y.b.c.s.p.p.i.u.9.9.f.j.f.Q Q y.v.c.s.i.9.t.~ z z D Y J c z x x W ",
"m h Y t.g.j.y.v.v.i.b.c.c.v.r.t.! J e.~ I K i.s.b.x.e.W K P J ~ ~ ' f.~ h.t.t.n.n.x.x.n.x.y.a.y.s.^.b.M.N.N.v.v.0.g.l.h.^ ^ g.a.s.p.p.r.9.P P D x ~ t.e.~ c c x ",
"S D Y [ j.y.y.a.v.v.b.v.i.a.y.y.~ c c Q Q r./.p.M.a.w.Q t.e.Q W P P 8.e.y.v.i.b.c.x.n.c.v.r.t.w.e.v.).M.N.s.p.s.x.n.fXg.~ ~ ~ j.v.i.c.c.8.8.r.8.0.0.a.i.y.8.c x ",
"! ] ! P e.e.y.y.u.v.v.v.v.v.a.a.w.J e.y.e.a.s./.b./.w.u.y.w.j.g.e.g.v.c.b.M.M.s.b.b.N.c.r.e.e.~ e.a.).b.p.p./.p.n.n.z.[ [ ` [ k.v.n.b.c.0.8.0.v.^.s.s.b.b.i.K c ",
"' ~ W K K e.y.y.u.u././.a.a.s./.v.y./.a.u.j./.v.y.v.r.r.g.u.r.j.g.n.b.b.M.p.M.).).).).N.j.8.t./.^.b.s.s./.).).v.g.k.] { { { ' k.j.gX^.x.c.r.,.d.a.i.p.m.m.c.i.r.",
"f.9.w.w.Q w.y.a.y.u.y.y.a.a.s.a.a.a./.a.y.y.w.K e.y.e.9.r.r.e.e.r.M.M.b.N.p.p.).s.c.^.n.v.w.9.j.b.c.M./.).b.(.w.~ { ] ( { { ~.k.k.g.z.r.x.r.i.i.0.q.m.m.N.q.i.0.",
"x.r.8.Q ,.Q u.j.v.y.e.e.y./.^.d.u.s.a.y.v.j.h.~ ^ [ ! L ' g.f.8.c.M.s.M.N.N.c.v.h.~ ! ~ W e.^.b.r.i.s.b.s.u.~ D ! { ( R R ] ~.l.! ! f.9.8.8.x.b.<.p.m.m.c.q.u.8.",
"x.g.e.Q w.w.w.e.r.g.t.w.8.v.v.d.u./.v.u.g.f.! G R ( G Y ` ~ ~ w.n.b.N.b.b.x.l.j.! R E R ! ~.gXn.u.a.a.s./.y.~ ` D R D R Y ! k.h.~ ! P 9.r.8.0.p.p.m.q.c.q.x.e.9.",
"g.g.j.g.r.t.P Q Q e.h.w.K y.y.r.y./.v.v.t.J L ! G T R ( R F Y ' /.fXl./.fXk.` } F N V / R j.gXb.v.v.y.y.g.v.v.n.f.~ W ! ' k.~ W J J w.9.K c c 0.q.p.p.q.i.u.L D ",
"f.P e.j.t.t.~ ^ ! J ~ W K y.e.Q e.w.w.e.e.f.k.k.[ ` R T R F T R ' j.~ ! ! G G E ( / V / G k.n.x.v.y.r.e.K g.n.^./.g.h.Q w.w.Q W ~ Q 9.K I K K K 0.p.q.,.c c D z ",
"t.! P ~ J W W D Y x J J J J K W I ~ g.r.9.r.v.g.~.^ Y U E T F M G Y Y [ ` ] ] R ) ) { ) [ ~.t.8.~ ~ t.t.f.g.r.r.w.h.e.t.Q w.9.e.9.8.8.8.I I c I ,.i.0.c x x h g ",
"! ' ~ ~ J J D D J x D D J W h.t.P f.g.r.e.r.i.y.r.~ ] ! ! R N F ( R ( ] R R ! R ] E U R Y [ ~ ! W ` ! ' j.v.e.t.r.r.u.y.v.r.v.b.9.8.,.0.e.I I c I r.r.K v z h g ",
"R ! L ! ~ D H H J W x x x ~ P J J P g.x.g.f.g.g.g.~ ! [ ' ~ D R R ! ] { F M ) / ) ( T ( R R D R ] ) / ] z.v.j.y.r.u.y.v.a.y.c.b.c.8.0.x.i.I K K 8.x.9.I c z g j ",
"` ` ' ' ~ ' L H ~ ! S H G J e.J J j.9.P P e.g.g.f.~ P P P ~ ! ! ! G S Y R F _ { o.) E R ( R ] R / e & % ` g.g.j.w.e.y.a.a.a.c.b.q.q.p.p.q.,.8.u.8.0.8.c c z z g ",
"z.g.g.f.f.z.L H G G N N S F L ~ P ~ I c x I 9.g.9.P 9.P K J P ~ j.l.' S R R _ _ F ` ! D J P t.Y C - # $ % X.k.w.w.w.Q y.r.d.c.b.c.c.N.c.q.d.d.d.i.i.8.8.J c D h ",
"x.c.g.g.~ ~ { H N / e & e S L P J J I P ~ P g.u.9.9.g.g.K K K e.x.b.j.D ! T F F R ] X.[ [ [ h.W & = , < $ _ [ ~ [ K c w.u.y.b.b.N.m.c.m.p.b.p.d.d.u.K Q W c D h ",
"n.v.x.g.j.~ ` ( Z $ 3 = $ B G ~ ' P J L t.w.K P g.g.g.9.P f.u.8.r.v.v.J Y S F / ) ) X.T & d X.U - = 1 , < $ _ ] ` Y D ~ e.y.^.b.c.s.M.N.M.m.d.d.e.Q W ^ Q W ! z ",
"v.r.x.z.[ z F _ # : 2 , $ n H L P x x J K I I f.g.r.w.t.j./.v.a.i.b.v.9.W ! ] _ Z @ o . . . o.d , , , 2 , # b C N F D W ^ w.t.r.s.M.m.M.s.s.s.p.Q c J W Y c I D ",
"i.i.r.f.W U / % , 2 1 < % V H I I I J J I K K P f.r.9.t.f.~ Q y./.a.j.j.r.f.) d   X | | ;   3 : 2 2 2 = < , - A A _ R ! W ! f.v.b.b.v.c.b.M.N.N.y.K J Y D W ~ J ",
"p.c.v.f.! ) d = : 1 , > B ` ' P D J J P g.z.g.9.g.r.9.t.W Y D h./.a.c.b.t.[ m . 5 5 |  . .  = : : : < < , , , < = n / ] ( X.~.j.~.~.vXk./.N.N.N.u.e.W I J ! ' Q ",
"c.N.z.f.[ ) - = 1 2 3 n { f.f.~ ~ ! D ! ~ P t.y.v.y.w.^ Y U U X.e.8.q.s + o .   5 | 5 ; 4     . @ # # 1 1 , 2 , < = : n _ { O.{ Z % & e f v.N.B.b.v.t.W J W W c ",
"^.gXz.9.` e = , 1 2 $ o.h.r.j.[ ^ W ~ ~ J ~ K y.e.~ ^ Y U 8 + 8 6 a B.q.q B . # 5 ;  .;   X o + z.q @ o . . , 1 = 2 1 : > O.% % = < , - e k.N.N.c.v.h.t.~ W W W ",
"l.z.n.z.) & # , 1 : e ~.h.y.t.~ L P h.f.f.k.t.h.! ) / o o o 6 N._.hX+XhXN.8   <  .5 A ; o O %.+XhXI.+Xq.q * . . # # , , : # : : 1 1 , = % ` g.g.P P [ [ ~ ^ ! W ",
"z.f.f.' C = 2 , , > { l.v.r.w.~ ~ ' f.~ k.! L L h + O 6 s s i -.Z.=.-.@.q.q O * ; 4 b e 8 f.@XZ.C.*.*.&.i s q O o . * # 2 , , , 1 , , = e ` z.g.' ` [ ~ J W J ! ",
"j.v.f.[ % , , , 2 & k.b.n.n.g.e.f.9.P ~ D R e + + 0 L.I.1XP.U.F.T.T.B.y %.u 0 6 * g f w s 0 y +.*.T.R.T.#XP.zX+XI.<.7 o # , , , 1 , , = n { e.g.z.' ' P W t.~ f.",
"j.n.n.fX$ , , 1 > / /.).n.v.g.g.e.f.f.L ] 8 O q q.@X-X$X7X8X7X%XA.C.@.<.B.hXB.,.w w ,.4.q.-.q.@.5.I.jXY.=X%X*X*XjX1X_.7 @ # , 2 1 : , # / L P f.f.P ' ' ~ h.f.e.",
"r./.^.vX> : 1 : $ fXfX).e.t.f.f.P ~ vX` + 9 $.L.OXzXxXLXiXcX#XL.&.@.P.-X7XT.I.4.i 4.hX9XT.T.4.@.-.I.T.2X=X{.uX].cXjX9X@Xs + - 1 1 1 : % L P j.j.~ e.f.g.f.g.z.9.",
"u.v.gX{ % 2 : : % { ).v.K K t.P ' k.{ 6 9 _.1XjXxXLXxXwX9X;XP.=.oXkXH.=X2X3X5.@.@.4X9X>XY.Y.T.I.@.@.U.jX5X>X6X:X-X8X6X-XkXu O : 2 : % _ ' P e.w.f.r.h.r.r.r.z.f.",
"0.j.k.f - , , # d [ g.0.w.t.e.Q ^ h.8 9 @XpXiXxXsXaXyXzX#X=.V.T.jXuX>X:X%X$X-.+.1XkX-X,X[.5X7XT.I.@.=.A.6XuXtXwXtX,X].8XG.5.p 8 : 2 % E ! W I W t.j.r.y.y.t.j.f.",
"9.z.[ e = , , = { z.u.r.w././.w.^ 8 u ).rXyXwXwXLXyXpX-X&.*.A.H.-X<X,XtX>X1X4.4.jX8XzX[.6XH.=X7XA.C.&.1X8X:X{.].<XiXtX{.5X7X+Xs @ > / ! J D D L f.j.y.t.w.e.h.[ ",
"f.f.) & , , 1 : ` f.y.i.u.i.N.n.! + <.zXpXaXpXLXaXxXzXS.&.P.$X%XuXuXiX>XF.V.&.hX9X$XG.,XyX-XJ.&XY.A.&.=.>X{.iXiXxXuXaXtX7X#X4X4.+ r Y W D R ! h.l.j.t.t.e.t.h.h.",
"[ ! ) % < 1 : $ ' 0.y.i.i.i.M.^.+ l +XxXLXyXLX6X=X-XA.&.V.T.G.[.6XxX<X5XY.C.&.T.>X>X,XiX<XaX{.K.*XT.Z.&.$XG.<XtX6XxX].<X6X8XzXkXM.s J D ( G G L f.j.j.t.w.W ~ ~ ",
"! D V $ : 2 1 : ! a.d.a.r.0.b.i.0 @X4XxXwXLX<X,XH.*X=.C.Y.3XY.zXtX8XuX=XT.C.*.U.{.:X,XtXtX-X{.>XJ.Y.3XA.V.#X6XuX>XwX<XyXiX,X[.G.6.t J Y E F S R L P h.j.~ W W ! ",
"D z N - 2 2 1 $ ~.s.M.M.p.r.^.0 1.LXpXwXaX<XaX6XG.F.A.A.Y.J.>XtX,X<X8XU.V.R.V.J.>X].,XtXiX6XtX{.=X*XU.U.5.4X;XaX6XtXyXaX<X>XtX9XP.+.w E R F R D P L P ~ W Y S S ",
"Y M Z $ : , 1 % ~.a.).M.p.p.^.9 0XLXxXaXxXxXU.jXY.F.*.T.&X[.zX;XxX<X=XF.C.*.U.Y.zX>X:X X:X,XwXD.{.G.9X4XL.6.;XyXsXyX<XyXtX,X6XzX9X4.O V Y D t.v.j.j.h.! x z g M ",
"Y S B $ 2 , , - Q <.d.d.p./.s l zXLXaXLXxXuX*XT.R.A.V.F.oXpXcXrX7.oX-XG.Z.&.A.jX2X:X>X,X:X,X:XwX XwXS.#.:.$.3.dXrXpXyX X:X&X$X#X-X4X6 S c e.v.a.v.j.j.~ Y U V m ",
"W W ) e : 2 , > t.0.u.,.a./.u lXOXaXqXxXcX=XG.Y.A.C.A.zXLXp 6 8 8 u oXG.U.*.2X%X>X:X&X>XaXiXtXtXrX:.t 8 9 u 0 u ;.lXcXyX XD.,X$XG.#Xa s P l.v./.j.j.j.! Y M M m ",
"J W { e : 1 2 e ~.n.,.w.a.,.0 lXwXyXxXxX-X%XY.Y.Z.L.Z.6.0 p >.a v a #.L.oX*.*XG.5X[.8X,X<X].iXxXrXu l W.W.0X@X1.p l ;.@X;X6X&X=X*X1XhXy 0.n.a.y.y.w.t.L D z S S ",
"D ! ] d = , 2 3 ~.v.w.e.Q l _.cXaXtX:X,XY.J.Y.T.4.t u 0 7.'.'.'.'._.a :.OXV.U.>X=X[.{.|.<X<XeXsXa W..XXXMXXX}.OX<.c 8 w +.4XzX8X$X-XlX7 x.v.j.v.g.h.l.g.~ W ' f.",
"x D ) d = , 1 $ S P y.g.[ c @XzX;XwX{.D.2X*X1X6.p p w 1.0XwXXXmXXXXX@Xy L.2.#X,XuX:XuX{.D.|.eXqX+.0XXXIXDXMX}.'.d.(.w 8 i 4X#X=XY.jXhX0 9.w.w.y.j.j.9.e.j.~.l.x.",
"x z T d - < 2 = b ( ~ ! ! 7 @XaXqXyX>X=X2X#Xa 8 w Y (.1. XXXMXCXCXmX.X2.$.S.9X<X>XtX>XiX{.wXdX#.7.XXMXDXDXmX}.OX;.w 6 %.P.G.G.=XH.5XT.@.,.P P P g.v.9.P e.g.v.g.",
"D D S M - , , , # m ! ! ( 7 _.;XaXPX6XH.*XP.t w w x a._.OXXXFXZXCXDX'.'.u _.pX:X,X6X6X,X].aXlXa S.XXmXMXmX.X'.t t l lXcXG.Y.K.J.*XY.F.@X,.! ' J e.9.9.K 9.l.vXf.",
"D D G ( n < # < < - _ X.X.0 rX;XyXwX>X$XY.3X$.+.u 9 p a _..XmXMXMXmXXX'.u #.4XuX&X{.uXiXyXpX1.0 7.'.qX.X1.;.a :.oXpX].zX*X2XJ.J.J.Y.7X$.,.^ ~ 9.e.8.8.~ ~ l.[ ! ",
"D x L ( A $ 3 < , = $ m X.u 4X<XiX:XuX$X=X$X1X5.4._.hXi y $..XXXXX.X X_.v w oXU.Y.{.[.&XtXOXp s _.@X'.+.p W.7.4XuX8X%XG.>X2X*X2XJ.7XzX2.c W P P ~ K K w.~ z.] Y ",
"H S H F N n # 2 2 , = $ & p oX6X].tX>X$XG.8XP.Z.V.#X#X}.pX:.#.a W.7._.(.h + :.-X*X=X8X,X$XOXw h W c 0 ;.qXdX#X-X%X*X5X5X-X$XJ.*X%XG.3X6.q ] ~ ~ K Q e.t.e.' [ ` ",
"z z S h T V $ # , , 1 , % 7 oX-X>X,X$X8X&XoX2.6.S.6X>X XwXqXdX_.OXi #.w j 8 7.-X$X[.=X-X*XoXu 6 7 9 lXrXaX:XV.K.K.H.$XuXuXpX#X8X&X6X-X5.9 ] L t.u.e.P w.g.f.f.~ ",
"H z x Y z M V $ < , , , 3 q oX&X>X[.-XzX9X:.7 l lXtX{.D.{.|.wXpXwX;X$.9 8 u 5.-XzX3X-X2X$XP.+.t i oXG.,X{.%XV.R.=XD.&XzX0Xp :.pX8X5X9X@X9 ! [ f.e.8.w.t.g.g.z.t.",
"B S L D x S M N $ = 1 1 : x #XJ.:X8X&X&XiX7.7 w #.oX|.|.,X|.:X{.&X].L.B.<.#.1XH.2X3X-X7X*X%XP.cXzX6XK.{.J.%XC.K.>X<X;XrX1.7 a cX;X<X9X:.q W t.t.w.t.g.e.g.r.e.g.",
"M h H D H D G G ( % : : $ w oX2X8XG.,X:X}.7.7 (.a y W.;XtX,X X>XiX].A.U.V.A.7X*X-XjXU.*X*X&XG.D.G.5XJ.>X&X{.V.J.tXsX@Xa l u ;.dXxXuX#XoXp ^ j.z.~ ~.l.g.z.c.r.a.",
"M H M S } H G S R / % > > 8 1X$X[.6X].:XyXrXp (._.3.#.W.'.yXiX,X:X$XY.R.C.$X2XU.jX*X2X2XJ.{.&X>X%X&X{.{.D.&XS.;XwXW.l l 0Xt :.qXiX;X9X4.c [ ~ j.~ e.g.g.g.n.v.v.",
"F V T N N N M S Y Y { F e + 5.G.6X-X].tXyXdX>.p OX|.}.7.#.OXsX<X|.J.J.C.C.K.*X%X=X{.H.=X&X[.:X[.{.{.|.|.wXwX7._.W.+.XXqX`.t sXwX,X#XzX<.x W ` ~ e.g.r.r.b.n.g.v.",
"R U U N B n M S Y Y ! ) O.q L.G.5X[.zXtXaXNXLXi W.XXXXXXW.p ;.qX|.K.K.R.C.Y.=X>X&X{.D.{.{.].<XpXwXyX|. X|.NX0 9 !.XXNXmX:.t |. X[.3X@X7 x Y ] P t.v.n.).n.c.8.u.",
"~ ^ U M M M R S Y ^ R ( / J B.9XJ.*X6X[.wXeXqX:.3.NXDXDXBXk >.LX|.|.{.D.F.G.{.:X{.|.|.eX|.qXi #.u LXtXNXqX3.7 KXFXFXBXmX:.W.>X6X-XU.hXt P D ! ~ k.g.g.x.l.g.t.w.",
"h.h.W ^ R U E S D T / V C c i 4XJ.J.[.:X|.|.eXW.;.VXZXAXGXE.w 0XeX X].].S.P.;XyXwXwX|.}.eX'.p E.p 0XOXqXOXl k UXHXJXXX.Xa rXtXH.2X9XgXu I ! [ ' [ ' ' f.f.j.j.t.",
"e.e.t.[ ] ) ) U F F N N C S t B.#X2X7X<X,XtX|.}.a Q.CXAXAXGXj E.dXqX;XoX7.:.;.0XwXeXeXNXNXW.!.VXv Q.`.`.!.E.JXHXDXmX!.+.3.wX&X&X2X1X9 f } k.{ [ k.~ ~ f.' z.l.j.",
"9.9.h.h.] E ) ( ] _ } / N S p 4.U.J.5X>XuX6X X].W.9 bXCXSXCXQ.v ;.'..Xu W.W.8 l '.}.XXeXnX8 MXGXnXj j v VXBXHXCXmXW.#.W.aXyX].H.U.+X+ / ` [ ' z.k.k.[ [ h.' t.t.",
"f.f.f.' ) ( ( ` ` ] ] Y L L f 7 4XY.K.J.K.>XJ.}.'.W.W.GXCXAXHXGXGX..r Q.CXDXbX@ W.0XdXE.j Q.HXSXFXJXHXJXJXIXDX!.>.;.}.;X].:X&X*X1X%.7 { ` ` ' L ~ k.[ ' ` [ [ ~ ",
"f.f.' ` ` ` ` ' ' [ [ Q e.f.{ + 4.jX*XY.$X&X{.D.$.xXa !.MXDXHXCXJXKXKXJXAXAXGXQ.E.E.k !.bXGXSXSXSXSXHXHX!.v W.:.W.0X;XwX,XH.7XU.B.0 J [ k.{ k.L Y ! ` { [ [ X.[ ",
"J J G R ! ' ~ r.l.n.j.y.0.s./.,.%.kXU.Y.7X=X&XG.-.rX:.t .XmXIXnXIXUXJXCXSXSXSXAXKXZXZXAXSXSXSXSXSXAXbXj t 3.'.yXiXaX-XiX-X3XU.A.,.0 k.h.[ h.[ } D S F ` [ [ k.h.",
"Q ~ ! ' ' e.n.n.n.n.a.s.).).c.c.t $.T.-XY.8X5X>X=.'.rX:.#.W.p ..E.....nXCXZXZXAXAXJXHXHXHXGXAXSXZXGX8 `.6.=.>X&X>X{.>X2XjXjXP.$.7 J t.t.k.~ L G D F B F ] [ ' [ ",
"y.e.e.x.v.b.b.b.b.N.c.i.N.N.i.e.9.0 4.P.2XY.Y.J.*.=.G.iX7.#.i .XdXNXE.k MXGXFXDXIXbXv ....!.BXMXmX'.u _.L.S.K.Y.J.J.Y.J.Y.A.q.6 s [ h.h.' z.L ` G M m M E R [ ' ",
"r.u.v.^.c.b.b.b.c.n.n.n.b.b.y.t.k.w.0 B.+XT.3XY.Z.*.G.=XpXrXqXtXsXeX0Xp W..X.X.Xk 8 E.`.`.q E..XW.i 2.kX*.U.Y.J.J.jXJ.T.A.4.6 8 k.[ h.' ' ' { ( F N V m M S [ [ ",
"w.v.v.b.b.s.v.g.x.c.n.n.x.x.j.j.j.g.t.0 q.kXY.R.T.C.A.U.<X,XuX6X{.,X;X+.t a :.;.p @XOXdXOXa l a #.@X1XP.&.A.2XY.3XR.Z.I.y 9 w z./.j.j.t.' L } R N N U M S R h.f.",
"e.y.v.a.b.v.9.r.g.n.j.~ ' h.z.l.l.k.~.~ + %.I.kXI.5.-.T.-X-XG.%XD.8XS.-XoX2.6.OXOXxX<XiX;X'.t d.@X8XP.&.Z.1XZ.C.+XI.-.t 7 G f.f.g.j.k.h.k.` G F M M M S Y ! t.t.",
"f.f.t.v.n.y.e.8.Q t.W Y ! ! ! z.h.t.[ [ { 8 9 s gX%.%.B.P.F.Y.%X3X3XY.J.D.C.A.9X-X;X>X6X[.>X7X#X5XT.-.@.L.hXq.m.I u O r L ! f.w.P t.l.k.[ ' ` G S S S z x W ~ ~ ",
"e.e.w.j./.a.K t.~ ! R ] ( R G ' ~ h.[ [ { ) H 6 7 7 + u 4.Z.1XY.T.3XY.J.*XT.V.U.2X$X=XY.[.=XY.F.U.5.y s q 0 9 7 O @ Z } ` ~ ! L J P j.f.h.[ ] G S U S D D W [ ~ ",
"f.f.W t.j.w.P ~ ~.~ ) ] ( T } ( Y ' k.[ ! R M B r @ o O 6 9 B.1XT.R.Y.R.Y.A.@.+.P.T.F.T.Y.Y.T.5.q.u 8 o o o @ r M S R ( R S Y R G P z.[ ' ~ Y ! Y U z R ! ~ ! ! ",
"P K c J W K Q k.[ ] R ) _ _ / V ( ( D Y U S H N Z Z A n d 6 7 y Z.I.I.I.-.B.%.t i @.5.T.I.5.B.s q O e A b b Z m M U ! ! ! T F F ( ` ' k.` [ Y ! ! D x [ ' G R U ",
"S S D z W ! ~ [ ^ E V V V V V N / V g M g M S F } B m g m h f 7 6 6 + 9 7 O o o + O O 6 6 + O o H ( R N g U V m M S ] [ ' ' } } ( / ) ` ] ! D ! W J ! [ ] S m C ",
"R S z S Y Y D ^ ! ] E C m m B B Z E V g g S U ` F N f M f m B N _ V m b d % n A Z A n % % d A B B H S ] ] R R S M H L { ' L ` H F F N F R D Y R R G G ! E U V C ",
"E U M U U z z U E ! E d m g C m M R Y z h M S D F F h S H M H H L ! R T m g C N S ( T N m C V N S R ` ` ` ] { ` ! G ! k.' ' ` F _ N N F F M T E N N S M C C C C ",
"C h M U z U U U D R M m M C V M h D E E S R D S z H x D h H L ` ! ! R V V V m h R ! R R T M m M M R [ ` ` G ~ ` D H G ! L ` L ] / M T F N / F V N N B M m b g C ",
"g h h D Y Y R ! S R U h U S R D D Y ! E ! ! R G ! H H D M M G ! ` } N m C B m f m g M / ( N M V M S ( R ' ` L L S R F G ` L ` _ / m V N N / / / T B b b b C b b ",
"M C z U L ! S z M U M M h Y ! ! ! ! E ^ G ! ` ` D x z H N M G L F / m C n n A b b b V / ( _ / T M U S M L { ' G H F S T } } ( N M m B C M / _ _ Z b b - d A n n ",
"M V M M G G M f d g h g M Y ^ W ` ! W ^ F G ( G L D h f f H L L G F ( Z N B b b b A V _ _ ) _ V V U R S F ( F S F S U T T E T M M B m V Z _ _ E V n b n - n b A ",
"m M M U G F f f f d g g z Y R Y G R G D H / G D ` S f f f } ` L ( T E / N Z N A A b T _ ( R / F M U S D D R F F R F M V / V E E / N V V T / C Z / d d n d n n A "
};
