/* XPM */
static char *_4d04539877a4995bf7c73a36e1092feVpm4eceCimIvOb0A[] = {
/* columns rows colors chars-per-pixel */
"80 80 256 2 ",
"   c #0A0100",
".  c #130301",
"X  c #15180A",
"o  c #250100",
"O  c #2A0000",
"+  c #280C04",
"@  c #330000",
"#  c #3C0100",
"$  c #360C09",
"%  c #2B1D1D",
"&  c #321D1C",
"*  c #3A1B18",
"=  c #361309",
"-  c #1E290E",
";  c #2A241C",
":  c #2F2E16",
">  c #2E1E22",
",  c #272325",
"<  c #332123",
"1  c #313D24",
"2  c #1F2326",
"3  c #430100",
"4  c #4B0200",
"5  c #4B0B04",
"6  c #530200",
"7  c #5B0100",
"8  c #570B05",
"9  c #581506",
"0  c #451A18",
"q  c #4E170E",
"w  c #630201",
"e  c #6B0100",
"r  c #660B03",
"t  c #760801",
"y  c #6A1703",
"u  c #791604",
"i  c #6D1613",
"p  c #4A251C",
"a  c #54251C",
"s  c #53291D",
"d  c #5B291E",
"f  c #5B251A",
"g  c #552A06",
"h  c #672702",
"j  c #792406",
"k  c #64291E",
"l  c #6B2A1D",
"z  c #67251B",
"x  c #722A1E",
"c  c #79281C",
"v  c #6E3509",
"b  c #4C2B23",
"n  c #492924",
"m  c #552B24",
"M  c #5C2C24",
"N  c #5D2D2A",
"B  c #562A26",
"V  c #5C322B",
"C  c #573229",
"Z  c #5A3733",
"A  c #572F2F",
"S  c #642C24",
"D  c #6B2C24",
"F  c #632D2A",
"G  c #6C2E2A",
"H  c #662622",
"J  c #732C24",
"K  c #7B2D24",
"L  c #732E2A",
"P  c #7B2E29",
"I  c #742621",
"U  c #643126",
"Y  c #6C3126",
"T  c #64322C",
"R  c #6B322C",
"E  c #6A392E",
"W  c #743225",
"Q  c #7C3126",
"!  c #74332C",
"~  c #7C332C",
"^  c #7C392D",
"/  c #75392F",
"(  c #643531",
")  c #6C3532",
"_  c #6C3933",
"`  c #663934",
"'  c #733532",
"]  c #7C3632",
"[  c #743A33",
"{  c #7C3A33",
"}  c #793C39",
"|  c #6A2F32",
" . c #36421D",
".. c #384822",
"X. c #734600",
"o. c #76423A",
"O. c #40411F",
"+. c #850A02",
"@. c #970604",
"#. c #871702",
"$. c #961804",
"%. c #8D1915",
"&. c #A90701",
"*. c #B60901",
"=. c #B81506",
"-. c #AB1A0F",
";. c #862502",
":. c #9B2701",
">. c #883703",
",. c #85271D",
"<. c #953011",
"1. c #A72906",
"2. c #B53B06",
"3. c #A92517",
"4. c #B92719",
"5. c #BB3819",
"6. c #AD3309",
"7. c #822D25",
"8. c #832E2A",
"9. c #8B2C26",
"0. c #972B26",
"q. c #823226",
"w. c #83342B",
"e. c #8B342C",
"r. c #84392D",
"t. c #8C392E",
"y. c #893426",
"u. c #93342D",
"i. c #9B352C",
"p. c #92392E",
"a. c #99372B",
"s. c #833631",
"d. c #8C3631",
"f. c #843A33",
"g. c #8B3A33",
"h. c #833D39",
"j. c #8C3D39",
"k. c #893739",
"l. c #933631",
"z. c #9B3632",
"x. c #933B33",
"c. c #9B3B34",
"v. c #9B3D3A",
"b. c #953D39",
"n. c #A3362C",
"m. c #A23B34",
"M. c #A53B37",
"N. c #B33128",
"B. c #C71909",
"V. c #C71C14",
"C. c #D3170A",
"Z. c #C82417",
"A. c #D72718",
"S. c #D03012",
"D. c #E9380B",
"F. c #E62A17",
"G. c #E93718",
"H. c #F33C1C",
"J. c #F63718",
"K. c #EC2E0C",
"L. c #C73828",
"P. c #D93927",
"I. c #CE2F28",
"U. c #E83826",
"Y. c #F83A26",
"T. c #E9382E",
"R. c #E81D16",
"E. c #8A4801",
"W. c #B24E0D",
"Q. c #966D04",
"!. c #B07100",
"~. c #86423C",
"^. c #9C413C",
"/. c #964138",
"(. c #8F472B",
"). c #A4413A",
"_. c #B44727",
"`. c #B86530",
"'. c #D7571A",
"]. c #CE4D13",
"[. c #EA4616",
"{. c #F4441C",
"}. c #F8481A",
"|. c #F9581B",
" X c #EC4E10",
".X c #CF6A0C",
"XX c #EB6E0F",
"oX c #D54826",
"OX c #D85829",
"+X c #CA4537",
"@X c #D74637",
"#X c #CC512D",
"$X c #E94629",
"%X c #F54323",
"&X c #FC4424",
"*X c #FD4A24",
"=X c #FD442B",
"-X c #FE4C2B",
";X c #F54928",
":X c #EB5727",
">X c #FC5325",
",X c #FD542B",
"<X c #FE5B2B",
"1X c #F65726",
"2X c #E64836",
"3X c #FE4C33",
"4X c #F94A34",
"5X c #FF5333",
"6X c #FF5B33",
"7X c #FE5C3A",
"8X c #F85538",
"9X c #E75733",
"0X c #D56A33",
"qX c #E86628",
"wX c #FA662A",
"eX c #FA772A",
"rX c #E86738",
"tX c #FE6334",
"yX c #FE6A34",
"uX c #FE633B",
"iX c #FF6B3B",
"pX c #F46636",
"aX c #FE743D",
"sX c #FB7636",
"dX c #E87731",
"fX c #864643",
"gX c #AD4742",
"hX c #D35046",
"jX c #E85644",
"kX c #FD5944",
"lX c #EE4B41",
"zX c #D56B47",
"xX c #FF6442",
"cX c #FE6B47",
"vX c #FE7846",
"bX c #F5714D",
"nX c #B4930A",
"mX c #C99710",
"MX c #F08F13",
"NX c #F9AC1A",
"BX c #F98D2F",
"VX c #F6B42D",
"CX c #D6A026",
"ZX c #F9D718",
"AX c #FAD311",
"SX c #FEE918",
"DX c #FCEC0D",
"FX c #FBCA28",
"GX c #FED728",
"HX c #F7D533",
"JX c #FFE725",
"KX c #FEE930",
"LX c #DBC62B",
"PX c #FC8650",
"IX c #FDD648",
"UX c #FFE747",
/* pixels */
"p s M U / ^ r.Q r.^ I x Q ~ W x t.t.u.p.t.q.K 8.J J ! R F N A C ( ) ' J { ^ G S U R ' ] f.s.f.w.8.l.u.e.y.w.K Q w.t.q.W k k z D H H M s n n p p C T D S p p d F ",
"m a a d D W Q q.q.q.t.^ ^ ^ ~ x 8.y.y.p.x.y.d.P P L L G M N V V N R ' Y ] ' R U M M F [ ' P P K d.x.u.u.t.w.K ^ t.t.t.J l Y D J L ~ S B m s n p p M R S s s M S ",
"m M M k ! r.e.y.u.p.g.7.J w.^ Q K 7.e.e.e.d.s.8.P s.L H H M T ( V N T ) _ ) _ T m m B F ' ! ^ w.w.x.l.l.w.Q ~ g.Q w.^ x J W J I 8.s.~ R T M s p s k S T M M D H ",
"m M k k W g.d.l.u.u.x.K K s.q.q.w.g.w.e.e.8.8.9.8.s.L D L Y G T ( N T ( ) S F M F | F S ' ! ! K e.u.c.i.c K q.w.K q.d.f.^ W Q K t.t.d.w.^ R s a T U S S k S D z ",
"s a D J ~ g.t.t.x.l.z.u.x.t.K K ~ f.s.k.w.K e.u.l.l.r.K W L D Y G ! ' ! ! ! ! ] s.] f.k.8.g.p.t.c.c.c.i.i.u.y.8.7.e.k.f.Q Q t.x.i.a.l.8.s.' z k D D J l l l x J ",
"s d G ^ g.g.t.x.x.p.z.c.z.p.e.r.Q I w.~ I K e.a.z.b.r.Q K P J ! ~ { w.^ f.w.s.b.b.l.b.b.l.t.p.t.c.c.m.n.M.m.x.u.9.d.k.f.~ ^ g.t.a.i.a.y.7.P Q D l ^ r.w.Q x z l ",
"S S ! { g.g.t.p.x.x.c.x.u.p.t.t.^ I x K Q e.).a.c.p.Q Q w.w.~ K P P 7.w.t.p.u.b.z.l.b.z.x.d.w.q.w.x.).m.M.a.i.c.l.v.fXd.] ! ^ d.p.a.z.z.9.7.t.7.9.t.u.u.u.7.x l ",
"! [ W Q w.q.e.t.y.x.x.p.x.x.p.x.Q J e.t.y.p.a./.c.c.q.y.g.q.g.g.w.d.x.z.c.m.m.n.z.m.v.c.e.w.w.^ w.x.).c.i.a.c.p.b.b.k.{ ] { ] f.b.b.v.z.9.7.9.a.c.c.a.c.z.u.7.x ",
"s.~ K K K w.t.e.y.y./.c.p./.p.p./.t./.x.y.x.b.x.p.x.e.y.e.e.t.g.d.b.c.c.m.a.n.).).M.).M.p.K w./.^.c.z.a.).).).x.k.h.} [ } } [ h.j.^.gXu.z.e.,.y.c.y.0.z.M.z.l.9.",
"s.K ^ q.Q q.t.p.e.y.t.g.p.p.c.a.p.a.x.p.t.t.q.K Q k.q.8.e.w.y.w.e.m.m.c.M.i.i.m.m.c.^.v.b.w.q.x.b.z.c.)././.p.w.{ { [ R } } ~.h.s.k.k.e.d.y.p.u.9.i.m.n.n.0.u.9.",
"l.8.7.q.c q.w.x.x.t.7.q.t././.a.y.a.p.y.g.x.f.! ] o.! L w.f.w.7.i.m.i.m.M.c.z.x.t.~ ! ~ ! w.^.x.t.u.a.x.a.p.Q D ! } ) T R [ ~.j.! W s.8.9.7.c.z.<.0.n.n.n.z.e.7.",
"l.l.w.Q q.q.q.w.t.g.g.q.q.p.c.y.y./.x.t.t.s.! G R ! G G ~ ] ~ ~ b.v.c.).b.x.b.k.! T E R ! f.gX^.y.p.z.a.(.p.^ ! D Y G R Y ] h.f.] L P 8.8.7.e.i.i.n.0.0.u.0.w.q.",
"k.k.g.t.t.w.Q Q Q r.g.Q 7.t.t.e.p././.g.w.L ! ' F R R ) R D R ] /.fXj./.fXh.] | F N T ( R f.v.).p.x.p.t.d.d.b./.s.L Q J ] s.{ Q J J w.8.P x c 9.0.n.0.0.y.y.Q G ",
"w.P w.d.e.w.^ ^ W D ~ K K e.w.Q q.w.7.w.w.s.f.f.{ ' R T R T T R s.d.~ ! ! G R R ( ( V ( Y f.^.l.x.t.y.w.K d.v.v./.g.f.~ q.q.Q J ~ Q 8.K I K I c 9.i.0.,.c c D f ",
"^ P ~ ~ J W J D Y l J J J J K W I K d.e.q.d.x.d.j.^ Y T T T F N G Y R [ ' [ ' R _ _ _ ) { fXe.q.q.~ ^ s.s.d.t.e.w.e.w.t.q.q.q.w.7.7.7.7.I I I c c l.y.K z k f f ",
"! ] ^ P J J D D D D D G J W r.f.~ 8.k.e.w.e.u.g.e.Q E / ! G N T R ' R [ R ! R R [ _ R ) R ] ! Q J ~ ~ w.b.g.q.e.r.r.y.t.g.y.x.b.9.7.,.9.8.K I I 7.e.y.c l D z M ",
"G ! ! W ] J H H W L S k H K ] P I P d.d.d.s.d.d.8.] ~ { ] ~ G Y Y ! E [ F F [ ) ' [ T T ( T S ~ r.Q w.t.g.l.b.y.y.Q t.c.l.l.z./.x.,.9.0.u.c c ,.,.y.c x x k d q ",
"^ ' ] ] s.] D H ] W D z D L ~ L J k.w.8.8.8.w.d.f.w.P P P ~ ! ! ~ W S R F F _ [ } ) ) T T R ^ x J ~ g.t.y.g.p.w.q.r.t./.c.y.a.a.u.u.i.n.0.7.9.e.7.9.Q x x l S M ",
"k.s.s.~ s.s.L z D G S H I J ! P K ~ I I I I e.d.~ P 8.8.I K P ~ k.g.~ S ) ) ` E T ) { J G K r.J l ^ t.q.w.x.r.q.Q y.q.y.y.u.a.c.z.a.n.n.0.i.u.u.u.t.y.Q K l k s ",
"l.l.g.s.s.f.W D S D D D H I I ] J J I K J K d.w.8.8.e.s.P K K q.x.b.f.G _ ( U U T [ o.o.{ { r.Q W W r.t.g.t.r.w.o.W x Q w.x./.c.z.z.n.n.i.m.i.e.y.y.q.q.W x Y a ",
"b.x.g.d.~ Q ! ! G G D H D H G ] ~ P J W r.~ K 8.d.d.t.q.P w.w.,.y.x.~.J ! S S T R _ o.C * 0 j.P I G f.L w.s.W W ' D S ] f.g.x.z.i.m.n.M.n.c.l.z.e.Q P ] Q W W v ",
"x.u.e.g.s.D D ! ' L J D H z z D P l z J K I I 8.d.e.w.e.k././.p.p.p.x.~ Q ! [ R ( + +   . o h.w.} ) a ) L Q Y z S T T ) ^ 8.e.u.c.c.i.m.m.c.i.z.e.c J W J D l l ",
"l.u.e.e.Q x P s.P ] s.P P I I I I D J J I K P P s.8.7.w.r.^ Q t.c.p.u.x.e.^ E p   X  . .1   ] h.B % & * T G D T S ( ) L L ~ d.p.c.c.x.i.c.n.n.n.y.K I J G W W W ",
"u.l.x.w.K w.k.f.P P P P P d.w.J l J J P d.k.k.8.k.e.w.w.~ D D f./.z.c.x.t.^ m   - -  .....  [ } * ; , & Z M R T E R R ! ~ ^ /.x./.c.c.u.m.M.M.n.y.y.K D J ! / Q ",
"c.b.d.8.e.d.8.P w.d.g.d.s.d.f.^ ^ W J ! ] P w.t.x.x.Q ^ l U U } ~ 7.0.i 3 o     - 1 - -  .X . = $ $ % > n T U E R ! Y ] ^ g.(.y.l.^.z.u.z.m.N.M./.p.q.P L L G D ",
"M.gXx.w.8.8.7.q.x.d.x.d.e.s.f.r.^ L ! Q L ~ Q t.r.Q ^ S U q # 5 # u N.0.8 B   2 - 1 ..:   X o 3 fXq @ o O p o.) T R ! W J j.t.t.u.z.u.i.i.i.M.M.p.g.k.f.^ ! W L ",
"b.x.g.d.8.e.g.v.z.l.l.l.g.r.w.Q L P h.f.{ f.w.] R _ ` o O O 3 )._.hX@XhX^.3 . ,  .- O.: O @ %.+X@XI.+X0.8 $ O + A T Y J q.k.f.g.z.v.z.0.9.9.l.9.K Q s.] ~ ] Q ~ ",
"s.w.e.d.e.x.).).z.z.z.x.x.f.w.q.] P s.s.f.^ L L f 3 @ 3 i i t -.Z.-.=.@.0.i @ + : 1 g = 5 y.+X4.V.*.*.&.+.i 8 3 @ 3 Q f.f.h.h.j.b.z.9.9.d.8.k.k.^ ^ ] ~ L P L Q ",
"k.g.w.e.y.z.M.N.M.m.z.c.v.x.k.~ w.P P P D ) 0 # # w L.L.2XP.U.F.T.T.N.e %.t 7 3 0 s 9 9 i 7 e @.*.T.R.F.2XP.kX+XL.3.7 4 j.h.fXfXf.P 8.8.w.P f.w.f.! ^ L J ^ w.w.",
"g.^.b.k.c.m.M.M.M.m.v.M.v.b.f.w.s.s.s.L [ 5 O r 0.+X4X{.5X7X8X%XF.V.@.-.N.hXN.9.8 9 ,.n.%.0.%.%.I.I.kXlX=X*X5X=XkX2X_.7 i ~.) 0 0 M ] K P K 8.s.] ! ] w.w.f.f.~ ",
"t.^.).gXv.c.M.M.m.M.gX^.8.q.s.f.~ ] ~.' # 6 %.L.OXaXvXvXiXbX4XP.&.@.P.$X4X2XI.3.t 3.jX8X2XT.4.@.-.I.U.4X-X{.uX{.cXkX8XL.%.# 0 % , * | d.8.7.d.d.^ ~ s.d.d.g.f.Q ",
"8.c.M.M.i.i.M.i.i.l.c.l.7.P w.w.w.h.} 3 6 _.2X7XvXPXvXpX9X:XP.&.L.jX[.>X-X4X4.@.@.hX4X3X}.Y.2XI.@.@.F.kX<X,X<X|.;X7X5X8XOXt # & > * ' d.8.K 8.w.s.s.k.l.e.e.g.r.",
"8.l.z.z.z.z.m.z.u.l.x.8.q.e.9.w.s.h.5 6 #XpXvXiXsXaXyXcXoX*.=.4XkXxX>X>X*X$X-.+.@X8X;X6X{.5X8XT.I.@.B.A.7XtXtX<XyX,XG.uXG.5.t # * B ] w.~ J D K s.g.g.d.d.w.g.^ ",
"s.d.l.l.l.x.c.z.u.y.w.w.q.b./.f.{ 4 r _.rXwXtXwXvXyXpX8X*.*.F.G.;X<X<XtX,X2X-.3.kXxXxX{.6XH.=X8XA.V.&.2XuX>X}. X1XiX<X*X5X8X@Xi # _ Q K W G ! J f.k.g.e.q.q.^ ^ ",
"8.w.e.8.P w.t.y.q.e.e.k.s.h.fXfX( # <.pXpXaXyXvXvXvXxXZ.&.P.%X%XuXuXiX5XY.*.&.hX5X;XG.<XiX}.{.=XY.A.&.=.-X}.iXyXvXuXvX<X7X$X9XN.3 Y W J Y S W { k.g.d.e.s.f.f.] ",
"w.8.8.P K K e.t.q.w.s.h.} M 0 0 O i @XvXPXpXPXtX;X-XA.&.B.T.G.}.6XvX1X5XY.C.&.2X;X>XtXiX:XiX}.K.Y.Y.Z.&.%XG.>XtX1XvX:X|.5X8XcX2Xm.i J G R G G Q w.d.g.g.~ Q ~ ] ",
"Q x K 8.P J K w.q.r.o.0 * > < $ 3 #XrXvXpXPXwX1XH.=X=.V.Y.Y.;XcXtX6XuX-XF.R.*.U.}.>X<XtXtX;X}.,XY.Y.=XA.B.$X9XiX<XtX:XtXiX,X{.U.L.e J R R R S l W ~ f.j.^ J L ' ",
"D z I P K x K P g.` * ; , , > o <.PXpXwXaX1XyX6XG.F.V.I.Y.J.-XuX6X1X7XU.C.A.B.U.,X}.<XtXiX6XtX}.=X=XU.U.4.9X:XaX<XtXyXaX1X<XtX5XP.+.9 ) R D D W W J Q ~ W G F H ",
"R k H D I 8.l.k.o.* ; , , , ; @ zXPXvXaXvXvXU.kXY.R.*.U.=X{.aX9XvX1X-XF.B.*.F.4XxX,X>X X>X<XwXD.}.[.8X2XL.5.:XyXsXtX>XyXtX<X7XcX4X3.@ T F J ^ g.t.f.s.L D S M M ",
"Y z S l K g.c.f.* , ; , , ; o k bXvXsXPXvX7X-XY.V.R.C.U.[.pXbXrX6.oX;XG.Z.&.A.kX5X;X>X<X>X<X>X<X X1X5.$.:.$.2.sXpXqXyX X>X>X%X$X;XjX# H G ] /.g.(.j.j.W S U S M ",
"W W ^ r.r.r.(.! & , , , % * @ zXOXsXqXvXvX-XG.Y.A.C.A.bXbXy 3 4 4 t oX$XU.*.5X&X-X*X*X<XiXiXtXpXrX:.w 5 7 t w r #.zXbXiX XD.<X{.G.$Xu 8 k.k.(./.l.l.k.] Y d d M ",
"J Q q.Q c y.r.S < , 2 > < V 4 0XpXwXaXvX;XY.Y.Y.B.L.S.5.w y >.h v y u S.P.*.=XG.6X{.6X<X1X[.aXvX0Xr j W.W.#X0X<.y j #.#X:X6X*X;X-X$XhXr w.b.p.p.d.8.s.L J k U M ",
"l x r.q.x Q ~.B < 2 , % 0 l _.bXaXwX>X<XY.F.Y.T.3.r r 7 6.].'.].]._.u :.OX4.U.,X-X{.}.>XwX1XyXsX#._..XXXNXXXqXoX<.c 9 y #.9XxXuX&X;XjX6 x.x.p.p.u.d.b.k.w.L ! ^ ",
"l x q.t.c Q ~.0 < , , > V x _.vX:XwX|.K.7X4X2X5.y 9 9 y.0XwXXXMXXXXX#Xt S.1.$X6XuX>XiX}.D.|.eXqX+.0XXXIXFXNXXX].n.r.q 4 t @X;X5X{.kXhX7 7.w.7.t.l.l.8.s.k.b./.j.",
"z z I ~ q.j.~.p > 2 , , Z 3 #XvXpXaX>X-X3X$Xu 5 g Y y.6. XXXNXZXJXMX.X1.$.5.9X>X>XtX,XiX}.wXdX#.6.XXNXFXFXMX X#Xc 9 4 ;.I.H.G.*XJ.5XT.$.,.W Q K d.g.P P w.g.k.s.",
"D D I I y.e.f.N < , , , Z 3 _.:XvXPX<XH.=XP.7 9 9 z (._.'.XXGXSXAXFX X].e _.pX>X<X6X7X6X XsXzXt ]. XMXNXMX.X].e w j zXbXG.{.K.J.=XH.P.L.,.~ ~ J q.q.P P P j./.s.",
"G D x J ^ q.q.[ < , , ; Z 9 zX>XyXwX1X%XY.4X&.t e 7 y u _..XXXNXNXMX|.].r j 9XxX*X}.7XuXuXpX<.r 6.'.qX.X>.>.#.:.oXpXG.cX=X3XJ.J.F.-X7X&.,.w.~ ~ q.7.~ ~ ~ k.h.W ",
"R z W W W Q q.' , , , ; & 9 9X,XyX|.xX%X-X=X2X4.3.N.0Xt e $..XXXXX.X'.W.x y oXG.Y.}.}.>X6XOXy h _.#X].+.y _.1.9X6X7X}.G.5X-X=X3XH.7XkX3.c ^ P P ~ K Q Q P f.^ ! ",
"S S S S k Y J | < 2 , , * 9 oX6X[.uX-X%XH.7XU.4.B.%X$X[.yX:.u u W.6._.(.d # :.;X=X-X6X<X%XoXy f ^ j 7 ;.qXpX:X5X*X-X5X5X;X%XK.=X&XG.4XL.8 / ! ~ K q.q.r.s.w.] ! ",
"H f S z k k J F < , , , & 4 2X*X>X6X%X7X;XoX1.N.S.6X<X XwXqXdX_.OXt u r g 5 6.$X%X%X-X;X;XoXr 3 3 6 zXrXaX>XB.C.K.J.{.uXxXpX$XuX*X7X;X3.6 / Q f.w.w.~ q.k.8.s.^ ",
"d z D I Y k k M A & ; < & 8 P.*X,X{.-XxX:X:.6 j jXuX|.D.}.1XpX<XwX:X$.6 5 r 4.5XcX4X;X3X%XP.+.w t oX[.,X}.&XC.C.-XD.*XcX0Xy :.pXuX,X9X+X6 / ^ s.w.Q 7.w.e.k.f.w.",
"d S J G Y k l k V * % , & f 9XD.,X6X*X>XiX6.4 9 ;.].}.|.<X|.>X|.|.$XI._.%.#.$XU.3X4X=X8X-X;XP.bXxX7XK.=XJ.}.R.F.,X:X:XrX<.4 u bX:X4X7X:.8 ! w.w.q.t.w.d.d.e.e.g.",
"d M H H H S l Y R ( < > & q @X,XuXG.,X}.:X1.4 (.j w W.:XwX<X[.>XuXH.A.U.V.P.3X=X%XkXU.=X=X}.G.G.G.,XJ.,X&XJ.B.J.tXsX`.u ;.y :.rXvXxX$X].y ^ j.s.^ j.b.d.d.d.u.p.",
"M M F | | F U l G ) * > % 5 @X&X{.6X[.<XwXrXy (.W.6.#.].'.yXyX<X>X{.J.R.C.-X3XH.kX=X3X3XJ.&X*X<X*X&X|.}.D.>XS.:XqX].u j `.r :.qXiX:X8X3.c ] ~ k.^ w.d.d.l.b.x.p.",
"F ( A A B M M M Y R _ < < @ 4.G.7X;X[.<XeXsX>.y OX<X|.6.u #XsX1X|.}.Y.C.C.C.&X=X-X}.H.-X*X}.>X{.}.}.|. XwXwX6._.2.+.XX'.`.7 sX|.<X;XcX<.z Y ! ] q.d.d.e.v.v.d.x.",
"F ) | A B b s U R D _ 0 > @ _.G.5X{.cXwXeXPXPXt W.XXXX.XW.y ;.qX|.D.K.C.C.%X-X,X*X}.D.}.}.[.1XpXpXyX|. X|.BX7 8 !.MXNXeX6.e :X X}.8XL.4 z Y { P s.x.v.^.v.l.7.8.",
"^ ' G F H M R D R ! ' Z & $ n.8XJ.-X,X}.wXeXXX:.W.BXGXFXVXh >.PX|.|.}.K.G.G.}.>X}.|.|.wX|.qXt #.w PXyXBXwX2.3 LXFXGXFXXX6.W.,XtX*XU.hXw P G ] ! s.f.k.d.x.f.w.q.",
"w.w.^ [ R Y ) D S T R V < = t 9XU.K.%X>X|.wXeX].u MXAXSXHXX.h 0XwX X X[.Z.P.:XyXwXwX|.XXdX].y >.y 0XOXqX'.j h UXKXGXXX.Xu 0XtXH.=X8XgX8 I W ] ] { ] w.s.] f./.r.",
"q.w.w.^ ] ' ) U R T N T b = 4 N.=X3X6X;X<XtX|.'.u Q.FXSXSXFXg >.rXqX:XoX6.:.;.0XwXwXBXeXBXW.!.CXv Q.`.`.W.X.KXJXFXMX!.+.2.wX*X-X8X2X6 a | h.} f.h.] ^ s.s.s.j.k.",
"q.Q r.f.' _ ` ( _ R T T Z a 4 0.P.J.5X5X6X6X X[.].5 nXZXDXZXQ.v >.]..Xr W.W.5 j '. XXXBXmX8 NXKXmXg h v CXHXJXZXMXW.#.W.sXyXG.H.U.@X@ ) ' h.] ] h.h.f.{ s.] s.f.",
"w.w.^ ] | _ | _ E ) ] G R R f 4 jX=XK.J.K.,X[.[.W.W.E.HXZXSXJXGXHXX.g Q.ZXFXnX# W.0XdXE.X.X.JXDXJXKXJXGXKXIXFX!.>.j '.1X X>X*X=X2X%.4 [ ' ' ] L ] h.{ ] ] [ { ^ ",
"^ ^ ^ / ' } } [ ] ] h.K s.] } # -.kX=XH.&X=X}.D.-.sXu .XVXFXSXZXKXLXLXKXSXSXHXQ.E.E.h !.nXHXDXDXDXDXSXKX!.v W.:.W.rXqXwX6XH.5XT.N.7 K } { ] h.| G ! ' ' [ { h.^ ",
"J L G L ) ' ^ r.g.b.x.t.y.b.x.9.%.jXU.Y.7X-X*X[.1.rX>.r .XMXIXmXIXUXKXZXAXDXDXSXLXAXAXJXDXDXDXDXDXSXnXg r 2.].wXyXiX:XuX;X3XU.A.%.8 f.h.{ h.} D D D G } } f.{ f.",
"~ ~ ~ ] ] s.b./.c.m.a.c.M.M.c.i.w $.$X=XY.8X5X*XB.L.rX1.+.W.9 E.X.X.X.mXZXDXAXSXSXKXJXKXZXKXSXSXAXFXq `.5.=.5X*X,X*X5X-XkXkXI.$.4 L r.f.f.^ ' G D S B N [ { { f.",
"e.w.q.x.x.b.c.v.z.M.z.u.m.M.u.y.~ 7 3.P.4XY.Y.Y.*.=.G.iX1.#.t .XdXBXE.h NXHXGXFXIXQ.X.X.X.!.VXNXMX!.y _.L.Z.K.}.J.J.=XF.Y.I.0.3 i ] h.s.~ f.' ' R M B M T R { ] ",
"e.y.x./.z.c.c.c.z.v.v.v.v.b.g.w.f.w.7 N.2XT.Y.Y.Z.*.G.,XpXrXqXyXeXsX0Xy W..X.X.Xh 5 >.CX`.4 W.W.W.+.3.jX*.U.Y.J.J.lXJ.Y.I.-.4 5 ~.{ f.f.] { { | N N C M M S { { ",
"q.x.x.v.c.p.l.u.u.z.v.b.l.g.g.f.k.f.w.7 0.jXT.F.T.V.A.U.;X<XuX6X X<X:X+.w u :.;.r `.#XpXOXu j u +.oX2XP.&.A.4XY.Y.F.V.I.t 6 8 f./.g.g.^ ] L ' | N N V N U Y f.f.",
"w.x.x.u.b.b.7.e.g.x.k.w.P s.k./.g.j.~.~ @ %.I.lXI.4.-.T.;X;XG.*XG.6XD.$XoX1.5.OXOXvX1XcX:X].w 0.OXkXP.&.Z.lXV.V.lXI.0.w 4 G w.r.d.k.g.{ h.' G N S M d S Y ! f.w.",
"s.t.w.x.c.u.q.q.~ w.! Y R ' ] f.g.r.{ { o.4 6 %.M.%.%.N.P.G.Y.=X4X4XJ.J.G.C.S.8X;X;X>X6X{.,X7X$X3X2X-.+.L.hX0.n.,.r @ q L ! s.~ P w.~.j.] { ' G S S S z D W w.^ ",
"w.~ q.j.b.x.q.r.^ ! R [ ) G G ] ^ f.{ { o._ S 3 6 4 # r 3.Z.$XY.Y.lXY.Y.Y.U.B.P.3X%X3XY.{.-X=XF.T.Z.e i 6 6 6 4 O $ A ) ' ~ ! Q P K k.] s.} [ G S Y S S H W ^ ~ ",
"s.s.K r.k.q.I r.f.^ ) [ ) T ) | Y ] h.] ' T M B 0 5 o $ # 7 N.@XT.R.Y.R.Y.A.@.@.P.T.F.U.Y.Y.T.4.0.w 5 o O O 5 0 N S R R R S Y G D ' h.s.{ ~ ! Y Y U k ! W ] ! ! ",
"w.J l W Q K Q h.f.[ E ` _ _ ( V ) ) D Y G S H B A Z C n p 3 4 e I.I.I.I.-.N.%.w t @.Z.T.I.4.N.i 8 @ 0 A b b m m M S ' ! ! T F F R ' ] f.! { G ! ! S l [ ] G Y U ",
"H D S z W ! ~ f./ E V V V V V N ( V d d s M S F A A m m s B f 4 # 3 # 6 4 @ o o # @ @ # 3 @ @ O f ' ) N s T T s M S [ ] ' ] G | ) ) ) ) ! ! D ! ! J W { [ V s C ",
"T S k U Y l Y ! / [ U C m m B m V ` V s s U S ! S N s M a m B N ) N M n p * n C A A n * * n A B B H T ) [ R T S M H R { ] ] ' S F T F T R D R R Y Y G ' E T V C ",
"E M M U U k k S R / T s m s C m M T U U d M S D S F f S M H H H L ! T T m m M N F ) T N M C V B N ! ! ' [ [ } ' ' G ] { P ] ' G ) F M F F N T ( N F S M C d C C ",
"V d M U U U U T S E M m d V M N d D Y E S R G S H S H D f S | L ! ! R T V C m m R E R R U M M M S R { ' ' G ! L D H G ! L | ' _ ( N V F N ( F V N B M B C b b C ",
"d s k S G Y R ! S R U d U S R S D Y / E ! ! ! R Y D D S M M L ! ' | N C C B C b m s N T ( F B C s S R ) ' ' ' L S G S R ' | ' ) ( m V V N ( _ ` ( B b p C m C n ",
"M M d S L W S k d U M d d Y ! ! ! ! W ! G ! R ' ! H f H N M G G F T m C b n m b b b V ( ) _ ( ( d T S S L } ] L H F S F G ' ) N C m m B B ( _ ( V b b < n b b b ",
"C V U U G G M a s s d s d Y [ ! ' R ! / S G ) G G D f a a H L L R T ( ( A B b b n A T ` _ _ _ V T T S S S ) S F F S T T F ( T N M m m V ( ` ( E V b b p < n b b ",
"s M d V G S a s p p s d k D ! Y L R G D F | F H ' D a a a | ] L ) T ( T V A C b A b T ` ) R ( V V U S D G R N F T T M T ( V E E ( N V V Z ( C Z Z p n n n n n n "
};
