/* XPM */
static char *_d7b2c0051d4485ffd049624840cb9b8WH90RKUEGDNtqUPh[] = {
/* columns rows colors chars-per-pixel */
"80 80 256 2 ",
"   c #0B0100",
".  c #170201",
"X  c #171507",
"o  c #270302",
"O  c #330000",
"+  c #3C0000",
"@  c #390A07",
"#  c #2B1D1B",
"$  c #331C1C",
"%  c #3A1B18",
"&  c #341606",
"*  c #1E2B12",
"=  c #2B241D",
"-  c #34211C",
";  c #2B3113",
":  c #2A1F22",
">  c #351D21",
",  c #242324",
"<  c #2B2223",
"1  c #262529",
"2  c #392524",
"3  c #333D23",
"4  c #430100",
"5  c #4B0201",
"6  c #4B0B05",
"7  c #530100",
"8  c #5B0100",
"9  c #560B04",
"0  c #581507",
"q  c #441A17",
"w  c #4D150C",
"e  c #620201",
"r  c #6B0100",
"t  c #660B02",
"y  c #760700",
"u  c #6A1603",
"i  c #791703",
"p  c #6E1613",
"a  c #49261C",
"s  c #55251C",
"d  c #59281C",
"f  c #542B07",
"g  c #662700",
"h  c #782407",
"j  c #64291E",
"k  c #6B2A1E",
"l  c #67251B",
"z  c #76281C",
"x  c #6F350B",
"c  c #4C2B23",
"v  c #492925",
"b  c #552B24",
"n  c #5C2C24",
"m  c #5D2D2A",
"M  c #562926",
"N  c #5C322B",
"B  c #573229",
"V  c #593632",
"C  c #543334",
"Z  c #642C24",
"A  c #6B2C24",
"S  c #632E2A",
"D  c #6B2E2A",
"F  c #662622",
"G  c #732C24",
"H  c #7B2D24",
"J  c #732E2A",
"K  c #7B2E29",
"L  c #762621",
"P  c #653126",
"I  c #6C3126",
"U  c #64332C",
"Y  c #6C332C",
"T  c #6A392D",
"R  c #743125",
"E  c #7C3126",
"W  c #74332C",
"Q  c #7B332C",
"!  c #7C392D",
"~  c #75392E",
"^  c #643531",
"/  c #6C3532",
"(  c #6C3934",
")  c #673A35",
"_  c #733532",
"`  c #7C3632",
"'  c #743932",
"]  c #7C3A33",
"[  c #773C3A",
"{  c #6E2E32",
"}  c #3C4724",
"|  c #33431C",
" . c #734600",
".. c #774337",
"X. c #5A4236",
"o. c #714141",
"O. c #683E40",
"+. c #860902",
"@. c #970703",
"#. c #871602",
"$. c #961704",
"%. c #8A1815",
"&. c #A90701",
"*. c #B50800",
"=. c #B81605",
"-. c #AB1910",
";. c #862502",
":. c #9B2702",
">. c #883703",
",. c #85281E",
"<. c #962E11",
"1. c #A72906",
"2. c #B53B06",
"3. c #A82518",
"4. c #B92719",
"5. c #BB3819",
"6. c #AD3309",
"7. c #832D25",
"8. c #832D2A",
"9. c #8B2D26",
"0. c #972B25",
"q. c #823126",
"w. c #83342B",
"e. c #8B342C",
"r. c #83392E",
"t. c #8C392E",
"y. c #8A3226",
"u. c #93342D",
"i. c #9B352C",
"p. c #923A2E",
"a. c #9A392E",
"s. c #963325",
"d. c #833631",
"f. c #8B3531",
"g. c #843A33",
"h. c #8B3A33",
"j. c #8C3D39",
"k. c #833C39",
"l. c #933631",
"z. c #9C3632",
"x. c #933B33",
"c. c #9B3B34",
"v. c #9C3D3A",
"b. c #953D39",
"n. c #A3372C",
"m. c #A23B33",
"M. c #A23E39",
"N. c #A73935",
"B. c #B53129",
"V. c #C71909",
"C. c #C71C14",
"Z. c #D3180A",
"A. c #D62718",
"S. c #DB351B",
"D. c #CA2A12",
"F. c #EA380B",
"G. c #E62A18",
"H. c #EA3718",
"J. c #F33C1C",
"K. c #F63718",
"L. c #EC2E0C",
"P. c #C73828",
"I. c #D83927",
"U. c #CD312A",
"Y. c #E83927",
"T. c #F83B26",
"R. c #EB362C",
"E. c #D61E1C",
"W. c #8A4801",
"Q. c #B24E0D",
"!. c #966D04",
"~. c #B07100",
"^. c #88413B",
"/. c #9C413C",
"(. c #974138",
"). c #8F472B",
"_. c #A4413A",
"`. c #B44A27",
"'. c #B86530",
"]. c #D05015",
"[. c #EA4615",
"{. c #F5441C",
"}. c #F9481A",
"|. c #F9581B",
" X c #EC4E10",
".X c #CF6A0C",
"XX c #EB6E0F",
"oX c #D64727",
"OX c #D85729",
"+X c #CA4638",
"@X c #D84638",
"#X c #CE522E",
"$X c #E94628",
"%X c #F54323",
"&X c #FC4424",
"*X c #FD4A24",
"=X c #FD442C",
"-X c #FE4B2B",
";X c #F54928",
":X c #EB5727",
">X c #FC5325",
",X c #FD542B",
"<X c #FE5B2C",
"1X c #F65726",
"2X c #E64735",
"3X c #FD4C33",
"4X c #F94B34",
"5X c #FF5332",
"6X c #FE5B33",
"7X c #FE5C3A",
"8X c #F95538",
"9X c #E95537",
"0X c #D56A32",
"qX c #E86629",
"wX c #F9652A",
"eX c #FA772A",
"rX c #E76838",
"tX c #FE6334",
"yX c #FE6A34",
"uX c #FF633B",
"iX c #FF6B3B",
"pX c #F36536",
"aX c #FE733D",
"sX c #FB7637",
"dX c #E87731",
"fX c #AD4742",
"gX c #854140",
"hX c #D35145",
"jX c #E85644",
"kX c #FF5A44",
"lX c #EE4B41",
"zX c #D96B46",
"xX c #FE6844",
"cX c #FE7747",
"vX c #F46F4D",
"bX c #B4930A",
"nX c #C99710",
"mX c #F08F13",
"MX c #F9AC19",
"NX c #F98D2F",
"BX c #F6B42D",
"VX c #D6A026",
"CX c #F9D718",
"ZX c #FAD311",
"AX c #FEE919",
"SX c #FCEC0D",
"DX c #FBCB27",
"FX c #FED728",
"GX c #F7D533",
"HX c #FFE725",
"JX c #FEE930",
"KX c #DBC62B",
"LX c #FC844D",
"PX c #FF9661",
"IX c #FDD648",
"UX c #FFE747",
/* pixels */
"a s n P ~ ! r.E q.r.L z R W R z h.t.u.p.t.q.H 8.G J W D S m B B ^ _ J J g.Q Y Z I Y ' ` g.d.d.w.7.l.u.e.y.w.E r.q.r.q.R k j k A F A n a a c v a B P I F a a n S ",
"b s d d I R E q.q.w.h.w.! r.Q G q.y.y.p.h.y.e.K K K J Z n m N N m { _ D _ _ Y P b n S ' J K W H l.x.u.u.f.w.J E r.p.r.R k k A J J Q S n b c v a a d Y P d a n F ",
"d n n Z W r.w.y.t.x.h.H G Q ! E H 7.e.e.e.e.f.8.K ` J F F n P ( N B U ( / / ( U M M M m ' _ W w.e.x.l.l.q.E q.g.q.r.E G G R J z H d.Q W D m s a b n P P d P S F ",
"b n d j J h.h.l.s.p.t.7.7.r.q.q.w.f.d.f.f.w.8.8.8.d.K D D W S S ^ n U ^ Y Z Z m m S { F _ ' Q H e.u.c.u.H H q.w.H q.h.d.! R E z t.t.f.Q Q Y s d I Z Z Z P j A l ",
"s d Z G Q h.t.t.l.p.x.x.x.p.H L Q g.d.d.q.H 9.p.l.l.r.E R J A Y Y Y ' W ' W W ` d.` g.j.w.h.x.t.c.z.i.i.i.u.e.7.8.e.k.d.Q E t.x.c.a.u.7.d.W l j A A G k k k L G ",
"b b I d.h.h.t.x.x.p.z.z.x.p.t.r.E J w.q.L H t.a.v.l.r.E H J A W Q d.` ` g.w.w.b.b.f.b.b.f.p.t.p.p./.c.m.N.M.l.p.9.f.j.` Q ! f.t.i.i.u.u.7.K Q k k Q r.w.E z l k ",
"Z A Y ] h.t.t.p.x.x.z.z.p.p.p.t.Q z z 7.H e./.i.m.p.q.E e.w.E E K K H y.p.p.u.c.z.l.v.l.b.y.w.q.w.x._.m.N.i.a.c.u.b./.k.Q W Q h.x.u.z.z.7.7.t.7.9.t.u.p.t.7.z k ",
"W ~ R E w.w.e.t.y.z.x.p.x.x.p.h.E G w.r.q.(.a.(.c.(.,.w.t.q.h.h.8.f.x.c.z.m.m.c.z.m.M.c.e.w.w.! w.a._.c.i.a.c.p.b.b.j.` ] ` ] k.x.v.v.z.9.7.9.z./.a.i.a.z.u.H z ",
"` Q R H H w.t.t.q.t.(.(.p.a.a.(.p.t.(.x.q.x.(.x.t.x.t.y.t.e.e.h.h.c.v.c.c.s.N._._.N._.M.x.7.r.x./.c.a.a.)._._.x.j.k.' ] [ [ ' k.j./.fXu.l.e.7.y.p.s.0.i.N.z.u.9.",
"d.8.q.q.z q.t.p.t.y.t.h.p.p.p.p.t.p.(.p.p.r.q.E q.h.q.7.8.e.w.w.9.M.m.a.N.i.i.m.m.c.v.v.x.w.q.h.z.z.c./.m.(.a.w.` ] [ / [ [ ^.k.g.d.f.f.l.e.u.s.9.s.N.N.n.0.l.9.",
"l.e.7.E q.q.q.x.l.t.q.q.t.(./.s.y.a.p.e.x.j.d.Q ] [ W J d.h.d.7.i.m.c.m.M.m.c.x.h.Q W Q R w./.x.t.u.a.x.a.p.Q I Y [ / U U _ ^.j.W Q d.8.8.7.l.c.0.s.n.n.z.z.e.7.",
"l.f.w.E q.q.q.w.e.t.g.q.q.p.x.s.s.(.p.t.e.d.W A / Y D D ` W Q q.c.c.v.M.v.l.j.g.W Y U T W k.fX/.y.t.a.c.x.p.Q W A J D I Y ] k.g.Q W K 8.e.7.9.i.s.n.0.0.l.0.w.E ",
"f.f.h.f.e.w.E Q E r.h.E H t.h.e.t.(.(.h.w.J J _ A U / / Y S Y ` (./.j.(.^.k.` { S m N ^ W g./.M.x.x.a.t.e.h.b.b.d.W K R w.g.d.W G J q.8.H L z 0.0.i.i.0.9.e.E G ",
"d.K w.f.r.w.! ! R A Q H H e.q.E q.w.7.w.w.d.g.k.` _ Y P Y U P Y ] ] W Q _ D D / ^ ^ N ^ D g.v.x.x.r.w.w.8.e.v.b.b.h.r.Q q.E E H Q K 8.H H L L z 0.s.0.,.z G A d ",
"Q Q Q Q H J R k I A R G G G E H L 8.f.e.q.f.x.f.h.! I U Y U m m S D Y ' ' ~ _ Y ' ( ( ( ] ^.w.H Q Q w.r.d.f.e.t.w.t.w.t.q.q.q.w.7.7.7.7.L L z L 7.l.e.z l x d s ",
"Q Q ` W G A A A L A k I G W ] d.Q Q f.e.w.e.l.h.w.Q ~ ~ Y I S P / T W ' Y W Y Y ' ( Y Y Y ] Q Q R Q Q d.j.x.w.e.r.w.q.t.x.w.x.x.7.7.7.9.w.L L L L e.9.H k j j s ",
"I Y W W Q G F F W J j j F H d.J L K f.f.f.d.f.f.d.K W ] ` Q D D Y Y ~ ' P S ( ( [ ( P P P Y I R ! E w.t.l.b.h.y.t.y.e.c.l.u.z.c.l.7.0.l.e.z z 7.7.e.7.L k j d f ",
"' ` ` ` ` ` A F Q W A l A J K J J h.8.8.8.w.f.f.f.Q K K K Q W W W A A I P P ( ( [ ' Y T _ D W A R E k.h.e.e.t.r.q.e.p.v.b.e.a.v.l.0.0.i.9.9.9.u.7.9.7.z z j j d ",
"f.d.d.Q w.d.K l A D A F L J K ` K E L z L z w.e.w.K K 8.H J H ` h.j.Q A Y ^ ) T m / I R A W r.R I ~ ..d.w.p.).E E ! q.y.e.t.i.c.z.z.n.i.0.u.u.u.u.p.7.7.R k k d ",
"l.l.j.d.d.g.W F Z A A F A l G K L J L J J Q f.8.8.8.f.e.H H H q.x.b.j.A _ U m N ^ / ^...] ] d._ N % q S ^.t.! ! ~ R R E q.p.v.z.N.z.z.n.i.a.a.s.u.y.7.E R k I l ",
"b.b.x.f.d.Q W W D A A A D F G ` w.K A W Q q.H 8.f.f.f.w.7.e.w.,.e.a.h.J J S S U / ( ..n q s ] / $ > = % ] w.R R ~ Z Z ' ).t.x.x.c.N.n.m.i.c.l.l.w.H q.q.R R Y j ",
"u.t.e.f.Q A A ~ W J D A F l l G J l k L H L L d.f.e.w.w.g.^.(.a.p.p.x.8.K ' ' ^ N @ o . . . ) v : 1 , # ^ Q I j P P D W W E w.t.z.n.m.n.n.i.z.l.q.z k R R A D F ",
"l.e.t.e.W L H d.K ` ` K K L L A L L G J L K K K d.8.q.w.d.Q E h.(.u.p.x.w.] Y a . X 3 } ;   ) % < , , # v U I P j Y J D R Q t.p.x.(.a.s.n.n.N.m.t.G z R G J Q J ",
"u.l.x.w.H w.h.d.8.K K K 8.d.Q R k R G K f.f.d.8.f.f.w.w.Q I A ] (.a.c.z.w...d . * * | } |   X.% $ < < < > C U P Y Y _ _ Q Q (.x.(.c.).s._.N.B.N.u.q.R k G E ` Q ",
"m.v.x.8.e.f.K H w.d.f.f.f.g.g.Q Q R I W Q Q r.t.x.x.E ! j P P [ Q ,.0.y @ o     * ; * ; | X . % > @ # : : 2 2 V V ) Y W Q ^.h.t.b.v.v.0.z.n.n.N.c.x.w.H H G J G ",
"M./.x.e.8.8.8.w.l.x.b.f.w.w.h.d.! W Q Q G Q H r.r.E ~ A P w + 6 + i B.0.9 v . X * 3 } ;   . o 6 b.0 O o . o < > - - V ( _ ] ^.k.k.j.l.u.0.z.N.N.x.h.k.r.Q W E R ",
"b.h.h.f.y.e.x.v.l.u.l.l.h.t.w.E J K d.d.d.k.w.d.Y ( ) o o O 5 _.+XhX@XhXv.6 . 1 | * | ; o O %.+X+XU.+Xz.9 @ o   # # # > o.o...V % % M g.f.9.l.f.H Q ] ! Q ! R R ",
"d.w.e.f.w.l._._.m.z.z.l.h.h.w.Q E ` d.` g.' J J d 4 O 4 p p y -.C.-.-.@.0.0 o & ; | a & @ t.+X4.E.*.&.&.+.p 6 + o o @ > $ 2 > < : : q ( d.d.f.f.` Q ] Q R R R W ",
"h.h.e.e.e.z._.N.N.m.z.z.v.x.h.Q d.K K K A / q O + e P.P.2XI.I.G.R.R.B.r %.y 8 4 & b 0 0 p r r +.-.R.E.R.2XI.vXP.P.0.5 o $ # < : 1 : % / J ` d.w.k._ ` J K w.Q d.",
"j./.c.b.c.c.N.N.N.m.M.M.v.b.d.d.w.d.d.W ' 6 O t s.+X4X{.5X7X8X%XA.C.&.-.B.hXN.9.0 t ,.n.0.0.%.@.E.U.kXT.-X-X=X4XkXoX+X8 O > 1 1 , 2 % / D K 8.d.` ` d.Q w.g.d.E ",
"e./._.M.v.m.N.N.m.M.fXv.w.8.g.d.Q ` j._ + 7 %.P.$XaXcXcXiXcX2XS.@.@.Y.2X4X2XU.-.y 3.jX9XR.R.4.@.-.U.R.3X*X{.xX[.cX7X8XP.p O # , 1 $ m ] K 7.e.h.d.` d.f.t.g.w.q.",
"e.l.v.M.i.u.N.i.u.l.c.x.H H w.w.` k.[ 4 7 `.2X7XLXLXaXpX9X:XI.=.oX9X{.-X3XlXC.@.@.jX4X3X&XT.R.U.@.@.I.kX<X,X<X}.;X6X5X;XjXu O # # $ _ d.q.E w.8.d.d.f.f.e.r.t.r.",
"q.f.x.z.z.z.m.z.t.y.h.9.q.r.w.E Q g.6 7 #XpXiXcXsXaXyXcXoX=.V.R.kXuX>X>X&X%X-.+.@X8X;X7X}.3X5XR.U.@.=.S.6XtXtX<XtX1X[.7XH.4.u + q b ] w.Q G k Q d.h.f.g.h.w.r.r.",
"q.e.p.u.l.z.v.u.t.e.e.q.w.x.c.t.r.6 t _.rXyXtXwXcXwXpX4X=.*.A.J.;X<X<XtX5X2X3.3.kXuXxX[.6XJ.=X5XA.C.&.2X7X>X|.[.1XaX<X&X5X8X@Xz + ' R H I A G J g.h.h.e.q.w.r.! ",
"e.e.8.w.8.8.f.e.q.q.e.t.p.p._.x.Y + <.xXpXaXpXLXaXcXkXD.&.I.T.}.uXpXiX5XG.V.&.hX4X;XH.<XiX}.{.&XT.A.&.=.-X}.iXyXcXuXcX<X7XY.2X4.+ W W A I D W ] j.h.f.t.d.d.g.d.",
"f.8.8.K K K e.p.y.t.u.i.u.9._./.O h @XcXLXpXLX6X;X5XA.&.V.R.H.;X6XcX1X5XT.V.&.R.-X<X<XiX:XiX}.K.T.Y.E.&.&XH.1XtX1XcX:X|.6X7XvX2Xn.p G A Y I A Q d.f.h.f.E K ` ` ",
"K F G Q E z E y.y.e.s.i.u.y.c.s.e +XrXcXtXLX1X<XJ.=X=.C.R.T.=XxX6XtXuX-XR.Z.*.Y.}.>X<XtXwX;X}.,XK.T.=XA.V.$X8XiX1XtX1XyXiX<X{.Y.P.r L / / I j k G Q h.h.] I J _ ",
"A l L Q R z z y.p.c.N.N.s.t./.7 <.LXwXwXaX1XsX6XH.G.E.E.T.K.,XtX6X1X7XY.Z.E.V.J.,X{.<XtXiX<XtXK.-X=XY.Y.4.jX:XiXtX<XyXsX1X,X6X5XI.+.0 / Y A G R R G E Q W A F S ",
"R l j F k E r.x.p.z.m.m.u.l./.7 0XLXcXsXcXcXJ.kXT.R.*.G.;X{.xXqXcX1X=XG.V.*.Y.=XxX>X|.[.,X<X<X X}.[.4X2XP.5.qXeXiXyX1XyXtX<X7XxX4X3.O U D A ! t.r.r.g.W F j Z Z ",
"A F S Z R t.c.u.9.9.s.a.p.x.p ;.vXaXLXcXcX7X;XT.Z.A.Z.Y.[.pXvXrX6.oX,XH.C.&.A.kX5X-X,X<X>X<X<X<X[.wX5.$.:.$.2.pXpXpXyX[.>X>X;X$X;XjX+ F D ` ^.(.(.r.h.W I P n b ",
"_ _ ( [ ] w.z.u.9.9.y.,.p.c.t zXOXaXqXcXcX5XH.T.A.Z.A.xXvXh + 6 6 y oX[.I.*.5X&X-X>X}.<XaXyXtXpXrX:.e 5 e t e r ;.zXvXaX[.F.<X{.H.$Xi p { j.t.(.j.l.j.{ P n d b ",
"^ q % q R y.u.i.a._.y.y.t.,.8 zXwXyXaXcX;XT.T.T.C.P.5.5.8 u >.i x u #.P.I.=.=XK.5X{.7X<X>X[.aXcX0Xt h Q.Q.#X0X>.u u i #X:XtX*X*X-X$XhXt 9.b.h.).l.8.d.J I j P n ",
"$ = = % Z 7.x.c.M.a.,.t.E z n.vXaXwX<X<XJ.K.T.R.3.r t t 6.].].].].`.i :.@XV.$X-X-X{.}.>X1X|.yXsX#.`..XXXMXXXqXOX<.z 6 u #.9XxX7X%X;XjX7 l.h.p.z.u.f.b.f.w.H Q ] ",
", , , # A w.t.y.,.y.y.t.E h #XaX:XtX}.L.5X3X$XB.u 0 0 y.0XwXXXmXXXXX#Xr Q.=.$X7XuX>XiX}.[.:XeXqXi qXXXIXGXMX X].n.).w 7 y @X;X,X&XkXhX8 8.q.7.p.l.f.8.d.b.j.j.h.",
", , 1 > / h.t.7.z z t.! Y + #XcXqXyX,X-X3X$X#.6 f I y.3. XXXMXCXFXmX.X1.$.].1X1X>XtX,XtX|.wXdX#.6.XXMXDXDXmX X#Xh 0 4 %.S.H.H.-XK.5XY.$.,.G E E f.h.8.K d.f.j.w.",
", : : v ] h.h.e.q.R E I N + `.:XaXPX6XJ.=XI.8 0 0 k ).`.OXXXFXZXZXDX X].e `.pX>X<X6X7X<X[.iXzXy D.XXmXMXmX.X].r e h zXvXS.&XL.K.=XT.I.P.,.Q Q J q.q.K K K j.(.d.",
": < $ O.Q E y.h.h.h.g.' % 6 zX,XyXwX*X%XT.4X$.y r 7 u i `.].mXMXMXmX|.].e h :XxX*X}.7XiXyXpX<.t 6.].qX.X>.>.#.:.OXpX[.xX=X3XK.K.L.=X7X&.,.Q Q K q.E Q Q E j.^.W ",
", : > V Y E q.q.q.] ..% - w OX,XiX>XxX&X-X4XI.D.3.B.0Xu r $..XXXXX.X].Q.k t oXY.T.}.&X>X6XOXu g n.#X].+.u `.1.9XuX5X&XH.,X-X=X3XK.7XxX3.z Q J K w.H H E E g.W W ",
", , # C n k J G I ( % # - 0 oX6X[.tX,XT.J.6XI.C.V.$X[.:XpX:.i i Q.6.`.).d + $.1X&X-X7X<X%XOX9 d r.h 8 ;.qXqX:X5X*X-X5X5X;X%XL.-X*XH.4XP.9 ! Q Q H E q.r.d.8.` W ",
", , < 2 m S k S N % = < # 4 2X*X,X<X%X7X;XoX1.B.S.<X,X XwXqXdX`.OXy i t f 6 6.;X&X%X-X&X=XoXt 4 6 7 zXrXaX>XV.Z.L.K.{.uXxX7X$X7X*X5X;X3.7 ' Q w.w.r.E q.f.d.d.` ",
"< , 1 < C B M c > < < # $ 6 oX*X,X%X*XxXpX:.7 ;.jX7X}.F.}.|.pXwXtX:X$.7 6 t 4.8XvX=X%X3X&XS.+.r y oX[.,X{.&XZ.Z.-XF.-XxX0Xt :.pXuX6X:X#X7 ~ Q d.w.H q.d.f.d.g.w.",
": < , < 2 $ $ # < < , < % l 2XK.,X6X*X*XpX6.4 0 i ].|.|.<X|.>X}.}.[.P.B.<.#.Y.J.3X4X4X8X-X;XoXvXxX7XL.&XK.&XL.G.,X1X:XrX<.5 h vX:X;X8X1.9 W ` w.q.t.d.e.f.e.f.t.",
"< < 1 1 1 : , 1 , 1 , < % 9 9X-XuXH.<X}.:X1.5 ).h r Q.:X1XwX[.>XiX[.G.I.V.S.8X=X=XkXY.=X=X*XH.H.H.-XK.,X&XK.V.K.tXsX#Xu h t >.rXcXxX$XP.u Q j.d.Q ^.b.f.f.f.e.p.",
"2 # 1 , 1 1 1 1 , , < - c 9 @X%X%X6X[.<XyXrXu ).6.Q.#.].OXyXyX<X1X&XK.G.Z.&X3XY.kX=X3X3XK.}.*X,X*X*X|.}.F.>XA.:XwXQ.i h 0Xt :.qXiX:X8X3.z ] Q h.w.w.f.f.l.b.x.u.",
"V - = , 1 1 1 1 = = % ) ..5 4.H.7X;X[.<XeXsX;.u 0XwXXX6.#.#XsXwX|.K.T.Z.Z.A.=X&X,X{.J.*X*X{.>X{.}.}.|. XwXwX6.`.2.y XXqX#X8 sX|.<X;XvX<.l R W ` w.h.p.e.v.v.f.x.",
"U X.v 2 : : < C 2 a ^ ' ..8 P.H.5X%XxXtXsXNXNXi D.XXXX.XQ.u #.qX|.L.L.Z.Z.T.-X,X*X}.F.}.}.[.1XpXpXyX|. X|.NX8 9 .XmXMXeXW.e |. X}.5XP.5 l I ' Q w.h.v.v.v.l.8.w.",
"~ ' P N B B ^ N ^ ) ^ / I z 5.8XK.-X5X}.wXeXqX:.Q.NXDXDXBXg >.LX|.|.}.L.H.H.;X>X X|.|.eXwXqXy #.t LXqXsXqX2.4 KXDXFXDXXX6.Q.1X6X&XY.hXe J A _ Q ] f.f.l.b.f.w.E ",
"r.d.W ~ / P Y P D U / U n z y jXH.K.{.>X|.wXeXQ.#.VXZXAXGXW.g 0XwX X[.[.D.S.:XyXwXwX|. XXX].u W.g 0XOXqXOXh g UXHXJXXX.Xi rXtXJ.3X9XfXt L W ` ` g.` ` d.` h.^.t.",
"q.w.w.k.W ~ T P ^ m S m m n 8 B.%X4X6X;X<XtX|. Xi !.DXSXAXGXf >.rXqX:XoX2.;.;.0XwXeXeXNXNXQ.~.VXx !.'.0X~.W.JXHXDXmX.Xi 2.wX;X*X5X2X7 s { k.k.g.k.` w.] d.d.j.k.",
"8.w.d.d.' Y T P ( / { { B U t 0.Y.J.5X5X6X6X X[.`.7 bXCXSXCX!.x >.]..Xt Q.Q.6 h OX XXXeXVX6 MXGXnXf f x VXBXHXCXmXW.#.Q.sXyXJ.J.Y.@XO ( _ [ ` ` k.k.] ] d.` d.d.",
"q.d.g.` _ / / ( / _ ' J { / s 7 jX=XL.K.F.5X[.[.].Q.Q.GXCXAXHXGXGX .f !.CXDXbX@ Q.0XdXW.f !.HXSXCXJXHXHXJXIXBX~.>.;.].:X[.>X*X;XR.%.4 ' ' ` ` J ' k.g.` ] ' ] ! ",
"w.` ` _ / [ _ [ ] ` g.H d.` [ + -.kX=XJ.T.&X}.F.$.sXu .XMXDXHXCXJXKXKXJXAXAXGX!.W.W.g ~.bXGXSXSXSXAXAXJX~.x Q.6.Q.0XwXwX<XJ.7XR.P.8 J [ ] ` [ { I W _ _ ' ] k.! ",
"K J Y I Y ' ` w.x.b.x.t.e.x.(.,.%.jXY.T.7X-X*X[.=.rX;.t .XmXIXnXIXUXJXCXZXSXZXAXKXZXZXAXZXSXSXSXSXAXbXf t 2.].yXiXiX;XiX;X3XT.C.%.9 g.k.] k.[ J A Z S [ [ d.k.g.",
"K Q Q ' ] d.x.v.c.v.z.a.N._.a.a.r #.Y.=XT.7X5X5X=.].rX:.+.Q.0  .W. . .nXAXZXSXSXAXJXHXJXHXHXAXAXZXDXw '.5.=.,X*X>X*X5X-XkXkXI.$.5 W r.r.k.Q J D A S M S ' ] ] ] ",
"f.w.q.h.x.(.c.v.M.M.z.u.M.M.t.w.7.8 3.I.3XT.T.T.*.&.S.iX6.#.y .XdXNXW.g MXGXFXDXIX!. . . .~.BXMXmX~.r `.P.D.L.}.K.K.=XK.T.A.0.4 p ] k.g.` g._ J I M M m U Y ` ` ",
"e.y.p.v.z.c.c.z.z.v.v.v.z.z.x.w.g.w.8 B.@XR.=XT.C.=.H.,XpXrXpXwXsXeXdX9 Q..X.X.Xg w W.0X'.9 Q.Q.Q.+.3.jX*.Y.T.K.K.3XG.T.U.3.5 6 k.] g.` ` ` [ / S N m b d P ] ] ",
"q.b.x.v.v.x.p.p.l.l.v.b.f.l.j.h.h.g.w.8 0.jXR.G.R.C.E.H.:X<XtX<X}.1X:Xy 8 y :.;.t '.OXdXOXi h u +.oX9XI.&.A.3XT.T.R.E.U.r 7 0 g.(.h.h.d.` D { / m m m n P I g.r.",
"w.t.p.p.z.x.7.e.f.x.h.Q Q d.g.j.j.j.^.W + %.U.lXU.4.4.Y.;X*XH.&XH.tXF.;XOX1.5.OXOXcX<XxX:X].r <.@XpXI.&.C.lXC.C.lXU.%.e 5 A d.w.f.h.g.g.k.` D S n n Z Z I ! g.r.",
"w.h.w.x.c.t.q.H w.` W R / W ` d.h.d.g.] ..5 7 %.B.%.%.N.I.G.T.-X3X=XK.K.H.V.D.8X1X%X,X6X{.,X8X$X5X2X-.+.P.hX0.n.p p O w J Q Q 8.K w.j.k.` [ _ D F P F j k R w.Q ",
"w.q.w.h.(.x.7.g.E W ~ / ( D D ' ! ] ] ] ..( S 4 5 7 4 t 3.E.2XY.T.lXT.T.T.T.V.I.3X%X3X&X}.=X=XG.Y.C.r p 9 7 7 5 o 6 m ) / ' Q W K J j.d.d.] ' D Z P Z Z F W ! W ",
"d.d.H ! h.8.H ! k.! _ ( Y U { / W J k.! / U Z s s @ o O + 8 B.2XR.E.T.G.T.E.@.@.I.R.G.R.T.T.R.4.0.r 6 o o O 6 q Z m Y Y Y Z I D D K k.d.` Q R ~ I I Z Y Q W ! W ",
"w.J A G E E E g.] ' T ( ( ( ^ U { / I Y D Z n m C C B v a 4 5 r U.U.E.U.-.B.%.e y @.4.R.U.4.B.p 9 O a v v v B M M Z ~ Y ~ I S S / _ ] ] Q ] A Y W j k ! ] D I P ",
"F Z A j R Q Q g.~ Y N B N N N B ^ N b d d m Z Z ^ M b b s b s 5 + 4 + 7 5 O o o + O O 4 4 + O O M _ / m s S U b b n ' ] ` _ D { / / ( _ ' W A W W G W ] ~ m b B ",
"P Z j P I I A ~ ~ ' U B b M M b N ^ P d d n I / S m d d d b M S ( m M c a q v C C B v - % v v M M F Z / ' Y P S F F Y ] ` J _ D S N m S Y Z A ~ Y A D Y T P N B ",
"U P n P P d j Z T ~ U b b b B M m P P B d n Z A F S j Z d F F F J ~ I N b c n n S Y U m b m N m m W ' ' ' ' ] ' _ D ` ] ` ` _ S / S m S m S Y U Z S Z Z B B B B ",
"N d n P Z P P I Z I n b d m m n d I I T P Y I F n F F Z d Z { { Q Y Y N N B M b Y ~ Y T P n M n Z Y ` _ ' D W { A F D W J _ J / U m N S m U U N m M M M b b c B ",
"b d d A I Y I ( A P P d P n I Z A R T ~ W W ~ D Y F F D m n J W _ { m B B b b s c s n ^ / m M N d S / Y ` _ ` J Z D Z D _ { _ ( ^ b N N m ( ( ^ N B v v c B c c ",
"N d Z j A W Z j n P P b d I ~ W W W W W A W / _ R l l F m n D A S ^ b B v v B v c c N ^ / ( ^ U d P Z n J [ ` D Z S S U D { / S N b b b B ^ ) ) m v v a v c c c ",
"n N P P D D n s s d d d j I ! W _ W Y ~ S D { D D A d s s n J J D S ^ ^ B M c c v v U ( ( ( ( N U U Z Z S Y S Z S Z P U U ) P n b M M N N ^ ) ^ N c v a a v v C ",
"d b n B D A s s a a s b d I W I D Y A A S S D S _ A s s s { ` J _ ^ U ^ m C B B C B N ) / ^ ^ U N P Z A D D S m D S n N ^ N ) T U m N N ^ ^ B V V c a v - v v c "
};
