/* XPM */
static char *_c237965c3354b6ef5f501da0b557622XXYUy6aJ6bA4tzet[] = {
/* columns rows colors chars-per-pixel */
"80 80 247 2 ",
"   c #050003",
".  c #0C0001",
"X  c #0B020B",
"o  c #08040A",
"O  c #130000",
"+  c #1B0000",
"@  c #15060C",
"#  c #0D0A15",
"$  c #140B14",
"%  c #170D19",
"&  c #14121D",
"*  c #1B131C",
"=  c #171519",
"-  c #0F1014",
";  c #230100",
":  c #2B0201",
">  c #2D0A06",
",  c #350907",
"<  c #270E18",
"1  c #27141C",
"2  c #3A151A",
"3  c #341015",
"4  c #140E23",
"5  c #1A0F23",
"6  c #151324",
"7  c #1A1424",
"8  c #1C1925",
"9  c #161429",
"0  c #1B152A",
"q  c #1D1A2B",
"w  c #161827",
"e  c #1E1C31",
"r  c #0E1120",
"t  c #231424",
"y  c #221B25",
"u  c #221629",
"i  c #221D2C",
"p  c #2A1C2C",
"a  c #2B1423",
"s  c #361A27",
"d  c #231E32",
"f  c #2A1D30",
"g  c #301629",
"h  c #1F212F",
"j  c #23212D",
"k  c #2C222D",
"l  c #262329",
"z  c #33232C",
"x  c #3B242C",
"c  c #252233",
"v  c #2B2434",
"b  c #2B2935",
"n  c #2A263A",
"m  c #2D2A3B",
"M  c #262638",
"N  c #332433",
"B  c #342A36",
"V  c #3C2A34",
"C  c #322B3C",
"Z  c #392838",
"A  c #39323D",
"S  c #3E201E",
"D  c #480918",
"F  c #43131B",
"G  c #48181A",
"H  c #581B1C",
"J  c #480E08",
"K  c #681A1B",
"L  c #49251B",
"P  c #54251B",
"I  c #5C251D",
"U  c #58271B",
"Y  c #64261C",
"T  c #6A261C",
"R  c #642A1E",
"E  c #6B2A1E",
"W  c #742A1E",
"Q  c #7B2A1E",
"!  c #75261C",
"~  c #4C1C23",
"^  c #461A25",
"/  c #581A26",
"(  c #6C1D27",
")  c #422322",
"_  c #4C2A23",
"`  c #492629",
"'  c #532424",
"]  c #5B2622",
"[  c #532B24",
"{  c #5C2B23",
"}  c #5C2D2B",
"|  c #54262B",
" . c #4C332F",
".. c #54312D",
"X. c #5C322C",
"o. c #5B3126",
"O. c #432B35",
"+. c #4B2B34",
"@. c #442D3A",
"#. c #4B2D3A",
"$. c #442533",
"%. c #562C35",
"&. c #44323C",
"*. c #4C333B",
"=. c #4B3537",
"-. c #543433",
";. c #543934",
":. c #54333C",
">. c #5B353D",
",. c #55393B",
"<. c #5C3836",
"1. c #642B23",
"2. c #6B2C23",
"3. c #642D2A",
"4. c #6B2D2A",
"5. c #662527",
"6. c #742C24",
"7. c #7C2C24",
"8. c #732D2A",
"9. c #7C2E29",
"0. c #772528",
"q. c #643125",
"w. c #6D3125",
"e. c #63322C",
"r. c #6C332C",
"t. c #743125",
"y. c #7C3126",
"u. c #74332B",
"i. c #7C332C",
"p. c #77382E",
"a. c #672935",
"s. c #752A36",
"d. c #653532",
"f. c #6C3532",
"g. c #6C3934",
"h. c #643A3D",
"j. c #6B3A3C",
"k. c #67363A",
"l. c #743632",
"z. c #7B3532",
"x. c #743A33",
"c. c #7C3933",
"v. c #733B3C",
"b. c #7B3C3B",
"n. c #78333C",
"m. c #54403C",
"M. c #77423E",
"N. c #60413F",
"B. c #362C41",
"V. c #353242",
"C. c #2D2940",
"Z. c #4A3743",
"A. c #523B43",
"S. c #5C3B43",
"D. c #573642",
"F. c #4C2F41",
"G. c #633B43",
"H. c #693C45",
"J. c #753B44",
"K. c #782F40",
"L. c #5B4346",
"P. c #644345",
"I. c #6C434B",
"U. c #694447",
"Y. c #73444B",
"T. c #784447",
"R. c #734851",
"E. c #85291D",
"W. c #832C24",
"Q. c #8B2D24",
"!. c #832E2A",
"~. c #8A2E2A",
"^. c #842525",
"/. c #942E25",
"(. c #952E29",
"). c #833126",
"_. c #8A3126",
"`. c #83332B",
"'. c #8B342C",
"]. c #83392E",
"[. c #8B392E",
"{. c #93342C",
"}. c #9B342C",
"|. c #94392E",
" X c #973428",
".X c #842A36",
"XX c #833532",
"oX c #8C3631",
"OX c #833A33",
"+X c #8C3B33",
"@X c #8C3C39",
"#X c #85393A",
"$X c #933632",
"%X c #9B3731",
"&X c #933A33",
"*X c #9B3B34",
"=X c #963B3A",
"-X c #992C37",
";X c #A5362D",
":X c #A33B34",
">X c #A63A36",
",X c #B43C34",
"<X c #88433C",
"1X c #96423B",
"2X c #A64139",
"3X c #8B2F43",
"4X c #883747",
"5X c #973749",
"6X c #9B3C52",
"7X c #A33D4A",
"8X c #884645",
"9X c #954543",
"0X c #9A4659",
"qX c #854D50",
"wX c #A6485A",
"eX c #B7485C",
"rX c #B34C50",
"tX c #AD4A65",
"yX c #B74C67",
"uX c #B8546A",
"iX c #BC5674",
"pX c #AA5C70",
"aX c #CA535D",
"sX c #CA4F56",
"dX c #C34E65",
"fX c #C3536C",
"gX c #CA5669",
"hX c #D55B68",
"jX c #CB5C73",
"kX c #C75A76",
"lX c #D55D74",
"zX c #C14F70",
"xX c #D9646B",
"cX c #CC6377",
"vX c #D86678",
"bX c #E6656B",
"nX c #E76977",
"mX c #F77777",
"MX c #EF7471",
"NX c #FC8779",
"BX c #FB8B78",
"VX c #DB6A82",
"CX c #E77483",
"ZX c #F87983",
"AX c #EB7084",
"SX c #FC8986",
"DX c #FF9287",
/* pixels */
"L L o.q.y.y.].).`.i.6.! i.i.6.T `.[./.%X{.!.u.g.X. .O  .-.%.{ 1.1.g.3.u.n.z.! 6.2.d.l.p.l.OX'.W.Q.XXX.O ` k.d.p.y.'.).W E R 1.Y T Y I [ ' _ _ L _ X.q.] L L U 5.",
"_ L P U E y.y.).!.`.`.`.y.y.y.6.y.W.[.].@Xc.G + O + . O _ } e.e.1.q.g.d.l.9.u.Y ] ] 3.f.f.r.W ).'.OX+ O O + + X.c.].y.6.R 2.2.2.6.u.1.' ' ' _ L L U e.w.P P I Y ",
"' U U R y.`.`.`.oX'.@X7.W `.y.7.y.i.u.M.2 O . X 1 * . + [ { q.q.e.[ > 3 d.r.d.e.' { ' } 2 d.g.t.[.OX+ . * 6 X . O o.g.r.2.2.6.E 6.`.9.8.4.{ _ L U I 2.2.I 1.1.I ",
"{ R Y R ! [.[.[.'.{.&XQ E.).y.y.u.b.: + . # 8 & j * . S X.q.q.e.X.x . . <.} ..[ | <.-.L O O g.t.).@X> . 6 q 4 d @ . + ' d.r.y.! [.[.`.oXn.4.L P q.R T 2.R w.5.I ",
"L I R 2.y.[.'.+X{.{.|.|.|.$X`.1.k.+ . X q 4 9 c c % O <.r.w.2.e.;.. .   m.;.3 O + P.P.+ . O g.].|.1X3.O i 9 9 M q b @ . + j.`.$X}.|.'.!.`.i.Y I 1.2.W W ! T 2.2.",
"] ] w.i.+X&X'.{.|.|.|.|.%X[.l.L O . 8 j c n 9 e 6 k O e.w.6.2.r.O . =   @ O . o . O @ . % O + M.&X&Xb.+ u e c e w 0 r % O O 4.@X=X{.$XQ.!.7.u.E ! y.)._.W.! T R ",
"1.R w.i.+X'.oX$X|.{. X|.@Xc.+ . X l d 9 4 4 C.0 c % + l.i.).l.F . B & # o - l j t % X $ u t O g.`.1X8X+ * & w 6 6 e 6 & 8   . , XXoX*X$XW.Q [.Q W._. X X(.^.T E ",
"t.i.u.t.i.!.'.{._.|.%X[.<X+ . $ 6 9 9 C.f 9 m b 7 y O g.+Xi.M.+ X 6 7 w = b w r 6 v 9 q 4 p . , `.OXqX+ z & c q M w r j h & $ O ; 9X=X$X_.! E. X*X*X X}.;X{.Q ! ",
"].6.6.W 7.!.|.Q.)._.1X<XO . j 6 q m 0 0 C.m w w b N O g.XXi.M.O 1 b 7 6 7 w 0 w c 6 7 0 c & # + 1X<XM.O N 0 f d e c w 7 6 6 v $ O : 9X$X$X~.E./.}./.}.(.%X X_._.",
"`.7.`.i.y.). X|._.].#X; . y 8 6 w q 0 0 6 h h 0 w 8 . 2 n.x.+ . b 6 b 6 d 4 0 0 M q w 7 i 6 * O M.<X+ . 0 0 d d m w 0 v 6 q 7 5 * . , #X[._. X X/./.;X;X;X X/._.",
"'.`.!.6.7.7.).[.[.c.; . 7 M q e r r q q m v n q e 4 o O h.T.O o p 0 7 b d 0 0 0 d e 9 w v 7 7 X j.d.. 8 u n 4 e w 4 0 0 d n 9 9 6 $ O F 9.^.%X}.E./.;X;X}.{._.Q ",
"$X[.!.i.y.y.).[.c.H O v n 9 c w c 6 6 M 8 8 m 6 n q i X O <   q 7 u a Z C.n 0 C.d e u f t 6 6 o @ O o 0 5 f 9 r C.M q M n C.e 0 q j   O f.9.W. X/.;X(./.(.{.).Q ",
"'.oX$XoX`.`.7.t.e.O o 6 4 0 0 9 C n 4 0 q q 6 6 q 0 C u @     b 7 a / 3 Z n n u 4 0 ^ ^ Z 5 9 # X & 6 p 6 6 m M 9 M M 9 4 e e e n 6 M   + 3.6.^./.}./././._.y.E ",
"!.7.`.!.`.`.i.x.O   6 9 9 n q q n d q 9 d c 9 q 9 d 8 8 8 j 0 6 & g tXtXa C.d n C Z pXpX< u 0 6 n c 7 7 9 M 0 q e 0 e 0 4 4 9 4 n 6 b q . : 2.^././.Q.E.! ! R Y ",
"XX6.`.i.7.T 4.} . = c m 6 9 0 & 7 7 c c 6 q 9 9 e n d u w M b j u s wXtXa 5 0 u 5 g wXuXa 0 C.0 c c q c w w e e e c 0 c 7 9 r m m d 7 & # O 3.5.0.~.Q.! ! K U P ",
"8.u.i.7.6.2.} O   b b c c 9 C 6 q n M e M 0 9 0 c q 0 M h M 7 j i z D s.$.5 u 0 d < s.D $.5 5 n 0 m 6 b c m e c 9 9 0 v 6 0 r r 4 M c m q . ; 5.! {.Q.7.T E Y U ",
"t.w.8.s.!.4.| . & d 6 7 c 6 m 0 m c 0 e q c e 0 7 0 d M w M 8 m i i N a u 0 7 w 7 f s 1 B q b v C u e 9 4 q b M c c i p q b r 9 7 q 9 C.9 p O e.6._.7.! E Y U G ",
"i.u.z.i.i.l.O   8 q 7 v 6 b & 6 6 7 9 c c d 0 q M 7 M M 0 c q 6 u i i 8 h 0 h b q c 0 7 d M q i 0 C e 9 7 6 9 6 7 6 v 8 0 c e # c & 9 9 9 & . ; 9._.E.W W 1.I P ",
"oXXXXXi.OXg.. q j q i 6 o     o b 8 b w e 0 u 8 h j c c b q 8 c c q m q b 8 c j C m q q m c b b c w w 9 i 8 0 7 b j q 8 7 i o     = & c 9 6 $ + OX{.W.7.W 2.T Y ",
"$X$XXX`.u.e.. q m v *   . $ o o 8 6 M q w c v y y 8 w q b n 8 m 8 q m b c m 8 q h b M c 8 b b m b j j q u q q m 9 9 h r v 6 o X + .   j 0 i l O c.).^.`.9.E Y Y ",
"=X&X&XOXp.+ . 8 7 7   O .....   8 7 b w w 0 j l l l 8 h 0 V.m c q j q w b h q j b j 8 b m 8 b w j m 8 b * l 8 c h j 0 0 9 q   + M.b.+ . N 6 y . > w.y.].7.6.t.Y ",
"$X_.&X].M.O . 7 8   O ..] { O o 8 v b b j o .   . . l w m M v j j j j h A m q A q q j h j q m q h 8 j @   .   o o q 0 d m 0 . ; @X+XT.+ . y 8 . + o.E t.6.2.E T ",
"[.[.!.OXe.+ $ 1   O g.l.t.R +   i j B $ . . 3 ' } ;   = 0 V.c c h h h b q h m b b q c q h j c j j b o . + _ x ; .   = c 0 * . G 1X%X@X8X+ . v o O e.1.E E 2.t.6.",
"{.{.&Xz.d.O 1   O k.u.W t.p.2 . l y $ . ; M.v.x.b.U.O   V.e m c M c V.m C j j V.c j j j m b b j b o   m. ...<.o.;..   & q y . M.<X*X|.'.8X+ O @ O g.w.2.E p.i.i.",
":X*X$X9.v.+ 1 . f.#XXX`.`.i.v.+ * * O [ g.g.g.M.T.U.. l h b q c m V.C C c b m C f v c i q j m i C i   . ;.-.} d.e.<.@ . l $ + x.1X1X X X+XH O % + T.i.u.w.w.E W ",
"7X:X$XXXx.+ . ; @X{.$X[.`.@Xb.+ . . 3 d.r.g.: O O + X b A e m v M b C i i A d B i v v u i M d M 8 8 =   . O + _ X.e.<.+ . . : <X'.$X X/.[.4XO O + M.#XXXu.u.u.6.",
"=X&X$XXXu.; ; J.$X$X[.'.`.XXOXd.. O b.b.h.O . o 1 p 7 8 w w M b q 7 N y f A t k t t t u C B 7 0 q c d 0 6 $ . O ; e.g.k.O O x.OX&X%X}.(.'.9.h.; : 8.#X.X6.8.u.t.",
"XX!.`.`.t.E J 9X*X{.{.$X&XoXi.l.; > u.c., . * 7 8 7 7 7 w w b q C y p p F.t a O.z t p N p k i B u i d m n c % $ O e.l.x.: , XX&X:X}.^.Q.W.i.b.: l.i.i.9.9.i.6.6.",
"oX@XoXXX[.$X7X>X>X*X%X=X*X=X+Xi.l.l.8.1.O   6 b 0 7 0 v V.i j k B O.@.Z.V Z #.O.@.O.@.@.Z.N z N k k i B.5 9 C % O <.p.OX<XOX*X:X(.~.^.W.`.9..Xz.c.y.c.9.6.`.`.`.",
"oX1X&X=X X:X>X>X>X>X%X>X=X=X`.`.XXz.`.f.. - 6 e 4 7 * v m A Z.O.A.#.D.#.+.+.D.:.:.+.@.Z.A.Z.&.N N Z.f B.u u 7 * . _ z.@X].&X>X>X{.W.!.7.! 9.!.`.`.6.i.`.`.`.XX!.",
"~.2X>X*X>X;X:X>X>X:X,X>X!.u.XX`.9.i.@Xb.O * 9 e n 7 7 b C B F.*.S.:.S.D.H.>.:.S.:.:.S.D.&.O.O.&.N v i u c 7 i Z . 2 z.!.'.{.*X>X$X^.0.XX9.7.!.@Xi.i.`.'.[.[.XX`.",
"~.$X*X>X X X*X%X{. X:X%X0.u.`.W.W.'.$XXX+ X C w 7 q b b A O.*.*.S.H.H.>.G.H.H.D.>.%.S.,.+.A.*.@.O.Z.F.f Z 7 t < O 2 i.XX{.(.:X:X}.^.!.!.!.9.XX9.`.`.oX_.`.+XXX`.",
").'.%X%X X%X*X|.'.|._._.y.)._._.).{.*X$XM.O B A b C C B A.+.S.H.k.k.J.H.Y.H.Y.Y.h.>.>.%.:.G.*.$.D.O.V p p N f @ ; l.XX%X%X%X(.;X%X~.W.!.9.6.6.8.`.].[.'.[.`.].`.",
"9._.'.{.{.$X*X{.'._.).).).[.2X X X%X>X2X9X+ z l A A A Z :.G.I.k.J.v.v.J.J.J.H.H.j.G.G.G.H.-.#.D.+.Z.*.V p B.v a + x.XX|.%X}.:X%X|.~.7.7.0.6.6.t.OX+XoX_.).).].).",
"!.~.~.~.W.).'._._._._. X_.1X2X X X}.,X2X8X; z b B A F.x A.>.H.v.J.j.n.T.k.J.Y.H.k.} %.%.S.#.+.+.+.@.*.@.A N B O.+ l.`.{.;X}.;X^.^.7.6.t.2.2.6.i.OXOXoX`.].].OX`.",
"'.!.W.W.W 7.'.&X_._./. X XE.;X;X;X,X2X>X8X+ x b A =.N :.) %.a./ / ] / 5./ 5./ G ~ G ^ ^ ^ s ^ ` ^ ^ ) Z.A.C Z.x + f.9.~.(.}.:XQ.W.6.6.2.2.2.2.8.i.XX+XXXi.6.u.u.",
"9.0.0.y.7.W 7.)./.(.(. X X/.;X;X;X,X;X>Xd.+ &.A L.=.$.^ / n.K..Xn.4X9X#Xi.4Xv.Y.J.K.a./ G.H.D.G.:.$.s #.A.O.Z.V O M.+X}.-X}.%X(.`.6.W r.p.w.R 1.t.t.OXOXi.6.2.p.",
"2.K T 7.Q ! ! E. X*X:X:X/./.;X,X,X;X;X1X{ O V V =.A.+.>.4Xs.6XtX-X-X0.'.-X0.n.4X4Xs.( a./ G./ ^ %.+.^ +.F.F.A.x + j.y.E.E.E.Q.~.i.t.6.t.2.E E t.6.6.7.i.u.2.R 1.",
"E Y Y R W 7.{.$X{.}.:X;X/.;X2X2X,X;X}.+X, . V A.*.S.%.J.s.5XwXiXeX-X-XjXuXwX.X.X3X5X3XwXs.( J.a.%.$.s ` :.S.$.*.O { ).Q.^.E.~.!.y.w.2.1.R 6.OX+X+X`.oX6.5.R R ] ",
"w.R R T 6.[.}. XQ./.(.}.;X;X;X;X;X;X/.i.+ . *.:.>.G.~ / 4XjXeXVXCXZXZXsXgXfXvXgXwXeXtXiXtXtX6X4X/ ^ +.+.:.#.@.$.O G <X|.Q.~.W.7.t.c.c.6.2.`.@X&X$X&X@X7.2.E { U ",
"y.6.i.].).[. X X/.E._.E. X2X/. X}./.E.t.. . =.,.U.G.^ / 5XuXeXcXSXDXNXSXZXZXmXSXCXcXyXiXuXcXiX4Xa.%.^ ` :.%.O.` O > +XW._.[.[.`.XX+X+X`.W.&X&X=X$X&X+X6.2.1.U [ ",
"W i.).Q Q ). X}.}.1XE._./.E./.|. XE.Q p.O o =.L.h.U.~ a.0.0XjXvXCXMXDXNXSXmXnXbXhXcXcXyXfXCXkX5XK./ s D.S.S.#.O.. ; `.'.[.'.`.`.`.=X$X!.'.&X$X$X[.!.`.7.2.R { { ",
"R W ).W.! E. X|.|.1XE.[.E.E. X X_.Q ).w.. @ *.L.R.h.G a.s..XuXVXCXvXvXvXlXgXhXlXjXkXiXkXgXCXMXsX3XK.^ | S.:.*.@.  + i.E.W.`.`.oX[.$X'.oX@X+X[.&X'.'.'.+X9.7.8.c.",
"R ! )._.Q ).|._.Q )._._.E./.|.1X[.`.Q M.O N ,.U.R.J./ J.0Xs.uXlXVXcXkXcXjXxXhXhXjXjXyXkXxXsXMXBX6X4XF >.G.S.S.&.X + <X%X[.+X&X&X$X~.^._.`.`.W.oX{.[.W.`.@X@X@X@X",
"Y E W W E.|.[.E.W W ).).W.|.{.[.[.].1Xx.O O.m.U.Y.a.^ H.4X0.6XlXCXCXjXgXSXSXZXMXnXlXlXdXzXdXBXbXrXtX~ >.>.>.:.*.$ O 1X:X|.[.{.oX[.~.W.`.7.9.7.7.'.+X7.^.W.oXXXXX",
"Y E T ! ).[._.[.).t.E.W.7.'.y.Q i.Q y.c.O A.N.N.T.J.' Y.qXH rXhXvXvXjXgXNXmXmXhXbXmXnXeXzXyXBXMXxXuX/ k.G.P.:.,.z O 1X2X{.'.'.'.$X_.&X[.7.!.7.7.!.`.7.7.!.@X@XXX",
"2.2.6.y.y.)._.<X+X].'.$X[.+Xt.t.7.y.].p.O ,.U.T.T.} F a.( s.gXVXcXVXlXZXmXMXsXdXdXAXZXsXzXfXNXNXxXuX( G h.h.>.:.&.+ 9X2X*X).~.{.'.'.$XoX9.i.i.7.7.7.7.i.9.@XOXi.",
"2.5.E t.W Q ).).7.`.'.'._.`.t.1.2.c.W p.O L.P.T.T.H.~ a.K wXvXZXkXjXlXnXmXbXiXyXdXZXAXdXkXdXNXmXxXtX/ / h.h.G.:.&.+ 1X2X|._.'.|.[.$X[.!.7.7.7.7.i.i.7.9.7.OX9.7.",
"Y Y 1.R T T 6.0.W `.~.XX'.XX2.1.] 4.r.U + P.M.R.R.' G P K eXSXZXzXzXzXzXVXzXyXeXbXmXZXsXgXnXBXBXrXwXD %.H.G.H.S.A.+ 9X1X{.[._.&X[.'.'.'.i.`.y.7.y.7.).`.`.`.`.i.",
"I Y 1.2.1.2.2.T 7.!.'.'.!.`.z.i.8.l.w.G O L.U.R.R.<.F I oXxXmXZXjXzXzXtXzXyXtXsXnXmXnXgXxXmXNXxX.Xa.~ F k.G.D.*.A.O 9X[.)._.`.).!.).`.'.`.).7.].y.`.W.`.'.!.i.i.",
"I I 5.T T T T T E 7.7.).~.~.~.~.`.i.c., O L.R.R.R.| F u.'.nXBXhXzXiXyXiXtXyXzXAXZXmXdXeXxXZXSX$Xs.J.G F G.H.P.S.,.O c.'.Q ).).i.W.!.$X&X`.!.9.OX`.i.7.`.`.`.XX~.",
"I 1.5.2.5.T 5.T E 7.! ).%XQ.Q.(.|.`.z.: O U.P.R.I.F G n.! xXBXnXkXzXVXzXtXtXdXlXnXbXfXyXMXZXvX^.4Xj.| F +.S.P.:.A.O I i.y.y.].7.7.!.oX@X7.7.`.`.`.'._.`.'.~.oX$X",
"I ] 1.3.5.2.2.2.6.`.W.~.%X X(.}. X&Xc.: + L.U.Y.R.` F qX( rXBXBXjXzXzXkXtXyXzXVXmXbXdXzXlXnXvX.X5.J.k.2 %.G.S.-.,.O , c.W W E W W `.XX`.9.`.XXXXW.+X&X[.'.oX'.$X",
"I ] 1.1.3.1.1.2.6.7.~./.%X%X:X X X1X8X: + P.Y.Y.Y.G G J.Y 9XBXBXlXhXVXkXiXtXzXzXAXnXgXlXgXVXcX3X( T.T.G ` I.>.S.*.+ : p.t.W 6.E i.7.i.6.2.i.`.XX!._.oX[.$X&X&XoX",
"1.q.{ U ' ' { 1.2.6.`.+X$X_._.[.&X+X<X; > N.U.R.Y.F } qX/ 5XBXNXZXlXjXyXyXyXyXyXjXjXjXlXhXAXVXtX( J.a.G %.G.D.:.*.O + M.6.6.6.i.OXE 1.w.Y t.i.`.`.oX_.~.&X=X{.&X",
"r.r.q.{ U [ U e.r.2.9.y.+X`.`.`.&X<X<X: L P.U.I.Y./ D / 4XwXNXNXhXbXlXgXyXtXeXyXyXjXjXzXlXVXkXiXa.J.T.G ~ I.D.:.A.O + v.6.9.9.@XOXu.Y U ] 4.i.i.i.@X1X=X*X&XW.!.",
"u.p.1.1.{ I 3.} 4.f.p.2.u.u.c.).[.1X9X; N.U.M.I.J.^ D a.0XcXmXMXsXAXnXbXbXsXgXjXiXjXcXcXvXlXVXiX( b.b.F ^ I.>.:.L.* + d.c.OXXXoXXXz.r.1.q.r.u.8.c.].`.oX$XoX'.!.",
"i.z.p.p.r.r.d.3.1.3.e.1.1.w.u.u.)._.<X; N.N.U.U.H.2 %.a.wXjXZXnXgXhXbXmXmXmXZXgXfXfXfXjXvXvXlXiX( J.qX%.s I.S.-.=.1 O X.u.u.XXXX`.i.l.2.1.r.l.u.c.c.XX`.!.'.@XoX",
"`.9.XXc.l.u.l.3.3.} { q.1.q.r.u.).1XqX; T.h.h.U.+.^ ^ ~ 3XjXjXfXdXdXgXhXNXBXNXmXZXvXcXcXVXcXlXwX( a.qX/ F H.S.*.*.V O <.e.1.x.OXXXXXXX8.6.z.b.#XOXi.i.i.XXXX@X+X",
"!.!.XXn.u.u.f.r.x.r.r.q.1.w.w.t.<X1X<X; N.L.P.h.+.s ) F 5XyXvXfXzXVXVXsX,XMXmXmXmXnXcXcXjXcXVXyX.Xa.J.%.^ S.:.+.O.x O ..' I I 2.i.XXXX9.z.XX9.c.c.OXc.z.OXi.`.OX",
"`.XXXXz.u.r.r.f.r.r.u.w.w.u.i.]._.].<X; D.S.H.h.| s F n.tXeXjXfXgXnXZXMXbXsXbXMXnXvXVXkXVXVXVXiX0X5.J.| ^ %.#.#.#.&.. ..o.{ R R 2.i.XXXX.Xi.i.8.z.#Xc.p.p.p.c.i.",
"XX9.z.p.l.l.r.c.p.c.OXy.`.`.[.|. X1Xq.+ S.A.>.P.%.2 ~ a.cXyXuXeXjXsXhXZXMXbXbXsXeXkXkXeXzXkXtXtX4Xs.K.| 2 +.:.#.Z.z O  .[ X.2.t.t.y.`.oXXXXXb.r.4.u.r.u.u.c.OXc.",
"0.8.4.2.4.p.z.oX&X&X|.~. X:X*X2X2X1XJ O ,.A.>.>.:.s S.G 4XkXjXkXuX.X0.-XvXaXhXsXiXcXeXjXdXzXiXtX4XJ.J.%.) *.A.*.V &.O -.k.4.i.OXi.7.z.@XXXb.z.5.1.1.5.u.c.c.OXc.",
"i.u.i.i.i.XX=X1X%X*X}.%X>X2X%X;X2X1X> O A.A.:.:.D.a P.%.3.0XuXtXs.H 5.5.!.5X-X.X3X3X.X.X5XiXiXtXs.K.H.H.2 O.O.V &.z O <.f.l.+X'.].i.`.XXz.c.4.e.3.1.{ r.l.c.u.c.",
"XX`.).oX&X=X&X=X>X=X X}.:X:X%X'.|.<X+ . &.@.Z.&.V 1 &.+.F ~ / F ~ %.| ../ / 5./ a.K.J.n.K.4XJ./ G.%.R.+.s D.Z Z.N l . 3 M.)._.&X+Xi.XXOX9.z.z.f.3.{ { { e.r.c.i.",
"`.).|.|.$X:X%X%X{.:X=X}.*X*X&X~.&X<X+ X O.Z.@.A.z 1 z s s < s ^ x ) s $.` +.:.| ~ k.H./ K./ D K./ ^ #.D.3 p Z B B A   + z.`.&X$X&X].@Xi.z.z.n.l.} { } { ] 1.p.z.",
"E.|.|.2X*X$X|.[.|.|. X1X1X[.$X$X@Xc.+ $ V &.A =.&.1 g 1 1 1 z 2 s s 1 s s 2 ` ^ ^ | ~ ~ %.D a.D / G.^ $.V &.A b l k   O J.oXoX'.=X@X@XXXi.u.4.e.{ ..} ] 5.8.XXXX",
").|.[.|.*X|.W.`.&X$X].c.2.c.OX8X8XT.O * Z.V A z A z V L.V V L.@.*.F.D.D.:.G.:.h.H.k.G.%.J.H.D.G.F.F.D.Z &.B v j c l   . v.n.z.b.b.#X@XOXOXu.1.1.{ { ] 1.2.i.c.i.",
"[.'._.&X%X|.!.7.).i.g.; . . O . O . o & i p A v f N f f A B ,.V @.F.F.D.#.$.S.F.S.D.%.D.H.H.D.D.#.V Z.V B A j v B c o   O O . O O ; , b.z.OXw.r.1.1.] R E t.].u.",
"~.!.`.[.&X$XW.`.y.p.e.O @ b j w = l q i C q v j f f C.f k N N z N F.Z x s F.$.F.F.D.+.$.$.Z g D.s Z B t u B c q 0 q e w * 8 - - 8 * + v.l.i.p.1.1.1.R 1.R t.t.t.",
"!.XX6.`.<XQ Q ).].r.N.O   8 w c & c c 6 c C.b 8 0 0 C.g u u k k 5 g f g a t a g F.g g a g N $.g f N N B 7 & 7 6 e d e 0 u 0 c m 6 N + j.c.i.8.u.2.1.R t.t.t.t.w.",
"i.2.R t.W y.Q ].<Xt.m..   w 9 9 w w M n 6 c M 0 f 0 5 5 C 8 v i B.f u f B.g a Z u a f u Z C.u t 7 p & 6 j 6 r b n 0 9 m c C.M m c * O h.l.z.2.u.p.2.R p.t.t.2.w.",
"5.5.1.1.E t.t.OXu.f.<..   8 6 7 4 4 n 7 c 9 v & 9 e 9 9 9 d q u p i v 7 p p F.u t g t v f Z C u u 0 0 d 0 0 q 6 7 q e 0 4 0 6 m m f O h.g.w.E u.8.8.8.z.p.R ] { ",
"3.{ { 1.w.w.t.u.OXf.;..   i 7 9 C.d d u n u v u r 9 w 7 9 q C 7 q 7 7 t u n 5 i C A u f v 7 u u 0 d f n 0 d 4 6 0 & 4 c 6 q 8 c n % . ;.o.q.2.t.4.4.a.4.f.e.} X.",
"r.R R q.R R R q.2.l.... . = 6 7 0 f c c 7 q i v j r 6 0 B N v % C 4 0 v f u B.Z Z n Z 5 i B.8 4 n e C.e 4 e 0 9 6 q M q 6 4 d d 7 * . ..o.o.q.e.3.{ 3.[ o.......",
"o.U R E R R R w.1.e. .O   u c 0 C.9 6 & 6 c d M 6 b 6 6 u 7 v i i 7 6 d d 0 v u C 7 i v t 7 N i C.9 0 n q v 7 q 6 h q h 7 9 9 q & $ . -.X.o.e.{ { [ [ [ _ _ L  .",
"U U Y 1.2.2.w.r.1.3...O   c 7 9 C.e w h M q e r w h M 8 5 4 7 b u & = q j 8 y w f & 0 6 7 7 7 j w 6 q & & * * & 8 & w & w 6 h b 8 $ .  ...e.g.d.X.[ _ L _ .._ L ",
"o.U 1.1.2.w.R Y I } ... . 1 u = d f % 8 5 & 6 & % % y * 0 4 # $ X % X @ @ @ # o X X o X X   X o       . X   o       o             . . _ ..e.d.d.X._ L S L _ _ _ ",
"o.} 1.1.4.1.U L P P U _ + O . O O . . . . O O O . O . . O . O X . . O O . .   . . . . . . . . O . . O O . O + O . O . O O O O O . . 2 -.} g.f.e.} _ _ L ) _ _ _ ",
"U ' { 1.4.1.U P P L P P o...;.;.,...;. .-.-.:.-.<.[ _ ) ) ,.<.<.,.,.,.=.=. .=. .x  .;.,.;.,.;.;. .-.-. .-.,...-.;.;. .;.;.<.m.;.;. .;.X.f.3.3.e.o.L ) ) ) ) )  ."
};
