/* XPM */
static char *_0e394723cc4407db51e443e401ef1d41UuuUfqZkWcFwpjJ[] = {
/* columns rows colors chars-per-pixel */
"80 80 256 2 ",
"   c #040103",
".  c #0B0002",
"X  c #080A04",
"o  c #04010A",
"O  c #0B020A",
"+  c #140001",
"@  c #1B0102",
"#  c #15050B",
"$  c #0A0815",
"%  c #180C16",
"&  c #140D1C",
"*  c #0C141C",
"=  c #15171A",
"-  c #14121D",
";  c #1A131C",
":  c #230101",
">  c #2B0102",
",  c #27070A",
"<  c #360303",
"1  c #2D0D11",
"2  c #271418",
"3  c #371419",
"4  c #130D23",
"5  c #1A0E27",
"6  c #100F2B",
"7  c #0C1425",
"8  c #151324",
"9  c #1B1425",
"0  c #141A25",
"q  c #1B1A25",
"w  c #15142A",
"e  c #1B152B",
"r  c #161A2A",
"t  c #1C1A2C",
"y  c #191632",
"u  c #1D1B32",
"i  c #230F27",
"p  c #231425",
"a  c #261827",
"s  c #22152B",
"d  c #221C2C",
"f  c #2B1B2D",
"g  c #371A27",
"h  c #221D33",
"j  c #271B37",
"k  c #2A1D32",
"l  c #341D33",
"z  c #1C222B",
"x  c #1B2334",
"c  c #23212E",
"v  c #2B252C",
"b  c #37252C",
"n  c #242333",
"m  c #2A2435",
"M  c #2B2A35",
"N  c #252339",
"B  c #2B253B",
"V  c #252A3A",
"C  c #2C2B3B",
"Z  c #342637",
"A  c #3A2533",
"S  c #332B3D",
"D  c #3B2B3C",
"F  c #26303F",
"G  c #36313D",
"H  c #4F0C0E",
"J  c #470D1A",
"K  c #46141A",
"L  c #571A18",
"P  c #6C1010",
"I  c #681B18",
"U  c #771D18",
"Y  c #4A251B",
"T  c #59251A",
"R  c #64241C",
"E  c #692719",
"W  c #6B241C",
"Q  c #752315",
"!  c #752814",
"~  c #73241B",
"^  c #7B241C",
"/  c #75291D",
"(  c #7B2B1D",
")  c #471926",
"_  c #551A27",
"`  c #581F31",
"'  c #661A25",
"]  c #751C26",
"[  c #4A2628",
"{  c #5B2A24",
"}  c #562728",
"|  c #4A332C",
" . c #57332B",
".. c #4B2534",
"X. c #442934",
"o. c #4B2B34",
"O. c #432C3B",
"+. c #4B2C3B",
"@. c #552B35",
"#. c #582937",
"$. c #48343B",
"%. c #583736",
"&. c #53333D",
"*. c #5C333B",
"=. c #6B2522",
"-. c #642B23",
";. c #6C2B24",
":. c #652728",
">. c #6C2C2B",
",. c #732421",
"<. c #7B2422",
"1. c #732B23",
"2. c #7B2B24",
"3. c #79252A",
"4. c #742C2A",
"5. c #7C2C2A",
"6. c #663229",
"7. c #7A3225",
"8. c #73322C",
"9. c #7C322C",
"0. c #672B37",
"q. c #752C37",
"w. c #693737",
"e. c #64333C",
"r. c #783538",
"t. c #72423C",
"y. c #2C1A42",
"u. c #2B2843",
"i. c #352A43",
"p. c #373243",
"a. c #363550",
"s. c #4B3543",
"d. c #4F3045",
"f. c #573744",
"g. c #673745",
"h. c #643A44",
"j. c #6B3B44",
"k. c #6A3748",
"l. c #763A46",
"z. c #7C3C44",
"x. c #584249",
"c. c #694247",
"v. c #794249",
"b. c #744854",
"n. c #524A67",
"m. c #6A5B67",
"M. c #795366",
"N. c #775B69",
"B. c #6A656B",
"V. c #76646C",
"C. c #796A73",
"Z. c #777177",
"A. c #90170C",
"S. c #881C18",
"D. c #971D19",
"F. c #A71B1A",
"G. c #862416",
"H. c #83241D",
"J. c #8B231C",
"K. c #842A1D",
"L. c #8C2A1D",
"P. c #92241C",
"I. c #98271C",
"U. c #8F311D",
"Y. c #A5241D",
"T. c #B8201F",
"R. c #8C1E25",
"E. c #842523",
"W. c #8C2523",
"Q. c #842B23",
"!. c #8C2B24",
"~. c #89262B",
"^. c #842C2B",
"/. c #8C2C2B",
"(. c #942523",
"). c #9B2424",
"_. c #932B24",
"`. c #9B2B24",
"'. c #98252B",
"]. c #932C2B",
"[. c #9B2D2B",
"{. c #873326",
"}. c #83322D",
"|. c #8C322B",
" X c #943126",
".X c #9A3426",
"XX c #94322B",
"oX c #9B312C",
"OX c #882C32",
"+X c #972C33",
"@X c #843331",
"#X c #8B3233",
"$X c #85373A",
"%X c #943232",
"&X c #9B3332",
"*X c #9A3738",
"=X c #A42523",
"-X c #AB2423",
";X c #A32C25",
":X c #AA2C24",
">X c #A8262B",
",X c #A32D2B",
"<X c #AB2C2B",
"1X c #B62829",
"2X c #A43329",
"3X c #AB322C",
"4X c #B7332D",
"5X c #A32D32",
"6X c #AB2B33",
"7X c #B62C34",
"8X c #A33332",
"9X c #A93636",
"0X c #B63433",
"qX c #C32A29",
"wX c #8C453D",
"eX c #873B45",
"rX c #9A3C42",
"tX c #854449",
"yX c #94474A",
"uX c #874955",
"iX c #944E58",
"pX c #87535A",
"aX c #A04B5C",
"sX c #875C68",
"dX c #995966",
"fX c #895C70",
"gX c #A35E6C",
"hX c #84646C",
"jX c #98666E",
"kX c #886C76",
"lX c #996B76",
"zX c #86737B",
"xX c #96737A",
"cX c #A7646E",
"vX c #A76874",
"bX c #A5747C",
"nX c #717281",
"mX c #936F80",
"MX c #8A7984",
"NX c #967B83",
"BX c #A97983",
"VX c #B57787",
"CX c #898287",
"ZX c #96838B",
"AX c #998A93",
"SX c #9A9499",
"DX c #A58288",
"FX c #A68D96",
"GX c #B68C92",
"HX c #AA9398",
"JX c #9D9AA1",
"KX c #A89AA5",
"LX c #B296A3",
"PX c #B1A3AA",
"IX c #B8ABB8",
"UX c #C79DA4",
/* pixels */
"Y Y T E K.L. X X!.Q.^ U !.!.^ Q _..XI.:X=X(.;.8.w. .+ | #. .:.:.;.8.4.3. X/.H.H.;.4.9.9./.}.].E.(.[.&.+ _ l.q.9.G.U.U.Q Q E W I Q W { } } [  .Y T 6.-.=.Y Y L W ",
"[ T T T ^ G.L.L._.!.].!.!.!.K.( P.J.`..X&XOXL > @ @ + . } { >.=.,.;.r.>.Q.2.5.<.=.L ;.8.4.4.E.E.).[.+ + , : > { |.oX_.S.Q Q W <.^ {.W I _ L Y Y T T ;.<.T T E E ",
"T T E E J. XL.{.].(.&XE.Q {.Q.K.J./.@Xr.3 @   X 2 % + # -.-.;.1. .Y 1 2 8.4.8.-.} { T -.K w.^.H.I.2X+ + 7 8 $ o :  .w.8.1./ 2.^ G.U.E.2.5.:.T Y T R W <.R E E W ",
"R E E E S..X X|.[.[.8XJ.G.L.J.L.!.$X< : . # 7 7 N ; + b 8.;.E ;.8.Y +   w.6.{ { } e.6.Y X @ ^.E.I..X% . 7 r & j # + > T 7.7.K.G.`. X_.].OX3.L Y E W ~ ~ W =.=.R ",
"L T E 2.H. X`.`.;X.X;X.X=X>X/./ 6.@ . $ u 6 w j n & # w.1.( <.1. .. o o w.%.1 @ @ c.c.@ X + w.#X3X6X>.@ t r y y.r V O   + w.].6X:X;X.XP.'.~.I T ~ ( ^ U U U =.3.",
"T E ~ }. X.X`.,X;X;X;X2X1X>XOXL @ . q x N B e h 8 n @ 6.( ^ ,.8.@ X 0 o # @ + # + + % + & + > $X5X0Xz.: 0 n j h r r & & + : ] &X6X=X;XP.R.E.Q.Q Q K. XU.S.A.I ,.",
"W ~ 1.{.XXoX[.[.;X;X:X;X*X$X+ . O c u 7 4 4 u.d x = : r._.!.9.J   M - & O % v c 2 = o # t 9 + w.(.9XtX> = & 8 8 8 N r 5 0   @ 1 %X5X<X;XJ.J.2XL.J.`.I.Y.I.D.U U ",
"2.{.7.( !.!.[.[.I.;X3XY.$X<   $ 4 u w u.B 5 u.B w d : 9.;X!.$X< o - - 9 - M 0 7 q c = q 8 n + 1 P.5XyX, v = n q x w y u x * # . < rX7X:XL.S.P.Y.3X3X-X1X1XY.H.^ ",
"{.^ E.E.E.(.=XY.U.`.wX8XX   c t z V s s i.C 8 r V M : w.`.].t.+ d m 8 * 5 y e u x r w y t ; O . 2X9Xv.. l s j j n n 8 e ; 9 j 4   , wX6XY.I.A.Y.1XY.Y.:X>X=X=X(.",
"!.^ !.E.W.!.I.;XI.U.r.< . p s w 0 r e e 8 t n r w q + 3 /.@X@ . u.9 V 0 j y e e x u w w n ; f . *X&X> . s i j j C 8 d n 8 s w 4 ; @ H +XI.I.:XY.F.Y.-X:X:X=X).P.",
"]._.W.H.H.Q.U.U.oX&X> . 5 C t u * 7 u y S n C h s 5 O . r.z.. O j w 8 F l 5 h e h t e e k 5 ; o t.w.  z s u.5 j q - 9 q x y.w y 8 $ @ 3 '.S.2X:XD.Y.-XT.-X=X`.J.",
",X.XW.!.Q.K.U.U.|.H @ m u.6 j r x 8 w N a q C 8 j h n O > 1   z s s e F i.j 5 C u y y N j 9 9   > :   - i j y 6 C N t N u.u.j y e c X   ^.~.D.Y.Y.Y.F.F.F.=X_.K.",
"(.[.+X+X X].S.Q.%.+ o 6 6 y s 9 i.j w r t e e 8 h e i.r # O o M 8 u y y u S C x y e y.u.u.6 - $ o 4 p k 5 e V x w N V w 6 e u h u.w n   + 0.R.(.Y.>X=X).`.`.Q.! ",
"_.E.(.'.!.].~.9.+ . 8 r y u.t t l j u w h n w h w j y e p c 9 8 8 t n.a.t p.x u.C a.d.nXw u 8 0 M h 9 9 e h r u r r u e e 5 w 6 B 8 M z + : 3.E.F.I.P.D.S.U U I ",
"/.^ !.E.H.U 8.}   = m C 8 e e 4 9 9 h n w h e w u B n u 7 V N n d x a.a.w t 8 q e e a.n.r r N 9 n N t m e r h h h j 5 B 5 9 8 F C t 8 4 $ + :.] A.).P.S.P Q P T ",
"3.^.{.( ^ <.:.: o M M m n 9 u.4 h C N h B w w r j d e j x V t h n B h u.u.r q = j e i.y F r 9 Z 0 C 8 C V N N N e e e C i t 7 7 9 m n C q   > ,.S.`.`.S.! ! E T ",
"/ 7.2.~.~.3.o.. 6 n 4 9 n 8 C u M n t t h n u r s s j x y V e C h t m t t 9 8 t 8 n N 8 C d M m S s y r 4 q B B n n d f t V 7 6 8 d y u.e k +  .S.I.J.Q Q I T H ",
"{.7.^.^.~.^.+ . t t e M 9 M 4 e 8 8 8 u j h e t B e N N t N t 8 t t d 8 t t c n t d q 9 n n t d s S u 7 s 9 8 4 8 8 n p e n x $ v - w 6 9 8 X : P.).D.G.^ ~ E L ",
"].].].^.|.}.. a h t d ; O   o O M q B t u e s h u u n n Z t q n n t C d C t n h S C t d S h C B M e r u a i t 9 C n t t 9 m o o . ; - h e 9 $ + [.).(.S.^ / Q I ",
">X+X]./.{.;.. 0 S m 9 o   % . . t 8 M e r j j f u r r t Z m q F t t C C h C c t n C N m 9 C m C C t n u a s s S 8 w z * l ; o X +   O c s h v . ].'.R.(.2./ U Q ",
"9X[.[.+Xr.@ . h y e .   >.-.    p s B u y r z c v v q z h C C n q d t 0 N t c c n c q M M q C 9 z M q Z 2 c q c h h h e y x o @ *X+X@ . M 0 t o < ;.(.].E.^ ( I ",
"+X[.%X].t.: . 9 s . @  .] E . X 9 m m M z o . . . + z 0 B B B n d n c c G G q G t c c n n q C q c q c #   . o   o s t h N r o @ *X*Xv.@ . q q o : -.U Q.^ ~ ( I ",
"`.`.W.+X0.: # 9 O + r.9.^ Q +   d v G X @ > H _ :.<   % t p.n c c n t M q x G M n t n t c n n c x B O . > } K > . . ; n t 9 + K 8X9X&X*X: + v o @ 6./ / ~ / E.H.",
".X X&X].w.@ 2 o + %.5.J.G.K.3 + z d %   : v.r.^.$Xr.X   G t C c n n p.C p.c c G n c c c C M M c S O + %. . .t.{ %.. o * t d # w.oX0X,X`.tX: o $ + w./ ! / 9.~.!.",
"1X6X,XP.r., ;   ~.6X'._.U.].r., = = : } 8.8.r.t.tXc.. z d B t n M p.S S N n u.p.c N c c d d C d S c     *. .6.8.8.6., o z = : r..X9X;XY.2XP + = : v.^.W.1.1.^ ^ ",
"7X9X[._.r.@   + +X6XXX`._.&X$X>     < 8.5.r.< @ > , # F p.d C C M M S n d p.k S a B c d c n d m p s -   @ @ > L 6.w.@.@ o   < wX`.;XY.I.5X*X+   > eX#X].7.Q.2.( ",
"8X[.[.].8.> : uX8X>XoX_.]./.$Xq.. + eXOX6.@     2 f ; q 8 0 n C a 4 Z a f O.p k s p p p S S ; t t m h y 7 *   . : :.r.8.. + @X+X>X2X=XI.'.'.w.@ < 3.#XOXQ.<.2.( ",
"%X_./.].5.:.H rX3X-XoXXXXXXX^.5.+ > ~.+X1 . = 9 e s t p r 0 V 0 D f f f s.a p O.l s a Z f m f Z s d N u.N v % % @ 6.^.~., , #X5X7X=XF.F.W.~.t.> 9.^.~.~.~.Q.( 2.",
"+X&X[.+X`.<X7X7X7X1X6X6X6X5X&X/.@X^.Q.^ .   7 u.e 9 8 m p.d v b ..+.+.d.X...+...o.+.O.O.s.A b b v f a i.i 5 i.- +  .}.|. XXX4X<X>XR.R.R.W.E.~.'.{.K.|.~.R./._._.",
"&X9X5X8X;X<X7X7X4X7X<X7X8X,X(.(.OX~.^./.. % 7 u 4 9 8 m S D $.O.f.+.f.d.....f.f.&.o.o.d.f.s.O.b A s.j d.s s 8 ; + [ @XXX XXX7X7X).(.(.R.S.E.~.+X{.H.Q./.]././.W.",
"(.9X9X6X3X<X7X6X<X4X7XqX9.}.|.|.E./.&XOX. = r u m 9 9 C p.Z +.$.h.*.j.*.j.*.*.g.*.@.f.f.O.X.$.o.A Z s e B 9 f X.X 3 +X'.[.oX1X7X5XR.J.].Q.H.].+XE.W.!.XX X].+X~.",
").<X7X0XY.-X6X5XY.:X1X1X/ Q.!.W.!.].+X+X.   u.w 8 t C N s.Z d.&.e.j.c.e.h.j.j.e.*.*.h.%.o.f.$.X.o.s.s.j S p ; % X 3 OX'.`.).1X1X&XS.W.E.!.H.OX]./.]..XU._.XX].+X",
"L.U.;X<X:X>X3X;X).`.`.L.L.`.I.I./..X2X;X@X, D S C u.i.S f.d.k.k.l.l.l.l.l.w.z.l.e.w.g.0.#.k.#...g...X.a p M v $ > r.`.,X1X1X-X-X>X).(.W.~.U ^ 3.!. X].[.|._. X_.",
"L._.`.=X;X2X8X`.`.).(.(.U..X2X.X`.8X3X0XyX> b c p.p.D O.o.k.l.l.l.q.l.l.eXl.v.l.q.g.k.g.k.f.#.d...g.+.X.a D v p , 8.`.,X>X-X<X1X,X(.E.E.<.^ / 3.|.XX].(.!.!.|.!.",
"!.(.(.).H.(.`._.).(.).[.I.;X4X:X-X-X4XqXyX> M M Z $.s.A e.e.l.l.q.$Xl.eXl.eXtXq.q.0.` 0.f.d.........f...s.Z Z O.@ 6.I.;X-X1X6XD.S.R.K.( <.<.2.^.|.XX].[.|.|.{.|.",
"(.(.P.W.( G.(.[._.(.;X=XI.I.:X4X1XqXqX1XwX> b v G $.A d.L _ ' ' ' ' P ' ' ' _ L _ _ J ) ) ) ) ..) ..g f.f.O.d.A @ 8._.P.>X<X<XD.E.H.( / 1.,.<.^.|.|.oX].Q.Q.^.^.",
"~.H.R.E.K.G.G.L.Y.Y.=X=X.XI.T.qXqXqXqXqX;.: $.p.%.%.b [ ' q.OXOX~.rXrX*X~.eXq.eXuXq.0.` e.k.e.g.@...) o.f.O.d.+., r.&XoX<X>X[.).{.( ~ ( 2./ / E 1.2.XX%XQ.^ 2.5.",
"^ U U 3.G.U S.G.=X:X4X4X.XY.T.qX1XT.T.:X{ @ G $.f.%.[ *.eXq.eXaX$X$X] ^.eX' $XeXv.:._ } ) 0._ _ #.@.) +.+.+.f.X.@ w.(.D.D.S.)._.Q.2.1.1.( / W <.H.^ Q.E.Q.( ,.R ",
"1.I I ] Q G.`.>X[.,X<X1XY.Y.qXqX4X1X1X;X, + D f.%.h.#.g.q.eXaXgXaXq.$XcXcXyX0.q.w.v.l.pX0.#.k...#...J ) f.f...$.@ { '.I.P.S.L.W.Q.2.7.E W ^ |.*XoX].%XE.Q E R E ",
"1.W W W (  X<X-XP.D.F.T.Y.T.qXT.1X:XY.P.+ . s.$.*.h._ _ eXvXgXVXGXGXUXcXgXgXvXcXpXpXsXjXsXpXM.k._ ) ..#.&.&...o.+ K 8X:X(.W.L.G.2.7.}.1.~ |.&X8X8X&X%XE.~ ~ W R ",
"K.H._. XU.I.;XY.Y.I.I.I.Y.:XU..X.X=XL.K..   $.*.k.l._ _ eXgXuXBXUXIXUXIXHXPXDXHXDXxXV.jXM.mXmXk.0.#.3 [ &.o.X.| + , .XI.).[..X!.|.oX+X(.D.5X,X6X&X[._.Q.1.E T T ",
"^ !.L.J.S.L.`.=X:X2XA.U.D.I.Y..X`.P.H.U..   %.x.k.l.` ` ] rXVXVXGXLXUXPXUXHXDXNXxXxXkXV.mXBXkXk.0._ ) g.h.h.o.X.. + `.`.`.`.].(.].8XoX(.(.8X8X,X[.(.!.W./ E { T ",
"Q ^ L.P.S.G.;X;X.X3XI.`.D.A.:X:XU.S.L.K.X X &.c.l.l.H 0.q.eXgXVXGXbXGXDXxXhXxXzXkXzXhXzXmXNXMXmXk.e.) [ h.f.#.o.X + L.P.P.(.).[.'.[.(.[.%XoXXX&X(.].].oXW.R.W.OX",
"E U L.I.G.L.;X).G.G.I.I.A.I.2X:X`.(.L.7.+ M &.c.eXl.' eXrX0.gXVXGXbXjXxXzXzXxXhXzXkXV.zXnXmXKXKXb.b.K 0.g.g.f.... . &X.XXX_.,X,X>X).(._.XX~.!.].[.[.W.E.*X*X*X%X",
"Q U ^ S.D.`.`.G.! G.G.I.D.oXoX.XXX X.XL.+ $.h.t.v.>.L l.yX9.tXbXGXGXzXzXJXIXJXZXzXzXMXV.kXC.IXNXM.sXK g.w.0.e.*.% X 9X3X.X`.[.`.oX(.P._.H.!.H.H.[.&XS.R.R.&X%X#X",
"I U U U P..X_..XK.K.G.I.S.[.L.H.!.K.{.K.+ $.g.c.v.l._ eXeXL pXjXDXNXzXV.PXJXJXZ.CXZXNXN.mXN.IXKXxXkXK g.g.k.*.g.v + 9X4X;X`.`.`.oX_.oX[.W.!.H.H.E._.J.J.~.*X%XOX",
"/ W ^ Q.L.L._..XXX X].[.[.XXK./ Q.H.{.{.@ x.l.v.z.0.J q.' >.lXDXxXNXzXSXJXSXB.B.B.CXZXC.V.V.PXKXlXkX) ) w.k.*.*.$.@ 9X0X2XP.(.`.[.`.[.[.E.Q.W.H.Q.E.E.!.W.+X|.^.",
"W W ^ ^ H.K.(.(.K.`.].[.`.!.( E E./.( }.@ x.c.v.z.q._ q.L pXBXGXhXzXhXZXCXZ.B.B.V.AXCXC.nXkXPXKXlXM.) @.g.j.g.@.+.: 0X0X.XI.`.,X`.oX`.P.H.Q.Q.H.Q.Q.H.Q.W.%X~.2.",
"W W W ~ W Q ^ ^ S.W.(.'.].|.<.W R ;.,.I + c.v.v.pX_ ) ) ' gXFXSXZ.V.m.V.Z.B.B.m.MXAXAXV.C.MXIXIXpXpX3 #.l.l.k.g.&.+ 9X0X.X;X`.[.%X].].].W._.L.H.!.L.(.(._.!.|.Q.",
"E R W ,.I ~ ~ U E.W.].).E./.}.}.5.9.4.L + x.b.v.eX0.J ` r.bXAXSXC.V.C.B.m.m.m.B.CXZXCXV.MXFXPXMXj.` K K k.k.e.*.$.+ 9X.XI.U.L.(.W._._.[.].].H.!.!.L.L.!.].!.!./.",
"I R ,.,.] U U ~ ^ !.L.(.'.=X).).].}.r.< + b.b.v.v._ K e.l.VXPXnXV.C.B.V.m.V.C.zXSXSXV.m.MXHXPXh.0.l._ K q.l.g.h.x.. !.XXG.L._.!.E.W.,X&XW.E.W.|.!.!.L._._.].].`.",
"R I =.,.U ] ,.' ^ ^ U W.5XR.D.).2X!.r.> @ c.v.v.v.K K r.{ xXPXCXhXV.V.B.m.m.V.Z.CXzXV.N.ZXFXbXe.z.j._ K 0.g.j.*.x.  P K.G.L. XK.S.(.[.8XJ.J.].|. X X(.(.]._.'.'.",
"T =.;.,.,.] <.<.H.!.D.).>X-X-X-X:X,X$X> + c.v.v.tXL K b.{ hXIXJXkXC.Z.C.m.m.B.Z.CXzXV.C.xXNXbXe.' eXw.K 0.g.k.0.$.+ < @X( / ~ ~ ^ /.].!.E.^.OX%XL.[.&XoXXX[.].,X",
"T =.R W =.W ,.,.<.E.'.[.>X<X>X=X>X3XwX> @ h.b.l.v.K K v.) tXIXPXzXZ.C.C.V.m.B.Z.CXCXZ.hXhXZXbXj.' uXl.L ` l.f.k.$.+ < r.( ( <.~ !.H.{.2.,./.^.].W.].&X[.oX8X,XoX",
";.;.=.R R { R W <.U !.[..XI.`.`.<X,XwX> 1 h.l.tXtXK #.c.} b.PXIXAXCXZ.B.V.m.m.V.Z.Z.zXzXxXDXBXhX_ z.0.K #.k.g.#.x.X : r./ ( ^ !.%X/ / E R 2.|./._.XX(.'.8X8XoX&X",
"4.4.-.{ T T T 6.3.<.~.(.XX_._.!.<X8XwX> X.c.v.z.v.L K } w.pXKXPXZ.Z.kXhXB.m.N.N.V.zXzXV.bXNXjXxX' z.z.K _ k.h.#.s.+ @ t.( K.~.[.|.2.E R ;.1.Q.~.E.XX9X9X6X,XE.W.",
"^.5.1.;.=.=.;.-.8.8.9.,.4.5.|.^..X*XyX> j.v.z.v.eXJ J #.M.lXHXAXC.ZXxXxXMXC.C.Z.V.kXxXzXbXxXbXdX' r.r.J ) k.e.&.x.2 : w.|.+X'.>X+X/.;.R -.7.9.^.}.|./.[.5X'.]./.",
"/.|.2.5.4.;.8.;.;.;.1.;./ 1.5.@X X XwX< e.l.v.v.k.J ` ` b.kXFXNXzXZ.zXZXHXKXFXC.kXC.kXkXDXbXbXcX' eXuX0.) b.h.#.$.2 @ e././.'.'.'.~.9.1.E 7.^.}.@X|././.(.[.oX].",
"~.~./.@X5.5.8.4.;.=.-.-.E 1.1.5.U..XyX> c.w.j.z.0.) ) ) k.mXzXC.V.V.Z.zXKXPXPXKXFXNXxXxXDXbXvXiX] q.tX_ J k.*.#.d.A + *.6.R @X#X%X%X/.~.3.@X@X@X#XOX|./././.%XoX",
"'.(.%X#X^.5.5.4.8.8.6.6.E ;.1.8.`.wXwX> c.g.w.c.#.J ..3 b.C.mXzXhXZXCXB.N.AXKXKXFXDXlXBXbXbXGXgXl.] eX` ) k.h.#.+.b + | T R I ,.^././.~.OX#X^.OX$X#X}.}.}./.|.XX",
"'.].#X@X4.8.>.8.8.8.7.1.2.Q.{.|.`.oXtX> f.*.t.e...3 ) *.fXfXkXN.kXNXFXAXMXMXMXNXNXBXBXbXBXVXVXgXrX0.eX` J d.#.o.s.$.. o. .{ { E ( E.].[.+X/.~.5.^.#X@X9.7.{.{.{.",
"/.^.|.5.9.9.9.}.9.9.}.2.{.{. XXX;X2X8.@ x.*.*.c.#.J ) [ mXN.hXN.mXN.hXFXmXkXmXkXfXmXvXdXlXvXdXdXeX:.k.` J @.&.o.d.b + %. .T 6.! ( 2./.+X~.OX@X3.3.3.9.9.7.9.|.{.",
"<.<.<.1.5.^.~.OX8X3X,X).>X<X4X7X0X9XH @ f.*.*.h.*.3 *.) x.xXlXkXfXg.#.h.xXhXlXsXdXvXiXcXgXgXcXdXeXl.eX` ) &.f.&.D s.@ #.q.3.{..X{.Q.].%X#X#X@X=.;.W ,.5.@X@X@X@X",
"9.5.5.5.^./.*X9X<X3X:X;X7X0X1X1X4X9X< + f.x.&.f.&.1 c.*.O.N.N.M.0.) #._ *.l.g.l.eXl.l.0.eXvXvXpX' g.l.k.3 | X.b p.b @ e.5.^.XX.X|.E.|.@X#X@X1.1.-.-.' 1.9.@X|.OX",
" X].L.[.,X5X3X6X:X3X:X:X3X3X>X(.2X*X@ o +.O.d.d.v 2 d.@.g g ) g ) +.@.#._ _ #.` :.eXq.q.0.eXl.' 0.0.l.d.g d.O.O.m v   2 #X].`..X|.!.+X%X^.OX^.3.:.-.{ { -.1.}./.",
"_.L.2X2X3X8X,X8X;X2X2X;X3X3X5X(.oX*X@ . d.s.o.f.v 2 ) g i 1 g g ) [ g [ [ ..0.} _ 0.w.' q._ J q._ ) ` d.3 g D A G G   + +X'.,XoX&XXX*X~.OXOXOX5.:.:.:.} =.,.@X/.",
"G..X;X3X3X,X[.`.'.>X3X9X3X>X5X5X*X$X@ # O.O.X.s.$.2 g 3 2 3 b 3 g 3 3 3 ) 3 _ ) _ _ _ ) ` _ _ _ ` k.) ..A $.p.S c b   + +X+X'.].9X+X+XOX^.5.4.>.-.{ -.{ W <.#X#X",
"I..X;X:X3X;XL._.,X[._._.L.!.%X*XrXrX@ = s.D $.A | b X.f.O.$.*.@.$.&.f.f.*.h.*.e.l.g.g.g.l.l.0.0.#.d.g...s.S m j v c   + eX+X+X/.+X+X*X%X|.^.;.-.{ -._ :.<.OX#X^.",
" X`._.,X6X`.P.!.W.OXw.: . X   O o o o & d f p.b v m k l p.Z $.o...f.d.f.....g.f.k.g.#.k.k.k.g.d.+.X.s.D S D m m S m o o . +       + < eXOX#X2.1.R =.E E ! ! {.K.",
"/.W.(.[.9XoXL._.W.^.w.: X M q 0 2 p a h D d M c d m Z j B m b b l d.A A l d...` ..f...` y.) ) f.l A D p q M n q 9 t d 8 = = $ = q ; > r.|.}.5.1.=.;./ E E ( 7.{.",
"~./.<.{. XL.G.L. X}.%.@   z q N 8 M j 5 j u.B 9 q 8 i.j 5 s b f i a l a i i i g d.l l g l ..l l l Z Z C - - 9 8 j j h r c q c M 0 v : w.}.}.2.2.1.,.E 7.( K.( / ",
"OX<.W / H.G.G..X{.}.%.+   0 w y 8 w Z i.w N C w B e 5 i i.i l f D k i l i.g i O.i i l i y.d.i i i d 9 8 n 8 8 N S y e u.j S m S N 9 : w.}.}.,.^.4.W Q {.K.( / / ",
"~ W R -.E 5./.XX^.5.%.+   q w w 5 5 i.8 x r m 4 e t 6 w i s k s f f k p f f s.d i f p k l A D a w e h s e t e 8 t t t 9 * t 4 S u.m + w.7.8.( Q.4.3.3.OX5.,.R -.",
",.=.E -./ / <.!.}.9.%.+   c 9 r B N e t C t B e 4 e y 5 e h S 8 p s i s a Z i f D i.a l k 5 s a y h N u.e N w 6 9 8 8 n 8 d 9 m Z & + %.-.-.1.<.3.<.3.^.4.>.-.:.",
"1.R / W E ~ E ~ <.9.| + O 9 9 w w N N n 8 q d M h 9 8 e S M n - S & t m l s D M D m S p n S 9 & B u u.u 4 t e e 8 c m d 8 4 h m e ; +  .-.-.;.;.:.{ { { T { }  .",
"E E W ~ ! E E / <.4.| + o s k y x 7 7 7 8 d c m 8 B 8 e x 8 V q h e 4 k h 9 m s Z 9 s M q 9 M n u.e u u.u N e d 8 t t t 9 w 9 e 5 & + %.-.-.6.-.' -.{ } } | }  .",
"T T W ] ( 1./ ( W >. .# . m 8 r p.h t j N x u 6 w r B s e 4 r u.z = - d c t z q m - q = 8 0 0 c q 0 t - - ; ; 4 r 0 q 0 e 0 z V q % . $. .6.w.8.-.T Y Y } { [ T ",
"R -.R ,./ / / E R -. .@ . p a t k f ; a 8 & w 4 - - a ; 8 % $ $ # % O O # # $ O O o o O O   . O .   . o . o o . o o O o . O o     . . [ :.6.8.8.-.T Y Y Y [ { T ",
"-.-.W R 3.,.T L L L T T : @ @ @ @ @ @ + @ + # + + + + + + @ + @ X + + . . + @ + @ + + + + + + . + + @ + + + @ # @ + + + @ @ + + . + 3 w.>.q.4.>. .} Y Y Y Y } [ ",
"T R =.-.2.4.L T T Y T T {  .%.%.w. .%. .#. .*.*.w. .[ [ Y %.e.w.%.f.%.%.| %.| o.[ | %.%.%.%.%.%. . .%. .*.*.%. .%. . .%.%.*.t.%.$. .w.>.3.0.>.6.6.Y Y [ Y Y Y } "
};
