/* XPM */
static char *ebcc594dc46f4901ad7850703ad699e86mnd7WxHhKUoffWq[] = {
/* columns rows colors chars-per-pixel */
"80 80 253 2 ",
"   c #050003",
".  c #0C0001",
"X  c #0C030B",
"o  c #07030A",
"O  c #130000",
"+  c #1A0000",
"@  c #12050C",
"#  c #1A090B",
"$  c #0C0913",
"%  c #160C17",
"&  c #15121D",
"*  c #1B131C",
"=  c #151418",
"-  c #0F1219",
";  c #230000",
":  c #2B0403",
">  c #350906",
",  c #28141B",
"<  c #39161A",
"1  c #2C0F12",
"2  c #140E23",
"3  c #1A0F23",
"4  c #151324",
"5  c #1A1424",
"6  c #1C1925",
"7  c #161429",
"8  c #1B152A",
"9  c #1C1B2B",
"0  c #161827",
"q  c #1E1C31",
"w  c #0E1120",
"e  c #231525",
"r  c #221B26",
"t  c #221C2C",
"y  c #2B1C2C",
"u  c #271626",
"i  c #381B27",
"p  c #231D32",
"a  c #2A1E31",
"s  c #1F212F",
"d  c #23212D",
"f  c #2B222D",
"g  c #2A2429",
"h  c #37232C",
"j  c #242333",
"k  c #2A2434",
"l  c #2B2935",
"z  c #2A263A",
"x  c #2C2A3B",
"c  c #262638",
"v  c #322532",
"b  c #332A36",
"n  c #3C2A34",
"m  c #322B3C",
"M  c #3C2D3B",
"N  c #392634",
"B  c #39313C",
"V  c #3E201E",
"C  c #44191C",
"Z  c #451719",
"A  c #4F1517",
"S  c #48251C",
"D  c #54251B",
"F  c #5C251C",
"G  c #58281B",
"H  c #64261C",
"J  c #6A261C",
"K  c #642A1E",
"L  c #6C2A1E",
"P  c #742A1D",
"I  c #7B2A1E",
"U  c #75261C",
"Y  c #4B1C23",
"T  c #451C25",
"R  c #541D24",
"E  c #4C2A23",
"W  c #43222C",
"Q  c #4C242C",
"!  c #472726",
"~  c #532424",
"^  c #5B2622",
"/  c #532C24",
"(  c #5C2B23",
")  c #53242C",
"_  c #542C2C",
"`  c #5C2C2B",
"'  c #5C222B",
"]  c #4D322E",
"[  c #54322D",
"{  c #5C322B",
"}  c #5B3126",
"|  c #432B35",
" . c #4B2B34",
".. c #432D39",
"X. c #482938",
"o. c #542C33",
"O. c #582D36",
"+. c #4C3334",
"@. c #44333C",
"#. c #4C333C",
"$. c #4C383B",
"%. c #533434",
"&. c #54333C",
"*. c #5B343C",
"=. c #543A3C",
"-. c #5B3A3C",
";. c #583834",
":. c #642B23",
">. c #6B2C23",
",. c #642D2A",
"<. c #6C2D2A",
"1. c #652626",
"2. c #732C24",
"3. c #7C2D24",
"4. c #732D2A",
"5. c #7C2E29",
"6. c #772621",
"7. c #643125",
"8. c #6D3125",
"9. c #63322C",
"0. c #6C332C",
"q. c #743125",
"w. c #7C3126",
"e. c #74332B",
"r. c #7C332C",
"t. c #76392E",
"y. c #652D34",
"u. c #653433",
"i. c #6C3532",
"p. c #6C3935",
"a. c #63343C",
"s. c #6B353C",
"d. c #673A3A",
"f. c #743632",
"g. c #7B3432",
"h. c #743A33",
"j. c #7C3933",
"k. c #7B3C3B",
"l. c #73383B",
"z. c #772F31",
"x. c #6A1F19",
"c. c #76423D",
"v. c #6F403A",
"b. c #4F413E",
"n. c #342C41",
"m. c #373345",
"M. c #2D2B41",
"N. c #4C3542",
"B. c #4C3A43",
"V. c #443644",
"C. c #533A43",
"Z. c #5C3B43",
"A. c #583743",
"S. c #44384D",
"D. c #643B43",
"F. c #6C3C42",
"G. c #653B45",
"H. c #733C43",
"J. c #783D43",
"K. c #5D4347",
"L. c #6C4245",
"P. c #6B434A",
"I. c #654449",
"U. c #73444A",
"Y. c #784548",
"T. c #6B4954",
"R. c #79545B",
"E. c #754D55",
"W. c #695C66",
"Q. c #795B66",
"!. c #6C646B",
"~. c #73646D",
"^. c #78676C",
"/. c #7C6C73",
"(. c #786A74",
"). c #7C7278",
"_. c #6C6774",
"`. c #514C63",
"'. c #84291D",
"]. c #832C24",
"[. c #8B2D25",
"{. c #832E2A",
"}. c #8A2E2A",
"|. c #862621",
" X c #942E25",
".X c #962E29",
"XX c #833126",
"oX c #8A3126",
"OX c #83332B",
"+X c #8B342C",
"@X c #84392E",
"#X c #8C392E",
"$X c #93342C",
"%X c #9B342C",
"&X c #94392D",
"*X c #973428",
"=X c #843532",
"-X c #8C3631",
";X c #833A33",
":X c #8C3A33",
">X c #8C3C39",
",X c #833A3A",
"<X c #923632",
"1X c #9B3631",
"2X c #933A33",
"3X c #9B3B34",
"4X c #973C3A",
"5X c #882F31",
"6X c #A4352D",
"7X c #A33B34",
"8X c #A33C3A",
"9X c #A83833",
"0X c #B33C33",
"qX c #B1362F",
"wX c #8A443B",
"eX c #97423C",
"rX c #A5423A",
"tX c #863E42",
"yX c #854646",
"uX c #944743",
"iX c #864B52",
"pX c #89555B",
"aX c #875B63",
"sX c #945C66",
"dX c #86646B",
"fX c #96646C",
"gX c #836D74",
"hX c #876C77",
"jX c #83737B",
"kX c #8B747C",
"lX c #877579",
"zX c #97757B",
"xX c #976C74",
"cX c #A2747C",
"vX c #A46971",
"bX c #8B7B84",
"nX c #857A83",
"mX c #977B83",
"MX c #A47B84",
"NX c #B27C89",
"BX c #97848A",
"VX c #998B93",
"CX c #90898F",
"ZX c #A88589",
"AX c #A89298",
"SX c #AC9097",
"DX c #A798A3",
"FX c #B29BA3",
"GX c #ACA3AC",
"HX c #B7A7B1",
"JX c #9F9AA1",
"KX c #C5ACAE",
"LX c #C4959D",
/* pixels */
"S S } 7.r.w.OXXX@Xr.2.P w.r.>.J OXoX*X2X$X].e.p.%.! + +.%.o.( ( ,.h.<.<.g.r.2.>.:.e.h.t.r.@X=X].].;X{ + ! a.u.e.XX#XOXP L K K H K H F E ~ ! E S [ } 7.( S D D :.",
"E S D G L 3.w.w.{.+X+XOXr.3.w.w.XX3.@X-X>Xj.S + + + . . _ ` 9.9.,.} p.0.f.e.e.1.^ ^ ,.0.0.e.2.OX+X;X+ O O + + { h.@Xw.2.K :.>.>.2.e.7.^ ~ ~ S S S G ,.8.D D F K ",
"G ( G H 2.#X+XXX+X}.>X3.P OXw.I w.r.e.v.< + . . , * . + / ^ 7.7.9.E 1 1 p.0.0.9.~ / D { < u.t.3.oX>X+ . * 5 X . O } h.4.<.>.2.P 3.OX5.4.<.^ ! S G F :.>.F ,.:.^ ",
"( K G J P #X#X#X+X-X2XI ].XXw.w.4.k.> + . $ 0 & d * . S { 7.7.9.{ S . . ;.` _ _ _ ;.;.S O + i.w.XXwX: . 4 q 2 p @ O + ! 0.0.w.U +X+X=X=Xg.i.D D 7.K J >.J >.:.F ",
"A / K q.w.-X+X:X$X$X&X&X*X<X@X:.d.+ . X 9 2 7 j s % . ;.0.8.>.9.;.O X   -.=.1 O + I.v.O . . p.@X2X2X9.O t 7 7 p 9 x @ . + d.g.2X$X&X$X}.OXr.F F :.>.P P J U >.>.",
"F ( 7.r.-X:X+X<X&X&X&X&X3X+Xh.C + . 6 s j z 7 q 4 k + 9.8.q.>.0.O . 6 o # . . @ . . @   % @ + c.4XeXk.+ 6 q c p 7 0 % = . + <.>X4X.X<X].{.5.w.L P w.OXoX|.P J H ",
":.:.q.r.:X-X-X$X&X$X*X&XeXj.; . @ t q 7 2 2 n.4 j * + i.r.w.j.< . l & $ X = f r 6 = . $ e * O u.r.eXyX+ , & 0 4 4 j 0 & *   . > =X<X1X&X3.I #XI ].oX*X*X X].U K ",
"q.r.q.q.r.XX+X$XoX&X3X#Xk.+ . $ 4 4 7 M.a 8 z x 4 r + i.:XOXk.+ X & 4 4 & l 0 & 0 j 4 6 4 f . 1 r.-XiX+ f & j 0 c 7 4 s d & $ O : yX4X<XoXI '.*X3X1X%X%X%X*X3.U ",
"@X2.3.2.3.].&XoXoXoX-XyX+ . d 4 9 x 9 7 n.x 4 0 x k O p.=Xr.v.O r x w & 2 8 7 7 s 0 0 0 t 5 X + wX>Xc.. a 8 p p j q 7 5 & 4 f % O : uX<X<X[.'. X6X X.X.X%X$X+XoX",
"OX3.r.r.r.].*X&XoXOXwX; . r 6 4 9 0 7 8 4 9 j 0 4 6 . < j.k.+ . l 5 l 0 p 8 8 q j q 7 7 t 4 r + yXwX; . e q a p x 0 9 k 2 9 5 2 * . > ,X+X}.*X%X X X6X6X7X*X X[.",
"+XXX5.2.3.3.oX#XwX@X; . 3 c 9 q w w 9 9 b j x 9 9 4 o O a.U.. X a 3 0 c a 8 p 7 q q 7 5 k 3 * X d.-.. r 9 z 2 q 7 2 4 9 p a 8 7 4 % . Z 5.|.3X%X'. X6X6X%X.XoXI ",
"$X-X{.OXw.w.w.@Xr.A O l z 7 j 0 j 7 4 j 9 5 x 7 z t d   + 1   r 9 q 0 x n.a 8 x p 7 7 z 8 5 5 . # O o 5 3 a 7 2 M.c q c M.M.q 8 9 d   O i.5.].*X X6X.X.X.X$XXXI ",
"+X-X-X-X+XOX3.q.9.O o 0 2 q 7 7 x c 2 9 t 7 4 4 q 8 m e % .   l 2 8 7 7 q M.c q 8 7 M.z M.2 4 $ . % 5 d 4 5 x c 7 z c 7 2 q q q c 7 j   + ,.5.|. X%X.X X XoXw.P ",
"=X3.}.}.r.+Xw.h.+   4 7 7 z 9 9 z a 9 7 p j 0 7 7 p 9 5 5 s 4 4 4 p `.m.c M.s x M.m.m._.7 q 0 4 z p 5 8 5 j 7 9 7 7 q 9 7 2 2 2 z 4 l r . : 1.6. X X[.'.U U K H ",
"=X2.r.r.3.L <._ . = d x 4 7 5 & 5 8 p j 7 9 7 8 t z a 9 4 l l j 9 9 m.m.7 0 0 9 7 8 m.`.8 7 c 6 j t 9 j 9 7 q q q c 7 t 4 7 w M.x p 5 4 $ + ,.>.|.[.].I x.J G D ",
"2.e.r.3.2.>.` O   l x p j 8 x 5 6 x z s z 7 7 9 p 9 7 c s l 0 9 j l q m.M.0 0 6 q 8 n.q M.7 4 x 6 x 4 x j z q c 7 7 9 k 5 9 w w 7 j p x 9 . + ,.U +XoXI J P G G ",
"8.e.4.z.{.1.) . & p 4 4 j 4 x 0 x j 0 p 9 p q 8 8 8 p c 7 c 6 x j 0 x 9 9 0 0 6 4 j l 4 x 9 l c b 8 q 7 % 9 x z q j t a 9 x w 4 5 9 7 M.7 k O 9.2.oX3.U L H D A ",
"r.e.g.g.g.f.+   6 9 5 x & k 4 4 4 8 7 j j p 0 9 l 6 j c 9 j 6 6 9 t 9 6 t 9 d l t p 7 6 j j 9 t 9 m q 7 8 2 7 4 4 0 f 8 8 d c $ k & 2 7 2 & . + 5.[.'.P P :.F D ",
"+X=X=Xr.;Xp.. r d 9 t & $   o o l 6 l 7 q 0 t e s 9 j s x 6 0 j j 9 x 9 x 6 d 9 m l 9 t x j x l j 6 4 0 t 9 9 4 x d 9 9 5 d o     = & q 7 5 $ + =X$X].3.P >.J H ",
"<X<X-Xr.g.{ . 6 l k 5   . #   o 6 4 c 9 0 p k r r 6 0 9 z l 6 x 6 t x l j x s r d c j j 6 l l x x 9 j t r r 9 x 7 4 s - k 4   X + .   d 9 t g + k.XX].XX5.L H H ",
"4X2X:X;Xh.+ . 6 5 5   O [ _ .   5 8 c 0 9 9 9 g g g 6 s 9 n.x f 9 9 9 6 l s 6 s l d 6 l x 6 l 0 d x 6 l = f 6 j 9 d 8 9 7 9   # c.k.+   b 4 t . > 8.w.@X2.2.q.H ",
"<XoX2X@Xv.+ . 5 8   + [ ( ( . o 6 l c l d o   . . . f 0 x z c j d d d s m.m s x 9 9 j d j 0 m 6 s 6 g $   .   o o 9 5 p M.5 . ; wX:XyX+ . r 6 . + } J r.2.>.P K ",
"+X<X{.;X9.O % * . . d.h.q.K +   d f b # . O > / ` + . = 0 m.j j s s s x 0 d x j k 9 j 9 d d j d 9 l X . # ! V ; .   4 j 5 5 . Z 2X3X2XyX+ . k . . 9.7.L J L q.4.",
"$X$X2Xg.u.+ , . O u.e.I q.t.< . g 6 = O ; L.l.l.k.L..   m.9 x t c j m.x B d d m.f s d d x c l j x o . b.] / d.[ ;..   = 9 r O h.wX4X1XOXyX+ . % + u.8.L >.t.r.w.",
"7X4X<X{.l.+ * O i.>X=XOXOXr.h.+ * = O _ p.i.p.v.Y.L.. d d l 9 j x m x m j l x m a k d t p 9 x d b d   . %.%.{ u.9.-.# . d % + h.>XeX%X$X>XA . # + c.z.5.8.>.L >.",
"8X8X<X=Xf.+ O ; >X+X-X+XOX>Xk.+ . . 1 0.0.u.: O + + X l n.j x c x l m d d B a b t z k r t l t z 9 6 &   . O + ~ { 9.%.+ . . : wXOX1X*X X$XtX+ O + k.,X=Xe.e.w.2.",
"4X<X:X=Xq.; ; J.>X1X<X+X+X=Xj.u.. O k.k.p.+ . . , y * 6 0 0 j l 0 * k u f M 8 y u e 5 e m m 5 0 9 j p 9 4 % . O ; { i.d.. O h.=X1X1X%X.X$Xg.d.; : 4.,X=X4.e.e.q.",
"-X{.{.@Xq.J A uX3X&X$X-X<X>Xr.i.; : z.j.1 . * 4 5 5 8 6 0 0 l 6 m y f y ..e u ..y u y b y y t b e t a x c j & @ O u.h.j.: > =X2X4X.X X}.].5.k.: h.w.g.5.5.5.2.2.",
"=X>X-X-X+X2X8X8X8X1X1X4X1X4X-Xr.h.f.4.,.O   4 x 0 8 5 k n.t k v N ..| N.| ....| X.......V.b v v f f t n.8 3 m % O { f.;XwX;X4X1X$X}.|.6.{.5.=Xg.g.w.=X4.2.OXOXOX",
"-XeX2X3X%X1X9X8X9X9X6X8X4X2XOXOX=Xr.OXi.. = 4 q 4 5 * l x B B | C.#.N.&. .X.A.&.&. .X.B.C.$.@.v v V.a m.8 e 5 * . E h.-X#X2X7X8X.X{.{.5.U 5.5.5X@X2.r.=XOXOX=X{.",
"}.3XrX1XrX6X8X8X7X7X0X8X5Xg.@X+X5.OX>Xk.O 6 7 q z 8 5 l B b @.#.-.&.Z.N.G.*.O.A.&.&.Z.N...| ..#.N v u 8 k 5 y M . < j.{.+X$X9X9X<X|.3.;X5.6.5X;Xw.w.oXOX#X#X=Xr.",
"+X<X8X8X*X X3X1X*X%X7X1X2.4.r.].3.-X-X=X+ . x 7 4 9 l l B M #.&.Z.G.P.*.G.G.F.A.*.O.Z.&. .Z...X.| N.V.a M 5 5 % . Z g.-X+X.X9X9X<X|.{.{.}.5.=X5.=X+X-X+XOX#X=X+X",
"XX+X1X1X%X1X3X1XoX*XoXoXw.XXoXoXXX&X3X#Xh.+ B m x M z b C.X.A.G.D.s.H.G.H.G.H.U.D.y.O.A.O.G.X. .A.X.N y r k f @ + p.=X1X1X1X.X%X1X}.{.5.5.6.2.3.@X+X#XoX#X@X@XOX",
"w.oX+X$X+X<X3X*XoXoXoX'.XX#XrX*X$X%X7XrXuX+ h g n.m.n.M N.Z.H.F.H.H.H.F.J.F.H.F.G.F.G.A.G.O.&.A.X.A.#.N y M k , + l.-X&X1X6X9X6X1X}.3.3.2.2.<.2.;X=X-X+XXXw.@XXX",
"{.oX}.}.].XX+X+X#XoXoXeXoX&XrX*X%X%X0XrXyX; h l b V.B.N &.d.H.H.l.l.H.tXs.J.E.s.G.O.o.O.A.X.X.X.X.X.N.X...N v | + i.OX$X1X1X6X}.'.6.2.q.>.>.2.r.;X;X:XOX@Xr.;Xr.",
"=X{.].].2.I XX2XoXoX*X*X&X'.&X0X9XqXrXrXwX+ h h B @.n  .T _ ' R R 1.R 1.R ' R A Y Y C T T T T W T W i A.C.n B.N + 0.r.[..X1X3X|.3.3.2.>.2.>.>.e.r.=X:X=Xr.2.r.r.",
"5.6.6.5.3.U 3.XX[.*X.X%X*X X*XqXqXqXqXeX0.+ @.B B.$.h ! Y H.z.z.z.tXyXtXg.tXl.J.E.y.a.Q G.G.A.G.#.X.i X.C.X.#.X.+ v.:X2X1X.X1X5XOX2.L <.e.8.K :.q.q.;X;Xr.2.2.e.",
"2.x.>.2.I P P '.*X1X7X7X X XqXqXqXqX6X3X^ O h B C.=.Q O.J.y.iXsXJ.tX<.z.J.1.l.yXJ.y.R ) T O.) T o. .W  .#.#.C.h + p.w.|.|.|.}.+Xr.q.q.e.0.L L 8.2.2.5.5.e.>.:.K ",
">.H H J P 3.}.%X&X1X7X6X X6XrXrX0X6X6X#X> O @.C.&.A.o.G.y.tXpXvXsXl.J.vXvXiXy.s.G.H.H.E.O.O.G.) o.Q i W &.A.N #.+ ` 5.[.[.'.{.OXw.e.>.>.J q.@X-X-X+X+X4.L H H ( ",
"<.H K J I #X1X%X[.[. X%X*X6XqX6X7X7X Xr.+ . @.N.=.G.Q ~ tXvXsXNXNXSXLXfXfXxXcXxXaXR.aXdXQ.pXT.G.T T  . .#.#.X.| + Z wX<X[.].].3.e.r.t.2.L r.>X2X2X>X:Xq.>.:.( F ",
"3.2.OX@XOXoX&X*X X'. X'.*XrX X*X*X+XXXq.O . @.C.G.G.Y R iXsXaXcXKXKXLXKXSXSXZXAXZXlX^.dXR.bXsXG.O.o.T W $.| | | . > >X].oX#X:XXX=X:X-X{.].2X2X4X<X>X+Xw.>.:.G / ",
"P OXXXI I XX*X*X*XeX'.'. X'.oX*X+X|.I t.O X $.K.G.H.) ' 1.iXMXMXSXSXKXFXFXAXZXbXlXlXlX^.nXmXnXG.Z.) < A.Z.K.] | . + r.oX+X+X+XoX=X2X2X{.+X2X2X<X+XXXOX2.>.K ( ^ ",
"K P XXXXU '.*X&X&XeXoXoX'.'.*XeXoXI XX8.O X $.Z.F.F.A 1.H.H.sXNXZXzXZXBXlXlXlXlXgXgX^.lXnXmXmXnXG.A.T Q -.&.+.| . + j.].].XX+X+X<X2X+X-X>X:X#X4X+X+X+X>X5.3.4.j.",
"K J XXoXI oX&XoXI XXoXoX'.*XeX*X#XoXw.t.O h =.I.E.H.R J.iX1.fXcXZXzXzXzXlXbXlX^.lXlX^.gXnX(.DXDXE.T.C *.D.-.-...O + wX#X$X+X2X2X<X{.|.+X+Xr.].+X2X+X].5.4X>X>X>X",
"H L P P '.&XoXw.P U XXXX].&X#X#X#X@XwXt.O @.=.v.F.a.Y s.Y.0.E.zXSXSXlXlXJXHXJXCXlX).BX!./.~.HXmXQ.aXi *.a.*.&.&.# O wX7X&X#X$X:X#XoX{.XX3.5.6.3.+X>X3.|.].-X;X=X",
"J J J U oX#XoX#XXXq.].].].oXXXI w.I XXt.O =.-.I.U.H.R iXyXD pXxXBXmXlX/.GXJXJX).nXCXlX!.nX~.HXDXbXdXT G.D.G.&.*.h + eXrX&X+X+XoX2XoX2X+X5.OX3.3.OX].3.3.{.>X>X=X",
">.>.2.w.w.XXoX#X;X@X+X$X#X-Xw.8.w.w.@Xh.+ =.I.U.U.*.A s.' u.xXZXzXmX).CXJXCX!._.!.nXVX^.~.(.GXDXhXhXT T A.D.*.&.@.+ uXrX3XoX}.-X+X+X-X-X].r.5.3.3.5.2.OX3.>X,X5.",
":.1.L q.P w.XXOXw.+X+X:XoXr.q.K 8.r.P h.+ K.I.U.J.F.Y O.R pXzXAXgXgXgXCXbX).!.!.^.VXbX).).(.GXDXbXaXi Q *.F.D.&.#.+ uX8X&XoX+X2X+X2X+X{.3.w.5.3.r.w.5.w.3.;X5.3.",
"K H :.J J J 6.6.6.OX}.-XOX=X>.H ^ <.<.^ + K.I.Y.R.~ C Q R fXAXVX).).!.!._.!.!.W.jXCXVX~.(.CXHXHXR.R.< O.G.G.G.Z.K.+ uXeX*X&X+X2X:X#X+X+Xw.r.w.3.w.XXw.OXOXOX@Xr.",
"F H :.>.1.>.>.J 2.OX-X+X{.OX@Xg.e.e.<.D . K.L.U.Y.{ Z ! F.zXVXAX^.!.(.!.!.W.W.!.CXCXCX^.).AXDXbXG.' T < a.G.A.&.B.O uX2X].oXoX].].XX+X+XXXOX3.@Xw.OX].{.-XXX5.r.",
"F H 1.>.J J J J L 3.3.].}.}.}.}.OXg.h.> O T.I.Y.U.~ Z a.d.MXGX).^.^.!.^.W.!._.nXVXVX~.~.nXAXFXG.O.F.T T D.F.G.Z.$.O j.+XI XXXXOX3.{.-X4X}.5.3.r.@XXX].XXOXOX-X}.",
"F H :.1.1.H >.L L 3.U XX1X[.[.}.<X@Xh.; + I.I.E.U.C Z d._ hXGXCX).(.!.!.W.W.!.).CX).~.~.BXSXmX-.J.G.R Z ) D.G.&.B.+ ^ q.3.w.@X3.I {.-X2X3.5.;X+XOX=X+XOXoXOX-X-X",
"F ^ :.:.1.>.>.>.2.r.|.[.1X%X.X1X3X>Xh.+ O I.P.U.U.Q Z E._ aXHXGX).!.).!.W.W.!.nXCX).^.^.lXmXzX;.O.J.a.Z O.D.D.o.$.O : t.P L L P 6.r.OX{.5.OX=X-X3.-X2X-X+X-X+X<X",
"^ ( ( :.1.1.1.>.6.OXXX+X1X1X1X%X%X4XwX; + I.P.U.U.Z < E.! T.HXGXnX).^.).~.W.!._.).CX).).gXBXzXL.' Y.L.Y Q H.*.G.$.O : h.8.q.q.L @X2.r.e.2.g.5.;XOXoX-X+X-X2X2X<X",
":.:.} ( / ( ( :.>.2.OX2X2XoXoX$X2X$XwX; 1 K.G.Y.U.Z _ L.Q T.GXGXVX).).!.~.W.W.!.^.).).lXlXZXzXaX) H.O.C ) G.Z.&.#.O + v.>.2.2.5.;XL >.>.H 0.r.r.OX-X+X{.3X3X-X2X",
"8.0.7.( / D G { 0.4.w.w.;XOXOXoX&XeXwX; ! I.L.U.U.Y < E D.R.DXGX).lX).).~.W.W.!.^.).lXgXzXcXhXzX' H.U.Y Q G.A.&.B.+ + v.e.w.5.:X:Xq.F G ( >.r.5.OX:X4XeX4X<X].{.",
"e.e.:.1.( ^ 9.` ,.e.e.<.e.r.t.r.#XeXwX; v.T.L.U.F.T < &.T.kXAXBX).CXbXbXlX~.).jXQ.nXbXkXzXxXzXfXR J.H.Z T P.A.%.C., + { j.=X}.-X;Xg.<.:.7.9.e.5.r.;X+X-X<X+X+X{.",
"r.j.r.e.0.9.i.,.,.,.9.:.>.8.e.r.XX#XwX; -.v.L.L.G.Z o.Q Q.hXVXbX).^.nXCXAXAXVX/.nXQ.dXhXMXmXzXfX1.J.Y.O.i P.D.#.#., + u.f.g.-X5X}.r.g.>.:.e.f.e.j.g.r.OX}.-X>X-X",
"@Xr.=Xj.e.f.i.<.,.} ,.7.:.7.8.e.w.wXyX; I.v.-.L.o.Y T T K.nXhX/.^.^.).lXDXGXHXAXDXbXmXmXZXzXvXaXy.y.iXR < G.A.%.#.n + ;.9.K g.=X=X=X=X4.2.j.j.,X;Xj.r.g.g.=X>X;X",
"{.{.=Xj.f.e.0.0.i.0.7.7.:.7.8.e.wXwXyX; I.-.I.d.o.< T i T.Q.bX/.).bXnX!.~.VXDXDXVXmXfXmXzXMXNXfXH.y.H.) T G.-. ...h . ] / G F <.r.=X=X5.g.=Xf.g.j.;Xj.j.=Xr.+X;X",
"OX=X=Xg.i.0.0.e.e.8.e.<.8.q.r.r.oXwXc.; -.&.K.d.) < T A.Q.Q.hX(.gXbXVXVXnXjXnXBXbXmXMXmXMXNXMXvXiXy.J.) i O.o. .@.@.. ] [ } F K <.r.OX=X5Xg.g.4.g.,Xh.t.t.t.=Xr.",
"OX5.g.f.f.f.e.l.t.j.;Xw.OXOX#XeX*X2X0.; A.=.-.I.X.< T X.bXQ.Q.Q.kXQ.hXVXnXgXkXdXaXxXmXsXsXmXsXsXJ.1.G.) <  .#.#.N.h O %./ } 7.8.q.w.+X;Xg.=Xk.4.<.e.e.e.t.t.;Xj.",
"4.4.<.8.4.e.@X=X2X2X&X+X*X7X3XrXrXeXZ + -.C.=.A.=.< *.i K.nXhXgXaX*.*.Z.kXdXzXaXsXMXpXvXsXfXfXsXJ.H.J.o.W +.=.B.M @.O _ p.0.r.wXw.2.OX,X=X,Xf.:.:.:.>.e.r.j.j.j.",
"5.e.w.r.r.=X2X4X3X4X%X1X7XrX%X6X7XeX: O Z.C.&.B.$.1 I.&.X.W.Q.Q.&.T o.W *.P.D.G.F.H.G.y.H.vXfXiXy.F.G.G.< | | b M h O *.i.r.#XXX#Xr.g.=Xj.g.<.0.,.1.( ,.l.j.t.j.",
"=XOXXX:X2X<X4X3X7X3X<X%X7X8X&X}.&XwX+ . ....N.#.n , .. .i i i y W  . .o.Q Q o.) O.H.F.s.y.iXG.R a.O.H.X.i A.X.V.l g   1 k.XXoX:X:XOX;X;X5.g.g.i.,.^ ( ` 7.9.r.r.",
"OX].&X3X&X7X<X3X&X7X3X<X3X3X3X}.2XwX+ . M @...B.g , h i u 1 u i i T i Q W Q *.) R y.s.) y.R Y ' R T X.A.u i n.a B b   + g.}.<X2X2X@X:XOXg.j.g.i.` ` ` ( ( >.j.g.",
"XX#X&XeX3X<X<X+X$X$X&XeX4XoX4X<X2Xk.+ % n @.M $.@., , , u , h < i i < i i < Q C Y R Y Y ) T ' Y X.s.T X.N V.V.a g g   O J.5X5X+X4X>X>X=X5.e.<.,.` ( ( ( 1.4.=X=X",
"oX*X*X&X1X2X].oX:X&X#Xj.2.j.j.yXyXY.O * B.B B h M n | K...@.=.$.X.N.N.A.&.I.&.a.G.D.D.*.H.G.A.A.A.X.S.X.@.N k t l d   O H.k.j.k.k.,X,X;X,Xe.:.,.( / ^ :.2.e.j.r.",
"$X+XoX2X4X$X3.3.XXr.h.+ O O . O . . . & t t m.v k k a a V.v @.| X.S.N.S.X.X.A.A.Z.A.A.A.A.G.A.O.#.n B.n b B k l z k     . + . . O ; > c.g.,X8.0.:.( :.:.K q.t.w.",
"}.{.XX#X3X2X].OXw.q.{ + @ l 9 6 * r 9 p m p k j t a N a f f h h i S.X.i i N.T X.N.A.X.Q X.T i A.i N b 5 e l j 5 8 9 q 4 * * - = 6 * ; p.f.r.e.:.:.7.K K H q.r.q.",
"r.;X3.r.#Xw.I XXwX8.;.#   6 0 c 4 l j 2 p M.j 0 9 3 z a 3 u k f 3 u a u 3 u u i N.u i u a N N a a v k N & & 5 4 q p q 9 9 9 j x 4 v + l.f.g.e.e.>.:.L q.q.q.q.8.",
"z.2.K 8.q.w.I @X@Xv.;..   0 7 7 4 5 z m 2 z z 0 z 8 3 8 n.5 k y N a u a V.u u n.e e y u N N u 3 3 y * 5 j 4 4 c z 8 7 z p m j x j 5 O d.h.t.6.e.e.L K t.t.P >.8.",
"1.1.( :.8.q.w.;Xw.i.;.. . 0 4 7 7 4 c 4 j 0 k 2 3 t 3 8 8 p 8 e a t v e t y V.e e y e v a m n.u 8 8 q p 8 8 9 4 4 t 9 8 2 4 4 m z a . d.h.8.L 4.4.4.4.g.r.:.G ` ",
",.:.K :.7.8.q.e.j.i.;..   6 5 0 z j 9 s c 9 j 9 2 8 8 7 8 p m 2 e 5 3 e 8 z 3 p m n.e a a 3 e r e p z a 8 a 2 4 0 4 2 j 4 9 9 j b % . %.} 7.7.q.<.<.<.i.p.9.9.{ ",
"0.K K 7.K K F 8.8.i.[ . . 5 5 5 0 j c s 0 0 t k p 5 2 8 x k k 4 m 2 9 k v e n.m m v M.3 a n.5 2 z q M.8 2 9 0 8 4 9 x q 4 2 a j 5 % . [ { } 7.7.,.` ' ( / / [ [ ",
"} G K K K K K 8.:.9.[ .   r j 8 c 0 w & 4 j t k 3 z 4 5 t 5 j 9 t 5 3 d p 8 v e m 5 r l e 5 l j M.7 7 M.9 z 5 9 4 s 9 9 7 5 7 0 & = . %.{ } 9.( ( / / E E E E / ",
"G G F >.>.>.8.8.:.,.[ @   g 4 7 x t 7 j c 9 9 4 4 j k 9 5 2 5 c 9 & 4 9 d 6 t 4 a & 8 * 6 4 4 j 4 0 9 & & & 4 & 0 = 0 0 0 & s l 6 = . ] [ { p.9.{ / E E E / E E ",
"} F K 1.>.8.K G F ` [ O O * 6 * y y * e 5 % 5 - - 5 e = 5 % $ % X = X @ @ % X X X X   X o . X .     .   X   .       o     o       . . ! [ 9.u.d.{ E S V S E E E ",
"} ( ,.:.>.<.G D D D S E + O . . O . . O . O . + O O . O O O + O . . . . . . . . . . . . O . . . . O O O . + + O . O . O O O . O . O < ;.,.h.u.9.( E E S V E E ] ",
"D / ( ,.,.:.D D D D D D } [ ;.;.-.] ;.+.+.o.;.%.;.] S S h ;.-.-.%.b.=.+.+.+.+.] ! ] $.-.+.=.=.%.] %.+._ =.=._ +.%.%.] ;.;.;.-.b.+.] ;.{ u.,.,.9.{ S V ! V ! h E "
};
