/* XPM */
static char *_a7bf83389c14371a2664cc70abc067772PqqGVh8xXtS1qS[] = {
/* columns rows colors chars-per-pixel */
"80 80 256 2 ",
"   c #030103",
".  c #0B0002",
"X  c #090905",
"o  c #04010B",
"O  c #0B020A",
"+  c #140101",
"@  c #1B0102",
"#  c #16050C",
"$  c #0B0815",
"%  c #170A14",
"&  c #140D1C",
"*  c #0B141B",
"=  c #161719",
"-  c #14121D",
";  c #1A121C",
":  c #230102",
">  c #2B0102",
",  c #28070A",
"<  c #320202",
"1  c #390505",
"2  c #2E0D14",
"3  c #271518",
"4  c #37151A",
"5  c #130E24",
"6  c #1A0D27",
"7  c #100E2A",
"8  c #0D1525",
"9  c #151324",
"0  c #1B1425",
"q  c #141B25",
"w  c #1B1A25",
"e  c #15142A",
"r  c #1B152B",
"t  c #161A2A",
"y  c #1C1A2C",
"u  c #191632",
"i  c #1D1B31",
"p  c #270D28",
"a  c #221325",
"s  c #281627",
"d  c #22152A",
"f  c #221C2C",
"g  c #2B1C2E",
"h  c #381A28",
"j  c #221C32",
"k  c #281C35",
"l  c #331D33",
"z  c #1B232B",
"x  c #1B2434",
"c  c #1E303A",
"v  c #24212E",
"b  c #2A252C",
"n  c #37252B",
"m  c #252233",
"M  c #2B2434",
"N  c #2B2A35",
"B  c #252339",
"V  c #2B253B",
"C  c #262A39",
"Z  c #2D2A3B",
"A  c #362636",
"S  c #332A3C",
"D  c #3B2B3C",
"F  c #26313F",
"G  c #39313C",
"H  c #4F0C0F",
"J  c #480C19",
"K  c #491419",
"L  c #551919",
"P  c #6D0814",
"I  c #681C19",
"U  c #771D18",
"Y  c #4A251B",
"T  c #592519",
"R  c #64241C",
"E  c #692618",
"W  c #6C241C",
"Q  c #762713",
"!  c #782315",
"~  c #73241B",
"^  c #7B241C",
"/  c #742A1D",
"(  c #7C2A1D",
")  c #481927",
"_  c #4F1528",
"`  c #571826",
"'  c #671925",
"]  c #6E112C",
"[  c #761A29",
"{  c #492628",
"}  c #5C2A24",
"|  c #562728",
" . c #4A312D",
".. c #57322B",
"X. c #462836",
"o. c #4C2B34",
"O. c #4B2C3B",
"+. c #572937",
"@. c #49343A",
"#. c #5A3333",
"$. c #573935",
"%. c #54333C",
"&. c #5C333C",
"*. c #6B2521",
"=. c #642B23",
"-. c #6C2B23",
";. c #642628",
":. c #6C2C2B",
">. c #732422",
",. c #7B2422",
"<. c #732B23",
"1. c #7B2B24",
"2. c #79252B",
"3. c #742C2B",
"4. c #7C2D2A",
"5. c #66322A",
"6. c #793226",
"7. c #73332C",
"8. c #7C322C",
"9. c #662A36",
"0. c #772937",
"q. c #673739",
"w. c #783537",
"e. c #67423C",
"r. c #2C1A42",
"t. c #2B2842",
"y. c #362B42",
"u. c #2E3443",
"i. c #373342",
"p. c #502D42",
"a. c #4A3542",
"s. c #5B3443",
"d. c #563845",
"f. c #6E3246",
"g. c #643A44",
"h. c #683845",
"j. c #783A46",
"k. c #584747",
"l. c #694247",
"z. c #784249",
"x. c #784352",
"c. c #920F11",
"v. c #881C18",
"b. c #971C18",
"n. c #A71B1A",
"m. c #862515",
"M. c #83241C",
"N. c #8B231C",
"B. c #842A1D",
"V. c #8B2A1D",
"C. c #93241C",
"Z. c #98281C",
"A. c #92311D",
"S. c #A3231D",
"D. c #A8251E",
"F. c #BA241F",
"G. c #861C26",
"H. c #8E172E",
"J. c #A8172B",
"K. c #842523",
"L. c #8C2523",
"P. c #842B23",
"I. c #8B2B24",
"U. c #8A252B",
"Y. c #852C2B",
"T. c #8C2C2B",
"R. c #942423",
"E. c #9C2424",
"W. c #932B24",
"Q. c #9A2B25",
"!. c #99252A",
"~. c #932C2B",
"^. c #9B2D2B",
"/. c #863225",
"(. c #84322D",
"). c #8C322B",
"_. c #943125",
"`. c #9A3526",
"'. c #94322C",
"]. c #9C312C",
"[. c #862836",
"{. c #8C2D31",
"}. c #972C35",
"|. c #843331",
" X c #8B3233",
".X c #85373A",
"XX c #943232",
"oX c #9A3232",
"OX c #9A3638",
"+X c #A42523",
"@X c #AB2524",
"#X c #A32C25",
"$X c #AA2B24",
"%X c #A9262A",
"&X c #A32C2C",
"*X c #AB2B2B",
"=X c #B52929",
"-X c #A3322A",
";X c #A53528",
":X c #AB322B",
">X c #B7332A",
",X c #A82C34",
"<X c #B72C33",
"1X c #A33332",
"2X c #AA3536",
"3X c #B63233",
"4X c #C22929",
"5X c #C33037",
"6X c #93433C",
"7X c #D3443B",
"8X c #A41C48",
"9X c #922C49",
"0X c #853946",
"qX c #983944",
"wX c #A62A47",
"eX c #AA3852",
"rX c #B93B5A",
"tX c #BB3E6A",
"yX c #C43A5A",
"uX c #D33C54",
"iX c #C63D66",
"pX c #D33E6A",
"aX c #884547",
"sX c #8F4750",
"dX c #B0445A",
"fX c #BC4869",
"gX c #D4455A",
"hX c #EB5058",
"jX c #F66656",
"kX c #FE7559",
"lX c #C84668",
"zX c #D64A69",
"xX c #D8536D",
"cX c #CA4974",
"vX c #D54C76",
"bX c #CB5572",
"nX c #DB5374",
"mX c #D85578",
"MX c #E34B69",
"NX c #E95668",
"BX c #F75A68",
"VX c #E74C77",
"CX c #E75978",
"ZX c #F55C77",
"AX c #FD656A",
"SX c #FC7A67",
"DX c #E96275",
"FX c #FB6878",
"GX c #FE7779",
"HX c #FE846A",
"JX c #FD8776",
"KX c #D35381",
"LX c #EA5B83",
"PX c #EB6383",
"IX c #FA6984",
"UX c #FB738A",
/* pixels */
"Y Y T E /.B.W.W.).I.^ U W.I.^ ~ _.Z.Q.$X+XC.-.7.5. .+  .%.#.;.*.E 7.<.2.}.T.! ! *.4.8.8.Y.(.!.E.R.&Xo.+ _ f.7.w.m.A.A.Q ! I ~ W ~ W T | | )  .Y T 5.=.R Y Y T ~ ",
"{ T T T ! M.V.V.I.I.).T.I.V.B.( Z.N.W.`.OX{.L < @ , + . | ;.=.*.-.-.w.3.T.U.P.! ' I :.7.8.8.v.C.E.^.@ + , > < =.).`.Q.m.E ~ W ,.M.P.>.R ` T Y Y T R *.<.T T I E ",
"T T E E N._.V.I.^.W.oXL.! /.B.B.C.U.|.w.4 @     3 ; + @ =.=.-.-.5. .2 3 7.5.7.5.| } | 5.4 $.7.6.Z.;X+ . 8 9 o o : ..q.7.<./ ( ^ m.V.P.1.2.*.| Y T E >.,.R W -.W ",
"R E E E m.`._._.E.^.1Xv.B.V.N.V.I..X< : O O q 8 B ; + n 7.-.E <.:.K .   7.:.} | | q.9.L . + 7.6.A.`.% . 8 t 5 k # + > L 6.1.( m.`.Q.W.'.Y.3.L T E E W ^ W *.W R ",
"T T W 1.M._.Q.^.#X#X`.;XS.*X).<.5.@ . $ j 5 e B j & # 5.6.1.,.<.$.+ X   k.$.3 + : l.l.@ O + 7.).:X=X:.@ i t u r.i C O   @ q.~.*X$X#X^.C.!.U.I T ~ ( ~ U U v.>.>.",
"T R / (.'.`.Q.^.#X#X#X#X=XJ.(.L @ . w x k t.e j 9 m @ 5.( ^ >.7.. . = o + + . . + + # + % X , .X,X2X.X: q x k k 8 y $ & + : [ }.*X%X#XC.L.L.P.Q ! B.W.A.v.v.I >.",
"W ~ <.6.'.`.^.&X#X#X#X#X1X.X@ . O v i t 7 5 t.d x - : w.I.I.8.J   N 9 $ X % b z a ; o # j d @ 5.C.2XaX, = & 9 5 q B e r z   @ 2  X&X:X#XN.v.`.V.N.Q.Z.$XZ.b.^ U ",
"1./.P.( I.L.^.^.Z.#X;X$X.X<   $ 9 u e t.k e t.V t f : 8.`.R..X< o 0 9 9 8 C q 8 r m r r u m + 2 W.&XsX> b = N q m e e i x * #   1 qX3X#XV.v.b.$X:X:X@X@X@Xn.M.^ ",
").^ K.K.K.R.#XS.V.`.`.6X    b r z C r d Z Z 9 t C N @ 7.Q.U.e.+ w N r e r 0 r t m 0 e i x 9 O . ;X:Xz.. k u k k m m 0 e ; 0 j &   , OX,XD.Z.c.S.@Xn.D.+X*X#X+XC.",
"I.^ I.P.L.I.Z.D.Z.W.w.1 . f d e t t r d 9 f m t e w + 4 T. X: . Z - V 6 j e r r m y e u j 9 3 . OXoX> . d p k k Z 9 f m 9 j 6 7 ; @ H {.Z.Z.$XD.n.D.@X$X%X+XE.C.",
"Q.I.L.M.M.I.A.A.].XX> . 6 S i i * 9 i u S M Z i j 5 O . w.j.. O k 0 0 A x i j d j u e r b 0 0 $ 5.e.  z d V 6 r.q 5 0 w k t.u u 9 * + 4 T.v.*XD.b.D.@XF.@X+XQ.N.",
"^.^.L.P.P.B.B.A.).H @ M V 7 B e x 8 e B f 0 Z 9 k j v O > 4 . z p k = A t.k 6 y.r.u u m a 0 0 o < :   q p k u 7 Z m y B t.t.u u y v .   Y.U.C.D.D.D.n.n.n.D.W.B.",
"Q.Q.}.}.'.W.v.P.$.+ o 8 7 u r r y.k e t i y r e j r y.u % O o N 9 d c.P k c Z y 8 e P ] B 8 9 O O 5 a l 6 r C x q B B e 7 u i j B e B   + 9.G.L.D.+X+XE.Z.W.P.! ",
"W.G.W.!.I.~.T.8.+ . e t u t.y d l k i e j m 9 y 6 k y e a f 0 9 5 s iXyXu t.j V u.y.fXmXa t y - Z j r 0 e m r i u e x y r 6 e 9 V 9 N v + > ,.K.b.+XC.b.v.U U I ",
"T.M.P.I.M.U 7.|   ; M Z 9 r r 5 r r j m e j r e u V B u 8 C C j z d yXyXr 9 d d 7 p yXgXp 0 N q m j f M y e j j j k r k 6 r e F S y 9 9 $ + ;.[ v.Z.E.v.U U Q H ",
"1.8.P.( ^ ,.;.: o N N k m w t.5 d Z B j V e e i k y r M x C t j z M P H.A r d a j p v.P X.5 9 C w Z 9 Z C B B B e r r V p 0 8 8 9 M m Z w   < *.c.Q.Q.v.! Q T T ",
"-.6.4.Y.U.,.X.. 7 m 9 0 m 9 Z i Z m y y j m i t d d k x e C 0 S g a V s w r 9 y 0 g M ; Z f Z M y.k y t 5 0 V M x m g g t C 8 7 0 y e t.6 M + $.v.#XC.! Q E L L ",
"/.( Y.T.U.Y.+   y y 0 V 0 M 5 0 9 9 e f k j r y V r B t.y B y 9 f f g 0 y y v m f f d 0 m m y y d V u 8 d 0 9 9 9 9 m d 0 m x * M ; e u 0 5 . : m.Z.C.v.^ ~ E L ",
"~.~.U.Y. X8.+ w m y f 5 X   o O N w V t i u j d i y m m V y t m v y Z y Z t m j S N f y S f Z V N r e i g a d 9 Z j y w 0 m o o   = & j r 0 $ + ~.!.b.M.^ ^ E I ",
",X&X~.T.P.<.. w S M 0 o   % O . w 9 Z r e j l k x y e y A M w F y w Z N m S j z m N m M t Z M Z Z y m y s d d S e r z * A ; o . . . o b j d b . T.!.b.R.1.! ! U ",
",XoX^.^.w.: X d r r . . :.=.    a f Z i u t z v b b w y j t.S m w y z 0 m y v v M v w N N t N w z N w A a f w m B j i r e i o + OX}.@ . S q w o < <.N.~.K.^ ~ E ",
"^.^.XX~.w.@ O y d   @ ..>.E . . 0 M m N z o   . . + z q V m V m v v m v i.G w S y v v v m w S w v f v # . .     o d 0 j t.t O @ OXOXz.@ . w w o : =.U P.,.U ^ U ",
"Q.`.L.XXq.: # ; O + w.|.M.~ +   f b N # @ > H L ;.1   % y G m m v N y C t v G C m y m y f v m v f N O . > | Y > . O 0 M t 9 + 4 1X:XOXOX: + b o @ 5.Q ( ~ 1.P.M.",
"Z.~.oX}.9.@ 3   + $.4.M.m.B.4 + v w %   , z.w.{..Xw.X   i.z Z z m v i.Z i.v z G m v v v Z N N v t.O . $.....q.=.$..   * f f # w.].3X-XE.aX@ O $ O q./ / / 6.P.U.",
"<X<X^.C.w., =   U.,X~.R.Z.T.w., = = : | 7.8.w.z.z.l.. z f B y m C S Z S B B Z i.f m m v y y Z v S f     #.#.5.7.7.5., o z * > w.`.;X#XD.&XP + * : z.T.K.<.1.^ ^ ",
"3X2X^.W.w.@ . + }.,X^._.W.XX.X>     1 7.4.7.< @ > , # Z i.y S Z N Z S m f y.k y.y A b f z M v m d f -   @ : : L 5.5.#.+ o   1 .XQ.#X#XZ.&XOX. X > 0X{.}.6.1.1.( ",
"1X^.^.~.7.> : 0X1X%X].Q.~.~.|.w.. + 0X{.e.+     p g w w 9 w m Z a 0 M s l y.a b d d a 0 D S 0 d a m j i 8 * . . : 5.0.7.. + |.XX&X*X+XZ.!.T.q.@ 1 ,. X{.P.1.1.( ",
"XXT.T.~.1.;.H qX:X@X].'.'.XXY.4.+ , [.!.1 . - 0 y 0 r 3 t q C q D l g g O.s a X.l a s A g M s S f j B t.m M % % @ :.Y.T., ,  X1X<X%Xn.n.L.I.w.< 7.Y.U.Y.K.K.( 1.",
"^.oX^.!.Q.*X5X<X<X=X,X*X,X,XoXI.(.Y.K.,..   8 t.0 0 0 M i.f v n X.O.O.p.X.o.O.X.X.O.O.O.p.A b M b g g D 6 p y.- + $.(.)._.`.:X<X%X!.G.G.L.K.~.}./.P.T.U.G.~.~.W.",
"oX2X1X1X#X:XwX<X:X<X=X=X,XoXR.~.Y.Y.T.{.. * 8 i 5 0 9 M S D @.@.s.O.d.%.o.o.s.s.%.O.O.a.d.a.O.n A a.k p.d d 9 - + { |.~._.].<X<XE.!.R.v.U L.K.U.).M.I.T.~.T.I.L.",
"R.2X2X,X>X%X<X2X=X3X3X5X(.(./.T.V.I.OX[.. = e i M 0 w Z y.A O.a.g.s.g.s.h.&.&.q.&.%.s.%.o.X.@.@.n A d 6 Z 0 s G . 4 }.~.^.&X%X<XoXv.M.W.I.N.T.}.I.I.T._.W.~.~.U.",
"E.,X3X<X@X+X,X,XS.$X=X=X/ P.I.U.V.~.}.}..   Z u 9 y V B i.D d.O.q.h.z.&.h.h.h.q.&.&.&.&. .d.@. .o.@.a.k S 0 3 ; . 4 {.!.Q.E.=X=X,Xv.L.U.I.M.~.U.T.T._.A.W.`.}.XX",
"B.Z.&X$X*X%X:X&XE.^.Q.I.I.Q.C.C.Z._.=X+X0., G S N Z V D s.%.h.j.0.q.0Xf.0Xf.x.x.e.q.q.9.#.g.%.X.%.X.X.h y A M % , w.~.*X%X%X+X@X*X!.L.L.U.U ,.<.T.'.~.^._.T._.W.",
"V.A.^.#XQ.-X-XQ.Q.R.R.R.V.].;X#XZ.`.<X3XsX, N m i.i.a.X.%.g.j.f.w.j.j.j.0X0Xj.f.w.q.h.s.g.%.%.s.o.&.%.A g y.l a , |.~.&X*X=X<X=X*XR.M.K.K.,.,.,.'.'.~.R.I.T.).I.",
"I.R.R.E.N.C.Q.Z.E.C.Q.#XZ.Q.>X$XD.D.5X5XsX> N N A @.a.A $.q.f.w.0Xw.w.0X0.0Xj.w.9.9.+.f.g.o.o.o.o.o.O.O.a.A n G : 3.T.E.*X@X*Xb.v.N.B.( ,.~ 1.Y.'.'.~.~.).).).T.",
"R.R.R.R.Q M.R.`.W.R.E.#XS.Z.$X>X4X>X5X<X6X> N b G @.n O.{ | 9.] ' ' ` *.' *.L L L J J J ) ) ) _ ) ) ) d.d.n a.A : 3.T.!.@X%X<Xn.L.M.^ / -.>.,.Y.P.).'.^.P.1.P.Y.",
"U.G.G.K.B.m.m.V.S.D.+X+X`.Z.F.4X=X4X=X>X:.: G i.a.d.) ) ` [.[.H.H.qXqX}.U.qXj.j.sX0.9.I f.f.g.g.+.+.) X.d.X.p.G : e.`.;X@X+X*XE.(.( ^ <.6./ E W 1.1.).XXI.^ 4.4.",
"^ U U ,.m.U U C.+X$X3X=XA.D.F.4XF.4X@X:X| @ G @.d.s.+.f.9X[.eXiX9X}.G.U.}.[ [.0X0X:.' [ ` 9.| ) +.+.) +.%.O.s.A @ w.G.b.c.b.E.Q.P.1./ <./ ~ ^ 1.1.^ P.K.P.( ~ W ",
",.I W ~ ! m.Q.%X#X*X=X=XD.D.4X4X4XF.=X`.2 .  .d.%.h.+.j.] wXrXcXuXJ.J.MXzXeXH.H.8XwX9XrXH.H.9X] ` o.) ) s.g.X.O.@ } R.C.C.b.C.R.1.1./ / ~ ^ T.OX^.~.XXM.~ E E R ",
"-.W W *.B.'.$X+XC.C.n.@XD.F.4XF.F.=XD.V.@ . @.&.&.h.` _ wXmXlXLXGXIXUXzXvXcXDXnXiXrXyXcXfXdXeX9X_ ) o.o.+.&.X.o.@ K oX#XC.C.C.v.6.6.8.<.^ Y.oX1X1XoXoXK.E ~ W R ",
"B.M.)._.C.Z.#XZ.Z.b.Z.m.D.;XZ.Z.@XD.N.P..    .d.j.h._ ` wXzXyXCXGXJXHXHXUXUXAXAXGXDXlXcXlXnXbX8X] +.) X.+.o.o.X.+ , ].C.E.'.'.P.XXXX}.!.v.,X&X2X].^.~.L.<.W T T ",
"^ I.C.N.m.C.E.#X>X;Xb.Z.S.b.Z.D.S.b.N./.  X $.g.h.j.` | [ eXCXLXSXFXJXHXUXFXAXjXCXxXmXdXcXUXmXwXf.` ) d.h.g.o.o.. + Q.Z.^.Q.T.I.~.1X&XR.R.1X1X&X^.R.I.M./ E } T ",
"~ m.V.N.m.m.#X#X;X;XC.Z.b.b.D.;XZ.v.V.P.  X %.k.sXh.J 9.[.9XlXPXIXnXLXPXnXzXCXNXnXvXcXmXzXFXjXhX9X[._ ` g.&.$.o.  + C.b.L.W.~.^.^.^.Q.Q.XXXX^.].R.~.~.oXL.K.K.{.",
"E U V.Z.m.C.&XZ.m.m.C.Z.m.b.;X$X`.A.B.6.. b $.h.x.j.' j.qX[ zXVXPXmXmXmXxXNXxXMXnXmXcXvXnXgXAXkXeX9XJ q.h.g.s.o.X . 1X;X'.~.oX1X%XC.C.W.'.I.I.~.].^.L.L.OXOXOXoX",
"~ U ! v.b.#X_.V.Q Q A.C.v.-X`.]._.Q.`._.# @.q.l.j.:.K f.aX>.wXCXIXIXVXvXJXSXGXBXBXBXVXuXKXtXHXjXyXrXL 9.&.&.$.d.% . 2X>X].Q.Q.^.].R.R.W.M.I.M.N.^.^.N.v.R.oXT. X",
"I ! U U C.Q._.Q.B.m.C.C.C.~.L.m.B.N.W./.+ @.q.l.aXz.` sX0XP rXCXZXPXzXvXJXGXGXMXBXZXVXuXKXlXHXjXCXlX' f.q.h.&.s.v + 3X>X`.Q.Q.Q.^.R.].Q.K.I.M.M.U.I.N.L.G.OXOXY.",
"/ ~ ^ P.N.V.W.Q.'.`.W.^.^.'.B.( ( V.V./.. $.l.z.z.:.J 9.U U.zXZXCXPXVXIXAXAXgXlXuXIXIXuXcXbXHXkXCXgX' _ q.f.s.&.G + 3X>X-XC.W.Q.^.W.^.^.K.I.K.M.I.M.L.L.L.OX{.P.",
"W W ^ 1.M.V.I.C.B.~.!.^.Q.I.( E ( /.^ /.. k.z.z.x.w.` 9.P eXZXIXmXnXMXIXjXhXbXcXpXIXIXMXbXfXHXkXCXrXI ` w.q.f.&.a.+ 2X>X].C.Q.`.^.`.Q.C.M.P.P.M.P.P.1.P.G.XXY.P.",
"W E I >.~ ~ ~ ~ v.L.!.!.~.T.~ W ;.:.<.Q . k.z.x.sX` K L P gXGXFXbXcXiXvXKXvXiXfXBXAXUXuXgXAXJXHXrXdXJ +.j.f.l.g.k.. 2X3X`.Q.~.].'.~.~.~.R.W.I.M.I.N.W.W.L.T.)./.",
"R E ~ >.~ ~ U U M.I.^.!.K.T.(.(.3.7.5.L + k.x.x.sX+.K | ^.NXFXFXvXcXvXiXpXtXlXlXBXBXPXgXNXFXGXjX}.[ _ J f.q.g.+.@.+ 2X`.C.W.R.W.L.W.W.~.~.~.M.I.I.V.C.I.~.I.T.I.",
"I R >.*.U ~ [ I ^ I.L.N.E.E.E.E.!.T.P.H . k.x.aXx.` H 0.b.FXJXgXcXcXcXcXtXcXzXDXFXAXlXiXBXUXUX+X2.w.K _ q.j.h.h.@.+ ).Q.m.V.I.T.L.L.oX1XL.L.I.).I.I.I.W.~.W.~.R.",
"R I >.>.[ U ~ W ^ ^ U W.&XR.b.!.^.T.3.1 . k.z.z.z.) K w.c.NXJXjXvXbXmXcXtXpXgXNXBXBXlXlXAXGXDXc.0Xj.` K o.g.z.&.d.+ U M.N.V.).B.v.R.^.1XN.N.T.I.W._.W.N.T.W.^.%X",
"T *.*.*.>.>.[ K.^ L.b.E.%X@X@X@X$X-X.X< + l.j.aXx.` K sXU bXHXHXCXlXvXvXtXtXcXIXBXBXzXzXMXZXCXH.] 0Xw.J +.h.h.+.$.+ 1  Xm.! Q Q U T.'.I.K.T.T.XXR.].oX'.'.^.^.^.",
"R ;.*.W W >.*.,.,.I.~.!.%X*X%X+X$X1XsX< + l.z.z.x.L K x.P qXJXHXCXMXVXvXcXtXiXvXZXFXzXcXMXIXnXwX' 0X0XK +.j.s.h.k.+ < .X^ B.( ^ T.P.P.1.>.Y.T.T.L.~.].^.oX1X^.-X",
"*.-.=.=.=.T ;.R ,.U T.&X].Z.W.Q.;XOXaX> , e.h.x.z.J ;.0X` eXJXHXFXVXVXpXfXfXtXlXxXnXxXnXMXIXKXlX[ 0X;.L +.h.g.&.@.. > w.^ ,.,.K.'./ / -.E 2.Y.T.T.'.R.E.&X1X^.oX",
"<.:.-.T T T T -.4.,.K.R._.W.W.W.`.2X.X< Y l.z.x.0X` J ' 9XeXSXSXhXZXMXvXfXtXiXiXlXmXnXzXVXIXmXvX[ 0Xj.K ) h.s.s.a.. : w.K.1.U.oX).( E R R <.Y.T.I.'.2X2X2X&XL.K.",
"Y.4.<.-.*.R -.=.:.7.8.>.1.8.(.Y.#X2XaX< e.z.l.z.f._ J 9.eXxXFXAXzXIXAXhXjXgXzXVXcXmXLXnXCXCXLXcX' 0Xw.K ) h.q.%.k.3 : q.T.T.XX}.^.T.<.=.-.-.8.Y.|.).~.].&X^.~.U.",
"T.Y.4.6.3.-.7.:.-.-.-.-.*.1.Y.(.Q.`.aX< q.e.z.z.f.J 9.] rXxXFXAXzXMXhXAXAXGXUXzXzXlXzXvXCXCXnXcX] 0XsX9._ x.h.+.O.3 @ q.(.(.T.T.U.T.4.<.-.6.4.Y.|.Y.T.T.!.^.].'.",
"T.U.{.T.8.4.8.<.*.=.=.-.W <.<.4.Z.2XaX> z.g.g.z.p.) X.) 9XnXnXzXlXlXnXVXkXSXSXkXGXCXDXKXDXCXvXyX[ 2.sX` h f.g.%.%.n + $.<.W (. X X X{.K.,. X|. X XY.T.Y.Y.T.'.].",
"!.L.XX{.(.4.4.3.8.7.5.5.E -.-.7.`.;XaX> h.g.h.e.o.h _ 4 ,XlXCXcXcXPXLXpX7XSXkXkXFXGXbXbXCXCXDXlX[.[ 0X` _ f.q.o.O.n +  .T T E -.T.{.~.U.{.{.Y.|..X X(.|./.T.T.'.",
"!.~.{.|.3.7.3.7.7.7.6.<.1.P.).).Q.^.aX> s.s.j.q.| J J 0XgXyXvXlXMXBXAXBXBXhXBXAXZXPXLXmXZXIXKXcXeX[ j.+.J +.+.o.a.@.+ ..} } E ~ / P.~.!.{.{.K.Y.T. X|.8.6./././.",
"T.T.|.4.8.8.4.|.8.(.|.1./.).).'.#X;X5.: d.s.g.f.+.J _ 9.CXzXzXlXMXMXMXFXAXhXBXgXuXxXvXlXzXvXcXiXqX[ f._ 4 +.&.O.a.n + ..=.=.<.( ( K.~.XX{.{.|.2.2.1.8.8.6.8. X/.",
"1.,.,.1.4.Y.U.T.;X1X%XC.@X$X:X3X>X;XH # d.d.q.q.s.4 q.J wXbXCXxXlX{.G.}.BXzXMXpXvXnXyXvXpXcXcXfX9X9X0X9.) +.d.d.D X.@ ..w.3.T.'./.P.T.XX{. X(.*.*.W *.4.|.|.). X",
"4.<.4.4.Y.T.OX2X,X:X$X$X3X3X=X=X>X;X> $ d.g.%.9.d.s g...] dXlXyXf.P ] *.c.J.8X8X9X8XH.J.8XvXbXrXG.f.j.f.h {  .n O.b + $.0.4.~.Q.).P.T. X X|.3.-.=.;.*.2.8.|.|.|.",
"'.~.L.&X1X1X*X,X$X:X#X;X:X:X#XR.-XqX@ . p.O.p.a.N 3 O.o.J _ ` ) { o.o.o.` ` ` 9.' j..X0.0.9X0X] 9.f.z.%.4 p.D O.b b   3  XR.W._._._.XXXXY.[.Y.[.=.;.} } =.-.(.Y.",
"W.V.-X;X&X1X-X,X$X:X:X#X:X*X1XE.].OX+ . p.a.X.a.N 3 ) h h , 4 _ ) ) ) { | { 9.+.` 9.0.' f.P J 0._ J o.&.4 h D S D G   + U.!.&X^.].~.oXU.Y.{.|.2.;.;.;.} *.<.|.T.",
"m.;X;X;X2X-X^.Q.+X^.2X1X:X!.&X,XXX{.+ % a.X.X.a.@.h s 3 3 3 h h n h 4 h ) K { K ` ` ` _ 9.` ' _ +.s._ X.A @.i.S b M   + 9X}.&X^.OX}.OXXXY.Y.3.-.=.;.=.R I 2. X X",
"Z.A.D.$X*X#XC.W.^.^.Q.R.L.~.~.OXOXqX+ ; a.G O.A X.n X.k.n @.k.X.%.%.%.d.p.g.s.f.x.h.f.9.j.f.9.0.f.+.s.X.a.S M k b v   + .X}.}.).}.}.}.XX).4.-.=.| } } ;.K.Y. XT.",
"~.Q.E.-X*X&XN.I.L.T.q.: . .   O .   O 5 j f i.n b M l l G n d.X.X.d.p.s.+.O.f.s.d.s.s.s.f.h.s.s.O.O.d.A N G m M S N o o + . .     + 1 qX{. X<.<.;.E W E Q / /.V.",
"T.U.W.~.1X`.N.W.I.Y.q.: X b z w 3 b d j y.f Z f f V l l M g A h l p.X.h h p.) X.p.d.X.+.O.) h s.l A A 0 a S m w 0 d d q = = $ = z % : w.).|.1.<.*.*.W ~ E / /.6.",
"T.T.,./._.V.m.A.'.(.#.@ X q w x * N j r m t.F w 0 0 r.l a d n b a s l p p p p h p.l h p l l X.l l A S S 9 - 0 9 k B i u v w m C 8 b @ e.|.(.1.Y.<.*.E 6.( ( ( ( ",
"U.,.~ / m.M.m._./.(.$.+   q r r * e V S 8 B C q V r 6 p A d M f D k p k p.h a p.p s l p r.D d d 6 g 0 9 v 9 9 B V u r V B S M Z j 0 @ w.8.(.,.1.3.~ Q /.B.( / / ",
"*.*.=.=./ 1.Y.XXP.0.$.@ o w 9 7 6 6 V 5 x e M 6 r e 6 6 u r j d f g M a g g a.g d d a M M S S s r e j j r i r 9 y y y 0 & w 9 S y.b + q.7.<./ K.<.1.2.{.4.>.R ;.",
">.*.W -.<./ ,.I.Y.8.$.+   f 9 e t.B j j B y M p 5 r r 7 r k i.0 a d 6 d s A 5 s D X.s l g 0 d d r j V V r m e 5 0 9 9 m 9 f 0 M Z & + &.-.-.<.6.1.[ 2.Y.6.-.=.} ",
"/ E E W E Q E Q 1.8. .+   0 0 r r k M j 0 0 f N x 9 9 e A l k ; S & r N M d D A D M S d g G 0 & t.i t.i 5 y r e 9 y M i 9 9 j M 0 & + #.=.=.-.-.=.=.} | | | ..5.",
"E E E ~ E E E / ~ 3. .+ o f M r Z r 9 & 0 g m m 8 F 8 9 k ; l s k 0 5 v f 0 V f V 0 d N d 0 A b t.e i t.u V r i 9 v y y e 9 r d 0 & + #.=.=.5.} ' ;.| } } { | ..",
"T T I ,.<.<.6./ ~ :.#.@ o v e e t.i e k t.x u 7 8 i B r 7 7 u c f - 9 v v y w 0 N - w 9 0 w 9 v 0 0 w 9 & & 0 ; t q t 9 r q z C w = O  ...5.w.3.=.T Y { } } { Y ",
"} R W >.^ <.~ E I =...@ + a g 0 j j 9 t 6 5 e 7 * - a - r & $ $ O % O O # # # O O O o . O O O O           O   O o   O   O O o     . . { =.9.q.7...T Y Y Y { } T ",
"=.R R W 1.*.R L T T T Y : @ + @ # + + . @ + @ + @ # + + O @ # @ @ # + + O + . + + O + + @ + + + + + + + + + # + @ @ + + @ @ + @ . + 4 q.:.w.:.:.=.T { Y Y Y | { ",
"R R =.=.2.<.L T T L T T } ..$.$.q.#.#.#.&.#.#.&.q.} | Y { %.q.q.$.$.$.$. .$. . . . .$.$.$.$.%.$...#.....&.q...#.$.$...$.$.#.q.$.@.$.5.:.2.:.:.:.#.Y Y Y Y Y Y | "
};
