/* XPM */
static char *a97f9d8f6a3340e2ea5f29bfd3419c5bqrlQuDfd8LUPlgt3[] = {
/* columns rows colors chars-per-pixel */
"80 80 256 2 ",
"   c #040301",
".  c #150402",
"X  c #1B0100",
"o  c #11170C",
"O  c #230101",
"+  c #2B0201",
"@  c #280809",
"#  c #340201",
"$  c #3B0201",
"%  c #380808",
"&  c #3A1509",
"*  c #2F1412",
"=  c #1C2D17",
"-  c #2C2A15",
";  c #353225",
":  c #440101",
">  c #4C0101",
",  c #480A03",
"<  c #580502",
"1  c #481607",
"2  c #591706",
"3  c #471715",
"4  c #561915",
"5  c #680803",
"6  c #760B02",
"7  c #661705",
"8  c #771904",
"9  c #681A17",
"0  c #751415",
"q  c #4E2B04",
"w  c #592406",
"e  c #49261B",
"r  c #54251D",
"t  c #58261C",
"y  c #5B2A1D",
"u  c #682605",
"i  c #79260A",
"p  c #64251C",
"a  c #6C241E",
"s  c #642A1E",
"d  c #6C2B1E",
"f  c #77291D",
"g  c #6B3414",
"h  c #6B1F27",
"j  c #472925",
"k  c #4C2A23",
"l  c #562725",
"z  c #542B24",
"x  c #5C2C24",
"c  c #5C2D29",
"v  c #5D3124",
"b  c #563329",
"n  c #5C322B",
"m  c #543330",
"M  c #662623",
"N  c #642C24",
"B  c #6C2C23",
"V  c #642D2A",
"C  c #6B2D2A",
"Z  c #752623",
"A  c #732C24",
"S  c #7B2D24",
"D  c #742E2A",
"F  c #7B2E2A",
"G  c #643225",
"H  c #6C3225",
"J  c #63322C",
"K  c #6C322C",
"L  c #69392B",
"P  c #743225",
"I  c #7C3225",
"U  c #74332C",
"Y  c #7C332C",
"T  c #75392B",
"R  c #7B392D",
"E  c #692E33",
"W  c #762D32",
"Q  c #653531",
"!  c #6B3432",
"~  c #653935",
"^  c #6C3A34",
"/  c #733532",
"(  c #7B3532",
")  c #733933",
"_  c #7C3A33",
"`  c #783B3A",
"'  c #344729",
"]  c #5D5617",
"[  c #6F4901",
"{  c #774236",
"}  c #573E42",
"|  c #723B42",
" . c #744343",
".. c #860803",
"X. c #970B04",
"o. c #831904",
"O. c #96180C",
"+. c #8D1A17",
"@. c #A41607",
"#. c #AF140E",
"$. c #A71914",
"%. c #872906",
"&. c #962707",
"*. c #88271C",
"=. c #8F3517",
"-. c #AF320F",
";. c #A92716",
":. c #B72719",
">. c #A91E20",
",. c #892424",
"<. c #832D25",
"1. c #8B2D25",
"2. c #832D2A",
"3. c #8A2D2B",
"4. c #952D28",
"5. c #833226",
"6. c #893625",
"7. c #84332C",
"8. c #8B342C",
"9. c #83392D",
"0. c #8C392E",
"q. c #943325",
"w. c #93342C",
"e. c #9B342D",
"r. c #933A2D",
"t. c #9B3A2D",
"y. c #8F2D30",
"u. c #843532",
"i. c #8B3532",
"p. c #833A33",
"a. c #8C3A33",
"s. c #84393A",
"d. c #8B3C39",
"f. c #943532",
"g. c #9B3532",
"h. c #933A33",
"j. c #9B3B33",
"k. c #91353A",
"l. c #943C3A",
"z. c #9D3C3A",
"x. c #A62926",
"c. c #B82B24",
"v. c #A3352B",
"b. c #BB3728",
"n. c #A33532",
"m. c #A23B33",
"M. c #AA3B37",
"N. c #A43C3A",
"B. c #B33633",
"V. c #C11A0A",
"C. c #C62619",
"Z. c #D03119",
"A. c #DA3A19",
"S. c #EE3619",
"D. c #E6391B",
"F. c #C62A25",
"G. c #C8362A",
"H. c #D6352C",
"J. c #D93928",
"K. c #C93C34",
"L. c #E73B26",
"P. c #EB3D31",
"I. c #934A0C",
"U. c #AF4816",
"Y. c #886F0A",
"T. c #B5730E",
"R. c #9A442B",
"E. c #884239",
"W. c #994238",
"Q. c #955634",
"!. c #AF4F2B",
"~. c #A44339",
"^. c #B7463A",
"/. c #966D2F",
"(. c #B56837",
"). c #D8481A",
"_. c #D45018",
"`. c #E8461B",
"'. c #EA5515",
"]. c #CE6913",
"[. c #E7721A",
"{. c #C64828",
"}. c #D84527",
"|. c #D75827",
" X c #C84836",
".X c #DA4837",
"XX c #CC5332",
"oX c #E84828",
"OX c #F6492A",
"+X c #E9572A",
"@X c #F6562B",
"#X c #E84936",
"$X c #F74A36",
"%X c #EB5737",
"&X c #F35333",
"*X c #FC5433",
"=X c #F95B34",
"-X c #F4553B",
";X c #FC543B",
":X c #F45B3C",
">X c #FD5C3B",
",X c #CF6B32",
"<X c #F16C2B",
"1X c #E96838",
"2X c #F86739",
"3X c #FC633C",
"4X c #E9763B",
"5X c #F9763B",
"6X c #9F3C40",
"7X c #894840",
"8X c #974443",
"9X c #AD4B44",
"0X c #B46B4D",
"qX c #CC4F4B",
"wX c #D55946",
"eX c #EF4C42",
"rX c #E85B45",
"tX c #FE5B43",
"yX c #FA5946",
"uX c #D16D4D",
"iX c #FD6443",
"pX c #FD6B44",
"aX c #F86548",
"sX c #FE6C4B",
"dX c #E8714C",
"fX c #FE7344",
"gX c #FE734C",
"hX c #F97948",
"jX c #FD6A54",
"kX c #FC7855",
"lX c #D07467",
"zX c #EE7969",
"xX c #B59811",
"cX c #B08E31",
"vX c #E2981F",
"bX c #F38D33",
"nX c #FBA92E",
"mX c #EED511",
"MX c #F7EB11",
"NX c #FBE91A",
"BX c #F6D32C",
"VX c #FCEA27",
"CX c #FEF32A",
"ZX c #FFF433",
"AX c #D48850",
"SX c #FA864A",
"DX c #EE8E50",
"FX c #FC8557",
"GX c #D1B448",
"HX c #F6B347",
"JX c #DF8A78",
"KX c #F78C68",
"LX c #F5D248",
"PX c #F8E94B",
"IX c #FBD06C",
"UX c #F7E56B",
/* pixels */
"e r x J T T R I I 9.Z f P I P d 8.q.h.j.q.<.S I Z A / C c n m m K U W C i.( C J J K / ( i.u.u.Y 2.f.f.4.8.2.S R 8.0.I P G B d B B C x j e k ; e v x C N e e y x ",
"l r r y H P 5.5.<.7.a.7.R R P P 5.8.1.h.0.7.0.2.S U U C V c n n V K / D W ( ! N x V ! ( F D I I i.h.w.e.i.7.S I 8.h.0.P s B B A Z U N t z k j e r x K C e r y s ",
"l x x N L 9.6.3.i.h.h.<.S Y 7.I S <.8.8.6.i.7.2.F 7.D M M x J Q n c J ! / ! ^ J c l c V ! U ( Y 8.r.f.f.5.5.I 9.5.7.F Z d P f f F 9.Y D K c t e l x V C v y B p ",
"l x N y H p.h.g.f.w.f.<.S 9.7.I Y a.7.8.i.5.i.,.2.2.W E D / G V m b J ! Q J c z c c n c ^ T Y F 8.h.j.e.I A I I S Y a.a.I I A f 0.0.i.7.) ! r l G c N V v G d p ",
"e y N A 7.a.0.0.w.w.j.e.e.8.S d Y p.p.a.Y Z i.3.e.h.i.F U D M D D / / ) U D D ( 7.2.i.d.6.f.g.f.m.g.n.e.x.q.3.2.2.2.s.s.T I r.j.n.e.w.1.u.( p s N B B a a f f P ",
"r x A Y a.a.h.h.j.w.g.j.j.r.0.9.F S 2.2.f <.8.g.j.h.7.F D A A U / _ ( Y a.7.u.l.l.i.h.l.i.8.h.8.t.z.W.v.~.~.r.0.2.i.d.u.T I 0.h.e.j.w.8.2.F I M B I a.a.F A p f ",
"N N U _ d.u.8.8.h.h.j.f.f.r.0.a.Y M Z Y <.6.W.e.j.j.5.5.i.7.F I F F 2.2.r.r.w.j.j.h.z.g.j.i.7.7.7.R.~.v.v.t.t.h.e.l.8Xs.R Y Y R r.q.j.g.<.<.0.<.1.1.0.r.8.<.f d ",
"K ) U U 9.9.8.r.8.z.j.f.h.h.r.h.I A u.i.5.r.t.m.t.R.S 9.8.7.a.0.Y 7.h.n.t.m.m.n.t.j.j.g.8.0.7.9.I E.W.n.q.t.t.t.z.l.d.s.) Y R { r.z.m.g.<.,.1.j.N.m.j.j.e.8.S d ",
"_ Y F F S 7.a.6.1.1.l.h.r.r.r.h.r.r.W.h.6.r.R.h.0.r.8.1.w.1.7.a.w.j.j.m.n.e.m.~.M.M.~.m.w.<.7.E.W.j.m.e.R.W.W.j.p.E.) ) | s.` ` d.W.6Xk.f.8.1.4.q.q.t.q.B.n.f.3.",
"9.F 7.7.I 5.0.a.6.8.h.a.r.r.r.t.r.r.R.r.0.6.5.5.I a.5.5.1.8.7.5.8.m.j.m.m.e.e.m.M.m.z.m.a.7.<.h.t.r.j.m.R.j.R.1.R _ ) ! ` ` s.E.p.a.l.y.8.8.f.e.6.q.t.t.n.4.y.3.",
"k.2.2.F I <.7.0.a.0.5.5.9.W.~.e.8.h.h.6.k.d.7.U R _ U A u.p.u.F r.t.n.m.N.z.k.h._ R P T F 7.W.z.r.q.j.r.v.r.5.H U _ K J Q / 7Xd.U U F 3.<.<.g.j.q.q.n.v.g.f.i.2.",
"f.f.7.I I 5.I 6.0.0.a.I I r.j.4.6.W.r.q.k.i.Y N L ^ V K R Y F u.t.n.m.~.N.j.h.d.L H L L P a.9XN.7.r.t.j.t.0.U L d H J n Q / E.k.U / W ( 8.<.y.t.v.x.x.4.e.4.2.5.",
"i.d.i.i.7.7.I I I 9.9.I *.r.8.6.a.W.W.h.( D U U V C Q ! D V C ) W.8Xd.E.7X .^ E n n n ~ C p.6X6Xt.h.8.0.i.i.l.6X_ I F F u.7._ U B D 2.2.F Z Z 2.4.4.e.e.f.i.U G ",
"Y F u.i.u.9.9.Y P d I I I 9.7.5.8.<.S <.u.u.p.p./ / K J ! C C ! u.u.D Y U D C Q Q J n Q D p.6Xf.h.0.9.7.2.i.l.6XE.d.u.Y 7.F I I U F 2.2.Z Z Z S 4.w.1.+.Z F B t ",
"_ P Y Y F Z D B d d B A f S S I Z <.i.8.7.u.a.i.d.R K H K G N x C K B _ R U ) ! ^ ) ^ ^ _ 7X2.2.Y Y 7.9.i.i.i.i.6.7.6.9.I 5.I 7.5.<.,.,.Z f Z Z *.8.8.,.a a t t ",
"U Y _ I A C B B H N B D B A p._ 7.2.i.8.<.0.f.e.8.I T T ^ J x n L Q ! ) U K ! ! ) ! ! / D _ F Y H U I 9.d.l.2.u.6.6.5.0.0.8.h.j.6.<.f 1.2.S Z M f 0.5.F d d p t ",
"G ^ K K Y F a N F U s y Z A Y F Z 7.8.e.i.y.k.f.y.F / _ 9.F A H H T ^ ^ G l ~ | / ! n L Q J E W 7.Y 5.7.a.a.r.e.( 5.e.e.d.r.j.j.h.*.4.e.q.*.f I f 0.<.f B s y q ",
"U U R ( u.Y B s I U s p Z D Y D Z s.7.2.2.2.3.k.i.Y Y U I Y D U A P H H J c | ` ` ) K K n J ) C I I 0.0.5.a.r.w.R 7.r.W.l.8.g.N.q.1.e.n.1.*.*.5.<.8.f ,.H d y y ",
"h.i.7.( 7.( U a B H B p a A I Y F Y Z Z a Z 8.k.2.F F F B Z Y 7.h.9.( N J Q ^ ^ Q J U D S Z 9.S P I a.r.8.r.8.5.I I 5.7.8.w.g.g.t.t.e.n.4.e.e.w.0.8.3.3.A B s t ",
"f.k.i.u.u.u.Y d N N B M Z a A D f A B W P P 8.3.Y u.u.i.D F F 7.h.h.p.N ~ c V V Q ) { E.5.9.5.R d A 8.3.h.h.6.5.5.S P I 8.r.m.n.j.t.e.n.n.n.e.e.8.1.2.3.S H H t ",
"z.h.i.0.u.U P L H B B B d M A u.5.F C ! Y Y A U i.i.i.2.2.i.<.<.y.l.h.S P d B C Q ~  .* @ - F 2.B f 7.5.5.I P H L G C ` 8.0.h.h.e.t.n.v.n.v.r.q.8.S P Y U A U a ",
"f.r.8.i._ B B U D A A B a p a Z F a M H A A Z Y y.i.i.3.d.W.l.d.g.z.i.7.P P ) L l O @ .   . W 2.9.p.7.7.S T d B N N C K 5.I 7.0.t.t.e.m.v.n.e.t.6.f A I A d A d ",
"f.8.8.8.U Z F 7.Y ( Y Y A A M a C Z Z f F Z F 2.8.2.2.i.( Y F k.j.w.f.d.6.p.J *   o ' ' ;   B 7.a.0.9.5.d U K x G G T H P I 0.r.R.m.e.t.t.t.n.m.7.S f B P P U P ",
"f.f.h.0.A 9.d.i.F F 2.F u.u.Y P C A S f k.k.i.2.i.i.3.3.T D D s.m.j.z.l.=.T 3 . = = ' ' ;   B 0.8.1.9.I B N G Q ^ K T g P T E.h.W.t.t.e.v.m.M.n.6.7.A A B U _ U ",
"M.N.f.8.7.6.2.F 7.u.f.f.7.0.9.Y F F D U W 5.7.6.t.R.P g s N c | r p 0 5 X X     = - - = ' o . * 2 3 j } } E E W E / U U R E.d.f.g.z.j.w.n.n.M.M.N.f.u.I D D A N ",
"N.8Xf.8.7.<.<.<.a.h.f.f.7.0.9.9.( F ( U D I F 0.6.9.T H m % # % O 9 e.4.& j   o - - ' =   o O , a.4 % @ # * | | V ! K P U p.k.k.f.g.8.8.f.g.N.N.k.l.p.9.Y I D D ",
"h.a.0.8.3.8.h.z.g.e.r.w.a.0.I Y U I u.u.p.p.( ( ~ m j . . @ : 8X^.qXqXqX8X, . ; ' - ' = @ # *.qXeXK. X>., % @ @ e l U U Y u.i.u.n.N.i.0.3.3.f.3.F F ( _ ( Y U I ",
"9.7.7.8.8.w.8XW.n.g.f.f.a.d.I I U D u.y.9.( E c & O O O 3 4 0 +.;.$.$...k.4 . * = ' j - & )  X:.:.X.X...5 9 % @ X O p 9.i.d.p.d.n.j.3.7.5.5.i.2.Y Y ( Y F I F U ",
"a.a.0.7.8.t.M.B.N.n.n.n.z.f.a.R 5.7.I F n J * @ $ < F.H.-XoXP.S.#XwXg.< 0 9 > : * k e 1 4 5 < 6 #.K.F.H.$XoXyX#X}.+.< $ ` s.W.t.g.y.2.2.F 2.u.u._ Y / D 2.7.Y u.",
"a.W.l.l.r.j.M.B.N.N.N.N.l.h.p.Y 7.9.Y Y K % X & 6.^.yXOXyXjXyX$XF.$.+.*.N.9Xk.W 1 1 *.0.y.,.h 0 c.K.jX$X$X;XyXyXjXrX~., < a.W.~.f.,.2.F S F 2.i.u.Y Y Y u.p.u.Y ",
"8.W.8X~.j.n.M.M.z.~.9X~.7.<.7.a.Y ( s.V O % O.G.%XFXFXFXkXKXwX{.8 ...XeX>X#XB.x.5 4.rXyXeXP.:...+.B.H.yXaX.XsXoXgXaXyXH.0 5 W.~.f.2.F 7.2.2.u.i.Y ( p.p.a.u.u.7.",
"3.j.N.N.e.e.m.n.f.j.j.f.F F 7.Y F s.! + , 7X#XjXFXFXSXpX%X%Xb.*.^.rX}.*X>XeXc...o.qXyXtXOXP.qX^.o.6 J.sXaXaXpX+X+X3XyXyXqX5 5 h.k.2.F ( 2.2.8.2.u.u.p.p.i.i.a.7.",
"2.8.r.h.e.n.n.g.0.i.8.2.y.i.6.5.) s.+ % |.hXhXhX4XSXdXkX.X@.$.eXpXgX2X@X&X#X,.0 #XaX-X3X&XtXyXeXc...#.K.pXpXpX3XfX2XoXpXOXF.6 < l.u.2.2.W Z d g a.0.a.i.u.7.p.R ",
"5.8.r.f.e.g.n.g.8.8.6.8.3.h.R.0.s.$ % Q.aXgXpX1XSXhXjXrX@.X.G.J.1X%X3XpXtX-X,.4.aXsXsX+X>XoX;XyXF.:.X.qXsX%X+X`.2XgXpX&XtXyXqX0 5 f.F 2.W A P P p.p.a.0.7.9.R R ",
"7.7.8.<.<.2.7.6.1.7.8.r.8.r.W.h.z + ;.aXhXkXhXFXkXkXjXc.X..X#X*XgXaXpX=XP.#.O.qX:X#X}.2XpX>XoX*X#XF.X.$.>X+XfXfXkXsXsX3XsX#XrX;.$ t B K C A A I 9.a.8.8.i.u.9.R ",
"9.Y F 2.S S 9.a.6.1.8.h.8.1.z.z.+ k .XkXKXdXFX1X2XaXG.X.$.G.L.*XaXkX2X>XH.V.X.qX@X3X2XgX1XgXoX`.yXH.c.+.&XoX2X2XdXkX2X+X>XaXkX%Xs.4 D C C C A S 9.0.a.0.7.A I R ",
"S Z Z 2.F A F 7.1.w.e.e.q.q.E.Z < !.5XhXdXFX1X1XL.eX$.x.S.*X%XfXpXsXjXeX.XF.X. X*X@X3XpXpX+X#XtXoX#X#XG.#. X3XgX1XaX%XkXsX:X+XoX^.< M ~ L G G v P T s.i.( A P U ",
"A a Z F D f S <.r.j.R.t.r.4.E., 1.KX4X1XdXdXgXgXL.H.c.c.L.$X=XfX1X%XsXoX#.F.#..X>X&X3XfXgX>X3X@X$X;XJ..X;.dX@XfXaXpXsXgX2X:XpX:X{...: ~ K G H B I f 2.u.U B s v ",
"U s M a d Y 8.j.W.t.m.t.t.e.R : wXKXSXSXFXkXoXtXP.H.X.K.;X+XkX1XFX1X-XA.>.@.H.yXsX3X=XoX:XiX3X`.`.oXrXqX^.M.<X5XfX2X1X5XpX3XpXgX%X:.X n N D u.i.0.a.i.F N N x y ",
"N s N N P a.z.e.*.*.e.t.q.~., a hXhXDXDXSXaXyX;XC.Z.#..X.XaXkX,X-.{.&XD.c.X.G.jXaX%X3X>X:XiX3X2X@X2X!.o.*.o.-.bXfX5X5X+X%X%X+XoX;XyXX - C Y l.N.h.h.d.F G G v r ",
"I Y 9.9.5.6.t.q.1.4.q.*.t.a.< lX|.SX1XkXKXyXL.$X:.C.F.kXJXy O % % 1 {._.K.@.>X&X@X=X=X=XhXfX5XfXAXi , $ < < > < i 0XDXkX|.A.>X&XS.#X7 % 3.k.g.z.E.0.p.Y v x l l ",
"P I 5.S f 6.r.e.z.N.1.*.8.a > lX5X5XSXFX#X$XeXP.;.G.-.-.$ 4 H u b w o.U.{.O.$XoX3XoX3XiX2X_.gXSXuX< u W.!.(.0XI 1 g i  XyXsX*X$X*X-X0X: u.8Xf.g.r.7.7.S v x c c ",
"d A 7.5.f f r.t.l.l.1.6.Y 9 t.kXgXfX2X2XL.L.eXP.2.5 < , -.!.|._.{.{.8 *.wX;.oX;X>XoX&X&X3X@X4XDXi U.].bXnXvX4X|.4.g 1 & 6 wXjXsX$X:XlX: S i.f.z.0.0.a.R 5.<.i.k.",
"s d 7.q.*.*.R.6.2.2.8.0.K 2 ^.kX+XfX+XA.>X-X#XG.2 w 1 T ,XdX<XbX<X1X(.< !.&.#XiXsX3XsX&X`.+XbX,X7 uXvXHXBXbX1X).0.{ & * 5 wXrXtX$XaXqX> Z u.1.f.0.0.I 9.r.l.k.k.",
"y g d d 5.0.0.f P f I I ! + (.dX4XSX&X;XtX.Xp & e L E.t.'.<XmXNXVXvX,X&.%.R.3X3XaXpXaXgX+X3XdXi &.4XnXmXBXnX,XXXg 1 , 8 A.L.L.*XOX;XeXO.M U D F p.p.2.F <.f.d.u.",
"s d d B 6.0.8.0.7.S I S ) # {.4XSXKXiX$XeX{.: 2 1 r { Q.'.'.BXVXVXBX].{.< Q.iX3XpXsX2XrX@XfXlX2 _.[.vXnXvX].U.< , a lXKX#X$XD.OX;XoXG.K.9 _ Y S 9.7.2.F 2.h.E.9.",
"H B D D 2.2.8.i.8.0.a.8. ., aX+X2X1X>X#X$X;X+.6 2 , 2 u ~.(.bXnXnXnX@XZ., p +XfX@XoXgXgXpXhX5., -.XX<X,X%.i u %.|.1X}.pXtXtXL.OXL.$XaX@.4 ( U Y 7.F F 2.Y d.s.D ",
"B M A F <.2.8.7.3.8.r.8.| 4 %X<XfX1XpX#XeX-X Xv.q.j.0X2 < 7 ].[.[.].).{.n 2 }.oXOXOX%X+X3X%X2 2 !.XX{.6 2 Q.=.wXsX3XOXL.yX;X$X*XOXtXjX-.4 U Y I 7.F F 7.I p._ C ",
"M V c M d B B A P ( i.k.D 7 oXtXoX3X3XOX#X>X X;.:.#X+X'.dX&.u 2 R.R.R.Q.b @ O.rX$X;XjXaX+X#X% m { V > i 4XfX.XyX*X;XaXaX%X+XS.;X&XL.:Xb.: ^ D Y I 5.7.9.u.( s.( ",
"M M M V a B B B B u.2.i.( > oX*X>X3X+XtX=X).&.U.G.jXiX'.5X4XAXU.,X5 w 2 - @ -.rX$XoX-X-X+X{.1 + $ > uXuXgX2X#.Z.A.oX}.gXjXjX$XsX%XtXrX-.$ ^ Y u.5.7.F 7.u.u.u.F ",
"l M M C d s s a f 2.S 7.( 2 }.>X>X&X-XsXdX&.$ x dXaX2XA.@X@XiX2XaXwX6 < 1 1 :.aXjX-X&XtX&XA.7 5 ..XX{.3XOX`.C.C.$XoX:XgXuX7 O.dXiXtXaX{.# n p.i.5.<.2.u.u.u.a.9.",
"y l D D d s B M Z S Z 9._ 7 &XD.>XiX:XrXdX=.$ 1 8 |.+X@X3X@X>X&X@X|.U.~.M 9 #XP.%XyX&XtX-X&X9XzXdXgXA.*X$X@XC.Z.>X-X+X1XT $ 8 AX2X:XaX&.$ L a.2.5.0.i.u.i.8.u.a.",
"z x M p C C C D D I F 8.E.< &X>XsXoXtX+X+X&., { i > Q.,X5X3XoXtXfX%XG.H.:.Z.yX$X-XiXL.yX*X@XoXA.#X;XL.tXOXOX@.}.5XFX!.2 u 2 %.AXFXjX.XG.1 L d.u.I d.f.f.i.8.8.e.",
"z x x x C M V C A D u.d.E.< oX>X#XiXoXpXSX4X2 Q.~.R.u !.|.kXiX1X=XoXJ.C.b..XyXoXiX#X*X:X`.*X*X>X$XyX;X$X`.@Xb.rX4XU.u 8 0X, &.1XgX1X1X&.4 ) u.p.I i.i.k.a.l.h.8.",
"V Q V c c l x V B P u.h.` $ C.}.tXyX}.sX5XSXf 7 |.5X|.-.7 (.kX4X=XOXOX#.#.C.%X&X>X@XoX*X;XOX3XOX=X@X<X'.<X5Xq.R.b.8 |.vX0X> hX<X>X-XzX1.e G ( Y u.l.i.3.j.l.q.W.",
"Q ~ Q b l l z n D I 5.3. .: G.}.aX#XkXjXbXbXAX7 Z.[.[.[.Q.2 8 1X@XS.Z.Z.-..X&X3X*XOX`.>X&X).2X<X2XfX'.'.<XSX< > (.vXnXbXI < |.'.@X-XqX> q v U U i.f.z.8Xz.f.<.5.",
"( ( N x V x ! C H K ^ L J 4 ^.rXL.;X>X'.<XSX4X%.U.bXBXmXGXw [ DX<X<X|.A.H.}.&X=X+X@X3X5X4X,X7 2 < JXdXSX<X=.+ GXmXVXnXbXI !.1XpX=X}.lX< M D Y Y R p.i.h.d.u.f.3.",
"u.p.U T C E ! V H G G G N r 5 rXOXoXOX@X<X<XSXU.u GXmXNXPX[ u uXpX'.+XZ.c.G.<X5X5X5X@X'.SX!.2 { 7 AX|.4X,Xi q UXCXVXvX].5 ,X3XoX>XrX8X> M / ( F _ ( u.u.( u.l.i.",
"2.5.9.p./ ) ! J J v J v E l > ~.OX>XsXtX:XgX%X+X2 /.mXNXCXBXq I dX4X,X!.=.%.i 0X<X5XSXbXbXI.T.GXg /.(.(.Y.I.PXVXnXnXQ.7 -.dX&X>XtXeX$ * W ( s.u.p._ R R ( u.d.l.",
"5.<.8.i.` W ^ J ^ L n v E m , 7.D.oXtXtXyXsXoX).Q.> xXVXmXmXI.u %.!.,X5 U.Q., q '.].5X<XAX, vXPXcXq 2 u GXGXNXmXbXI.8 !.bXhX`.`.L..XO m ( p.7.u.{ E.) R s.( u.i.",
"2.7.s.( ~ ^ L L ^ / / U E W % # -X-XS.S.D.>X`.oXU.!.I.IXmXMXVXmXBX[ - ] NXmXcX@ XX,X0XY.q ] ZXCXmXCXMXMXPXUXLXxXu i |.<XoX*X*X*XwX0 # | U U _ F ) _ s.s.U _ _ _ ",
"7.7.( ( ^ ) / R ( s.s.I Y s.^ + $.jX$XP.$X:XoX).&.dXu (.mXmXNXmXPXPXGXPXVXZXLX[ %.g u /.xXBXCXNXMXMXZXVX] [ I.I.!.uX%X5X>XOXtX#XM.> M ` _ ( 7XD K K / / ( _ _ _ ",
"S P C K / W 9.0.d.l.h.7.4.n.8X9 *.uXP.$XtXyX-XJ.&.dX%.2 ,XAXUXcXIXUXBXPXmXMXMXCXmXmXmXVXmXMXNXmXMXCXcXq 5 v.}.pXhX4X@XfXyXyXeXF.Z $ ` u.E._ / C N V V / _ _ E.s.",
"I U / ) / ( l.j.j.j.e.g.M.^.E.5.< 6 .X;XeXaXsX:X:.U.uX%.8 q.q [ [ [ ] xXMXMXMXMXVXZXVXZXMXCXNXVXNXBXq { b.$.>X@X3X<X>X2XaXjXF.@.# r ` 0.u.p.U C N V c n _ _ ` _ ",
"0.7.8.r.f.h.m.n.N.N.f.y.M.N.6.7.z > *.K.yX#X$XL.X.O.).fXq.6 8 ,XdXDX[ q vXPXBXLXUXcXq q [ Y.HXnXbX(.< ~.b.c.D.@XL.S.*XL.oXF.H # 3 ( s.s.( ( ( / J x z z G K ( ( ",
"7.1.h.W.h.j.j.N.j.z.z.g.m.z.0.7.` a 5 n..XeXyXP.;.@.A.3XdXuX,X4XSXhXAX1 I.T.T.].1 & g AX/.1 R.{.U.7 4.uX$.G.P.OXL.yXL.#XG.$.# + s.p.s.( ( ` ( / n G v x N G ` u.",
"7.h.h.W.j.f.h.r.e.f.z.h.h.h.a.a.E.p.9 > 1.uXP.Z.qXx.Z.#X%XaXgXpX+XiXwX..5 6 %.o.5 !.1XfX,X6 t w 8 ^.wXK.X.F.yXyXyXG.c.B.4 : > u.W.d.d.9.( W K V x x c N N L p.u.",
"8.0.r.r.j.j.1.7.f.h.i.8.F u.a.d.r.p.E.M # 0 K.eXc.x.#..X@X=XA.#X`.3X_.%X^.*.!.qXuXDX:XgX1Xb., ` XXdX}.@.b.rXC.#.eXb.,.5 + k s.Y i.l.a.9.d.( V c z x x N H U p.7.",
"u.u.i.l.N.f.F P 7.( U K K K ( s.d.p.E.E.Q # $ p 8XZ 0 k..XH.P.$XeXtXL.`.H.Z.:.rX:XoXtXyX+X>XyX#XyXeX+.5 ^.9X4.j.M 3 O @ y L R Y 2.Y E.p.( _ K K N N N s a D p.Y ",
"7.7.7.d.z.f.I 9.I U K ) ! C C / _ p.{ R { N t # : > : 4 ;.C.$XOXeXyXP.L.eXP.-.{.-X&XtX$XOX*X-XH.P.F.5 9 < < > > + + e m U ) K D Y F p.( s._ U B d N G N a D ( Y ",
"u.u.I Y a.I f 9.p.) U ^ ! J Q ! U P p.p.K K x r @ O . . + # 6XqXP.F.eXF.P.F...6  XeXZ.L.$XOX.X;.Z < @ . X X @ & k b ~ ! / C C ! B U p.u.R R L B H G s T U U / U ",
"2.S f B F I A a._ T ^ ^ ! ^ Q n H L P A H s x c m m j j * @ : 5 K.F.F.F.#.F.f < 5 ..:.H.Z.:.x.6 3 @ * ; * ; m c v l ) ` W E E E K U p.( Y p.B U H N y ) / U B C ",
"N N N N A I ( p./ ! n n n c n z E c c x z c N C E V z k r z e O + + X * % O . . O O X X @ @ O . & ~ ! C V G V l x V ( y.( Y N K Q Q ~ Q Y D C U / D D ( ^ c c c ",
"K N x G B P B U ) ) Q b l z c l E ~ x t z x K U E c r x t r z n J j - * o * * ; j ; - * @ * ; ; l V C / ) ! J J M M W ( ( Y U N n V c J C M H U C C C U Q L n n ",
"G x y G G N s G K U J z z z n z c Q G g 4 V N N c V t H M l y N ( W ! E n z b x ! ! c c V v v z v J ) U / / ` ) / C ` u.Y ( U N Q J x J V c Q L V N V x z b z m ",
"v v v v y G v G C K l b z n c x c V L H C C V s l N s B p M U / ( / C Q b v N r H K / ! N l l z v G ) U / D U / C C C K D D U K L c J J Q Q c J z x l l z z z k ",
"z r x B D A K T B B G y N N C N G K U ( T P P T U N s d l V D D / E x z z z b k e z v J / E c m y N E E ` W / E M C C C / C ) ! m z V c c ^ Q Q Q z e j k b l l ",
"b v V N D D N G l N x y t G U / K K U / P H U U H s p p c V C Z C J x b l k l j k r n L ! Q Q n x J V V W ` / C M V N V K ! V M n z z z z Q ^ Q n k e e j b j j ",
"x v n x C C y 4 r t t y N G _ U U B U L N K K K H N h l r x C F V V Q Q n z k z k k J L ^ ^ ~ L G J N p B K C N n x G J J Q L V z z c n Q m ~ Q Q z k ; - j k m ",
"t x x v A N t r e e q x y B U P U U C N c V Q n H B 4 l r C / F L J ! Q b b k m m m J L Q Q J V c G M d C K N V Q n n J m Q ~ ! E c m b Q Q n Q m e e j j j j l "
};
