/* XPM */
static char *_4dffb27efb7495d88107f0d7938b1e6QuUu1BnjDRPeFOcq[] = {
/* columns rows colors chars-per-pixel */
"80 80 256 2 ",
"   c #0B0100",
".  c #170401",
"X  c #171509",
"o  c #2B0000",
"O  c #240301",
"+  c #330000",
"@  c #3B0100",
"#  c #3A0A09",
"$  c #341711",
"%  c #2B3113",
"&  c #353422",
"*  c #1B2910",
"=  c #430100",
"-  c #4B0100",
";  c #450B08",
":  c #540100",
">  c #5A0100",
",  c #580B04",
"<  c #54190D",
"1  c #660602",
"2  c #780502",
"3  c #761805",
"4  c #6A170F",
"5  c #49271C",
"6  c #54251C",
"7  c #59271C",
"8  c #542909",
"9  c #64251C",
"0  c #642A1E",
"q  c #6B2A1E",
"w  c #6B251C",
"e  c #722A1E",
"r  c #78261C",
"t  c #712E04",
"y  c #4C2B23",
"u  c #482823",
"i  c #542B24",
"p  c #5C2C24",
"a  c #5C2E2A",
"s  c #562926",
"d  c #5C322C",
"f  c #583128",
"g  c #5C3633",
"h  c #642C24",
"j  c #6B2C23",
"k  c #632D2A",
"l  c #6B2E2A",
"z  c #6A2622",
"x  c #732C24",
"c  c #7B2D24",
"v  c #742E29",
"b  c #7B2E29",
"n  c #742621",
"m  c #643125",
"M  c #6C3126",
"N  c #64322C",
"B  c #6C332B",
"V  c #6C392D",
"C  c #743226",
"Z  c #7B3126",
"A  c #74332C",
"S  c #7C332C",
"D  c #7B392E",
"F  c #73382D",
"G  c #643531",
"H  c #6C3431",
"J  c #6C3934",
"K  c #683935",
"L  c #733532",
"P  c #7C3632",
"I  c #743A33",
"U  c #7C3A33",
"Y  c #7C3C39",
"T  c #763C3A",
"R  c #38441D",
"E  c #3C4D20",
"W  c #77423B",
"Q  c #7B5000",
"!  c #970902",
"~  c #8D150D",
"^  c #B61707",
"/  c #AB1107",
"(  c #883A00",
")  c #973900",
"_  c #9B2616",
"`  c #8B2913",
"'  c #B83703",
"]  c #AE2C0F",
"[  c #822D25",
"{  c #832E2A",
"}  c #8B2D26",
"|  c #962D27",
" . c #823226",
".. c #8A3326",
"X. c #83342B",
"o. c #8B342C",
"O. c #84392E",
"+. c #8C392E",
"@. c #93342D",
"#. c #9B352C",
"$. c #933A2E",
"%. c #98362A",
"&. c #833631",
"*. c #8B3631",
"=. c #843A34",
"-. c #8C3A33",
";. c #8B3D38",
":. c #843E39",
">. c #923632",
",. c #9B3632",
"<. c #933B33",
"1. c #9B3B34",
"2. c #953D39",
"3. c #9B3D3A",
"4. c #A3362C",
"5. c #A33A33",
"6. c #A33E3A",
"7. c #A73A36",
"8. c #B23328",
"9. c #931F20",
"0. c #CD2E13",
"q. c #E72A16",
"w. c #EA3A17",
"e. c #F43919",
"r. c #EB330B",
"t. c #C73927",
"y. c #D13526",
"u. c #E93A25",
"i. c #F73D25",
"p. c #E72B23",
"a. c #C51909",
"s. c #8B4500",
"d. c #944702",
"f. c #8A5800",
"g. c #985800",
"h. c #A74801",
"j. c #A65A02",
"k. c #BB5804",
"l. c #BA4907",
"z. c #9D6A00",
"x. c #956800",
"c. c #9C7602",
"v. c #8E6200",
"b. c #A66A00",
"n. c #B76802",
"m. c #A87500",
"M. c #B77601",
"N. c #BA6D14",
"B. c #89413B",
"V. c #9D413C",
"C. c #964138",
"Z. c #A44139",
"A. c #B64531",
"S. c #CB5403",
"D. c #D24E0D",
"F. c #E94718",
"G. c #F3441B",
"H. c #F64819",
"J. c #E85817",
"K. c #F75919",
"L. c #EA540B",
"P. c #D96706",
"I. c #C97706",
"U. c #DB6715",
"Y. c #D77713",
"T. c #CD6E0E",
"R. c #E96907",
"E. c #F6680C",
"W. c #F5770B",
"Q. c #EA6519",
"!. c #F86918",
"~. c #E87818",
"^. c #FD7C1B",
"/. c #F97617",
"(. c #E7750C",
"). c #D14B31",
"_. c #E8452A",
"`. c #FC4C24",
"'. c #F94728",
"]. c #E85927",
"[. c #FD5324",
"{. c #FD5C24",
"}. c #FE532C",
"|. c #FE5C2D",
" X c #F45626",
".X c #E64835",
"XX c #F74A33",
"oX c #FE5433",
"OX c #FF5C34",
"+X c #FA5839",
"@X c #E75239",
"#X c #EA6528",
"$X c #FD6B24",
"%X c #FE632C",
"&X c #FE6B2B",
"*X c #F76726",
"=X c #FE7324",
"-X c #FF742B",
";X c #FB7A27",
":X c #FD6736",
">X c #FE7838",
",X c #E97032",
"<X c #D7743B",
"1X c #A74641",
"2X c #CF4D43",
"3X c #FD5A44",
"4X c #E55245",
"5X c #FC6846",
"6X c #FD7945",
"7X c #F6754F",
"8X c #D8674F",
"9X c #A63C40",
"0X c #B88602",
"qX c #BB9802",
"wX c #AD8A03",
"eX c #C69803",
"rX c #D98715",
"tX c #D18C0B",
"yX c #F8870E",
"uX c #E98716",
"iX c #FC8B1C",
"pX c #F98518",
"aX c #E69718",
"sX c #F99619",
"dX c #ED910C",
"fX c #D0A909",
"gX c #F9A31C",
"hX c #E5B011",
"jX c #D5912A",
"kX c #FD8224",
"lX c #FD8C23",
"zX c #FB8629",
"xX c #FE9324",
"cX c #FC9926",
"vX c #FD8735",
"bX c #EF912D",
"nX c #FAA425",
"mX c #EFB42C",
"MX c #CCAC25",
"NX c #F8DC0B",
"BX c #FDDC1B",
"VX c #FAD819",
"CX c #EAC718",
"ZX c #FCE403",
"AX c #FDE30C",
"SX c #FAE707",
"DX c #FDE413",
"FX c #FEE619",
"GX c #F7E911",
"HX c #FCD926",
"JX c #F1CE2C",
"KX c #FEE426",
"LX c #FFE732",
"PX c #DDC115",
"IX c #FF854F",
"UX c #F2C84C",
/* pixels */
"5 6 p M F D O.Z  .O.c e C S C q +.o.$.$.o. .c { x v v B k a f f G H L x &.D l h h M I P =.=.=.X.[ >.>.o...X.Z O. .O.O.e 0 0 q j z z p 6 5 u u 5 f B M p 5 5 7 N ",
"i 6 6 7 j C Z  .c O.O.X.X.D S e { ....$.<.o.o.b b v v l h s g d a l L l L L F m p p k I v b b c *.>.@.@.+.X.c Z ..-.+.e q M j x x P k i i y y 5 5 7 M l i 6 7 h ",
"7 p p 0 A O.X...$.$.-.Z e X.O.Z b [ o.*.o.o.*.{ b P v z h p N G d a G H H H J N s s s k L L D X.O.<.,.@.X.Z S -.O.O.Z x x C v e  .&.P C N f 6 5 i 0 k m p p l q ",
"i p p 0 C -.-.>.@.@.+.[ c O.S  .X.*.o.X.O.X.{ { { &.v j v B M k G a k G H h k p G k k k L L A c o.@.1.@.r c  .X.c Z -.&.D C Z r o.o.-.S D B 7 6 h m h h 0 m q 9 ",
"6 7 h x S -.*.$.$.<.,.@.<.+.c c Z -.&.&.X.c ..@.>.>.O.A c A j l l F I L F C A P &.P &.*.X.-.<.+.1.1.,.#.%.@.o.[ { *.=.=.Z Z +.<.1.#.@.[ O.A 9 0 j M C q w q q x ",
"i 7 M &.-.-.+.<.<.@.1.1.,.$.o.O.A x X.X.n c o.1.,.2.X.Z c c x A A U X.S &.&.&.2.2.>.2.2.>.o.$.+.,.3.5.5.Z.5.>.$.} *.;.P D D -.@.#.#.@.@.} { A j q S O. .Z e w e ",
"p M M U -.+.+.$.<.<.1.<.@.$.+.+.S e n Z Z o.Z.%.1.$. .Z O. .Z c b b c ..+.$.@.1.1.>.3.>.<.o. . . .<.Z.5.7.#.#.,.>.2.2.:.P S D *.+.@.,.,.[ [ .. .} ..$.$.$.[ e w ",
"F I C Z X.X.o.+...<.<.$.<.<.$.<. .x O...o.$.%.C.1.1. . .+. .;.;.{ *.<.,.,.Z.5.,.,.1.6.,.o.O.O.S X.<.Z.,.%.%.V.$.2.2.;.P P L U =.2.3.1.,.} [ } ,.V.,.,.,.,.@.c e ",
"&.Z v c c ..+.+.....C.C.$.1.$.<.C.+.C.$. .C.C.$.+.<.o...o.o.*.-.>.1.3.1.5.%.5.Z.Z.Z.Z.6.$.[ X.C.V.1.5.%.Z.Z.Z.<.*.:.I T T T I :.;.V.1X@.,.} [ } $.| #.4.7.,.*.o.",
"&.Z  . .Z  .+.-.o.o.+.+.$.$.1.%.%.%.$.$.+...X.c X.-.X.{ o...O.{ o.3.5.,.7.#.%.7.5.,.3.2.2.X.Z <.1.,.1.Z.Z.C.$.X.P Y I H Y U B.:.&.=.;.o.>.*.$.%.} | ,.,.4.| | } ",
">.o.[  .c  .o.$.<.+.X. .$.C.C.%...C.$.o.<.;.&.A D Y A v S -.&.[ %.5.,.5.7.,.,.>.=.S A D C X.V.<...$.$.$.%...S j v T H B H L :.B.A S { &.{ [ >.1._ %.4.4.,.,.o.[ ",
">.*.X.c Z  .Z ..o.+.=. . .$.1.....C.<.o.+.&.A l B V l l S L S  .1.3.1.Z.3.-.2.;.C B B B A ;.1XV...$.1.$.C.+.S A j B l B M U =.=.P v b { { } } #.#.#.4.| | | o.Z ",
"*.*.-.*.o.X.Z Z Z O.-.Z r +.-.o.$.C.C.-.O.v v L h G B H B h B U C.V.;.2.B.:.L H k a d H V =.V.6.<.2.+.+.*.;.<.V.&.v A C P P &.A x v { b c e r } | #.#.| @.X.C j ",
"&.b X.*.O.X.D D C x A c Z +. .Z  .X.[  .X.&.=.=.P L B N B N k B P Y S D L l l H K G d G l &.V.>.<...o.X.c o.3.2.C.-.O. . . .Z Z Z c { c c v r [ | %.| ` r e q 9 ",
"P b b P v v x j M q x C x c c Z n b *.o.{ o.<.*.2.S M N B N k a k l l I L L I B T J J J U B.-.[ X.S X.=.O.*.*.o.X.o.X.O. . .[ X.[ [ [ c n e z n n @.} c t 9 9 7 ",
"S S P A x x j q x j j j j A U &.S X.*.o.X.o.*.$.X.A F I V M k k V F B I V M A B J H B B M I A Z C S A X.2.-.X.O.+.....+.-.o.<.<.} [ [ } } c r r c o.} c q q 0 7 ",
"M V v A P v z z v v 0 9 j c P b n b *.*.*.&.*.*.O.S S U P D l M M F I J k p T J J J N d N M x C O.S X.O.C.+.$.......@.<.-.>.1.1.<.[ } #.| r r r r +.[ e e 0 7 5 ",
"A P P P P b j z D A q 0 j v b v b =.{ { { { &.*.&.S b v b S A A x C M B G G J K T J V B N B S x x X.*.o. .+.+... ...-.V.2.o.,.7.$.| #.#.| [ [  . .+.c c e q 0 8 ",
"-.&.&.P X.&.v 0 j l h z n v b S b b n n n n &.o.{ b [ { n c c S 2.&.A h l G K V G B A v A x X.c j O.-.+. .B.o.X.Z Z  .s.o...>.,.,.<.,.4.| | #.@.@.>.} [ C q 0 7 ",
">.>.-.&.&.&.A z h l h z z z x S n v v b v b *.{ S  .o.} b c c  .<.<.=.l H k m m N T W W I Y D Z q C .. ...B.&.X.W C e Z ..$.C.<.,.1.#.4.4.4.#.#.....[ Z C e M 7 ",
"2.<.<.*.P S A A l l j j j z v P S C x C O.Z c b *.*.=.X.b *...[ ..C.$.x A h l B B J W $ O 5 B v n e X.Z X.O.A A I l l L +.+.<.<.$.5.4.5.4.5.#.@.o.c Z D Z x C w ",
"<.o.o.-.X.j j F L v x j z 9 9 j b w w q c e n { *.o.X.O.*.C.<.<.%.1.<. .A F F N y O X     . B &.O.+.&. .x Z M h h k h A S  .X.$.,.4.5.4.5.#.#.,.o.e e C e q x w ",
">.@.o.o.c x v O.P b P b b n n n x n x v n b b b X.{ [ O.P S Z +.1.>.>.;.X.D M $   X R R &   l *.-.-.O.S j M m m h V M C C Z +.$.C.1.,.#.5.4.5.,...r e C M C C C ",
"@.>.<.X.c X.;.&.b b b b { &.S v j v v b *.*.&.X.-.*.X.S C C q B.C.<.3.2.X.F 5   * * R E &   k :.O.X.P A l h B m V M F A S D C.<.1.1.1.%.5.7.7.5.@.X.Z j M F D A ",
"1.3.<.{ o.*.{ c X.*.*.*.X.*.&.D A Z x A P b O.+.<.-. .F 0 m m J 7 4 2 1 # .     * % * % R   . # 9 4 s K K g l L l A L L P ;.*.*.1.3.1.,.,.5.7.7.3.<.X.v v x C q ",
"6.6.<.X.{ { b X.>.>.2.-.O.=.-.&.S A D v v Z c O.=.S F M m @ + @ @ 4 7.| , s X X * R E %   X O - >.1 - = o ; T J k B V C S :.;.>.@.,.o.} @.#.6.6.2.>.-.&.D S C v ",
"2.<.;.*.X.o.-.<.>.@.>.>.-.+.X.Z S v &.-.P =.=.P V k i O . o - 1XA.t.4X2X9X; . & R * R % O o ` 2X2Xy.2X9.: # o O 5 i B A P &.*.*.,.6.>.o.o.} >.*.b b =.&.S S A A ",
"&.X.o.o.o.>.6.6.5.,.,.>.-.+.X.S A { &.&.=.P v l ; + o = 4 1 ~ ~ 8.a./ ! ,.4 o O % & 8 $ ; O.).] a./ / ! ~ 4 - @ o + 0 D :.&.o.2.3.,.} { { { *.X.&.b P S b b c A ",
"-.*.o.o.o.,.A.7.7.5.,.,.3.<.=.X.X.&.n v l k # @ @ 1 t.y..Xy.u.q.i.u.8.2 ~ 2 , ; $ 6 8 , 4 1 1 ! a.p.p.p.u._.3X).t._ > - P 2.2.3.>.} [ { b { *.X.=.S S v b &.S &.",
";.V.C.,.<.5.7.7.7.5.6.6.3.2.*.P &.&.P P H = + , | )._.'.OX+XoX'.p.a.! ~ 8.2X7.9., 4 ` 4.9.9.9.~ a.p.3Xi.'.'.+X'.3X.XA.1 1 -.1.Z.,.o.b b c c { &.&.A P S X.&.X.S ",
"*.3.1X3.3.5.7.7.,.6.1XZ.{ Z =.=.v Y Y h o - ~ t.).6X6X6X:X7X.Xy.! ! u.XX.Xu.8.8.2 | 4X+Xu.u.] ! / t.u.XX[.H.5XG.5XOX@Xt.~ > V.V.>.{ b { b [ o.-.X.S &.=.-.-.O.S ",
"o.>.3.6.%.%.7.,.,.>.1.>.[ b X.{ S Y l + , A..X+X6XIX>X:X+X].y.^ t.3Xw.'.+X3Xa.! ! 4XXXXX'.i._.y.~ ! u.3X|.|.|.[. X%XOX.X@X2 1 <.>.{ c &.X.{ X.X.=.&.=.*.o.&.-.O.",
"X.<.<.,.,.,.7.,.@.@.o...X.X.o. .P L @ = ).5X5X6X:X>X:X6XF./ a.XX5X:X{.[.'._./ ~ .X3X_.oX'.[.oX_.y./ ' F.-X-X>X&X-X XG.:Xu.0.! : C.O.[  .&.x x v X.-.=.-.=.=.*. .",
"{ o.@.@.@.>.3.>.o.>.X.o.} 1.C.-.P = , A.,X:X*X%XIX-X%X X' ' F.J.K.&X$X:XoX_./ _ 3X+X5X'.|.G.K.:XF.0.' #X-X!.!.L.$X>X:XH.}.+X).3 1 X.c Z v v j A =.+.o.O.X.S &.X.",
"X.X.X. .c  .*.o.o.o...$.o.$.Z.-.p + _ ,X5X:X&X>X>X>X>XD.' Q.!.!.vX;X>X$XH.a./ ). XH.w.|.:X%XK.K.K.J.' S.;X/.zXzXvXzX>X&X|.F..X8.@ w x v l l v X.-.-.-.O.O.=.B...",
"O.{ [ b c v &.-.o.} ..$.o...V.C.+ 3 ).6XIX,XIX,X*X=XU.0.S.~.W.^.iXcXzX-XK.0./ _. X[.|.>X*X>XE.K.$XE.U.k.;X/.pXiXkXvX/.Q.*XOX5X.X5., v l L l j Z O.O.-.=.Z Z Z Z ",
"b n n &.b x b o.} #.| %.....C.r > ).,X6X*XvX*X=XQ.$XS.U./.kXiXcXxXxXlXkXJ.F.' w.`.[.{.&X-X!./.;X/.=X;XY.U.~.iXxXkXzX/.kX-X%XF._.A.1 w H V M M q C C =.-.P v C F ",
"x 9 n b x x c [ ,.,.Z.$.%...C.- _ IX#X#X>X#XvX-X!.Q.U.Y.~.pXiXsXsXsXxX~.P.J.D.F.|.G.%X>XvX;XlXpX^.lX~.uXT.cXsXcXxXxXlXzX=X*X:X'.y.~ = H M 0 j l A x S Z Z l m 7 ",
"M 0 9 q x Z @.,.1.5.4.Z.%.%.=.: 8XIX7X6X>XvXJ.-X!.!.P./.xXdXnXnXnXsXiXW.P.S.Q.#X>X{.K.K./.kXlXW.iXW.sXiXuXY.sXsXcXsXlXzXvX&XOX5XXX] o g a M &.;.-.-.&.c q 0 p p ",
"M 0 q q C -.1.#.} ` | %.| C., 3 5X>X6XIX6X>X=X/.R.W.R.pXuXnXnXaXtXaXsXyX(.S.Q.-X%X!.$X=X/.iXxXsXyXcXI.M.M.n.tXsXgXcXxXuX!.=XH.'.'.4X@ < N D ;.,.2.-.;.A j m f i ",
"A c O.O.O.+.$.#.| @.} } @.+.: 8X].>X].6XIX&XQ./.R.(.W.nXnXM.v.v.x.m.uXuX(.P.kX!.$XK.!.^.xXxXxXsXsXM.c.Q v.x.v.x.m.bXmXvX~.K.&XH.r.u.3 - D ;.>.2.>.;.;.A m a s s ",
"v X...r r ..%.%.1.1.} [ O.3 : <X#X:X6X6X{.K.E./.(.rXtXI.z.c.wXfXqXb.M.tXdXP.pXE.=X!.-X^.iXyXnXnXaXc.qXHXKXLXJXqXc.m.n.rX;X=X{.[.`.'.2X: O.2.2.2.>.X.X.C l z k k ",
"w Z X. .t r $.C.1.1.o.+.F 4 A.7X7X%X{.K.K.J.!.;XI.m.z.c.qXHXDXBXHXeXm.I.aXY.pX^.=X!.!.^.iXyXgXgXm.fXCXDXGXGXDXFXVXfXc.z.k.;X>X:Xi.XX8X= Z ;.-.2.*.*.-.-. .c P &.",
"0 q X.O. .Z C.` ..[  .O.C 4 A.>X].&XH.D.%X$X=XY.b.c.wXJXBXAXAXZXAXVXfXz.tXI.pXkX;X=XzXE.yXdXgXaXz.HXGXZXZXSXZXSXHXPXc.x.h.#X XOX'.+X2X- r b { <.<.o.Z X.+.<.<.-.",
"0 j x e  .O...Z c e X.Z F @ A.7X:X>XH.K.%X#Xj.x.qXJXKXGXAXZXZXZXZXNXVXtXM.Y.lX^.;X;X=XvXyXsXgXm.fXBXAXZXZXZXSXKXJXwXg.n.U.!.F.`.e.XX_.! r C b c *.-.b c X.*.;.=.",
"0 j q e  .C. .B.Z Z Z e I @ D.].>XIX%XH.K.J.) g.0XPXVXVXDXDXNXZXZXZXDXfXb.rXxXpX;X-X$X;XW.cXbXb.BXAXSXGXAXBXCX0Xx.M.aXcX!.K.L.e.'.i.p.).4 A v b  .X.b v c 2.;.&.",
"M q x A Z  ...C.<.+.+.=.Y > ,X`.:XOX'.H.`.*Xl.j.b.b.m.m.fXHXNXNXZXZXZXBXc.M.bXzX!.K.>XzXvXxXM.x.BXSXAXBX0XM.M.M.aXaXuXvX!.!.e.e.e.'.+X! 4 =.b { X.Z A X.b ;.=.A ",
"j 0 j A Z Z  .Z  .o.o.O.U 3 @X[.:X}.:X'.[.|.#XT.Y.rXjXb.b.M.fXCXDXDXNXBXPXz.Y.!.!.K.K.$XkXuXb.MXHXFXBXc.b.tXI.cXcXxX^.!.-X%X`.}.e.+X:X] 4 P b {  .b b b X.=.F l ",
"q 0 h j n j x e Z X.o.*.X.1 _.|.G.:X`.'.G.%X#XD.P.uXiXaXgXtXM.m.eXHXKXHXUXf.k.#X{.{.:X&X!.,Xg.c.UXfXv.m.gXsXuXsXyX^.zX;X&XK.w.`.`.w.'.t.: U Z { Z  .S +.&.X.&.P ",
"0 9 9 j w q 0 q e O.&.*.X.1 _.H.}.}.'.+X X).] T.U.xXsXyXdXgXgXtXhXb.wXfXMXf.S.#X XH.[.K.!.#Xs.Q Q x.jXcXnXyXP.(.W.E.!.>X>X5X_.OX`.OX_.] = T A X.X.X.b  .*.{ P P ",
"9 9 j j j 9 h z x { c  .O.1 u.'.}.G.}.:X@X) > s.bXxXiXW.sXsXsXgXcXaXM.g.f.s.S.:X5X'._.[. XJ.h.d.d.uXuXiXyXpXR.L./.E.!.vX<X3 ) :XOXoX_.).= L &.=.O.Z b *.o.&.=.&.",
"p h j j h h h z x v n O.+.3 _.e.oXOX'. X:Xh.- t ( Y.uXiXyXsXsXsXiXpXY.Y.b.h.J.F.}.}.G.+X[.J.U.vXzXkXW.^././.L.!.^./.~.,Xs., 3 7X@X X:X) - H &.Z  .&.*.&.o.o.*.-.",
"i p h h z h l l b b c { C.1 _.oX+Xe.[.J.].) 8 jXs.t T.uXlXuX/.iXxXpXR.E.S.U.%X{.J.:XG.[.{.K.J.L.!.;XE.^./.!.D.E.;XbXI.t f.4 ( ,X6X5XF.)., U B.+.P ;.;.*.*.>.o.<.",
"s p a h h h l l v b o.<.B.1 _.i.i.+XG.%X&X~.s.UXUXmX( T.Y.vXlXpX^.E.!.L.L./.-XQ.>X$X$X&X!.!.!.;X!././.W.E./.S.#XuXk.f.UXUX( ) #X5X X@X] 4 Y C =.S &.*.*.>.2.<.@.",
"a N d k a p p k l v ..;.B.: ] i.3X'.w.|.&XzXs.mXKXHXmXj.( Y.vX;X/.E.!.D.D.L././.;X/.^.^.;XE.^.W./././.E.^.^.k.N.j.g.HXHXUX, >X*XOX].7X_ 4 G A S { ;.*.o.,.2.>.2.",
"M B N a s i s k x A c Z W - t.q.+X'.5X:X-XzXbXt HXBXBXhXm.t d././.E.L.L.D./.;XiXpXpXW.yXyXW.uXzXiXlXW.W.^.vXt 8 tXHXDXHXz., J.L.H. X).- < N D A &.;.3.3.V.>.{ { ",
"D D m p p p N k M A C C V 4 A.XXe.'.}.H.$X-X~.( hXBXBXBXJXt g.IX/./.E.E.R.(.pXpXyXiXsXgXyXsXj.j.d.cXzXcXuXk.8 JXHXAXNXHXd.l.*X%X`._.2X, n l I S &.=.*.-.;.-.o. .",
"X.O.F I M M V k m m m m p 8 2 @Xe.e.H.[.{.!.-Xk.t JXDXAXHXb.Q rXzXE.^.(.P.(.sXsXsXsXyXdXgXtXx.mXm.jXrXaXrXd.Q LXDXAXBXhX3 ,X:XH.`.+XA.: z L A P Y P  .X.X.-.;.O.",
"{ X.X.=.L L L G p p N d p 6 : 8.u.XXoX`.|.:XK.R.t eXVXAXAXHXf.b.bXzX~.Y.I.b.n.aXsXnXnXgXhXeXhXHXeXtXtXrXI.z.KXAXAXHXJXt h.#XK.`.oX@X> ; l :.U &.=.O.P &.&.&.;.-.",
"{ X.*.=.P H K G W N N N a h , | u.e.+XXXOX:XL.D.T.< CXAXZXDXMXg.g.I.rXg.tXaXb.b.dXdXgXaXhXc.NXBXfXx.v.x.mXJXDXVXHXfX( S.>X>XG.i._.).@ G L Y P &.U B.=.U &.S X.=.",
"&.&.&.I L H H J L L A L l L ; - 4Xi.p.e.r.|.H.H.' n.M.HXBXAXDXVXHXx.v.qXVXVXhXx.aXaXaXqXwXqXGXSXGXFXFXFXLXKXHXJXf.s.U.!.L.oX`.XX.X~ = W T L P v F :.U P D P U D ",
"P P P F T L H P P =.=.S &.P Y @ _ 3Xi.i.e.`.H.F.] vXt JXHXNXFXNXFXKXCXKXNXAXDXfXM.0Xc.fXfXGXSXSXSXGXFXKXeXM.M.j.T.,XQ.$X:XG.OX_.8.> e I U P :.H v A L L I Y Y U ",
"v v M M L L S O.-.2.+...o.$.2.4 9.4Xu.i.+X}.XXF.^ ,X) t mXVXLXPXJXLXHXVXSXSXNXGXNXNXNXDXSXSXSXSXGXFXfXv.( k.P.zX>X>X*X:X X`.e.0.9.= S U :.Y P l l h k L T U Y =.",
"Z S A P P &.C.3.1.1.<.,.Z.Z.1.| : ~ u.'.i.+XoX X0.D.,Xh.s.tXf.m.c.c.c.CXGXSXZXSXGXFXGXFXGXGXSXSXSXHXv.0XT.S.-X!.!.*X{.{.OX5Xu.~ - 9 O.&.:.P v l l k p N Y T P &.",
"-.X. .-.<.1.<.3.1.9X>.,.6.6.@.X.w : _ y.4Xi.i.p.^ ^ J.-Xh.( ( rXaXnXm.v.VXNXNXNXKXfXqXeXfXPXNXAXDXhXs.N.#XD.J.K.K.H.H.H.e.0.| = , Y :.=.P P P H B p i f N B Y P ",
"....<.V.,.3.1.1.,.1.3.1.3.>.-.X.U z : 8.4Xu.i.i.a.a.w.|.,X6X;X^.xXxXbXf.tXVXHXVX0Xv.0XhXfXv.hXVXCXg.k.bXD.J.K.H.H.}.e.'.y.] - @ B.&.=.P P P P H k f f i p h P =.",
"[ <.<.1.C.,.$.@.@.,.3.3.>.<.;.-.;.&.w > 9.4Xi.q.u.a.p._. X&X-X;X!.kX^.h.d.b.n.b.g.tXaXsXaXg.z.v.j.Y.,XQ.' F.:X[.[.w.0.t.~ - - P B.-.:.&.&.H H l p p f p h A =.=.",
"o.-.<.$.1.<.[ o.*.;.-.S b &.=.;.;.;.B.z @ ~ y.4Xy.^ ^ .X'.[.F.K.L.;XQ.;X~.S.T.bXbXcXiXcXpXY.d.N.,XzXU.' D.,X0.0..Xt._ > = 7 P &.*.-.;.=.:.L l a a p p h M A =.S ",
"=.-.X.<.1.o.X.Z X.&.A M B A P =.;.O.=.W A = : ~ 9X~ ~ 7._.q.'.`.|.%XK.K.K.S.U.zXkX~.pXkX/.;X;X;X-X].l.) ).).4.A.r , + @ 7 L P S b X.B.=.P Y L H h h p h w C &.P ",
"X.Z X.-.C.<.[ O.Z C V L J l l P A O.D D W N 9 @ - - = 1 _ 0.u._.u.+XH.H.K.].D.#X;X!.=X=X!.-X$X_.].D.` t < > : = o @ s G L L v A A b =.&.=.P L z j m h j j v P S ",
"X.&.c X.-. .c S :.D I J H N G H A A B.C V N k i ; o O # @ : 8.).u.q.i.q.`.w.] ] ].J.L.{.{.*X].D.h.w < o O O # # s k k H H l B M z P =.P U S A l M m h A A A L v ",
"{ v j C c Z Z :.U I H H J K G k k H M A m 7 a p g g $ 5 $ + = 2 t.y.y.0./ 8.3 3 3 _ ] ].).] l.3 , + # u $ u f f s k T L A l h k H L :.P A B.q A F 0 0 I U l k B ",
"h h h q C A S =.F V d d d d d a G a p p i p 7 m g y s u u s 7 = @ = + ; = o O O + o o + # + + o < V M m p k a i p m I &.&.P z k G H H H I C j A A M A U J k p f ",
"M h h m M q M A F I N f i i s i d N a i 7 p m V k a s p i 6 s p N 6 u $ $ $ $ u y u $ $ X $ u y 6 m M C U B N m 6 0 A P &.P L k N d h N M h M A M M l C H d f f ",
"N p 7 m m m 0 h F F N 5 i 6 f i p l m m 7 p m m k h 7 h h 7 9 l A B N d i y f a K H k a a g f i p B L U P L U F V M P Y L L L h K d a k k k N B a a k p a f f f ",
"m p p m 0 m m M h M p f p f p p 9 l V V M B M 0 h h z l 9 z v v S F m d g i f y k L L L k s s s p N L U C v L L j 0 l v H H H L G p d k a N N d a p s i i i u g ",
"i 7 7 M M M B V h M m 7 m m M l j C L V A A C M H z l z p 9 l A v l p f s f f y s i p N K g a s p d l l Y v L l h M h B L l L H N s d d a K K G N i y 5 i f s y ",
"f p h 0 l A j p p N f 7 7 M F A C C L L M C A A l 9 9 k h h j x l h p f y y y y u i p N K K G g a N k h H T L l p k h h B B H a f i i s p G J K d y u & u y y y ",
"f d m p l l 7 6 6 6 7 7 7 M F F F l L L k N B M l j 9 6 6 p x A l G G a g y y y y f V G J J H l m N h h z A h h k a a d N V N a s i s d G K G G d y y u & u y y ",
"7 i p m l l 7 6 5 5 6 p 0 M A M l l l l k N m j l h 6 6 s l A A H G l G g g f f y i d K K N B h p m h j l l j k B G a N N N J G G a g d d G f g g 5 5 5 5 u u y "
};
