/* XPM */
static char *pumpkin1[] = {
/* columns rows colors chars-per-pixel */
"80 80 254 2 ",
"   c #010101",
".  c #0B0100",
"X  c #010901",
"o  c #01020B",
"O  c #090509",
"+  c #130000",
"@  c #1C0000",
"#  c #160606",
"$  c #171502",
"%  c #000313",
"&  c #030718",
"*  c #101308",
"=  c #240100",
"-  c #2D0200",
";  c #2A0902",
":  c #320000",
">  c #380A01",
",  c #3B1302",
"<  c #231300",
"1  c #262405",
"2  c #322F07",
"3  c #1B261D",
"4  c #471607",
"5  c #581706",
"6  c #4B1106",
"7  c #651905",
"8  c #6C130C",
"9  c #4E2B0D",
"0  c #793619",
"q  c #6C2D12",
"w  c #4F3B28",
"e  c #6B3524",
"r  c #4C4D10",
"t  c #6A570D",
"y  c #707014",
"u  c #785432",
"i  c #706926",
"p  c #565823",
"a  c #833B1B",
"s  c #87310C",
"d  c #AA380C",
"f  c #8A3B26",
"g  c #954617",
"h  c #904115",
"j  c #AA4916",
"k  c #B7551B",
"l  c #AF4D16",
"z  c #857C1D",
"x  c #924B27",
"c  c #A44825",
"v  c #BA5824",
"b  c #AE5326",
"n  c #BB652C",
"m  c #BF713B",
"M  c #DD5D14",
"N  c #D65E1C",
"B  c #D55B11",
"V  c #E75D08",
"C  c #FE5E01",
"Z  c #FE5C0A",
"A  c #F35C08",
"S  c #E65A15",
"D  c #FA5C17",
"F  c #DC6709",
"G  c #D96619",
"H  c #D8780C",
"J  c #EC6406",
"K  c #ED640D",
"L  c #EC6B0C",
"P  c #E66705",
"I  c #F46402",
"U  c #FD6401",
"Y  c #F46A03",
"T  c #FB6902",
"R  c #F4650B",
"E  c #FC640B",
"W  c #F46A0B",
"Q  c #FC6B0B",
"!  c #E67404",
"~  c #F9750C",
"^  c #EC6412",
"/  c #EC6B1C",
"(  c #E86816",
")  c #FD6413",
"_  c #F36B13",
"`  c #FC6C12",
"'  c #FD6C1B",
"]  c #F56818",
"[  c #EA7618",
"{  c #FC7212",
"}  c #F4721B",
"|  c #FB721C",
" . c #F67817",
".. c #C85C27",
"X. c #CA6426",
"o. c #D76828",
"O. c #DC7227",
"+. c #D76C35",
"@. c #D77636",
"#. c #C97035",
"$. c #E96B25",
"%. c #F96D24",
"&. c #EC7222",
"*. c #EC7429",
"=. c #E57527",
"-. c #F37424",
";. c #F2742B",
":. c #FB7D2A",
">. c #F97827",
",. c #E97936",
"<. c #F37C33",
"1. c #FA7833",
"2. c #E46C39",
"3. c #B26742",
"4. c #CF7245",
"5. c #EC7945",
"6. c #7C942F",
"7. c #8F880B",
"8. c #AE8F0E",
"9. c #AEAB18",
"0. c #94912D",
"q. c #97BC3B",
"w. c #93AF2A",
"e. c #BAB529",
"r. c #AAAD33",
"t. c #D88714",
"y. c #CE8E16",
"u. c #E48A16",
"i. c #C7A11C",
"p. c #D58E28",
"a. c #FA8225",
"s. c #E48639",
"d. c #F6833A",
"f. c #FD8C3C",
"g. c #FB8737",
"h. c #F48A33",
"j. c #CAA325",
"k. c #CAB12A",
"l. c #98CC1C",
"z. c #8DC82C",
"x. c #96CB2C",
"c. c #9ACB2D",
"v. c #98C729",
"b. c #95CD34",
"n. c #9ACB34",
"m. c #9BCA3A",
"M. c #97C637",
"N. c #8ED232",
"B. c #95D235",
"V. c #93CE29",
"C. c #A5C835",
"Z. c #B5C534",
"A. c #A6CB2C",
"S. c #FDFD03",
"D. c #FCFE0B",
"F. c #F6F804",
"G. c #FEFF15",
"H. c #FFFF1D",
"J. c #F3FD18",
"K. c #F3EF0D",
"L. c #CDC931",
"P. c #E6D33A",
"I. c #DDE239",
"U. c #FEFF24",
"Y. c #FEFF2C",
"T. c #F6F72C",
"R. c #FEFE32",
"E. c #FDFF3C",
"W. c #F7FF36",
"Q. c #EBF32F",
"!. c #918C43",
"~. c #95BC49",
"^. c #9BBD5A",
"/. c #AFB246",
"(. c #AAB46A",
"). c #DB8B52",
"_. c #E68746",
"`. c #FD8D44",
"'. c #F88947",
"]. c #FE934B",
"[. c #FE9748",
"{. c #FF8B56",
"}. c #E79858",
"|. c #FF9B54",
" X c #FF9E5A",
".X c #FD9456",
"XX c #EA8D52",
"oX c #FAA355",
"OX c #F09B6A",
"+X c #DEAB78",
"@X c #FFA569",
"#X c #E9A978",
"$X c #F5B278",
"%X c #DE9E77",
"&X c #99C548",
"*X c #9FC358",
"=X c #A5C559",
"-X c #A3D043",
";X c #B7D677",
":X c #A7C668",
">X c #D0CC4C",
",X c #ECF648",
"<X c #FEFF43",
"1X c #FCFB4C",
"2X c #FFFF55",
"3X c #FFFF5C",
"4X c #F6F95C",
"5X c #EBED53",
"6X c #CEDC74",
"7X c #FAFD65",
"8X c #EABB87",
"9X c #F5B689",
"0X c #EFB893",
"qX c #DFB289",
"wX c #B9D28D",
"eX c #C8DA87",
"rX c #C5DC95",
"tX c #F7C798",
"yX c #F0C795",
"uX c #D0E79A",
"iX c #F7CDAA",
"pX c #FAD5AA",
"aX c #F8D8B8",
"sX c #F8CFB0",
"dX c #D7E9B2",
"fX c #FDE6A9",
"gX c #FDE4BA",
"hX c #E4F4BD",
"jX c #E1E9B3",
"kX c #E3E484",
"lX c #FCEACA",
"zX c #FBF8CD",
"xX c #FDECD7",
"cX c #FDFDDC",
"vX c #FBF9D7",
"bX c #EAF4D4",
"nX c #FDFCE5",
"mX c #FEFEEC",
"MX c #F8FBE5",
"NX c #EEFEFF",
"BX c #EBFAFA",
"VX c #F5F6F6",
"CX c #F6FBF5",
"ZX c #FEFEF4",
"AX c #FEF6FE",
"SX c #F5FEFE",
"DX c #FEFEFA",
"FX c #FAFEFF",
"GX c white",
"HX c #FEFEFE",
"JX c #FEFEFD",
"KX c #FEFFFE",
"LX c #F7F6F7",
"PX c #DCECD2",
/* pixels */
"GXGXGXGXGXGXGXGXGXGXGXGXGXGXLXLXLXGXGXGXGXGXGXGXGXGXGXGXGXGXGXGXGXGXGXGXGXGXGXGXGXGXGXGXGXGXGXGXGXGXGXGXGXGXGXGXGXGXGXGXGXGXGXGXGXGXJXJXCXVXGXGXGXGXGXGXGXGXGXGX",
"GXGXGXGXGXGXGXGXGXGXGXGXGXJXGXGXLXLXGXGXGXGXGXGXGXGXGXGXGXGXGXGXGXGXGXGXGXGXGXGXGXFXJXDXDXDXJXAXGXGXGXGXGXGXGXGXGXGXGXGXGXGXGXGXGXGXGXGXJXJXGXGXGXGXGXGXGXGXGXGX",
"GXGXGXGXGXGXGXGXGXGXGXGXGXGXGXGXGXFXVXJXGXJXJXGXGXGXGXGXGXGXGXGXGXGXGXGXGXGXGXGXGXJXLXZXDXZXDXDXDXGXGXGXGXGXGXGXGXGXGXGXGXGXGXGXGXGXGXGXJXGXGXGXGXGXGXGXGXGXGXGX",
"GXGXGXGXGXGXGXGXGXGXGXGXGXGXGXGXGXGXCXVXCXGXJXGXGXGXGXGXGXGXGXGXGXGXGXGXGXGXGXGXGXmXGXFXAXDXZXDXJXGXGXGXGXGXGXGXGXGXGXGXGXGXGXGXGXGXGXGXJXGXGXGXGXGXGXGXGXGXGXGX",
"GXGXGXGXGXGXGXGXGXGXGXGXGXGXGXJXJXJXJXDXVXJXGXGXGXGXGXGXGXGXGXGXGXGXGXGXGXGXGXGXGXmXJXJXbXdXdXZXJXGXGXGXGXGXGXGXGXGXGXGXGXGXGXGXGXGXGXGXGXGXGXGXGXGXGXGXGXGXGXGX",
"GXGXGXGXGXGXGXGXGXGXGXGXGXGXGXJXDXLXDXDXJXVXCXGXGXGXGXGXGXGXGXGXGXGXGXGXGXGXGXGXGXGXJXdX~.q.^.ZXFXGXGXGXGXGXGXGXGXGXGXGXGXGXGXGXGXGXGXGXGXGXGXGXGXGXGXGXGXGXGXGX",
"GXGXGXGXGXGXGXGXGXGXGXGXGXGXGXJXDXZXZXJXJXJXLXLXJXJXJXGXGXGXGXGXGXGXGXGXGXGXGXGXJXSXbX~.v.C.rXmXGXGXGXGXGXGXGXGXGXGXGXGXGXGXGXGXGXGXGXGXGXGXGXGXGXGXGXGXGXGXGXGX",
"GXGXGXGXGXGXGXGXGXGXGXGXGXGXJXDXZXDXZXDXJXJXGXCXVXJXJXGXGXGXGXGXGXGXGXGXGXGXGXGXJXMX:Xv.v.=XcXFXJXGXGXGXGXGXGXGXGXGXGXGXGXGXGXGXGXGXGXGXGXGXGXGXGXGXGXGXGXGXGXGX",
"GXGXGXGXGXGXGXGXGXGXGXGXGXGXJXJXLXPXDXDXJXJXGXGXSXVXJXGXGXGXGXGXGXJXJXGXGXGXGXJXGXwXM.V.M.dXSXLXGXGXGXGXGXGXGXGXGXGXGXGXGXGXGXGXGXGXGXGXGXGXGXGXGXGXGXGXGXGXGXGX",
"GXGXGXGXGXGXGXGXGXGXGXGXGXGXGXJXCXwX^.uXnXJXSXJXJXMXcXZXJXFXFXJXJXJXJXZXmXAXAXZXhX~.z.n.:XMXSXJXJXGXGXGXGXGXGXGXGXGXGXGXGXGXGXGXGXGXGXGXGXGXGXGXGXGXGXGXGXGXGXGX",
"GXGXGXGXGXGXGXGXGXGXGXGXGXJXJXFXCXvX^.q.~.eXvXZXAXJXCXVXVXJXJXDXZXZXJXZXGXFXSXMX=XM.n.M.uXDXGXCXDXJXGXGXGXGXGXGXGXGXGXGXGXGXGXGXGXGXGXGXGXGXGXGXGXGXGXGXGXGXGXGX",
"GXGXGXGXGXGXGXGXGXGXGXGXGXZXJXFXJXmXhXq.A.v.q.wXbXJXGXJXVXVXFXJXJXZXJXJXJXJXCX;Xc.v.n.=XvXFXJXmXZXGXGXGXGXGXJXGXGXGXGXGXGXGXGXGXGXGXGXGXGXGXGXGXGXGXGXGXGXGXGXGX",
"GXGXGXGXGXGXGXGXGXGXGXGXGXZXDXJXFXLXnXuX&Xm.x.x.&X;XhXCXJXZXVXSXGXGXJXJXCXmXuX~.v.l.m.wXDXGXJXZXDXJXJXDXJXDXJXJXGXGXGXGXGXGXGXGXGXGXGXGXGXGXGXGXGXGXGXGXGXGXGXGX",
"GXGXGXGXGXGXGXGXGXGXGXGXGXDXZXJXJXFXJXmXwX~.n.l.l.c.q.:XrXhXcXMXmXDXCXMXhX;Xq.m.c.c.m.dXDXJXJXZXZXJXJXDXJXDXDXJXGXGXGXGXGXGXGXGXGXGXGXGXGXGXGXGXGXGXGXGXGXGXGXGX",
"GXGXGXGXGXGXGXGXGXGXGXGXGXZXmXJXJXJXJXmXMXrX~.m.v.c.c.v.v.q.=X;X;XeXrX;X&XM.x.b.m.n.M.uXcXZXJXJXDXDXDXDXDXDXJXGXGXGXGXGXGXGXGXGXGXGXGXGXGXGXGXGXGXGXGXGXGXGXGXGX",
"GXGXGXGXGXGXGXGXGXGXGXGXGXGXmXZXJXJXGXJXJXmXrX~.&Xn.V.v.c.n.C.q.m.q.w.&XB.b.x.c.n.V.m.*XuXzXmXSXGXJXJXJXJXJXJXGXGXGXGXGXGXGXGXGXGXGXGXGXGXGXGXGXGXGXGXGXGXGXGXGX",
"GXGXGXGXGXGXGXGXGXGXGXGXGXJXZXZXFXFXDXDXAXJXDXdX&Xz.N.b.M.m.m.m.b.x.l.v.M.b.b.b.x.n.C.&Xq.=XwXjXbXvXMXmXnXnXmXLXGXJXGXJXJXJXDXJXGXGXGXGXGXGXGXGXGXGXGXGXGXGXGXGX",
"GXGXGXGXGXGXGXGXGXGXGXGXJXJXZXDXSXSXmXCXCXGXJXGXbX6Xn.m.B.b.c.M.b.b.c.n.v.b.m.M.B.C.m.x.V.V.z.m.M.~.*X*X:X^.wXPXDXJXAXAXJXDXZXJXGXGXGXGXJXCXGXGXGXGXGXGXGXGXGXGX",
"GXGXGXGXGXGXGXGXGXGXGXGXGXDXZXZXJXJXJXAXJXmXvXfX$XoXp.i.e.Z.Z.Z.Z.q.M.n.b.z.z.M.m.b.b.n.n.n.-X&XA.e.e.i.j.fXnXJXDXFXJXZXZXNXBXGXGXGXGXGXVXJXJXGXGXGXGXGXGXGXGXGX",
"GXGXGXGXGXGXGXGXGXGXGXGXGXDXZXAXJXFXFXGXJXyX@.S V R R ! ! H t.8.9.Z.n.M.M.N.z.c.C.V.n.e.i.t.u.H y.H ! I I G #XxXJXSXSXZXnXJXNXGXGXGXGXLXLXJXJXGXGXGXGXGXGXGXGXGX",
"GXGXGXGXGXGXGXGXGXGXGXGXGXGXDXJXGXCXGXlX_.B P W E C U U I Y H y.r.N.n.n.b.c.C.e.9.C.Z.y.P I C U U D E Z U E J O.pXLXNXCXZXJXAXGXGXGXVXCXGXGXGXGXGXGXGXGXGXGXGXGX",
"GXGXGXGXGXGXGXGXGXGXGXGXGXCXJXCXCXmXgXG I I I Q T T I P H y.i.L.c.N.N.B.C.L.j.H F 9.e.t.Y U T Y U T ~  .&.} ~ J G tXmXSXCXLXJXJXGXLXLXGXGXGXGXGXGXGXGXGXGXGXGXGX",
"GXGXGXGXGXGXGXGXGXGXGXGXGXGXSXJXmXaXX.W I U C Z Y ! u.k.k.A.A.n.c.A.Z.e.i.t.! U U i.j.F T Z D 1.X.g 9 , , 4 q b 2.+.iXZXNXNXCXJXVXCXGXGXGXGXGXGXGXGXGXGXGXGXGXGX",
"GXGXGXGXGXGXGXGXGXGXGXGXGXGXJXJXxX@.U ) ;.U U U Y ~ a.y.i.i.y.t.t.t.H ! P I T U T !  .U C >...5 .   # X         > g @.sXGXSXJXVXLXGXGXJXJXGXGXGXGXGXGXGXGXGXGXGX",
"GXGXGXGXGXGXGXGXGXGXGXGXJXSXSXnX_.J K {.1.U T T I E I L / ^ R I U T U U U U U I U I U U [ e   2 0.I.,X5Xr.1 X o   + e @.zXNXmXAXJXJXFXSXFXDXGXGXGXGXGXGXGXGXGXGX",
"GXGXGXGXGXGXGXGXGXGXGXGXmXNXSXyXP I d.@X/ I ` ;.,...v v k G [ [ h.:.U U U U Y T U E U ;.6 < r.7X5X>X!.0./.(.* % O .   h }.JXVXGXJXJXJXSXJXDXGXGXGXGXGXGXGXGXGXGX",
"GXGXGXGXGXGXGXGXGXGXGXGXZXSXnXo.K [ oX>.! ~ b 8 ; X . = 4 9 6 8 }.,.E T T U U T U ) } 8 9 4X2Xr . 9 0.9.8.p     . . O ; N tXSXJXFXJXJXJXJXJXJXGXGXGXGXGXGXGXGXGX",
"GXGXGXGXGXGXGXGXGXGXGXGXSXGX$XA I |.[.( X.7 & o 2 0.5X4X3X3X2XL.t q } _ U U U T T Q g 2 <XE.2   i <XH.H.G.<X>X*   X o   k =.ZXJXFXJXDXZXFXFXGXGXGXGXGXGXGXGXGXGX",
"GXGXGXGXGXGXGXGXGXGXGXGXJXnXG C ] @X_.k : . O 6.W.1X>Xi r p 0.Q.1X0.7 *.` U U U U  .= -XD.9.  * 2XQ.y >XD.S.U.r.    O   0 L 0XDXAXJXVXZXGXSXGXGXGXGXGXGXGXGXGXGX",
"GXGXGXGXGXGXGXGXGXGXGXGXGXyXV C 1.@Xm @     y Y.U.z     2 0.!.w 1 kXe 0 -.U U T Q k   ,XG.t o 2 2XI.X X T.U.U.4X  o .   q ~ $.zXDXLXGXZXJXJXGXGXGXGXGXGXGXGXGXGX",
"GXGXGXGXGXGXGXGXGXGXGXGXJXs.C $..X.X4   % O Q.D.L.    i W.U.U.H.T.1 X ; X.` U U ' f   ,XG.7.    0.4X6X  >XK.D.>X        h Q A 0XmXFXSXDXZXJXGXGXGXGXGXGXGXGXGXGX",
"GXGXGXGXGXJXGXGXJXJXGXGXlXG U ,.@X+.+ O O 1 W.R.i   * 1XT.y L.U.F.3X3   s | U U { 0   k.T.Q.X o       y G.F.E.t       O ..Q I ).nXNXSXZXZXJXGXGXGXGXGXGXGXGXGXGX",
"GXGXGXGXJXDXJXJXmXGXAXGXyXV U '.[.b . X o 1 U.H.i     5X2X# # ,XS.D.P.  > >.R ! E f + r 2XU.L.r 2 i L.Y.F.W.r.+ o o   > ;.U U K xXFXJXSXSXDXGXGXGXGXGXGXGXGXGXGX",
"GXGXGXGXJXZXJXJXZXCXGXGX).A J .X`.h     o   ,XG.r.    1 6X(.  L.S.S.W.3 @ -.U T D 4.+   0.R.U.Y.W.Q.J.J.R.r.  & o     m ;.Z U V qXGXDXJXSXJXGXGXGXGXGXGXGXGXGXGX",
"GXGXGXGXGXDXGXJXZXCXGXvXo.U ! @X1.c   X o   r.H.R.z .   O   t U.S.H.,XX : %.U T D >.5 .   6.,X<XJ.W.1X>Xp . O &     e $X*.U C I ).mXDXSXSXJXGXGXGXGXGXGXGXGXGXGX",
"GXGXGXGXJXDXJXJXZXSXJXaXS U [ oX] o..   %   $ E.S.H.Q.>X/.I.R.F.D.<Xy   7 %.U Y T U X.@ o   $ t y t 9 O O O 3 # . 4 ). X;.U U U o.lXDXJXGXGXGXGXGXGXGXGXGXGXGXGX",
"GXGXGXGXGXDXSXJXZXSXJX9XA C h.|.) ;.4     o   9 <XY.D.S.U.G.S.J.2Xy   . g | Z T T T *.x +       O     X X X   . 7 @.,.|.d.J U U V iXJXGXGXJXGXGXGXGXGXGXGXGXGXGX",
"GXGXGXGXGXAXSXCXAXBXJX}.Z C '.'.U ) k + . o %   < 0.5X1X3X3X5Xr.1   o , =.T Z ` _ Z T ~ b ;   % & % o o o   @ h s.] ^ ].].W C C I qXGXGXDXJXGXGXGXGXGXGXGXGXGXGX",
"GXGXGXGXGXJXSXCXDXNXZXs._ U {.`.U U :.5   O o   O   X $ 1 $ .     o = X.T U ` o.x c F ~ ] =.g 4 @ + + @ 5 c $.[ I U E '. XL C U U ).GXGXZXFXGXGXGXGXGXGXGXGXGXGX",
"GXGXGXGXJXFXSXCXDXSXnX=.R U {.'.U T I 5.4   o       o         O   = X.' U T l = .   . q 5.) T  .,.o.O.@X X^ Q T U C C g. X^ U U I @.DXSXAXJXGXGXGXGXGXGXGXGXGXGX",
"GXGXGXGXJXDXJXJXDXGXxX( I U ].d.C U U U 1.s @     O o %       + q ;.U Q U -.: o o X o   4 } U U Q U U ].'.R U U U U A ;. X} I U U o.cXSXAXGXGXGXGXGXGXGXGXGXGXGX",
"GXGXGXGXJXDXSXJXZXGXlXG I C .X<.U U I U U { G 0 > = = + = , a +.| E U U | x   o % X     @ 7 %.C U U I '..XW U U U U R *. X} T U E N zXFXAXDXGXGXGXGXGXGXGXGXGXGX",
"GXGXGXGXJXDXSXJXJXGXlXF U U ].<.U U I U U I } d.<.O.G G @X5.[ I E R E C <.> . . .   X .   . b ` U T I <.|.K U T U U I *..X_ U U U M lXJXAXJXJXGXGXGXGXGXGXGXGXGX",
"GXGXGXGXJXJXSXZXCXFXsXM I U `.<.C U Q U I =.j j } E Q &. X=.I U U U U U o..   + . o o o o   e ~ T U U *. XW U U U U E -. X} C U U S gXJXAXJXJXGXGXGXGXGXGXGXGXGX",
"GXGXGXGXGXDXJXJXDXJXsXP U A `.<.U U E U U ` l @ 5 X.} O.|./ U C U E U U k   o % o o o     . c Q U U U / |.Q U I U U U &.|.| U U C M gXJXAXJXGXGXGXGXGXGXGXGXGXGX",
"GXGXGXGXJXJXSXJXZXJXsXP U U '.'.U U Q U C U :.,   @ h s.|.A E R _ W U I [ 7 @ X @ ; 4 5 0 v %.U U U U (  X_ T I U Z U &.|.] U T C M gXDXJXJXGXGXGXGXGXGXGXGXGXGX",
"GXGXGXGXJXJXCXJXJXJXiXV U I d.`.C U U U U U ] n . o   4 XX>.^ Q U U A K T ~ G X.^ / %.%.{ T T T Q U U ^ |.{ T I U U I -.|._ U T U M gXCXAXJXGXGXGXGXGXGXGXGXGXGX",
"GXGXGXGXJXJXGXCXCXJXaXP U U *.].I U U U E U T -.7   &   @ a 5.' U U A U U L W T U U E U U U U U T I C I .X;.E U U U I } [._ U Y U G lXVXFXGXGXGXGXGXGXGXGXGXGXGX",
"GXGXGXGXGXDXAXCXJXGXlXF C I =.].W U U U E U U Q #.#   O   . - g ,.*.Q C C ] ) U T T U U U U U U I T U I ].<.R U U U U &.[.K Q U T G nXSXVXLXGXGXGXGXGXGXGXGXGXGX",
"GXGXGXGXGXGXJXSXJXGXzXF C U ( [.} U U U U U U U =.0 + . o X   . : x ,.{ U T U U ` E U U Q E _ _ Q U U U f.-.U U U C U d.'.W U U U O.ZXJXJXJXGXGXGXGXGXGXGXGXGXGX",
"GXGXGXGXJXSXJXSXJXJXvXG U U ^ f.-.Y U T T U U U _ O.: . & %       . + q v a.{ E ) E U U U U U U Q Q R ( `.<./ I U U W '.'.K U U I XXJXJXDXJXJXGXGXGXGXGXGXGXGXGX",
"GXGXGXGXGXJXJXJXLXGXnX,.I T R :.g.R T U T U U U U ' q   & O e 4         . = 0 l O./ | { T T U T C U T R f.>.T Y } Q ^ `.=.Q C U J #XJXJXDXJXJXGXGXGXGXGXGXGXGXGX",
"GXGXGXGXGXCXJXCXJXAXJX}.I U U _ [.K T U U Q U U U Q k   % : 2.x     . o   e 4 . . > 9 0 h b v n G B X..._.X...k l d W [./ Q U U P sXGXJXDXJXGXGXGXGXGXGXGXGXGXGX",
"GXGXGXGXGXJXDXDXJXSXSX#XJ U T K `.-.U U U R Q U U U &.@   3.| b     O O 4 s.n X o o     .       . .           O : j } f.^ E U I G xXJXSXZXJXGXGXGXGXGXGXGXGXGXGX",
"GXGXGXGXGXZXDXJXDXFXJXpXK U U I ;.f.U T U I E U U U *.: 4 $X{ o.+ O o   v E ;.,     . e u . O . u x + O     . 4 #.2.<.:.R U U R XXmXNXSXZXGXGXGXGXGXGXGXGXGXGXGX",
"GXGXGXGXGXDXGXJXFXDXZXnX*.Y T U _ ]._ Y U U U U E U *.8 G |.5. .6 X   5 | U | 0     6 ;.@.@   g ;.>.k ;   @ h { U _ d.` U Y J V tXJXNXJXZXJXGXGXGXGXGXGXGXGXGXGX",
"GXGXGXGXGXJXJXJXJXLXmXZX#XS T U R d.f.J U U U U U I ] S K g.'.&.0   @ X.] U Q #.= + n ` *.6 6 =.E C ' o.3.4.%.U U / g.Q U U W @.lXSXSXJXDXJXGXGXGXGXGXGXGXGXGXGX",
"GXGXGXGXJXJXJXJXGXJXZXZXlXo.U U Q ( |.' I E U U A Q U U T [  X&.+.: g *.Q U U *.s d -.I W 8 ..Q U C C ` `./ U C E %.>.T U U V 8XmXSXCXJXZXJXGXGXGXGXGXGXGXGXGXGX",
"GXGXGXGXGXJXJXJXJXJXLXDXDX%XV Z I P >.f._ R A I U U U U I L f.a.$.&.} R U C U E } ' Y T R S ' U U Y U ~ :.J T T Z :.W T U E +.nXDXJXJXDXZXCXGXGXGXGXGXGXGXGXGXGX",
"GXGXGXJXJXJXJXGXJXGXGXGXZXvX$.C Y U Z g.>.R Q U U T U U W L >.].E C U U U C U U U E U T R ) Z U I R R | | A I U ` >.I T I M 0XJXSXJXZXDXJXJXGXGXGXGXGXGXGXGXGXGX",
"GXGXGXGXJXSXJXGXGXGXJXJXLXZXpXN W U U L f.] R T T U U U L Q U .X .U U U U U U U U U U U U T U U E E D :.) Z Z C { W U U _ ).mXSXJXCXJXJXJXJXGXGXGXGXGXGXGXGXGXGX",
"GXGXGXGXJXJXJXGXGXGXSXSXSXJXmX8XS U T P P a.~ I U T U T W U U 5.oXY U U U Q U U U Y U U U T T E U T J g.U T U T T U U U o.xXSXCXZXDXJXFXJXJXGXGXGXGXGXGXGXGXGXGX",
"GXGXGXGXGXJXGXGXGXGXGXJXSXSXSXZX9XG I I Y L ' ) E U U U E E Z $.`.a.U I T U U U U Y Y U U T U U U Y ] :.K Y U T T U I G tXDXSXGXJXJXGXGXGXJXGXGXGXGXGXGXGXGXGXGX",
"GXGXGXGXGXGXGXGXGXGXGXGXJXJXSXJXmX8XG U U U Q Q U U U U U U U K } [.W Q U U U U T U U U U U U U U U ' ' Y T U U U Q G yXnXJXGXGXGXGXGXGXGXGXGXGXGXGXGXGXGXGXGXGX",
"GXGXGXGXGXGXGXGXGXGXGXGXZXAXSXSXVXnXaX5.S I T U T Y Q U U U U T J  .g.W Q I T U Q U U U U E ) ) U I Q U U U E Z I X.iXDXJXFXGXGXGXGXGXGXGXGXGXGXGXGXGXGXGXGXGXGX",
"GXGXGXGXGXGXGXGXGXGXGXGXAXGXFXVXVXCXFXnX8Xo.A U U U I U U U C E ) E { | T T U T U Y U U U Y Y W Y Y U U U U U A O.fXZXGXAXFXCXGXGXGXGXGXGXGXGXGXGXGXGXGXGXGXGXGX",
"GXGXGXGXGXGXGXGXGXJXJXJXJXFXVXZXDXDXJXNXCXlX#X$.V I Y W I T U U U U R I U U U U U Y Y Y U T U U T U U U I F ( OXxXZXCXAXAXAXSXGXGXGXGXGXGXGXGXGXGXGXGXGXGXGXGXGX",
"GXGXGXGXGXGXGXGXGXJXJXGXJXVXLXZXZXZXDXJXAXJXFXxX8Xs.F V R U T U C U I T U U U U U U U U U U U C U U A M #.+XlXJXSXSXGXZXZXDXJXGXGXGXGXGXGXGXGXGXGXGXGXGXGXGXGXGX",
"GXGXGXGXGXGXGXGXGXJXGXGXVXVXJXJXDXAXDXAXAXJXSXSXnXvXgX9X_.o.M V A ) ^ K R Y T Q T E U U ^ S ( G G O.}.sXvXmXJXNXNXFXJXJXDXZXDXJXGXGXGXGXGXGXGXGXGXGXGXGXGXGXGXGX",
"GXGXGXGXGXGXGXGXJXGXJXVXVXJXZXSXJXJXGXSXCXLXZXAXGXNXSXJXJXcXgXiX#X).<./ P V V V V P F =._.}.+XpXlXmXGXJXCXDXGXDXmXAXAXSXNXDXZXGXGXGXGXGXGXGXGXGXGXGXGXGXGXGXGXGX",
"GXGXGXGXJXJXJXJXGXGXLXLXJXJXGXGXGXJXGXJXGXGXGXGXGXGXJXJXJXGXGXGXGXGXDXDXJXZXZXZXCXDXDXDXJXDXDXZXGXGXGXGXGXGXGXJXGXGXGXJXJXGXGXGXGXGXGXGXGXGXGXGXGXGXGXGXGXGXGXGX",
"GXGXGXGXGXJXGXGXGXLXLXGXGXGXGXGXGXGXGXGXGXGXGXGXGXGXGXGXGXGXGXGXGXGXZXJXJXJXJXGXJXJXJXJXJXJXDXDXGXGXGXGXGXGXGXGXGXGXGXGXGXGXGXGXGXGXGXGXGXGXGXGXGXGXGXGXGXGXGXGX",
"GXGXGXGXGXGXGXGXVXCXGXGXGXGXGXGXGXGXGXGXGXGXGXGXGXGXGXGXGXGXGXGXGXJXDXJXJXJXJXJXJXJXJXJXJXJXJXJXGXGXGXGXGXGXGXGXGXGXGXGXGXGXGXGXGXGXGXGXGXGXGXGXGXGXGXGXGXGXGXGX",
"GXJXJXJXGXGXGXVXVXGXGXGXGXGXGXGXGXGXGXGXGXGXGXGXGXGXGXGXGXGXJXJXJXJXJXJXGXCXJXJXJXGXGXGXJXJXJXJXGXGXGXGXGXGXGXGXGXGXGXGXGXGXGXGXGXGXGXGXGXGXGXGXGXGXGXGXGXGXGXGX",
"GXJXJXJXGXGXCXLXGXGXGXGXGXGXGXGXGXGXGXGXGXGXGXGXGXGXGXGXGXGXGXGXGXGXGXJXGXGXGXJXGXGXGXGXGXGXJXGXGXGXGXGXGXGXGXGXGXGXGXGXGXGXGXGXGXGXGXGXGXGXGXGXGXGXGXGXGXGXGXGX",
"GXJXJXGXGXAXLXGXGXGXGXGXGXGXGXGXGXGXGXGXGXGXGXGXGXGXGXGXGXGXGXGXGXGXJXJXGXGXGXJXJXJXGXJXJXJXJXJXGXGXGXGXGXGXGXGXGXGXGXGXGXGXGXGXGXGXGXGXGXGXGXGXGXGXGXGXGXGXGXGX",
"GXJXGXGXLXLXGXCXGXGXGXGXGXGXGXGXGXGXGXGXGXGXGXGXGXGXGXGXGXGXGXGXGXGXJXJXJXDXDXJXJXDXJXDXJXJXJXJXGXGXGXGXGXGXGXGXGXGXGXGXGXGXGXGXGXGXGXGXGXGXGXGXGXGXGXGXGXGXGXGX",
"GXJXGXCXVXGXGXGXGXGXGXGXGXGXGXGXGXGXGXGXGXGXGXGXGXGXGXGXGXGXGXGXGXGXJXDXDXJXJXJXJXJXJXJXJXJXJXDXGXGXGXGXGXGXGXGXGXGXGXGXGXGXGXGXGXGXGXGXGXGXGXGXGXGXGXGXGXGXGXGX",
"JXGXVXLXGXGXGXGXGXGXGXGXGXGXGXGXGXGXGXGXGXGXGXGXGXGXGXGXGXGXGXGXGXGXGXGXGXGXGXGXGXGXJXJXGXGXGXGXGXGXGXGXGXGXGXGXGXGXGXGXGXGXGXGXGXGXGXGXGXGXGXGXGXGXGXGXGXGXGXGX",
"JXCXVXGXGXGXGXGXGXGXGXGXGXGXGXGXGXGXGXGXGXGXGXGXGXGXGXGXGXGXGXGXGXGXGXGXGXGXGXGXGXGXGXGXGXGXGXGXGXGXGXGXGXGXGXGXGXGXGXGXGXGXGXGXGXGXGXGXGXGXGXGXGXGXGXGXGXGXGXGX"
};
