/* XPM */
static char *_635091888882[] = {
/* columns rows colors chars-per-pixel */
"80 80 256 2 ",
"   c #0B0100",
".  c #180301",
"X  c #171508",
"o  c #230200",
"O  c #2C0000",
"+  c #2B0C03",
"@  c #330000",
"#  c #3C0100",
"$  c #330D01",
"%  c #3B0C01",
"&  c #3E0C0D",
"*  c #2D1206",
"=  c #341203",
"-  c #3B1304",
";  c #3C160B",
":  c #3C1A0C",
">  c #381708",
",  c #391913",
"<  c #2C3013",
"1  c #343222",
"2  c #1C2910",
"3  c #440200",
"4  c #4B0200",
"5  c #430C01",
"6  c #4C0A00",
"7  c #460C0B",
"8  c #540100",
"9  c #5A0200",
"0  c #530B02",
"q  c #5A0C04",
"w  c #441302",
"e  c #4B1301",
"r  c #44190C",
"t  c #471809",
"y  c #531402",
"u  c #581805",
"i  c #441C13",
"p  c #481A13",
"a  c #5C1C15",
"s  c #630100",
"d  c #680A03",
"f  c #780703",
"g  c #651704",
"h  c #771802",
"j  c #741811",
"k  c #671813",
"l  c #49251A",
"z  c #54251C",
"x  c #54291D",
"c  c #5B271B",
"v  c #51240B",
"b  c #782505",
"n  c #63251D",
"m  c #642A1E",
"M  c #6B291E",
"N  c #6A251B",
"B  c #722A1E",
"V  c #79271C",
"C  c #6C2D0D",
"Z  c #4C2B23",
"A  c #462923",
"S  c #542B24",
"D  c #5C2C24",
"F  c #542D2A",
"G  c #5C2E2A",
"H  c #582622",
"J  c #5B3127",
"K  c #5D322C",
"L  c #563228",
"P  c #5A3632",
"I  c #6C2622",
"U  c #642C24",
"Y  c #6B2C23",
"T  c #632E2A",
"R  c #6B2E2A",
"E  c #652722",
"W  c #732C24",
"Q  c #7B2D24",
"!  c #742E29",
"~  c #7B2E29",
"^  c #732622",
"/  c #643125",
"(  c #6C3126",
")  c #64322C",
"_  c #6C322C",
"`  c #6C392F",
"'  c #743226",
"]  c #7C3126",
"[  c #74332C",
"{  c #7C332C",
"}  c #7B382E",
"|  c #74392E",
" . c #653531",
".. c #6C3532",
"X. c #6C3934",
"o. c #663935",
"O. c #733532",
"+. c #7C3632",
"@. c #743933",
"#. c #7C3A33",
"$. c #7C3C39",
"%. c #733B3A",
"&. c #732F30",
"*. c #38441D",
"=. c #3C4E21",
"-. c #77423B",
";. c #850901",
":. c #960502",
">. c #8A1709",
",. c #9B1407",
"<. c #8E1916",
"1. c #A90601",
"2. c #B70901",
"3. c #A81608",
"4. c #B81508",
"5. c #B01B16",
"6. c #862705",
"7. c #962805",
"8. c #86281B",
"9. c #943619",
"0. c #922C14",
"q. c #A52708",
"w. c #B42207",
"e. c #A72616",
"r. c #B92517",
"t. c #B83719",
"y. c #A9390D",
"u. c #822D25",
"i. c #832D29",
"p. c #8B2D26",
"a. c #962D27",
"s. c #833226",
"d. c #8A3326",
"f. c #83342B",
"g. c #8B342C",
"h. c #84392E",
"j. c #8C392E",
"k. c #93352D",
"l. c #9B352C",
"z. c #933A2E",
"x. c #9B392E",
"c. c #953326",
"v. c #843631",
"b. c #8C3631",
"n. c #833A33",
"m. c #8B3A33",
"M. c #8C3D39",
"N. c #833D39",
"B. c #923632",
"V. c #9B3632",
"C. c #933B33",
"Z. c #9B3B34",
"A. c #953D39",
"S. c #9C3D3A",
"D. c #A1342D",
"F. c #A63829",
"G. c #B63728",
"H. c #A33B33",
"J. c #A33E3A",
"K. c #A83A36",
"L. c #AE2B27",
"P. c #C71708",
"I. c #D81909",
"U. c #C71C15",
"Y. c #CC1209",
"T. c #E31E13",
"R. c #C9291A",
"E. c #D72719",
"W. c #D9361B",
"Q. c #CB2A0E",
"!. c #EB360A",
"~. c #E62917",
"^. c #EC3C1B",
"/. c #E83716",
"(. c #F63818",
"). c #E8250B",
"_. c #C62C25",
"`. c #C63828",
"'. c #D93A27",
"]. c #D3312C",
"[. c #E73A27",
"{. c #F83A26",
"}. c #EE362D",
"|. c #AE4B19",
" X c #89413C",
".X c #9D413C",
"XX c #964138",
"oX c #914F2D",
"OX c #A4413A",
"+X c #B44E2D",
"@X c #A35327",
"#X c #D64C1B",
"$X c #EA4519",
"%X c #F4441C",
"&X c #F8471A",
"*X c #F7561B",
"=X c #ED4E0C",
"-X c #C94829",
";X c #D84626",
":X c #C7572B",
">X c #D7582B",
",X c #D64738",
"<X c #CD4F36",
"1X c #E94729",
"2X c #FC4423",
"3X c #FD4B24",
"4X c #FC452B",
"5X c #FD4B2B",
"6X c #F54726",
"7X c #E85727",
"8X c #FC5324",
"9X c #FD532C",
"0X c #FE5B2D",
"qX c #F75828",
"wX c #E74836",
"eX c #FE4D33",
"rX c #F74733",
"tX c #E75736",
"yX c #FF5433",
"uX c #FE5B33",
"iX c #FE533B",
"pX c #FF5C3B",
"aX c #F45735",
"sX c #D76A39",
"dX c #CF6531",
"fX c #EC642A",
"gX c #FA652A",
"hX c #E96938",
"jX c #FE6334",
"kX c #FE6B34",
"lX c #FF633B",
"zX c #FF6B3C",
"xX c #F36535",
"cX c #FF733D",
"vX c #FA7638",
"bX c #ED7435",
"nX c #A83B40",
"mX c #A74641",
"MX c #974740",
"NX c #D04D43",
"BX c #FE5B43",
"VX c #E75142",
"CX c #D56D49",
"ZX c #E86B45",
"AX c #FE6342",
"SX c #FA6A47",
"DX c #FE7444",
"FX c #FE7B45",
"GX c #FB7948",
"HX c #FD7953",
"JX c #EE7649",
"KX c #EE7F64",
"LX c #FF8234",
"PX c #FB844A",
"IX c #F78750",
"UX c #FF9564",
/* pixels */
"l z D / [ } h.] s.h.Q M ] [ ' B j.j.k.z.j.s.Q ~ W ! ! _ G K K L  .O.O.W v.{ _ U Y _ @.+.v.v.v.v.u.B.k.k.p.f.Q s.f.j.h.B Y m m Y I E H x l Z A l J / R D l l c T ",
"H S x c ( ' ] s.] h.h.f.} h.] B f.d.p.z.m.d.g.~ ~ ! ! Y E D K P G R O.R O.O.` / D D T @.! +.~ Q b.B.g.k.j.h.Q } h.j.h.B M Y ^ W W { T H L Z Z l z D ( T x x D U ",
"x D D m [ h.f.d.z.z.m.Q V } } ] Q u.g.g.g.b.v.i.~ +.! E E D ) ..K G ) ......X./ F S F T ..@.{ } g.C.B.B.s.] ] m.s.h.] W B ' ' B i.h.+.( ) D x l c D T / J D ( I ",
"S D m m ! n.m.z.c.j.B.u.] f.f.f.{ b.b.g.j.i.g.i.i.v.~ R R [ T )  .G )  .` T T D G T R T O.[ { Q g.k.Z.l.Q V f.f.Q ] m.n.{ ] ' Q j.g.b.h.} ` z z ) / U Y U U M n ",
"x x Y W { m.b.z.B.z.V.B.C.j.Q Q ] n.b.v.f.Q d.k.B.B.h.] ! ' Y ( R [ @.[ [ ! [ +.v.+.v.b.f.m.z.j.Z.V.x.l.k.k.g.i.i.v.b.+.' ] j.C.x.x.z.i.v.{ c n I ( W M M M B W ",
"S c R } m.m.j.C.C.z.Z.V.V.z.g.h.~ W +.f.^ Q g.Z.A.V.f.] Q W Y { ' #.v.+.n.h.v.A.A.B.A.A.b.z.j.z.z..XH.H.K.J.C.z.p.b.M.v.} } b.z.l.l.k.p.i.~ { M N } h.f.] B N N ",
"U U [ #.m.j.j.j.C.C.V.C.z.z.j.j.} B V ] s.g..Xc.Z.z.] ] j.f.Q ! ~ ~ Q d.k.z.k.S.V.B.S.B.C.g.f.s.f.C.OXH.H.l.x.V.B.A.A.N.{ { +.m.z.l.V.V.u.u.j.u.p.d.z.z.k.u.B M ",
"| O.' ] f.f.g.j.d.C.C.z.C.C.z.C.] ^ h.j.s.z.x.XXZ.Z.s.d.j.f.m.m.v.b.C.V.x.OXH.l.Z.Z.S.V.g.g.f.} f.z.OXH.l.l.Z.z.A.A.M.$.#.O.#.n.M.S.J.V.p.u.p.V..Xl.x.Z.V.k.Q B ",
"+.{ Q Q Q f.j.g.d.d.XXXXz.z.x.C.z.j.XXC.s.XXS.C.z.C.j.d.g.j.b.m.b.S.Z.Z.D.l.H.OXOXOXOXJ.m.u.h.XX.XS.Z.x.OXOXOXC.b.N.#.@.$.$.@.N.M.MXmXB.B.p.8.d.z.k.a.D.D.D.B.p.",
"h.Q f.f.] s.j.z.j.g.j.j.z.z.Z.z.z.c.XXz.j.d.s.Q ] m.s.i.g.s.g.i.p.J.Z.x.J.l.l.H.H.V..XA.C.s.u.m.V.V.H.Z.@XXXz.f.} $.%._ %.$.-. Xv.b.B.b.B.g.z.l.0.c.H.D.D.V.a.p.",
"B.g.u.] V s.s.C.B.j.s.f.j.XX.Xc.d.XXz.k.C.M.n.[ +.$.[ ! { m.v.u.C.H.D.H.J.H.V.C.n.{ ] { ] f..XC.g.j.V.x.k.j.{ Y [ $...) R @.M. X[ [ i.v.i.u.V.Z.a.a.D.D.D.V.b.Q ",
"B.b.s.] f.s.s.h.g.j.m.] s.z.C.c.d.XXz.g.j.v.' R _ ..R R O.{ { ] S.H.Z..XA.B.A.n.[ _ ) ` [  XmX.Xd.z.z.C.V.j.{ ! Y R R _ _ #.m.n.+.! ~ i.g.u.p.k.l.l.D.a.a.b.g.] ",
"b.b.b.b.j.f.] ] ] } m.] Q j.m.d.j.XXXXm.h.! ' O.T _ _ .._ R R #.XX.XM.XX XN.O.&.T T )  ._ n..XJ.C.z.C.j.b.b.C.MXv.~ ' ' +.h.} ! ! ! f.i.u.^ V p.a.c.l.a.k.d.' W ",
"v.Q f.m.h.f.{ } ' W { ] Q j.f.Q s.f.s.s.f.v.N.n.#.O._ ) _ ) / _ +.n.{ [ [ R R .. . .K ) ( n..XB.C.j.f.f.i.g.A.S.XXm.n.] ] f.] Q ] Q u.Q W ^ V u.a.l.a.8.V B Y c ",
"h.~ ~ +.' ! ' Y Y M W W W Q Q ] ^ u.b.g.i.g.b.b.M.#.( / ) ) T G T R W #.O.O.O._ X.X.-.` #. Xv.Q } { f.h.v.b.j.j.f.v.f.j.u.f.s.s.f.Q u.Q ^ ^ B ^ Q k.g.V C n c c ",
"[ +.+.' W W I M W Y Y Y R ' #.n.+.i.b.g.i.j.z.z.f.] ` @.| R G T _ X.` @.` _ | _ @.X.) ) _ #.] { ! { ~ h.C.M.s.f.g.j.d.j.m.d.C.A.p.u.8.p.p.Q B V ^ g.p.Q N M m c ",
"R | [ ' +.! E E [ [ m n Y Q +.~ ^ ~ b.B.b.b.b.b.v.~ +.#.} { R _ ` ' ` @.R G X.X.X.X.) ) ) ( Y ] h.~ f.f.j.j.C.d.d.d.c.C.j.z.V.S.C.8.p.k.k.8.V Q V g.Q V B m c v ",
"O.[ +.+.+.~ Y I { { U n Y ~ ~ ! ! b.v.i.~ i.b.i.v.+.~ ! Q } ' [ W ' ( )  .) %.@.%.X. .` ) ` } W W h.m.b.d.j.z.j.s.h.z.XXC.j.V.H.V.p.l.V.p.8.u.d.s.g.Q Q W m m x ",
"b.v.v.+.v.f.~ m I ( Y E I Q ~ { ~ i.^ ^ B ^ f.b.f.~ ~ i.Q ^ ] s.C.n.[ U )  .X. ._ _ [ R ' W f.B ^ h.m.j.s. Xh.s.] ] s.f.j.d.k.Z.x.x.Z.D.a.a.c.z.z.j.u.u.Q M ( v ",
"B.B.m.v.v.n.{ E U R Y E E I W { W W ^ &.~ Q v.f.i.i.g.g.Q Q Q s.C.C.n.R ..T / / ) %.$.-.@.$.f.} M W h.s.j.m.h.{ } ' ' ] d.z.XXx.Z.Z.l.D.D.K.V.a.g.d.u.f.W B ( c ",
"V.A.C.v.{ { [ [ R R I Y R I W v.} Q Y ' } ] Q ~ b.b.m.f.~ b.d.8.p.XXz.' ` U Y _ _ X.-., * , | ! W B f.Q f.h.] ' @.Y Y O.m.m.C.z.Z.x.D.K.D.H.l.z.d.Q ] } ] ' ' M ",
"C.j.g.m.h.Y Y [ [ ! ( Y I n n Y ~ N N B Q V ^ v.f.g.s.v.b.A.A.C.x.x.b.f.] ( @.) Z + X     . _ +.h.h.h.s.B ' ( Y U T ) [ { Q s.z.V.H.D.H.H.D.l.Z.g.V M ] ' M W M ",
"B.g.g.g.] ^ ! v.+.{ v.~ Q ^ I ^ ^ W W ! ~ ~ ~ ~ f.i.i.h.v.+.] j.Z.B.B.m.f. X) >   X *.*.1   R b.m.j.h.f.B ( ( U U _ ' ' ' ] j.C.Z.Z.x.l.D.H.D.Z.d.Q B W Y ( ' ' ",
"k.B.C.f.Q h.m.v.~ ~ ~ ~ ~ v.{ ! I ! ^ ~ v.b.v.i.j.h.f.f.' R Y #.XXC.S.A.n.| ,   2 2 *.=.1   T v.h.f.} [ _ U ) ) ` _ [ ' ' h.A.A.Z.Z.V.c.H.H.K.S.g.s.Q Y Y } } [ ",
"H.S.C.i.f.b.i.Q h.b.b.b.v.b.v.{ { [ W ' { ~ v.m.j.m.s.' M / / %.c k j s & .     2 *.2 < *.  . & a a H o. .P  .&.! | [ [ +.M.M.b.V.S.S.l.l.Z.K.K.S.A.v.' ! R ( I ",
"J..XC.f.i.i.i.f.b.B.B.b.f.j.m.n.{ ' +.' ' { Q j.h.{ | ( D $ @ # @ j L.a.8 F . X 2 *.=.2   X O 3 V.d 4 @ @ p %.o.T ) ( ` { N.N.B.B.V.k.g.a.V.K.J.B.B.n.v.} { ' [ ",
"B.M.B.b.d.g.C.S.V.B.V.b.b.n.f.] ] ! n.n.+.n.n.+.` / S o o O 3 mX+XNX,XNXnX7 . 1 1 < *.< o @ <.NX,X].,Xa.8 & O + A S _ ' { b.B.b.V.S.B.k.g.p.B.b.i.~ v.v.] f.{ ' ",
"v.f.g.b.g.z..XK.V.V.V.C.B.h.h.{ ~ f.v.v.n.+.[ I 7 @ @ # k j f 3.U.5.4.:.a.k O * < *.l > w h.<X5.U.2.1.1.;.j 8 # @ @ M } N.v.b.A.S.V.p.s.i.f.b.f.v.{ +.{ ~ ~ Q ~ ",
"M.m.b.g.g.V.OXK.K.H.V.V.S.Z.n.h.v.v.W W R R & @ # s `.'.wX;X[.E.}.}.r.f <.f s 7 ; Z v q k s d :.Y.}.T.}.[.'.SX,X,X<.9 3 v.M.Z.Z.l.p.i.~ ~ f.f.v.v.{ { ! ~ v.} +.",
"m..XA.C.V.H.K.K.K.H.J.J.A.C.b.{ v.{ +.+.R # @ q l.-X1X4X9XiXeX4X].4.,.,.L.NXK.<.q u 8.F.a.<.<.,.U.].BX{.2X4XiX6XBX,X<X9 k g.S.H.B.i.i.~ Q ~ i.f.+.{ { { f.v.f.{ ",
"j.S..XOX.XZ.K.K.H.J.mXJ.f.i.n.n.~ #.$.T O 4 >.`.>XSXPXGXlXHXwX].1.:.'.aXrX[.L.L.f a.VXaX}.}.5.:.,.].}.eX9X%XpX$XzXuXaX`.>.9 .X.XC.i.i.~ u.i.b.b.f.{ n.n.b.b.h.] ",
"g.V.J.S.l.l.H.l.B.B.Z.C.i.Q h.~ +.$.R @ 9 +XwXpXHXGXDXjXaX7XW.4.`.BX^.3XiXBXU.:.:.VXrXyX2X{.wX'.:.:.W.BXyXuXuX3X*XuXiXrXNX;.s C.B.i.Q v.f.i.f.f.v.n.v.m.j.n.m.h.",
"i.B.C.V.l.V.J.V.B.k.j.s.p.j.d.] #.$.# 4 <XxXAXcXvXcXzXSX1X2.P.wXBXAXqX9X2X}.e.;.,XiXrXuX%XyXiX1X_.:.P.E.uXlXjXqXkXqX$XlX/.R.f s A.v.u.f.f.^ ^ ' h.m.m.v.v.v.m.f.",
"i.g.z.j.k.B.S.B.g.b.d.g.i.A.A.m.#.# 9 +XtXkXkXgXFXkXlXrX2.2.E.^.6XuX0XjXiXrXe.5.BXpXAX%X0X$X4XiXE.U.1.1XlX3X*X$XqXkXuX3X5XpX,X>.d f.] ] ! [ Y ! n.m.b.h.f.} n.f.",
"f.g.g.s.Q f.b.g.g.p.d.z.j.z..Xm.H @ 7.ZXxXFXkXPXcXFXBXQ.1.[.{.%XjXjXjX9X{.Y.:.NXyX2X/.0XAX6X(.2X{.T.1.P.eX6XDXjXDXjXcXgX0X6XwXe.# N ^ R R R ! f.m.m.j.h.h.h. Xd.",
"v.~ u.Q ! Q v.b.g.a.d.k.j.p.XX.X@ C >XcXIXxXGXxX7XqXW.1.4.[.^.&XuXGXqXyX~.Y.1.wX5X8X0XzXqXDX&X(.4X}.R.1.6X^.9XjXxXDX7X&X0XpXSXVXH.q ! R O.R Y { h.h.m.n.] Q ] } ",
"~ ^ Q i.~ W ~ g.p.l.c.l.z.d.C.V 9 :XxXGXjXGXjX9X(.4X4.U.}.eX2XAXjXuXlX9X}.E.2.[.3X8X0XjXjX&X&XyX(.}.rXE.4.1X0XlX0XuX7XzXlXuX6X'.`.s Y ..` ( Y Y ! { n.n.h.! ( [ ",
"W N I ~ ~ W Q i.B.V.H.x.c.d..X4 0.HXfX0XcXaXDXpX~.~.E.E.{.^.8XjX0XqXuX^.Y.E.P./.9X&X0XjXzX0XjX&X5X4X^.[.w.aX7XzX0XgXzXcXaX0XpX9X;X;.3 X._ n ( ( [ W { ] ' R U m ",
"( m n Y Y ] j.V.Z.x.OXF.l.k.m.8 sXIXPXcXDXDX[.BX{.}.2.~.3X%XzXqXDXqX5X~.U.2.[.6XAX5X8X$X8X0X0X!.&X^.qX>X`.t.7XgXcXjXqXkXjX0X0XSXrXe.O K G ( v.m.m.n.b.! M m J D ",
"( m M M ~ m.V.c.a.p.c.c.9..X0 j ZXcXFXFXDXuX4X{.T.T.Y.[.1XxXZXhXy.-XrX(.U.1.E.BX9X9X0X0X*X0X0X0X$XjXt.>.0.6.|.bXhXxXzX=X8X3X%X%X5XVX# l Y } C.A.C.m.M.{ I / J S ",
"] ] h.j.h.j.x.c.a.a.g.8.z.d.8 CX>XDXfXFXHX9X~.{.T.I.E.AXKXh # % 5 d -X1X[.2.iX%X3X*X3X9XkXkXjXjXhX7.0 @ % w 5 y b sXDXkX$X!.iX%X!.[.h 4 +.M.C.A.A.B.m.{ / G G H ",
"W } s.V V d.c.x.Z.Z.p.u.j.C 4 CXxXkXcXFX6X6X(.{.R.`.G.F.3 t i * r v h `.;X4.{.(.0X&XjX0XqX$XkXPXsXy v , = * + = e g 6.+X7XlX5X5X3X1XNX8 j.M.A.B.b.f.{ ' Y E T T ",
"N Q f.s.V Q oXz.Z.S.d.j.] g F.HXcXkX8XqX(./.4X[.e.s 0 5 w - = ; = t u 6.>XP.^.9X3X%X3X3X0XqXgXLXb e % , : = + = $ 5 w g ;.tXAXpX{.rXCX3 ~ m.b.A.b.j.m.n.} Q ~ v.",
"n Y f.h.Q d.d.d.u.s.f.j.' g <XGX7XgX&X!.iX4XwXG.q 5 % = = > r r r w t y G.w.6X9XlX9XzX%X=X*XvXdX0 - p , i , = = = = r 4 f tX1XuX{.BXVX9 V +.i.C.B.b.] f.z.C.A.M.",
"m Y Y W s.oXd.Q Q B f.] ' 3 :XvXxXzX8X8XyX;X>.6 5 $ $ = = : i ; ; r r n 8.t.0X8X0XpXuXlX*XgXbXh e ; ; ; i ; = = ; r 3 >.`././.2X2XeX[.;.V R ~ Q j.m.~ Q f.j.m.v.",
"m Y M ^ s.j.j.s.] ] Q B O.3 +XtXDXUX0X$X5XW.8 u e w % % > = - i ; i p u 0 +XxX8XuXlXuXuX$XkXCXg e w i i ; - % w 3 b CXHX^.%X).(.4X(.'.,Xj | { Q i.f.~ ! i.M. Xv.",
"( M W { f.s.d. Xm.j.j. X$.9 hXqXjXgX3X%X2XrX,.f d 8 4 w = = ; i i r r 7 5 b 7XjX3X2XAXAXkXxX9.y t : , = - # 0 b <XxX/.AX5XeX(.(.~.4XaX3.k } ~ i.f.~ { ] i.M.N.| ",
"Y m Y ' ! ] s.] s.d.j.j.n.d 7X9XlXqXlX%X3X4XwXr.e.L.CXd 6 e w w t l r r ; u ;X^.(.2X6XqX0X>Xg e $ ; $ 5 e 6.7.tXjX9X2X/.iX5X4XeX(.pXAXq.g { ~ u.f.~ ~ { ~ m.[ ( ",
"M n U R E ^ ' B Q h.g.b.{ d 1X0X6XjX9X^.$XyX'.r.P.1X*X;XhX7.u y w w r r , 4 7.1X3X5XuXuX4X;Xg : = - 4 b sXxX7XyX2X&XiXiX6X^./.3X2X/.6XG.0 @.~ ~ Q s.f.n.f.f.+.O.",
"n n n M M Y m M V f.v.g.f.s 1X2X9X9X%XjX8X;Xq._.W.uX0X=XgXgXJX|.+X0 6 t l 6 e.1X6X^.eX5X4X;Xq % % 4 CXhXcX0XP.I.!.(.$XSXAXAX1XlX3XuX6Xt.3 @.[ h.h.s.Q f.b.v.v.+.",
"n m Y Y I m U E Y } Q f.h.s [.3X9X%X9XlXtX7.8 b ZXjX*X!.&XqXaXgXvXtX>.8 0 q r.yXSXeX6XeX(.'.f s f -XW.uX%X2XI.T.2X!.9XxXCXf q.xXuXyX7X-X3 ..{ h.f.s.i.v.g.i.b.v.",
"D U Y ( Y m U E W Q Q f.j.h 1X(.yXuX6XqXSX7.# y h -X7X*XqX*X8X8X&X%XR.,X>.>.1X[.eXeX{.BX5X3X;XSXSXiX!.3X2X2XT.~.9XqX7XZX0.8 h bXaXqXaXq.4 O.v.f.] v.b.h.b.g.b.m.",
"H H U U U E R ! ~ ~ Q s.XXd 1XeXiX^.0X$X>Xd 3 r 5 4 +X7XgXgX$X8XzX2X~.E.4.R.pX4X{.iX{.2X9X2X^./.^.yX(.5X&X&XY.^.kXbX+Xg v y 7.bXHXlX1X-X9 O.m.n.{ M.M.b.b.B.j.b.",
"S D G E T Y R R ! ~ g.C. Xs ;X2X6XyX%XgXvX6.% i * $ 4 +X:XkXzX0X8X%X(.).T.4XyX(.BXrX4X9X(.&X2X9X&X3X&X&X!.*XQ.tXbX|.0 5 t 6 6.fXzXqXtXq.k %.{ m.+.v.b.b.B.A.C.B.",
") K / G T D G G R ! i.M.N.8 R.^.pX3X/.gXvXdX5 = $ $ $ y g :XvXqX0X2X{.I.Y.Q.6X4XiX(.{.3X9X(.8X&X*X*X*X=XgXgXy.|.C w % - - 5 bXgX0X1XSX0.k X.| { f.b.b.g.B.S.b.A.",
"_ _ ) K H H S T Y { Q f.-.4 `./.yX%XDXgXvXIXu + = ; + $ v u 6.fX8X!.).).P.6X5X0X&X3X!.3X&X$XqXxXqXzX*X=X*XvX9 5 v = = = - 4 7X=X%XaX-X4 a ) O.{ v.B.S..X.XB.i.s.",
"{ } / G D D ) U _ ` ' ' ` g +XrX/.4X0X&XgXFXb - - $ = $ $ w b IX*X*X%X!.~.W.&X*X=X=X*XLXgXfXd h s PXkXGXgX7.3 - w > = $ e @XtXgX3XW.VX9 I R [ [ n.n.b.b.C.b.h.i.",
"h.h.[ | ( _ ..T U / / / D c f tX[.(.%X8XqXfXJXg 5 $ = : = > w dXfX=X8X$XQ.#X7XkXgXgX*X=XLX|.e e u CX:XJX:Xh e l r - $ - 0 sXjX(.5XaXmXq I O.+.+.#.+.f.f.f.m.M.j.",
"f.f.h.v.+...X.) / G / J F a 8 L.6X4XiX3XqXkX7Xq.6 $ + = : w e 9.JXfX7X#Xy.6.6.sXfXLXLXLXLXg w $ v oX+XdX+Xv t r = - % 8 |.fX8X3XeXwX8 7 &.N.$.v.N.} } h.+.v.M.m.",
"i.i.m.n.O.O.X. .X.` ) / K R 0 a.[.(.9XyXgXjX=X#Xb % = * ; ; t C 6.+XsX9 g g 6 h #X#XfXLX@X= - v w v g u u z - - % 3 0 |.DXkX(.(.[.,X@  .%.+.+.+. Xn.n.+.n.+.v.n.",
"v.v.#.#.&.....X.O.O.[ O.R ..7 4 NX5X~.(.!.0X$X$Xy.C $ + > - - t v u 5 % 5 w v # :XdXsX9.5 - p p t t e p r - 5 5 u q :XfX#X9X3X6X'.<.3 -.@.O.#.! [ $.#.} +.#.+.{ ",
"+.+.O.O.%.O...#.+.v.N.{ v.+.$.# e.AX4X(.{.4X&X/.3.CXw = = ; ; - t ; = = ; p i c b 9.u e - l , : r ; - r e y V 9.+XhX7XlXyX(.eX1XG.9 ^ @.#.$.$.[ [ [ [ O.@.#.N.#.",
"! W ( _ O.+.} h.b.A.j.d.g.C.C.j <.VX{.{.BXeX5X$Xw.hX6.5 w - : v t - - : , i l t u v w - t ; - > ; = > w 4 F.-XzXfXvXqXpXeXrX{.R.<.3 #.+.N.$.O.R R T T @.$.$.$.n.",
"{ { { +.+.v.C.XXZ.S.V.Z.OXOXx.d.8 >.[.{.{.BXyX5Xw.`.hX7.u e w ' 9.C v = : i ; p p t t t p ; > - > - - a 7.w.uX*X8X*X9XeXiXBX'.:.4 n } v.N.$.! R R / H / @.$.+.n.",
"j.f.s.m.C.A.Z.Z.S.J.V.a.J.J.j.s.N 8 e.].rX{.{.}.2.2.$XxX9.h f dXbXIXC = = l i i i t u g e v : = r - 6 9.`.R./.{.(.(.{.{.{.E.a.3 0 #.N.v.+.+.+.&._ H S J ) _ #.+.",
"d.d.z..XV.Z.Z.Z.V.S.A.S.S.V.z.+.$.N 8 L.VXrXrX{.R.2./.9XxXhXfXgXvXvXsXw 5 # w w w 6 9.CXC @ = ; e 0 >.CX3.~.{.(.(.eX(.{.E.5.3 # N.v.v.+.+.$.$...T L J L D T +.v.",
"f.C.C.Z.Z.C.C.B.k.V.S.A.B.b.M.m.M.v.N 9 <.VX}.T.}.U.E.^.qX9XzX0X$XgX7X;.9 9 d d d +X>XZX|.8 5 6 d <X,X'.1.~.eX{.eX~.U._.f 4 3 +.MXm.N.+.+.O.&.R D D J G U ` n.v.",
"s.b.C.C.S.V.u.j.b.M.m.f.{ v.m.M.A.M. XE @ <.].VX_.r.5.1X6X3X!.2X/.uX!.5X;Xq.G.dX>XFXqXzX7X-Xs 9.>XSX'.2._.VXU.U.wX`.,.9 # H $.$.v.A.M.n.N.O.) H G D D U ( { n.f.",
"n.m.f.C.Z.j.s.] f.h.' R _ [ +.v.M.v.#.$.O.3 9 <.K.<.>.K.[.~.{.4X4X4X(.(.~.Q._.BXaX$X5XuX6XyXiXwXiX[.3.;.].NXL.D.j g @ 3 a O.+.f.~ { M.M.v.$.[ _ U U U U n ! v.+.",
"f.] f.m.C.C.u.n.} [ _ @..._ R +.{ n.#.#.%.) z # 4 4 3 s e._.[.{.}.BX(.(.{.}.U.].yX6XeX{.{.6XeX~.[.r.f j 9 8 8 4 O @ l ) X.O.[ ! { ~ v.+.N.+.O.Y U / U U I ! } { ",
"v.v.Q f.m.s.Q } n.} X.X...) _ .._ &.N.[ %._ D H 7 O o & # 8 L.wX}.~.{.T.{.T.:.:.'.[.~.(.4X{.[.r.a.9 7 o . o & @ H T T ..X.) T R U { N.v.#.} [ ( ( / m ` | { [ [ ",
"i.W Y W { Q ] n.#.O.` X.X.X. .G ) ..| ( R U U H F P 1 , , # 3 d _.].]._.2.G.<.d f ,.r.'.R.L.G.f q O , , , l P F D U O.&..... .R ..O.$.+.{ N.Y [ ' M m #.@.R R _ ",
"I U M U ' ' {  X' ` J K K K K G P L J c c D U U K F F S l S z # @ # # 4 3 O O o @ O O # # # @ O r  . .G G T F F D R O.$.+.+.R R ......` @.[ Y [ ' W [ #.@.G H L ",
") U m / ( ( Y [ | X.) J S S S S K o.J x x G Y ` ) G x H H H S G  .S A , , , , 1 Z A , , * , 1 A H / ( O.O.&...T H E &.+.+.{ +.E T G G T _ Y Y ` ( ( R _  .) J P ",
"` / J m / m n U ` | ) Z D S L S D R / / c G R U U / c / E E H R ' ( ) ) F F F S o.o.G D F K P F J / O.#.+.$.$.O.| R O.$.O.+.&.R X.K E ) T U ) ) G / E G D L S G ",
"J c J / / / / / U ` c J H J J D m Y [ ' T ( R U U c U ( c U ! ! ] | / ) P F F z  ...@...T H H H J ) @.{ +.! [ O.Y U R _ ( [ ! O. .H K ) K ) / K D S D S S S S F ",
"S x c Y ( ( ( @.U Y / c / E _ Y Y ' ' | [ [ [ R ( U U R D U ! ! O.R G F L L Z x S H G R O.T G G D U R ..$.&.( ( U T U R ` R .... .L K T G o.X. . .S Z Z L L Z Z ",
"J D D U ! [ ( U D / J c c _ [ [ ' [ [ ` R [ [ O._ E n Y T E R W R R G F Z Z Z Z Z H G  .%...o.P G ) R E &.%.@.U c G T T Y ` ) G L S S S H  .X.o.P Z l 1 A Z F A ",
"D / J U R R D p z x c x D ( @.[ .._ ` ' E R ..R R Y c v z H W ! R T  .) L F Z Z Z S P  .X.X.X.) K ) U m Y _ T T ) T R R R .. .G H H F K  .o.o. .K Z A A l A F F ",
"x S J U R T c z l l x J n ( ` ( .._ ( Y T ) R R &.R z z H R O.O._  ... .L L L Z S S P o.) _ ) J D J m ( Y _ T T _ ) G ) .. .o.o.o.F  .L  .o.S P  .l l A 1 A A Z "
};
