/* XPM */
static char *_19f69db6f334cdc96a88f24a4faa99eafKg759qs9IM2uDV[] = {
/* columns rows colors chars-per-pixel */
"80 80 256 2 ",
"   c #0B0100",
".  c #180401",
"X  c #171509",
"o  c #230100",
"O  c #2C0000",
"+  c #260806",
"@  c #340000",
"#  c #3C0100",
"$  c #3B0B08",
"%  c #381814",
"&  c #32170C",
"*  c #2C3014",
"=  c #27321A",
"-  c #430000",
";  c #4B0100",
":  c #470C06",
">  c #550100",
",  c #5B0200",
"<  c #580B03",
"1  c #5C1504",
"2  c #521910",
"3  c #630100",
"4  c #6B0C00",
"5  c #670803",
"6  c #780701",
"7  c #641401",
"8  c #6B1C01",
"9  c #681807",
"0  c #741400",
"q  c #731C00",
"w  c #7A1C01",
"e  c #791303",
"r  c #6F1812",
"t  c #4A261C",
"y  c #54251C",
"u  c #5B251B",
"i  c #54291D",
"p  c #5A281A",
"a  c #512911",
"s  c #6D2302",
"d  c #662407",
"f  c #732202",
"g  c #7B2301",
"h  c #782A07",
"j  c #63251D",
"k  c #642A1E",
"l  c #6B2A1E",
"z  c #6A2519",
"x  c #722A1E",
"c  c #78271A",
"v  c #753209",
"b  c #4C2B24",
"n  c #462822",
"m  c #542B24",
"M  c #5C2C24",
"N  c #5C2D2A",
"B  c #562925",
"V  c #5C322B",
"C  c #573128",
"Z  c #5C3632",
"A  c #642C24",
"S  c #6B2C23",
"D  c #632D2A",
"F  c #6B2E2A",
"G  c #6A2622",
"H  c #732C24",
"J  c #7B2D24",
"K  c #742E29",
"L  c #7B2E29",
"P  c #732622",
"I  c #643125",
"U  c #6C3126",
"Y  c #64322C",
"T  c #6C322C",
"R  c #6C392F",
"E  c #743226",
"W  c #7B3126",
"Q  c #74332B",
"!  c #7C332C",
"~  c #7B382E",
"^  c #75382E",
"/  c #643531",
"(  c #6C3531",
")  c #6C3933",
"_  c #663933",
"`  c #733532",
"'  c #7C3632",
"]  c #743933",
"[  c #7C3A33",
"{  c #7B3D39",
"}  c #733B3A",
"|  c #6E2F31",
" . c #38441D",
".. c #3C4E21",
"X. c #77423B",
"o. c #860801",
"O. c #960602",
"+. c #861804",
"@. c #991705",
"#. c #961B16",
"$. c #881716",
"%. c #A70602",
"&. c #B50901",
"*. c #A91405",
"=. c #B61705",
"-. c #B21B14",
";. c #872804",
":. c #962A04",
">. c #8A3406",
",. c #973707",
"<. c #85281B",
"1. c #992618",
"2. c #963A16",
"3. c #873516",
"4. c #A72908",
"5. c #A73908",
"6. c #B72515",
"7. c #A83912",
"8. c #BA3617",
"9. c #AD2C13",
"0. c #822D25",
"q. c #832E29",
"w. c #8B2D26",
"e. c #962D27",
"r. c #833226",
"t. c #8A3326",
"y. c #83342B",
"u. c #8B342C",
"i. c #84392E",
"p. c #8C392E",
"a. c #833C20",
"s. c #93352D",
"d. c #9B352C",
"f. c #933A2E",
"g. c #9B392E",
"h. c #953326",
"j. c #843631",
"k. c #8C3631",
"l. c #833A34",
"z. c #8B3A33",
"x. c #8C3D39",
"c. c #833D39",
"v. c #933632",
"b. c #9B3632",
"n. c #933B33",
"m. c #9B3B34",
"M. c #953D39",
"N. c #9B3D3A",
"B. c #A62A25",
"V. c #A4362C",
"C. c #B93826",
"Z. c #A33A33",
"A. c #A33E3A",
"S. c #A73A36",
"D. c #B63029",
"F. c #C61908",
"G. c #C81C16",
"H. c #D21609",
"J. c #C72617",
"K. c #D72716",
"L. c #D7341B",
"P. c #C93015",
"I. c #E9340B",
"U. c #E62917",
"Y. c #EC3C1B",
"T. c #E83717",
"R. c #F63918",
"E. c #EE300E",
"W. c #C63728",
"Q. c #D83925",
"!. c #CE312A",
"~. c #E83A26",
"^. c #F83A27",
"/. c #E8342D",
"(. c #E01F0D",
"). c #974414",
"_. c #AA460C",
"`. c #B8490B",
"'. c #A84917",
"]. c #B84A18",
"[. c #B95319",
"{. c #AB5216",
"}. c #89413C",
"|. c #9D413C",
" X c #974138",
".X c #89452E",
"XX c #A44239",
"oX c #B54E2A",
"OX c #AC6127",
"+X c #DB591A",
"@X c #CC4C11",
"#X c #E94519",
"$X c #F4441C",
"%X c #F9481B",
"&X c #F8561A",
"*X c #E85011",
"=X c #EC621E",
"-X c #C8472B",
";X c #D74728",
":X c #D75927",
">X c #D64539",
",X c #DA5636",
"<X c #C75232",
"1X c #E8462A",
"2X c #F54424",
"3X c #FD4424",
"4X c #FD4C24",
"5X c #FD452A",
"6X c #FD4C2B",
"7X c #F44927",
"8X c #EC5627",
"9X c #FD5324",
"0X c #FE542C",
"qX c #FE5B2C",
"wX c #F75826",
"eX c #E74834",
"rX c #FE4D33",
"tX c #F74833",
"yX c #E75735",
"uX c #FF5434",
"iX c #FE5B33",
"pX c #FE543B",
"aX c #FF5B3C",
"sX c #F35834",
"dX c #DB6837",
"fX c #D46C31",
"gX c #EA6529",
"hX c #F9662B",
"jX c #E96738",
"kX c #FE6333",
"lX c #FD6A34",
"zX c #FF643B",
"xX c #FF6B3A",
"cX c #F46835",
"vX c #FF743C",
"bX c #FB7638",
"nX c #F2742F",
"mX c #CD601F",
"MX c #A74641",
"NX c #D24D43",
"BX c #E75243",
"VX c #FB5C44",
"CX c #EF4A40",
"ZX c #D76A49",
"AX c #FF6342",
"SX c #FF6C43",
"DX c #F86748",
"FX c #FF7442",
"GX c #FF7B44",
"HX c #FB7749",
"JX c #FD7A52",
"KX c #EF6D4A",
"LX c #A83B40",
"PX c #F78137",
"IX c #FD8346",
"UX c #FA8954",
/* pixels */
"t y M I ^ ~ ~ W i.a.J x E Q E x p.u.f.f.p.0.J L H K Q F D N C C D ` ` P c.~ S A I T ` ' l.j.l.r.q.v.s.s.t.y.W W t.i.a.H A k l G P G B y t b n t C Y U A t t i D ",
"B i i p S E W r.0.y.i.y.! i.~ x r.t.y.f.f.u.k.L L L K A A M V Z D / ( K ` ` R I M M F ` K ! L J k.n.s.u.k.y.J ! p..Xp.H l S S K K ! D B m b b t t p U D p t M A ",
"i M M A Q i.y.w.s.n.z.J x y.y.W J 0.u.u.u.u.k.q.q.' K G M M Y ) V B / ( ` ( ) Y B B B D ( ` ~ ! p.s.v.v.y.r.W l.! u.! x H E H H L j.! T Y M i t i A D I M I A S ",
"m M k j E z.n.v.s.f.k.0.W i.r.! y.k.k.u.j.y.w.q.q.j.K F K T F D / N Y / ( A D M / D D D ` ` ! W u.g.b.s.c J r.y.P y.p.l.! E W c p.p.k.y.^ T y p D I A S A A S j ",
"i i S H ! z.p.p.n.s.b.n.n.p.J J ! j.j.j.y.J w.s.v.v.t.E Q E S U F ^ ` Q Q E Q ' j.[ j.k.y.z.n.t.m.b.m.d.d.s.p.q.q.u.j.j.! W p.n.b.g.s.q.j.! u j S U H l l l x H ",
"B p U ~ z.z.z.n.n.f.b.b.b.f.u.i.W H y.! P J p.g.N.v.i.J J J S Q ! ' j.' l.j.j.M.M.k.M.M.v.p.f.p.b. Xm.V.S.A.s.n.w.k.x.[ ~ ~ k.f.g.d.h.u.q.L ! S z ! i.y.W x z l ",
"A S U [ z.p.p.f.n.n.m.n.s.f.p.p.! H x W J u. Xg.m.f.W 0.i.y.! J J L J t.p.f.s.m.b.v.N.v.M.t.i.r.y. XXXZ.Z.d.g.b.v.M.M.c.' ~ ! z.f.s.b.b.0.0.u.0.t.u.s.s.s.0.x z ",
"^ ` Q W y.y.u.p.t.n.n.f.n.n.f.n.r.x y.u.t. Xg.m.m.m.r.i.p.r.z.z.y.k.n.b.m.Z.A.g.b.Z.A.m.u.y.y.y.y.n.XXg.d.d.m.f.M.M.x.[ ' ` [ l.M.m.N.b.u.<.w.g.m.m.g.m.m.s.0.x ",
"j.! E J J r.p.p.t.t.m. Xf.n.f.n..Xf.m.n.r. X Xn.p.M.u.t.k.t.u.z.k.m.N.m.Z.d.Z.XXXXXXA.A.f.0.i.x.|.m.g.g.XXXXXXn.x.c.] { { } ` c.x.|.MXv.b.u.w.t.f.h.d.b.Z.b.v.w.",
"j.L r.r.W r.p.n.u.u.z.z.f.f.g.g.f.h.n.n.p.t.y.J r.z.y.0.u.y.u.q.w.N.Z.m.Z.d.d.Z.Z.b.N.N.M.r.W n.m.b.Z. X X Xf.r.L { ] ( } { }.c.[ z.k.k.v.u.s.h.w.h.V.V.B.e.s.w.",
"v.q.r.0.0.r.r.n.n.p.r.a.p. X Xh.t. Xf.s.n.x.l.Q ~ [ Q K ! z.j.0.v.Z.g.Z.A.Z.b.n.p.! Q ! E y.|.n.u.s.g.g.g.h.! S Q { ( T T ] }.}.Q L j.q.0.0.v.m.1.h.V.b.S.b.u.0.",
"v.v.r.J W r.W u.u.p.l.r.r.p.m.s.t. Xn.u.z.y.Q S T ( T F ` ! ~ r.m.m.m.XXN.k.M.l.E Y R T Q }.MX|.u.f.f.f. Xp.~ Q S | D U U ' l.l.` K L q.w.q.w.g.d.d.B.e.e.k.y.y.",
"z.k.z.k.u.y.W W W y.z.! 0.p.z.u.p. X Xz.j.K E ` D T ( ( U D U '  X|.n.}.}.x.' | D V V ( T l.|.LXf.n.f.p.k.z.M. Xj.Q ! E ' [ j.Q H H y.q.J c c w.d.d.e.e.h.y.J S ",
"j.L y.k.l.y.~ ~ E S ! J J u.r.W r.y.0.r.y.j.l.l.' ` T Y T Y Y T ' c.Q ~ ` F F ( _ / V Y F l.N.v.n.i.y.y.L u.N.N.M.z.i.W r.r.W J ! J q.J P J J 0.w.d.e.<.c x S u ",
"' L ! ! J H E S U l H E H H H W P q.k.u.r.y.n.z.x.~ U I T Y N M D F F ] ` ` ` T } ) } R [ }.l.W ! ! y.l.u.k.k.p.y.u.r.p.r.r.0.y.q.0.0.0.P P z P J s.s.c z z u u ",
"Q ~ ' K H H S l S S S S H E l.l.! y.k.u.q.k.s.v.y.! ^ R R T D D ( ^ T ] R U ^ T ( ( Y R U [ W W E ! ! y.z.x.y.i.t.u.i.u.f.y.n.M.q.0.<.w.q.J P c J u.w.J l k k p ",
"U ^ | K ! H G G Q H A k S L ' L P L k.k.k.k.k.k.j.L ' [ ~ ~ F T T ^ R ] D N ) ( ) ) Y Y Y U S W y.! y.u.x.p.n.t.r.t.s.b.p.p.m.N.n.<.w.d.s.c c J c u.J c x k p a ",
"~ ` ' ' j.' A G ' Q l j P H L H H z.q.q.L q.u.j.j.' L K J ! Q Q E E U Y / D } } } ) _ T Y R ! x H j.z.p.a.p.f.p.r.i.p.m. Xu.b.Z.b.w.d.b.e.<.w.t.r.u.J J E l k a ",
"z.j.j.! j.y.K k S S A G S K L ' L q.P P P P y.k.y.L L q.P J J y.n.y.^ A | / ) _ T T Q F Q H y.E H y.z.p.y.z.u.y.W W r.t.u.u.s.g.g.b.b.d.e.e.d.s.s.s.q.0.E l k p ",
"v.v.z.j.j.l.Q G A F S G G G P ! H H K L K L k.y.q.q.u.u.J J J r.n.n.l.S ( D I I Y } X.{ ] { y.! l H l.r.z..Xt.W ~ E E ! t.f. Xg.m.m.d.V.V.Z.b.w.u.y.q.r.W l l p ",
"m.M.n.k.y.! E ^ F S S S S G K ' ! L H E ! r.J L k.k.z.y.q.j.t.<.t. Xf.H ^ A A T T _ X.% + 2 ( K x x y.W a.y.! Q ^ Y A [ z.n.f.f.g.m.V.S.V.Z.g.v.u.J W ~ W H E l ",
"n.u.u.z.' S S Q Q K F S G j j P Q z z S J P P y.y.u.r.j.z.M.M.n.f.g.z.y.Q Q ] Y m o X     o / ' i.i.i.r.x Q S A A D F Q ! W r.p.g.Z.d.S.Z.V.d.m.i.c x E E l H l ",
"v.u.k.y.H H L j.' ! ' L L P P S P H H H P L L L j.q.r.y.' ! W p.b.s.n.z.a.i.R &   X  . . .  F j.z.z.y.y.H T U A A T E U H ! p.n. XZ.g.d.d.V.V.b.t.x x E S E E E ",
"s.s.n.u.J y.z.j.L L q.L q.j.! H P H H L k.k.j.j.z.k.y.! Q H U l. XM.N.M.i.X.%   X =  ...=   D c.y.y.[ Q S A T I T Q Q ! E i.M.M.m.m.b.s.Z.S.S.N.s.r.W x U Q ~ Q ",
"A.N.n.q.y.k.q.J y.k.z.k.j.k.l.! Q Q H Q ! L y.z.f.p.W ~ U I I ) u z r 5 $ .     =  .= =  .  . : 1 j B _ Z Z ( ` T ^ Q Q ' x.x.k.b.N.m.g.b.Z.S.S.N.z.y.K E H H S ",
"A.N.M.y.u.q.L y.v.v.v.k.y.i.z.l.! Q ! H Q ! J i.i.~ ^ U M @ @ # @ r B.e.> B . X X  . .*   X O ; M.5 - @ O 2 } ( N T U R ! c.x.k.k.N.u.w.s.b.S.A.N.M.z.j.' Q E U ",
"M.v.k.k.w.y.v.m.v.d.v.v.z.p.y.! ! K l.z.' l.j.[ ^ N m o . O ; MXoX>X>XNXLX: . = = *  .* . @ <.NX/.!.>Xe.> $ o + n m T E L x.x.k.b.S.v.u.w.w.v.k.J L j.[ ! ! L ! ",
"j.y.u.p.u.n.XXXXZ.b.v.M.z.p.y.! J y.j.j.j.' ` G : @ @ # r r o.#.6.-.-.%.B.r O % *  .a & $ t.<X-.G.&.&.%.o.r > # @ @ l ~ l.y.k.N.N.b.w.t.q.y.k.y.j.L j.! L L H ! ",
"z.z.u.u.u.b.XXS.S.Z.b.b.N.M.k.! j.j.J P F Y $ # # 3 W.Q.,XQ.~.K./.eX6.6 $.r , - % i a 1 r 3 5 O.-./.U./.~.Q.DX>X!.#., - j.}.N.m.b.w.q.L L r.u.j.j.! ~ K L y.j.l.",
"x.|.M.M.b.Z.S.S.S.Z.A.A.N.n.k.' j.! ' ' T # @ < d.-X1X3XuXpXrX5XU.G.O.@.D.NXS.$.< 1 <.B.#.e.#.O.G./.CX^.3X5XpX7XDXeXoX3 5 x.b.A.v.w.L L J L q.j.j.Q ! ! y.j.! ! ",
"u.|.XXA. Xm.S.S.b.A.MXXXq.r.j.l.! [ { D O ; +.W.,XSXJXGXzXJXeXQ.%.O.Q.sXsX/.!.B.6 e.BXsX/.eX-.O.@.!./.rX0X$XaX$XSXaXsXW.$.> |.|.n.q.L q.L q.u.k.y.' j.l.k.z.p.W ",
"u.v.N.A.d.d.S.d.b.v.m.v.0.L y.! Q { F @ < oXeXaXHXIXvXcXsX8XQ.&.W.VXY.4XrXpX6.O.O.BXtXrX^.^.eXQ.O.O.~.VXuXiXiX4X9XkXuXsX>Xo.3 n.k.q.q.y.y.q.y.y.j.j.j.z.j.j.z.i.",
"y.n.n.b.b.b.S.b.s.p.p.t.q.u.t.W ! [ # - <XKXSXvXlXvXxXSX1X*.F./.VXzX0X9X4X^.#.O.eXpX1XiX2XuXpX~.!.O.&.L.aXzXzXqXlX&X#XkXT.P.6 3 M.j.0.r.y.P P W i.z.y.z.j.j.l.y.",
"q.u.s.s.s.v.N.v.u.s.y.u.q.M.m.z.[ # < oXjXlXkXgXIXcXzXsX*.&.U.T.7XqXqXiXuXeX-.#.VXVXAX2XsX$X3XpXK.G.%.1XVX4X4X#XwXlXqX4X6XpX>X$.9 y.J L K K S E l.z.z.j.j.y.j.y.",
"y.y.y.r.J y.k.u.w.s.t.p.p.s.XXx.G O @.KXcXvXlXGXvXJXVXJ.%.~.^.%XkXiXzXuX/.H.*.>XsX$XT.iXxX7XR.4X^.K.&.=.rX3XxXlXGXkXvXkXuX1XeX9.- z G K F | K ! z.z.p.l.j.l.l.a.",
"y.q.q.W J H j.k.u.w.t.f.s.u.|. X# z ,XSXUXcXIXcX7X6XK.&.=./.R.%XqXJXsXpX^.H.%.eX0X0XqXxXwXSX%XE.^.R.J.*.2XY.wXkXhXHX8X%XiXaXDXyXZ.< K F ` S S ~ y.i.z.i.r.W ! W ",
"L P J q.! H L u.w.s.h.h.f.t. Xc > <XsXGXhXGXcX0XY.5X=.G./.tX^.AXaXzXaXrXU.H.&./.7X9XqXkXkX7X$XqX^.^.tXK.=.1XiXlXqXhX8XxXzXqX$XY.oX3 P ( T S U l E Q l.l.! K U ^ ",
"H k P L H P J 0.v.V.Z.Z.h.r. X; 1.UXgXhXxXwXSXaXR.U.G.K.^.^.0XlXiXwXiXY.H.K.F.~.0X$XqXhXzX0XlX%X3X3XY.~.-.VX8XxXqXqXxXFXqX0XiXsXQ.o.- ) T k U U E E ! ! ! S k I ",
"U j j S H ! s.d.m.g.Z.V.d.h.j.> dXUXIXFXGXFX^.CX^.U.&./.6X$XvXwXHXwX7XL.G.&.Y.5XzX0X&X$X9XqXqXI.%XR.sXyXW.8.8XlXxXlXwXlXkXuXiXSXtX9.O Z M U ! x.z.z.j.L l k M M ",
"U k l l Q z.b.d.w.w.h.g.e. X< c KXvXGXGXGXiXrX^.(.(.F.~.#XcXKXdX5.;XwXT.G.%.K.VXuX4X0XqX9XqXqXqX#XqX8.+.:.;.8.nXcXgXxX#X0XwX$X$X4XBX@ y I ~ M.M.n.x.z.! S I C m ",
"! W i..Xy.z.g.d.e.e.w.w.h.p.> ZX:XbXgXGXIX0XE.^.(.G.K.DXJXq - : > 5 -X1XQ.&.uX$X0X0X4X9XxXxXhXhXjX:., - ; < ; 7 ;.dXKXSX#XI.qX2XE.1Xe ; ~ x.v.N.M.k.x.Q A M B N ",
"H ! t.c c r.h.d.m.N.w.0.! h > ZXcXlXvXFX7X^.^.^.G.W.P.7., 1 9 d d 7 ;.P.;X=.2XR.uX$XiX0XqX*XlXIXfX7 8 h h >.3.c 1 f ;.-XsXzX6X4X4X1XNX> u.x.M.v.v.y.q.K S A D D ",
"l H y.r.c <..Xg.m.N.t.p.! 9 '.JXFXlX9XqXY.U.5X~.1.4 5 5 q w ;.5.;.q 8 ;.,XF.~.0X4X$X7XwXqX&XlXbXf h.q :.4.`._.7.<.h : 1 6 yXAXaX3XtXZX- L z.k.M.k.k.z.l.y.J ! j.",
"k l y.u.J 3..Xt.0.0.t.l.E 9 <XKX8XkX%XI.iXtX1XC.8 1 1 d 3.5.@X=X`.,.h , 8.=.7X0XzX9XlX%X#X&XnXmX4 f 5.@X+X+X:X9.<.W a : 6 yXtXuX^.VXNX> c ' q.M.z.u.r.y..Xn.M.z.",
"j S S H W p.i.W J x a.W ` - oXFXcXvX9X4XrXeX+.> 1 l 9 <.5.mX=X*XgX5.>.h :.C.iX9XqXlXiXxX&XhXnX;.;.:.@X*X=X*X5.2.c < - +.Q.Y.R.3X^.rX1XO.P E L J k.z.J J y.k.z.j.",
"k S l H y.p.p.p.W W J H ` ; ].8XvXUXqXY.rXQ.> 1 2 1 l f ,.mX=X*X@X_.;.;.3 oXsX9XqXiXsXiX*XlXZX5 ;.5.P.=X+X@X5., 3 ;.ZXJXL.^.E.R.5XY.L.>Xr Q Q J y.y.L L q.x.}.j.",
"U l H L ! r.a.p.n.p.p.l.X., jXwXlXqX9X$X^.sX@.6 5 3 7 9 s >.`.+X+XgX,.+.< ;.1XzX4X2XzXSXiXcX2.< ;.>._.5.>.;.e :.:XsX#XAXtXrXR.^.R.^.uX@.r ~ L q.y.J ! ! q.z.l.T ",
"S k S K L ! y.r.y.u.p.p.l.4 yX9XxX9XzX2XrXtX/.6.8.8.<X4 < 8 ,.5.5.`.,.q z < -X$X^.%X2X0XiX1X0 d f >.g 0 4 oX4.yXkXiX%XT.uX5X5X5XR.aXAX9.7 ! L q.r.L L ! L l.[ T ",
"S k A S P P S E x u.u.k.' 4 ;X0X$XzX6X2XY.aXQ.P.F.#X1X+XnX>.0 0 :.>.3.z p - *.1X7X6XzXuX$X;X7 p p d > :.jXcX1XqX%X%XuXaX2X^.T.4X4XT.7X-X; ] ! W J W y.l.y.q.[ ' ",
"j j j l l S k l x y.u.j.r.3 1X4X0X0X2XzX7X;X-.8.L.qXqX*XhXhXjX[.fX4 q 7 u : 9.sX2X2X6X4X%X;X5 - ; < ZXyXFX0XF.(.I.R.#XzXAXAX1XkX4XuX7X9.- ` Q l.r.t.L y.k.j.j.' ",
"G k S S l k A k H ! J y.y.5 ~.4X0X$X4XlXyX:.> h KXaX9XI.%X&XqXhXsXyX+.> < 4 6.rXDXtX2XrX3XT.o., o.-X;X0X%X3X(.(.3XI.9XxXdX6 :.xXzX0X8X-X- ` ! y.y.r.r.j.u.y.k.j.",
"B A S S S k A G H L J r.z.e 1XR.uXkX%XwXcX5.- 1 w ;X8X&X9X&X9X%X%X1XP.W.+.@.1X~.rXrX7XuXrXtX;XKXAXuXI.4XR.R.(.U.0X0X8XjX3.< q KXsX7XcX4.; ( j.y.! j.j.k.k.u.u.z.",
"B p A G A G F | K L 0.y.}.6 eX5XzXY.0X$X=X5.; .Xq , -XgXhX9X#XqXkX2XU.L.=.L.rX5X2XVX^.5X5X3XT.T.Y.uXE.4X%X3XF.T.hXbX<X9 f 7 >.jXJXzX#XW., } z.l.! z.x.k.v.k.u.z.",
"B N M A A D D F K L u.z.}.4 ;X2X2XuX$XiXhXgX8 W c h e ].mXbXlXwX9X%XR.U.(.tXpXT.VX5X5X6XR.3X4X0X%X%X%X%XR.4XP.yXcX`.8 8 z < >.gXxX8XyX9.r } ! z.' j.k.k.v.M.n.f.",
"V Y V Y N M M D F L y.n.c.> J.Y.aX5XT.iXhXPXv s h h 8 g 0 oXGXwX&X%X^.H.H.K.3X3XrX%X%X3X4XR.9X$X9X%X&X*XhXhX5.].:.g >.h d < nX&XqX8XDX1.1 } E ~ y.k.v.u.N.M.k.M.",
"T T Y M B B B D F L J r.X.; W.T.uX2XFXkXbXPXIX7 f d s d d 7 ;.gX&X%X(.(.H.1X6XiX3X%XI.%X%XT.cXjXcXlX&X&X=XbX3 < f '.'.3.s > =X*X$XsX-X; u D [ Q j.x.N.N.N.v.0.q.",
"! ~ I I M M Y D T U E E X.1 oXtXR.6X0X%XhXbX=X>.h f h 8 s 8 >.PX*X&X%XE.U.Y.%X9X&X&X&XhX&X=X0 8 5 IXlXbXhX5.- 8 >.oX'.8 h '.sXiX4XY.NX, G ` ` L l.l.k.z.n.k.y.! ",
"y.l.Q R U T ( D I I k I i d 6 BXT.R.$X9X&X&XnX@Xf v v ).h ;.8 fX=X*X&XI.F.@X8XlXhXhX&X*XPX[.d d 1 ZX:XjX:Xw s s ,.,.f q 4 jXzXY.tXsXMX, G ` ' ' [ [ y.y.y.z.x.p.",
"y.y.y.l.` ` ) Y I M I V N y ; D.tX6XiX4XhXhX&X*Xq ).).[.,.;.8 2.bX8X8X;X4.:.;.dX=XnXPXnXPX_.s d s OXoXfX[.>.;.).).;.f q 5.cX4X4XuXeX> : F c.c.' l.[ ! j.' j.x.z.",
"q.y.p.l.' ( ) ( } _ Y Y N D < e.Q.Y.pXiXiXhX%X*XmX< f '.[._.;.+.@.:XdX6 ;.h 7 w +X*XnXnXPX< s s s s q ;.;.).).>.w g g ].FXlX$XR.~.>X@ / } ' ' ' l.}.[ l.l.! j.l.",
"j.j.[ ~ ` ( ( ( ` ` Q ` S | : ; BXtXE.E.I.iXR.*X8.{.h s ).{.'.].>.+.0 f w g h > <X:XfX_.w w ,.).,.{.'.'.'.).>.,.g ;.:XgX$X4X5X5XeX@.# } ` ` ` H ^ l.{ ' ' [ ' ! ",
"' ' ` ^ ` } ` ] { l.l.! ' j.} # -.VX5XR.%X4X$XT.*.bXq s s g ,.{.{.).'._.'.'.'.;.:.7.w _.q >.].@X_.,._.,.:.;.5.5.].jX8XkXqX2XrX1XD.> P ] { { { ` S Q ^ ` ] [ { [ ",
"K H S T | ' ! i.k.M.z.t.u.n. Xr #.BX~.3XuXrXuXY.=.KX>.5 f h ).v OX{.mXmX@X[.[._.:.;.5._.,.'.[.{.5.,.>.8 4 P.;XlXcXFX#XxX6X5X^.J.<.; [ l.c.[ ' F F A D ` { { c.l.",
"! ! ! ' [ j. Xm.m.m.n.b.S.A.g.h.> +./.^.2XaXpXuX=.P.jX:.f ).d >.,.,.`.mX`.`.`._.'.'.[._._.>.,.,.,.g 7 oXC.=.0X4XqX%XuX6XVXVX!.@.- j ' j.j.{ Q S D I M Y } [ ' ' ",
"p.y.t.z.M.m.m.N.b.A.b.s.A.A.s.y.z > 1.Q.tX^.^./.&.&.#XcX5.0 6 mXnXIX,.>.>.>.2.>.f v v v v 8 f f w 3.3 oXP.G.E.3XR.R.3XR.^.K.1.- < { j.j.' ' ' | Y M B m R T ' [ ",
"u.t.n.m.g.m.m.m.N.b.N.N.N.b.z.y.[ z > D.CXeXtX^.J.&.T.0XsXKXgXhXbXnXfX9 w q e ;.7 1 ).fXfX< h 8 8 0 4.KX*.~.^.R.R.rXR./.K.B.- # }.j.c.' ' ' } ` D V V m M I [ l.",
"r.n.n. Xm.g.n.p.v.b.N.N.v.z.x.z.x.j.z > #.BX^.U./.G.K.$X7XqXxXiX*XqX8Xo.3 +.:.+.4 oX+XnX:Xe f 8 0 -XeXL.&.K.rX^.5XU.H.C.6 - ; ! }.x.l.' [ | | ( V M M M A T l.l.",
"y.p.n.s.M.M.0.u.z.z.z.! L j.l.x.M.x.}.G - $.!.CX!.6.-./.2X5XI.4XT.kXI.6X;X4.8.,X:XHXkXcX7X@X3 2.>XDXL.=.J.CXG.G.eXW.#.> # u [ l.z.M.x.c.l.` S M M M M A U Q l.y.",
"j.l.y.n.b.s.r.W y.y.Q U T Q ' j.x.j.[ { ` - > r S.#.$.S.1XU.^.5XtX5XR.R.T.K.P.CX0X2X7XaX7X0XpXeXVX/.*.o.>XNXB.B.r 5 # - u ` [ ' L ! x.x.c.{ K ( A A A A A H j.' ",
"y.r.y.z.M.n.J i.! E R ` ( T F ' ! l.[ [ { D u # ; ; - 5 B.J.~.^.^.tXR.R.^.^.G./.tX7XrX^.^.rXtX~./.-.5 r ; > > ; O @ y / ( ` U U Q L l.' c.' ` S I I A A l K ' ! ",
"j.j.H i.z.r.J y.}.^ ` ) ( Y / ( ` | c.Q } ( M B : O . $ # > B.eX/.U.^.(.^.G.%.o.Q./.U.^.^.^.eX-.e.5 - + + . $ $ i D F ( } | | ( A ' l.j.[ ~ Q S I U A T Q ! ` K ",
"L J l H ! W ! l.[ ` R ) ) ) / Y D ( R E T p A M b Z n % & $ # 6 !.!.!.!.*.D.$.5 6 @.G./.!.6.B.e < O % % % n Z C M M ^ ( | | D D ( ` { ' ! l.S ^ E A l [ ` F F Y ",
"S S A k H W ! l.^ T Y V V V V C Z C B p M M A A Z N B b t B y # # # @ ; ; O o o @ O O @ @ O O O : _ ( D N / N b N M ` [ j.' F D ( ( ( ` ` E S Q E E E [ ` M M C ",
"Y A k A U U S ^ R ] Y C m B B B V _ V p i M S R Y M y M B y B N / b n % % % & n b n % % & & n b C Y F ` ' ( / N B G U l.' ! ` G D N M Y T F T T U U F T ( Z V C ",
"_ I M I I I p S ^ R Y i m m C B M U I I i A S A A M p I G B M F ` ` Y Z C b C M _ ( D N C C N N M T ! ' [ ~ ] ^ R F ' { ` ' Q A ( V N D D A Y Y M N A M N C C C ",
"M p M I A I I U A I M C M M C M k S T ^ A F F A M k A U M A K L ! ^ Y Z C B M i F ( ` D / B B M M T Q ! E H ^ Q S G K | F Q Q ^ Y M V Y N Y Y V N M C B B m b C ",
"M p A A U U U R A U I M I A D S S Q Q R E ^ T F T A S S M M K K Q T B b C B m m B B B Y _ V N M N N Y U ~ E Q U A Y F | | F R T _ B V V N ( ) / / m m b b C C b ",
"C m p k K Q A M p Y M p p U ^ E E E Q Q K E ` ` U j j A G A F P H Y C C m b b n b b V V ) _ ( V M Y Y p R ` ` A M D D D F Q ( M C m m B N / ) / Z b b * n b b b ",
"M V I I S F M y y i p i M A [ ^ R T Q R A F ( F F S u y y M K K F D / Z C m b B b b / _ ) ) ( Y Y Y A A S T D D D D D D Y / Y N m m B V Z _ _ _ V b b n n n b b ",
"i M M V F D u y t t i M k U Q U T T U S D D | F | F y y y D ' K T T / Z C C C C C b Y ) Y / ( D M D S S Y T D D | F A / / Y _ _ / C Z V Y _ C V V t t n n n n b "
};
