/* XPM */
static char *pumpkin2[] = {
/* columns rows colors chars-per-pixel */
"80 80 216 2 ",
"   c #020405",
".  c #0A0504",
"X  c #1B0D07",
"o  c #150A07",
"O  c #281309",
"+  c #30150A",
"@  c #35180A",
"#  c #3B1A0B",
"$  c #210F08",
"%  c #411E0C",
"&  c #5B1713",
"*  c #49210D",
"=  c #51250F",
"-  c #4E2010",
";  c #5C2A11",
":  c #572811",
">  c #642D13",
",  c #6C2F15",
"<  c #6A3315",
"1  c #743515",
"2  c #7B3A15",
"3  c #762416",
"4  c #7B6632",
"5  c #BA0400",
"6  c #BB0B01",
"7  c #B70706",
"8  c #BF1406",
"9  c #BB140D",
"0  c #BE1B14",
"q  c #863C18",
"w  c #8B3F19",
"e  c #99341E",
"r  c #BF221B",
"t  c #A7331C",
"y  c #BB2629",
"u  c #BE2A29",
"i  c #B92328",
"p  c #B33326",
"a  c #C21401",
"s  c #C41B05",
"d  c #C21B0B",
"f  c #C61A04",
"g  c #C11D11",
"h  c #CE1510",
"j  c #CC2405",
"k  c #C6220C",
"l  c #CA240A",
"z  c #CD290A",
"x  c #C72007",
"c  c #D32E0A",
"v  c #D4330C",
"b  c #D9390C",
"n  c #C22115",
"m  c #C1241A",
"M  c #C62B1C",
"N  c #CE351C",
"B  c #D33511",
"V  c #D53A13",
"C  c #DA3E11",
"Z  c #E71F22",
"A  c #C22C24",
"S  c #C12D29",
"D  c #C82527",
"F  c #C53227",
"G  c #CA3725",
"H  c #CD3C27",
"J  c #C53229",
"K  c #C93628",
"L  c #CC3B29",
"P  c #C73C25",
"I  c #D03F27",
"U  c #D33A2A",
"Y  c #C63B34",
"T  c #CA3A34",
"R  c #D72D25",
"E  c #E82923",
"W  c #E93825",
"Q  c #8B4118",
"!  c #944319",
"~  c #9B461A",
"^  c #A64C1C",
"/  c #B14E1F",
"(  c #B8541E",
")  c #BB5920",
"_  c #BC5722",
"`  c #B14726",
"'  c #A8772F",
"]  c #DD4415",
"[  c #DD4519",
"{  c #C45A1F",
"}  c #DC400E",
"|  c #E24C17",
" . c #E6531A",
".. c #EB5B1D",
"X. c #E9571C",
"o. c #FF631F",
"O. c #FF6A1F",
"+. c #EF611E",
"@. c #D44427",
"#. c #D74927",
"$. c #DB4D26",
"%. c #D44428",
"&. c #D94A28",
"*. c #D84826",
"=. c #C45E21",
"-. c #CC5E22",
";. c #DE5127",
":. c #DE5028",
">. c #CC463A",
",. c #E74B27",
"<. c #E15426",
"1. c #E65926",
"2. c #EA5D24",
"3. c #E65528",
"4. c #FB5928",
"5. c #CE6223",
"6. c #C96627",
"7. c #D46323",
"8. c #D86923",
"9. c #ED6325",
"0. c #E36B25",
"q. c #EA6A25",
"w. c #E66626",
"e. c #F16624",
"r. c #FF6321",
"t. c #F26925",
"y. c #FA6D25",
"u. c #F66A2A",
"i. c #F77025",
"p. c #FA7225",
"a. c #FF7926",
"s. c #FE7629",
"d. c #FF7B29",
"f. c #F17228",
"g. c #CC4C44",
"h. c #CD4F49",
"j. c #CE524A",
"k. c #CE5753",
"l. c #D25E56",
"z. c #D25547",
"x. c #D5645A",
"c. c #D9604B",
"v. c #D56C67",
"b. c #D8726B",
"n. c #D97B74",
"m. c #D87974",
"M. c #008318",
"N. c #0B9737",
"B. c #15963A",
"V. c #0B902D",
"C. c #23873B",
"Z. c #17A23B",
"A. c #3CAD3A",
"S. c #2CA93B",
"D. c #4D873F",
"F. c #788434",
"G. c #71913A",
"H. c #5FA93F",
"J. c #099F4B",
"K. c #1E9947",
"L. c #24994A",
"P. c #06A24C",
"I. c #17AB4D",
"U. c #19B14D",
"Y. c #24A94C",
"T. c #38B347",
"R. c #26A558",
"E. c #22B04C",
"W. c #30A663",
"Q. c #458F41",
"!. c #44B545",
"~. c #4EB747",
"^. c #4DB847",
"/. c #4EB848",
"(. c #51B947",
"). c #51BA48",
"_. c #43AE45",
"`. c #4EB276",
"'. c #3AC84D",
"]. c #2DDB51",
"[. c #0FC450",
"{. c #44C24B",
"}. c #838136",
"|. c #FF812B",
" X c #FF882C",
".X c #DC827B",
"XX c #E0887D",
"oX c #62B881",
"OX c #7DC49B",
"+X c #DE8B85",
"@X c #DF928D",
"#X c #E6928E",
"$X c #E29A96",
"%X c #E6A6A2",
"&X c #E8ADA9",
"*X c #ECBDBA",
"=X c #EAB7B4",
"-X c #F1BBAC",
";X c #8ECBAA",
":X c #EFC3BE",
">X c #B5DFC6",
",X c #EFC7C5",
"<X c #F1CCC7",
"1X c #F3D2CE",
"2X c #F5DDDB",
"3X c #F5D8D6",
"4X c #D6EFDE",
"5X c #F6E1DF",
"6X c #DEF2E5",
"7X c #F7E4E3",
"8X c #FAEDEC",
"9X c #F9E8E5",
"0X c #FEF9F7",
"qX c #FFFFFF",
"wX c #F9F7F6",
"eX c #F3F4F0",
/* pixels */
"qXqXqXqXqXqXqXqXqXqXqXqXqXqXqXqXqXqXqXqXqXqXqXqXqXqXqXqXqXqXqXqXqXqXqXqXqXqXqXqXqXqXqXqXqXqXqXqXqXqXqXqXqXqXqXqXqXqXqXqXqXqXqXqXqXqXqXqXqXqXqXqXqXqXqXqXqXqXqXqX",
"qXqXqXqXqXqXqXqXqXqXqXqXqXqXqXqXqXqXqXqXqXqXqXqXqXqXqXqXqXqXqXqXqXqXqXqXqXqXqXqXqXqXqXqXqXqXqXqXqXqXqXqXqXqXqXqXqXqXqXqXqXqXqXqXqXqXqXqXqXqXqXqXqXqXqXqXqXqXqXqX",
"qXqXqXqXqXqXqXqXqXqXqXqXqXqXqXqXqXqXqXqXqXqXqXqXqXqXqXqXqXqXqXqXqXqXqXqXqXqXqXqXqXqXqXqXqXqXqXqXqXqXqXqXqXqXqXqXqXqXqXqXqXqXqXqXqXqXqXqXqXqXqXqXqXqXqXqXqXqXqXqX",
"qXqXqXqXqXqXqXqXqXqXqXqXqXqXqXqXqXqXqXqXqXqXqXqXqXqXqXqXqXqXqXqXqXqXqXqXqXqXqXqXqXqXqXwXqXqX>XwXqXqXqXqXqXqXqXqXqXqXqXqXqXqXqXqXqXqXqXqXqXqXqXqXqXqXqXqXqXqXqXqX",
"qXqXqXqXqXqXqXqXqXqXqXqXqXqXqXqXqXqXqXqXqXqXqXqXqXqXqXqXqXqXqXqXwX6XqXqXqXqXqXqXeX6X>X;XW.V.V.qXqXqXqXqXqXqXqXqXqXqXqXqXqXqXqXqXqXqXqXqXqXqXqXqXqXqXqXqXqXqXqXqX",
"qXqXqXqXqXqXqXqXqXqXqXqXqXqXqXqXqXqXqXqXqXqXqXqXqXqXqXqXqXqXqXqX4XM.K.L.R.R.L.K.B.N.N.Z.A.!.R.qXqXqXqXqXqXqXqXqXqXqXqXqXqXqXqXqXqXqXqXqXqXqXqXqXqXqXqXqXqXqXqXqX",
"qXqXqXqXqXqXqXqXqXqXqXqXqXqXqXqXqXqXqXqXqXqXqXqXqXqXqXqXqXqXqXqXeXK.~.!.T.T.!.!./.(.).(.(.A.`.qXqXqXqXqXqXqXqXqXqXqXqXqXqXqXqXqXqXqXqXqXqXqXqXqXqXqXqXqXqXqXqXqX",
"qXqXqXqXqXqXqXqXqXqXqXqXqXqXqXqXqXqXqXqXqXqXqXqXqXqXqXqXqXqXqXqXqXI.~.(.(./././././././.(.S.OXqXqXqXqXqXqXqXqXqXqXqXqXqXqXqXqXqXqXqXqXqXqXqXqXqXqXqXqXqXqXqXqXqX",
"qXqXqXqXqXqXqXqXqXqXqXqXqXqXqXqXqXqXqXqXqXqXqXqXqXqXqXqXqXqXqXqXqX`.A././././.~./.)././.).S.>XqXqXqXqXqXqXqXqXqXqXqXqXqXqXqXqXqXqXqXqXqXqXqXqXqXqXqXqXqXqXqXqXqX",
"qXqXqXqXqXqXqXqXqXqXqXqXqXqXqXqXqXqXqXqXqXqXqXqXqXqXqXqXqXqXqXqXqXoXA./././.~.~./.~././.).V.4XqXqXqXqXqXqXqXqXqXqXqXqXqXqXqXqXqXqXqXqXqXqXqXqXqXqXqXqXqXqXqXqXqX",
"qXqXqXqXqXqXqXqXqXqXqXqXqXqXqXqXqXqXqXqXqXqXqXqXqX:Xj.r g g d S #X;XZ./././.~.~././././.~.N.qX2Xv.r d d n r m.7XqXqXqXqXqXqXqXqXqXqXqXqXqXqXqXqXqXqXqXqXqXqXqXqX",
"qXqXqXqXqXqXqXqXqXqXqXqXqXqXqXqXqXqXqXqXqXqXqX&X8 a X.e.p.t.t.e.b t U./././.(.~././././.~.R.T a [ e.i.p.t.t.] 6 u 5XqXqXqXqXqXqXqXqXqXqXqXqXqXqXqXqXqXqXqXqXqXqX",
"qXqXqXqXqXqXqXqXqXqXqXqXqXqXqXqXqXqXqXqXqXqXY a t.a.y.q.t.e.e.t.y.9.Y.(.~.~././././.~././.L.4.p.p.t.t.q.e.e.i.a.2.5 .XqXqXqXqXqXqXqXqXqXqXqXqXqXqXqXqXqXqXqXqXqX",
"qXqXqXqXqXqXqXqXqXqXqXqXqXqXqXqXqXqXqXqXwX9 ] a.t.e.t.e.t.t.t.t.t.u.P.^.^.^./././.~.~.(.E.4 r.t.t.t.t.t.t.t.t.e.t.p.j g.qXqXqXqXqXqXqXqXqXqXqXqXqXqXqXqXqXqXqXqX",
"qXqXqXqXqXqXqXqXqXqXqXqXqXqXqXqXqXqXqX8X8 <.p.i.i.y.e.t.q.t.t.t.t.o.L.^.~.(./././././.).E.F.r.t.t.t.t.t.e.i.p.t.i.t.i.V g.qXqXqXqXqXqXqXqXqXqXqXqXqXqXqXqXqXqXqX",
"qXqXqXqXqXqXqXqXqXqXqXqXqXqXqXqX*Xl.T n N G J F H $.t.p.t.t.t.t.t.4.D.^.^.^./././././.).U.' r.q.t.t.e.y.t.1.I J J F F K r K $X9XqXqXqXqXqXqXqXqXqXqXqXqXqXqXqXqX",
"qXqXqXqXqXqXqXqXqXqXqXqXqXqX#Xm l | ..i.t.p.t.t.1.*.F H e.p.e.t.t.r.}.E.)./././././.^.).I.6.t.t.9.y.i.#.F G <.t.t.p.t.p.t.X.B d l.2XqXqXqXqXqXqXqXqXqXqXqXqXqXqX",
"qXqXqXqXqXqXqXqXqXqXqXqX,Xr z t.p.t.t.t.t.t.t.t.y.i.t.;.u $.p.e.t.r.' U.)././././././.).I.e.t.e.p.1.u @.q.p.t.t.e.t.t.t.t.t.p.t.] 8 n.qXqXqXqXqXqXqXqXqXqXqXqXqX",
"qXqXqXqXqXqXqXqXqXqXqX+Xa ..p.t.t.9.t.t.t.t.t.t.e.t.q.i.i.G G i.t.t.6.E.).^.^.^././.~.^.P.o.e.p.@.F 9.p.t.t.e.q.t.t.t.t.t.t.t.e.i.i.z J 8XqXqXqXqXqXqXqXqXqXqXqX",
"qXqXqXqXqXqXqXqXqXqXl.x p.t.t.q.t.t.t.t.t.t.t.9.t.e.e.t.q.p.;.S t.y.q.P.).^.^.^.~./.~.~.L.o.y.G I p.t.q.e.e.e.q.t.t.t.t.t.t.t.t.t.t.p.| 9 5XqXqXqXqXqXqXqXqXqXqX",
"qXqXqXqXqXqXqXqXqXk.j a.t.t.t.t.t.t.t.t.t.t.e.t.O.i.i.t.e.e.i.1.y t.o.P.{.^.^.^.~./././.L.o.G *.p.t.t.t.y.i.i.O.t.t.t.t.t.t.t.t.t.t.t.p.+.5 5XqXqXqXqXqXqXqXqXqX",
"qXqXqXqXqXqXqXqXv.l p.t.t.t.9.t.t.t.t.t.t.t.p.9.$.*.@.;.q.p.t.p.1.S o.K.!.H.^.{././.).U.G.W I p.t.e.p.t.1.#.@.*.1.t.p.t.9.t.t.t.t.t.t.9.i.9.6 0XqXqXqXqXqXqXqXqX",
"qXqXqXqXqXqXqX&X5 d.9.t.t.t.t.t.q.t.t.t.p.$.u J *.;.<.H S S 9.p.i.$.E Q.].'.H.}.G.!.'.[.4 R a.e.p.t.I y H $.;.;.I y K t.p.q.t.t.t.t.t.t.q.p.X.m qXqXqXqXqXqXqXqX",
"qXqXqXqXqXqX0X5 d.t.t.t.t.t.t.t.t.t.i.e.y @.i.p.y.y.t.p.p.t.S G p.a.,.4 p Z Z W W Z Z 4 ` a.e.p.<.i :.p.p.y.t.i.p.p.<.i $.p.t.t.9.t.t.t.t.t.p.z v.qXqXqXqXqXqXqX",
"qXqXqXqXqXqXS 2.y.e.t.t.t.t.t.t.t.y.2.i 9.p.t.t.q.t.t.t.t.t.p.$.A t.H R e.y.i.i.t.p.i.,.D <.p.@.J t.t.t.t.t.t.9.e.e.y.y.H H a.t.9.t.t.t.t.t.t.d.6 1XqXqXqXqXqXqX",
"qXqXqXqXqX%Xx p.q.t.e.t.t.t.t.t.t.9.u t.t.t.t.t.t.t.t.t.t.q.e.p.1.i ;.p.t.t.e.q.t.t.t.i.t.G J @.p.t.t.t.t.t.t.t.t.t.q.t.i.G %.p.t.t.t.t.t.t.t.t.t.0 qXqXqXqXqXqX",
"qXqXqXqXqX0 t.t.t.t.t.t.t.t.t.t.t.u 9.t.t.t.t.t.t.t.t.t.t.t.t.t.u 1.p.e.t.t.e.e.t.t.9.t.t.p.@.@.p.t.t.t.t.9.t.t.t.t.t.t.e.p.J $.p.t.t.t.t.t.t.9.p.c $XqXqXqXqXqX",
"qXqXqXqX$Xv p.t.t.t.t.t.t.t.9.p.J 1.p.t.t.t.9.t.t.t.t.t.t.t.p.J 1.p.e.e.t.t.t.t.t.t.t.t.t.t.p.H #.p.t.t.t.t.t.t.t.t.t.t.e.e.p.u 9.t.t.t.t.t.t.t.t.t.m qXqXqXqXqX",
"qXqXqXqXA +.t.9.t.t.t.t.t.9.p.<.H p.t.t.t.t.t.t.t.t.t.t.t.p.H #.y.t.t.t.t.t.t.t.t.t.t.t.t.t.e.p.u 2.t.t.t.9.t.t.t.t.t.t.t.t.t.9.S p.t.t.t.t.t.t.t.t.v %XqXqXqXqX",
"qXqXqX=Xz p.t.t.t.t.t.t.t.t.t.y p.t.9.t.t.t.t.t.e.t.t.9.t.1.J p.t.t.t.q.t.t.t.t.t.9.t.t.t.t.t.t.q.S p.t.t.t.t.t.t.t.t.t.t.t.t.p.H $.t.t.t.t.t.t.t.t.9.Y qXqXqXqX",
"qXqXqXj.X.t.t.t.t.t.t.t.t.p.%.$.i.t.t.t.t.t.t.t.t.t.t.t.p.y t.t.t.t.t.t.t.t.t.t.t.t.t.t.t.t.t.t.p.#.@.p.t.t.t.t.t.t.t.t.t.t.t.e.p.y p.t.t.t.t.t.t.t.p.s 3XqXqXqX",
"qXqX8Xd p.e.t.t.t.t.t.t.t.t.y p.e.t.t.t.t.t.t.t.t.t.9.y.$.#.p.t.t.t.t.t.t.t.t.t.t.t.t.t.t.t.t.t.t.p.y t.t.t.t.t.t.t.t.q.t.t.t.t.p.@.$.t.t.t.t.t.t.t.t.] m.qXqXqX",
"qXqX&Xv t.t.t.t.t.t.t.t.i.&.;.i.t.t.t.t.t.t.t.q.e.e.e.p.y i.t.t.t.t.t.t.t.t.t.t.t.t.t.t.t.t.t.t.t.t.<.%.p.t.t.t.t.t.t.9.t.t.t.t.e.t.F p.t.t.t.t.t.t.t.e.J qXqXqX",
"qXqXl. .t.9.t.t.t.t.t.e.p.u t.t.t.t.t.t.t.t.t.t.t.e.y.1.I y.t.t.t.t.t.u.t.t.t.t.t.t.t.t.t.t.t.t.t.9.p.y y.t.t.t.t.t.t.t.t.t.t.t.q.p.K 2.t.t.t.t.t.t.t.i.x 7XqXqX",
"qXqXA y.t.t.t.t.t.t.t.e.w.G p.e.t.9.t.t.t.t.t.t.t.t.p.e y.e.t.t.9.t.t.9.t.t.t.t.t.t.t.t.t.t.t.t.t.t.t.3.~ y.t.t.t.t.t.t.t.t.9.u.t.t.1.@.y.t.t.t.t.t.t.i.v $XqXqX",
"qX7Xl i.t.t.t.t.t.t.e.p.I 1.t.t.u.9.t.t.t.t.t.t.t.t.0.  p.t.t.t.t.t.t.t.t.t.t.t.t.t.t.t.9.u.t.t.t.t.t.q.  s.t.t.t.t.t.t.t.t.t.t.t.t.i.u t.e.t.t.t.t.t.t. .x.qXqX",
"qX=Xj p.t.t.t.t.t.t.q.y.J e.t.t.t.t.t.t.t.t.t.t.e.d.>   - d.9.t.t.t.t.t.9.t.t.t.t.t.t.t.t.t.t.t.t.t.d.@   2 d.t.t.t.t.t.t.t.t.t.t.e.p.H 1.t.q.t.t.t.t.t.t.S qXqX",
"qX+X} i.9.t.t.t.t.t.t.9.K p.e.t.t.t.t.t.t.t.t.t.y.0.      f.t.t.t.t.t.9.t.t.t.t.9.t.9.u.t.t.t.t.t.y.7.      i.y.t.t.t.t.t.t.t.t.t.q.y.<.#.y.t.t.t.t.t.t.p.d qXqX",
"qXj.2.t.t.t.t.t.t.t.t.<.;.t.t.t.t.t.t.t.t.t.t.e.p.;       % d.f.t.t.t.t.t.t.t.t.t.t.t.t.t.t.t.t.t.s.+       1 p.9.t.t.t.t.t.t.t.t.e.t.9.H t.e.t.t.q.t.t.y.k 7XqX",
"qXY O.e.t.t.t.t.t.t.t.%.1.t.t.t.t.t.t.t.t.t.t.y.q.          7.u.t.t.t.t.t.t.t.t.t.t.t.t.t.t.t.t.y.=.          q.t.t.t.t.t.t.u.9.t.t.t.i.J y.t.t.t.t.t.t.p.c =XqX",
"qXr t.t.t.t.t.t.t.t.i.H q.e.t.t.t.t.t.t.t.u.t.d.<           %  X9.t.t.9.u.t.t.t.t.t.t.t.t.t.t.t. XO     .     2 s.t.t.t.t.t.t.t.t.t.t.y.H 9.t.e.t.t.t.t.i.v %XqX",
"qXx t.t.t.t.t.t.t.e.y.J y.e.t.t.t.t.t.t.t.9.y.w.              _ s.t.t.u.9.t.t.t.t.t.t.t.t.t.t.y./     o         p.t.t.t.t.t.t.t.t.q.t.t.@.;.y.e.t.t.t.t.t.} XXqX",
"qXs i.t.t.t.t.t.t.e.t.K i.e.e.t.t.t.9.t.t.e.s.;     .         O d.t.t.t.t.t.t.t.t.t.t.t.t.t.t.p.o               1 p.t.t.t.t.t.t.t.t.t.i.$.$.y.e.t.t.t.t.t. .n.qX",
"wXs i.t.t.t.t.t.t.t.1.I y.q.e.t.t.t.t.t.t.t.t.          o       ( y.t.t.9.t.t.t.t.t.t.t.t.t.p.^         .         s.t.t.9.t.t.e.t.t.t.t.1.@.y.q.t.t.t.t.e. .b.qX",
"8Xs p.t.t.t.t.t.t.y.;.#.t.t.t.t.t.t.t.t.e.d.%                   . i.t.t.t.t.t.t.9.t.t.t.t.u.p.                    : s.9.9.t.t.t.t.t.t.t.9.H i.t.t.t.9.t.t. .b.qX",
"wXd i.9.t.t.t.t.t.t.;.$.t.t.t.t.t.t.t.t.t.p.~ ( / ` { { { -.5.5.=.q.t.9.t.t.t.t.t.t.t.t.t.t.w.=.6.7.=.5.=.=.t _ ( ^ y.t.u.t.t.t.t.t.t.t.9.K p.t.t.t.t.t.t. .b.qX",
"qXs p.t.q.t.t.t.t.i.;.;.y.t.t.t.t.t.t.t.t.t.y.p.1.,.p.y.r.t.u.y.y.t.t.t.t.t.t.t.t.t.t.t.t.t.t.y.t.y.y.t.y.p.U y.y.y.t.t.t.t.t.t.t.t.t.t.t.J t.t.t.t.t.t.t.| n.qX",
"qXk y.t.t.t.t.t.t.t.%.<.t.t.t.t.q.t.t.t.t.t.e.y.$.;.y.t.e.q.t.9.e.t.t.t.t.t.t.t.t.t.t.9.t.t.t.9.t.t.t.t.e.p.J t.e.e.t.t.t.t.t.t.t.t.t.t.t.K i.9.t.t.t.t.i.[ .XqX",
"qXn y.e.t.t.t.t.t.t.%.1.y.t.t.t.t.t.q.t.t.t.t.t.$.:.t.t.t.t.t.t.t.t.t.t.t.t.t.t.t.t.t.t.t.t.t.t.t.t.t.t.t.y.G 9.e.t.t.t.t.t.t.t.t.t.t.t.t.H y.q.e.t.t.t.t.b $XqX",
"qXA t.e.t.t.t.t.t.t.%.<.t.e.t.t.t.t.t.t.t.t.t.y.#.<.t.t.t.t.t.t.t.t.t.t.t.t.9.t.t.t.t.u.t.t.t.t.t.t.t.t.t.p.H 9.t.q.t.t.t.t.t.t.t.t.t.t.t.J y.t.e.t.t.t.i.c =XqX",
"qXj.+.e.t.t.t.t.t.p.$.<.t.t.t.t.t.t.t.t.t.t.t.t.#.;.t.t.t.t.t.t.t.9.t.t.t.t.t.t.t.t.t.9.t.9.t.t.t.e.t.t.t.t.H 9.t.t.t.t.t.t.t.t.e.t.t.t.t.K i.e.t.t.t.t.p.z 1XqX",
"qX.X] y.t.t.t.t.t.t.$.;.y.q.t.t.t.t.t.t.t.t.t.t.#.:.p.t.t.t.t.t.t.t.t.t.t.t.t.t.t.t.t.t.t.t.t.t.t.t.t.t.t.t.H 9.t.t.t.t.t.t.t.t.t.t.t.e.t.K i.q.t.t.t.t.t.x qXqX",
"qX%Xc i.e.t.t.q.t.i.$.$.y.t.t.t.t.t.t.t.e.y.q.i.$.:.p.t.t.t.t.t.t.t.t.t.t.t.t.t.t.t.t.t.t.t.t.t.t.t.t.t.t.y.J t.t.9.t.t.t.t.t.t.t.t.t.e.q.K y.t.t.q.t.t.t.M qXqX",
"qX3Xl i.e.t.t.t.t.t.;.@.t.e.t.t.t.t.t.t.t.e.e.t.<.$.t.t.t.t.t.t.u.t.t.t.t.t.t.t.t.t.t.t.t.t.t.t.t.t.t.t.t.t.G t.t.t.t.t.t.t.9.9.t.t.q.y.9.K y.t.t.t.t.t.X.l.qXqX",
"qXqXn i.t.t.t.t.t.t.<.@.y.t.t.t.t.e.t.t.q.t.t.y.<.%.i.9.t.t.t.t.t.t.t.t.t.t.t.t.t.t.t.9.t.t.t.t.t.9.t.t.t.y.J i.t.t.t.t.p.t.u.t.t.t.e.t.9.H i.t.t.t.t.y.b +XqXqX",
"qXqXj.X.t.t.t.t.t.e.9.H i.t.t.q.e.t.9.a.y.e.t.t.2.%.i.9.t.t.t.9.t.t.t.9.9.t.t.t.t.t.t.t.t.t.t.e.e.e.u.y.t.t.H t.t.t.y.|., q p.t.t.t.e.y.<.@.t.t.t.t.t.t.z 3XqXqX",
"qXqX#Xv t.t.t.t.t.t.t.K i.e.t.t.t.y., + f.d.y.e.9.I p.9.t.t.q.s.u.y.y.y.y.t.e.t.t.t.t.t.t.y.y.a.d.d.q.^ y.9.H i.e.a.y.o X |.q.t.t.t.t.t.#.<.p.t.t.t.y.t.m qXqXqX",
"qXqX8Xd p.t.t.t.t.e.i.K e.t.t.t.t.t.d..   # { d.s.K t.t.9.u.u.` ( ) ( ( =.t.t.t.t.t.t.t.u.! ! , +       s.1.I s.d.>     p.r.t.t.t.t.t.t.H 9.t.t.t.t.t.| v.qXqXqX",
"qXqXqX>...t.t.t.t.t.i.K 2.e.q.t.t.t.y.-.      . q H s.d.s.u.d.            ! p.t.t.t.t.t.y.              8.4.u.q       Q p.t.t.t.t.t.t.i.J t.t.t.t.q.p.x <XqXqXqX",
"qXqXqX%Xc p.q.t.t.t.y.;.$.p.e.t.t.t.t.s.1           o > ~ 0.6.            > d.t.y.p.p.|.p.              = 2         o d.t.t.t.t.t.t.e.9.K t.t.t.t.t.+.F qXqXqXqX",
"qXqXqX0Xn t.t.t.t.t.t.9.K p.q.t.t.t.t.t.d.%                       o       O d.f.c.) ) ^ _         .                 0.t.t.t.t.t.t.t.t.<.@.p.t.t.t.y.b #XqXqXqXqX",
"qXqXqXqXn.C y.t.t.t.t.t.J e.e.t.t.t.t.t.t.d.@                 o o     o     . . o             o       o           q s.t.t.t.t.t.t.t.i.@.<.e.t.t.t.t.9 qXqXqXqXqX",
"qXqXqXqX0X9 t.t.t.t.t.p.H 2.y.t.t.t.t.t.t.t.d.:                                     o                     .     % d.t.t.t.t.t.t.t.t.t.J t.t.t.t.p.B .XqXqXqXqXqX",
"qXqXqXqXqX+Xv p.t.t.t.t.2.G p.q.t.t.t.t.t.t.u.|.!           : o o o     o                           o         @ p.e.t.t.9.t.t.t.t.e.9.H p.t.e.q.y.9 qXqXqXqXqXqX",
"qXqXqXqXqXqXg e.t.t.t.t.y.F t.y.t.t.t.t.t.9.t.t.s.7.O     $  Xp.d.w           .   .     O = % * , <         : d.t.t.t.t.t.e.t.t.9.s.H 1.t.t.t.p.a &XqXqXqXqXqXqX",
"qXqXqXqXqXqX1X6 a.t.q.t.i.I 1.t.q.t.t.t.t.t.t.t.t.y.d.3   : s.t.p.^                     Q |.a.s.d.5.      ^ s.t.t.t.t.t.t.t.t.9.t.t.u p.e.t.p.[ >.qXqXqXqXqXqXqX",
"qXqXqXqXqXqXqXn.j p.e.t.t.t.u p.t.t.t.t.t.t.t.t.t.t.p.W w.w.t.t.p.~                     1 p.t.t.t.p.@ & u.p.t.t.t.t.t.t.t.t.t.e.y.$.$.i.t.t.e.9 qXqXqXqXqXqXqXqX",
"qXqXqXqXqXqXqXqXY ] p.t.t.p.H <.t.t.t.t.t.t.t.t.t.9.t.9.S p.e.t.e.y.0.w.5./ ! 1 ; # + X 1 p.t.u.t.t.d.R p.9.t.t.t.t.t.t.t.t.e.t.p.u t.t.t.i.5 2XqXqXqXqXqXqXqXqX",
"qXqXqXqXqXqXqXqXqXr ] p.t.t.t.y p.e.t.t.t.t.t.t.t.t.t.p.A 2.t.t.t.t.t.t.y.y.p.p.d.|.d.|.s.t.t.9.t.p.L <.y.t.t.t.t.t.t.t.t.t.e.p.%.&.p.t.i.5 :XqXqXqXqXqXqXqXqXqX",
"qXqXqXqXqXqXqXqXqXqXF v a.t.t.$.@.p.t.t.t.t.t.t.t.t.t.t.t.u p.t.t.t.t.t.t.t.t.t.9.t.9.t.9.t.t.t.t.e.y p.t.t.t.t.t.t.t.t.t.t.e.t.y p.i.9.6 =XqXqXqXqXqXqXqXqXqXqX",
"qXqXqXqXqXqXqXqXqXqXqXh.f p.p.p.S 2.t.t.t.t.t.t.t.t.t.q.p.H 1.y.t.t.u.t.t.t.t.t.t.t.t.t.u.t.t.q.a.F 9.t.9.t.t.t.q.t.t.t.t.t.p.u 9.d.] 6 1XqXqXqXqXqXqXqXqXqXqXqX",
"qXqXqXqXqXqXqXqXqXqXqXqX$X6 C p.i.y t.t.t.t.t.t.t.t.t.t.t.i.y t.t.t.t.t.t.t.t.t.t.t.t.t.t.t.t.p.#.H p.t.t.t.t.t.t.t.t.t.e.p.@.<.9.a h.wXqXqXqXqXqXqXqXqXqXqXqXqX",
"qXqXqXqXqXqXqXqXqXqXqXqXqXwXl.8 v <.G t.t.t.t.t.t.t.t.t.t.y.1.F p.t.e.e.t.t.t.t.t.t.t.t.t.t.t.9.J i.t.t.e.t.t.t.t.t.t.t.p.$.0 x J *XqXqXqXqXqXqXqXqXqXqXqXqXqXqX",
"qXqXqXqXqXqXqXqXqXqXqXqXqXqXqX8X+X>.n s 9.p.9.t.t.t.e.e.e.t.a.N M p.y.q.t.e.t.t.t.t.t.t.t.i.t.d N p.y.q.e.q.t.t.q.e.t.p.B S b.,XqXqXqXqXqXqXqXqXqXqXqXqXqXqXqXqX",
"qXqXqXqXqXqXqXqXqXqXqXqXqXqXqXqXqXqXwX*X0 ] i.i.t.t.t.t.p.e.l z.n.x p.t.e.t.t.t.9.t.t.t.p.X.8 <Xc.8 X.i.i.y.e.y.p.p.X.a v.qXqXqXqXqXqXqXqXqXqXqXqXqXqXqXqXqXqXqX",
"qXqXqXqXqXqXqXqXqXqXqXqXqXqXqXqXqXqXqXqX0Xx.d B |  . .| l M $XqXqX+Xa X.p.i.t.t.t.t.i.p.V 0 1XqXqX&Xm x V  . .| V s Y <XqXqXqXqXqXqXqXqXqXqXqXqXqXqXqXqXqXqXqXqX",
"qXqXqXqXqXqXqXqXqXqXqXqXqXqXqXqXqXqXqXqXqXqX8X$Xv.g.g.m.*XqXqXqXqXqX,XS k [ ..9.e.X.[ 6 x.qXqXqXqXqXqX-Xm.g.g.x.+X<XqXqXqXqXqXqXqXqXqXqXqXqXqXqXqXqXqXqXqXqXqXqX",
"qXqXqXqXqXqXqXqXqXqXqXqXqXqXqXqXqXqXqXqXqXqXqXqXqXqXqXqXqXqXqXqXqXqXqXqX,Xl.L M F Y n.9XqXqXqXqXqXqXqXqXqXqXqXqXqXqXqXqXqXqXqXqXqXqXqXqXqXqXqXqXqXqXqXqXqXqXqXqX",
"qXqXqXqXqXqXqXqXqXqXqXqXqXqXqXqXqXqXqXqXqXqXqXqXqXqXqXqXqXqXqXqXqXqXqXqXqXqXqXqXqXqXqXqXqXqXqXqXqXqXqXqXqXqXqXqXqXqXqXqXqXqXqXqXqXqXqXqXqXqXqXqXqXqXqXqXqXqXqXqX",
"qXqXqXqXqXqXqXqXqXqXqXqXqXqXqXqXqXqXqXqXqXqXqXqXqXqXqXqXqXqXqXqXqXqXqXqXqXqXqXqXqXqXqXqXqXqXqXqXqXqXqXqXqXqXqXqXqXqXqXqXqXqXqXqXqXqXqXqXqXqXqXqXqXqXqXqXqXqXqXqX"
};
