/* XPM */
static char *rowan[] = {
/* columns rows colors chars-per-pixel */
"80 80 256 2 ",
"   c #0F0E07",
".  c #290401",
"X  c #30170C",
"o  c #362C0F",
"O  c #392D33",
"+  c #781100",
"@  c #4B3210",
"#  c #673405",
"$  c #493729",
"%  c #510E00",
"&  c #6F4A06",
"*  c #555230",
"=  c #6C5132",
"-  c #736736",
";  c #5E5E17",
":  c #6C534D",
">  c #6E6B51",
",  c #5C5E4F",
"<  c #881700",
"1  c #8F1100",
"2  c #8E2600",
"3  c #962702",
"4  c #933A06",
"5  c #AC3008",
"6  c #AC1B15",
"7  c #9B4804",
"8  c #845309",
"9  c #96520E",
"0  c #B45607",
"q  c #AC4F09",
"w  c #956D12",
"e  c #BC6804",
"r  c #B57918",
"t  c #AF6B0D",
"y  c #896B34",
"u  c #B2742A",
"i  c #925630",
"p  c #CE5108",
"a  c #CA7606",
"s  c #D2710E",
"d  c #E67808",
"f  c #ED790C",
"g  c #D1752A",
"h  c #F5762E",
"j  c #90754F",
"k  c #8E7368",
"l  c #B77960",
"z  c #7C805D",
"x  c #BD8F0E",
"c  c #B6B20F",
"v  c #AD892B",
"b  c #B6B42C",
"n  c #98A22A",
"m  c #CA8408",
"M  c #D88804",
"N  c #DA9706",
"B  c #DC9616",
"V  c #CF8F14",
"C  c #E78706",
"Z  c #F78903",
"A  c #E89905",
"S  c #F79904",
"D  c #E88916",
"F  c #EA9915",
"G  c #F99A16",
"H  c #F28811",
"J  c #CBA704",
"K  c #D9AA08",
"L  c #CCB407",
"P  c #DCB303",
"I  c #DAB907",
"U  c #D9A718",
"Y  c #C7B618",
"T  c #DBB617",
"R  c #C8AA16",
"E  c #EDA204",
"W  c #E6A906",
"Q  c #FCAD03",
"!  c #F7A707",
"~  c #E4B402",
"^  c #ECB402",
"/  c #E4BC02",
"(  c #ECBC03",
")  c #E7B90C",
"_  c #F3B402",
"`  c #FDB401",
"'  c #F4BC02",
"]  c #FBBC02",
"[  c #F2B40C",
"{  c #FCB30B",
"}  c #F3BA0B",
"|  c #FABB0B",
" . c #E9A716",
".. c #F9A817",
"X. c #ECB41D",
"o. c #E8B816",
"O. c #F3BA13",
"+. c #F9B717",
"@. c #C78A26",
"#. c #DB8725",
"$. c #D69725",
"%. c #CD9532",
"&. c #F49A27",
"*. c #E79535",
"=. c #EC9030",
"-. c #CAB92B",
";. c #D9B826",
":. c #D6AA36",
">. c #D8B637",
",. c #D0A929",
"<. c #E7A527",
"1. c #F6A928",
"2. c #E5B927",
"3. c #F8B926",
"4. c #E5A934",
"5. c #E9B937",
"6. c #F5B235",
"7. c #BBC41B",
"8. c #B9D61C",
"9. c #B1CD11",
"0. c #B7E917",
"q. c #B9D928",
"w. c #B5D531",
"e. c #B7E52B",
"r. c #BAE736",
"t. c #AEE729",
"y. c #DCC506",
"u. c #C5C817",
"i. c #D9C519",
"p. c #C9D111",
"a. c #E3C402",
"s. c #E9C608",
"d. c #FCC304",
"f. c #F5C608",
"g. c #E6C516",
"h. c #F7C417",
"j. c #EED206",
"k. c #C7C926",
"l. c #D8C928",
"z. c #C8D929",
"x. c #D7C337",
"c. c #C4DB38",
"v. c #D1D335",
"b. c #E6C527",
"n. c #F9C326",
"m. c #E3C739",
"M. c #EAD133",
"N. c #C6E52A",
"B. c #C5E739",
"V. c #CEF237",
"C. c #E1E431",
"Z. c #CAE40C",
"A. c #938D55",
"S. c #B59053",
"D. c #B7AE45",
"F. c #908B71",
"G. c #B19978",
"H. c #B7B571",
"J. c #D0994F",
"K. c #F49248",
"L. c #D9A746",
"P. c #DBB75D",
"I. c #D3AC4F",
"U. c #E8B747",
"Y. c #F7B846",
"T. c #E8B754",
"R. c #EEAE51",
"E. c #D8B070",
"W. c #E8B977",
"Q. c #E9B26D",
"!. c #D89A60",
"~. c #B6DB45",
"^. c #BAD350",
"/. c #B7E646",
"(. c #B3EB48",
"). c #DBC845",
"_. c #C5D847",
"`. c #D7D847",
"'. c #CCCF4D",
"]. c #F9C446",
"[. c #ECCC54",
"{. c #C6E846",
"}. c #D1EB53",
"|. c #DACC6F",
" X c #E9C767",
".X c #E6C678",
"XX c #F1D072",
"oX c #D8ED6F",
"OX c #F4E474",
"+X c #E7EF44",
"@X c #A4958A",
"#X c #B2AC95",
"$X c #B5AEAB",
"%X c #9A9A8A",
"&X c #C8AE9D",
"*X c #F4B589",
"=X c #C7B9AD",
"-X c #D9C695",
";X c #EACA8A",
":X c #EBD688",
">X c #E9D498",
",X c #F8D898",
"<X c #F5D08F",
"1X c #F8E78F",
"2X c #D1CBB1",
"3X c #F7D9A8",
"4X c #EED0AC",
"5X c #F9E7A8",
"6X c #FAE8B9",
"7X c #FDF2B8",
"8X c #EDE9AB",
"9X c #DBEABB",
"0X c #D5CECC",
"qX c #ECD9CD",
"wX c #DCF1D7",
"eX c #FAE9C9",
"rX c #FDF3CC",
"tX c #FBF7C8",
"yX c #E7E8D7",
"uX c #FAEBD6",
"iX c #E5F9DA",
"pX c #FDF4D3",
"aX c #FEFCD4",
"sX c #FDF4DB",
"dX c #FEFCDD",
"fX c #F3F7DA",
"gX c #E8EDC8",
"hX c #DEFCF1",
"jX c #ECEAE6",
"kX c #F9ECE6",
"lX c #EDFDED",
"zX c #ECF8E9",
"xX c #F5FEE4",
"cX c #FDFCE4",
"vX c #F4F4ED",
"bX c #FCF5EC",
"nX c #F4FDEC",
"mX c #FDFDEC",
"MX c #F7F4E3",
"NX c #FAECFA",
"BX c #EDF5F4",
"VX c #EBFCF4",
"CX c #EDF4FC",
"ZX c #EDFDFD",
"AX c #E4FAF9",
"SX c #F5F4F2",
"DX c #FCF4F5",
"FX c #F4FEF4",
"GX c #FDFDF4",
"HX c #F4F6FD",
"JX c #FEF5FE",
"KX c #F5FEFD",
"LX c #FDFDFD",
"PX c #ECE9F5",
"IX c #FCD6E1",
"UX c #B3C1A6",
/* pixels */
"LXLXLXLXLXLXLXLXLXLXLXLXLXLXLXLXLXJXJXLXGXFXFXFXGXGXGXLXLXFXVXxXxXGXLXJXJXLXGXcXdXxXnXFXFXKXKXGXFXLXJXJXJXJXLXLXGXGXGXGXGXGXGXGXLXLXLXLXKXLXKXLXLXLXLXLXLXLXLXLX",
"LXLXLXLXLXLXLXLXLXLXLXLXLXLXLXLXLXJXJXLXFXnXFXFXGXGXGXGXGXnXnXfXxXKXJXKXKXLXmXdXdXdXnXFXFXZXZXZXFXKXJXJXJXJXLXDXLXLXLXGXGXLXLXGXGXGXFXLXLXKXLXKXLXLXLXLXLXLXLXLX",
"LXLXLXLXLXLXLXLXLXLXLXLXLXLXLXLXLXJXJXGXmXxXFXKXLXmXGXmXGXKXFXFXGXKXJXLXKXFXmXxXmXbXJXLXLXFXFXZXKXKXKXGXcXbXJXJXJXJXJXLXJXLXLXJXLXGXGXGXnXFXmXGXLXLXLXLXLXLXLXLX",
"LXLXLXLXLXLXLXLXLXLXLXLXLXLXLXLXLXJXJXGXcXxXLXKXLXLXmXcXFXKXLXKXLXLXLXJXKXJXGXGXGXDXJXLXCXAXAXZXKXKXLXGXcXbXDXLXJXJXLXJXJXLXJXLXLXLXGXGXmXmXmXnXLXLXLXLXLXLXLXLX",
"LXLXLXLXLXLXLXLXLXLXLXLXLXLXLXLXLXLXLXGXdXmXKXJXLXKXmXmXGXLXLXLXJXLXLXLXJXJXJXJXJXJXLXLXFXMXnXGXKXLXLXJXGXGXmXmXGXLXJXKXLXKXJXLXLXLXLXLXGXGXGXGXLXLXLXLXLXLXLXLX",
"LXLXLXLXLXLXLXLXLXLXLXLXLXLXLXLXLXGXGXbXcXLXLXJXKXLXvXnXGXJXJXLXGXdXdXcXDXJXJXJXsXeX,X:XXXOX:X5XrXbXLXLXKXSXmXGXGXGXLXKXLXKXKXKXJXKXKXJXLXJXLXLXLXLXLXLXLXLXLXLX",
"LXLXLXLXLXLXLXLXLXLXLXLXLXLXLXLXGXGXmXmXGXLXJXLXLXKXLXvXSXJXMX4X>XXX|.-X4XpXmXdX1X Xo.^ ( ( o.5. X>XsXFXZXAXzXVXFXlXzXlXVXKXKXKXLXKXLXJXJXJXJXJXLXLXLXLXLXLXLXLX",
"LXLXLXLXLXLXLXLXLXLXLXLXLXLXLXLXLXmXmXGXLXLXLXLXLXLXLXSXkXrX5X>.-.>.>.-.x.[.OXOX[.T P s.d._ } ( T ).:XaXLXKXBXFXFXVXAXVXlXFXFXGXFXLXLXJXJXJXJXJXLXLXLXLXLXLXLXLX",
"LXLXLXLXLXLXLXLXLXLXLXLXLXLXLXLXLXnXnXGXLXJXLXGXGXGXLXLXgX.X>.) f./ g.f.( P P I y.a.s.( } } ( ( f.g.).:XsXLXJXHXKXKXKXFXlXnXnXxXnXmXGXGXLXJXJXLXLXLXLXLXLXLXLXLX",
"LXLXLXLXLXLXLXLXLXLXLXLXLXLXLXLXLXnXFXLXJXJXGXmXmXGXGXDX3XU.3.` d.d.' f.( } W K K h.h.^ O.h.^ [ f.b.>..XeXLXJXHXJXLXLXGXFXvXnXnXnXmXmXmXGXmXGXGXLXLXLXLXLXLXLXLX",
"LXLXLXLXLXLXLXLXLXLXLXLXLXLXLXLXLXZXZXKXJXJXbXcXmXGXbXeX;X4. .+.h.{ ` _ +.n.3.K A +.3.+.} } h.h.b.5.T.XX3XeXsXcXbXmXmXGXGXvXBXLXLXGXGXmXcXcXcXmXLXLXLXLXLXLXLXLX",
"LXLXLXLXLXLXLXLXLXLXLXLXLXLXLXLXLXFXZXKXJXJXGXbXLXLXcX6XQ.t 4 s s C Q d.+.+.! A B <.2.n.T J y.g.;.;.5.].Y.].[.OXXX-X4XMXKXJXDXJXJXJXLXJXGXmXmXmXGXLXLXLXLXLXLXLX",
"LXLXLXLXLXLXLXLXLXLXLXLXLXLXLXLXLXFXZXKXJXLXGXGXLXLXrX|.:.#.7 < 1 d Q ` ! A A A F V R ;.l.p.p.z.u.T T +.| } ) b.>.:.P.8XcXDXJXJXJXJXJXJXLXGXGXFXLXLXLXLXLXLXLXLX",
"LXLXGXGXGXLXLXLXLXJXJXLXLXLXJXLXLXHXHXGXMXMXBXGXmX4XP.U W ! A s a F S S ! ! ) a.[ W T M.c.z.e.r.e.z.z.i.s.) ) o.) o.1.6.6.T.;XaXbXJXJXJXKXzXhXlXLXLXLXLXLXLXLXLX",
"LXGXGXGXLXGXLXJXJXJXJXJXJXJXLXLXLXJXJXDXsXdXGXGXdX.X2._ ` ] ] ^ W  ...! { ' a.y.' | b.z.{.{./.}.B.N.z.i.g.h.X.) ~ ^ ] ] { +.1.U.W.>XuXDXKXVXhXVXKXLXLXLXLXLXLXLX",
"LXLXLXLXGXLXLXLXLXLXJXLXLXLXLXGXLXHXHXGXmXGXGXfX:X>.I } d.f.f./ ^ ! ..! Q ] g.s.) ) u.B.}.^.v t 7 w b L K O.+.[ f.j.a./ O.n.+.] O.3.1XsXJXKXlXlXLXLXLXLXLXLXLXLX",
"LXKXLXLXLXJXLXLXLXLXGXLXGXLXGXGXLXKXLXbX6X>X>XW.m.s.^ ^ ^ O.s.a./ W ! _ ^ ) s.) ~ K u.q./.b t 5 5 v x.2.K A G ..j.j.g.n.].4.A ] f.P T .XuXGXzXzXGXLXLXLXLXLXLXLX",
"LXLXJXLXLXLXLXLXGXGXGXmXGXmXGXLXKXLXLXeX X>.o.g.j./ ^ Q 1.4.4.I y.p.u.z.i.I K E ! O.) c 7.k.L C C U ;.<.=.f d ..j.a.K #.g 5 9 g.a./ ~ <.XXrXFXCXKXLXLXLXLXLXLXLX",
"LXJXLXLXLXLXLXLXGXnXmXxXnXGXFXLXLXVXfX,X6.Q E Q d.d.] { 1.K.R.;.9.0.t.N.B.l.T ) { | O.g.L u.g.~ W J x a f H G A ' } d 3 < 3 t b.y.a./ N D Q.rXLXGXHXLXFXLXLXLXLX",
"LXLXLXJXJXKXKXGXGXmXnXmXmXFXLXKXLXtXoX>.+.S p p H +.| ] +.6.>.C.N.0.t.e.c.{.B.c.T P ^ f.) P a.I s._ Q S Z ..X.M M F ..a 0 V 3.+.) ~ / ~ K Y.,XpXGXLXHXLXLXLXLXLX",
"JXLXLXLXLXJXKXLXGXFXGXFXLXKXKXKXLXaXoX;.n.1.p 1 2 7 M d.h.;.x.+X{.B.v.'._._.(.t.7.L W } h.h.| ) P W ' ` ] _ ! [ A N 2.3. .O.+...S N ^ / f.+.*.W.GXLXLXLXLXGXLXLX",
"LXLXLXLXLXLXLXLXFXHXLXKXHXHXLXLXJXNXeXT.W  .#.e 7 q N d.) Y x.'.[.u 7 + 9 I.oX/.b 2.3.+.{ +.[ K b.g.g.f.[ | d._ } O.g.T U U ..G ....{ ` _ _ A P.mXHXDXHXLXKXLXLX",
"LXLXLXLXLXLXLXLXCXHXLXLXLXLXLXJXkX4XQ.*.K I 2.2. .[ _ [ K ,.[.[.I.0 3 < 7 >.oXc.c B X...! ..! W g.i.i.n.3.1...O.s.j.g.2.2.4.1.......{ ` ` ! $.E.mXHXJXLXLXLXLXLX",
"JXLXGXLXLXKXLXKXHXHXKXLXLXJXLXDXqXR.E [ ) P I y.) K A E A @.XX[.5.=.#.m V ,.;.T B ..S C C A A E d.h.b.#.g 5 3 M / j.+. .F ..2.I P _ Q ! ! Y.5XcXGXKXGXLXLXLXLXLX",
"LXLXGXGXGXFXLXKXLXLXJXHXJXGXbXsX7Xm.~ d.d.^ ~ ) o.W A C M m <.T K  .) o.i.P N A S E C a d A N E [ O.<.a 3 < 4 B s.a.O...C S [ y.y.a.( ^ W 5.5XGXGXLXLXLXLXLXLXLX",
"JXLXLXGXGXmXKXLXLXHXJXJXLXcXtX7X1XM.I d.` Q Q { { +... .E _ f.j.a.y.a.a.y.' S S ! E A S Q _ A A  .6.n.X.~ A A h.o.K X.1.{ Q d.h.s.y.y.j.s.>.:XtXGXLXLXLXLXLXLXLX",
"LXLXGXmXcXmXFXLXCXNXHXJXGXaX8X.X[.i.I ( Q Q Q A N N F F S Q d.+.) P I j.j._ ! ! +.3.+.| h.O.[ +. .F N K g.l.g.M.l.l.m.n.} ' ' ^ O.2.X.j.g.;.T.3XGXLXLXLXLXLXLXLX",
"JXLXLXmXmXxXmXLXHXJXJXLXcX7X|.-.l.s.s.' { [ o.2.,.r D ! S S ..1.<.3.) ) g.T W  ...1.1.X.I ) g.f.{ ! M <.).`._._.{.}.}.).i.I / O.6.=.#...! 1.R.3XGXLXLXLXLXLXLXLX",
"LXJXLXGXmXmXnXGXLXLXGXbX7X.X>.T ) O.3.h.h.| [ X.B a a D G H G &.1.5.>.Y Y k.i.l.2.<.U b.g.a.f.d.| { N U B.}.}.r.w./.^.'.l.I / [ a 1 1 5 d 1.;XrXLXLXLXLXLXLXLXLX",
"LXJXJXLXGXFXFXFXCXBXnXaX:X:.3.h.! s s D W ] ! { ! ! a t K.=.&.! N I.|.|._.c.N.N.+XC.;.K ) I / { +.` A 9.e.r.w.~.(.(./.~.l.W ' } e 5 3 5 B *.-XGXGXLXLXLXLXLXLXLX",
"JXJXLXLXLXFXKXKXBXBXGXrX<XL.5.[ a 3 + 3 e ] f.s.W  .B t t K.g  .U 5X9X|.}.{.+Xr.N.8.M.;.K s.h.| ! S E y.p.e.{.{./.B.B.k.T W [ o.D K.=.K.R.E.qXLXLXLXLXLXLXLXLXLX",
"LXLXGXGXGXKXKXLXZXSXbXcXrX3XT.$.m 0 5 5 a [ i.8.7.k.b.g.a u v g T.8X2XH.D.b w.b r.8.`.:.U [ h.3. .S ..[ J u.v.w.q.k.Y P ~ ^ W V %.!.,XeXeXuXbXGXLXLXLXLXLXLXLXLX",
"LXGXmXmXGXLXLXLXKXSXvXDXGXdX3XQ.R.1.G G o.;.w._.{.B.z.C.l.%.$.V 5.>.).v & & ; ; 9.r.I.v V E ! ! F G ....[ J c c Y Y K N N m M N %.!.gXaXdXxXxXGXLXLXLXLXLXLXLXLX",
"LXGXmXmXGXLXLXLXKXKXLXJXJXLXmXrX5X1.A P 7.w.'.}.}.r.t.e.N.l.T n.| ^ W ^ x & w Y b c.v & a ..E A F ....G ..} i.g.5.6...F V s m E <.!.rXaXtXdXxXnXGXLXLXLXLXLXLXLX",
"LXLXGXGXGXGXGXLXKXLXHXHXKXJXJXbXpXR.Z N u.e.(././.~.r.t.N.C.M.K O.| [ [ [ O.+.n.T R # 9 U P J Y x.m.2.g.s.y.I ( +.......&.&.G S D I.3XdXnXlXzXvXLXLXLXLXLXLXLXLX",
"FXKXLXGXGXmXGXGXKXJXHXKXKXLXLXLXLX*X&.F i.z.r.t.}.'._.r.B.V.C.R 6.3.X.2.O.W { +.3.V q v l.u.8./.(.{.q.0.Z.Z.a.( ! Z Z Z S F G S C J.>XDXKXHXlXnXLXLXLXLXLXLXLXLX",
"FXFXLXLXGXmXmXGXJXHXKXKXKXKXKXKXLX<X=.D J 9.8.9.q.B.{.r.e.r.N.-.>.;.o.) } d.( X.T.r x U b.z.e./.(.t.r.t.t.N.M.T A S Z Z Z S A C &.;XsXLXJXNXJXJXLXLXLXLXLXLXLXLX",
"FXKXLXLXGXbXGXGXLXLXKXKXZXKXZXKXLX6X XU J L -.7.8.Z.e.{.B.8.8.x.>.T } ] ' ] g.x.v w L.5.b.`.v.q.B.v.v.~.(.(.}.x.K A Z Z S N M B  XpXLXKXNXNXJXJXLXLXLXLXLXLXLXLX",
"KXKXLXGXGXLXLXLXGXKXKXZXKXZXKXKXLXGXeXT.V N *.1.J 9.9.8.8.c R v L.G ! Q { +.n.Y.& u XXXX).`.v.l.<.R.%.,.r.~.^.D.,.<.F C #.*.R.[.,XbXKXLXKXJXDXJXLXLXLXLXLXLXLXLX",
"KXFXGXGXJXLXLXLXGXmXFXFXZXKXKXKXLXLXLX3XT.*.K.h M L c 9.7.-.m q s &.G C M m m @.i S.P.P.'.'.).a 3 6 6 r z.q.~.|.XX[.6.5.W.eXeXeXdXLXKXKXFXvXkXvXLXLXLXLXLXLXLXLX",
"LXFXbXGXLXJXLXLXGXnXnXFXKXKXLXLXGXSXDXbXeX3X4X*XQ..X3XgX9X>XJ.g q r %.L.D q 8 i i l l =.w n -.c & 4 q x L c b M.M.l.m.OX7XmXGXDXJXJXJXKXKXFXHXBXLXLXLXLXLXLXLXLX",
"GXLXGXLXLXJXLXLXLXKXFXFXLXLXJXJXKXMXvXLXLXJXNXkXkXDXLXLXKXBX4X4.a u i v R.%.= = k 4XQ.g 7 w c c c R L.,.R K P I L ;.m.).W.qXJXJXJXDXDXLXLXKXZXZXLXLXLXLXLXLXLXLX",
"GXKXLXLXJXLXJXLXLXKXKXKXGXLXLXJXJXbXcXSXCXCXJXLXbXaX8X1X8XsXeX>.X.F e 7 v P.y * #XSXS.9 e C S A X.&.1.o.I O.n.n...n.T ) $.*XuXLXKXbXcXcXGXFXCXHXLXLXLXLXLXLXLXLX",
"mXGXLXJXLXLXLXLXLXKXKXLXLXGXGXJXJXGXmXFXZXZXJXNX7X[.M.i.,.|.OX].N Z H *.w - A.- 2XyX- 8 #.S Z f Y.6.3.} j.) M q 4 F } ' D *XsXGXFXcXxXmXGXLXKXKXLXLXLXLXLXLXLXLX",
"GXLXLXLXLXJXLXLXLXLXLXLXLXLXGXLXLXJXHXKXZXLXHXeX[.j.f.h.O.O.h.n.J T.5XsX0Xk o j 8XA.- @XW.!.Q.3X5XU.o./ f.m 4 < 0 1.3.>. XeXcXGXKXKXGXLXLXLXJXLXLXLXLXLXLXLXLXLX",
"LXLXLXLXLXLXLXLXLXLXLXLXLXLXLXLXLXKXKXKXKXJXJX5XT t t D ..Q ` ^ ;.,XbXJXDXyX@Xj A.o G.MXkXuXkXkXcX XR i.s.^ A E n.].:.!.>XpXmXKXKXKXKXLXLXLXLXLXLXLXLXLXLXLXLXLX",
"LXLXLXLXLXLXLXLXLXLXLXLXLXLXLXLXLXGXGXLXJXJXNX6X<.7 < 1 5 d +. .:.5XLXJXJXLXyXF.@ ; 9XdXcXJXJXNXJXMX1Xx.J ) n.1.5.I.P.;X6XfXMXLXKXKXLXLXJXLXLXGXLXLXLXLXLXLXLXLX",
"LXLXLXLXLXLXLXLXLXLXLXLXLXLXLXLXLXGXcXvXSXJXNXuX XB p 5 5 h &.$.v gXJXJXPXPXPX@X* #XtXdXbXJXJXJXJXBX8XS.b [.[.L.I..X5XaXcXfXvXKXKXLXKXLXLXDXGXGXLXLXLXLXLXLXLXLX",
"LXLXLXLXLXLXLXLXLXLXLXLXLXLXLXLXLXnXzXiXiXzXLXmX7X1XW.G.E.<X,X,XA.%XwXKXLXGXyX#X$ =XJXJXKXKXFXzX2XF.F.2XuXeXtX5X8XrXcXcXMXvXLXKXLXKXLXLXLXGXGXGXLXLXLXLXLXLXLXLX",
"LXLXLXLXLXLXLXLXLXLXLXLXLXLXLXLXLXnXzXfXiXwXAXKXfXgXuXDXbXsXuXbXfXUX> z UXzXMX$XO 0XLXLXLXzX%X, > UXMXLXNXPXbXcXmXmXmXvXSXKXLXLXLXLXLXLXGXGXGXLXLXLXLXLXLXLXLXLX",
"LXLXLXLXLXLXLXLXLXLXLXLXLXLXLXLXLXmXmXcXfXiXhXAXlXiXBXJXNXLXDXbXLXFXwXF.* A.mX0XO $XLXGXMX%X, %XjXLXLXLXLXSXBXFXLXZXSXHXLXHXHXLXLXJXLXGXLXGXGXGXLXLXLXLXLXLXLXLX",
"LXLXLXLXLXLXLXLXLXLXLXLXLXLXLXLXLXGXbXmXxXnXZXZXFXKXCXNXJXJXjXNXLXLXGXLX#X, F.yXO @XiXtXz , 2XLXLXKXPXHXLXKXKXZXKXKXCXKXLXHXSXLXLXLXGXLXLXLXKXLXLXLXLXLXLXLXLXLX",
"LXLXLXLXLXLXLXLXLXLXLXLXLXLXLXLXLXJXJXJXGXDXGXLXGXLXJXJXJXJXJXJXJXGXGXJXJX2X= > : G.qXA.* =XLXGXzXBXLXGXDXGXKXKXLXKXLXLXLXLXJXGXGXLXGXLXLXLXKXLXLXLXLXLXLXLXLXLX",
"LXLXLXLXLXLXLXLXLXLXLXLXLXLXLXLXLXJXJXLXLXLXDXLXDXJXJXJXNXJXLXJXLXGXGXDXJXLX2Xo : G.A.; #XLXLXFXyXvXJXLXGXLXLXLXJXLXJXLXLXDXDXGXGXGXJXGXKXKXKXKXLXLXLXLXLXLXLXLX",
"LXLXLXLXLXLXLXLXLXLXLXLXLXLXLXLXLXJXLXJXLXGXGXGXLXLXLXGXGXGXKXLXLXGXmXGXDXJXjX@X: : O G.bXLXSXvXvXLXJXJXKXLXLXLXLXLXJXGXGXGXGXGXDXGXGXLXLXKXKXKXLXLXLXLXLXLXLXLX",
"LXLXLXLXLXLXLXLXLXLXLXLXLXLXLXLXLXLXJXLXJXLXGXFXFXZXAXVXvXnXFXKXKXGXGXvXNXJXLXNX: o @XjXGXMXjXGXKXKXKXLXJXLXJXLXLXJXGXLXDXbXGXDXGXGXLXLXLXLXLXLXLXLXLXLXLXLXLXLX",
"LXLXLXLXLXLXLXLXLXLXLXLXLXLXLXLXLXGXLXJXJXJXGXnXFXVXZXAXAXlXlXGXLXGXJXDXDXLXLX0X> @ 2XLXbXMXvXLXKXCXSXKXKXLXLXLXLXLXLXGXGXGXGXGXGXLXGXGXLXLXLXLXLXLXLXLXLXLXLXLX",
"LXLXLXLXLXLXLXLXLXLXLXLXLXLXLXLXLXmXbXLXJXJXLXbXFXKXZXKXZXnXnXmXGXJXLXGXBXvXyX> * o 2XKXmXmXGXKXKXBXKXLXHXHXKXKXKXLXLXLXLXLXLXGXLXGXGXLXGXGXGXGXLXLXLXLXLXLXLXLX",
"LXLXLXLXLXLXLXLXLXLXLXLXLXLXLXLXGXnXxXFXKXLXLXLXLXLXKXLXLXnXmXFXGXLXLXzXiXnXjX> o o 2XGXmXmXGXLXKXLXVXKXFXKXKXKXFXKXKXKXKXFXKXLXGXGXGXGXLXGXGXLXLXLXLXLXLXLXLXLX",
"LXLXLXLXLXLXLXLXLXLXLXLXLXLXLXLXLXGXnXGXLXJXJXLXJXJXLXLXFXnXnXKXFXKXFXFXnXmXLXvX@ X $XGXbXGXGXnXGXVXVXBXFXGXLXKXKXKXKXKXKXLXKXKXLXLXLXLXGXGXJXGXLXLXLXLXLXLXLXLX",
"GXLXLXLXLXLXLXLXLXLXLXLXLXLXLXLXLXGXGXJXJXJXJXKXKXKXKXZXFXlXnXVXFXLXKXKXFXSXNXSXy X #XGXGXJXNXuXmXhXAXKXbXFXLXLXLXLXLXLXLXLXLXLXLXLXLXLXLXLXLXLXLXLXLXLXLXLXLXLX",
"LXLXLXLXLXLXLXLXLXLXLXLXLXLXLXLXLXGXGXLXLXLXKXKXKXKXKXFXFXnXFXGXKXKXLXGXzXjXLXDXj X &XGXJXJXDXsXMXVXAXKXLXLXLXLXLXLXLXLXLXLXLXLXLXLXLXLXLXLXLXLXLXLXLXLXLXLXLXLX",
"LXLXLXLXLXLXLXLXLXLXLXLXLXLXLXLXGXmXmXmXGXLXLXLXLXLXKXGXGXGXGXLXLXJXLXLXvXnXLXDXk X $XLXHXHXGXuXrXMXSXHXLXJXLXLXLXLXLXLXLXLXLXLXLXLXLXLXLXLXLXLXLXLXLXLXLXLXLXLX",
"LXLXLXLXLXLXLXLXLXLXLXLXLXLXLXLXLXGXnXmXGXLXKXLXLXGXGXGXbXGXGXLXJXJXJXDXbXGXLXSXk X &XLXKXKXbXqXeXsXbXGXDXHXLXLXLXLXLXLXLXLXLXLXLXLXLXLXLXLXLXLXLXLXLXLXLXLXLXLX",
"LXLXLXLXLXLXLXLXLXLXLXLXLXLXLXLXLXLXFXFXKXLXLXLXGXGXGXmXbXGXGXJXJXJXLXkXkXcXBXSXj @ #XeXbXKX0X4XuXuXdXMXDXGXLXLXLXLXLXLXLXLXLXLXLXLXLXLXLXLXLXLXLXLXLXLXLXLXLXLX",
"LXLXLXLXLXLXLXLXLXLXLXLXLXLXLXLXLXKXKXKXKXLXLXJXGXDXbXbXmXmXbXGXLXKXLXkXqXyXFXSXA.# !.;XqXqX=XqXkXcXfXMXDXLXLXLXLXLXLXLXLXLXLXLXLXLXLXLXLXLXLXLXLXLXLXLXLXLXLXLX",
"GXLXLXLXLXLXLXLXLXLXLXLXLXLXLXLXLXKXKXKXKXKXLXLXLXGXDXGXbXmXGXGXGXLXLXcX4X2XGXyXy & S.Q.3X4X&XkXkXMXiXvXKXLXLXLXLXLXLXLXLXLXLXLXLXLXLXLXLXLXLXLXLXLXLXLXLXLXLXLX",
"LXLXLXLXLXLXLXLXLXLXLXLXLXLXLXLXLXKXKXKXKXJXLXLXJXLXGXGXLXGXLXGXLXKXnXaX:XE.tX-Xy # u R.Q.R.*XeX4XyXBXAXHXHXLXLXLXLXLXLXLXLXLXLXLXLXLXLXLXLXLXLXLXLXLXLXLXLXLXLX",
"LXLXLXLXLXLXLXLXLXLXLXLXLXLXLXLXJXKXLXKXLXKXLXLXLXLXKXHXHXKXKXKXKXKXFXtX:XT.XX.X- = t *...1.Q.E.qXwXhXAXCXKXKXLXLXLXLXLXLXLXLXLXLXLXLXLXLXLXLXLXLXLXLXLXLXLXLXLX",
"LXLXLXLXLXLXLXLXLXLXLXLXLXLXLXLXLXLXLXLXGXLXGXLXLXLXJXHXCXCXHXKXKXKXGX3XXXY.$.R.i = i g 1.F @.-XzXlXVXZXAXZXLXJXLXLXLXLXLXLXLXLXLXLXLXLXLXLXLXLXLXLXLXLXLXLXLXLX",
"LXLXLXLXLXLXLXLXLXLXLXLXLXLXLXLXLXGXGXmXmXGXmXGXFXKXKXJXJXKXKXLXLXKXbXuX<X=.Z =.- $ # q f g R.pXBXLXJXCXAXZXLXLXLXLXLXLXLXLXLXLXLXLXLXLXLXLXLXLXLXLXLXLXLXLXLXLX",
"LXLXLXLXLXLXLXLXLXLXLXLXLXLXLXLXLXGXGXmXmXmXnXFXGXKXKXKXHXJXJXLXmXmXcXMX4XK.&.=.j X . % + 9 *XLXLXKXNXJXZXKXLXLXLXLXLXLXLXLXLXLXLXLXLXLXLXLXLXLXLXLXLXLXLXLXLXLX",
"LXLXLXLXLXLXLXLXLXLXLXLXLXLXLXLXJXLXLXGXGXGXGXFXFXKXKXHXNXDXbXcXaX6X,X*XK.h h =.i   X X . . * &XqXIXNXNXGXGXLXLXLXLXLXLXLXLXLXLXLXLXLXLXLXLXLXLXLXLXLXLXLXLXLXLX",
"LXLXLXLXLXLXLXLXLXLXLXLXLXLXLXLXLXLXJXLXLXLXFXKXKXKXLXHXGXbXdX7X<XT.*.d f f f =.9 . .         o J.!.*XeXdXmXLXLXLXLXLXLXLXLXLXLXLXLXLXLXLXLXLXLXLXLXLXLXLXLXLXLX",
"LXLXLXLXLXLXLXLXLXLXLXLXLXLXLXLXLXJXLXJXKXKXKXKXKXKXKXKXGXsX3XE.%.@.F Z f f d D a @         o 8 m &.=.I.;XrXLXLXLXLXLXLXLXLXLXLXLXLXLXLXLXLXLXLXLXLXLXLXLXLXLXLX",
"LXLXLXLXLXLXLXLXLXLXLXLXLXLXLXLXLXLXKXKXKXKXKXKXKXKXKXHXGXbXeX;XP.%.@.A S Z S Z f d a a e e M S S S M D U.>XGXLXLXLXLXLXLXLXLXLXLXLXLXLXLXLXLXLXLXLXLXLXLXLXLXLX",
"LXLXLXLXLXLXLXLXLXLXLXLXLXLXLXLXLXKXKXKXKXLXKXLXKXKXKXKXLXbXMXpX6X,X.XU.U  .F F H H H Z Z Z S G F B 4.[.<X7XGXLXLXLXLXLXLXLXLXLXLXLXLXLXLXLXLXLXLXLXLXLXLXLXLXLX",
"LXLXLXLXLXLXLXLXLXLXLXLXLXLXLXLXLXFXGXGXmXmXmXGXGXLXKXKXCXFXLXLXGXbXsXrXtXeX7X6X6X3X3X3X3X3X6X6XeXrXpXMXmXGXLXLXLXLXLXLXLXLXLXLXLXLXLXLXLXLXLXLXLXLXLXLXLXLXLXLX",
"LXLXLXLXLXLXLXLXLXLXLXLXLXLXLXLXLXLXGXbXmXcXcXcXcXmXvXzXKXKXKXCXPXJXLXLXLXKXKXKXKXGXLXLXLXLXLXJXHXHXCXAXAXAXLXLXLXLXLXLXLXLXLXLXLXLXLXLXLXLXLXLXLXLXLXLXLXLXLXLX",
"LXLXLXLXLXLXLXLXLXLXLXLXLXLXLXLXLXLXLXLXLXLXLXGXLXLXLXLXLXKXLXLXKXLXLXLXLXKXLXLXLXLXLXLXLXLXLXGXKXKXLXKXLXLXLXLXLXLXLXLXLXLXLXLXLXLXLXLXLXLXLXLXLXLXLXLXLXLXLXLX"
};
