/* XPM */
static char *tree[] = {
/* columns rows colors chars-per-pixel */
"80 80 253 2 ",
"   c #59210E",
".  c #702F12",
"X  c #79371A",
"o  c #7B2D26",
"O  c #6C392C",
"+  c #793926",
"@  c #7A3C33",
"#  c #79491E",
"$  c #7C4424",
"%  c #7C432B",
"&  c #78462A",
"*  c #794532",
"=  c #724C34",
"-  c #73364E",
";  c #8A351A",
":  c #B43E1E",
">  c #843B29",
",  c #893933",
"<  c #F63303",
"1  c #F73A01",
"2  c #934B13",
"3  c #AB5111",
"4  c #996912",
"5  c #B46F14",
"6  c #854429",
"7  c #834C2C",
"8  c #8A4C2D",
"9  c #92502B",
"0  c #844C33",
"q  c #854A37",
"w  c #8A4D32",
"e  c #924933",
"r  c #865139",
"t  c #AD502B",
"y  c #A36B33",
"u  c #D25510",
"i  c #EA4905",
"p  c #FD4301",
"a  c #F44C01",
"s  c #F74807",
"d  c #FA4B02",
"f  c #ED5401",
"g  c #EA5809",
"h  c #F45402",
"j  c #FB5301",
"k  c #FC5D00",
"l  c #F75608",
"z  c #F35C0C",
"x  c #FC5B0B",
"c  c #EB4B17",
"v  c #F94A17",
"b  c #E95716",
"n  c #F75817",
"m  c #FC5C14",
"M  c #D16B12",
"N  c #EB6709",
"B  c #F76604",
"V  c #FD630C",
"C  c #F46C0D",
"Z  c #FD6B0C",
"A  c #E97806",
"S  c #FC7302",
"D  c #F47D03",
"F  c #FC7B01",
"G  c #F77608",
"H  c #FC7C0A",
"J  c #EB6818",
"K  c #F46313",
"L  c #FC6413",
"P  c #F46B15",
"I  c #FB6B14",
"U  c #F6641C",
"Y  c #FC631B",
"T  c #F46B1C",
"R  c #FD6C1C",
"E  c #EA7818",
"W  c #F97716",
"Q  c #D45A22",
"!  c #EA5A28",
"~  c #FB5B27",
"^  c #EE5230",
"/  c #D3722C",
"(  c #EA6726",
")  c #F86826",
"_  c #E97427",
"`  c #F87826",
"'  c #E96A35",
"]  c #F76736",
"[  c #EA7736",
"{  c #F87837",
"}  c #854F47",
"|  c #956454",
" . c #AF694C",
".. c #9A7366",
"X. c #AB7D6F",
"o. c #D56A4C",
"O. c #EA7944",
"+. c #EE714B",
"@. c #F67A48",
"#. c #F67956",
"$. c #F0756A",
"%. c #B98214",
"&. c #DA8912",
"*. c #EA8707",
"=. c #F48402",
"-. c #FD8502",
";. c #FD8A01",
":. c #FB840B",
">. c #F48808",
",. c #FC8B0B",
"<. c #EA9707",
"1. c #F79606",
"2. c #EA8816",
"3. c #F38414",
"4. c #FC8414",
"5. c #FC8C13",
"6. c #F68919",
"7. c #FD8C1B",
"8. c #EA9619",
"9. c #FA9213",
"0. c #FC931D",
"q. c #F79A19",
"w. c #DBAF12",
"e. c #EAA905",
"r. c #FCA402",
"t. c #F4AB02",
"y. c #FDAC02",
"u. c #F7A709",
"i. c #ECB706",
"p. c #F4B302",
"a. c #FCB202",
"s. c #F7B907",
"d. c #FDB30C",
"f. c #EDA616",
"g. c #FEA514",
"h. c #FCAC14",
"j. c #F7A819",
"k. c #E9B417",
"l. c #F7B517",
"z. c #D48E26",
"x. c #E98925",
"c. c #F68727",
"v. c #FB8B23",
"b. c #E99626",
"n. c #F89726",
"m. c #E58C37",
"M. c #F88936",
"N. c #EA9739",
"B. c #F89838",
"V. c #DEAE30",
"C. c #E9AC26",
"Z. c #F8A727",
"A. c #F8B627",
"S. c #E8A639",
"D. c #F8A838",
"F. c #F7B639",
"G. c #E3CA07",
"H. c #F5C23A",
"J. c #9B8662",
"K. c #AF8974",
"L. c #DB904F",
"P. c #EA8A47",
"I. c #F78747",
"U. c #EA9B43",
"Y. c #F79947",
"T. c #E98D55",
"R. c #F58B58",
"E. c #FA9A59",
"W. c #EBA746",
"Q. c #F6A747",
"!. c #EEB34F",
"~. c #F8B648",
"^. c #F9A55A",
"/. c #F9B655",
"(. c #D4926F",
"). c #F78969",
"_. c #F59769",
"`. c #EE9073",
"'. c #F59877",
"]. c #DAB76F",
"[. c #E9A86B",
"{. c #F9A767",
"}. c #ECB86B",
"|. c #F7B769",
" X c #E9A67B",
".X c #F6A879",
"XX c #E8B479",
"oX c #F8B979",
"OX c #D6C244",
"+X c #F5C551",
"@X c #F3CB6B",
"#X c #F7C577",
"$X c #B79289",
"%X c #B5A291",
"&X c #C99B89",
"*X c #F59888",
"=X c #C7AA8C",
"-X c #C4A697",
";X c #F7AA88",
":X c #EAB487",
">X c #F8B889",
",X c #EDAE97",
"<X c #F6B997",
"1X c #CDB0AA",
"2X c #C9B9B5",
"3X c #F4B8A6",
"4X c #F4B6B3",
"5X c #EBCD8F",
"6X c #F8C588",
"7X c #ECC796",
"8X c #F7C897",
"9X c #FAD797",
"0X c #FFE095",
"qX c #D8C9B8",
"wX c #E6CFAD",
"eX c #F6C9A8",
"rX c #F7D9AA",
"tX c #F9C9B7",
"yX c #EBD6B7",
"uX c #F8D8B7",
"iX c #F5E9B0",
"pX c #F8E5BA",
"aX c #FCB6D1",
"sX c #D3CECF",
"dX c #F1CECE",
"fX c #EBD6C6",
"gX c #F9D9C5",
"hX c #FAD8D8",
"jX c #FAE7C7",
"kX c #F1EFCC",
"lX c #EAE4DA",
"zX c #F9E8D7",
"xX c #FAF5D9",
"cX c #F6DCE6",
"vX c #EBE9E3",
"bX c #F7E8E7",
"nX c #EBFBEA",
"mX c #F8F6E6",
"MX c #FCF4EC",
"NX c #F4FCEB",
"BX c #FDFCED",
"VX c #EFEFF6",
"CX c #FAECF8",
"ZX c #E7FBF8",
"AX c #ECFEFE",
"SX c #F9F4F4",
"DX c #F4FEF4",
"FX c #FCFDF4",
"GX c #F4F5FD",
"HX c #FDF5FD",
"JX c #F4FEFD",
"KX c #FEFEFE",
"LX c white",
/* pixels */
"LXLXLXLXLXLXLXLXLXLXLXLXLXLXLXLXLXLXLXLXLXLXLXLXLXLXLXLXLXLXLXLXKXFXHXKXKXKXHXGXAXSXFXGXbXAXGXpX5XVXKXFXFXLXLXLXLXLXLXLXLXLXLXLXLXLXLXLXLXLXLXLXLXLXLXLXLXLXLXLX",
"LXLXLXLXLXLXLXLXLXLXLXLXLXLXLXLXLXLXLXLXLXLXLXLXLXLXLXLXLXLXLXLXLXLXKXLXKXDXnXFXKXKXFX}.=.tXhXF G bXKXKXJXKXLXLXLXLXLXLXLXLXLXLXLXLXLXLXLXLXLXLXLXLXLXLXLXLXLXLX",
"LXLXLXLXLXLXLXLXLXLXLXLXLXLXLXLXLXLXLXLXLXLXLXLXLXLXLXLXLXLXLXLXLXKXLXFXKXSXFX,XMXHXHXc.S >.8.=.T.gXgXLXFXLXLXLXLXLXLXLXLXLXLXLXLXLXLXLXLXLXLXLXLXLXLXLXLXLXLXLX",
"LXLXLXLXLXLXLXLXLXLXLXLXLXLXLXLXLXLXLXLXLXLXLXLXLXLXLXLXLXLXLXLXKXJXJXFXHXJXvX^ < ;X] a Y <.=.;.B.x.D |.vXLXLXLXLXLXLXLXLXLXLXLXLXLXLXLXLXLXLXLXLXLXLXLXLXLXLXLX",
"LXLXLXLXLXLXLXLXLXLXLXLXLXLXLXLXLXHXLXKXKXLXKXKXLXLXKXLXLXLXLXLXLXHXFXFXHXZXNX;Xa ] g j H 7.A I V 4.2.xXAXLXLXKXKXLXLXKXLXLXKXLXKXLXLXLXLXLXLXLXLXLXLXLXLXLXLXLX",
"LXLXLXLXLXLXLXLXLXLXLXLXLXFXHXLXZXDXHXNXBXLXBXBXKXKXKXLXLXLXLXLXKXFXKXKXmXh 1 v a j n m Z :.` P z 3XJXKXZXLXFXDXFXKXHXKXLXKXFXKXKXLXLXLXLXLXLXLXLXLXLXLXLXLXLXLX",
"LXLXLXLXLXLXLXLXLXLXLXLXLXJXHXBXKXjXcXJXJXJXKXFXKXLXKXLXLXLXLXLXLXLXHXFXLXhX*Xg a c h x Z T ) z { _.) ) :XLXLXKXKXJXDXKXKXKXLXKXKXKXKXLXLXLXLXLXLXLXLXLXLXLXLXLX",
"LXLXLXLXLXLXLXLXLXLXLXLXLXJXAXJXeXW B.xXKXLXFXKXFXJXLXLXLXLXLXLXLXmXKXHXDXGXtX' I._ ;X>X+.m T J U B N ! zXFXFXFXFXFXKXKXSXGXJXKXLXFXKXLXLXLXLXLXLXLXLXLXLXLXLXLX",
"LXLXLXLXLXLXLXLXLXLXLXLXLX;X^.eX9XF =.fX^.}.yXLXFXKXKXLXLXLXLXLXLXNXHXKXKXyX|.|.jXb.=.( @.N B J Y m 9XvXCXFXAXZXKXFXJXSXfXmXFXLXKXKXKXLXLXLXLXLXLXLXLXLXLXLXLXLX",
"LXLXLXLXLXKXKXKXLXLXLXJXKX:XE *.6.:.0.I.=.A jXHXAXFXKXKXHXLXKXKXKXFX}.NXFX<X:.2.n.M.9..X/.A._.) U z $.AXMXAXpXN.eXLXW.A 7XBXSXLXJXKXKXLXLXLXLXLXLXLXLXLXLXLXLXLX",
"LXLXLXLXLXLXKXFXJXLXmXJXJX9Xg I -.,.3.Z c.uXJXAXAXHXSXHXBXMXGXAXJX:XS m.pXS -.b.8.8.8.6.y.Z.kXF.j.jXbXCXAXJX8X;.S <X=.G .XAXLXBXNXKXKXLXLXLXLXLXLXLXLXLXLXLXLXLX",
"LXLXLXLXLXLXLXJXAXLXO.n T._.v h >.4.W V l 3X).T  XmXJXZXKX*X`.bXzX` V 3.*.-.4.;.>.r.s.k.a.l.H.r.w.SX;Xc _.gX! g *.2.>.8.<X>.Y.CXHXHXLXLXLXLXLXLXLXLXLXLXLXLXLXLX",
"LXLXLXLXLXLXJXMXBXKXdX( a U s m ) I I C J M.n k R.KXMXFXGX+.s ( { p N ,.-.>.H E >.Q.F.g.j.A.e.j.KXHX6Xi s #.j z ;.=.x.m A =.^.CXBXDXJXLXLXLXLXLXLXLXLXLXLXLXLXLX",
"LXLXLXLXLXLXKXGXZXHX4X`.p s c n N N Y T ` B N >XJXGXAX4X3XXXp c m j ) 4.` W B I.8X8X+Xu.f.l.t.f.b.] @.v i i h ) 4.c.T V [ zXAXAXFXmXLXLXLXLXLXLXLXLXLXLXLXLXLXLX",
"LXLXLXLXLXLXHXJXGXrXi < g a a I.eX@.j B x Y m m <XnXJX<X< 1 d ^ i B Y Z ` I l P.zXdXkXxXuXkXgXpXCX] s Q h a j V A ) V P P.3X#.uXnXKXFXKXKXKXLXLXJXLXLXLXLXLXLXLX",
"LXLXLXLXLXLXFXKXHXLXGXcX`.+.R.1.( O._.{ _.[ E |.SXDXGXHXzXR.p v ' [ Y J U L W I.l p  XJXFXwXJXXXR.KX*Xc ) ` 4XI.m V C P R g h M.JXHXFXKXJXJXJXHXHXLXLXLXLXLXLXLX",
"LXLXLXLXLXLXKXKXKXFXZXzX,X@XgXP.9.^.A.G.+XiXr.H.HXGXnXmXfX).4Xb.B.^.[ J N ) K z E #.hXtX^.6XuXD =.Q.3X3XW.v.{ T B m ) T B @.oXgXJXHXLXLXJXKXSXHXLXLXLXLXLXLXLXLX",
"LXLXLXLXLXLXKXHXJXDXGXMXv.D :.f.2.1.v.u.Z.F.t.5XKXGXNXbX0.8.9XS.;.@.;Xc.) ] B B <XLXNX6XA E {.2.-.b.4.n.D.<.P.6XQ.R.Y B k { CXKXeXkXAXjX[.|.MXZXDXLXLXLXLXLXLXLX",
"LXLXLXLXLXKXKXJXKXHXnXFXnXuX0.9.u.p.h.d.u.k.i.A.@XKXvXKX5Xb.;.5.c.c.Z.d.>X;XW R.[ bXKXbX}.C B <.` 4.1.b.6.7.8.y.i.}.hX1.XX3XhXvX3.D gXQ.S 8.KXAXMXKXLXLXLXLXLXLX",
"KXKXLXHXJXJXBXKXJXAXDXHXjX4.&.m.5.g.p.Z.i.g.h.D.eXz O.pX<XY.0.n.j.q.s.e.9XS.i.rXBXQ b hXT.C k 7.v.<.<.0.0.j.r.u.e.6XZ.y.@.hXLX}.) 2.-.7.2.eX>XrXKXLXLXLXLXLXLXLX",
"BXJXFXFXKXKXFXKXFXHXGXBXbXgX5XxX'.x.u.d.q.n.N l ! i `.gXM.f.b.<.p.a.Z.y.d.e.H.MXtXd N ) _ N R H 4.c.` 4.8.s.t.j.h.p.d.D.1 1 .X1 p 4.6.6.;.{ A -.tXLXLXLXLXLXLXLX",
"LXKXKXFXFXLXKXJXKXJXMXHXnXyXoXM.#Xn.,.N i s c.h b d ] :XyXxXn.<XrXa.a.p.t.t.8XDXLXzXJ A C J ) T j ~ g 0.A A h.t.p.1.1.n.T j u z ) 4.-.H S ) :X7XMXLXLXLXLXLXLXLX",
"FXHXJXZXBXJXZXJXzXtXKXGXHXzXv.D *.8.,.:.W ( z i j N 4X>X=.M.NXAXOX~.A.@XZ.l.n.W.[.B -.4.~ K n { T.z l c d G 9.}.9X8Xc 1 i n j l V P H E ~ K zXyXMXHXGXHXKXLXLXLX",
"BXFXJXMXXX6XzX6XA 2.uXLX8XL.bX4XY.A 3.4.W N Z @.rXS B.#X9.B.8Xq.>XJXeXVXKXLXn.A N.E.E N._.W 2.) XXE.g 1 +.n +.aXzX>XuX3Xp d p @.J Y I T L ` _ h ) vXKXDXKXLXLXLX",
"LXKXAXMX` =.&.8XI H uXxXg n P W G P ~ L W R V M.' T 9.1.8.9.;.x.uXGXi ! eX+.v W G ;.=.^.M.,.!.Y.;.c.pX`.Y.6.pXjXE -.uX,X`.[.2..X*Xm A V J ) g C [.LXLXKXKXLXLXLX",
"BXJXNXKXGXY.6.F S ) g { M.Y C -.2.eX! M J J V ~ M.#Xf.9.n.i.9.oXSXFXO.s { v h H ,.H H G ,.;.n.v.G ^.!.Q.4.4.c.n.E S.|.B.[.6X6.D ).Y.n h T C _ LXGXLXLXLXKXLXLXLX",
"HXFXbXD.6.b.=.7.=.D ] n N I I b ).uX;XI.U g J J @Xp.Z.u.h.p.9X.X{ b ] a h ^ z ` 5.W K L v.g.d.u.n f C B i J 3.>.4.Y.3.<.3.5.6.Z.D.l./.tXL _ ) :XKXKXLXLXLXLXLXLX",
"KXFXGX].S S W F 9.E Z Y J N z x Z.y.W j L B B #.hX+Xq.d.h.p.z.uX;X' c n i p V M C ) U ) c.D >.g.L a ] c n G 5.2.W V W v.n.8.q.<.g.a.~.eXi.@XKXBXZXKXLXLXLXLXLXLX",
"FXGXSXAXJXz 1 m ) ) x k ) n |.fX#Xi.u.Z.j.j { Q.t.t.i.i.j.y.9XSXAXjXb ) J XX<XZ m T P C L L V d f d g z K T -.W _ n 9.b.0.u.h.k.h.u.w.Z.k.@XHXSXSXLXLXLXLXLXLXLX",
"FXBXJXKXhX(.@.i b k ).{.z #XA.y.H.j.h.e.C.tXNXiX/.6XC.y.k.M 9 GXrX.X<XtXn.A _ ^ L K N ) ) t o._.~ a s c N J m V J _ ;Xn.l.r.h.s.u.h.p.p.+XMXFXAXGXLXLXLXLXLXLXLX",
"KXSXSX:X1 p a l 1 d .XW { |.f.Z.d.u.u.p.@XAXHXHXKXMXh j jX .M (.mX=.2.>XI.1.|./.B.#.( m B u O  .$.R.` *X4XW b ~ U J 1.u.p.u.l.j.Z.3.K u.9.uXDXNXKXLXLXLXLXLXLXLX",
"FXHXJXJXwX4X+.d g d '.n.8.6.>.j.r.r.y.A.GXS.C.5XlXgX( i .Xj v : 2XuXb.8.6.v.>.a.C.jXB.x.eXzX(.M M.gXe.=.) _ N B U -.*.j.j.s.s.8X_.N ) C B g lXGXmXLXLXLXLXLXLXLX",
"DXKXSXAXHXT.s v {.` ^.|.f.<.n.s.k.9XW.tXLX.XA B p s +.s p a Z 2 z.v.9.0.u.l.e.l.j.@Xy.e.LXJXxX6.q.U.W.0.Q./.~.,X) -.q.t.d.1.d.Q._ R N E E.4XLXAXAXLXLXLXLXLXLXLX",
"ZXKXeX#.*X+.s ] `.|.2.<.M.n.,.n.z.yXW.-.c.Y.H *.m b j z d v ] O.M n.{.<.A.A.a.q.j.r.k.MXmXLXLXy 9.6.>.6.8.l.w.rX/.W c.e.2.7.{._ ( n ) K n >XP.^.xXLXLXLXLXLXLXLX",
"CXZXNX+.d g h d { !.Y.9.r.g.,.!.jXbXbX6.9.b.c.;.4.W ) x #.C N.zXb.j.E _.jX@Xe.t.e.a.e.+XSXMXD.;.n.9.j.h.g.d.l.d.j.j.[ 1./.W.S 8X{ U D S ) S ,.U.BXGXnXJXKXHXJXKX",
"NXJXMXI.P v l ' :XH <.B.n.f.i.F.sXvXKXwX^.W I ( 7.I L C tX_ E Z.U.6.c.2.e.@XzX8XrX@XuXxXJXFXHX].3 2./.+Xs.u.g.i.i.2 o.b.W.I.T ' z m v.9.>.6.{.7XyXhXhXHXKXNXFXKX",
"uX` =.n b 3.V P I.! @Xg.r.i.Z.h.5 ;  .1.=.W K n I L ` J g '.S.>.0.q.<.M.3 @ 2XKXgXGXnXHXHXJXAXsXu 1.|.7XS.a.p.a.g.s.D.7X.Xn v v z d v Z ,.-.D -.=.5.xXZXNXKXHXFX",
"ZXgXY.>.,.5.S L ) N M.#X@Xu.e.s.W.O t 9 XXMXeX` ) N n J -.~.g.6.Z.s.q.n.[.e . e wXZXZXFXlXU.*.O.C W Z.gXXX<.5 t 1XfX<.v.8.n v N h T n V ;.G T W S fXbXhXNXFXKXSX",
"zXT.2.-.-.C ) x B K ( _.a.u.+Xf.jXHX$XX o  .[ ` >.6.C 5.6.<.u.s.g.8.9XiXmXLXK.> ; &XLXJXLXW.F D <.E x.2.,.C 5 sXxXoXq.u.q.T =.W 1 ).` S W 6.*.>.<.*.F 6.<XFXJXKX",
"6XV.W.>XZ ` O.E./ n k I.iXpXLXzXAXKXFXHX1XM g @.7.-.:.4.` D.~.>.V G 1.@XNXDXLX$X; ; 9 (.tXhXR.V W *.5.H a `.LXJXFXyX8Xa.d.8.<.>XR.B G ~ ) 5.W H W oXn.eXKXFXJXKX",
"HXJXLXM.=.@XJXc a ;XuX7XDXGXKXJXLXKXKXJXJXKX7X/ N 1.3.H T N E W Y P rXLXLXHXLXJ.X = Q B g g B C W v.4.h l #.>X,X;X+X#X1.r.y.i.l.B.n n R R k J z A U.fXJXKXFXKXKX",
"BXFXGXZXkXLXGX*X6XbXAXbXHXLXXX`.HXFXLXKXNXbX<.D 4.*.>.>.R m B P T K @.P.lXhXJ.. * * Q I J ( K I R L R x d [ < < '.jXe.h.l.u.F.#X3XB ` M B I.[.gXc.F 6XFXGXFXHXLX",
"BXKXKXKXKXFXJXJXKXJXnX#.1 :Xl 1 hXyX7XzXHXBXlX:Xp x W v.W ` C J R L V _ . ; > - = } 3 N Y T K I J J U i l l c 3XJXkX5Xp.s.j.d.~.P.B z j J Y '.gX8XrXmXJXAXJXMXLX",
"KXKXDXKXKXKXAXKXNXLXGXyX@.1 v h v ,XM.*.xX<.;XxXz i x P V n Z R m ! E j.A.4 O % + $ ' z L L m L ) J u n s 1 g i #.rXrXt.1.+X+Xi.D.P.c.#XP.n ` J p {.ZXJXjXHXNXJX",
"LXKXLXLXKXKXKXjXY.N.@.1 d n l d W XX#X>.=.<.>.z ).b f z ! {.( E 2.<.o.~.i.&.b.5 = O $ j.5.Q [ n.u L >.M.c s u u  .hXKXHX+X[.2 s.r.s.y.F.K ( K ) c.gXuX6.3.DXNXFX",
"LXLXLXLXKXKXKXAXeX=.-.N H x N ,X_.W x.8.q.q.c.{ v v s a E.`.J M j.d.l.l.e.A.d.5 @ - z.l.i.5 i.l.b.9.2.z.5 u : . + . . } 9 , / l.g.u.|.uX_.g N L E g K W .XjXJXJX",
"KXLXLXKXKXDXmX^.B.>.,.3.6.m W ` ' >Xj.q.d.h.rX9X_ s v ^ E q.8.9.6.q.a.j.f.y.8.w # 9 4 h.t.j.j.r.8.x.n.v.>.9.5XlXqX-X-X%X-XyX+Xd.a.p.k.a.B.n I V 6.A ) 6.b.S N.yX",
"KXLXLXKXSXKXqXY.` [.>.C Z W ( N B B.a.9.s.e.y.n.b Q o.g 3 M n.6.j.d.u.k.p.A.3 4 2 / A.r.e.s.i.s.d.t.9.B.rXtXHXHXKXKXKXKXJXHX#X9Xt.A.x.D._.T { l ) 1.W <.n._.eXKX",
"KXLXLXKXJXHXJXKXgXc.D W z E ) L n ;XiX@X1.k.i.M > 6  .*XW.>.9.9.8.Z.&.t s.2 } -XmX* M b.l.h.d.b.<.<.2.4.U.JXMXBXJXKXFXFXDXNXXXn.n.9.1.<.E ;XI.K V S n D >.tXJXJX",
"KXLXKXKXLXLXKXFXjX2.{.FX3XO.f B b ` r.r.Z.t.k.1XjXLXKXSXcXrXzXc.0.M 2.t 2 1XJXLXLXK.O 4 6 %.C.z.t D.xX{.}.fXKXFXKXLXHXJXDXDXSXS.3.n.>.#X#XE p b s ] ^ |.Y.}.NXJX",
"LXLXKXLXLXLXFXDXHXSXJXDX) j M.uXb jXkXkXxXW.LXLXLXAXAXOX+XjXK.1.x.o y 2XFXKXHXGXLX1X2 4 $ } 9 # o hXJXLXAXNXKXSXKXLXLXKXxXHXKXb.W.jXG B.(.v j f p ' tXJXAXAXJXHX",
"LXLXLXLXLXLXLXKXJXJXDXKXbXxXHXHXKXnXFXdXmXLX_ gXuXu.+XA.e.a.M 3 } sXLXLXZXAXFXJXJXiXO @ + 6 r = @ lXLXSXKXHXKXKXLXLXLXKXLXKXJXVXLXLXkXfXcXgX< $.,Xc ).SXJXKXGXLX",
"LXLXLXLXLXLXKXFXKXLXHXKXGXLXLXJXAXgXz B +.E.z ~ n.H.1.e.f.a.w.qXKXLXKXJXKXFXKXKXKXbX. & @ & 9 6 ; sXLXBXKXLXKXKXLXLXKXKXKXFXFXJXJXJXZXFXFXmX*XeXKXJXJXZXFXKXAXFX",
"LXLXLXLXLXLXHXKXKXLXDXFXLXJXBXLXJXJX).E B l Z V ).J.w.y.s.u.Z.W.pXJXKXLXHXKXLXKXKXkX+ * + 0 r $ o 2XLXDXKXLXLXLXLXLXKXKXKXFXKXKXJXKXFXHXHXAXKXNXHXFXMXJXHXKXKXHX",
"LXLXLXLXLXLXLXLXLXLXLXLXKXNXnXB.Y.wXuX{ { ) B P L ~.y.g.j.e.+XjXpXLXLXLXLXLXLXLXHXVXo $ * 0 r % + 2XLXFXLXLXLXLXLXLXLXLXLXLXLXLXLXLXLXLXLXLXLXLXLXLXLXLXLXLXLXLX",
"LXLXLXLXLXLXLXLXLXLXLXLXKXHXVX*.D S d ~ Y J C J B 8Xn.8.n.t.u.E :XFXLXLXLXLXLXLXJXbXo $ * 0 q X + sXLXFXKXLXLXLXLXLXLXLXLXLXLXLXLXLXLXLXLXLXLXLXLXLXLXLXLXLXLXLX",
"LXLXLXLXLXLXLXLXLXLXLXLXKXDXDXeX>XG 2.E -.I ) {  XT 0.>.b.b.>.E.zXLXLXLXLXLXLXLXKXbXo $ & q 0 + > vXLXFXKXLXLXLXLXLXLXLXLXLXLXLXLXLXLXLXLXLXLXLXLXLXLXLXLXLXLXLX",
"LXLXLXLXLXLXLXLXLXLXLXKXKXhXx.*.*.F 2.=.5.I L l aXH 8.6X5.v.~.S Y.LXLXLXLXLXLXKXJXbX+ # * w % % X LXKXFXKXLXLXLXLXLXLXLXLXLXLXLXLXLXLXLXLXLXLXLXLXLXLXLXLXLXLXLX",
"LXLXLXLXLXLXLXLXLXLXLXHXLXxX;XN.6XB.=.Z m m n h a z 5X<X&.8.JXbXyXKXKXLXLXLXLXLXKXvXX $ * w 7 $ e LXKXKXKXKXLXLXLXLXLXLXLXLXLXLXLXLXLXLXLXLXLXLXLXLXLXLXLXLXLXLX",
"LXLXLXLXLXLXLXLXLXLXLXLXLXFXHXJXtXS =.c < ] g l s c $.*XXXjXFXJXKXKXLXLXLXLXKXKXJXfXX @ 0 8 7 &  .LXKXKXJXKXLXLXLXLXLXLXLXLXLXLXLXLXLXLXLXLXLXLXLXLXLXLXLXLXLXLX",
"LXLXLXLXLXLXLXLXLXLXLXLXLXDXHXKX7XE.5XHXrX[ 1 o.h 1 4XLXmXDXGXGXGXKXLXLXLXLXLXKXKXqX+ $ 7 8 7 @ | LXKXHXKXLXLXLXLXLXLXLXLXLXLXLXLXLXLXLXLXLXLXLXLXLXLXLXLXLXLXLX",
"LXLXLXLXLXLXLXLXLXLXLXLXLXJXKXKXKXJXJXKXHX! < bX<Xs eXJXJXKXKXLXKXKXLXLXLXLXLXKXLX-X+ % w 7 9 * 8 LXFXKXJXKXLXLXLXLXLXLXLXLXLXLXLXLXLXLXLXLXLXLXLXLXLXLXLXLXLXLX",
"LXLXLXLXLXLXLXLXLXLXLXLXKXmXJXHXFXFXKXFXBXwXxXJXJXlXJXHXHXLXFXKXKXKXLXLXLXLXLXKXLXX.+ 6 r 7 9 + X LXLXLXKXKXLXLXLXLXLXLXLXLXLXLXLXLXLXLXLXLXLXLXLXLXLXLXLXLXLXLX",
"LXLXLXLXLXLXLXLXLXLXLXLXKXLXLXKXBXHXKXKXKXJXJXHXHXFXKXJXKXLXKXKXJXKXLXKXKXLXKXKXLX* + 7 8 8 8 0 + sXLXGXKXKXLXLXLXLXLXLXLXLXLXLXLXLXLXLXLXLXLXLXLXLXLXLXLXLXLXLX",
"LXLXLXLXLXLXLXLXLXLXLXLXLXLXLXLXLXLXLXLXLXLXLXLXLXLXLXLXLXLXLXLXLXKXKXKXKXKXLXLXfXo $ & 8 e r 6 $ K.LXGXKXLXLXLXLXLXLXLXLXLXLXLXLXLXLXLXLXLXLXLXLXLXLXLXLXLXLXLX",
"LXLXLXLXLXLXLXLXLXLXLXLXLXLXLXLXLXLXLXLXLXLXLXLXLXLXLXLXLXLXLXLXLXKXKXKXKXKXKXLXX.* $ 7 8 0 0 w & } LXGXJXLXLXLXLXLXLXLXLXLXLXLXLXLXLXLXLXLXLXLXLXLXLXLXLXLXLXLX",
"LXLXLXLXLXLXLXLXLXLXLXLXLXLXLXLXLXLXLXLXLXLXLXLXLXLXLXLXLXLXLXLXLXLXKXKXJXDXFXlX+ & 0 e w 8 q 8 6 o lXKXJXLXLXLXLXLXLXLXLXLXLXLXLXLXLXLXLXLXLXLXLXLXLXLXLXLXLXLX",
"LXLXLXLXLXLXLXLXLXLXLXLXLXLXLXLXLXLXLXLXLXLXLXLXLXLXLXLXLXLXLXLXLXLXHXKXHXHXLX| 6 & w e w 7 r 7 2 + %XKXJXLXLXLXLXLXLXLXLXLXLXLXLXLXLXLXLXLXLXLXLXLXLXLXLXLXLXLX",
"LXLXLXLXLXLXLXLXLXLXLXLXLXLXLXLXLXLXLXLXLXLXLXLXLXLXLXLXLXLXLXLXKXFXKXKXKXKXqX; > $ w e 8 8 8 7 > $ X.LXKXLXLXLXLXLXLXLXLXLXLXLXLXLXLXLXLXLXLXLXLXLXLXLXLXLXLXLX",
"LXLXLXLXLXLXLXLXLXLXLXLXLXLXLXLXLXLXLXLXLXLXLXLXLXLXLXLXLXLXLXLXKXKXLXKXLXKX* > 6 8 w w 8 8 9 r @ X -XLXJXLXLXLXLXLXLXLXLXLXLXLXLXLXLXLXLXLXLXLXLXLXLXLXLXLXLXLX",
"LXLXLXLXLXLXLXLXLXLXLXLXLXLXLXLXLXLXLXLXLXLXLXLXLXLXLXLXLXLXLXLXLXJXKXHXLX$X> 6 6 0 8 8 7 7 9 r + X 1XLXJXLXLXLXLXLXLXLXLXLXLXLXLXLXLXLXLXLXLXLXLXLXLXLXLXLXLXLX",
"LXLXLXLXLXLXLXLXLXLXLXLXLXLXLXLXLXLXLXLXLXLXLXLXLXLXLXLXLXLXLXLXLXAXCXDXfXo * 7 w 8 8 0 8 8 8 = & . gXKXHXLXLXLXLXLXLXLXLXLXLXLXLXLXLXLXLXLXLXLXLXLXLXLXLXLXLXLX",
"LXLXLXLXLXLXLXLXLXLXLXLXLXLXLXLXLXLXLXLXLXLXLXLXLXLXLXLXLXLXLXLXLXHXJXMX+ > + = w 8 8 8 8 7 9 r * X &XKXKXLXLXLXLXLXLXLXLXLXLXLXLXLXLXLXLXLXLXLXLXLXLXLXLXLXLXLX",
"LXLXLXLXLXLXLXLXLXLXLXLXLXLXLXLXLXLXLXLXLXLXLXLXLXLXLXLXHXKXFXKXLXFXBX} , 6 0 0 8 w w w 8 8 8 7 % @ = LXLXLXLXLXLXLXKXHXLXLXLXLXLXLXLXLXLXLXLXLXLXLXLXLXLXLXLXLX",
"LXLXLXLXLXLXLXLXLXLXLXLXLXLXLXLXLXLXLXLXLXLXLXLXLXLXKXLXKXLXKXJXLXFX= @ @ 7 w 8 w 8 8 8 8 8 w 8 , , o 1XqX(.=X-X1XqXvXHXLXLXLXLXLXLXLXLXLXLXLXLXLXLXLXLXLXLXLXLX",
"LXLXLXLXLXLXLXLXLXLXLXLXLXLXLXLXLXLXLXLXLXLXLXLXLXLXKXFXKXKXJXKXLX} > > & & w 9 w w w w w 8 q = 6 > q .   9 X.$XsXlXVXJXLXLXLXLXLXLXLXLXLXLXLXLXLXLXLXLXLXLXLXLX",
"LXLXLXLXLXLXLXLXLXLXLXLXLXLXLXLXLXLXLXLXLXLXLXLXLXLXKXFXKXHXJXLX..O + > 7 = w 8 w w w r w w * # * ..$X1XSXLXLXKXKXKXFXKXLXLXLXLXLXLXLXLXLXLXLXLXLXLXLXLXLXLXLXLX",
"LXLXLXLXLXLXLXLXLXLXLXLXLXLXLXLXLXLXLXLXLXLXLXLXLXLXLXKXKXKXKX-X. . 7 w 6 & & & + + % 6 % % X ; X ..2XlXHXHXKXHXKXKXJXHXLXLXLXLXLXLXLXLXLXLXLXLXLXLXLXLXLXLXLXLX",
"LXLXLXLXLXLXLXLXLXLXLXLXLXLXLXLXLXLXLXLXLXLXLXLXLXLXKXKXJXKXfX  } $X* . r q $X-X=XK.X.| q | 1XlXFXLXLXLXLXLXKXLXKXLXLXKXLXLXLXLXLXLXLXLXLXLXLXLXLXLXLXLXLXLXLXLX",
"LXLXLXLXLXLXLXLXLXLXLXLXLXLXLXLXLXLXLXLXLXLXLXLXLXLXKXKXJXHX$X-XLXLXKXLXLXLXKXJXJXLXLXKXLXLXJXLXHXLXLXLXLXLXLXLXLXLXLXLXLXLXLXLXLXLXLXLXLXLXLXLXLXLXLXLXLXLXLXLX"
};
