/* XPM */
static char *tree2[] = {
/* columns rows colors chars-per-pixel */
"80 80 256 2 ",
"   c #2C0501",
".  c #390402",
"X  c #3B270F",
"o  c #460700",
"O  c #560700",
"+  c #491701",
"@  c #4B1B00",
"#  c #551A03",
"$  c #571617",
"%  c #690601",
"&  c #7B0603",
"*  c #691904",
"=  c #75140E",
"-  c #582405",
";  c #53260E",
":  c #672706",
">  c #702D0E",
",  c #683719",
"<  c #6B382B",
"1  c #774915",
"2  c #794930",
"3  c #8C0E0E",
"4  c #871907",
"5  c #961606",
"6  c #A91608",
"7  c #B71A05",
"8  c #892808",
"9  c #972707",
"0  c #973805",
"q  c #8E3111",
"w  c #A62709",
"e  c #A73607",
"r  c #B83507",
"t  c #AF2E12",
"y  c #BA3A14",
"u  c #811421",
"i  c #B03327",
"p  c #CD1B1B",
"a  c #E91A06",
"s  c #C82604",
"d  c #D62706",
"f  c #C63707",
"g  c #D73507",
"h  c #C63017",
"j  c #D73A15",
"k  c #F82504",
"l  c #EF310D",
"z  c #E53B08",
"x  c #ED2C24",
"c  c #934C13",
"v  c #B84909",
"b  c #AB540E",
"n  c #A64717",
"m  c #B74A17",
"M  c #B8551A",
"N  c #9A6713",
"B  c #B16D12",
"V  c #965827",
"C  c #904C30",
"Z  c #B3502A",
"A  c #986730",
"S  c #B16B31",
"D  c #C84807",
"F  c #CF4C08",
"G  c #D85809",
"H  c #C74816",
"J  c #DA4816",
"K  c #C95617",
"L  c #D55616",
"P  c #E74705",
"I  c #E85704",
"U  c #FD570B",
"Y  c #E64816",
"T  c #F54D12",
"R  c #E95815",
"E  c #D86609",
"W  c #C77809",
"Q  c #D5740C",
"!  c #CA6519",
"~  c #D86719",
"^  c #D97819",
"/  c #E86706",
"(  c #F66705",
")  c #FD6A04",
"_  c #FA6D0B",
"`  c #E87707",
"'  c #FC7809",
"]  c #E76919",
"[  c #F86A14",
"{  c #E8761B",
"}  c #FA7314",
"|  c #F8781A",
" . c #CC5329",
".. c #E44929",
"X. c #EA5929",
"o. c #C96628",
"O. c #CF6E2F",
"+. c #D4682B",
"@. c #C87835",
"#. c #D87935",
"$. c #E66728",
"%. c #E67A28",
"&. c #FB7C25",
"*. c #F06F33",
"=. c #925044",
"-. c #946E4E",
";. c #B1744D",
":. c #A6725B",
">. c #CC784D",
",. c #CF6754",
"<. c #E87652",
"1. c #BA9527",
"2. c #D9890A",
"3. c #DB8917",
"4. c #D59412",
"5. c #EA8808",
"6. c #FB8A07",
"7. c #E79A05",
"8. c #F79909",
"9. c #E98817",
"0. c #F88817",
"q. c #E79818",
"w. c #FA9718",
"e. c #DBAB12",
"r. c #EAA80A",
"t. c #FCA209",
"y. c #E9BA06",
"u. c #F6B306",
"i. c #E7A616",
"p. c #F8AA17",
"a. c #E5B715",
"s. c #F4B515",
"d. c #D98729",
"f. c #D4922B",
"g. c #D78537",
"h. c #E5872D",
"j. c #FA8627",
"k. c #FC832C",
"l. c #E99726",
"z. c #F99826",
"x. c #FC8B37",
"c. c #E89336",
"v. c #FA9538",
"b. c #D9AC2C",
"n. c #E8A727",
"m. c #FBA529",
"M. c #E7B924",
"N. c #FAB528",
"B. c #EAA43B",
"V. c #FAA837",
"C. c #F9B83A",
"Z. c #CFCD12",
"A. c #F0CB13",
"S. c #F3E919",
"D. c #D7C926",
"F. c #F2D02B",
"G. c #F6F027",
"H. c #9A8A5D",
"J. c #B68952",
"K. c #B18F70",
"L. c #D18A4E",
"P. c #D69C48",
"I. c #D89756",
"U. c #EC8E49",
"Y. c #FB9646",
"T. c #E89859",
"R. c #FC9C53",
"E. c #F79759",
"W. c #D9A550",
"Q. c #E8AD4E",
"!. c #F9A848",
"~. c #F8B847",
"^. c #EAA856",
"/. c #F8A657",
"(. c #FDA35B",
"). c #FBB959",
"_. c #C68C68",
"`. c #D3966A",
"'. c #E7966D",
"]. c #D0AB6D",
"[. c #D8A779",
"{. c #FAA663",
"}. c #FCAB6B",
"|. c #EBB066",
" X c #FABA67",
".X c #E7A976",
"XX c #F8AD75",
"oX c #ECB57A",
"OX c #FDB276",
"+X c #F8B977",
"@X c #FCB57B",
"#X c #FCBA7C",
"$X c #FBC54E",
"%X c #FEC45A",
"&X c #FAC866",
"*X c #FAC878",
"=X c #FED376",
"-X c #F1F17A",
";X c #9E7984",
":X c #B49F8D",
">X c #D1AA89",
",X c #D7B489",
"<X c #DAB697",
"1X c #EDB08F",
"2X c #E9B889",
"3X c #F7B685",
"4X c #FDBB84",
"5X c #FDBE8B",
"6X c #E1A194",
"7X c #F8BA96",
"8X c #D4C794",
"9X c #FBC987",
"0X c #FEC38C",
"qX c #FCD689",
"wX c #EACB93",
"eX c #FDC493",
"rX c #F8C997",
"tX c #FCCA95",
"yX c #FDCC9C",
"uX c #FBD598",
"iX c #FDD29C",
"pX c #F9E799",
"aX c #DBC4AE",
"sX c #E8C7A5",
"dX c #FDCDA2",
"fX c #F8C8A8",
"gX c #FDD2A4",
"hX c #FDDBA4",
"jX c #FED5AC",
"kX c #F5D8A9",
"lX c #FDDBAD",
"zX c #EDD1B0",
"xX c #FED6B3",
"cX c #F5DCB3",
"vX c #FEDBB3",
"bX c #F7D7B8",
"nX c #FED6BA",
"mX c #F5DDBA",
"MX c #FDDCBA",
"NX c #EEE7AD",
"BX c #F6E2AC",
"VX c #FDE2AB",
"CX c #EBE5B7",
"ZX c #F5E2B3",
"AX c #FCE2B4",
"SX c #F7E8B7",
"DX c #FDE3BB",
"FX c #FDEABD",
"GX c #EADECE",
"HX c #FCDBC2",
"JX c #FAD8C5",
"KX c #FEE3C3",
"LX c #FEEBC3",
"PX c #F5EEC9",
"IX c #F8E8C8",
"UX c #FFEBCB",
/* pixels */
"vXvXvXvXvXvXvXvXvXvXvXvXvXvXvXvXvXvXvXvXvXvXvXvXvXvXvXvXvXvXvXvXvXvXvXvXvXvXvXvXvXvXvXvXvXvXvXvXvXvXvXvXvXvXvXvXvXvXvXvXvXvXvXvXvXvXvXvXvXvXvXvXvXvXvXvXvXvXvXvX",
"vXvXvXvXvXvXvXvXvXvXvXvXvXvXvXAXvXvXvXvXvXvXvXvXvXvXvXvXAXvXvXvXvXvXvXvXvXvXvXvXvXvXvXvXvXvXvXvXvXvXvXvXvXvXvXvXvXvXvXvXvXvXvXvXvXvXvXvXvXvXvXvXvXvXvXvXvXvXvXvX",
"vXvXvXvXvXvXvXvXvXvXvXvXvXvXvXvXvXvXvXvXvXvXvXvXvXvXvXvXvXvXvXvXvXvXvXvXvXvXvXvXvXvXvXvXvXvXvXvXvXvXvXvXvXvXvXvXvXvXvXvXvXvXvXvXvXvXvXvXvXvXvXvXvXvXvXvXvXvXvXvX",
"vXvXvXvXvXvXvXvXvXvXvXvXvXvXvXvXvXvXvXvXvXvXvXvXvXvXvXvXvXvXvXvXvXvXvXvXvXvXvXvXvXvXvXvXvXvXvXvXvXvXvXvXvXvXvXvXvXvXvXvXvXvXvXvXvXvXvXvXvXvXvXvXvXvXvXvXvXvXvXvX",
"vXvXvXvXvXvXvXvXvXvXvXvXvXvXvXvXvXvXvXvXvXvXvXvXvXvXvXvXvXvXvXvXvXvXvXvXvXvXvXvXvXvXvXvXvXvXvXvXvXvXvXvXvXvXvXvXvXvXvXvXvXvXvXvXvXvXAXvXvXvXvXvXvXvXvXvXvXAXvXvX",
"vXvXvXvXvXvXvXvXvXvXvXvXvXvXvXvXvXvXvXvXvXvXvXvXvXvXvXvXvXvXvXvXvXvXvXvXvXvXvXvXxXvXvXvXvXvXvXvXlXvXvXvXvXvXvXvXvXvXvXvXvXvXvXvXvXvXvXvXvXvXvXvXvXvXvXvXvXvXvXvX",
"vXvXvXvXvXvXvXvXvXvXvXvXvXvXvXvXvXvXvXvXvXvXvXvXvXvXvXvXvXvXvXvXvXlXjXvXvXcXlXhXAXmXxXAXlXlXvXMXlXjXlXlXvXcXvXvXvXvXvXvXvXvXvXvXvXvXvXvXvXvXvXvXvXvXvXvXvXvXvXvX",
"vXvXvXvXvXvXvXvXvXvXvXvXvXvXvXvXvXvXvXvXvXvXvXvXvXvXvXvXvXvXvXvXjXZXxXvXvXxXZXhXZXmXAXvXmXvXvXvXMXHXZXmXvXxXvXvXvXvXvXvXvXvXvXvXvXvXvXvXvXvXvXvXvXvXvXvXvXvXvXvX",
"vXvXvXvXvXvXvXvXvXvXvXvXvXvXvXvXvXvXvXvXvXvXvXvXvXvXvXvXvXvXvXvXjXBXcXDXCXKXmXVXBXfX<XJXKXDXvXlXxXvXxXvXlXlXcXvXvXvXvXvXvXvXvXvXvXvXvXvXvXvXvXvXvXvXvXvXvXvXvXvX",
"vXvXvXvXvXvXvXvXvXvXvXvXvXvXvXvXvXvXvXvXvXvXvXvXvXvXvXvXvXvXvXvXcXcXDX7XuX,.MXvXsXO % % 2XDXcXlXkXkXjXxXmXCXvXvXvXvXvXvXvXvXvXvXvXvXvXvXvXvXvXvXvXvXvXAXvXvXvXvX",
"vXvXAXvXvXvXvXvXvXvXvXvXvXvXvXvXvXvXvXvXvXvXvXvXvXvXvXvXvXvXlXxXZXbXMX'...a &XpXfX& w r q FXcXvXxXCXFXFXxXfXvXvXvXvXvXvXvXvXvXvXvXvXvXvXvXvXvXvXvXvXvXvXvXvXvXvX",
"vXvXvXvXvXvXvXvXvXvXvXvXvXAXvXvXvXvXvXvXvXvXvXvXvXvXvXvXvXvXvXvXvXxXxX0Xd 6.D.-XvX3 F P m yXMXnXKXDXXX+.I { DXlXvXvXvXvXvXvXvXlXvXvXvXvXvXvXvXvXvXvXvXvXvXvXvXvX",
"vXvXvXvXvXvXvXvXvXvXvXvXvXvXvXvXvXvXvXvXvXZXxXxXcXxXBXxXnXxXDXAXBXjXxXO.T e.A.=XkX_.v U 8 kXjXxXHXrXP 7.z.5.HXIXvXjXcXmXmXvXvXvXvXvXvXvXvXvXvXvXvXvXvXvXvXvXvXvX",
"vXvXvXvXvXvXvXvXvXvXvXvXvXvXvXvXvXvXvXvXvXcXxXvXcXxXvXmXxXvXsXsXFXMXgXgX^.Q.G.=XuXgX.Xg.`.[.iXuXMX*.8.9.8.w.>X<.yXSXDXgXAXvXvXvXvXvXvXvXvXvXvXvXvXvXvXvXvXvXvXvX",
"vXvXvXvXvXvXvXvXvXvXvXvXvXvXvXvXvXvXvXvXvXvXnXxXcXnXvXvXvXDX<Xo i `.jXuXkX].&X*X*X*X=X9XuXJ.9X*XwX} r.0.y.A.C P z zX[.S .XvXvXbXvXvXvXvXvXvXvXvXvXvXvXvXvXvXvXvX",
"vXvXvXvXvXvXvXvXvXvXvXvXvXvXvXvXvXvXvXvXvXMXCXSXAXvXmXvXlXAX1X% i 7 n uX;.=X&X X^.P.I. X*XJ.*X9XuX0.2.p.y.*Xu r ..1Xy d.W.iXMXMXvXvXvXvXvXvXvXvXvXvXvXvXvXvXvXvX",
"vXvXvXvXvXvXvXvXvXvXvXvXvXvXvXvXvXvXlXvXvXxXCXNXfXxXmXlXgXhX[.O w x s `.A @X X).c.!.c.^.).;.&X XyX@.2.y.~.nXaXo i <.g g.^.wXmXxXvXvXvXvXvXvXvXvXvXvXvXvXvXvXvXvX",
"vXvXvXvXvXvXvXvXvXvXvXvXvXvXvXvXvXvXvXvXxXxXSXdXZ kXDXvXgXyX7X. 4 e x O.N ).!.~.%.] | *.^.S B.).P._.=X&XdXqXjXDX:.].g g.L.kXDXbXxXvXvXvXvXvXvXvXvXvXvXvXvXvXvXvX",
"vXvXvXvXvXvXvXvXvXvXvXvXvXvXvXvXcXvXvXxXKXT.U.T.` '.U.T.tXrXuXC O e f V L.V.N.m.V.] $.+.!.W Q /.A ^.,.9X*X9XqXhXvXcXt g.I.AXmXxXlXvXvXvXvXvXvXvXvXvXvXvXvXvXvXvX",
"vXvXvXvXvXvXvXvXvXvXAXvXvXvXvXvXvXvXMXvXDXoX` t.q.0.P 3X9X*X=XI.=.& t -.! v.Y.v.z.p.p.B v.4.9.@.I.4 & L.*X9X9XhX[.LX_.S VXvXmXcXvXvXvXvXvXvXvXvXvXvXvXvXvXvXvXvX",
"vXvXvXvXvXvXvXvXvXvXvXvXvXvXvXvXMXcXZXvXHX7X7.D.A.r.Y.gX*X$Xm.g.).$Xx.V ] { ` 8.p.d.m l.k.f.m.B V.h g S &X@X0X-.sXlX,X2XVXDXmXvXvXvXvXvXvXvXvXvXvXvXvXvXvXvXvXvX",
"vXvXvXvXvXvXvXvXvXvXvXvXvXvXvXlXxXcXcXDXsXO.8.i.e.r.` L.).m.m.L.C.q.w.: z.{ ` v K ^ 0.6.B [ ) b N.! L L.$XT.L.].gXkXsXkXcXxXvXxXvXvXvXvXvXvXvXvXvXvXvXvXvXvXvXvX",
"vXvXvXvXvXvXAXvXvXvXvXvXvXvXvXvXMXDXMXxXMXJX9.I.].r.|.*XB.z.c.y n q %X> m.o.b &.' 5.7.6.> ) } M p.l.o.g.g.$.l F *.uXsXsXMXvXvXvXxXvXvXvXvXvXvXvXvXvXvXvXvXvXvXvX",
"vXvXvXvXvXvXvXvXvXvXvXvXvXvXvXvXMX,XK.sXLXKXkXzX,X0X+X+X^.!.x.Y i = c.; V.n _ _ / r.G.W n z.N.N t.q.1 Y.] ] 0.9.G E.gX,XvXvXvXxXvXvXvXvXvXvXvXvXvXvXvXvXvXvXvXvX",
"vXvXvXvXvXvXvXvXvXvXvXvXvXvXvXvXMX,X& o < JXxXvXJ.dXU.Y.9.!.#.T H 8 4 4 C j./ 6.W A.S.S.S.9.A.N W W B 6.I h.4.4.q.%.uX].IXKXUXDXmXlXvXvXvXxXvXvXvXAXvXvXvXvXvXvX",
"vXvXvXvXvXvXvXvXvXvXvXvXvXvXvXvXvX,X6 9 o :.DXtX2XA ~.m.z.V.! P Y h Z > b U R 8.3.e.G.S.7.` 5.w.q b n.9./ e.A.r.8.x.8X>X;.;.< >XvXcXvXvXcXcXvXvXvXvXvXvXvXvXvXvX",
"vXvXvXvXvXvXvXvXvXvXvXvXvXvXvXvXVX<Xs d 6 C AXgX9XP.V F.w.h.q &.T h C , H k Y &.q.F.Z.S.Q ( _ [ ..L w.| [ r.a.F.A.B.].6 g 7 % JXcXmXnXnXvXvXvXvXvXvXvXvXvXvXvXvX",
"vXvXvXvXvXvXvXvXvXvXvXvXvXvXvXvXcXUXt d 7 :XqXl./.Y.b.C d.Z o.W 0.$.G e H l l Y 5.r.y.A.M.I / J *.K ^ E ~ n.a.D.1.{.;.g j 3 $ LXjXnXMXxXvXZXvXvXvXvXvXvXvXvXvXvX",
"vXvXvXvXvXvXvXvXvXvXvXvXvXvXvXvXMXHXMX_._.8X|.E 2.w.b.~.i q A 0 m.` ' 0 m T k z ( { w.A.G.I G ^ 0.R L 0.I o.N b o.E.* r 6 * J.-XuXSXNXNXMXxXvXvXvXvXvXvXvXvXvXvX",
"vXvXvXvXvXvXAXvXvXvXvXvXvXvXvXvXkXkXMXIXSXK.XX` 9.w.%X+.h K Q.M c ~ ) b 0 P k x T R H b A.3.R ~.z.Y G 6.( %.! R *.O.>.i % :.G.A.U.<.jXcXxXxXvXvXvXvXvXvXvXvXvXvX",
"vXvXvXvXvXvXvXvXvXvXvXvXvXvXvXvXMXvXvXvXBX<X`.2.^ 7.N. .D >.|.W 6.y r o.4 z k a k P J t 2.] 9 C.V.$.] 0.[ P 0.m O.> x.qXVXpXD.l.z XXSXHXcXvXvXvXvXvXvXvXvXvXvXvX",
"vXvXvXvXvXvXvXvXvXvXvXvXvXvXvXvXvXvXvXlXlXVX-.&Xq.3.N.M $.g.P.^ ( ` H q > s k w a k s - [ 9 t V.V.G q.` 0.0.x.d.q C g.uXlXK.P.` d  .HXxXZXZXvXvXvXvXvXvXvXvXvXvX",
"vXvXvXvXvXvXvXvXvXvXvXvXvXvXvXvXvXvXMXvXvXlXH.2X%Xn.f.v 4.P.W.f U I R w 8 L h d 6 a j 1 & y P F K K ! ^ d.> o.f.; '.L.J.H.<XyX+.7XfXnXlXlXxXvXvXvXvXvXvXvXvXvXvX",
"vXvXvXvXvXvXvXvXvXvXvXvXvXvXvXvXvXvXDXMXkXgX,X;.0Xp.O. .! |.Q.9 R Y Y ~ c.k.Y Y w J Z O >.g F I [ e [ e n & 3 % -.^.|.0XyXpXAXIXCXSXbXlXjXxXvXvXvXvXvXvXvXvXvXvX",
"vXvXvXvXvXvXvXvXvXvXvXvXvXvXvXvXlXvXmXjXlXtXqX2 =XT.l. .#./.W m e v f B.F.c.j.&.X.f >  .+.f P G P v } f h  .i 3 L.F. XdXqXgXT.l.).lXcXvXkXcXvXvXvXvXvXvXvXvXvXvX",
"vXvXvXvXvXvXvXvXvXvXvXvXvXvXxXvXvXLXDXVX`.d.p.N |.S h.c.K { 6.E $./ R G ~.V.z.$.X.8 4 d s h D I H ( 0.R j P R L t &X#XeX*Xn.5.9./ |.CXnXAXmXvXvXvXvXvXvXvXvXvXvX",
"vXvXvXvXvXvXvXvXvXvXvXvXlXlXKXJXUX-.zXJX.X5.e.A.S #.9.4.! M w.E } ` I z %.Q.F ..9 4 a 7 9 w w 5 > [ 0.c q U P g <.).&X=X$X7.2.d.! 9XVXnXbXvXvXvXvXvXvXvXvXvXvXvX",
"vXvXvXvXvXvXvXvXvXvXvXvXvXlXkX* =.u 2 PXsX] 0.8.C  Xi.A.w.R N b ' ( / I U 0 b O.* T a y I ~ F e 4 = > B 0.P x.h.~.).9X$X2.W 5.Q R.AXcXZXMXvXvXvXvXvXvXvXvXvXvXvX",
"AXvXvXvXvXvXvXvXvXvXvXvXmXMXT.k r 5 u < :.*Xh.z., Q.9.p./ / w.c ` _ I 9.j.F * c B E D g ( L F r : $ 9 0.' w.+.! l.%X;.W.&XQ.b.*XlXMXcXAXcXlXvXvXvXvXvXvXvXvXvXvX",
"vXvXvXvXvXvXvXvXvXvXcXxXMXmX'.P ^ Z 6 3 >XAXgXqXC L.} G $.v.6.z.c &./ e.F.N.# - s.%.v T ! H j q * 5 % %.8.z.v X.S A 9XrXkXVXKXJXmXcXvXcXlXlXvXvXvXvXvXvXvXvXvXvX",
"vXvXvXvXvXvXvXvXvXvXvXxXmXDX'.l l f +.e C sXfXiX[.1  XZ 8 H +.6.{ r } M.Z.G.: N N.P R H 5.D > 9 6 5 3 y w.n.n.c C yX*XyXqXhXHXnXlXbXvXlXvXvXvXlXvXvXvXvXvXvXvXvX",
"vXvXvXvXvXvXvXvXvXvXjXlXcXvXAXsXP U 7 f e 6XpXuX9X- =X>.% t s F 6.F ` n.b.s.t 8 | K P 8 [ M O j 7 3 3 9 z.w.9.D R.*XqXuX<X>X,XzXbXvXlXvXMXMXvXvXvXvXvXvXvXvXvXvX",
"vXvXvXvXvXvXvXvXvXvXvXlXvXvXHX,.l T.X.h = _.J.:.*X, |.Q.. w j r 0.6.Y d.2.' ~ * / / / E q # K r 9 & = f.s.n.a.{ U.*X-.H.>X<XpX`.GXSXMXjXBXvXvXvXvXvXvXvXvXvXvXvX",
"vXvXvXvXvXvXvXvXvXvXvXvXvXcXvXMXAXFX..1XNXUXlXxXJ.X S &X= u i 6 m.8.D L o.( 0.o &./ ) ) q : & * & 9 ` 3.b i.D.0.m -.uXVX1X*X].6.*..XAXxXxXJXvXvXvXvXvXvXvXvXvXvX",
"vXvXvXvXvXvXvXvXvXvXvXxXcXcXZXcXZXHXGXPXbXjXJXzXuX2X# *X^.q 9 g.0.w.0.3 U.` ' * ] ) ' ` % O.m n @.B M o.9.z.l.~ |.uXyX5Xq.r.4.s.j.kXMXvXAXvXvXvXvXvXvXvXvXvXvXAX",
"vXvXvXvXvXvXvXvXvXvXvXvXcXxXvXxXGXDXqX&XwXhXlXBXiXVX, _.!.L.S o.S r.t.S V w.' c B } ' > n ^.H r 8.z.p.V.Y.h.c  X9X9X7XG 7.F.A.e.f.cXHXvXNXhXvXvXvXvXvXvXvXvXvXvX",
"vXvXvXvXvXvXvXvXvXvXvXvXvXvXjXxXUX/.6.u.A.s.*XpXsXc.1.b V.{ #.] ! S 4.w.N - z. .E 9.e.1 | ~.j e w.w.R.!.%X1 XX*X0XgXgXjXq.r.y.r.[ OXcXvXvXnXvXvXvXvXvXvXvXvXvXvX",
"vXvXvXvXvXvXvXvXvXvXvXvXvXvXmXZXT.9.r.t.y.u.i.VX7X5.F.s.+.).S F.s.S.o.n O.! # E ` f.b.: 8.g.K d.v.V.m.$Xc ].*X9XrXyXNXrXI l.5.^.'.I.DXMXcXvXvXvXvXvXvXvXvXvXvXvX",
"vXvXAXvXvXvXvXvXvXvXvXvXvXvXAXZXY 9.4.9.d.4.7.S fX` t.8.8 _.J.$XZ.G.5.v.m.v.%.E 3.w.q S ' w.z.w.D c.$X;.A qX*XqXkXzXIX7Xj oXI '.UXAXMXvXVXlXvXvXvXvXvXvXvXvXvXvX",
"vXvXvXvXvXvXvXvXvXvXvXvXvXvXvXMXeXR 0.7.r.p.{ kX=.6X~ +XL.. , G.S.Z.3.0.m.m.l.v # z.+ ^ ( v.!.@.V.W.L C 9X*XyXtXuXcXPXwXtXPX*.3XMXvXvXvXvXvXvXvXvXvXvXvXvXvXvXvX",
"vXvXvXvXvXvXvXvXvXvXvXvXvXvXvXvXMXoXP U ( E 3XDXFX;X<.SXuXwXe.Z.p.n.%.U m.N.).h.o g.  z.c.r U.#.F.U.).~.g.rXyXfXxXdXU.U.yXGXzXzXCXvXvXvXvXvXvXvXvXvXvXvXvXvXvXvX",
"vXvXvXvXvXvXvXvXvXvXAXvXvXvXvXvXmXvXjX7X7XKXMXMXMXUXH.:XmXuXqXQ.2.( P x X.&X!.$X- g.; $X&XY $.0.v.!.F.F.Q fXqXIXxX~ } ( @XJXMXvXcXvXvXvXvXvXvXvXvXvXvXvXvXvXvXvX",
"vXvXvXvXvXvXvXvXvXvXvXvXvXvXvXvXcXvXcXSXlXlXvXjXZXjXUXK.K.pXAXE.l P k & # |.).%X, A , ).K R ~ w.w.n.V.V.@.qXxXvXc.8.2.r.9XZXxXjXjXvXvXvXvXvXvXvXvXvXvXvXvXvXvXvX",
"vXvXvXvXvXvXvXvXvXvXvXvXvXvXvXvXxXvXvXvXBXlXBXvXCXjXcXKX>X-.K.<.p 9 a I.K.  J.qX, 2 V |.G | | ] *.l.k.g.[.uXHXKXv.7.e.a.dXNXmXcXvXvXvXvXvXvXvXvXvXvXvXvXvXvXvXvX",
"vXvXvXvXvXvXvXvXvXvXvXvXvXvXvXvXvXxXvXvXMXmXcXvXMXjXAXvXAXUX8X`.1XxX .dXyX2X  _., , K.@.#.f J T x J *.Z K.aXGX<XJ.n.M.qXvXlXvXvXvXvXvXvXvXvXvXvXvXvXvXvXvXvXvXvX",
"vXvXvXvXvXvXvXvXvXvXvXvXvXvXvXvXvXvXvXvXvXlXlXvXvXLXAXSXSXcXMXAXVXjXjXyXiXuX2X. + , 2 C VXoXwXf #.3XZ >.zXK.:.:XvXkXjXMXvXvXvXvXvXvXvXvXvXvXvXvXvXvXvXvXvXvXvXvX",
"vXvXvXvXvXvXvXvXvXvXvXvXvXvXvXvXvXvXvXvXvXlXlXMX> q Z ,.ZXDXnXxXxXcXBXhXgXuXDX. - -   gXkXkXkX1X_.SXSXVXcXKXFXDXDXHXJXvXvXvXvXvXvXvXvXvXvXAXvXvXvXvXvXvXvXvXvXvX",
"vXvXvXvXvXvXvXvXvXvXvXvXvXvXvXvXvXvXvXvXvXvXAXKX=.% p p _.FXnXMXmXHXcXZXxXxXLX@ - + , UXAXSXnXmXDXcXcXVXvXvXvXvXkXuXpXlXvXvXvXvXvXvXvXvXvXvXvXvXAXvXvXvXvXvXvXvX",
"vXvXvXvXvXvXvXvXvXvXvXvXvXvXvXvXvXvXvXvXvXvXcXZXKX<X;.J.sXZXMXvXbXMXvXvXHXMXLX; @ @ 2 LX_.>.'.KXcXxXvXvXvXvXvXvXAXbXMXvXvXvXvXvXvXvXvXvXvXvXvXvXvXvXvXvXvXvXvXvX",
"vXAXvXvXvXvXvXvXvXvXvXvXvXvXvXvXvXvXvXvXvXvXvXvXmXLXSXFXmXAXcXDXgXwXoXtXvXmXLX< @ X =.FX'.+.r T.SXlXvXxXvXlXcXxXMXMXMXvXvXvXvXvXvXvXvXvXvXvXvXvXvXvXvXvXvXvXvXvX",
"vXvXvXvXvXvXvXvXvXvXvXvXvXvXvXvXvXvXvXvXvXcXvXxXxXxXlXlXjXmXDXU.e.a.4.9XxXAXUX< @ @ -.PXNXP./.S SXcXVXNXxXvXlXhXjXlXvXcXvXvXvXvXvXvXvXvXvXvXvXvXvXvXvXvXvXvXvXvX",
"vXvXvXvXvXvXvXvXvXvXvXvXvXvXvXvXvXvXvXvXvXvXxXvXvXvXcXcXjXMXmX^.3.w.l.`.KXAXUX< @ @ =.PXZXhX[.dXDXvXjXDXIXaXUXFXlXxXlXvXxXvXvXvXvXvXvXvXvXvXvXvXvXvXvXvXvXvXvXvX",
"vXvXvXvXvXvXvXvXvXvXvXvXvXvXvXvXvXvXvXvXvXvXvXvXvXvXvXmXhXcXDX.X7XS dXHXbXkXUX< + + =.UXHXcXDXnXxXCX,X:.=.=.;XzXHXvXhXvXvXvXvXvXvXvXvXvXvXvXvXvXvXvXvXvXvXvXvXvX",
"vXvXvXvXvXvXvXvXvXvXvXvXvXvXvXvXvXvXvXvXvXvXvXvXvXvXvXMXlXlXmXMXSXFXvXcXmXvXUX2 + X 2 LXkXlXvXHXxXCX].p n w % 1XDXvXZXvXvXvXvXvXvXvXvXvXvXvXvXvXvXvXvXvXvXvXvXvX",
"vXvXvXvXvXvXvXvXvXvXvXvXvXvXvXvXvXvXvXvXvXvXvXvXvXxXvXnXvXjXjXxXgXgXgXkXcXvXDX< @ @ < SXgXjXjXjXlXvXkX..H z ..c AXcXmXvXvXvXvXvXvXvXvXvXvXvXvXvXvXvXvXvXvXvXvXvX",
"vXvXvXvXvXvXvXvXvXvXvXvXvXvXvXvXvXvXvXvXvXvXvXvXvXxXxXgXxXxXdXkXkXdXdXuXdXdXvX< @ @ ; AXdXjXiXiXkXjXkXhXX.<.j [.DXvXlXvXvXvXvXvXvXvXvXvXvXvXvXvXvXvXvXvXvXvXvXvX",
"vXvXvXvXvXvXvXvXvXvXvXvXvXvXvXvXcXvXlXjXlXjXjXjXgXgXgXgXdXyXyXeXrXyXeX5X4X4XyX, # - o yX5X5XrXeX0XeXeXgX1XrXyXjXkXjXjXjXjXjXvXvXvXvXvXvXvXvXvXvXAXvXvXvXvXvXvXvX",
"vXvXvXvXvXvXvXvXvXvXvXvXvXvXvXxXlXlXlXjXjXgXgXgXyXyXtXeXeX0X#XOXXXXX}.{.{.(.#X- @ @ . {.E.(.XX}.}.@X#X0XeXeXeXrXyXdXgXdXgXjXjXlXxXvXvXvXcXvXxXvXvXvXvXvXvXvXvXvX",
"vXvXvXvXvXvXvXvXvXvXvXvXvXvXvXxXlXkXjXgXgXyXyXeXeX5X4X@XOX{././.R.R.Y.Y.x.x.Y.+ ; @ o O.v.x.Y.v.Y.R.E.}.}.OX4X4X5XeXyXyXiXgXgXjXjXvXxXvXvXvXvXvXvXvXvXvXvXvXvXvX",
"vXvXvXAXvXvXvXvXvXvXvXvXlXxXvXjXkXjXgXdXyXrX7X5X4X@X}.{.(.R.Y.U.k.k.&.| | ' ] . ; @ # m | } | &.&.x.Y.Y.R.(.}.OX@X5X5XeXyXyXdXgXgXxXjXvXvXvXvXvXvXvXvXvXvXvXvXvX",
"vXvXvXvXvXvXvXvXvXvXvXvXvXxXjXxXgXgXgXyXyXyX5X4XOX}.(.R.Y.x.&.&.} } _ ) ) _ n + X + + 0 } ( [ | } &.k.k.x.Y.E.{.}.@X3X0XeXyXiXgXgXxXjXvXvXxXvXvXvXvXvXvXvXvXvXvX",
"vXvXvXvXvXvXvXvXvXvXvXvXlXxXxXxXjXgXdXyXyX5X5X@X}.{.R.Y.Y.k.&.&.[ _ ( ( ( ) F m v v m v ) ) ( [ _ } | &.x.Y.Y.R.{.}.@X5X0XeXyXyXdXxXxXjXvXvXvXvXvXvXvXvXvXvXvXvX",
"vXvXvXvXAXvXvXvXvXvXvXvXvXxXjXkXgXjXdXyXrXeX5X3XOX}.(.Y.Y.x.k.&.} } _ ) ) ) ( ) ) ) ) [ ) ) ) } } | &.k.x.Y.R.(.}.OX#X5XeXeXyXyXgXxXxXxXxXvXvXvXvXvXvXvXvXvXvXvX",
"vXvXvXvXvXvXvXvXvXvXvXvXvXvXvXvXjXgXgXdXyXrXeX5X@XOX{.(.R.Y.x.k.k.&.| | _ [ _ ( ) ( ( _ _ [ } } | k.k.Y.Y.(.{.}.OX4X5XeXyXyXiXgXgXxXxXjXxXvXvXvXvXvXvXvXvXvXvXvX",
"vXvXvXvXvXvXvXvXvXvXvXvXlXvXvXvXjXjXgXgXdXdXyXeX5X4X#XOX}.{.(.R.Y.Y.x.x.k.k.k.&.j.j.k.k.k.k.x.x.Y.Y.R.(.}.}.OX4X5X5XyXyXyXdXgXjXjXxXlXvXvXvXvXvXvXvXvXvXvXvXvXvX",
"vXvXvXvXvXvXvXvXvXvXvXvXvXvXvXvXvXxXxXjXgXgXgXiXyXtXeX0X4X4X@XOX}.}.{.(.(.R.R.R.E.Y.R.R.R.R.(.(.}.OXOX@X3X5X5XyXdXdXdXdXgXjXgXjXlXvXxXvXvXvXlXvXvXvXvXvXvXvXvXvX",
"vXvXvXvXvXvXvXvXvXvXvXvXvXvXvXvXxXvXvXxXkXjXjXgXgXdXgXyXyXyXeXeX5X5X4X4X#X#X#X@X+X#X#X@X@X4X5X0X5X5XeXeXyXyXdXdXfXgXjXgXjXjXxXxXxXvXxXvXxXvXvXvXvXvXvXvXvXvXvXvX",
"vXvXvXvXvXvXvXvXvXvXvXvXvXvXvXlXmXvXvXvXxXvXxXxXxXjXjXgXgXgXgXgXjXdXdXrXuXrXtXtXrXrXtXtXyXyXyXdXdXdXgXgXgXgXgXjXjXxXxXlXvXvXvXxXvXvXvXvXvXvXvXvXvXvXvXvXvXvXvXvX",
"vXvXvXvXvXvXvXvXvXvXvXvXvXvXvXvXvXvXvXMXvXvXvXxXvXvXvXvXjXvXjXjXxXxXjXjXjXjXjXjXjXxXjXjXjXlXjXvXxXxXxXxXxXvXvXvXvXxXvXlXvXvXvXvXvXvXvXvXvXvXvXvXvXvXvXvXvXvXvXvX",
"vXvXvXvXvXvXvXvXvXvXvXvXvXvXvXvXvXvXvXvXvXvXvXvXvXvXvXvXvXvXvXMXvXvXvXlXvXvXlXjXvXxXvXxXxXxXvXxXvXvXvXvXMXvXvXvXvXvXvXvXvXvXvXvXvXvXvXvXvXvXvXvXvXvXvXvXvXvXvXvX"
};
