/* XPM */
static char *_41d081a25ba49e9e21ead1ef3c30202VQqegV8TwKmfgttL[] = {
/* columns rows colors chars-per-pixel */
"80 80 256 2 ",
"   c #0E0001",
".  c #140000",
"X  c #1C0101",
"o  c #1C0800",
"O  c #1C1400",
"+  c #230101",
"@  c #2C0101",
"#  c #260B06",
"$  c #330100",
"%  c #3B0101",
"&  c #390B05",
"*  c #311410",
"=  c #3C281F",
"-  c #430100",
";  c #490504",
":  c #540201",
">  c #580402",
",  c #4E180E",
"<  c #581C15",
"1  c #660503",
"2  c #770302",
"3  c #661908",
"4  c #7B1A0A",
"5  c #6A1C18",
"6  c #7C1C15",
"7  c #771C18",
"8  c #49251A",
"9  c #5D2E14",
"0  c #53231A",
"q  c #592518",
"w  c #5D241C",
"e  c #7A250B",
"r  c #64241C",
"t  c #682718",
"y  c #6B241C",
"u  c #6B2A1D",
"i  c #732314",
"p  c #7A2713",
"a  c #732C15",
"s  c #73241C",
"d  c #7B241D",
"f  c #742B1D",
"g  c #7B2A1C",
"h  c #65321A",
"j  c #5B1920",
"k  c #731E23",
"l  c #4B2A24",
"z  c #5C2523",
"x  c #562A26",
"c  c #5C2B24",
"v  c #593228",
"b  c #523032",
"n  c #642522",
"m  c #6C2522",
"M  c #642A24",
"N  c #6C2B24",
"B  c #6C262A",
"V  c #642C2B",
"C  c #6B2D2B",
"Z  c #742522",
"A  c #7B2423",
"S  c #742A24",
"D  c #7B2B24",
"F  c #79242A",
"G  c #742C2A",
"H  c #7B2D2A",
"J  c #663326",
"K  c #6B312D",
"L  c #793327",
"P  c #74322B",
"I  c #7C332C",
"U  c #692A32",
"Y  c #772B32",
"T  c #673636",
"R  c #6C3332",
"E  c #773735",
"W  c #714238",
"Q  c #7B3B42",
"!  c #6F4643",
"~  c #860603",
"^  c #8C0100",
"/  c #940301",
"(  c #9C0301",
")  c #9C0C02",
"_  c #980A07",
"`  c #8A190A",
"'  c #9C1303",
"]  c #971808",
"[  c #960D11",
"{  c #841C13",
"}  c #851917",
"|  c #8D1C14",
" . c #8C1D1B",
".. c #981A16",
"X. c #931C1B",
"o. c #A30301",
"O. c #AB0301",
"+. c #A30A02",
"@. c #AB0A01",
"#. c #A5050A",
"$. c #B30401",
"%. c #B30C01",
"&. c #B80A05",
"*. c #A31303",
"=. c #A81805",
"-. c #B61804",
";. c #AE1513",
":. c #A71B18",
">. c #89250B",
",. c #992508",
"<. c #832214",
"1. c #8A2314",
"2. c #892A14",
"3. c #84241C",
"4. c #8C241C",
"5. c #842A1C",
"6. c #8C2A1D",
"7. c #972614",
"8. c #93241C",
"9. c #9C241C",
"0. c #932A1D",
"q. c #9B2B1E",
"w. c #863219",
"e. c #933317",
"r. c #A72507",
"t. c #B72407",
"y. c #B93303",
"u. c #A3241D",
"i. c #A82718",
"p. c #B62718",
"a. c #A83515",
"s. c #B53718",
"d. c #861D24",
"f. c #971D24",
"g. c #A81E24",
"h. c #832523",
"j. c #8C2424",
"k. c #832B24",
"l. c #8C2B24",
"z. c #85252A",
"x. c #8D2529",
"c. c #842C2B",
"v. c #8B2C2B",
"b. c #932523",
"n. c #9B2423",
"m. c #932B24",
"M. c #9B2B24",
"N. c #93252A",
"B. c #9A252B",
"V. c #942C2B",
"C. c #9B2C2B",
"Z. c #843225",
"A. c #8B3627",
"S. c #84322D",
"D. c #8B332B",
"F. c #943225",
"G. c #9B3124",
"H. c #94322C",
"J. c #9C322B",
"K. c #97382A",
"L. c #872A33",
"P. c #8A2D31",
"I. c #982532",
"U. c #942D31",
"Y. c #9B2D32",
"T. c #843332",
"R. c #8B3332",
"E. c #883938",
"W. c #943332",
"Q. c #9B3332",
"!. c #993739",
"~. c #A32524",
"^. c #AB2523",
"/. c #A32C24",
"(. c #AB2C24",
"). c #A82629",
"_. c #A32C2B",
"`. c #AB2C2B",
"'. c #B42524",
"]. c #BA2726",
"[. c #B32B25",
"{. c #B32B2B",
"}. c #BB2C2B",
"|. c #A53225",
" X c #A93627",
".X c #A3332B",
"XX c #AB322C",
"oX c #B4322C",
"OX c #B83428",
"+X c #A52D32",
"@X c #B62C32",
"#X c #A33232",
"$X c #AC3333",
"%X c #A83939",
"&X c #B33332",
"*X c #B93834",
"=X c #C61803",
"-X c #C7170D",
";X c #C82804",
":X c #D52B02",
">X c #CB3402",
",X c #CA3702",
"<X c #D53302",
"1X c #D83906",
"2X c #C62A17",
"3X c #D52C16",
"4X c #C63819",
"5X c #D63518",
"6X c #E5390A",
"7X c #E43417",
"8X c #C32928",
"9X c #CF342F",
"0X c #C83A29",
"qX c #F1382A",
"wX c #B75800",
"eX c #8E4133",
"rX c #B74B32",
"tX c #D64602",
"yX c #DA4301",
"uX c #D34B0C",
"iX c #E74804",
"pX c #EA5505",
"aX c #F55907",
"sX c #E94914",
"dX c #F25110",
"fX c #F85914",
"gX c #D06200",
"hX c #EA6501",
"jX c #FB6609",
"kX c #FE740A",
"lX c #FB6618",
"zX c #FE7517",
"xX c #C9452A",
"cX c #CD4A2E",
"vX c #D64A36",
"bX c #CA553A",
"nX c #D6573C",
"mX c #F95929",
"MX c #EE4C31",
"NX c #FA5738",
"BX c #FE6826",
"VX c #FE7625",
"CX c #FF6838",
"ZX c #FF7B38",
"AX c #953443",
"SX c #8F4C4B",
"DX c #B25C4B",
"FX c #D14C42",
"GX c #C95845",
"HX c #D75A44",
"JX c #F15545",
"KX c #D96247",
"LX c #D3674D",
"PX c #F16749",
"IX c #F88210",
"UX c #FF8535",
/* pixels */
"8 0 w h v.c.Z.c.2.e.p 7 b.l.d f e.7.M._.M.m.b.f.Z A z.F B n r h h L F z.I.L.Z d N N c.D.,.q.l.j.X.C.C.m.r...X.b.n.C.B.d.4 4 3 t 7 y w 0 l 8 l = n B S 5 8 , q M ",
"0 < q q d 3.v.l.2.l.F.l.m.l.k.s 0.8.0.C.J.j.b.j.d h.h.F m M M J v N P H I.z.H Z r y  .} ] ] 1. .~.~./.M.i.] ] ` 0.J.B. .{ 1.a t D I t q z x 8 8 < r G A 0 q q t ",
"x 9 t t D D.V.b.F.F.V.l. .3.l.3. .j.B.M.N.C.N.4.3.k.F Z w r C C J w C G G P B V r 5 _ _ -X&.#.;.o.O.+.+.$.$.-.%.*.*.+.o.+./ 6.6 4.C.x.j.M c 0 0 r r y s y m m m ",
"z r q t p H.C.M.M.M.V.j.h.l.l.h.x.Y.b.b.N.N.m.1.l.v.D m M C C U R B Z A G F B U B d #.MXqXJX#.( O.9X( +.-XJXJXO.' _ -.5Xo.( 4.A C.B.V.N.I P q q u t s s 5 d Z 5 ",
"0 q y g h.H.m.G.G./._.+XJ.M.5.5.l.l.V.B.h.h.N.).n._.D.D h.A A F ` ` ) ) o.o.o.( #.#.( 2XNXNXsX@.mXdXMXqX:XNX+._ r.ZXuX' ] ..~.+X.X_._.f.N.h.s < t f s 6 7 7 s Z ",
"w r Z L.F.J.M.M.G.M.`.`..XG.l.F.A d l.b.} d.~.(.`.`.S.g h.} A h._ ) PX2X2XMXo.-.uX-.+.mX;XmXBXCXCX1X7XMXmX7X;Xy.uXy.y.] ] ..M.M.(./._.n.j.h.D.5 a D D.F.d.6 7 s ",
"y Z h.z.C.C.M.C.C./.(.(._.M.M.M.k.d } j.X...(.^.oX(.g 5.U.x.4. .+.2X-XMXNX>X1XBXlX>X,XpXjX,XlXtXpXkXtX,XmXCX1X,XIXgXuXzXo.) ( ;.i.~.^.).4.4.V.4.8.9.~.~.~.X.6 i ",
"L c.x.I.B.n.~.~.B.|.(.i.)._.C.M.k.d l.m...] ' }.p.oX2.A.U.N.`.i.$.$.=XJXt.MXfXpXjXyXzXkXIXtXtXzXhXIXpXiXNXmX,XuXwXIXIXIX>XMX=.' :.[.{.(.8.| X.`.XX`.~.(.'.).} i ",
"I.j.d.A g H.V.b.1.q. X.XK.q..XG./._.#.O.$.%.*.i.M. X0.6.n.0.H.A.' ) O.MX;XPXsX6XkXkXkX>XtXpXtXkXkXpX;X+.<XlXiX,XIXgX,X1Xy.MXt.( ..XXoX_._.g.[ :.i.q.u.|.'.^.~.n.",
"V.x.z.k.<.5.M._.0.0.u.u.G.|. X(.i.7.O.PXJXNX+...9.q.0.3.9.0.M.b.i.p.o.o.5X3X%.mXkXaXaX<X>XaXtXkXy.,X,X4X<XpXjX1XtXVX>XlXtXr.+.( 7./._.M.n.n.).g.9.i.|.(.'.:.u...",
"C.l.j.5.p 2.6.J.|.q.9.7./.XX[.] =.] sXBXyX2X) / ] 7.2.g i.u.:.] =.p.;.+.o.o.-.MXzXBXlX<X%.6XiXaXjXzXBXkXBXtXpXkXyXiX>XlXVXPXNX#.| X.j.l.8.X._.`...u.i.'.^.~.0. .",
"C.V.k.5.w.w.2.M.7.7.` ] f.u.) +./ y.dXpX>X+.( -.] ` e u _ ) *._ +.+.+.=.O.O.;.( 1X;X<X=X5XiX1XpXzXtXtXVX>XpXaXjXiXlXfXpX>XCXqXMX| { 3.k.m.X.n._.i.p.u.:.u.M.0.4.",
"F.M.M.n.M.6.4.b.) +.;.@.o.#.$.$.&.<XiX<X-.O.sX:X+.%.+.) =XqXqXqXNXJX9X+.o.( / =.3X#.9X8X( ( 1X6X;Xo.$.CX:XdX=X6X;XyXt.>XsXt.%.@.|  .x.h.d.} [ f.g.~.g.:.n.N.k.Z ",
"k.4.b.M.l.l.v.b.( JXNXCX( o.NXNXmX1XjXlXaXiXiXiXmXPXNXt.-.5X7XNX-X$.+.( _ _ #.2X$.-X/ / o.#.;X<X>X;X5X1X:XiX6XfXfXBXCXO.#.( +.+.b.b.x.} }  .} | :.:.X...` 6 i y ",
"Z.h.j.j.h.A A } o.MX1XlX-.O.7X6XiX6XjXjXiXsX;X<XaXiX6X5X%.sX1XsX$.+.| 8.B...( o.O.-X/ ( / / ^ i.=.p.4Xt.3X;X#.sXt.-.@.#...9.8.8.X.X.X.d.} 6 6 6 { 0.0.[ 4 5 t q ",
"H H v.j.F Z 7 d O.CXzXtX>X$.6X=XiXjXjXpXiXiXaXyXkXjX1X<X;XpXzXVX;X3X,.1.A  ._ o.( o.#.O.2X;.p.s._ ~ _ / &.o.( 2X/ ( / o.] 9.J.Q.X.X.d.d.f.} 6 i e l.M.| 7 s r q ",
"G S g g k.d k k _ 2XhXiXhXfXdXiXfXaXaXiX$.$.aXaXkXtXiXfXaX1XiXlX=X1X*.] f t I S.T.v.^ / ^ ) ' *./ ^ ..i.( p.p.0X-.2X( O.7.q.(.$X~.X...+XB.} e p | M.| ` e t < , ",
"c.k.Z.k.c.v.7 7 +.=.BXaX<X>XpXkX>X6X6XaXmX$.lXiXkXjXpX%.sX:XfXfX:X1X=.) f t I E I T.~ ~ ~ 2 _ ,.*.*.^ ^ _ ( ^ ^ ) _ _ _ _.0.{.(.u.~.g.@XX...8.4.| B.} { p t t q ",
"N.V.v.v.:.' _ ) +._ =.CX:XiXlXaXfX6X:XdX=X1X1XfX>XzXfX2X5XMXmXBXNX5X4Xp.g f P R G S ` 2 4 X.2 OX*./ ) [ ' ] _ / _ _ ..X.M.M.p.;.i.(.).g.g...~./.~.M.8.3.g a y 5 ",
"_.B.U.v.' ' @.5X2X) 1XiX6XfXiXyXaXaXaX6X%.=X%.CXaXlX=X+.8Xo.=.5X4X_ ].( 3.g r c C P C.M.v.4 2 _ ) ) ' +.' i.=.) :.:. .b.l.M.( o.) {.).'.'.).{.:.g.9.4.l.p a s 5 ",
".X%XC.C.N.| ` [ ' ) o.( 3XdXsX%.:XNX%.mX>XsX7X=X$.o./ *.^ 8X| e - - ; : H m G S 3.j.Y.%X; % H > 7 } b.X.` 7.2.w.5.d d k.b.] $.MXO.#.'.{.'.^. XM.e.e <.D.3.d d i ",
"C.M.M.C.H.6 ` 9.) ) ( 2X@.+.=X-.3X$.O.%.;X:X;Xo.p./ _ 2 ~ ^ 1 : ; eXS.Z.D H D G 4.x.I.1 - I ; - W.N.b.X.<.p ` ` { <.<.4.....=XqXO.( '.{.'.(.).~.0.6 d D d d s 7 ",
"B.M.b.M.k 6 4.9.' _ _ +.( +.8X3X-.;X2X%.-.p.2 1 (.~ ~ 2 > > - ; .X.X_._.N.v.k.D A T.E @ ..@X- j H.D.V.b.s , 1 ] ) ) ( _ ) o.7XqXo.=.'.{.{.{.g.'.q.<.d S d d k.d ",
"M.J._.b.k.v.H.0._ _ _ #.+.( ( o.o.o.+.#.-.^ > ; 1 2  X7.; ; $ E XX/._.@X~.m.l.g d.E.; + u.'.$ Q F.l.l.l.C @ %Xp.-.+.+.+.+.O.7XqX+.) _ :.@X@X@X].M.l.Z S i Z.Z.l.",
"[. X_.8.l.m.4. .0.b._.I.) =.' ) X.2 1 ; SX: : : 1 > > DX> $ v W J.oX}.(.`.~.l.4.x.E.X O 5.>.@ E >.7.N.P.U $ : ` &.MX1X:XO.$.NXaXNX@...9.^.).@X8X$X_.N.v.A d d i ",
"$X%X_.b.6.b.4.8./.M.+X+X' ] ] r.N.} F ; : : k.v.Z.Z.> eXSX- @ % h.C.&XOX~.~.5.4.L.L.# # w.1.@ T 6.M.C.N.Y P 1 [ @.sX:XdXmX;X:XmX3Xo.u.9.~.^.}.@XB.V.U.P.k.k.A k.",
"AX!.V.V.8.0.~._.(.C.B.Y._.B.f.f.c.c.T.d 5 c.S.D.k.D % % eXG.e > $ % E.%X`...<.w.h.Y @ v rXGX$ U l.M.f.Y.P G 2 ] %.mX>X<X6X;X$.O.o.O.~.u.n.n._.n.z.l.v.P.j.j.h.h.",
"AXL.N.N.q.G.&XoX`._.C.U.Q.V.b.b.k.z.k.l.D.D.A s A.S T @ : F.rXW.Q $ ; D.`.9.g g F F $ M GX0X@ Q D.N.f.f.< - | i.y.CX<XfXjXdX1X5XO.o...] n.X.m.m.k.k.c.v.d.3.j.h.",
"C.Q.V.Y.~._.&XoX$X`.`.`.$X#Xv.v.N.b.4.6 p f H H I I S.S.; @ - E.s. X@ + T S.0.,.A.T - 5.cX%X- % E E.V $ @ 8 1 ` O.NX>XCX>X-.-.NX#.o.| 4.5.k.v.I.v.c.k.k.3.l.c.l.",
"C.%X#X_.`.`.&X@X$X`.`.&X#XQ.H.v.V.v.l.j.D.D.k.D.I E.E.D.W v % % r.GXSX+ $ - U.#XE $ ; 3.e.GXZ.- ; - $ & 8 @ : X.O.@.+.;X( ( o.o.+.( 8.4.<.4.l.x.v.z.l.c.l.D.D.l.",
"0. X&X{.@X{.{.{.XXXX&XoXL.z.l.F.z.v.H.C.R.D.k.k.c.k.j.N.0.G.F.> - eXGXxX7 - + X @ % 1.>.=.s.q.i.2 7.K.i % < D.7./ _ ' ] :.g.:.;.i.*.| n.8.} V.C.N.z.v.H.V.F.N.l.",
"7.|.oX[.).).{.'.u.`.oX`.z.z.Z.5.c.R.W.V.T.z.5.Z.c.D.b.9.~.(..XE.; % {.HX|.D.K & 8 J 7.a.s.s.,.p.s.a.w.- < R g { ) ' ] :.g.~.'.p.=.*.| n.X.X.V.N.N.v.V.H.V.H.F.V.",
"5.F.|.~._./.&X~.M.M.M.l.l.M.8.f.v.C._.g.;.:.^.(.~..X9.4.^.}.}.OX!.> $ SXnXt.r.8.e 7.GXvXr.r.,.r.eX$ + $ Z.s s 7 h.5.i.i.p.#.O.-.( +.o.( +.) d h.0.C.W.v.N.l.W.l.",
"5.M.M.~.M._..X~.b.b.l.l.4.M.$X~.V._.@X@X}.[.'.^._.n.8.4.'.}.i.:.%Xx.$ @ s.4Xt.r.>.bXs.=.,.,.,.,.- $ V U t g s d l.5.[ ' %.( @.( ( p.JX#._ _ 1.1.B.C.U.v.v.v.A.Z.",
"m.8.f.b.2.l.M.b.m.b.M.C.0.M.XX X~.(.}.9X8X].i.:.8.4.M.8.m.M.q.M./.8.I % ; .XrX=.r.bXr.,.r.,.a.4 @ h u a t i i 3.3.<.( o.#.' lXlXuX1XMXO.+.p.` ,.M.C.I.V.R.Z.D.F.",
"N.b.b.b.p g M..Xl.M.M.~.q.9.XXoX[.}.9X2X8X].'.i.$XM.M.b.X.X.M.9.6.8.c.D $ D.bXOXy.xXcX,.,. XDX4 @ C w.L a i i i } | o.&.' ,.VXtXiXaXaXdX,XsX` ,.~.B.Y.U.Z.g l.m.",
"h.d.d.h.5.<.5.5.:.u.~.~.G.7.p.8X8X8X8Xp.OX}.].8X{.oX X9.4.8.m.b.2.1.6.k.@ ,  XcXt.t.xX,.r.HX Xe.$ R W.V.c.7 ` ` O.O.+.y.IXzXhXjX,XzXkXkXUXy.) ' ) _ B.V.D.s f g ",
"A 7 7 h.<.{ { 4.n.`.oXoX/.q.].8X].p.'.p.).[.p.].}.{./.9.7.M.M.8.1.4.4.N., $ r.nXt.t.4X,.r.HX7.2.@ E W.l.h.4.] ` @.9X-.1XkX,XzXpXdX<XtXjXhXVX) *.2X( x.x.D s s t ",
"Z 5 5 Z i <.M.).C._.}.{.:.~.8X9X8X'.^. X(.(.(.[.}.[.^.9.9.u.q.9.X.X.B.C.z % ,.nXt.r.cXp.' bX2.1 @ W v.l.0.7.7.] +.+.%.-.dX>XyXlX1XaXzXzXkXkX=.4XNX( Y.z.t N r M ",
"S y y y g J._.^.8...:.'.:.'.].p.].{.u...7.| ..u.].}.i.(.u...u.~.`.~._.+XM - ,.nX4Xy.cXa.r.bXe i $ E v.l.,.,.' ' O.9X+./ ,X<X6XjXjXaXtX,XhXhXPX,X@._ Q.h.a r M z ",
"k.3.F.F.6.0.|.u.7...8.2.u. X0.q.M.m.l.g g 3.{ n.[.oX(.[. Xu.~.~.q.i./.G.r $ ,.cXt.p.9Xi.i.eXq v X X Q E > 7 ) o.-.( O.2X/ MXNX>X=X=X1X;XBXCX4X+.+.' |.4.S n M 0 ",
"d l.l.4.{ 8.M.~. X X8.0...7.q.|.F.4.5.3.3.3.M.J.XXoXi.i.(. X9.9.7.i.`. X, & ,.cXt.-.xXp.F.; $ & b o $ $ ; k._ ( *.( o.o.0X-.( 2Xo.o.6X:X1X*.=.) ' 7.M.} N N q h ",
"i 3.6.| 6 1./._..X.X1.q.7.| /./.6.1.3.6.l.b.F.J.q./.}.i.u.u.0.6.7.^.0X@X$ 0 rX0Xt.2XxXt.I $ Q % , v p a I t | ` _ ) ( ( ( p.( / 9Xo.-.=Xp.( _ ../.M.V.Q.x.d.x.N.",
"t i 0.b.2.4..X9.1.1.0.q...9./. XA.l.6.m.b.m.m.m.0.q.oX}./.G.e.K.(.OX8X].$ M OXt.-.xX4Xt., $ AX7 $ J L f % ;  .4.p.;.+.2X@.+.) =.p.o.+.o.O.( ' ~.Y.C.j.k.!.!.Q.Y.",
"i 7 d 6 ..|.0.2.p e 0.8.X.J.J.J.K.K.G.8.n.B.8.e.M.~.{.].{.^.^.XX`.{.@X%X$ G rXr.,.MX;Xt.$ < 9X@X$ ; @ @ - H v.N.'.g.( o...:.' ) _ ] ,.` [ [ d.d.C.C.N.d.j.B.C.C.",
"5 s 6 6 0.M.F.M.w.<.4.4. .J.4.3.5.<.4.6.b.n.M.J.|.XX{.}.[.[.[.{.).`.+X2 % S.s.r.,.vXp.t.% W @X}.Y % % T P Z.v.#X].'.:.=.u.9.u.i.i.u.|.G...f.I.L.x.b.j.d.4.#X#XB.",
"S s d A 4.l.N.F.K.H.V._.M.K.5.f 5.k.k.l.m.b.q.G.`.{.{.}.{.OXOX}.].@X%X; 3 eXxXr.s.vXs.q.% W @X}.*Xu.G.G.f.B.`.{.{.{.OX[.M.M.0.B.~.|.M.M.2.l.z.z.3.l.4.h.c.R.S.L ",
"y s d k.5.3.b.b.5.V.V.B.m.l.g a f D d D b.4.9.9.~.{.{.{.`.[.'.8X8X).!.- i eXs.,.cXxX^.> - eX{.p.i.{.(.~.n.~.oX{.}.}.(.(.G.6.Y.Y.M.J.l.F.p 3.z.z.5.2.5.3.l.D.S.S ",
"r y y s s s Z Z } v.V.B.V.v.s y M B M K c.z.4.8.~.(.[.'._.8.:.`.C.8.E $ 2.rXr.r.nXp.K.% > v. Xi.|.|.|./.^.(.XXXXXX/. X.Xl.m.H.J.F.V.C.V.j.l.k.3.l.6.m.m.l.v.D.Z.",
"y r y s s Z Z s } v.m.B.j.l.Z.Z.P N M M d h.} j.).{.).:.5.e.).).M.6.C % >.GXr.r.nXi.eX$ T.l.9.9.u.|.J.J.n.C._._.M.M..XG.2.l.m.l.j.N.M.V.m.v.3.l.6.l.4.m.V.l.l.l.",
"r 5 Z Z s 5 s 5 d k.} m.f.~.n.n.8.} k.g k.k.d h.l.j.k.A i A..X~.8.F.% 8 ,.KXp.xXMX[.L @ D.j.0.0.| j.W.R.v.l.x.N.V.V.K.4.{ 6.m.j.j.b.Q.#Xl.3.l.v.l.j.l.m.V.m.B.m.",
"5 r k m 5 s 5 s f g d l._.f.X.~.8.6.g a Z.k.d Z h.A Z Z i L n.n.M.F.@ v ,.bXOXMXp.i.eX+ 5.3.m.m._.V.d G P c.A A c.l.V.0.4 m.l.4.} b.C..Xh.4.H.v.F.F.m.4.V.m.C.B.",
"w r m m Z d k h.3.l.| 9.{.).~.~._.M.X.X.m.k.7 i Z F F z.k.h.5.l.m.L.$ Y ,.bXa.KXt.r., + <.B.M.N.v.l.k.D.G m n N S.Z.D.z.y L s s d v.v.l.h.v.P.W.b.J.Q.H.C.C.N._.",
"r n r y m m y Z d l.m.9._.`._.M.M.M.~._.m.5.D.Z.D z.A P.V.H.v.D.R.> , S >.KXs.nX-.r., X G._.J.M.J.V.l.v.H Z y H H z.c.v.s d d d l.h.c.k.Z c.c.U.j.V.J.C.Q.Q..XC.",
"N N M M r r r y d d N.J.J.m.l.m.H.m.C._.M.F.K.c.k.c.k.D.W.Q.J.J.E.$ 5 4 ,.LXKXbXr.r.X . C.&X_.C.n. .3.g Z d D D z.k.z.V.d d d k.D.d u u y D c.x.l.V.b.n.+X#XJ.Q.",
"G C N w 0 0 9 J H A z.N.F.l.c.l.D.l.C._.M.G.M.4.c.c.5.Z.C.Q.C.J.T @ z.1.LXbXbXs.r.7..   .X@X`._.`.+Xj.6 d k.k.d k.v.z.x.3.h.v.H.H.D t t M S k.v.l.H.%X%X$X_.j.h.",
"c.H S y m r N N N P L Z D I Z.S l.M.M.`.|.M.3.k.S f s L $X(.^./.* # >.e.KXr.KX=.e.>.&   AXU.).M.C.W.d s D D S c.P G Z A l.m.N.M.Y.v.S M J f I c.T.D.N.J.+XN.V.x.",
"v.D.H I G G P N m S S u m G S S 5.l.M.`. XG.5.4.L f s S.+X#X_.Q.X V 7.GXs.i.nX=.,.e h o Y E.~.M.V.V.h.k.T.c.D y y D D D k.F.l.N.x.v.I m Z L I c.T.D.v.v.b.C.Q.V.",
"v.x.P.D.H H H S u m N N r m N C <.M._.{.(.XX.XC.A.g d v.W.U.AXE.@ C rXHXr.r.PX' e e h $ @ SXB.n.v.V.Q.V.x.x.c.Z 5 G P N u s k.R.U.R.T.k.A T.T.R.R.c.c.v.v.v.K.H.",
"N.x.U.P.c.H H G S.P N M r J M N l.M..X^.q.|.|.$XD.k.A h.D.z.E.% @ G GXa.r.p.PX] i e h r X j %Xn.v.l.N.C.B.!.c.H B P N M r r y S v.R.N.x.P.P.c.P.E.R.S.S.D.D.V.V.",
"B.x.R.T.P P C P P P L G D D c.c.w.6.#X|.[.oXq.0.A.k.f f E E.! X 3.GXnXt.t.4XHX1.e e e 4 # X L.V.m.0.l.l.~.&X_.B.z.Z M v v w M M f k.V.N.x.L.z.H L.R.T.I L S.D.Z.",
"x.v.T.Z.P E L S.I T.T.k.Z.c.D.D.l.M. X$X&X&X0.4.5.D.D D Y E.X   >.GXi.t.t.xXKX` e rXrX2.J + j L.m.F.0.J.{.).$X&XR.c.N M 9 c K P g h.v.C.P.P.R.F Z H S.Y L S.D.S.",
"D A A S H c.z.P.#X#X_.f.).).(.@XXX_.XX_._.C.V.l.Z.l.v.x.R.Y o 9 ` nXr.r.r.vXcX` rXLXrX7.a - + E l.M.8.%X*X}.&X&X$X+XN.v.A v.V.U.Z.k.v.W.R.R.I S m y m H E T.T.R.",
"H H H H I P.!.%X_.$X~.`.{.0X^.^.{.(.`..XQ.V.J.v.c.z.!.U.E @ X J s.KX=.t.-.vXrX,.bX,. Xa.w.Z.+ T e.6.M.&X8X}.{.*X+XB.C.U.k.z.N.N.V.v.D.R.R.T.S G M n m Z T.T.L.T.",
"M.M.8.C..X`.`.{.{.oX~.~.}.&XM.c.F.J..X%XY.N.W.N.2.A.`.Y.= . i 0.vX9X,.r.r.nXy.>.LX>.7.OX,.2.X # Y k.M..X].}.[.OX/.n.C.+XN.N.V.Q.J.C.V.V.c.P.I G V n n c B G L.P.",
"m.8..X.X_.XX_.`.).+XXX.X{.+XC.F.M.K..XJ.x.N.v.V.Z.g x.I.  + >.i.vX0X>.,.,.PX,.,.PXGX,.s.,.e.@ X H H 5.j.u.(.*XXXJ.M.M.B.l.N.C.Q.!.V.W.V.c.T.T.Y n n M z m S T.P.",
"4.J..X.X.X/.M.M._._.#X#X_.M.J.F.Y.V.W.v.3.k.F.l.C.W.! X + C ,.t.FX0X>.>.,.nXr.r.,.,.,.a.7.7.V + m S Z D H A T.I d H.m.8.l.M.V.M.Q.W.H.V.H H G S M M M c y f D.V.",
"0.G.C..X$XC.0.m.I.Y.I.f.j.l.C.J.Y.!.W.D.c.g Z.w.R.R.X . N k.:.:.nX0X2.4 ,.bXs.r.a.,.cX>.,.7.R @ M n Y C Y G B Z y D.l.0.N.F.M.N.J.Q.W.W.c.T.S B z c z c N I D.x.",
"H.M.M.|.`._.h.k.c.T.Y G h S D D.Q.V.R.D.S.I R W = . @ B e >.r.r.cXuXf t X.GXxXr.r.cXrX,.,.w.Z.% P A D m B U F B B B S G D H I H D c.!.U.R.L.H Z M M u M i g l.l.",
"l.4.j.C..XJ.3.c.v.H H E P J f Z.x.W.P.E.W W @ +   . x Y >.>.t.=.cXs.L i ~ oXvX,.0XHX` 1.5.w.Z.: M m G B B G B m n M S G H H H H Z A R.v.R.T.c.Z m m m y s D Z.k.",
"x.v.h.v.F.j.3.D.D.k.I R R K G P R T ! *   . o + 9 t >.1.0.7.t.p.KXr.e a e >.bXLXDXg t J G S.A.1 @ @ U U S m j n M r S D D A Z S S D R.c.v.T.H A s s y H D k.D D ",
"x.d.7 A 2.2.3.R.R.c.Y P E R K V & @ X X   l b c i e >.>.0.GXPXKXrX>.i a >.>.e.7.<.3 t $ % - e.0.T X @ U m r V z r m c.z.H Z Z Z G T.T.T.z.W.k k.D i 7 Z.k.f f G ",
"y t y u d h.v.U.I S J J V V b + @ 8 v v l v b b x T SXx j W eXw.W J 9 P X.u.7.>.m r   o z $ $ T 7.w.# + # b b b w w P.P.c.S.A A H G G A Z.D d D g D s Z.Y B n M ",
"u y u u S D A v.H L J c z 0 @ + * # # + + X X + . . + @ @ % 3 3 $ + + @ z.6.i.7.s ; . l x v $ @ e p 9 , . o + + < z k.P.I Z.c.Z S Z m S G y f G S s S H Y C M V ",
"C M n M N y 5 A g L r 0 x x + X X + + + + @ & M h 9 t y M n r f d c.U @ X + I K.w.i + X b x J 0 X X   * l l * o % V L.L.D H H S G S n m N n N C M n n n c z c v ",
"N n M M r u y s d G M 9 n x b b b x T T v J y i t r n B n B H Z 5.h.G T b . % Z.e.w.b X # l 0 0 l b o . + + X # z M F F G G H G K r m m V J V M n n z z z x l x ",
"q q y y A Z D G d y Z r F k S N S G H c.D k.z.z.S y Z s 5 y A k.H B V x x x .   @ T T R + x v M v V C U R.A c.D n S 5 A L G S P C w M M M R R K v x 8 l z l l 8 ",
"9 w y y Z A S t r m N < 5 m H L G H G H D D H F u r y m y 5 F A S N n v l l l * o X + @ + T K C z B B m s T.I Z 5 n B S S G G y n z z n z C R R x x 8 8 8 l x l ",
"M M r u A S q 0 < w w n 5 f I D D S L S Z S S S D m < 3 5 5 A F S N C R M 0 x x l z K E E R K K V G m m Z S B r V r N N K C N M z x x V R R C R V 0 l 8 8 8 l l ",
"r r r M A m q , 0 0 w w q f g p D f u h s S m N s G < < < G c.k.K N K C r c z x w z C P Y G K M m N y m S S y N G N M J K J P K V c V v C R V C C 0 8 8 = 8 0 z "
};
