/* XPM */
static char *_1b5dd79a4e244f4fcfaefe5ea65474bogQWul9O7Ov3qq4s[] = {
/* columns rows colors chars-per-pixel */
"80 80 251 2 ",
"   c #1C030A",
".  c #0A041A",
"X  c #170718",
"o  c #1A141B",
"O  c #2B0906",
"+  c #390A06",
"@  c #39140A",
"#  c #2A0C17",
"$  c #360D14",
"%  c #2A141A",
"&  c #361418",
"*  c #39241A",
"=  c #060827",
"-  c #180D26",
";  c #19162A",
":  c #090D30",
">  c #0D1436",
",  c #181A38",
"<  c #2B1423",
"1  c #2B1329",
"2  c #271828",
"3  c #361A27",
"4  c #251C35",
"5  c #19213A",
"6  c #1C223D",
"7  c #37252E",
"8  c #2A2530",
"9  c #23233C",
"0  c #282638",
"q  c #362738",
"w  c #450B05",
"e  c #47140B",
"r  c #4F0E10",
"t  c #471617",
"y  c #561A17",
"u  c #670E04",
"i  c #651E1C",
"p  c #53330F",
"a  c #46261A",
"s  c #4C251C",
"d  c #56261A",
"f  c #55241C",
"g  c #5B241C",
"h  c #5B291E",
"j  c #642116",
"k  c #64251D",
"l  c #6B251C",
"z  c #63291E",
"x  c #6A2A1E",
"c  c #702917",
"v  c #73261C",
"b  c #7B251C",
"n  c #742A1D",
"m  c #7B291D",
"M  c #70371E",
"N  c #491C23",
"B  c #591D26",
"V  c #681B22",
"C  c #482625",
"Z  c #4D2A23",
"A  c #542725",
"S  c #5C2622",
"D  c #542A24",
"F  c #5C2B23",
"G  c #5C2C29",
"H  c #5B3225",
"J  c #5C312B",
"K  c #4D2B35",
"L  c #5A3634",
"P  c #642523",
"I  c #6C2622",
"U  c #642B24",
"Y  c #6B2C23",
"T  c #652429",
"R  c #642D29",
"E  c #6B2D2B",
"W  c #732523",
"Q  c #792524",
"!  c #742C24",
"~  c #7B2C24",
"^  c #732D2B",
"/  c #7C2E29",
"(  c #673326",
")  c #6C3126",
"_  c #64322B",
"`  c #6C322B",
"'  c #743126",
"]  c #7D3126",
"[  c #74332B",
"{  c #7C332C",
"}  c #7A392E",
"|  c #652E31",
" . c #792D32",
".. c #673736",
"X. c #6B3432",
"o. c #6C3934",
"O. c #743431",
"+. c #7B3532",
"@. c #733932",
"#. c #7C3933",
"$. c #7C3939",
"%. c #724633",
"&. c #171D46",
"*. c #1C2443",
"=. c #1C2745",
"-. c #1C244B",
";. c #1D2A4B",
":. c #1E2B55",
">. c #1E335E",
",. c #222543",
"<. c #232A45",
"1. c #292D43",
"2. c #232649",
"3. c #232C4B",
"4. c #2B2D4B",
"5. c #382C42",
"6. c #26314C",
"7. c #2B324D",
"8. c #383549",
"9. c #232D53",
"0. c #272D54",
"q. c #253254",
"w. c #2B3454",
"e. c #25345C",
"r. c #2A355C",
"t. c #2A3958",
"y. c #2C3A5B",
"u. c #363856",
"i. c #323B5C",
"p. c #1F3662",
"a. c #263462",
"s. c #263A64",
"d. c #2C3C64",
"f. c #2C3C6A",
"g. c #333D65",
"h. c #4D3647",
"j. c #443D55",
"k. c #3A415D",
"l. c #2C4165",
"z. c #2C426A",
"x. c #384567",
"c. c #33446B",
"v. c #2D4A7C",
"b. c #364A74",
"n. c #3C5279",
"m. c #4A455B",
"M. c #534656",
"N. c #784A48",
"B. c #79504B",
"V. c #434868",
"C. c #4E5472",
"Z. c #47567A",
"A. c #675265",
"S. c #756572",
"D. c #85251D",
"F. c #86281C",
"G. c #8C2A1D",
"H. c #96291C",
"J. c #A82A1D",
"K. c #B62F1F",
"L. c #882622",
"P. c #832C24",
"I. c #8B2C24",
"U. c #832E2A",
"Y. c #8B2E2A",
"T. c #942D24",
"R. c #9B2D24",
"E. c #922E29",
"W. c #9B2D29",
"Q. c #833126",
"!. c #8B3125",
"~. c #83332B",
"^. c #8C342C",
"/. c #84392E",
"(. c #8B392E",
"). c #943224",
"_. c #9B3225",
"`. c #93332C",
"'. c #9B342C",
"]. c #94392D",
"[. c #9C392E",
"{. c #843631",
"}. c #8C3531",
"|. c #833A33",
" X c #8B3A33",
".X c #843839",
"XX c #8C3D39",
"oX c #933531",
"OX c #9B3632",
"+X c #933A33",
"@X c #9B3B34",
"#X c #993C3A",
"$X c #A72D24",
"%X c #B32D22",
"&X c #A33225",
"*X c #AC3325",
"=X c #A2352C",
"-X c #AB342A",
";X c #A33A2D",
":X c #AC3A2C",
">X c #B33325",
",X c #B8362A",
"<X c #B43A2C",
"1X c #A23632",
"2X c #A33A34",
"3X c #AB3B32",
"4X c #A33D39",
"5X c #AA3B39",
"6X c #B33B33",
"7X c #B63833",
"8X c #BB3B33",
"9X c #C4301C",
"0X c #C4382A",
"qX c #D13A29",
"wX c #C33B32",
"eX c #87443B",
"rX c #99423A",
"tX c #B5402F",
"yX c #A7423A",
"uX c #B64238",
"iX c #8C623A",
"pX c #C24436",
"aX c #873F40",
"sX c #915549",
"dX c #885952",
"fX c #AD4546",
"gX c #936755",
"hX c #9B6456",
"jX c #A3695B",
"kX c #8D6F6E",
"lX c #A66F66",
"zX c #AB7166",
"xX c #B8776A",
"cX c #B87C71",
"vX c #C27E70",
"bX c #B78C55",
"nX c #BA8870",
"mX c #CA9769",
"MX c #324D82",
"NX c #3B5786",
"BX c #475A86",
"VX c #485E8E",
"CX c #566688",
"ZX c #4E6994",
"AX c #496798",
"SX c #546C97",
"DX c #6077A3",
"FX c #8B768A",
"GX c #6F84B2",
"HX c #9F899E",
"JX c #CE9B90",
/* pixels */
"U P k j ! v l v P.Y.P./ Y k d d e d p d l j ! ' x ' ] ] ~./ / {.~.~.{ } [ z S h D h #.XX{.{ / ^ { ~.~.oXoXoX+XU.U./. X{.+.#.$.#.+.{.{.~.~ { E ` F J G A Z Z Z Z ",
"g g U x l l v D.^.).Y.~.~ l j g d z U Y n ! [ } x ' [ / ~.~.{. X/././.{ ' z z F h h [ XX}.XX|./ /.{ }.(.}.+X}.P.^. X X{.{..X+.+.#.+.{.{.{ } [ R S G H Z Z Z Z 7 ",
"a s U U x n P.`.W.W.`.`.!.n j z k l x x ' l Y } Y / / ~ / /.}.(.~.Q.} ! ! Y z Y z z ^ +XXX}.XX{.~.Q.~.~.}.+XOX+X}.}.{.{ +.#.+.$.` U ' [ ! ! [ ` U _ D A L Z Z * ",
"s d h z k ~ E.=X1X=X'.E.E.m j c v ~ ~ ~ ' ! n x ! { ^ / / { /.~.^.Q./.{ { [ z Y Y ! { XXU.U./ / ~.^.~.~.}.oXOX@XoX~.{ #.} [ $.@.( F h U x l [ [ o...D D Z a * * ",
"z U U Y Y ~.`.=X_.[.=XH.R.D.b ~ c n P.~./.! Y Y { +./ ^ / { /.(.^.^.~./.|.{ ~ ~ ~ !  XU./ ~ ~.{ ~.U.~.Q.(.^.Y.#X(./.{ #.{ [ O.R F F F U U x [ [ @.` G Z Z * 7 a ",
"Y ( U Y Y ~.`.'._._.=XW.W.T.Y.^.m F.!.m ! n n ! {.}.{.{.{ { ~./.}.}.}. X{.{ {. X}.~./.P.Q ~ ~ ~ P.P.] ~.+X}.^.#X~.{ } #.#.[ Y S D H F D z U Y k E ( F D Z C Z a ",
"_ h S U Y ] ^.OX).).).&XW.W.I.^.(.Q.^.Q.m c b U.}.oX/ / { ! ] ~./.{. X/.[ ! /.oX XY.^.^.+XP.~ { P.~.] /. X^.}. X{.{ +.|.|.[ U F S F G S U U Y Y Y E S A A Z Z s ",
"D s g R z x P.2X_.T.G.R.R.T.b b n F.).`.!.~.^.`.4XoXU./ (.~.~././.{.|.{ ) ! }.+XoX`.^.(.(.~.~ { { Q.~.~.U.U.~.~.#.#.#..X+.` U U R F G G U T E [ ' ( U F J J G J ",
"* a C f j l P.oX!._.[.].I.b v v b ^.E.T.].OX'.OX2X4X^.U.U.{..X{.~ ! #.[ Y )  X+X#XoX+X}.~ ~ ~ ~ ! /./.~. X{.{ { { [ #.+.[ E U _ X.O.R _ E R ` [ ) ` _ G .._ _ _ ",
"Z Z f f P / ^.P.F.`.).Y.b b v v b L.`.=X'.'.=X2X1X2X`./.~.U.Y.U.! Y ! Y z x |. X+X+X X~ Q / ~ ] ] ~ / /.|.{ } ^ [ [ +.^ [ $.@.T E E T T R E T j k Y _ R _ o...G ",
"a Z A ` ^ U./ D.T.E.D.P.v m v b L.D.W.1X=X=X;X3X1X=XI.P./ / P.Q W ! x Y [ z ! ~.+X+X+XQ.~ /.{ ~ { { U.U.{ [ ( ( ( E O.+.[ O.@.[ O.O.| E O.E O.O.U U F _ ..J X._ ",
"Z Z U ^ {.P.P.Y.OX`.P.~.~ W W Y.E.L.W.=X=X=X1X'.'.E.Y.Y./ Q / U.~ ~ Y ! [ ) k x U.^. X/./ ~ ~ ~ ~ /.U.P.! Y h h U U Y  . .^ +.+.E ^ ^ @.$.| | E E U G G G G L J ",
"s h [ { U.Y.`.@XOXE.U.~./ Q b L.].OX'.1X=X2X'.).`.Y.^.Y./ Q U.^.~.~ ! Y ^ [ x ' U.U.}.~.U.}.(.~.~.(.oX}.~.[ S h F T Y ^ +.+.+.{ { O.^  . .O.| | R G U G G A J J ",
"H F { (.`.].OX1X4X}.U.~ U.U./ L.L.'.'.=X'.=X[.[.[.).).Y.P.P.P.P./ ~ ! Y x ! ) +. X}.Y.P.U.oXoX}.(.Y.}.oX/ [ z d ( [ +. .{ { ^ +. ./ {.+.$.O. .X.G S G _ H d Z L ",
"k [ }.E.].`.`.OXrX.X^ ! ! ~ ~ L.F.T.'.'.'.;XOX4X#XOX2XOXI.I.P.L.Y.U.~ ~ ! [ ' }  X+X+XU.!.(.^.}.(.P.P.Y.~ / Y Y { ^ +./ [ Y I ^  .{. .{.^ T T | S G R S S D A H ",
"z ! ~ `.OX].'.+X X{.{ [ ! { Q.P.].).'.'.2X'.OX4X@XE.OXOX`.'.`.`.OXOXD.P./.U.' ' /.^.+XoX(.`.(.).`.P.P.P.W ~.~.}.{.U.~.! Y Y ! { U.}.oXY. .T T G G G ` _ _ G A L ",
"z x v ~ OXoX}.}.|..XXX{./ ! ~.+X@X@X[.`.;X_.@X@X`.].oXOX4X4X2X2XW.OXL.E.Y.(.] ~ ~.{.Y.#X^.^.`.`.`.I.).F.m b ~.^.oXL.{.x k ( { ~.}.oXE.Y.U.^ T P G S E ` ` S G L ",
"g U ! / Y.}.{ } { %.eX X/.~ P.`.@X[.'.4X;XT.[.@X[.@X+XOXOXOX1X1XOX1X1X1XOX).Q.] ~.}.}.+X`.`.Y.'.'.)._.].b P.D.Y.E.oX{ j k E / Y.E.T.E.Y.L. .Y j P E ` [ [ E U o.",
"z x ! / / #.O.` @.$.{ } {.U./ ^.!.^.`.OX[._.).'.@XoX@XOXOXOXOX`.1XW.2X1XW.D.F.Q. X~.U.(.!.!.I.E.W.&X_.).I.F.F.T.`.Y./ j T T / U.T.R.R.W.Y./ W I  . .O.E X.E _ _ ",
"x c ! +.+.O.o.@.$.@.E ^ { / ~.(.].+XY.`.'.'.I.P.P.P.I.'.4XOX}.E.1X1X@XE.].D.G.I.Q.^.P.(.'.[.1X3X-XH.H.G.D.G.F.G.'.I.^ P P I P.T.W.H.R.R.L./ U.Q  . .^ E O.E _ _ ",
"m m ~ {.{.+.{.+.+.[ R E [ ] /.(.].].!.[.OXY./ b ~ P.L.`.@X@XY.E.E.oX^.P.+XF.H._.G.).I._.1X7X8X6X7X,X*X*X&X_.;X_.F.Y./ W ! Q G.&X$X$XW.E.U.^ Q {. ..X+. .T _ _ ( ",
"!.~.~ /.{. X#X}.{ } X.E ! /.!.!.]._.).T./ i y T Y v F.L.`.OX`.Y.oXE.P.P.`.G.H.-X=XH.W.1X<X,X8X8XuX4X+XyX;X_.;XH.D.^.Y./ W m T.&X$X=X}./ y t B E  . .+.E T U H G ",
"~.(.Q.Q.Q.~.@XrX(.%.#.E { }.!.).G.)._.).! & % 3 R x m !._.=X'.L.I.G.] ] ).T.H.-X7X3X7X8X8X8X8XyX#.t & @ y {.).'.W.Y.U.P.Q L.R.W.E.XXg $ < 3 $ s B T E k R P U U ",
"~.~.] n P.F.).[. X{ ` Y /.+X)._._.&X&X[.d % q - t l m H.:X:XR.T.T.I.Q.m F.=XH.7X-X8X7X,X<XuXrXI # 2 k.8 % + Y XX{.W Q i Q Y.Y.U. .t # 8 0 0 3 7 S j Y ( U P R _ ",
"] ] /.Q.P.^.].].+X{ ! ^ @XyX_.&X$X>X<XT.y < q.4.< | E.7X>X%X&XL.D.P.L.F.G.H.8X8X8XwX,X&XyX/.+ < 5.k.w.7.j.q # K N & Z U E [ L 3 % 2 ; ; , 9 2 % g Y ^ } Y E Y H ",
"' ] ] Q.^.`.].+X#X#XU.{.].yX_.J.<X,XtXI.N ; r.e.4 N #X7X,XK.*XW.L.).G.G.H._.*X:X8X6X:XP.y @ q w.t.g.q.q.w.u.4 - o h.K % C $ % 2 0 0 5 > , , 8 % S { |./ ^ [ U H ",
"U.U.] m ).@XOX`.@XyXE.OX[._.:X<X8X8X8XD.t 4 a.a.r.3  .7X,X0X,X%XH.H.G.D.G.H.$X&X1X}.T $ 3 5.7.q.r.:.9.:.-.*.0.4 . m.8 ; ; 4 ,.,.1.;.*.*.,.6 8 % i {.{ Y  .$.` U ",
"Y.^.!.F.E.5X2X'.4X2X2X3X;XH.:X5X5XL.OXW 1 2.a.>.g.5.r 1XwX9X9X,X>XH.H.G._.I.Y.U.r t < q 9 6.9.-.:.9.-.-.3.&.&.= . = 5 =.2.2.2.3.q.> &.*.6 5 8 % i +X[ [ $.^ k ( ",
"Y.`.`.'.'.1X2X=X'.;XtX,X<X*X4XrXy + [ + 4 -.-.:.f.j.t }.wX9X9X0X,X$XW.}.{.U & # 1 0 ,.<.2.&.0.&.9.-.0.&.= = : &.9.-.0.a.a.-.9.;.*.*.3.=.5 0 0 % Q oX .+.^ P P Y ",
"^.`.].OX2X1X5X3X;X:X>X,X6X3XY t O & J # ; &.-.9.f.u.7 i 8X0X9XK.*XL.W y $ # 1 4 ,.2.w.&.&.&.&.&.&.2.> : &.-.a.f.f.:.a.a.f.g.q.q.3.;.,.,.6 , 0 &  .}.+.O.E R Y P ",
"`.oX`.`.@X2X[.;X:X>X,X<XyX .& 7 & G A # ; *.-.0.a.0.4 # }.7XwX,XU.w $ 1 4 , , ,.&.6 &.= = = : = = = = 9.a.a.a.s.f.a.f.a.b.c.e.9.*.=.2.4.,., , < O.~.^ _ H _ ` S ",
"P.^.^./.+XOX`.H.tXtX*XyX+.& q 0 3 K N % ; 6 =.q.r.g.0 3 + sXW.L.y < 5.2.&.&.: = : > : > > &.2.: = ,.= 0.a.f.s.p.f.a.f.a.e.f.r.0.w.;.3.4.9 , - 2 y Y h S F D F F ",
"Q.m ~.! }.OXT.&X<XuXyX[ % 8.V.2.q N K   - , &.4.q.t.k.8 L @ F G < 2 6 2.-.&., &.;.;.;.;.q.r.y.3.- j.: , e.p.c.z.f.s.s.s.s.>.:.;.9.w.3.;.=., ; 1 $ X.S D H _ G ( ",
"/.] ' } oX`.'.;XyX^.y # u.b.BX9.- X . . . - 6 3.6.6.0 ; ; % & % X , , *.-.&.9.-.=.t.;.l.b.c.e.2.- - 5.. 6.e.s.s.a.a.z.s.r.:.q.9.4.-.=., =.=.,.2 & @.F h S ..X.` ",
"{.[ [ [ {.].&X'./.+ < V.Z.BXNXMXr.4., . . . 9 4.;.;.5 8 o o X X . , *.-.2.-.&.9.e.e.r.a.b.b.c.u.2 X S.X 9 t.t.p.a.a.>.s.l.;.r.r.3.*.=.*.w.7.1.8 $ o.D D G ..@._ ",
"$.^ X.O.U.`.:XOXX.< t.b.AXAXAXNXf.a.2.= q 0 = ,.5 =.=.; ; m.m.; ; , > ;.&.9.-.2.y.:.t.l.n.b.d.4.% O O O 8 l.>.l.v.b.z.f.e.e.e.e.e.=.3.=.,.3.1.2 & _ D _ _ ..o._ ",
"O.O.G |  XoXOXeX& 0 x.BXAXAXAXNXMXg.u.4 h.h.X 8.k.5 6.9 = m.m.m.- - > &.2.2.w.q.y.y.r.y.l.n.y.1.& H M p * 1.l.l.b.z.l.b.r.d.g.r.r.,.q.,.<.7.0 2 @ ` S .._ X.....",
"+.R A X.{.oXrXj < 1.Z.SXAXAXAXNXMXb.0.K & Z # 4 7.k.=.=.o m.m.S.j.. > 9 &.q.t.t.w.y.e.z.s.c.l.q M bXbXp * 1.l.l.l.n.b.c.g.a.g.i.q.;.3.<.t.7.1.2 $ X.Y X.S G J J ",
") z S U +.}.rXw 8 i.BXSXNXAXVXMXz.x.4 < @ ( @ 3 0 w.t.6.. k.M.CXFX; , 2.<.6.t.k.i.y.c.e.s.c.j.K %.mXbXiX* 8 6.l.l.z.d.e.g.r.2.g.y.2.*.*.9 6 1.7 y $.^ X.A D A A ",
"Y g S S /.}.sXr 3 i.BXSXZXNXNXb.z.y.0 & bXmXH & 8.8.t.=.; q A.FXHX1 ; ,.<.t.y.q.i.0.b.l.b.c.V.7 %.mXbXp * k.l.l.s.s.l.c.g.a.9.y.-.9.*.,.1.1.1.2 B {.I E s Z Z Z ",
"Y Y _ h { @XuXoX$ 5.CXSXDXSXSXn.z.y.q a bXmXp 8 0 k.6 6 = 8 A.FXFX; ; 2.5 6.t.;.l.r.l.b.b.s.i.8 a gXiX@ < 4.b.v.z.a.e.c.d.d.q.;.;.e.,.6 6 <.0 3 T .Xk d a Z C J ",
"E ` _ F ! ^.6X5X.Xt 1 g.CXDXSXZXc.w.2 * bXmXp * q 6.6 6.= 8 S.kX2 = 4 &.=.6.6.t.6.y.b.c.b.f.t.5   @ s O 2 u.c.b.s.a.e.c.c.d.t.;.y.6.,.,.<., ; 3 B +.U D Z Z C D ",
"+.O.X.R ( Q.:X8X5X#XT N 4 r.C.Z.x.4.1 # %.B.* * 8.0 <.<.= 8.S.7 - > , &.5 =.w.w.6.w.k.b.b.f.d.2.o 7 kX  , r.c.c.a.z.z.s.d.d.:.c.y.q.=.,.7.9 ; 7 t E d H Z s D H ",
"#.O.X.` [ ~.3X8XwX7X5X.X| 5.1 &.2., 1 # * @ % 0 0 6 6.6 ; 8 * % - - , , =.<.7.=.7.V.g.V.BXCXg.9.. h.A.X u.y.c.b.c.c.f.>.e.y.t.y.y.y.w.w.<., 0 2 $ +.D H H Z F G ",
"W ^ ` ` ' ~ '.7XwXwX7X5XXX ...N X = X 3 * X 0 0 6 ;.<.0 . # B X.# ; , &., q., = : =.i.i.x.Z.g.4 X M.1 = g.C.BXZ.n.n.g.d.:.r.y.t.0.e.6 *.7.<.0 4 t $._ _ D D _ _ ",
"^ ` ( R O.~.T.7X,X8X>X>X5XL. .X.K   q h.. ; 6 =.q.6.<.5 o @ / XXB X - , 6 w.u.> = = = = = . X X K L X j.r.V.CXVXCXZ.c.V.e.d.c.y.i.9.6 , <.9 5 2 r aX` ( S G _ ..",
"X._ F U [ ~.L._.:X<X8X,X7XE.Q Y T t   . ; 6 6.q.w.6.1.; + ] uX-XL.V # X 4 ,.4.q.=.,.- X 1 $ r V r r 1 g.g.Z.BXBXBXBXZ.Z.CXC.x.g.i.w.3.6.<.9 , 3 r .X/ ^ E U _ _ ",
"G J J E E / I.T.;X&X:X7X1XOXW / I S X = 5 ;.w.l.l.n.q & I uXwX%XH.L.E $ 2 9 4.2.3.<., 2 K  ..X5X5XfXB 1 5.h.u.m.V.V.V.C.C.CXV.V.i.=.5 6.<.1.4 1 t aXQ +.[ ` T X.",
"H J X._ E  .P.`.'.R.H._.].!.x n v E # - 5 e.l.c.n.k.* f fX8XwXJ.J.L.L.B < 4 1.k.w.,., ; 3 | Y.1X7X7XfXW.Q B t 3 K 0 q V.V.C.k.V.V.i.3.<.5 1.0 % B  .W ! ' ! Y ^ ",
"D H _ R Y W U.].'._.T.!.~ ! ' l P./ $ X 6 t.t.l.n.k.t }.=X%X,X,XJ.R.E.U.B 7 8.k.k.q.&.&.- < T Y.H.%X0XwX*X5X~.O.| t & 7 4 q 8.m.j.4.7.3.<.1.0 < T Q i Y Y ! ^ O.",
"H H S _ ` ! Q.!.P.^.+X~.^ ! { P.E.E.T $ o 4.g.c.x.% I '._.H.>X>X,X%X$XW.W $ m.V.y.c.-.2.4.4 # B L.$XJ.J.%X0X8XuX5X'.+X! t & < 2 j.u.7.7.8.1.0 3 I Q P T z h T E ",
"F S g E ' ' Q.(.~.~./.[ ` ` { }.1XW.OX .3 5.x.V.5.N E.7X&X_.:X:X>X>X$X$X4XB h.Z.Z.s.c.y.q.,.0 < t V L.L.J.,X0X0X,XpX:X'.rXeX_ & # 3 5.0 , <.0 3 l ~ x S S h y y ",
"E Y P Y ! ~ ] ~.+.+._ J o.R ^ oX'.=X$X#X| % k.k.& x 6X,X=X2X!.G.J.%X,X$XuXQ q C.ZXn.n.n.c.r.w.1.1 # T Q H.%X%XK.$X-XW.W.I.).].OXY.y # 8 ; , 8 & k n l z Y U g f ",
" .^ ! ! ~.^.~ ] [ S f * A S E +.(.T.OX4X Xt K % y yX<X>X'.+X~.`.'.J.K.,XwX`.< CXSXSXVXBXNXz.l.q.2.4 & B L.R.J.J.J.H.W.W.T.R.*X<X:X4X[ $ < 2 4 $ Y v l z z g g y ",
"^ /  .~.}.@X+X+X( t L N.C & t d g { {.OX4XU.r w _.<X-XH.). X/ }.2X*X*X>XqXfXK C.DXGXZXv.BXNXn.l.r.0.5.# B Y.$XJ.H.H.$XW.&X=X*X*X>X-X5X}.e # # # ^ m z z z k U E ",
"Q Q P.P.^.OX@X}.e %.nXlXB.gXgX%.e w r i +X+X+.{.tX<X).].}./ ~.Y.'.-XJ.0XqXpXA C.DXDXZXv.BXv.b.z.f.g.u.5.$ V OXR.T.T.1X3X=X$X$X*X%X,X0X6X/.r O A ~ ~ x z ) ^ ^ E ",
"~ ~ Q.P.^.@XOX Xe B.nXcXzXlXhXhXjXzX%.w + + i XXyX;X[.F.~ ' { (.'.*X&X,XqXpXA C.ZXAXNXv.MXv.v.s.l.b.c.u.7 O ! G.!._.:XtX_._.&X-X:X,X,X,X[.m v ! ~ /.z z Y ` E E ",
"{ ~.!.^.P.oX+X/.e dXcXnXcXcXcXcXzXhXzXlXdXf w u u ~./.! ' } ' { ].'.=X:XwXuXB M.x.n.n.c.v.n.x.g.y.u.k.8.X   U {.n n !.[.!.!.Y.^.'.&X$X_.).m l v x ' z U [ ) E T ",
"Q.Q.~.Q.Q ~ ~.{ y jXjXsXsXeXsXeXeXsXsXhXjXgXhXsXf e _ U h U U l ! / P.Y.&XT.y K q o . ; q 8 7 7 2 3 2     @ @ + @ + @ @ + + + e e e e j y s t @ e z U ( ` ` ` ( ",
"(.(.Q.!.P.~ ~ { p xXxXxXzXlXjXhXsXeXeXyXsXsXhXhXdXC y $ ..%.@.` [ #.|.XX].eX$...O S.kX& %.B.N.N.B.B.N.B.%.N.%.L J L L Z D a & a s H z o.` %.B.& e d g h M ' Y z ",
"E.+X(.Q.U.{ [ #.Y vXvXnXvXxXxXxXzXlXhXhXjXjXjXlXdXF J N N.B.N.o.X.` ` { { ] } P + JXkX+ j n c x F S T j P y t @ + @ @ + + + O + O + + w w r y E S S U ` [ ' } z ",
"oXI.!.Q.^.~.Y ) O.JXnXnXmXvXvXzXzXlXhXhXsXhXdXsXdX+ t t t t w e e y g l v m F.~ w w @ e ].[.rXQ.[ } /.#X{.rXO.[ ` @.@.#.#.%.+.{..XeX~..X X X X{ U T ` [ ' ) ` E ",
"^.^.] (./.! I P t %.hXsX.XsXaXsXhXhXgXlXlXN.@ + e y E [ O.#.} #.eX X+X5X6X,X8XpX:Xu u _.tX>X*XyX!.!.T.=X1X1X(.|.|.} /.|./.{.+X#X4X4X;XrXrX[.(.! Y X.X.U [ ) ) U ",
"}.U.m ] Q.~ { [ F + $.jXcXcXlXjXsX%.w e e + @ d ` [ [ / / |.~ ] !.`.'.3X0XqXqX0X,X<X:X<X0XK.>XH.F.).-X*X-X'.)./.] ' ' ! ~ Y.@X5X'.OX;X[.yX!.] ^ R G G S ( ) [ ( ",
"W ! ] ] ~ (.}..X( @ B.sX%.o.e e e r y U O.I U ! } |.~ { ~.~.{./ P.`.'.6X8X0XqX0X,X,X0XwX0XJ.J.H.F._.$X-X-XR.Y.{ [ ) ( E { /.2X=XE.E.+X@X+X/.[ U A A A A R [ [ M ",
"W / { ~.~ Q.^.(.) e e @ y S f _ ` O.[ I ^ i I / ~.(.~.U.{.{.{.~.Q.rX4X;X<X8XwX,X>X>X,X0X,X*X&XG.F.].=XH.$XOXP.{ [ _ U R { ~.OX1XW.OX]. X{ ' ` _ H A J G ( [ } ' ",
"{ ~.] Q.^.(.`.+X X{ { [ { { ' ^ ^ ^ Y P I i ! { {.(.(.^.+X+X{ / ~.].'.G.H.&X*X<X<XJ.J.$X<X:X:X_.].].'.R.=XOXI./.[ ( J ( ` { OX5X4X1X^.~.' ) ` X.G A A J G Y z x ",
"] ~.n m ].[.].`.]. X XQ.W ~ Y ! x l P Y Y l ! ~ U.~.(.(.+X@XY./ ] Q.`.'.'.&X&X&X&X_.R.J.R.T.[.`.).I.T.'.'.'.].{.[ U S S Y ~.].2X5XOXoX{ ' ` ` ..H h A g U g z h ",
"v ~.P.P.(.[.].`.@X`.~.] m ] x x x j z z z l [ ~ ^.(.`.+X@X4X4X+X^.!.^.`._.3X:X&X).)._.[.!.I.'.`.oX`.I.!.).).+X{ Y U ( ( E ] Y.'.'.@X@X{ ) [ o.` H H A h g z d d ",
"n ~.(.(.].].[.[.@X).] |./.] c x k P Y z k ! } / {.}.`.`.OX1XyXOX!.Y.^.T.W.5X3XR.G.G.).).Q.F.^.`.Y.^.~ v P.P.U.^ O.U F ( ` |.'.OXE.@X+X}.[ [ ` ` H ( ( S U h g f ",
"{ ~.(.(.oX`.].OX^.!.!.eX/.n x x ! { ` Y Y ^ { ~ /.oXoXOXOX1X4XOX^.Y.~.Y.E.[.[.I.).rX[.Q.m m (.^.U.~.] ~ ~.{ W ! [ ( ( ( ` /.+X4X4X@XoX X|.[ @.[ ` o.` ) ( G d s ",
"{ Q.}.^.`.].OXE.G.(.].~.~ M x x ~ [ z k ! [ ' ~ ~.oXOX1X5X2X2X`.E.^.^.I.I.].`.G.G.[.[.F.m ] (.Q.! W l Y ! ! Y [ ` U U @.` }  XoX2X].^.(.{ { |.#.[ [ ' z U h s s ",
"~.U.P.}.oX`.oXY.^.`. X(.~ { n x k k z k [ { +.{.Q Y.+X4X3X5X1XW.OX^.I.oXQ.P.'.`.).).rXG.F.^.(.P.! I k Y Y x k U ( R R ` ` #.|.#X@X@X^.^.~ {.U.{.#.' z ) ) F f s ",
"^.U.(.(.(.^.oX`.^.(.~.~ ~ ~.! z U Y ) [ ^ W ! }.P.P.oX4X5X5X5X4X4X@X`.^.m v ^.@X[.).).rX`.^.^.Q.! I x k Y I S h _ ` [ X.` X.+.XX+XOX`.P.U.U./ ~ { ! z z ( ( g f ",
"] ~ /./. X X(.P.!.Q.' ] ~.~.! x ! [ { .X{ l l ~.^.Y.Y.oXOX@XOXW.OXoXP.~ n n ~ (.!.Q.m Q.].^.Q.] l Y I k Y U D d F E O.O.X.@.O.{.+X@X].].oX+XU.~ ! M h U ( ) U U ",
"} x ! ! ] |. XQ.m ] ' ] ^.~.! ! [ +.{ {.~.~.~ ~ Y.U.Y.Y.Y.OX@XoX`.`.P.! ~ ! n n !.c c n Q.Q.] ! k z I I U U F D F E O.[ ` @.E { +X].@X+X@X+X X! Y M z H Y ) ( ( ",
"U d z z ) } } ! m ] ~ P.(.^./ / / +.{ ~.^.}.~.^.P.Y.Y.^.^.oX2X@X'.E.Y.U.] ' x x eXn m eXn x ] ! x Y Y Y U P F F U O.#..X} [ ( { (.@XrX].+X X~.! x Y Y U U U U U ",
"p d d z U Y ! ] ] Q.P.U. XP.P./.^ [ +.}.oX`.Y.+XoXoX(.~.^.@X4X2XOX`.Y.U.! l k x Q.Q.Q.M x l ! x U k T Y U S F _ E [ +.{..X} ! [ P.+X].].^.P.! x z U U U z h U h ",
"f f h S d S Y [ ~ P.U.(./.! ~ { ^ +.}.}.+X^.^.].@XrX X~.(.rX#X@X(.^.U.U.W i k x ] ~.m c x x Y I k h P P S F ( ` [ } { U.~.{ ! { ^.P. X(.~.] /.v U U G S f d F h ",
"a A A A a D U [ { /.oX}./.{ { ^ ^ / }.oX@XoX].^.4X#X+X/. X(.^.Y.P.Q.P././ W Y Y ] n j x k P Y Y k k g g g S U _ [ } ~.P.~.~.! / /.^.P.Q.(.Q.~.{ z U ` G S F U d "
};
