/* XPM */
static char *_635091996740[] = {
/* columns rows colors chars-per-pixel */
"80 80 256 2 ",
"   c #18020B",
".  c #0B021A",
"X  c #160518",
"o  c #1B131C",
"O  c #2A0A08",
"+  c #370A08",
"@  c #39130B",
"#  c #290B16",
"$  c #370C13",
"%  c #2A1317",
"&  c #371517",
"*  c #2C120E",
"=  c #3A241A",
"-  c #362315",
";  c #090A26",
":  c #160B24",
">  c #19152A",
",  c #0D1334",
"<  c #1B1D3C",
"1  c #171935",
"2  c #09152F",
"3  c #271827",
"4  c #351925",
"5  c #241D37",
"6  c #290C22",
"7  c #1B213C",
"8  c #182039",
"9  c #28222D",
"0  c #39242A",
"q  c #232234",
"w  c #23243C",
"e  c #2A273A",
"r  c #362838",
"t  c #3C3339",
"y  c #43150D",
"u  c #470C14",
"i  c #471717",
"p  c #551B18",
"a  c #4D110B",
"s  c #661D18",
"d  c #731E15",
"f  c #4C251C",
"g  c #46261B",
"h  c #54241C",
"j  c #5B241C",
"k  c #5B291E",
"l  c #562619",
"z  c #583714",
"x  c #64251D",
"c  c #6B261D",
"v  c #64291E",
"b  c #6A291E",
"n  c #652116",
"m  c #73251C",
"M  c #7B241D",
"N  c #742A1E",
"B  c #7B2A1E",
"V  c #712617",
"C  c #72371C",
"Z  c #461C24",
"A  c #561D23",
"S  c #681C24",
"D  c #4D2A23",
"F  c #472725",
"G  c #542621",
"H  c #5C2522",
"J  c #542A24",
"K  c #5C2B23",
"L  c #5D2D2A",
"P  c #56282A",
"I  c #5C312B",
"U  c #56342A",
"Y  c #472836",
"T  c #593935",
"R  c #503032",
"E  c #632523",
"W  c #6B2522",
"Q  c #642B24",
"!  c #6B2B23",
"~  c #642D29",
"^  c #6B2E2A",
"/  c #67262A",
"(  c #742623",
")  c #742C24",
"_  c #7B2C24",
"`  c #732D2B",
"'  c #7C2E2A",
"]  c #7A2624",
"[  c #64322B",
"{  c #6C322C",
"}  c #683126",
"|  c #743126",
" . c #7C3125",
".. c #74322B",
"X. c #7C332C",
"o. c #78382F",
"O. c #662B34",
"+. c #772D33",
"@. c #653531",
"#. c #6C3432",
"$. c #6C3933",
"%. c #693A39",
"&. c #733432",
"*. c #7B3432",
"=. c #733932",
"-. c #7C3933",
";. c #793A3A",
":. c #714732",
">. c #181C41",
",. c #1C2343",
"<. c #1D2A4A",
"1. c #1D2747",
"2. c #1D2B54",
"3. c #1E325D",
"4. c #222544",
"5. c #242A44",
"6. c #232B4B",
"7. c #2B2D4D",
"8. c #272846",
"9. c #25314D",
"0. c #2C324B",
"q. c #373449",
"w. c #222E53",
"e. c #2B2D52",
"r. c #253254",
"t. c #2B3454",
"y. c #24335B",
"u. c #2B355B",
"i. c #2D3A5C",
"p. c #273859",
"a. c #333B5C",
"s. c #363856",
"d. c #382D43",
"f. c #2C3C63",
"g. c #273966",
"h. c #313D62",
"j. c #323E69",
"k. c #2D3D70",
"l. c #1F3763",
"z. c #463C56",
"x. c #4D3547",
"c. c #613141",
"v. c #39415D",
"b. c #2D426B",
"n. c #2C4264",
"m. c #344364",
"M. c #33446B",
"N. c #3A476A",
"B. c #2C4775",
"V. c #334A72",
"C. c #374A75",
"Z. c #37527A",
"A. c #47455C",
"S. c #564758",
"D. c #754B47",
"F. c #79524A",
"G. c #6E504F",
"H. c #434867",
"J. c #475579",
"K. c #495072",
"L. c #695567",
"P. c #796772",
"I. c #7E6058",
"U. c #84251D",
"Y. c #87291C",
"T. c #97291C",
"R. c #A82A1C",
"E. c #B72E1D",
"W. c #832C24",
"Q. c #8B2C24",
"!. c #832D2A",
"~. c #8B2E2A",
"^. c #862523",
"/. c #932C24",
"(. c #9B2D23",
"). c #942E2A",
"_. c #9B2E29",
"`. c #833226",
"'. c #8B3126",
"]. c #83332B",
"[. c #8C332C",
"{. c #84392E",
"}. c #8B392E",
"|. c #943124",
" X c #9B3225",
".X c #93332C",
"XX c #9B342C",
"oX c #94392D",
"OX c #9C392E",
"+X c #843531",
"@X c #8C3532",
"#X c #843A33",
"$X c #8C3A33",
"%X c #8A3B3A",
"&X c #933531",
"*X c #9B3632",
"=X c #933A33",
"-X c #9B3B33",
";X c #983D3A",
":X c #852F30",
">X c #A52D25",
",X c #A23224",
"<X c #AC3325",
"1X c #A2342B",
"2X c #AC342A",
"3X c #A4392D",
"4X c #AB3A2C",
"5X c #A93826",
"6X c #B3352B",
"7X c #B43A2C",
"8X c #B93427",
"9X c #A23632",
"0X c #A33A34",
"qX c #AB3B33",
"wX c #A63C39",
"eX c #B33A32",
"rX c #B93B33",
"tX c #B22E25",
"yX c #941E14",
"uX c #C7301F",
"iX c #C33628",
"pX c #C53B32",
"aX c #9A423A",
"sX c #864939",
"dX c #A64139",
"fX c #B54136",
"gX c #BF412F",
"hX c #A43D41",
"jX c #853D40",
"kX c #865648",
"lX c #875A55",
"zX c #95524B",
"xX c #96665A",
"cX c #8A645D",
"vX c #996B63",
"bX c #926F6D",
"nX c #A97668",
"mX c #AE786E",
"MX c #A55F4A",
"NX c #C17F71",
"BX c #B78C53",
"VX c #B68672",
"CX c #C38676",
"ZX c #CC9E69",
"AX c #395685",
"SX c #465A84",
"DX c #485E92",
"FX c #496797",
"GX c #556B98",
"HX c #54678D",
"JX c #687DA6",
"KX c #5D73A2",
"LX c #8C7789",
"PX c #6D81A9",
"IX c #B38D8E",
"UX c #B5A29E",
/* pixels */
"g f K Q o. .`. .`.{.B V  .X.b ( $X:X.X.X.X`.W._ N ) ' ) L L J I L $...` +X].` W / { o.o.X.#X+X!.W.oX~.~.~.!.` X.`.[.'.N c b l v Q v k f D g F = U } Q H f g l Q ",
"G h l j b N `.`.`.`.{.]. .o.X.) *.' ].$X#X`.-.` ! | | E K L I I L [ { ^ *.` +.^ H H } { | ` _ U.@X*X.X.X&X`._ X.`.}.].] b b } b ( X.K k D D D g f k ^ Q f l j b ",
"h K j v | {.[.`.}.}.[._ ( | &.&.%.@.~ ;.%.O.P L @.=.^ Q j K [ [ [ K } { #.#.@.~ H G G ~ #...| o.`.oX&X.X`._ _ {. .`. ._ ) ) | c ] [.X...K U h f j k ^ Q k k ^ v ",
"J K v v ( {.}.oX[.&X&X_ _ X.Q L i + & $ $ + $ $ $ P ~ Q [ [ ~ { [ K Q { [ @.~ H Q / ~ ~ ..=... .[..X-X.XU.U.`.`.B  .{.#X*. ._ B .X[.@X]...{ l h ~ Q Q b v b v s ",
"g f K !  .$X[.oX.X[.-X}.$Xo.+ O   = :.zXlXxXD.R 4 $ O./ &.` Q ! ^ ..X.{ { ^ ` *.#XX.$X$X' {.&X[.-X-X-XXX)..X'.`. .`.$XX...' @X&X-X.X[.!.+X' x j Q ! ! b b b N ! ",
"f z ^ X.#X$X[..X&XoXOX&XoX| - G.G.I.IXmXmXMXLXmXI.* + +.` W ) ) ' X.`.W.{.`.@X-X&X$X&X*X.X[.*XXX*X-X0X9XwX*XoX[.Y.].$X*.&.-.@X&XXX.XoXQ.W.!.' m c X.].].' V n m ",
"v Q ) ].$X+X$X}..XoXoX-XoX] @ cXbXF.VXVXmXzXCXCXbXF u &.+X!.Q.^.W.Q.T. XqXqXeXeX;XaX;X-X3X1X X/. X3XqX9X0X*XoXoX|.=X;X#X=.{ !.@X-X.X*X*XW.] }._ W.[.|..X.X^.m m ",
"X.X. .' ].`.[.[.[.oXoXXXoX#Xh F.VX:.CXmXmXzXCXmXbX$ p | $XW.=XXX).,X7X6XrXrXqX;Xa a x aXOX X3XXX/.1XqX9XXX.X;X.XOXaX@X-.=.$.X.@X=X&X*X*X~.^.U.oX-X0XXX9X1X.XB m ",
"]._ _ _ _ }.[.'.W.'.aXdX|.}.} :.VXkXCXCXnXsXmXnXI.O } | {.`.&XXX9XeXrXpXrX4X#X$ 4 r & & { }.0XqXfX5X3X XwX;X;X=X}.#Xo.X.:.;...#X$XaXwX).*X).Y./. X|. X X9X_.~.W.",
"]._ ' `.] `.[.oX[.'.'.oX'.sX~ p nXzXCXmXmX:.VXxXT * { X. .[.oX).>XrXpXrX7XoXi r v.a.7.r 4 + @XfXgX7X5X3XwXdX;X].].:.=.{ &.;.sX#X#X@X@X&X&X)..X X|.|.XXXX9X_..XQ.",
"@X`.!.'  . .`.oX.XoX`.`.}.%X=.i xXxXnXnXxXF.VXcX& & [ | ].$X|./.7XrXtX6X0Xc 4 HXSXSXJ.h.q.3 A hX<X8X6X7X4X). .! ` -.{ [ ^ *.%X%X| ` ' ~.^.U..XOXY.T.1X1X X.X[._ ",
"@X@X`. . . .`.}.`.$X}. .W.%XsXp xXMXnXVXlXD.bXcX* F ~ ^ ' {.Q. XrX6X6XqX$XF A.GXGXGXGXSXK.H.# +.dX7X8X7XqXXX].! ( } { ^ ` *.@X{.X.` _ !.!.W.'.oX X,X(.(.)..X]. .",
"{.}.@X}.}.`._  . .].[.B B #XsXp kXvXnXxXF.F.cXT O T @.=.| ) ' OXwXeX2X=X%.> J.JXFXSXFXFXFXSXq.# X.hXrXrX5XOXoXaX+X' ) ` X.+X]._ ) )  .' ] m M Q. X,X_.(.|.'. .! ",
"X.] !.].`.{.`.| ! )  ._ B `.X.n y vXvXnXlXlXnXi + @.{ ^ ! ) ) `.*X.XQ.+.Y s.PXFXAXFXFXFXDXDXK.q.& ' wX<XT.,XdXdX=X@X{.`.!.'  .)  .' !.] N ( M U.Q.(./.^.B B c n ",
"+X| ' !.B N | b ! b ! C N N ) b f xXxXvXzXvXF.O K &.` ] X.X.) ( ( _ _ O.6 K.KXFXAXDXAXFXDXAXSXH.d.& ( wX5X5X,X X|.[.`.{.`.' `.`.!._ W.] M m m m B Q.~.M n n l l ",
"| X.*.' ( V c v ! ! b b b  .-.-.i mXcXnXlXvXf O -.+X].[.&XW.m m ) ! &.Z 5 K.HXZ.C.AXAXFXAXAX<.w q 0 $ aXdX7X<X,X|..X'.}.oX[.oX=XW.^.U.~.~.m m m M [.[.( c b v l ",
"{ { ` ) ' ` c x ) ) x n c ) X.^ @ F.xXnXlXcX* + +X~..XXX3X/.B ( ! / P X w N.n.n.M.k.AXC.k.u.: 0 & $ * p wXeXrX<X XQ.'.aX|.|.aX XoXY.Q..X).^.M B M }.B V V v l y ",
"..X...*.*.' ! x X.X.Q x b ` ' ^ g & xXnXcXP O E &X_.T.(. X/.' ^ / $ X X 1 t.t.v.a.j.k.j.u.e.6 F R I @ + ).rX7X<X,X/.|.aXoX'.|.dX X/.XXXXQ.U.^.Q.B `.Y.M B b v h ",
"@X+X].].].X.| x Q ! Q x ! ! ' ..I @ lXxXlXZ + %X_.(.2X,X.XW $ # X   Y : 6 3 9 t e e s.e.>.> X Y i P I .._.rXeX7X5X,X|.|.'.oX|.OXXXXXXXXX(.(.).).|.}.`. ._ b b l ",
"@X&X@X+X+X#X..x v ! ! W x W ( &.[ f kXI.%.u p @X9X6X9X&X*.$ o 2 ; . z.3 % & = = - % r r : . . X % % $ + W ^././. X|.|. X.X XdXOXXXXX*X1X9X9X9X/.'.'._ `.) N v l ",
"-X=X@X+X].X.| ..^ ! ! ! ! W ( -.&.p & T D a ( XX>XeX@X^ & o q 7 8 > . r & :.BXVXxXy g T d.. . : 1 > 1 5 6 u Z p j ! ] *XXX0X0XXX1XXX1X1X1X1XXX.X'.B B {.| ) | b ",
"&X.X[.@XX.m W X.| ^ ! W W c s W ` Q = U F p U.1XqX^.y % q.0.t.t.5.w > X @ kXBXZXZX:.P x.e . : 1 7 ,.>.w.8.5 6 6 % u W ~..XXX/.XXXX3X-X0X3X3XXX-X`.N b | N c N b ",
".X[.[.]._ c ) +XX...X.' ] ( c W W ~ g R y p )./.[.a x.v.N.M.f.f.i.6.7 9 % f z z z @ # . : 5 7 1.1.6.2.>.u.u.u.e.r % p _ Q.XX*X*X-X-XOXXX1X1X1X*X[.B ( b ! ! o.N ",
".X&X$X`._ ].$X+X) ` ' ] !.].X.) W ^ i D.:.a -X1X.X+ 4 z.N.M.j.N.a.9.5.q 0 0 % - % 4 e d.4.9.9.9.e.w.w.2.w.g.u.e.> & Q ] ^.&X-X-X-XwXXX.X1X0X9X9X.X!.) ) b X.o.| ",
"0X;X&X!.~.~.!.] `.@X@X@X!.}.].X.X.} y D.:.y .X7XqXoXp % x.a.K.J.m.t.9.1.w q.t e q.e q.s.,.<.9.9.u.u.g.f.j.s.5 6 i ~ ! _ ^.;XoXoX*X-X-X.XXX3X9XwX;X@X+X] ! ) b b ",
"wXwX&X~.!.!.!.!.&X&X&X[.].}.{.{.X.} & :.T + Q.1XgX4XaX( F % x.a.H.<.r.<.1.5.0.t.t.9.a.7 5.6.0.0.t.7.s.s.x.4 i &.W W M ^.Y.oX-XoX*X*X.XQ./.XX9XwX*X=X+X+XX.X.| | ",
"=X=X$X].`.[.@X@X&X*X).@X}.}.`.X.*.&.@ T T $ ].-X(.<XrXfXoXW i 4 r 0.0.9.9.6.,.7 t.v.,.0.w q 0.0.e e Z Z u ] hX.XM W.U.W./.*XoX.X*X*X.X[.[.[..X[.!.!.+XX.' ' ' | ",
"+X].!.[.[.&XaXwX0X*X.X&X@X{. .X.` =.$ R T + ^ _ XX(.tX8X7X X}.j % 3 > w 5.8 0.5.,.9.w 7 > q 9 9 3 @ S &X0XeX6XeX/./.Q.).*X*X.X-X*X*XQ.Q.W.W.`.!.' ' X.X.` ' ' ' ",
"%X@X}.[.~.*XwXqXwX9X*X-X;X&X+X].*.&.& R T O { _ }..X X1X,X(.1XfXb + * o > o ; ; : ; > > o o > T + ].fXiXiX7X8XtX4X|.|.wX-X-X;X0XXXQ.W.] _ !.].].+XX.X.X.' X.].].",
"&X;X;X&XOX*XqXeXqX9X-XwX;X;X@X' +X&.@ R T + { o.' @XoXOX<XT.tXrXdX) + # 9 q.q 7 s.s.z.z.A.> % $ aXfXiXuXuXiX8XtX5X3XXX*X-X*X9XwX.XQ.W.' _ ' ' +X].] X.X. .+X+X' ",
"[.;XwX0X-X*X0X9X9XwXdXwX!.X.+X+X' ..@ U T + }  .`.W.[./.5X<X6XrXgXfX;XA 0 L.L.L.S.S.S.S.A.X & H XXiXuXuXuX8X6X,X XXX&X~..X*X9XwX.X^.W.!.] !.:X@X]. .].{.`.$X+X .",
"~.=XwX0XXXXX0XXX.XXX-X&X_ _ ].!.!.-.@ U T * ..{.`.[.oX/.5X7XeX>X>X*X:X&.* Y HXIXLXP.P.K.> . % H ^.6X8XiXiX6XT.Y.^.Y.~.~..X_.9X9X~.W.W.@X!.] ].' +X`.{.}.{.+X$X].",
"W.[.*X*XXXXX-X-X[..X[.[. .].`.W.[.$X@ D U @ %X-XXX0X_.(.4XeX(.Q.W.S & 6 > o 3 LXIXJXx.: 1 ; X % u [.<X8X<XT.yXU.Y.'.*X_.*X*X_.*X&X[.!.!.' N ! _ {.@X@X}.$X].#X].",
"W.[.)..X[.&X-X[.[.'.W.`.`.=X=XoX.XsX@ T 0 + ;.@X&X&X&X~.oX@X] S p 4 % 3 : 1 : > 3 3 X > 1 5 > : % p ~.2XT./.Q.^.'.Y.).*X*X9X*X9X.X!.] _ _ ! ! | @X@X@X].X. .+X].",
"`.`.[.~.W.!..XQ.'.[.'..X.X.XwXXX/.=Xa R U & Y 4 Z Z Z Z $ & # # 4 3 > 1 1 5 w 1 > 1 , , >.>., 1 3   p W {.] W.[.`.W.W.@X*X9X9XQ.B W.) ! ! ! } ].@X@X@X].{.{.+X{.",
"+X'  .W.] _ [..XW.Q..X.X X/.4XeXqXaX+ % % r x.> : ; : X : > > > > < < < 1 >.>.8.7 <.8 ,.2.2.>., , 3 # i j S ( ] N X.].].~.*X0X^.W._ b } { } ! X.].{.#X{.X.)  .X.",
"' ( _ X. .) B `.Q./._. X XT.7XfXdXn y IXS.r K.J.K.M.M.a.0.0.9.4.7 1 4.>.>.>.4.>.9.w 7 <.>.6.>.< >.5 3 6 0 Z A / / &.%X%X=X&XoX[.`.) N ..&.Q Q ! _ ' {.{.o.| ! ..",
"( s b ) ) V N W..X0XqXqX X,XrXrXfXd @ bXL.0.m.Z.AXAXV.V.H.N.n.9.5.,.e.e.6.w.6.e.9.9.9.9.y.>.>.< , < 5 5 5 % Z 4 $ Z u p p S X.].N | | | ^ Q ` ) ) (  .| ..b Q k ",
"! x x b N _ [.OX.XOXqX1X,X<XpXpXgX Xa y 0 e n.B.AXZ.B.V.N.N.m.a.9.6.e.< r.t.t.r.n.9.i.t.>.>.6.1 ; < >.4.0.7.q.5 : : o X X & F p { ..! ^ Q ! #X@X$X{.{.| v j x v ",
") x b b N }.*X.XY.T. X1X5XrXiXiXiXgXsX[ T 9 n.B.AXAXFXHXZ.N.j.a.0.8.2 ; 6.r.u.6.9.v.i.w.w.w.1.1 ; 1 ,.e.t.h.m.m.K.K.J.J.H.d.4 O h ;.=.! ! X.=X=X$X$X{.| } } v k ",
"_  .{.{.`.}.OX|.Y.|.T.Y.,X7X<XE.iXgX}.} G.3 m.AXHXGXPXGXJ.v.h.7.0.> ; 2 0.7.1.j.a.h.r.i.p.r.<.1.2 < 1.6.u.u.b.V.B.AXAXAXC.t.# % @ %.sX+.!.=XoX-X&X=X$XX.Q Q j K ",
"( X.`.N C Y.|. X3XaX'.|.,XR.8XiXiXR.'.n T > m.FXPXJXJXGXK.a.6.,.9 q . 1.N.u.j.y.w.i.u.i.r.y.i.<.2 < ,.6.<.i.n.b.B.AXAXAXAX1 A.UXg G %X` @X=XoXOXoX!.!.] ! E Q K ",
"c N `. .V C oXOXoXOX|. X,XR.6XpX8X<XoXp G.o v.Z.DXGXSXSXN.f.4.>.6 5 . i.j.M.K.j.C.n.r.p.y.p.2.<., , , 7 1.2.m.Z.AXAXAXAXn.8 t I.& i +X$X$X}.oXoX[.[.@X@X' ' ` -.",
"c c  .{.B `.oX'.Y.`..XOXR.<X8XiXiX8XOXp D.o v.V.M.AXJ.M.g.w.4.6 4 0 . m.H.M.k.C.b.g.M.u.n.g.f.2., ; : : w t.n.Z.AXZ.B.AXV.8 o * i [ ' !.{.`.B }.&X[.!.:X%X%X%X%X",
"x b N N B oXoXY.B B '.|.T.gXgXE.iXgXaXn D.o s.n.M.Z.C.f.y.4.6 6 c.6 . H.SXC.Z.M.V.p.g.n.J.V.C.w., ; c.# X 7.h.C.Z.AXAXB.V.9.o - #...].!. .B _ _ }.$X' ' !.$X+X@X",
"b v b b `.|.'.}. .B B Y.|.5XR.E.E.R.aXa D.* q.i.k.C.j.h.2.1 6 O.+.$ ; H.HXk.f.f.n.b.m.J.M.B.k.y.>.; c.O.# > s.M.C.AXZ.B.V.w > 0 =.$X@X@X .`.)  .!.' ' _ W.%X%X{.",
"! b ( | _ `.[.}.}.}.oXoXdX5XT.R.E.fX=Xa D.* q.N.j.j.e.2.: 6 S :X&Xu : a.j.i.r.a.H.v.s.i.m.M.y.f.6.X S +.A X > N.C.Z.B.V.n.7 > g -.}.[.$X .].X.] ' !.) X.' =X{.| ",
"! W b | )  .`.`._ [..X|. X|.T.T.T.aXo.y D.o x.N.N.h.e.1 X $ :X_.hXS   w 8.8.q 9 t R Y r d.t.4.7., X / ] *.Z o 1 m.m.V.n.n.8 3 D -.[.}.`. .) _ _ !.!.' '  .}.| | ",
"Q x x ! c b ! ( ( ].~.*X)..X^.Y.Y.~.` i D.* 9 A.A.s.1 X + :XR.2XhXa R X X o   z :.:.C - % > > : : X / ] ~.jX$ : 4.j.M.m.t.w & %.#X$X}.`.' `.X.]  .!.!.].~.].].X.",
"x x x v x ! ! c ( ].[.[.Q..XoXXX/.~.~ + D.*   . d.3 X + ^.>XtX6XhX$ c.L.S.F @ xXBXZXBXC O # 6 z.5 X A ] ^.&XjX# 6 0.N.m.a.3 F ;. .W.!.}.{. .) {.`.`.W.`.].].X.X.",
"k E ! W ! x v v !  .B './._.1X,X5X Xb + T * %   X : + ( U.>XiXhXS 5 X 6 L.bXz sXBXBXBXC + cXr : ; : 6 O.] ).*X+.# w a.A.h.3 +.!.W.!.&X=X!.!.X.#X].W.W.].{.`.@X].",
"j E Q ! W W c b ) | M '._.(.(.2X6X Xx + T @ T F O u ] ^.yXtXpX).6 z.v.. X   O @ z sXz - # X . 1 w.4.: P ( ^.).!.L # d.H.x.& *.Q.W.!.&X@XW.!.+X`.].{.{.X.].`.@X&X",
"j H Q Q ! W b ( ) `.W.~.XX X>XqX2X-Xj + :.+ X.!.:X^./.yXR.E.6X] x.z.u.H.a.1 3 4 - = - t e 4.6.t.g.y.; # / ] U.^.=X/ % t 6 & ` B ( ]  .`.'  .*.$X .$X=X@X[.}.[.&X",
"H K K K Q Q Q ! ( !.W..X*X1XXX(.3X&XE + T y $X1X>XyXR.tXuX8XwXA x.K.K.J.p.p.s.q.t t 9.9.i.y.y.y.g.y.>.X / ( M Q.).&X~ + O K ) V ]. .....! ..X.#X!.[.&X[.&X&X&X&X",
"~ ~ K K K K k v ! ( `.$X&X'.W.[.[.{.h O R i =X,X>X>XR.8XuXpX@XZ z.J.DXSXV.m.n.N.m.9.n.n.l.g.l.B.k.g.e.: Z ] ^.9X_._.-X_ s N W.`.X.! v k k } X.X.].@X[.~.*X;X&X$X",
"} { [ K G h k ~ | | '  .#X].X.`.}.#Xh O T i }.T.>X>XR.E.iXeX+XZ z.J.SXJ.V.V.V.Z.n.n.m.n.k.g.l.B.3.g.k.5 6 +.~.).XX*X/.oXY.Q.'.[.@X! k k K } ^ X.`.$X;XaX;X&XW.!.",
"....^ Q K G [ ~ { { { ! | =...| `.#XJ O F & | './.T.R.R.6XfX&.Y H.SXDXC.j.g.j.k.g.b.g.N.k.g.g.g.k.k.k.8.6 A ' /..X/.U.Y.|..X.X[.+X+.^ K ~ Q ..X.o.#X].@X@X@X].!.",
"o.o.....{ { { Q Q ^ } } K { { }  .X.P O F g N |. XT.T.<XrX*Xi r H.DXSXJ.k.M.g.3.b.b.Z.M.H.g.3.g.3.y.2.e.: P W d M Q.'.'.Q.[.@X!.' ' ..Q Q { ..&.#Xo.X.].].@X=X@X",
"].`.+X-...&.&.~ Q ~ } K K ~ ~ } ) -.~ O F f }.4X1X,XT.3X4X%X& r K.SXH.j.g.n.2.3.n.n.V.j.M.y.g.g.k.g.3.e.8.6 / S V W.'.W.' ` ' %X].*.*.W ! &.*.-.#X-.X.-.+X+X%X$X",
"!.`.+X-.&...#.{ =.{ } ~ k Q ~ ^ | #X@.@ R g aXfX7XT.T.|.oX` 0 A.K.J.N.f.2.n.V.M.b.g.M.M.j.f.g.g.l.g.g.e.4.6 O.` V B _ m c E s W ` ' +.` ' *...*.-.-.X.-.#XX.].#X",
"].].+X*.{ #.{ { { | ..! } { ..X.X.X.{ + J Q [.(.,X,X|.'.$Xi r A.K.HXy.2.y.g.j.f.j.j.j.p.w.f.g.g.3.k.g.u.7.3 P ` ( M ] / x v k E ! ) X.*.` ..` ..*.%X-.X.*.X.-.*.",
"].*.*...=.&.{ -.o.-.{.' ].`.+X}.[.{.:.y I Q ~.>X,X,X(..XsX& r J.HXK.f.y.f.f.h.j.f.y.y.g.r.w.2.w.k.k.k.2.< 5 & ~ ~.^.!.] W v ! ^ ^ ) ..+XX.&.;.` ^ ........-.#X-.",
") ) } ` { &.*.#X%X=X&X~..X*X*X0XwX&X-.y %.K *X>X>XeX<X.X^ & q.a.H.N.m.f.u.r.u.t.r.2.f.f.r.u.w.w.u.e.e.w.<.5.# O.^.>X).^._ ' `.X.) ! ` *.*.&.#.Q Q Q Q &.;.*.-.-.",
"X. ...X.X.{.%XaX&X0X*X*XqXwX1X*X9X-XsXi @.K 9X6X>X<X6X-Xi 3 H.H.H.s.i.i.i.m.1.1.u.h.f.f.r.u.w.w.e.2.w.y.2.1.3 i ~._.1X1XQ.W.@X!.*.| X.X.&.&.! [ Q ~ k ~ =.;.*.*.",
"{.`.W.}.&X=X-X-X-XdX.X_.wX0X)./.*X-XaXp @.^ qXtXtX6XeX].# q.v.H.s.u.a.r.i.m.i.1.<.u.p.p.r.r.w.6.9.,.2.,.r.5.q % :X).>X>X_./.~.&X:X+.X...` ..^ { ~ K G K [ { *.*.",
"[.W.=X-XOX-XOXOX.X-X-X-X*X9XOX.X9XwX=Xn %.| 3X8X8X<X0Xp 0 q.0.s.5.p.w.r.p.9.w.t.6.<.<.<.,.,.1.t.<.<.1.,.< 1.w 4 Z @X9X>XT./.).&X@X!.+...` &.#.#.L K K K K Q *.+X",
"`.=XoX;X-XoX}.}.[.oX=X;X=X[.&XoXOX3XaX_ p c eXiXiXeX` & r 0.t.0.< <.,.1.t.1.4.1.,.,.7.r.6.1.,.6.6.4.5.7.8 ,.1 > % H ).(.,X(./.).=X+X+X` ..^ E ~ L K K k Q ! {.%X",
"`.}.}.oX&XoXW.[.[.%X$XX.' ].=XaXdX3X0X[.s B 2X8XeX&Xu 0 w 0.5.6.9.9.8 7 t.4.4.< 4.,.1.4.,.,.< 6.0.t.8.,.,.,.1 1 3 $ ' ).(./.~.~.+X+.+X+.&.O./ ~ K G K Q } ..{. .",
"}.[.`.oX-X&X!._  .#X| ) | | ].&X3X3X4X4X1X0X5X5X].@ 0 o 1 0.8.7 8.8.6.9.6.6.6.7 8.4.q.5.1.t.,.4.w w 5.8 8 5.1 1 q % p ].W.~.!.!.' +.&.+.;.&.~ O.E K Q Q v ` ]. .",
"X.' `.$X=X=X!.+X*.| ..&.=.Q | @X.X3X4XqX2X,XT.Y.i * % 9 e 0.d.0.8.w e 5.8 < 5 e 7.5 0.0.6.0.w < > 1 1 e 8 7 < 5 e 4 p &.`.' ] ( / / &.+.^ #.^ / ~ ! Q W c | X. .",
"`.{.] {.$XW.] ].#X..{ { { [ { ..!..X*X3X3X|.Y.B O % 3 3 e 8.w w w 8 q w e 3 1 e e 0.e 0.5.0.e < > 1 q e 9 q 3 9 4 % p ' ' ( / W / / #.#./ &.! { ^ ! ! ..| ....^ ",
"X.( b ) ) ' ' +X-.=.{ $.$.@.[ ~ ` ' W.[.Y.B U.M F $ % 4 4 4 4 % % 4 3 9 4 0 4 4 4 3 9 o 3 9 > % % 4 4 & % 4 % % Z F +.+.] W E E H O.#.^ { { E ..| b v &...{ ~ { ",
"v Q v b ! )  .#X..} } U I I I J } Q x x v V M _ ] ` Q x x ! S E p u u y @ u A / E i @ $ $ & u $ p &.' ] s E E h H H +.+.+.+.E E L P O.~ ~ Q E | | ! { o.$.Q H K ",
"Q Q Q Q } C | | =.=.} U G J J G U [ L H k b ( ].]._ V N N ( ] ~.%X%X#X;.=...*.+X+X+X#.~ { $.%.^ `  .&X&X=X{.*.W k ! +.:X+.+.#.H L H G / Q Q Q { ^ Q } { { [ L I ",
"{ ~ Q Q Q k v b } { ~ l K h J J k } ^ Q j Q ! ! E x b b b n s ] ' ` { } K l k x ` ` ~ E k K K K v | :X+.X...-.| ^ Q *.*.*.&.{ [ { K L Q L Q [ [ ~ K K J G U K I ",
"L H v Q Q z Q } b { k K h I L K K } &.| Q ~ ! x v v v x x x ) ` +.&.^ [ U J K h ^ O.{ #.[ K D k k { ..*...) ` X.^ H +.+.^ ^ | { [ K [ L K [ ~ L L J J J J J D U ",
"K l K Q ! } } | Q Q Q k Q Q } } ~ | ..| ..o.| ^ { E v ^ x n ` ` ` ^ H J D J D f P G K @.@.U K L J K { ` -.+...` E ^ Q / &.&...{ [ K I I K @.@.[ I J D D D U D f ",
"K j k v ! { Q k k Q K k j Q ....} | | ..! | { | ^ x x W x E ! ` ^ ~ L P J D D D D G L I @.@.@.~ K @./ E ^ *...^ E E K ~ ^ ^ ^ K K G G P L I %.@.L D g = = D D D ",
"K k Q v } ^ l f f l k l x b o.| X.} { =.b } } } ! v j h p E ^ } [ [ [ [ U G J J D J I $.$.$.$.K L { E E Q } ~ Q Q ~ I [ [ { L L J P J L I @.$.@.L f F F = D D D ",
"l k k } ^ Q h h f f f k k b ..b | ! Q } v } K } } b p G H ~ { ..[ [ [ } U I D D D G I %.{ [ } ~ Q Q Q ! ^ } K Q } Q K } [ [ %.[ T L U U I @.~ [ I D g = 0 g 0 U "
};
