/* XPM */
static char *e487bd6fb2e64865a3e71ba451fbe821Rw0LMClaVGSikSF7[] = {
/* columns rows colors chars-per-pixel */
"80 80 251 2 ",
"   c #1C030A",
".  c #0A041A",
"X  c #170718",
"o  c #1A141B",
"O  c #2B0906",
"+  c #390A06",
"@  c #39140A",
"#  c #2A0C17",
"$  c #360D14",
"%  c #2A141A",
"&  c #361418",
"*  c #39241A",
"=  c #060827",
"-  c #180D26",
";  c #19162A",
":  c #090D30",
">  c #0D1436",
",  c #181A38",
"<  c #2B1423",
"1  c #2B1329",
"2  c #271828",
"3  c #361A27",
"4  c #251C35",
"5  c #19213A",
"6  c #1C223D",
"7  c #37252E",
"8  c #2A2530",
"9  c #23233C",
"0  c #282638",
"q  c #362738",
"w  c #450B05",
"e  c #47140B",
"r  c #4F0E10",
"t  c #471617",
"y  c #561A17",
"u  c #670E04",
"i  c #651E1C",
"p  c #53330F",
"a  c #46261A",
"s  c #4C251C",
"d  c #56261A",
"f  c #55241C",
"g  c #5B241C",
"h  c #5B291E",
"j  c #642116",
"k  c #64251D",
"l  c #6B251C",
"z  c #63291E",
"x  c #6A2A1E",
"c  c #702917",
"v  c #73261C",
"b  c #7B251C",
"n  c #742A1D",
"m  c #7B291D",
"M  c #70371E",
"N  c #491C23",
"B  c #591D26",
"V  c #681B22",
"C  c #482625",
"Z  c #4D2A23",
"A  c #542725",
"S  c #5C2622",
"D  c #542A24",
"F  c #5C2B23",
"G  c #5C2C29",
"H  c #5B3225",
"J  c #5C312B",
"K  c #4D2B35",
"L  c #5A3634",
"P  c #642523",
"I  c #6C2622",
"U  c #642B24",
"Y  c #6B2C23",
"T  c #652429",
"R  c #642D29",
"E  c #6B2D2B",
"W  c #732523",
"Q  c #792524",
"!  c #742C24",
"~  c #7B2C24",
"^  c #732D2B",
"/  c #7C2E29",
"(  c #673326",
")  c #6C3126",
"_  c #64322B",
"`  c #6C322B",
"'  c #743126",
"]  c #7D3126",
"[  c #74332B",
"{  c #7C332C",
"}  c #7A392E",
"|  c #652E31",
" . c #792D32",
".. c #673736",
"X. c #6B3432",
"o. c #6C3934",
"O. c #743431",
"+. c #7B3532",
"@. c #733932",
"#. c #7C3933",
"$. c #7C3939",
"%. c #724633",
"&. c #171D46",
"*. c #1C2443",
"=. c #1C2745",
"-. c #1C244B",
";. c #1D2A4B",
":. c #1E2B55",
">. c #1E335E",
",. c #222543",
"<. c #232A45",
"1. c #292D43",
"2. c #232649",
"3. c #232C4B",
"4. c #2B2D4B",
"5. c #382C42",
"6. c #26314C",
"7. c #2B324D",
"8. c #383549",
"9. c #232D53",
"0. c #272D54",
"q. c #253254",
"w. c #2B3454",
"e. c #25345C",
"r. c #2A355C",
"t. c #2A3958",
"y. c #2C3A5B",
"u. c #363856",
"i. c #323B5C",
"p. c #1F3662",
"a. c #263462",
"s. c #263A64",
"d. c #2C3C64",
"f. c #2C3C6A",
"g. c #333D65",
"h. c #4D3647",
"j. c #443D55",
"k. c #3A415D",
"l. c #2C4165",
"z. c #2C426A",
"x. c #384567",
"c. c #33446B",
"v. c #2D4A7C",
"b. c #364A74",
"n. c #3C5279",
"m. c #4A455B",
"M. c #534656",
"N. c #784A48",
"B. c #79504B",
"V. c #434868",
"C. c #4E5472",
"Z. c #47567A",
"A. c #675265",
"S. c #756572",
"D. c #85251D",
"F. c #86281C",
"G. c #8C2A1D",
"H. c #96291C",
"J. c #A82A1D",
"K. c #B62F1F",
"L. c #882622",
"P. c #832C24",
"I. c #8B2C24",
"U. c #832E2A",
"Y. c #8B2E2A",
"T. c #942D24",
"R. c #9B2D24",
"E. c #922E29",
"W. c #9B2D29",
"Q. c #833126",
"!. c #8B3125",
"~. c #83332B",
"^. c #8C342C",
"/. c #84392E",
"(. c #8B392E",
"). c #943224",
"_. c #9B3225",
"`. c #93332C",
"'. c #9B342C",
"]. c #94392D",
"[. c #9C392E",
"{. c #843631",
"}. c #8C3531",
"|. c #833A33",
" X c #8B3A33",
".X c #843839",
"XX c #8C3D39",
"oX c #933531",
"OX c #9B3632",
"+X c #933A33",
"@X c #9B3B34",
"#X c #993C3A",
"$X c #A72D24",
"%X c #B32D22",
"&X c #A33225",
"*X c #AC3325",
"=X c #A2352C",
"-X c #AB342A",
";X c #A33A2D",
":X c #AC3A2C",
">X c #B33325",
",X c #B8362A",
"<X c #B43A2C",
"1X c #A23632",
"2X c #A33A34",
"3X c #AB3B32",
"4X c #A33D39",
"5X c #AA3B39",
"6X c #B33B33",
"7X c #B63833",
"8X c #BB3B33",
"9X c #C4301C",
"0X c #C4382A",
"qX c #D13A29",
"wX c #C33B32",
"eX c #87443B",
"rX c #99423A",
"tX c #B5402F",
"yX c #A7423A",
"uX c #B64238",
"iX c #8C623A",
"pX c #C24436",
"aX c #873F40",
"sX c #915549",
"dX c #885952",
"fX c #AD4546",
"gX c #936755",
"hX c #9B6456",
"jX c #A3695B",
"kX c #8D6F6E",
"lX c #A66F66",
"zX c #AB7166",
"xX c #B8776A",
"cX c #B87C71",
"vX c #C27E70",
"bX c #B78C55",
"nX c #BA8870",
"mX c #CA9769",
"MX c #324D82",
"NX c #3B5786",
"BX c #475A86",
"VX c #485E8E",
"CX c #566688",
"ZX c #4E6994",
"AX c #496798",
"SX c #546C97",
"DX c #6077A3",
"FX c #8B768A",
"GX c #6F84B2",
"HX c #9F899E",
"JX c #CE9B90",
/* pixels */
"d U F h R X.R k { Q.~./.Q.Q.~.(.{ ! Q.U.U.~.} [ ) U F d g g z P Y Y x k x l m { ! Y ! / {.U./ P.!.!. X X/.+X#X@X^.(.oX#XoX}. .^ ' } { ^.}.}.~.~.^ U D s S S D a ",
"h h h d h F F U W /.P./.(.].P.~.{ ! { ~.~./ { @.` U F F F P k P I I x x l n Q.! l k j W U.P.Y.`.OX@XrX XP.XXyX@X+X^.`.oX}.{.{ [ { ! ~ /.^.Y./ ] { U F f F h s s ",
"h U h P U U F x x ! Q.!.].].+XP.{ Y } {.{.+.{ R _ G F U Y P P k Y ! k x ] Q.Q./.z k l ! U.!.`.OX@X4XrX^.~.}.oXoX+X^.^.oX}.+.{ ^ {./ Q.(.~.P.Q.~ { ' Y F h h p d ",
"U U z U U ( x x ! ~.}.+X].rX@X(.+.( [ #..X#.[ U F F U P I Y x x ! ' l n /.' m /.x x ! { / I.oXOX2X2X].!.Y.}.Y.P.~.!.oX^.~.{ { ^ / U.^.^.P.~ ~ m ~ { { Y z z d ( ",
"( R ( Y U z ( n !  X#XOX+X@X].+X{ ` O.X.O.O.` F D F U Y I I P x n ] Q.Q.c c M !.~ c ! / ! P.`.oXOX@XOXY.Y.Y.Y.P.~ ! Q.~.{.{ +.[ Y ! ^.~.] ' m ~ Q.|./.] Y ' Y { ",
"R Y ` ) H h ) ' / / +XoXoX].@X+X{.O.o.` X.[ E h f h U I l P x x ' Q.].(.Q.m Q.].(.~ n n ~ Y.oXOX'.OXOXoXoXY.Y.Y.~.v I { .X{ [ ^ x ! ~.~.] ' ] ^.Q.(. X X/./.~ ] ",
"d g U ) z j ) ] ~ ~ U.P.P.].[.@XXX+.X.` [ O.` _ d h U Y k k Y ! Q.!.^.).].].).[.OX!.b m I.^.@X@X2X5X5X5X4XoXU.U. XW I [ [ [ I z z ! { F.Q./.^.(.`.oX^.^.^.~.Y.~.",
"s f h ) ( M ' |..XU.~.P.~.(.OXOX#X{.#.` ` R R R _ U l ! I z x ! ~.^.^.F.!.[._.).'.].P.Q.+XY.`.OXW.2X5X5X4X+XI.~ {.{.{ ' k z k z x n { ] !.eX+X!.`.`.oXoX+X~.U.U.",
"s s h z z ' @.@.#..X{ { ^.^.].2XoXXX{ [ @.U Y ( [ Y v ! Y I W ^ P.(.] m Q.].[.G.G.].'.!.P.!.^.Y.`.2X2X5XOXOXoXU./ [ [ Y k z { ! x x ] ] ] (.^.L.E.OXoX].~.(.Q.~.",
"s d G R ) ) ` ` @.[ [ {.XX].@X4X2X+X#.` ` U R ` ! W { U.! { ~.Y.^.(.m m G.rX[.).G.[.OXE.!.!.Y.].].2X1XOXOX].oX/.! { ^ Y Y ) { ! c x n /.eX(.!.).OX'.`.].^.(.~.~.",
"d d F U F ( U _ ( [ ` [ {.+XOX`.'.+X|.[ ( H ( @.! ~.P.P.m m ^.Y.`.!.P.Q.).!.G.).R.3X3XW.E.^.I.^.OXyX2X'.`.`.^.}./ { Y x z U U j z x ] /.(.Q.`.@XOX].].].(.(.~.! ",
"h d h h F d G H X.` @.! Q.#XOX'.OX!.] ) U ( U I { +X`.`.!.I.Y.oX`.'.I.)._._.).G.&X:X3X'.`.`.~.!.OX4X4X@X+XoX}././ ' l x x k k x x c ] ~ M Q.].[.`.[.].`.P.Q.{ v ",
"z z d U f D D J o.` @.' { +XOX5X2X`.Q.Y F F U [ {.+X[.'.'.T.I.E.'.[._.H.&XH.&X&X&X&XR._.'.`.Q.] / Y.#X@X^.(.^.Q.{ W k I I I k I Y ! / v {  X}.].].].OX].] n Q.] ",
"x Y U U G A D G _ ( U [ ~.^.1X2X5XOX~.E U _ ( +.~.!.'.=XR.'.`.'.'.;X*X<X*XJ.*X<X<X*X&XR.H.`.(.~./ { +X+X/.(.^.{.~.! j I U Y [ ^ ^ ( { +.[ { {./.].^.^.(.Q.] Q.~.",
"' } ' ( G D D J X.` ! ~. X+XOX`.1XOX{.[ U G ( [ { P.=X&XH.=X).F.G.&X*X,X0X,X>XK.,XwX8X<X;X4XrXQ.~.{.{.{.{ Q.(.{./ I i ^ Y [ [ [ _ y g y w e e Y XX!.Q.Q.] { / ! ",
"x [ [ R G A D D U [ /. X@XOXE.T.OX2X}.{ Y ( ` ! { !.W.-X*X&X[.F.H.J.J.0X0X8X,X>XqXqXwX8X6X'.`.P./ {./ {.Q.{ {.{ ! U Y +.P y r e e e o.%.dXB.@ (  X}./.~ ~ / ! W ",
") ` ) ) F G G R ' ] !.yX[.;X1XW.5X2X!.{ ' ' ' ' /.`.&X-X-X-X).F.H.>XK.pX,X<X<X<XqXqXqX,X<X'.`.Q./ ^ {.{ / [ [ X.d + + e e w %.sXjXlXcXcXjX@.+ S [ { / Q.] m ~.}.",
"( ( ) ) R ` X.E ' (.[.rXrX2X4X@X#X+X{.{ /./.} /.{./.OX3X=XR.!.Q.tX>XK.tX_.u u ;XuX8X,X7XyX+X X.X.X} +.+.O.( y e + @ N.lXlXhXhXhXsXaXsX.XsXjX%.t P I ~ ~.(.Q.I.}.",
"Y [ ) ' [ E T P { XX X XeX~..X.X.X+.#.+.#.} @.o.@.+.eX X@X~.{ { Q.rXrX).e + a w P.F.m m l y y e e w t t t t + dXdXsXhXdXhXhXzXzXxXxXvXmXnXJXnXO.) I ~./.Q.Q.I.`.",
"U [ ' } [ U S S Y y r w w + + O O O + + + @ @ + + t y g g T F P x c n y + kXJX@ U { ' ' } } o.X.o.N.N.B.t | A dXzXjXjXhXhXhXzXzXxXxXxXvXnXvXvXE %.[ / Y.Q.(.+X`.",
"x ( ) ) z h d e @ B.%.X.%.h G C C @ a D Z L L L _ %.B.N.N.N.B.B.N.N.N...& kXS.O ..$.rX+XXX.X#.[ ) o.%...w t Z dXhXhXsXsXrXeXsXsXhXjXzXzXxXnXcXy { ~ ~ P.~.Q.(.^.",
"Y ` ) ) ( F H e @ t N y j y r e @ + + + + e + @ + @ O     2 2 3 7 7 q q ; . . q K t )._.I.U./ n x U R h R ` e f sXhXgXjXjXeXeXeX$.sXeXsXsXhXjXp { Y.~ Q Q.^.Q.Q.",
"U E ' [ ( z ' l x c m G.H.&XW.W.].^.G.!.].(.c n eXz   X u.i.u.i.g.l.Z.c.c.b.n.V.M.N uX0X:X=X'.].~.' } ' ! /./.u w r d dXzXzXjXzXcXcXcXcXxXnXdXw ~.@X}.~.!.Q.~.U.",
"| E ` Y z z ~.~ ] c m yX<XK.8X-X-X&X_._.tXtX).!.G.c O q u.x.b.f.s.v.MXMXNXNXAXSXC.A pXqX,X-X&X'.~.{ ] ' F.].;XyX+Xl + + w %.zXjXhXjXlXzXcXnXB.e eX'.OX!.P.Q./ / ",
"E E ^ ` z x ] ! A O e U.6X0X,X%X&X$X&X-X5X=XW.T.R.'.I # 5.u.g.c.z.b.v.NXv.AXDXDXC.G pXqXwXJ.-X'.Y.~./ ^.]._.<XtX X{ +X#Xi w w e %.gXgXB.lXnX%.e ^.@X@X^.U.~ Q Q ",
"E I k P z k m ' $ # $ $ ^.uX-X>X*X*X=X&X&XW.H.H.J.$XY.V # 5.4.r.l.n.NXBXMXSXGXDXC.C fXqX,X>X*X2X^.~ XX`.H.*X<X_.w r P.4X+X}.{ k d t & C N.L t ) +X+X@X}.Q.{ / ^ ",
"g y g z k l v Y & 2 2 < $ [ 4X<X<X$XR.R.T.R.H.J.J.%XH.Y.B < 4 2.q.l.c.Z.BXZXSXSXCX< Y.wX,XK.J.&XoX~.+X'.>X<XrXy < K t .X1X1XI.]. .E S A * A F [ ] ] ^.~.^ W /  .",
"g f U Y z x m k 3 4 4 ; 8 # y ^.@X'.`.I.W.$X:XJ.K.%X$XH.Q B $ 1 6.q.t.z.b.n.n.CXZ.q Q 6XJ.,X*XJ.G.!.'.-X7XuXv & k.k.% E #X&X'.'.+X^ E o.J R { +.Q.] / ' I k T E ",
"y y h U F I Q i % 0 1., 0 q 3 # $ _ eXXX'.3XuX,X,X0X%X%XH.b V t # 1.<.q.s.c.d.Z.C.h.T 2X$XJ.>X>X*X;X&X&X7XE.t 8.x.V.5.3  .OX1X1X}.{ [ ` [ {.Q.~.(.Q.' [ R g F F ",
"E U g g T k / I 7 0 1.w.w.7.w.8.8 % $ y ! +X'.3XtX8XwX,XJ.$XW.L.B # 4 4.2.-.x.g.V.j.$  .W.&XK.,X<X>XH._.'.I < k.x.l.4.o $ T E.E.P.[ [ Y Q.+X^.P.!.Q.! E _ F G H ",
"O.^ Y ' Y j Q V < 0 4.9 <.7.7.m.m.8.q 8 3 & t X.{ {.5X-X0XwX%XW.Y.T % - , *.q.y.V.8.4 B U.T.H.$X<X,X%X-X(.t u.n.l.y.t.6 X $ / b v ' n ] ^.T._.[.oXP.W E E _ H H ",
"O.I ! ^ ^ W {.B % 9 1.5 <.6.i.V.x.x.C.V.V.q q q 7 t y Q E.8X7X-XW.}.| 7 ; , =.w.u.4.4 # B P.D.$XK.wX7XfXd 7 k.n.b.y.e., ; # E v c x ~.`._.R.R.'.`.P./ E R _ J G ",
"E R E '  .Q .XN 2 9 1.<.6., 2.i.Z.V.Z.C.C.C.V.g.V.u.8.5.1 B fX5X5X.X .h.1 4 2.4.2.4.9 2 $ E P.H.%X8XfXW @ 0 n.l.l.6.;.5 = o F I  .Q '.3X6X-X&X=XT.I.{ ^ R _ J H ",
"_ ( R R  . ..Xw 3 ; <.<.4.3.w.i.g.V.C.CXC.C.CXBXBXBXZ.x.g.4 t u V r $ 1 - = ,.2.w.6.,.0 X # V L.$X8X~ $ o l.0 l.6.6.6 ; .   & T T Q W.7X>XtX<X7X_.L.{ [ F F _ X.",
"X._ G F | ^ sXw 2 6 9 <., *.9.t.i.g.d.e.b.g.Z.CXBXCXV.i.j.- L K X X = = = . = = > w.q.6 4 - X N XX/ + o 5 0 6.6.<.6 , . h.q   K .. .L.3X<X>XwX7X7XT.U.+.( R E ^ ",
"_ _ D D R E .X$ 2 0 ,.4.*.=.t.q.r.r.r.:.d.g.n.n.Z.BXZ.u.- - M.. 4 g.V.V.i.i.*.: = 5 6.5 &., ; < X.S   o 5 6.;.5 6 0   7 1 X X X N .. .XX3X<XwX8X,X'./ ` ` ` ^ W ",
"G G Z D H h @.t 2 9 5 <.7.w.y.y.y.t.y.>.:.z.c.c.f.Z.a.u.. M.j.. 3.c.CXBXb.g.V.4.<.t.6 ;.> , > - # 3 q ; 9 l.5 8 q o @ % # - , 2.4 1 5...XX4X7X8X7X:X~.` ` o.+.$.",
"G Z s Z D d [ t 7 8 5 6.2.=.6.y.x.q.d.s.d.l.z.a.f.g.r.4 . nX7 o 2.d.z.c.c.g.t.4.6.w.6 6 &., ; X q S.q = 6 6 l.q * p B.%.& 2 0.V.Z.C.i.- N T OX5X8X:XQ.` _ _ +.+.",
"D Z Z Z F F +.B & , 5 <.<.=.9.d.-.r.d.g.c.>.a.f.b.c.i.1 O p @ O 5 w.z.b.g.n.i.3.t.6.4.<., ,.= 1 kXS.4 = 1.6 1.q % p mXbX* 4 0.g.ZXSXDXCXg.4 t .X5X6X^.^ U ` ` Y ",
"J Z Z s y P .XG 3 0 9 9 , ,.q.;.;.e.g.d.c.e.>.f.b.b.4.< @ %.bXp 8 i.s.b.b.d.r.g.;.t.6., 2.; 2 FXFXA.4 = <.=.k.8 * p mXbXs q u.f.NXSXSXDXSXCXq $ oXuX@X/ h G R x ",
"Z Z Z f ` I .XB 2 1.1.<.,.,.9.;.t.q.a.g.c.l.l.d.l.l.8.* p bXbXM 7 V.x.b.z.b.9.g.4.i.w.1.<., 1 HXFXM.8.= ,.w.u.8.* H mXbX% 8 l.l.v.NXNXAXSXBXk.3 r rX X#.U f d Y ",
"Z Z D D X.^ .Xt 7 0 9 ,., *.=.y.g.:.a.g.r.d.z.f.l.6.7.* %.bXmXiXK x.d.s.e.x.y.d.l.t.6.<.2.; - FXS.M.m.. 6.t.w.0 2 @ %.w % 0 z.z.MXAXAXNXSXn.l.7 w rX X+.R S U ` ",
"L J G F ` U O.$ 2 1.7.7.,.4.;.r.y.i.r.g.c.b.n.f.l.k.1.% p bXbXp q i.c.s.z.e.t.w.t.t.6.*.6 > . m.S.m.u.- ,.*.k.7.0 # A & q u.b.n.NXNXAXAXSXZ.<.< P rX+X{._ S R +.",
"...._ _ X.F E $ 2 1.7.,.2.q.=.t.y.g.d.a.c.l.b.z.l.l.1.7 p M M * 0 y.n.l.y.t.t.l.q.w.;.;.5 > : - C.m.m.; 9 7.6 u.u.. h.K 4 w.z.v.AXAXAXAXVXx.0 & rX'.oX X_ G O.+.",
"_ o..._ _ F _ & 8 <.1.2.=.3.*.q.q.q.e.>.l.z.n.v.f.e.i.0 O O O 1 7.c.f.Z.f.r.q.e.6.-.0.&.-.> , - o m.m.; ; 0 6.5 ,.- 4 q - &.a.f.NXVXAXAXn.7.3 X.+X;X].U.@.o.E +.",
"( o.X.G D D @.& 2 1.7.w.*.=.*.0.t.e.:.d.s.>.a.a.s.p.e.,.X S.X - t.c.b.b.a.r.q.e.;.&.-.2.2.&., . X X o o 8 5 ;.;.3.&.. . . , 4.r.b.BXNXBXx.2 + {.'._.`./.} ` [ {.",
"_ o._ G f G o.& - 1.6 =., -.2.0.9.e.:.y.s.z.p.a.f.a.a.3.. q 1 - <.e.c.b.g.:.y.=.;.9.&.-.-.&.4 - % % o o ; 7.q.q.2.*.- . . = # - 3.BXV.u.# y ^.5X=XW.OX}.{ ' / /.",
"U _ _ G D h E $ 2 4 , =.;.;.y.3.-.9.:.s.s.f.a.f.f.c.e.r., = j.: 7.i.e.9.;.;.;.;.&.> &.2.2.4 ; & R H @ L 8 8.q.q.6.6 , -   K N q ,.V.u.% [ yXuX<X&XT.OX}.~ ] m U.",
"G G F d F F Y y 1 ; , 9 w.2.;.w.9.r.f.0.a.f.>.f.a.s.f.a.0.= ,.- : -.&.> > > > : = : &.-.2.5.% y Y.R.rX+ 1 9 g.r.w.,., ; % N K & 0 q & +.5X-XtXtXH._.+X+X~.!.^.L.",
"U _ _ G ( E / O.< ; ; ,.4.3.=.=.3.e.b.b.a.f.a.f.s.p.a.a.-.: = = = = = = = , &.4 &.4 , , 1 & w Q.<X8X6X}.$ 4 0.a.9.2.&.; $ D K & 7 & O.yX,X,XtX:X&X;X2X@X].^.+XoX",
"I U R ` O.+.}. .< 0 , 6 ,.,.2.;.q.q.f.f.a.e.:.f.f.a.&.&.: > 2.&.&.&.*.*.-.q.0.,.4 - # $ y W L.-X,X9XwX6XV q u.f.9.:.&.; $ L & O t W 5X6X,X<XtX[.yX5X;X@XOXOX`.Y.",
"U P k ^  .{.oXW & 0 9 5 =.3.=.=.2.9.-.r.a.e.:.9.&.: = = &.9.-.9.&.9.-.<.,.,.4 1 # t T {.oXT.*X>X9X9X9XwX}.t j.a.:.-.-., + [ + d eX5X&X<X<X>X[._.=X1X;X'.'.`.].Y.",
") z ^ $.^ { +Xi % 8 5 6 *., &.q.0.2.2.3.=.6 = . = &.&.3.-.:.9.:.-.9.0.,.q < t r U.Y.Y.`.H.G.H.>X,X0X9X0X;Xr 5.g.9.r.4.< V OXE.5XtX:X_.;X3X3X1X4X'.2X5XE.P.P.^.Y.",
"( ( +.O.E { ~.P & 8 5 2.*.*.<.=.,.0 4 ; ; 8 k.X 4 0.*.-.:.2.:.r.0.0.8.3 & U }.'.$X$XH.H.F.G.H.H.,XK.0X0X6X^ 3 u.a.a.4 & L.7X8X7X<X*X_._.OX^.yXrX'.OX2X!.m / ~.!.",
"F U @.^ ^ {.{ P % 8 5 , > 5 9 0 4 o & Z & K h.o - 4 u.w.q.q.g.t.7.0 $ y G.2X6X8X<X*X&XG.G.G.E.G.R.>X>X,X7X#XN 4 a.a.2 C T.uX7X,X*X_.3XoX~.U.#X@X+X].^.!.P.Q.! ' ",
"F U Y ^ { [ Y g # 4 9 ; ; ; 2 % 3 | E Y U Z & C K # q j.4.t.k.5.< +  X;X*X>XwX7X8X,XH.F.F.P.L.D.L.$X>X>X7XY.| < 4.w.o y T.>X*X$X_._.yX#X^ ^ ~.+X].].^.P.Q.(.{ ] ",
"_ U P P ` Y y S 7 < 0 8 2 # y  .}.P.Y.W W i V {. Xx + % 8 k.2 # I yX6X7X<X7X7X7X>XR.=XF.m Q.I.E.L.'.:X:XT.b k N - 5.% d '.&X&X_._.).+X~.I ` }  X@X).F.] m ] ~.Q.",
"U U T R g Y E B C @ 3 % & S .XE.W.W.L.b L.Y.I.'.'.`./.y @ & t +.yX<X8X8X7X7X7X3X-XH.T.!.P.P.I.I.G.'.&X_.!.m l U 3 # & Y ).&X).H.).`. X{ ( #.#.|.rX@XQ.~.] /.(.^.",
"G H G T ^ +. . .^ y y B  .Y.W.&X$XT.Q ~ / }.Y.D.H.;X).yXrX[.5XuXuX8X7X,X1X$XT.&X-XH.G.].m Q.`.`.Y.`.'.`.G.D.v ! I y i ~ ).).).`.!.!./.^ E X.@.{ ^.#X X{.Q.Q.!.~.",
"U _ R E  .+..X . .^  ./ W.R.$X-X&XF.Q I W / Y.D._.&XJ.&X*X*X7X7X8X8X7X3X'.L.I.G._.H.D.+XQ.^.`.[.Y.Y.@X@X`.I.F.Q Q ~ Y.OX`.`.].].(.~./ ^ Y ( [ +.#.{.{.~.{.! m n ",
"_ _ ` O.E /  . ./ / U.L.W.R.R.R.I.P.I P P ^ I.'.).F.G.D.G.H.H.-X3X1X'.OX`.U.^.Q.G.G.D.].E.OX'.OX`.!.@X4XOXY.P.U.P.I.'.'.`.Y.oX]. X~.U.{ ^ E +.%.@.@.[ [ { W Y v ",
"_ _ E X.E [ O. .V W ~ Y.T.R.R.T.U.U.T I l / Y.E.I.F.F.I.)._.&XW.E.E.!.!.^.U.~.(.Q.F.F.`.OX1X1XW.`.'.OX@XOXoXoX@X'.).'.[.[.`.].!.!.~ U.{.+.+.#.@.@.` $.{ ^ ! x z ",
"..U E [ [ ` X.T l I Q U.Y.E.E.Y.U.+.I z y Q.E.oXE.b P.m [.).).'.`.!.`.^.+X}.(././ Y.E.W.1X1X2X'.=X1X1X#XOXOX].rX4X[.T.;X4X].`.@X+XQ.] { .XXX#.[ +.{ }.Y./ / x h ",
"_ G F ` ` Y S S T U ^ U.Y.Y.OXoX~.{ ) z x {.P.oX}.Q.b m F.).!.).`.`.^.^.#XY.{.Q.Q U.}.Y.E.E.2X'.1X1X4X4X@XoX].).OX'._.[.'.[.1X@X+X~.! { {. XeX.X^.}.OXoXb c ( z ",
"L D F _ ( ` G G B T T  .Y.XX}.{.+.Y Y Y ^ { U.{.{.U.{ v U.D.P.^.^.^.+X].oXoX}.{.' ' { ~.P.D.oXOX`.`.`.'.OXOXE.@X@X[.'.1X[.[.E.'.Q.Q.{ ! [ { ~. X+XOX].OX`.P.Y z ",
"J D A F F G A G | G W  .{. ./ U./ I ! ^ / { / +.Y Y / ~ Y.U.Q.(.+X^.~.Q.Y.+X+X X} [ ' ~ ~ ~ Y.Y.U.L.L.I.OX4XOX4X4X@X=X'.'.'.T.G.P.P./ W ! [ .XrX@XE.`.`.Y.^.{ z ",
"J D D H R U S | X. .X.$.{.+./ +.{ ^ { +. .+.[ R g z [ Q.}.oX!. X^.oX+XI.~ Y.}..X} ) ! Y Y ! ~ U.~ P.P.U.Y.`.E.OX'.'.@X=X'.'.'.I.D.P.U./ / U.oX4X4X'.oX`.}.{ U D ",
"J K D J G F G T |  .|  . .^ O.^ { +.+.{ ^ Y Y F h F [ / +XoX^.~.~.^.^.~.!.}.Y.Q.Y x [ ! Y ! / U.!.U.~ ~ I.!.Y.`.'.'.;X=X'.'.'.oXL.Q W U.U.U.E.'.@X`.Y.U.~.[ f s ",
"J J G J G G U E E E E $.O.^ E ^ O.+.^ O./ I U U h h Y ! Q U.{./ ! / ~ / ~.+X~.U.Y x ) [ [ Y ! ~ U.U.Q ~ ~.!.`.'.'.=X1X=X=XT.T.!.Y.b v n ~.I.oXOXY.P.P.{.[ G Z Z ",
"X.X.J _ _ G U U E O.O.o.X.E O.[ O.O.+.O.+.O.` R ) ) [ { Y.Q.Q.{ / { Q.] Q.XX+X+X{ ! x ) Y Y ! W / Q / U.Y.P.'.=X3X;X'.=X1XW.L.D.W v ! b Q D.T.Y.b U.Q / ` H Z a ",
"J X.....R R U z z U E | T T X.E U O.#.[ O.+.[ ^ ` { { {./.~.] { / ] / m U.(.+X+X+X#.U z Y Y ! ! Y.Y./ ~.^.`.2X1X3X'.'.'.1XW.L.b v v m b !.`.E.G.F././ l f D Z a ",
"_ _ _ ..R _ ( ^ [ E E R R R X.` ` R E E +.#.O.{ { { {. X{ { /.! m / ~ / ^.+X}.@X+X X' x ] { ' / U..X{.{.U.^.2X5X1X'.'.].E.E.!.m v v b I.`.[.'.T.OX~ I g f s a a ",
"J G J L F U E ' [ ) R U F F U R R U ` +.#..X#.#.{ /.U.~ ~.~.Q.] { / U.^.(.!.}.+X+X}.' ' } |.{.~.{.Q.~.{.Q.U.oX#XE.Y.~.!.).`.m n b L.I.R._.G.H._.@XP.x I R h y D ",
"s Z Z A D G R Y z I Y F D G G F U U [ .X|.} } {.XXoX^.XX/./ ~.U.] ] U. X^.].I. X}./.! ' ~. X|. X{ / ] { / / oXoX{.Q n m Q.(.!.(.Y.Y.W.W._._.).).[.^.] ( U F F J ",
"a Z a Z D G ) ` k x U P F F F D h U [ #.#.{ { {.#X!.oX+X/.P.P.U./ / ~ P./ ^.Q. XXX^./ {. X X}.^.(.~.{ { { {.{.~.! n v n F.Q.F.m ~.I.T.W.R.=X_.'.'.`.~.Y U U Y U ",
"* * a C D D ` [ +.[ x U U h D G R [ { { } } ~.}.#XI.^.}.Q.~.P.~./ Q.Q ~ U. XW { / ! / {.{./.~.^.(./.{ ' / { .X^ Y Y ' /.Q.~ v b Q b L.R.H.=X'._.=X`.~.x Y Y R h ",
"7 a * Z H H ..o.[ [ x k Y F F R #.$.+.[ +.~.~.}.#XOXoX^.~.~.~.~.] / U.U.XX{ Y Y Y x [ { ] /.Q.^.~.~.Q./ / / { ! Y Y n ' ! ~ n c l j b T.E.'.1X1X=X`.~ z z h d a ",
"* Z Z K Z D _ U ( [ ' ' [ ' Y E #.O.#.#.{ {.}.}.oX#X+X}.~.~.Q.~.{. XXX}.+X' x z U z Y ! ' } Q./.(. X{.{ / ^ { ' { ! l ! v x x z x l ! !.`.`.'.W.E.P.v l ( h d s ",
"C Z Z Z Z J G S E [ { { /.{.+.+.+.$..X{ ~.XXXX~.U.`.oX^.^.(.~././ .XXX XXX^ F h F z U ! { /./.(. X/.{.{ / / ' x } ] x n Y ( z d h j j ] ~.I.E.Y.P.v i Y x Y h y ",
"Z Z Z Z D J J F E E { ] { /.{.+.+.#.#.} {. X}.U.Q.+X}.oX+X~.{ { / ^ {.{.XX#.D d h F z [ } { ~.~.~./ / ~./ / Y x ' ) x x d d d e d d j M / P.P.Y.v v c v j z P U "
};
