/* XPM */
static char *_bc9912317d6439480d9f2dec5874ab53jLNQ9FVSbS9KaGy[] = {
/* columns rows colors chars-per-pixel */
"80 80 256 2 ",
"   c #09051A",
".  c #190616",
"X  c #160F11",
"o  c #28070A",
"O  c #3A0805",
"+  c #371307",
"@  c #280918",
"#  c #360A16",
"$  c #281419",
"%  c #351518",
"&  c #2E251B",
"*  c #050627",
"=  c #0C0F2F",
"-  c #160926",
";  c #19162A",
":  c #0C1639",
">  c #181938",
",  c #2A0F2B",
"<  c #271728",
"1  c #351926",
"2  c #261A35",
"3  c #1C2C37",
"4  c #1A223B",
"5  c #2C282F",
"6  c #262639",
"7  c #372639",
"8  c #450806",
"9  c #560507",
"0  c #471407",
"q  c #59160D",
"w  c #4A0A14",
"e  c #570A14",
"r  c #4A1715",
"t  c #591A16",
"y  c #790708",
"u  c #690C10",
"i  c #691C18",
"p  c #791C17",
"a  c #721E1B",
"s  c #48251B",
"d  c #592C10",
"f  c #53241C",
"g  c #592618",
"h  c #5C241B",
"j  c #6C2316",
"k  c #662817",
"l  c #64241C",
"z  c #6B241D",
"x  c #642A1C",
"c  c #732215",
"v  c #7B2414",
"b  c #73231C",
"n  c #7B241C",
"m  c #73291D",
"M  c #7D291D",
"N  c #6F3311",
"B  c #461B28",
"V  c #4D1D31",
"C  c #6F0D21",
"Z  c #6A1C24",
"A  c #771C26",
"S  c #482728",
"D  c #5B2522",
"F  c #562924",
"G  c #5C2A24",
"H  c #522C33",
"J  c #642523",
"K  c #6C2522",
"L  c #642A24",
"P  c #6C2B23",
"I  c #66292A",
"U  c #6C2C2A",
"Y  c #742522",
"T  c #7C2423",
"R  c #742B24",
"E  c #7C2B24",
"W  c #79262A",
"Q  c #742B2B",
"!  c #7C2C2B",
"~  c #69322A",
"^  c #763327",
"/  c #74322B",
"(  c #7C332C",
")  c #662D36",
"_  c #792B32",
"`  c #6A3535",
"'  c #733332",
"]  c #7A3735",
"[  c #7A440E",
"{  c #754638",
"}  c #171D45",
"|  c #121B49",
" . c #271D44",
".. c #172746",
"X. c #1C2444",
"o. c #1C254B",
"O. c #142B4A",
"+. c #1D2B4B",
"@. c #1C2B53",
"#. c #1A2857",
"$. c #1C3358",
"%. c #262847",
"&. c #232C4C",
"*. c #29324A",
"=. c #373448",
"-. c #232C55",
";. c #332C51",
":. c #233354",
">. c #24345C",
",. c #283758",
"<. c #2A3B5B",
"1. c #353757",
"2. c #1C2D65",
"3. c #1B3866",
"4. c #253C64",
"5. c #2C3B65",
"6. c #273869",
"7. c #353C65",
"8. c #253A74",
"9. c #3C3C72",
"0. c #4A3B54",
"q. c #763842",
"w. c #364454",
"e. c #1D4470",
"r. c #274268",
"t. c #2B436C",
"y. c #364668",
"u. c #2A4775",
"i. c #354977",
"p. c #315278",
"a. c #4E465A",
"s. c #784A4B",
"d. c #4A4B6D",
"f. c #47567A",
"g. c #77556D",
"h. c #42607A",
"j. c #796574",
"k. c #92090E",
"l. c #87180A",
"z. c #97180A",
"x. c #841B15",
"c. c #861B19",
"v. c #8B1D1C",
"b. c #971B17",
"n. c #B0090B",
"m. c #A6160B",
"M. c #B7170A",
"N. c #A61A17",
"B. c #AC1D1C",
"V. c #B71B16",
"C. c #862315",
"Z. c #8B2A11",
"A. c #84241C",
"S. c #8B231D",
"D. c #842A1C",
"F. c #8C2A1E",
"G. c #93231C",
"H. c #9C231D",
"J. c #972819",
"K. c #AE2A14",
"L. c #A4241C",
"P. c #AB241C",
"I. c #A82818",
"U. c #B5261A",
"Y. c #881D25",
"T. c #961C23",
"R. c #A80F24",
"E. c #A91D24",
"W. c #B51A23",
"Q. c #842522",
"!. c #8C2423",
"~. c #842A24",
"^. c #8C2B24",
"/. c #82252B",
"(. c #8B252A",
"). c #842C2B",
"_. c #8C2C2B",
"`. c #932523",
"'. c #9C2424",
"]. c #932B24",
"[. c #9B2B24",
"{. c #98252A",
"}. c #932C2B",
"|. c #9B2C2B",
" X c #883427",
".X c #83322B",
"XX c #8C332C",
"oX c #963225",
"OX c #94322B",
"+X c #9B322B",
"@X c #892C32",
"#X c #972B33",
"$X c #843332",
"%X c #8C3332",
"&X c #8A3B38",
"*X c #963536",
"=X c #9C3333",
"-X c #A32524",
";X c #AC2524",
":X c #A32B24",
">X c #AB2B25",
",X c #A3252A",
"<X c #AD232B",
"1X c #A42C2B",
"2X c #AB2C2B",
"3X c #B62626",
"4X c #B32B2C",
"5X c #BB2B2C",
"6X c #A53226",
"7X c #A4322B",
"8X c #AB322C",
"9X c #B73329",
"0X c #A52B32",
"qX c #AC2C32",
"wX c #B42C33",
"eX c #A33232",
"rX c #AA3535",
"tX c #B43434",
"yX c #CF1108",
"uX c #C5190B",
"iX c #C61B18",
"pX c #D61B18",
"aX c #E61A0D",
"sX c #D1280F",
"dX c #C8261A",
"fX c #D6261C",
"gX c #D01C26",
"hX c #C72727",
"jX c #CB2E2F",
"kX c #D42627",
"lX c #E42221",
"zX c #974A2D",
"xX c #8E483A",
"cX c #9F3842",
"vX c #8E534D",
"bX c #A6584E",
"nX c #A96556",
"mX c #B26A54",
"MX c #936962",
"NX c #B56F67",
"BX c #CA786E",
"VX c #CE913C",
"CX c #B68153",
"ZX c #CE9649",
"AX c #D89271",
"SX c #2D5285",
"DX c #375987",
"FX c #2C5994",
"GX c #396797",
"HX c #435A85",
"JX c #4F678B",
"KX c #486997",
"LX c #4F71AA",
"PX c #92768E",
"IX c #6788B5",
"UX c #C89A9E",
/* pixels */
"r f g k ~.D.].]._.^.v p ^._.n T '.|.,X-X|.^.G.!.A T @X/.L L G G L / W Y.@X).W K K W $X).$X@X}.S.b.[.[.'.T.{.~..XF.F.].x.j k k d b z g g F s S s g ~ z l s r k K ",
"F f k d m D.F.J.^.^.oXF.^.^.Q.n `.`.'.1X+XS.].S.Q.(.Y.A D J ~ I x ~ R Y @X)./.R i a Y @XQ ).Q.v.|.1X|.[.|.`.Q.^.J.oX].c.b b m j T ( L g F F s s f x P R f g i z ",
"i h k g M XXoX`.}.OXoXF.v D.~.~.F.F.].[.].].`.F.S.(.W A Z J I ' ~ J P ^ ' ~ ~ L h h G G ' ! ~.XXF.[.,X;X!.S.^.].F.].F.A.T T D.n b.{.(.~.J J f f t l Y Y k x j j ",
"Z z k k v OXOX{.[.[.[.G.A.^._.~.D.oX].F.^.F.F.F.S.^.T z Y Q U U ` L x ^ ~ L L l J ~ ~ I ' ] ( M oX+X1XP.A.A.!.].Z.F.OX}._.(.Q.c.,X'.|._.( / t h U K Y R k m j i ",
"s f l E ~.*X{.1X[.:X6X6X1X+XS.F.~.^.].`.!.Y.T.-X,X1X].F.W Q T W W ). XE ^ ^ M F. X X#X#X!.{.|.}.6X2X2X>XE.-X[.F.Z.~.OX_.).).E.0X>X:X+XG.{./.a i b m n c a c n n ",
"g l K .XOXOX|.1X:X'.6X6X7X[.].}.A.A. X^.c.v.1XeXqXeX{.D.E T A Q.Q.~.~.^. XD.].7X=X=X2X1X[.1X1X:X2X6X4X4XwX2X[.oXF.].OX@X! $X#X0X:X'.1XG.Y.!.(.a c ~.XX XQ.c.p p ",
"K Y R ).OX+X|.,X:X,X1X:X1X[.].+X).b T ! Q.}.eX1XrX1X!.^.^.F.S.S.G.b.N.E.hX3XhXjXrXzX8X8X4XP.>XL.:X2X4X5XwX>X[.oXL.1X=XOX' / #X#X1X:X1X1Xv.G.|.S.b.L.-X;X'.G.x.p ",
").).).Q.^.^.{.,XL.2X6X:X:X1X|.|.).a R ( ~.}.[.7X:X7XS.].oXJ.7X|.I.P.5XjXdXkXhXW.9 9 y eXU.U.3XK.H.;X5X3X<X,X7X+X4X2X|.XX` / (.@X7X8X2XwXb.v.v.7X8X8X,X>X<X,Xc.p ",
"^.A.A.v.S.].|.].b.'.8X9X+X}.P ~ D 8 / U t t O 0 + G ! _.}.G.<XU.K.9XgXkXkXhXq.# > 5 < 1 ' $X9XdXjXU.9XI.tXtXeX+XXXOX).).] ( .X$XOXrXtX<X,X-Xz.b.L.J.L.P.3XE.,X`.",
"}.!.!.`.A.F.[.+X`.`.[.[.+X}.0 + 8 &XAXBXBXnXvXvX{ q K ] ^.[.L.P.U.9XgXkXkXW.B 7 y.,.%.2 1 8 b.jXdX9XK.3XtXtXeX_..X$X( ( ] $X%X&XXXOX[.'.'.'.:X1XJ.I.>X4X3XE.-X`.",
"|.{.S.D.m F.^.+X+XoXoXoX+X^.0 vX_.bXAXBXCXnXBXBXNX{ t U ^.+XL.N.U.hXgXkXtXC 3 JXDXDXp.y.:.; i rXsXdXdXdX4XH.^.Y.^ ( ^ P ! .X*X*X( Q.!.#Xb.b.[.6Xz.I.P.U.3X-X{.!.",
"{.|.S.F.^ ~.D.[.oXOX XM ~.E O vXmXvXAXBXNXbXBXBXNX` r ~ D.].H.P.sXU.uXdX%Xr 7.LXLXLXKXKXSXy.O T sXdXdXdX9X2X^.! m R P U Q .X*X=XQ W T (.].c.].+XP.P.P.m.L.'.].A.",
"XXOX}.|.[.].F.F.Q.^.].S.c.}.e vXBX&XAXBXNXvXBXNXg.s f ' R R Q.+X9XjXwX0X0.- KXLXKXDXLXGXGXFX<.; .XtXjXhX6XI.6XrX].!.!./.(.}.).E m T ^.T.n v x.H.B.B.W.B.E.{.Q.b ",
"~.A.`.|.].^.^.^.M n D.D.Q._.t ' AXxXBXBXmXvXNXNXMX+ Z Q ( R n ].I.I.T.(.7 1.IXKXSXGXGXLXGXGXp.1.r /.W.iXK.K.tXrX7X|._.Q.`._.Q.Q.D.(.Y.v.n c.x.c.N.W.R.k.l.p c j ",
".X~.!.!.Q.T T T n c v m n T t w mXeXBXBXmX*XCXnXMXr T T ).~.M v D.Y.W _ ; p.LXKXDXFXGXGXGXGXDXy.5 $ A tXdXK.P.P.H.[.].oX].!.!.].!.S.Y.c.p c.c.x.c.].G.c.c c j q ",
"E ~.(.Y.T b c b c j m k T ! ~ 8 bXbXmXNXbXxXBXbX{ g _.#X#X(.c v M T _ e  .f.JXp.p.SXFXGXSXSX#.| 4 5 w cXdXdXV.K.I.L.F.oX+X].7X7X'.v.v.v.(.Y.p p x.}.].v.j m k g ",
"! W ! W ! R b a Q.T a j A Q.! 9 bXbXmXNXbXxXmXmXr i L.P.3XN.C.l.Z Z V - -.y.u.r.8.SXSXSX8.6.@ S r # o S hXjXhXM.P.m.[.+XoXJ.8X8X:Xb.b.:X'.l.x.x.C.oXx.l.p i k 0 ",
").).! ).! E Y z ).).a i a ! .X9 q.nXmXmXxXxXnXNX8 ).N.P.E.B.D.E Z w .   } ,.:.<.3.9.9.8.6.#.@ V ) ) + O n.jXgXU.P.L.:X6X6XoX:X8X:XH.H.>Xb.b.G.`.C.[.C.l.v c l q ",
"|.}._.)._.).! z j R b z a Y ! q 8 bXnXnXxXxXNX$X9 }.E.B.*XA # X X   V , @ , & 7 5 2 ;.;. .| o 1 B D H ' W.hXkXdXK.I.I.H.'.,X1X6X:X:X>X<XE.E.-X'.oX[.F.C.D.n b h ",
",X1X}._._.$X! l i P z K z z Y a + NXbXnXbXbXNX8 C #X5XgX@Xw . = *   0.1 @ # s 5 $ < 7  .- * . X O O O 9 k.k.m.m.K.I.L.I.,XeX8X:X>X>X4X3XW.5X<XB.H.G.G.F.c.n m h ",
"8X7X,X,X}.~.~.E M b c c Z Z T ).w nXbXnXxXmXvX+ 4XjX&XI 1 - 3 O.4 ; . 1 + { VXZXCX0 + H 7     - > > : : , 1 r s f P Y.qX;X>X2X>X3X4X;X>X3X>X>X:XF.v m  XD.M n c ",
"1X[.'.|._.p n .XE E n c a a i A O vXvXnXxXnXd o P.k.e O =.%.,.$.+.X.;   + xXZXZXAXZ.J { %.  = > 4 4 } #.;.2 < $ # r y ,X:X>XL.L.2X>X>X>X3X;X>X>XF.C.v E n p c p ",
"[.].].].Q.p Q.}.Q.Q.~.~.A.A.n n 8 8 vXnXbXbX9 a ( e w.w.i.r.$.r.,.:.%.%.@ F d N h O .   *  .4 4 ..+.#.| 8.2.2.3.7 $ e Q.b.L.2X>X8X2X>X>X>X9X>X>XJ.C.n b M c  XM ",
"oXOX+X}.n ).+X`.~.A.~.Q.Q.(.~.n d O bXBXbXbX9 *XXX9 > 7.p.t.e.p.<.@.o.o.S 1 + 0 % # ;.1.%.,.+.:.:.-.>.2.#.8.3.2.; < Y S.b.1XtX6X8X6X6X[.>X9X3X<X6X^.n R c .X X.X",
"qXrX1XY.E.{.T.Y.^.[.}.|.^.].].^.^ 8 vXvXvXf y tXdXV.9 8 *.1.DXDXr.<.$.O.6 =.=.6 ;.&.;.7.....@.$.5.6.8.8.y.1., % r z n S.T.rX6X:X7X8X1X[.I.>X3X5XwX0X_.).m R c c ",
"rXrX7X`.T.T.`.!.|.+X|.[.].OXoXoX( q 8 H t 0 F.6XfXfX8Xm B , <.r.i.+.:.+.4 %.*.1.1.;.1.o.X.+.:.:.4.2.5.5.%.2 B ) j n c.v.v.1X8X:X,X,X:XH.L.>X4XwX0X#X#XXX~.~.E E ",
"=X=X|.].T.{.=X0X2X[.[.|.OX].].F.~.R r I r Q ].6XI.U.kXfXN.l.w B 6 *.*.+.&.+.4 ..,.<.o.*.6 > *.=.6 5 B r u c.5XV.p x.v.b.'.2X1X1X<XqX|.].H.H.|.:X(.(._.).Q.E ~.~.",
"OX_.^.{.{.#XrXrX4X2X[.oXoXoX^.].Q.! r r 8 z C.Z.L.z.yXdXhX;XXXZ < < ; +.X.o.&.o.@.&.....> 6 6 3 < @ Z #X5XtXhXhXJ.I.b.-X-X<X0XqXwXqX`.`.G.].{._.(.(._.).Q.A.Q.Q.",
"OX+X[.].[.2XwXhXwX4X>X8XqX1X}.^._.).r vX) i M D.*X|.4X3X;XW.V.jXp 8 X X ; -     *   = = ; X & H 9 eXfXaXsXaXuXuXU.K.:XqXtX0XqXwXL.G.S.D.(.(.#X@X%X X~.~.~.~._._.",
"OXrXrX7X1X2X5X5XtX2X2XtXeXeX}._.OX@X0 s.] J .XM ~.+X7X>XU.m.V.hXtXE $ X 6 =.3 6 =.a.a.0.w.; X # rXjXaXaXyXyXsXM.9XP.1XeX1XqXqXwXH.G.S.!.Y.Q.(.}._.Q.~.~.~.XXOX~.",
"J.eXtXqX2X2XwX5X8XtXtXtX^.^.@X@XQ._.8 s.] z E _.).A.`.J.U.U.dXkXlXkXT.C B g.g.g.d.a.a.d.a.X # J m.kXyXyXpXiXhXW.P.9X|.'.J.:X2X5X:XG.Y.^.Q.!.}.#X^.^.}.OX_.#X}.^.",
"'.1XtX4X:X;X4X<X[.1X6X2XQ.Q._._.~.%X0 { ( z @X%X}.}.+XJ.U.sXdXuXyXiXeXE @ B PXPXPXMXj.a.; X # A n.fXyXyXpXiXB.b.T.b.'.}.:XH.>X9XoXG.v.].(.Y.(.}.].^.}.OX}.}.+X{.",
"F.[.:X<X<X,XrX1X[.[.oXF.^.}.!.S.}.*Xr ` ).A.B.U.;X5XV.M.sXsXV.V.n.c.V ; - - , PXUXPX7.= -   . 2 r ! dXpXU.m.b.T.b.b.:X1XW.<X>X:X1X'.S.F.Q.A T R _.}.[.{.OX^.OX~.",
"^.J.:X,X'.:XrX'.[.`.G.G.^.+XeX1X'.+Xq ` &XQ.;XU.U.U.M.iXuXuXR.k.k.y @ ; > >   ; , , * = > > 2 ; # w m.M.m.b.E.T.'.'.-X:X<X<X4X4X:X`.S.A.Q.n T T XXOX}.].^.^.XXoX",
"^.^.`.'.S.`.[.'.[.H.[.:XJ.:X9X;XP.2Xi / %XQ.3XU.M.V.iXdXM.V.N.Y.) O = : : > 2 ; > - = : : } > } 7 < x.B.m.z.H.J.F.D.D.^.<XqX<XN.v.Y.Q.M Y b E ).XXOX+X}.XXXXXX X",
"].!.F.!.C.S.[.:X`.G.-X,X:XN.4X5XhXtXj ( *X_.9XjXsXdXiXyXV.B.T.u # @ } | | } } %.%.&.} } #.@.o.%.&., u 1Xm.z.J.l.C.A.F.D.H.<X<XR.!.Q.E R R R T ). XXX+X}.~.T ~._.",
"Q.p Y.Q.M n D.F.H.B.B.-XI.L.hXkXpXpXM R 2XK.aXaXaXaXkXjXrXA V , 2 2 X.| 4 4 ....+.+.4 %.} o.}  .o.> # %XP.m.m.z.J.L.1X6X:X>X<X'. XM m E ^ R m z E E %XOX_.M R ! ",
"T p b M A.p x.S.:X>X5X9XU.U.kXkXpXpXQ.E 7XI.dXaXlXkXB.z.C e , 7 %.%.&.$...X.+.:.,.*.:...-.#.o.} | > o U z.m.P.I.6XH.b.v.z.v.,X'.E ~.R m M b c T M n Q.~.M n Y z ",
"Y a c j n D.[.[.:X>X9X3XK.U.fXkXlXpX~..X&Xe D H 7 H ; 3 =.a.*.*.&.&.<.} ,.,.:.:.<.<.<.<.| | -.| = | , 1 N.3XU.hXM.m.m.m.J.b.G.^.D.E R m a n XX*X|.|.*Xc.c j z l ",
"Y a j k M }.1X>Xz.H.B.U.U.dXpXpXaXfXA.j q.V a.f.f.f.JXh.h.d.y.7.-.-.: * 3 *.<...O.y.<.@.-.-.+.X.* | < @ b.V.hXkX3XV.U.P.z.Z.F.D.^ ( ( R c  X=X=X=X#X*XD.m j P l ",
"!.!.XXXXF.oX>XP.H.I.J.b.U.dXV.sXhX5X8 O o =.u.GXIXLXLXKXHXt.5.,.&.+.  = *.:.&.7.7.5.,.,.>.$.O.O.: > 2 ; 9 eXfXdXhXhX<XH.F.OX}._.%X=X#X{.b.eX7XrX+X|.].!.Y z d F ",
"A.^.^.Z.C.Z.L.P.>X>XJ.J.M.K.dXkXU.k.s UXj.X p.GXLXIXKXSX4.t.$.o.%.6 * X.i.<.5.,.$.4.<.<.@.$.<.O.: X.&.%.e *XdXfXjX5XN.H. X].}.}.|.=X#X`.{.eXeX|.|.{.~.S.R x x g ",
"p v F.S.v v :X:X6X8XH.L.K.M.iXpXhXy O MXj.X p.FXGXKXKXSXt.#.} } < - * 1.5.5.i.e.i.t.$.4.6.4.@.O.: : :.o.1 Z U.sXgXW.E.b.S.!.}.|.|.1X].[.*X+X|.=X].}.}.*XY.!.Q.@X",
"j v F.F.v D.6XH.G.G.:XP.M.V.pXkXhXP.8 O 1 X e.SXu.p.DXSX5.-.} : < - * 5.d.i.r.u.6.3.t.>.5.4.6.#.: * O.O.7 w z.M.gXjX3X;X+X=X#XrX:X'.G.].OX~.(.[.|.|.^.~.eX*X*X*X",
"i c m j Z.6XL.J.v C.F.].N.hXfXfXfXfXoXu ` H SXFXFXDXDXt.:.@.@ 5 ) # * i.KXu.u.SXp.3.4.u.p.u.i.2.: * ..o.X.5 q 9XhXkXiX3X:XH.[.].|.`.J.`.!.!.A.Q.|.+XY.v.Y.=X_.*X",
"b c j v F.oXJ.H.D.S.G.H.N.U.M.M.yXuX6XC.s.V SXe.SXDXr.$.X.2 % ) ) w * d.JX8.r.e.i.5.u.DXu.i.9.>.| * } o.,.=.O %XjXjXhXhX6X[.[.J.+X}.+X|.Q._.Q.A.!.^.S.S.(.=X*X@X",
"Y c n E ^.!.].+X+XoX[.[.3X9XK.K.sXU.rXc s.1 3.FXp.p.r.$.7 @ y T.{.u * 1.9.5.:.<.a.7.1.,.y.y.>.5.#.= | -.$.@.1 @ 5XhXkXjX6XH.H.[.|.[.+X[.Q.~.~.Q.D.~.Q.^.Y.=X%X~.",
"T b b E M D.^.].F.`.[.L.6XI.z.m.M.3XoXm s.2 3.3.u.r.>.$.< V b.W.wXy . } @.&.4 4 7 =.;.%.$.,.@.-.= * | | #.$.=.; l.jXkXkXtX'.:X:X[.+X[.`.Q.Q.Q.Q.~.Q.D.~.Y.*X~.E ",
"j z a b a b Y Y p }.'.,X,X'.G.Z.Z.G.( z s.1 6.e.u.,.%.; 9 T.n.iXjXu V .   X o s Z.Z.[ + $ , - - - - | 2.2.>.<.:.o q.jXdX4X;XI.J.[.OXoX^.Q. X^.D.!.^.`.`.]._.XX.X",
"i l a Y a b Y Y n _.{.'.H.[.6XJ.J.J.^ l s.1 4.p.y.&.< % Y.E.yXgXcXe ) g.a.5 + mXZXZXZXN @ . , 0. .* } #.#.#.y.y.1 B hXdXB.L.I.J.^.}.`.].^.~.D.XX^.`.!.^.}.^.^.^.",
"z i Y Z a z b i n ~.c.].E.3XV.3XU.V.}.p s.$ y.y.7.7 # J k.V.pXkXV  .* - g.MXg zXVXVXVX[ # j.7 - * * | -.#.@.-.,.=.$ >XV.z.I.I.L.Y.T.|.0X^.~.^._.^.(.!.{.^.].}.}.",
"i i Y n a a a Y b E x.J.,XB.N.V.V.U.*Xa s.@ 1.1.;.@ V Y.m.M.pXn.> 7.0.- . . o + [ zXd q o .   = >.#.* | ..@.>.>.3 < 9XuXz.L.>Xb.T.T.0X{.S.`.OX X^.XX].^._.}.].|.",
"D J K K Y A n T A.!.G.H.P.P.;X3XU.3X#XC { o X 5 O i b.m.yXyXU.l.;.i.<.y.1.> > 2 & & & 5 &...@.4.8.2.= * #.#.<.7.+ s dXuXv.G.C.C.c.Q._._.T ).$X%X`.+X=X}.}.{.{.1X",
"l l l z K b z b n D.].[.;X3X3XB.V.3X*Xi s.o X o i ,XN.V.yXpXtXu 7.i.i.f.<.,.1.;.w.3 3 3 5.,.>.$.8.8.#.* } } 1.;.O  XV.K.H.b.S.x._.).W ).T )._._.].{.|.|.|.eX7X+X",
"P P P L x l l x b n ].#X+X].F.].[.}.' 0 { 8 m p W.n.yXyXpXgX#Xw 7.HXJXHXu.t.t.u.y.O.y.w.4.>.2.u.3.3.6.= > ,.2 , y H.K.K.z.b.c.T.).b m x k R ).).].|.'.T.eXeX=XeX",
"Q U P h f g g L R ! Q.^.+X].F.~.}.OX/ O ~ 8  XI.n.uXM.uXpXhX@X1 9.DXJXHXp.u.u.p.e.e.t.e.6.4.3.8.3.3.8.| * 4 - H >X3XJ.I.N.b.'.{.%XY g g h P ! ).~.|.rXtXqX7Xv.!.",
"~.( R P K l P P ^ ^ Q R ^ ( ( ! D.zX~ O ~ + l.Z.J.N.m.U.sXhX` 7 9.HXJXi.u.6.6.8.4.4.t.u.i.6.6.8.r.4.6.2.    $ 1 '.,Xb.z.[.,X,XE._./.R P L P ! ! .XXX_.+X0X}._._.",
" X X! _ Q Q / P P Q R m J R W R D. X^ 8 H O Z.I.I.b.N.hXfXU.% 7 d.HXHXi.i.8.2.4.4.r.i.u.SX2.3.8.3.3.$.#.= 0.0.% l.T.'.H.'.'.,XT.(.Q.).P z W ! @X$X X_.^.(.}.+X}.",
"^.(.$X$X! ! ( K z K P P J P P Q v  X( 8 ` + L.9X3XB.N.E.hX8X@ 7 f.f.9.t.4.r.$.3.r.r.u.6.8.2.r.e.8.6.$.4.4 6 S F x.T.{.(.! ~.~. X).).! Y R .X$X$X X.X.X)._. X*XOX",
"`.!.#X%X).! ! W ( R P L l I P P D.XX.X8 S + I.hXwXE.N.E.I.l.7 a.f.f.t.6.$.4.t.t.t.4.t.9.u.3.3.3.8.3.$.>.4 ; % J l.Y./.A Z i i v T ).).T W ).! ). X$X.X.X X X).+X",
"'.{.%X.X/ / U / / ^ ^ M R R ).E F.OX] 8 F O m.K.U.U.B.'.eXw 6 d.f.JX$.#.>.4.5.5.7.6.7.6.$.4.>.4.2.i.8.6.o.2 t Y v.k.n Y A Z Z l n E ).@X).).R Q XX%X@X_.).$X@X_.",
"`.^.).! ' ( ( $X( (  X~.~..X%XXXF.|.] 8 S O H.U.P.U.B.L.&X0 *.f.JXp.4.>.4.r.6.5.5.2.6.6.$.$.$.>.8.i.6.#.-.2 # W T.b.A.v A K P P b E ).@X/.$X$XQ R ).).)..X.X%X_.",
"A.M T ! Q $X).#XeXqX2Xb.<XqX2XwX4XeX' O % O b.U.V.dXV.B.` $ *.y.d.d.t.4.$.$.4.>.>.#.5.5.>.4.-.#.>.>.-.-.O.o.$ H T.W.N.z.T.T.(.{.n c ! @X).$X! P R z K ! $X$X$X@X",
"E ~.! ! $X@X*XcX2XqX;X<XwX5X<X3X5XqX] O s % B.3XU.iXhXW.$ $ y.y.d.1.5.4.r.t.O.O.5.9.5.5.>.,.-.#.-.#.-.&.>.o.< 1 E.R.B.U.`.!.}._..XT ).@X).! R P z z l R .X$X.X.X",
"[.].G.:X1X2X4X4X4XtX-X,X5X5X-Xb.<XwX&X8 S r B.hXiXiXhXH., 0.1.y.1.7.,.:.>.4.<.@.O.,.,.,.:.:.-.%.:...O...,.%.6 X #XT.V.iXN.L.E.T.#X(._.).W ! ! Q I F G h ~ Q $X@X",
"].G.1X6X1X6X1X2X1X6X1X2X2X2X>X'.4XtX%XO F q M.hXhXiXwXy  .1.*.<.%.:.-.,.<.:.+.,.:.O.o.X.....o.,.+.o.o...| X.6 ; e #XW.iXB.N.-X0X#X(.).).W ! ! ' J L L G x P $X_.",
"D.+X7X7XrX1X[.[.|.|.eXrX+X+X6X+X4X4X&XO x q M.dXgXgX` X =.*.*.:.X.-.} o.,.+...X.X.X.-.*.&.....+.%.&.o.&.| ..4 ; $ D '.N.V.N.'.{.#X(.@XQ._ Q K U I I I D z m XX}.",
"^.+X[.7X6X7XF.].OX*X+X`.D.F.+X7X4X3X&X8 ^ q M.sXgXn.% 5 %.*.+.O.:.&.> %.:.%.X.}  .%.o.......: O.;.;.%. .O.O.: 4 < % T.B.V.N.'.T.#X_.$X)._ _ Z K J D l J m E OX`.",
" XoXJ.[.qX1XY.!.~.XX! R R E }.eX9X8X*X9 ` r I.K.@X8 1 > > *.%.6 %.%.%.*.%.&.%.4 %. .1.%.&.,...o. .%.%.X.O...> > 6 < t ~.S.`.!.(./.W $X! _ _ Q U K K z z j M _.`.",
"F.D.].oXrX|.Y.}.).E R ( / Y T @XJ.6XOX9 { F z.z.w @ < 2 +.%.*.6 *.X...3 > > 4 %.*.4 *.*.&.*...4 > = > 4 : 4 2  .5 $ u ).`.Y.Q.Y.A A $XQ _ ' W K b Y Y K j E _.^.",
"F.^.A. X|.!.!.(.%X$X/ ( ~ Q ( ! J.].*Xu s.r x.x.o @ 5 6 *.6 6 6 3 ; 4 6 6 3 > 6 %.=.*.6 %.*.%.> ; < 6 5 2 5 2 < 1 @ u T Y.p Z K Z I _ _ Q Q U _ Y Y b .X! ! ! W ",
"!.A.b n A.Q.Q.|._.] Q / ' ~ Q Q C.F. Xc % o p M S @ $ $ < < 2 , < 2 2 2 < 7 < 2 < 2 ; ; 3 2 - , < < < $ < < < < B V _ (.S.A Z Z Z U _ Q W W Z ! T T a .X_ T Y R ",
"l z K z c E ^.}./ ~ L ~ L I G F U U Z Z 0 0 x.v.D.A.p v y p y C 9 9 9 w 9 e u A C e 8 O 8 8 w 8 9 E v.k.y p i i l i Y.@X@X_ Z I I I Z ) R K i ^ E m m ( ' I J I ",
"P z z z m m M  X( ] ~ d G G F F I Q Y Z d x Q. X`.v.x.C.C.v.Y.#XcX*XcX&X_ W @X#X#X@X_ Q ' ' ' U n _.R.<X0X}.(.A k l (.@X/._ _ Z G I I Z K z z / R z P / ' U I I ",
"/ K l P N z j c ! R P g h f F F I Q W Y g k m z j j j i z a C p Y.Q.E R D g x l A /.R z D J P l z / @X@X! ! $X! P P @X@X_ ! E R U U J J J J P Q J J L L G G G I ",
"P l z z x k k m n R z x F I G G Z I ] ! k x m x k k j j h z Y Q._.E ~ L G x x i R ^ / / L h g g x ~ ).$XE R Q.(.R l Y./.W ! E M / J J I L U U J J G D D h F F G ",
"g h i a E R / P K P z l x z m m Y ^ E E Q E ^ m R z K P G l M A._ K G F F F S s F D D ' ~ I J I g L Q W @X).).T Y Q P K ! ! Q Q P D L L ~ ` ' U I F s s F F f D ",
"g k l b R R P x l x l l k P ^ ^ R ! E E R ! R ! T i z z J l Y M W U J D f f F F f F J U ' / U I h U Y a E $X).R i Z z z Q Q Q K L D f G F ~ ' ' I F s s s F F F ",
"x x z z Y K h g f g t h j m M ^ Q R Q ( m P Q U ! Y t t q K R T U U ~ U G F D f F F I ` ' ] ' U L P Y K z / z z P P P ~ U ' I I F F F G ~ ~ ' ' I f s s s s F F ",
"l l x x R P t t s d g l j c M m R R R R z R Z Q W W i t i Y ! _ U ~ Q U G ~ G D F F ~ ' / U U U z z z Y P L x x P L L L U U ` ~ I F ~ H ~ ) I U ~ s s s & S s F "
};
