/* XPM */
static char *_635091836246[] = {
/* columns rows colors chars-per-pixel */
"80 80 256 2 ",
"   c #150418",
".  c #331115",
"X  c #17112A",
"o  c #291C39",
"O  c #301A2E",
"+  c #28253A",
"@  c #362534",
"#  c #332322",
"$  c #4F1815",
"%  c #49251C",
"&  c #58261C",
"*  c #53321F",
"=  c #67281D",
"-  c #76281D",
";  c #7E331E",
":  c #511C2A",
">  c #4B2824",
",  c #532A24",
"<  c #5C2B24",
"1  c #5C2C2A",
"2  c #582626",
"3  c #5A2B35",
"4  c #522E31",
"5  c #642B23",
"6  c #6B2C24",
"7  c #632C2B",
"8  c #6C2C2B",
"9  c #662626",
"0  c #742C24",
"q  c #7B2C24",
"w  c #742D2B",
"e  c #7C2D2A",
"r  c #742623",
"t  c #64322C",
"y  c #6C332C",
"u  c #693327",
"i  c #7B3125",
"p  c #74332C",
"a  c #7C332C",
"s  c #773427",
"d  c #672B35",
"f  c #792D36",
"g  c #693436",
"h  c #733333",
"j  c #7C3433",
"k  c #79363A",
"l  c #76463A",
"z  c #282845",
"x  c #383449",
"c  c #383755",
"v  c #342B4B",
"b  c #35315C",
"n  c #5A2B44",
"m  c #503750",
"M  c #652D49",
"N  c #683448",
"B  c #783747",
"V  c #673856",
"C  c #783957",
"Z  c #752E48",
"A  c #503969",
"S  c #713D66",
"D  c #441E4D",
"F  c #3D425F",
"G  c #504559",
"H  c #774854",
"J  c #514C6C",
"K  c #784567",
"L  c #714F73",
"P  c #706577",
"I  c #88281D",
"U  c #822C23",
"Y  c #862D28",
"T  c #83342C",
"R  c #8C342C",
"E  c #853529",
"W  c #93342D",
"Q  c #9B362B",
"!  c #843433",
"~  c #8B3532",
"^  c #8B3A34",
"/  c #873839",
"(  c #943633",
")  c #943A33",
"_  c #933B3B",
"`  c #9A3A37",
"'  c #892D2D",
"]  c #A23D37",
"[  c #93423D",
"{  c #A7413B",
"}  c #883846",
"|  c #953B45",
" . c #853C57",
".. c #933C56",
"X. c #A23C42",
"o. c #853D61",
"O. c #96454A",
"+. c #884758",
"@. c #964758",
"#. c #8B4F51",
"$. c #A64E54",
"%. c #9B695A",
"&. c #874968",
"*. c #974968",
"=. c #985569",
"-. c #995878",
";. c #8B5073",
":. c #A6576F",
">. c #946877",
",. c #A8677A",
"<. c #B37372",
"1. c #A4705B",
"2. c #C37973",
"3. c #B98974",
"4. c #CA897C",
"5. c #CDA37B",
"6. c #775188",
"7. c #736F8E",
"8. c #7E5FBB",
"9. c #71649D",
"0. c #7F5FC0",
"q. c #875787",
"w. c #945985",
"e. c #875B96",
"r. c #92568D",
"t. c #986689",
"y. c #8B659A",
"u. c #99669A",
"i. c #8F748F",
"p. c #A86786",
"a. c #B57699",
"s. c #AD6F91",
"d. c #825FBA",
"f. c #8A5DA4",
"g. c #8964AA",
"h. c #9969A6",
"j. c #8463BB",
"k. c #8865B5",
"l. c #946AB6",
"z. c #9874B0",
"x. c #A56CA7",
"c. c #A876A8",
"v. c #B679A9",
"b. c #A978B7",
"n. c #B57DB6",
"m. c #A66EAF",
"M. c #A45D87",
"N. c #C17A8C",
"B. c #C27EB3",
"V. c #8763C4",
"C. c #9C78D9",
"Z. c #966FC9",
"A. c #A87BCE",
"S. c #A47CE3",
"D. c #8B66CB",
"F. c #B58594",
"G. c #948BAE",
"H. c #BA83AA",
"J. c #BC84BB",
"K. c #B984B8",
"L. c #B18EB2",
"P. c #B7A5B7",
"I. c #928296",
"U. c #CB8B94",
"Y. c #C788AB",
"T. c #C388B8",
"R. c #C994B7",
"E. c #D799B8",
"W. c #CF98A8",
"Q. c #D9A5B9",
"!. c #D0A9B4",
"~. c #E9AABA",
"^. c #F0ACBC",
"/. c #EDB5BC",
"(. c #EAB5BB",
"). c #F1B4BC",
"_. c #F1B5B9",
"`. c #E2A3AB",
"'. c #DD9CAC",
"]. c #B987C6",
"[. c #B88AD9",
"{. c #BC94D9",
"}. c #AE8FD0",
"|. c #B7ADCC",
" X c #B68AE8",
".X c #BC93E8",
"XX c #B78DF5",
"oX c #BC93F4",
"OX c #BC92FB",
"+X c #B691F8",
"@X c #AB85E8",
"#X c #B8A9E4",
"$X c #968DC7",
"%X c #C58DC6",
"&X c #C796C7",
"*X c #D79BC7",
"=X c #C58DD8",
"-X c #C697D7",
";X c #D39CD8",
":X c #D9A7C9",
">X c #D9B7CB",
",X c #D8AAD7",
"<X c #CDB1D3",
"1X c #E7AAC6",
"2X c #ECB5C2",
"3X c #E6B9C4",
"4X c #EBBAC4",
"5X c #ECBECA",
"6X c #E6B9C8",
"7X c #F1B7C3",
"8X c #E7B8D7",
"9X c #F0B3D0",
"0X c #C696E7",
"qX c #C597F7",
"wX c #CF99E7",
"eX c #D5A8E9",
"rX c #DAB6E8",
"tX c #D8AAFA",
"yX c #DBB8FA",
"uX c #C9A9F0",
"iX c #E5BAEA",
"pX c #E3BCFE",
"aX c #E6BAF7",
"sX c #EAB5EA",
"dX c #E29FC8",
"fX c #D3C6DC",
"gX c #EAC2CD",
"hX c #ECC4D3",
"jX c #EAC7D8",
"kX c #F3C9D8",
"lX c #F6D2DE",
"zX c #F0C6D2",
"xX c #DDC2F9",
"cX c #DACCE4",
"vX c #E8C7E9",
"bX c #F5CCE7",
"nX c #E6D6E9",
"mX c #F5D4E3",
"MX c #FCDCEC",
"NX c #F8D7E8",
"BX c #E3C3FC",
"VX c #E8C8F7",
"CX c #ECD3FC",
"ZX c #EAD7F6",
"AX c #FCDDF3",
"SX c #F4DBFC",
"DX c #F7DAF9",
"FX c #F1C9F4",
"GX c #EDE3F9",
"HX c #FDE4F4",
"JX c #F5E4FC",
"KX c #FCE5FC",
"LX c #F6EAFD",
"PX c #FCEAFD",
"IX c #F7E5F5",
"UX c #FDE4F0",
/* pixels */
"% % & u a i E ; a a q - q i 0 - E E ) ~ R Y e a - - p 8 8 < 1 1 1 y u 6 a j 6 8 9 h C B B B } ! ' ( W ' Y ! q Y Y R s ; = = & = 9 9 < & % & > % & 5 = & & $ & * ",
"& % & & 0 i ; ; a T E E T T 0 0 E U Y ) ) Y ' q - p w 9 & 1 1 t t t u u p p h 9 9 2 =.V Z =.Z / / ( Q W T Y q Y E R E - = = = u 6 p 5 & & 2 > % & = u 6 & & , < ",
"% & & = w T E E T ^ ^ U - i U q q U R R R E R U q a w 9 5 < 1 g t 2 t y h g g 7 2 n t.m.c.v.p.Z ~ ' W ' Y q U Y U E s = - 0 i - q E a a = = , % % & = u = = = 9 ",
"* < 5 = - ~ W ^ R ~ ^ U q E E U i ~ T ' Y U R U Y e f r 8 9 t 7 t < 7 g g 7 8 < 3 V b.=X{.=XH.C / ` ( ( U - I Y - U E [ i i w q W R R E a 6 & 2 1 t = = = = 9 & ",
"% & 5 6 i ^ ~ W ' ~ | / ^ T U - U E ~ T Y r Y ~ ~ / j w h w 9 w 8 w w w h 8 p h Z r.A.wXqX=X%X*.| | ( ( ' W ' Y i T ^ a s a E ^ ` W ' Y a p 9 2 7 y = - = = r = ",
"2 < u s E ^ W W ' _ $.| | ^ E E i - T T 0 q ~ _ O.*. .f h } 9 w w ! ~ f k B Z +.-.B.;XtXtXwX;X-...` X.X.` ] ( ' U T ^ ! a ! E R ( W ( ' e 0 p 9 9 a T E Y - r r ",
"5 6 0 a [ E W W ` ..,.,.@./ R ^ s = - i w a [ / *.N.-.Z &.s.} ! T Y Y | @.*.p.x.B.wXeXtXtXtX,X-.} ..$.X.X.` Q ( W [ [ ! h a E R ( Q Q ( T T | } / _ R W R q - r ",
"q a q q i U R ~ / @.v.Y.@./ / / y = s a s a j +.p.T.%Xr.w.E.p.O./ } | :.dXdXdX=XwXtXaXaXpXsXY.:.} '.^.*.| ' ` ( ) [ / j k h T ~ ) ` ] ( ~ / X.M.p.@._ ` ( W q - ",
"T q 0 q r ' ' } Z M.%XT.&.} y g & $ = u & $ $ > L {.=XtXrXsX*Xs.p.,.W.9XaXiXeXtXtXpXpXaXBX,XM.*.a.9XsX:Xp.:.O.[ / / k k l ! k ^ _ [ { ( _ } ..M.B.a.*.( Q Q R E ",
"T q ! a e f  ...w.%X%XT.=.h $ . . l 4.3.2.1.#.&.e.[..XpXpXaXsXsXsXsXsXaXxXyXpXpXaXpXyXyXyXu.&.-.1XsXaXiX8X1X:.B k k k B B H k } j / _ ~ | } ..a.=X%X:.| ( Q R U ",
"E i ! w f C -.v.%X%XK.a.#.k $ l l %.4.4.2.%.<.F.J.{.wXpXpXFXFXVXaXaXaXaXyXxXxXyXyXxXxXyX0X6.u.*XFXaXBXyXFXiX:XN g H #.H H +.#.H k h j / }  .r.A.=X=Xv.....( Y ; ",
"^ ^ ! } +.&.x.=Xn.x.w. .k s . #.%.[ 4.2.<.$.<.H.].}.eXpXFXBXCXBXFXpXFXpXxXxXxXxXyXyXrX#XG.z.rXaXpXrXrXBXVXVXvXF.&.&.i.F.P.W.s.=.#.H } B  .&.h.[.0X0XA.q.o.} j i ",
"! ! / @.,.s.n.J.;.C Z k f f $ #.<.#.4.3.<.#.s.J..X[.=X-XrXVXBXBXFXBXxXxXxXxXxXxX#X#X#X$X$XxXxXyXyX{.,XCXSXKXSXFX<X,X:XL.<X>X6Xa.>.,.-.&.;.u.A. XXXXXA.l.e.;.H 8 ",
"! q T } *.a.n.v.-.d B } ! j & t 3.l 4.<.<.&.].-X X[.].J.;XVXCXBXBXpXxXxXxXxXxXyX#X#X#X$X#XyXyXyXrX;X&XDXKXPXKXKXDXvXVXCXrX<XrXH.u.H.v.u.x.A..XOXqXXXC.l.h.u.H < ",
"j e e ! k C &.-.B d B #.f h $ $ %.O.<.<.a.].wXwXwXA.].%X&XFXSXVXCXCXCXxX#X{.#X#X#X$X$X$XxXcXxXyXrXeX*XvXKXPXLXLXPXPXJXSXxX<XrX-X%X;XwX=X X X+XOX+X XC.l.z.>.g : ",
"w f T w 8 8 3 d 7 9 g =.g g 6 $ %.%.s.s.;XeXwXtXwX].].%XT.sXDXFXbXSXJXrXG.G.G.9.8.$X|.#X#X#XxXxXyXrX8X>XHXKXLXPXPXLXJXJXvX<XiXvXtXsXtXqXqXXXOX+XXX@XZ.g.y.V 3 , ",
"r w 0 p w h 9 9 d d d ,.B g f $ +.=.p.*XeXeXuXeXwX%XT.%XT.%X8X8XmXIXcXP.7.7.F F F F 9.G.G.}.CXBXBXvXbXgX8XHXPXLXPXLXPXLXvX].>XrXwX%X=XqXqXXXXXXXS.Z.D.f.L N , $ ",
"T j a p h h 9 9 f Z n a.;.C M : K t.%XeXtXtXpXwX%XT.T.%XT.T.*XkXvXIX<XP F J F x b F F 9.9.|.xXCXVXCXAXjX6XhXHXPXPXPXLXPXAXH.F.H.v.x.m.m.S. XS.S.Z.d.d.r.K d 1 % ",
"R E ! ! ! h w 9 d M q.].f.e.x.e.e.[.wXtXpXpXeX].J.T.T.T.R.T.Q.1XjXNXI.> @ @ # # z z c c J 7.|.ZXVXDXAXhX4X4XMXHXLXPXPXPXKX8Xt.&.*.:.M.r.M.f.l.f.d.f.f.r.K d 5 & ",
"^ R R T ! e j d C u.[.[.A.A. X X.XqX XtXaXyX=X].J.T.K.T.K.Y.~.2XhXP.G @   # # # # X + o X + i.fXVXCXAXhX2X/.gXmXHXKXPXLXKXSX8XM.*.....*.*.r.r.r.q.r.q.w.&.B 5 & ",
") ) ~ ~ T f k S ].[.qXXX XoX+XOXOX XqXqXtXwX].A.J.J.T.K.T.Y.~.4XhXP   # # l 3.3.3.. # @ v   v G.fXZXDXkX7X2X(.(.3X8XUXPXKXKXiXsXB.*............. .C C  .k w u = ",
"` W R ~ j d C K.0XoXOXOXXX+XOX+XXXqXqX0X0X=Xn.K.K.H.H.Y.E.Q.1X2XbXL .   . H 3.5.5.* 4 G o   X v <XnXbXNXzX7X/./.7X(.gXKXPXCXrXiX,XdXN.*.| ..} | ! 8 8 k h 5 - = ",
"W Y Y ~ f d r.eXoX+XOXOXoXXX+XqXqXqXwX0XA.].n.n.H.H.Y.~.2X1X7X5XlXL.x O . > * * 4 .     X o + m |.SXbXbX9X7X^.7X(.3XhXMXPXLXCXVXrX,X;XB.*...X.X.! p 8 9 9 w q - ",
"W ( ( ' w C ]..XoXOX+XOXXXOXqXqXtXtXtXwX=XK.H.&X1X1X1X2X7X).2X4XgXnX<XP 4 # # # # # @ @ + x J G.JXAXbXQ.~.^././.7XzXMXPXPXLXKXKXDXaX;XB.x.-...X.R i 0 r 6 a a a ",
"` ] ( Y Z  .b.0XqXXXXXqXOXqXqXtXtXtXeX-X%XB.v.1X1X2X7X^.^._.).(.gXnXGXP.J x x + x + x F P |.nXPXHXmX5X~.`.`.~.~.(.zXMXPXPXLXPXHXZXrX{.].x.M...X.` W T s 0 0 r = ",
"_ O.( T } C f.S.qXXXXXXXOXqXyXpXtXeX;X&XR.E.~.^.7X^.^.).)._./.4XgXUXnXP x z x x c x x J GXLXIXlXkXgX4X~.^._._.^.(.(.zXUXPXPXKXDXrX&X].b.m.;...X.) ~ ! ! s s q w ",
"( / ~ / } o.]. XqXXXqXqXtXyXyXeX;X-X&X*XE.dX^.^.7X).).).).).(.5XNXIXP.G x + + + c x P fXGXUXgXgX(.(._.)._.).^._.(.(.5XNXIXKXKXCXeX{.A.m.h.S } ' q U T a s 0 a w ",
"~ ' / ' } B.=XqXXXtXtXaXpXBXeX&X].&X*X1X1X7X^.^.^.).).)./.(.4XzXUXGXi.x z z z z z x I.nXLXUX(.(.gX/.).)._.)._._.)./.2XbXKXKXZXxXrX-Xb.m.m.;...' i a j p 0 q w s ",
"/ ~ ~ / Z T.0X XqXtXpXpXpXaXeXL.J.&XE.dXdX1X^._._././././.(.5XmXIXcXP + X X X + x 7.fXLXPXkX4X)._.).).).)._.^._.).).2X5XMXKXCXvXyX{.b.c.u.&.} ! ! a h h s a a a ",
"~ | ` } o.J.0X.X0XpXBXBXaXrX;XJ.T.Y.T.E.dX1X^._._././././.4XhXHXIXgXG * x F P I.<XJXLXLXHXjX(.^._.).).).).)._._.).7X7X2X5XKXKXCXrX].K.c.t.Z f ! a s e j a E T E ",
"R { O...r.=X0X.X0XCXSXCXrX;X&X].J.K.Y.T.'.~.~.^./.).7X7X7X4XkXHXUXgX>.G G P.cXGXLXPXLXIXNXgX).)._.).).7X)._._././.(.).4X3XMXKXDX,X].].v.u.Z / ^ T e ! ^ T E E i ",
"Y ( | ..v.=X0XqXCXLXLXKXCXrXR.K.T.T.R.W.'.E.`.^._.).).7X/.4XlXHXUXgXP.3.P |.GXLXPXLXIXIXlX3X)._._.).).)./._._._././.)./.(.MXPXSX<X].n.n.a.Z Z e ! ! ~ ! E E ^ E ",
"' } ..o.n.eXpXSXKXPXKXLXKXvX&XJ.T.Y.E.E.E.~._._._.).7X/.7X/.mXHXIXNXfXP.P.fXIXPXKXHXMXNXzXgX(.)._._.).).)._._._././.).).3XmXHXDX<X].K.K.H.N w f ' ^ ! ! E E [ T ",
"f ..M.B.0X0XeXSXKXKXLXKXKXKX&XJ.T.E.dX1X^.^./._.)._.7X7X7XgXMXUXMXIXIXnXjXGXIXUXUXMXmXkXkX7X_._._.).).).).)._._._.^.)./.2XzXAXAXrX&XJ.R.Y.p.d f ~ ~ ~ T U i a a ",
"*.s.B.=X0X.XyXKXKXKXPXKXPXKX;XL.T.E.1X^.7X).)._.).7X/.4XgXzXMXHXNXlXmXLXIXIXIXUXMXkX4X(./.7X_.).)._.).).).).).).).)././.7XzXNXbX:X&XT.T.H.a.} h ^ E E T E E ! a ",
"o.o.x.=X X0XFXSXAXHXKXPXLXSXvXT.R.:X1X^.2X^.7X2X).7XgX/.gXlXUXUXNXgXlXNXIXIXUXlXgX4X(./.).)._._./.7X)._.).).7X)._.)./.).7XkXsXR.J.J.B.A.H.B.+.h T E [ E E q i j ",
"f Z S m.[.{.iXFX:X!.gXUXLXJXiX&XR.1X1X^.).7X4X7X7X4X3XgXkXMXIXMXgX4XgXjXMXUXNXgXgX_._._.).).)././.)._.).).).7X).).).^.7X9X1XR.T.n.n.J.%XT.a.C 8 s q T T T 0 0 p ",
"r 9 Z u.=X].a.>.=.>.!.PXKXLXVXrX*X8X9X(./.gX4X5XgXzXmXUXHXUXhX3X3X3X6XgXlXlXzXgX_./._._.).).).)././._._.).)././.).).~.W.Y.Y.T.T.%XT.B.B.H.s.B h 0 0 s i i 6 5 = ",
"w 9 V x.T.a.@._ T H W.PXPXKXCXiXvXDXAXhXgXgXhXlXkXmXHXHXmXkXgX(.3X3XgXjXNXjXgX4X/./._._._.).).)././._._.).)._./././.~.Y.Y.K.J.J.n.T.H.H.s.C k / ! T E 0 = = < * ",
"9 d &.B.;.+.| ^ Y ! gXHXKXKXKXvXVXSXKXMXkXlXMXHXHXHXHXHXjXgX(.gXkXMXAXUXUXlXgX(.2X)._._./.).).).).).)._.).)./.(.(./.7X1XR.J.J.J.T.J.K.c.;.&.| _ ^ ^ [ p 6 6 5 & ",
"Z } s.:.} j _ ~ U [ 4XUXUXPXKXCXvXCXKXKXNXlXAXPXPXPXPXHXjX6XgXmXIXPXHXPXPXMXgX4X/.).).)._._._./.).).).)._._.(._.(.4X7X7X1XY.n.J.].n.J.H.a.,.O.` ^ _ ! w 6 9 & * ",
"d :.=.f r Y R ( [ [ <.lXPXPXSXZXZXGXKXKXMXkXmXUXLXPXPXHXjXmXMXUXPXPXPXPXHXHXNXgX/.).).)./._._./.)./.2X(.(.gXkXgX5X5X9X7X1XY.J.T.K.J.K.K.K.p.} _ ~ T j s w 9 5 = ",
"d ,.*.f 0 q ) W W [ $._.lXMXHXnXSXJXLXKXNXjXlXJXPXPXPXHXNXHXPXLXLXPXPXPXPXPXUXzX2X).7X)././._./.2X4XgXgXlXNXUXNXNXMXNX6X9XR.T.].K.J.J.n.K.Y. .| ~ R ! ~ w e a T ",
"d d ,. .e Y R Y - ; [ $.U.(.AXvXSXJXPXKXnXgXjXMXPXPXPXUXGXKXPXLXLXPXPXPXPXHXHXkX4X/.^.)././._._.(.kXUXMXUXPXUXPXPXPXHXbX8X>X&X;X;X%XJ.A.].&Xo.} _ E e e _ _ ) ^ ",
"2 7 ,.#.w ^ ( Y - U Y W ) $.'.1XbXKXKXMX6X3XkXNXIXPXPXPXPXPXPXLXLXPXLXLXLXLXHXmXgX7X4X_.4X_././.gXMXUXPXPXLXPXPXLXPXPXPXDXFXrXvXeX-X].].wXwXv.C } / Y e T ^ ! T ",
"7 g ,.Z a R ^ T T ; I I W [ | N.8XAXHXlX2X3XkXHXPXPXLXLXPXHXPXPXPXUXLXLXLXLXHXUXlXgX3X(.4X(.4X3XmXLXPXPXLXPXLXPXPXHXHXPXKXDXVXVXiX].eXtXtXtX=Xp.B f e r i ^ _ j ",
"d B s.Z Z ! ! ~ E E R ` ` ` ( *.1XAXMXkX(.(.gXMXPXLXLXLXPXKXKXMXgXW.P.nXLXLXPXIXMXlXgX3X4X3X5XjXHXPXPXHXLXPXPXUXlXkX9XkXbXvXFXiXeXeXaXtXtX0XA.m.o.f f w q ^ ! w ",
"d +.v.r.Z Z ! ! q E R ' ( _ } ,.bXDXkXgXgX(.(.lXPXPXPXPXKXMX3X<.=.H m P G.nXIXMXmXIXNXgX5XkXNXAXPXPXPXPXLXLXIXP.>.F.2.N.s.U.1XiXeXsXsXwXS.C.Z.f.&.Z h e a T j h ",
"d &.v.b.u.-.Z w r ! Y } | | *.Y.NX8X7X)././.gXgXUXLXPXPXKX2X$.O.O.$ n X @ G 3.P.jXIXPXHXHXPXPXPXLXPXLXLXGXGX|.P # H $.$.$.$.:.U.R.*X;X0X XC.Z.g.e.S Z ! ! T j j ",
":  .u.J.=Xv.H d 8 Z B &.:.s.T.1X8X6X7X7X7X/.(.kXUXLXLXPXbXU.$.$.+.$ m G G G P cXIXHXKXKXPXPXPXLXLXLXPXLXcX|.7.J @ % $.{ Q Q _ k C -.B.;X=XS.S.V.g.r. .B ! ! e a ",
"2 g +.t.A.T.w.M M &.s.T.*X&X*X*X9X2X2X/._.(.(.lXHXPXUXmX~.U.<.$.3 O   o P 3.P !.MXIXPXHXHXPXLXLXLXPXLXGXfX7.F c G . [ Q I W ' ~ f } -.v.0X XS.D.l.f.;.Z / ~ T T ",
", 3 d n L K.u.w.x.x.K.J.].J.K.v.E.1X7X7X(.(.gXMXPXPXHXbX`.U.<.%.> A c       # 3.gXUXUXHXPXPXLXLXLXGXLXcXG.F c v # . [ Q I W W Y e !  .w.n. XS.D.d.g.e.C Z ! ' ) ",
"2 2 1 3 V z.z.l.h.f.b.b.n.K.n.H.Y.`.2X7X2X4XgXHXHXHXIXjX`.U.<.#.K P G J F + x P >XgXjXmXUXUXPXPXLXGXGXG.7.z c m . $ Q Q I I I Y r f k B r.}.[.V.j.k.g.;.H / ~ R ",
"2 3 < 3 N r.g.f.f.e.u.v.n.K.n.H.a.,.E.~.6XQ.jXHXPXPXIXgXQ.U.3.H P G.G.I.J F G I.|.fXgXgXhXNXUXPXGXZX|.7.b z v v . R Q Q I Y I I ' h w Z ;.m.}.C.k.d.k.u.-.@./ ~ ",
"7 1 7 1 4 M K H M M C ,.a.H.a.p.+.&.Q.:X:XhXAXPXPXPXIXlXzXW.F.I.P.cXGXGX|.7.7.I.|.jXgXgX3X6XUXIXnX<XG.b z b z . r R Q Q I U I Y j 9 9 3 N e.}.C.V.V.k.g.u.@./ ` ",
"u u 7 1 2 2 > 3 g h g B &.p.,.N C F.:X:XjXAXPXLXPXLXPXMXMXgX!.<XcXGXGXGXLXcXP.|.fXGXmXgX5X4XhXHXnX|.7.F X z   4 / Q Q Q I Y ' ' ! 8 2 3 n L $XZ.k.j.j.z.-.B e ! ",
"s y 8 5 = < t 1 g g h u g k g N &.>XiXrXAXKXKXLXLXKXPXPXPXHXnXnXGXLXLXPXLXLXLXnXIXPXlXzX/.4X3XmXGX|.7.J X     > j R I I W W ' ( ! f n V e.z.Z.V.j.k.k.g.;.k ! i ",
"a a a a 0 u g t 1 1 < 5 < d g +.R.8XVXxXDXKXKXJXDXPXKXPXPXPXLXLXLXLXLXLXPXLXLXLXLXUXlX7X/.).3XjXnX|.7.J O G G . = R ' Y W ' ( q ! B t.h.g.k.V.0.j.k.k.y.-.B _ T ",
"a s T k p p g t t t 5 u 1 7 7 B >.Q.sXiXVXKXKXvXZXJXKXPXKXPXLXPXLXLXLXLXPXPXLXLXLXNXgX(.)./.(.gXnXfXG.J x x 4 > = U ' Y e r e / k p.c.g.k.j.0.0.j.k.g.y.&.k / [ ",
"a a / k h p g y y y t u < 7 7 8 B +.:XvXVXCXCXvXxXCXKXKXLXKXIXPXLXLXLXLXPXLXLXPXPXlX(.(.)._.(.3XnXcXP.7.m . O t 8 e Y r 9 8 k k H Y.b.k.k.0.0.V.j.k.g.6.H k j ! ",
"T ! / h p y y y p p p 8 w w w w h k s.sXvXVXxXVXCXvXSXKXKXAXIXIXPXHXKXPXPXPXPXUXkX5X/.^./.(.(.3XmXPXnXcXI.O > g f r - - f U.`.3.W.:XK.g.d.d.V.V.j.8.g.6.N k k j ",
"T j j h h h y j j a ! e ! T ~ T U T H R.rXVXCXJXCXCXvXDXDXmXvXUXPXPXPXKXPXPXNX5X3X~.^./.~.(.(.6XmXIXLXLXIXi.3 p.:.j a #.'.~.~.~.~.~.].l.k.V.d.d.8.g.g.i.H h / k ",
"- - 0 y p s T R ^ [ ) Y R Q ` [ [ [ k B R.>XSXCXCXCXrXjXvX8X8XbXAXHXAXNXNXjX:XE.Q.Q.~.~.Q.~.2X5XmXKXPXKXHXmXQ.!.W.$.:.`.^.^.~._.^.dX=Xl.k.d.l.d.k.9.y.t.H a j ! ",
"; i a j a T _ [ ) ` Q ` ] ] Q Q [ [ k $ i.<XCXGXCXZXrX&X:X>X,X,XjXbXvX>X>XQ.L.W.'.~.~.W.W.(.5XkXAXHXPXPXPXPXUXlX(.'.`.).^.^._.`.^.1Xb.g.k.j.d.g.g.6.L H g j l j ",
"E E U ^ ) ) { ) ] X.( Q ] ` W Y W _ } . t.>XSXCXVXvX,X&XL.&X&XL.L.:X<XI.:XP.R.E.E.(.!.i.F.4XzXNXKXKXIXPXPXKXPXHXzX3X7XkX7X7X^.^.^.E.m.d.g.k.f.e.S n 3 4 1 d j j ",
"E i Q [ W [ ) ` | ] ` ( | ` ` ' Q ` } : I.vXCXCXiXeX&XJ.K.L.i.6.A g.q.L c.L.L.:XQ.Y.>.H L.6XlXHXKXPXPXPXLXJXLXKXmXjXlXbX9X2X^.1X^.dXh.f.g.e.L K M 3 4 1 < 8 j a ",
"U R [ [ ) ) W _ @.:.| | ( ( ( X.` ` @.+.:XCXCXxXrX,X%X].L.y.L c o z z z L |.L.R.H.m x J >XlXAXPXKXKXPXJXCXSXKXKXKXKXDXAXkX2X1X1XE.B.r.e.L V n d 3 2 1 < < p ! E ",
"R W Q W ) ( q ! ..N.*.} f } ....:.=.s.R.CXBXxXyXeX&X].K.y.9.b z b z z z G g.<XK.i.D v L <XnXPXJXPXLXKXVXBXVXCXKXKXKXKXSXsX2X:XE.N.*.o.Z N d 3 d < 2 1 1 5 p T T ",
"W E R ) ` ) q j B s.a.S S ;.x.T.%XB.;XaXVXaXeX,X-X].J.b.6.A b z z z z z c z.{.}.y.m c J |.KXLXLXJXKXCXvXBXBXVXCXGXKXDXDXeXK.m.h.w.C B Z B g 7 7 < 5 7 < = w T i ",
"E U U R _ ) q ! k -.&Xx.h.[.=X[.0XwXeXpXyXuX{.}.].].b.z.9.6.b z z z z z b }.}.{.}.7.c J |.SXJXJXKXSXBXpXpXpXBXxXCXCXpXrX].l.g.l.q.V Z 8 y h d 7 5 6 5 5 = u a s ",
"U E 0 a ^ e q a H &.%X{.[.oXXXoX0XqXqXtXoXZ.l.l.l.A.Z.z.j.A z o z o o z A @X.XuX#XL v J <XBXZXKXJXBXpXBXpXyXpXyXBXyXuXqXZ.j.j.9.6.V N y y d 8 y 6 5 = p p p p u ",
"s s - - w i s a h B h. XqXXXXXXXS.XXS.C.Z.k.8.k.j.l.V.l.Z.8.A b D o o v 6..X.X0Xz.m O m {.rXrXVXCXBXpXpXyXyXtXtXtXqXqXXXD.d.j.k.6.V g 7 d h & h p 0 = a s u u t ",
"5 5 = 5 6 s a j p k L =X.XXXXX@XS.Z.Z.j.d.k.8.j.j.j.k.Z. X[.}.l.6.D D A l.0X=Xh.S : . : c.;XeXpXpXBXpXtXOXOXoXOXoXoXoX@XV.V.j.g.K n 3 3 7 9 5 p p 6 0 a p 5 < 1 ",
"7 < 5 = 6 6 8 p p g M y.].A.{.[.A.A.Z.V.k.k.k.d.8.g.l.Z.A.-X0X[.m.z.].b.[.{.m.;.B B M M ;.b..XeXtXyXtXqX+X+X+X+XoXoX X@Xd.j.k.e.S n 3 t 7 < 5 u 6 6 u y h t 1 1 ",
"u 5 = 5 7 5 & = y y d 3 V S K h.A.n.b.l.l.f.9.f.y.6.q.L ;.f.[. X.X0X0X-X{.].L n d 8 7 d 3 L }.@X XoXOX+X+X+XXX+X+X+X@XD.V.k.8.6.V 3 3 2 < < t t < < < < 1 * * 4 ",
"u = & 5 6 5 5 u & u 2 3 4 3 4 M V S 6.u.h.q.L S S K N 3 n S b.0X.X0X{.[.G.h.V : g g h g 3 m e.A.}.@XXX+X@XC.S.XX+XXX$X0.j.g.6.S N 1 3 3 1 t u t 1 , , , , , , 4 ",
"& & = = = u 6 s u u 9 < 2 7 t g d M Z C Z N Z d M d d d 3 3 S x.v.y.K G m m 3 > & 2 & t l 4 J y.k.j.Z.S.C.V.D.C.@XC.V.d.g.e.L V g 4 3 3 1 t t g 4 , > > > * > > ",
"* & * = u u u = < < 5 9 & 5 p y 8 h h h h p p y 8 9 9 9 7 d Z C K V 4 4 4 4 > > > > < t t g N S 6.g.V.V.V.V.0.V.D.0.d.d.f.L V 3 1 , , 1 1 t g g 4 > > # # > > > ",
"< < < 5 u 5 & % & & & & = 6 y a y y y y 8 u 8 8 h 9 & $ & 2 8 8 d t g 3 4 * > 4 > , t g l g g 3 V 6.k.d.0.V.0.V.D.D.d.9.S N 3 1 , > , 1 t t t g t % > % > * > > ",
"& , < 5 u 5 & % > % % & = 6 u 6 s 5 5 t < 9 6 8 6 5 & & $ u p w t g g t * , 1 , 4 , t t t t g 3 3 V 6.8.V.0.0.0.0.d.d.L m M g g t 1 1 1 t t * t t % % > % # % * "
};
