/* XPM */
static char *_b13e88ebd0745bdcfcace14a4bab431MeCJ0ULlWa0RFuQR[] = {
/* columns rows colors chars-per-pixel */
"80 80 252 2 ",
"   c #1C030A",
".  c #0A041A",
"X  c #170718",
"o  c #1A141B",
"O  c #2B0906",
"+  c #390A06",
"@  c #39140A",
"#  c #2A0C17",
"$  c #360D14",
"%  c #2A141A",
"&  c #361418",
"*  c #39241A",
"=  c #060827",
"-  c #180D26",
";  c #19162A",
":  c #090D30",
">  c #0D1436",
",  c #181A38",
"<  c #2B1423",
"1  c #2B1329",
"2  c #271828",
"3  c #361A27",
"4  c #251C35",
"5  c #19213A",
"6  c #1C223D",
"7  c #37252E",
"8  c #2A2530",
"9  c #23233C",
"0  c #282638",
"q  c #362738",
"w  c #450B05",
"e  c #47140B",
"r  c #4F0E10",
"t  c #471617",
"y  c #561A17",
"u  c #670E04",
"i  c #651E1C",
"p  c #53330F",
"a  c #46261A",
"s  c #4C251C",
"d  c #56261A",
"f  c #55241C",
"g  c #5B241C",
"h  c #5B291E",
"j  c #642116",
"k  c #64251D",
"l  c #6B251C",
"z  c #63291E",
"x  c #6A2A1E",
"c  c #702917",
"v  c #73261C",
"b  c #7B251C",
"n  c #742A1D",
"m  c #7B291D",
"M  c #70371E",
"N  c #491C23",
"B  c #591D26",
"V  c #681B22",
"C  c #482625",
"Z  c #4D2A23",
"A  c #542725",
"S  c #5C2622",
"D  c #542A24",
"F  c #5C2B23",
"G  c #5C2C29",
"H  c #5B3225",
"J  c #5C312B",
"K  c #4D2B35",
"L  c #5A3634",
"P  c #642523",
"I  c #6C2622",
"U  c #642B24",
"Y  c #6B2C23",
"T  c #652429",
"R  c #642D29",
"E  c #6B2D2B",
"W  c #732523",
"Q  c #792524",
"!  c #742C24",
"~  c #7B2C24",
"^  c #732D2B",
"/  c #7C2E29",
"(  c #673326",
")  c #6C3126",
"_  c #64322B",
"`  c #6C322B",
"'  c #743126",
"]  c #7D3126",
"[  c #74332B",
"{  c #7C332C",
"}  c #7A392E",
"|  c #652E31",
" . c #792D32",
".. c #673736",
"X. c #6B3432",
"o. c #6C3934",
"O. c #743431",
"+. c #7B3532",
"@. c #733932",
"#. c #7C3933",
"$. c #7C3939",
"%. c #724633",
"&. c #171D46",
"*. c #1C2443",
"=. c #1C2745",
"-. c #1C244B",
";. c #1D2A4B",
":. c #1E2B55",
">. c #1E335E",
",. c #222543",
"<. c #232A45",
"1. c #292D43",
"2. c #232649",
"3. c #232C4B",
"4. c #2B2D4B",
"5. c #382C42",
"6. c #26314C",
"7. c #2B324D",
"8. c #383549",
"9. c #232D53",
"0. c #272D54",
"q. c #253254",
"w. c #2B3454",
"e. c #25345C",
"r. c #2A355C",
"t. c #2A3958",
"y. c #2C3A5B",
"u. c #363856",
"i. c #323B5C",
"p. c #1F3662",
"a. c #263462",
"s. c #263A64",
"d. c #2C3C64",
"f. c #2C3C6A",
"g. c #333D65",
"h. c #4D3647",
"j. c #443D55",
"k. c #3A415D",
"l. c #2C4165",
"z. c #2C426A",
"x. c #384567",
"c. c #33446B",
"v. c #2D4A7C",
"b. c #364A74",
"n. c #3C5279",
"m. c #4A455B",
"M. c #534656",
"N. c #784A48",
"B. c #79504B",
"V. c #434868",
"C. c #4E5472",
"Z. c #47567A",
"A. c #675265",
"S. c #756572",
"D. c #85251D",
"F. c #86281C",
"G. c #8C2A1D",
"H. c #96291C",
"J. c #A82A1D",
"K. c #B62F1F",
"L. c #882622",
"P. c #832C24",
"I. c #8B2C24",
"U. c #832E2A",
"Y. c #8B2E2A",
"T. c #942D24",
"R. c #9B2D24",
"E. c #922E29",
"W. c #9B2D29",
"Q. c #833126",
"!. c #8B3125",
"~. c #83332B",
"^. c #8C342C",
"/. c #84392E",
"(. c #8B392E",
"). c #943224",
"_. c #9B3225",
"`. c #93332C",
"'. c #9B342C",
"]. c #94392D",
"[. c #9C392E",
"{. c #843631",
"}. c #8C3531",
"|. c #833A33",
" X c #8B3A33",
".X c #843839",
"XX c #8C3D39",
"oX c #933531",
"OX c #9B3632",
"+X c #933A33",
"@X c #9B3B34",
"#X c #993C3A",
"$X c #A72D24",
"%X c #B32D22",
"&X c #A33225",
"*X c #AC3325",
"=X c #A2352C",
"-X c #AB342A",
";X c #A33A2D",
":X c #AC3A2C",
">X c #B33325",
",X c #B8362A",
"<X c #B43A2C",
"1X c #A23632",
"2X c #A33A34",
"3X c #AB3B32",
"4X c #A33D39",
"5X c #AA3B39",
"6X c #B33B33",
"7X c #B63833",
"8X c #BB3B33",
"9X c #C4301C",
"0X c #C4382A",
"qX c #D13A29",
"wX c #C33B32",
"eX c #87443B",
"rX c #99423A",
"tX c #B5402F",
"yX c #A7423A",
"uX c #B64238",
"iX c #8C623A",
"pX c #C24436",
"aX c #873F40",
"sX c #915549",
"dX c #885952",
"fX c #AD4546",
"gX c #936755",
"hX c #9B6456",
"jX c #A3695B",
"kX c #A37C53",
"lX c #8D6F6E",
"zX c #A66F66",
"xX c #AB7166",
"cX c #B8776A",
"vX c #B87C71",
"bX c #C27E70",
"nX c #B78C55",
"mX c #BA8870",
"MX c #CA9769",
"NX c #324D82",
"BX c #3B5786",
"VX c #475A86",
"CX c #485E8E",
"ZX c #566688",
"AX c #4E6994",
"SX c #496798",
"DX c #546C97",
"FX c #6077A3",
"GX c #8B768A",
"HX c #6F84B2",
"JX c #9F899E",
"KX c #CE9B90",
/* pixels */
"Z C 7 * * a a J _ _ ..J J L D L J o._ _ _ H R ( F F ( ( U P P F ( _ _ _ o.J D Z J Z J G _ _ _ ` O.O.I y f y E ^ E T Y U U Y R ) Y ' M z h d s s s f U Y F h h d ",
"Z Z Z a C Z Z J _ .._ J J D A D G G X._ _ H U R U U ) h Y I ` G F o.o.....J D Z Z Z D J _ _ _ Y E ^ U y g g Y E E R ( ) [ [ ) [ ' [ z h g d d s f g R R U U H z ",
"D Z Z 7 * a A J _ o.J G D s D G S E E E R G P P E O.$.^ P U _ D _ X.X...| G A Z Z Z a Z D G R E Y ! g S z g k E ` ` ) ) ' M ) ) [ [ Y h h h R h z R ) Y x h h F ",
"Z Z Z Z C C A J .._ ..J J J h _ ) ^ O.O.E P E P ^ ^ ^ $.^ ` H D G F G _ _ F f Z s Z Z D D G R ' ' ) S P R x k ` Y [ [ ) [ [ [ ( U _ U P h R U z ( ) ( ( U S d S ",
"D Z Z D D D D G G R R G R _ S _ ) [ ` E  .E g ` ] [ Y [ +.O.) S D f h _ o.` ` ` g F D H _ R +. .' Y P G k x U z z ( ( h ) O.E S G G G f S U ( z ) z H z ) z S R ",
"J H G D D G F R _ _ U G F F _ X.E E [ O.+.+.E Y [ {.O./ ~.+.` S D G H D S R E E P P d S ( ^ ^ Q W l k I x j j x z z U h U ` | F A A A D h _ ) ) x z h z U U F ` ",
"J J _ ` ` ( Y Y ` U P R R A F G B [  . ..X .Y g Y / {.oXoX}./ W _ o.o.` R O.+..X.X .O.O.$.sX.XaXU.Q Q Q m c m P./.' U h S T X.G A Z D D H H @.[ [ x M ) z U U _ ",
"F S U o.@.) Y ` ' k U R R T G G T B  . . . .S D g P P i Q  .O.N t & $ $ $ $ y B B B t t $ w r t T B W k P Y [ ! m l e @ P P E R F J G J H _ ` [ eX' ' n x U z z ",
"` R ) [ +.k U [ [ g E | | X.| T U P I Q  .^ C N # % % % % % < 1 < 2 2 4 2 2 3 3 2 3 7 < 2 2 8 < % < 3 3 3 & # B ! Y $ & Y ~.' ' R _ ..o...) @.#.|.~ ~ / ! x ! ] ",
"E [ [ [ [ x Y Y ` Y O.E ^ O.T T P I W ~ Q B $ 2 2 8 8 8 0 8 4 - , 9 1.9 1.1.1.0 0 , 5 0 0 0 ; 0 9 0 0 0 ; 2 # O W c t N.y eX(.F.[ ` ( ) o.` +.|.~.~ /  X~.! ~.~.",
"] { ' k x U Y U R R O.| O. .T T W / ~ U.+.t 3 q 9 , 6 5 9 , ; , 5 9 7.4.7.7.9 1.1.5 5 5 ,.,.,.1.1.1.1.1.0 2 # e m m f %.e  X+X!./.' U O.@.! [ { {.U.+X+X X~.] Q.",
"] { ' x P P R F E E X.$.O.+. ./ U.Y.Y.P./ y < 0 , , *.=.6 9 ,.,.*.,.w.=.<.w.,.2.9 <.7.0 7.,.3.<.5 ,.7., ; < r {.;X).y _ w /.rXyX+X~.' ' ! [ +.] Q P.oXoX+X!.(./.",
"~.|.[ Y U S F S R T X.O.| {.{.{.Y.E.E.T.E./ & 2 ; , *.=.2.,.4.4.;.5 *.*.;.*., ,., ,.,.7.6 6 4.6.<.6.6.0 8 $ `.6X>X_.y %.w XX@X;X@X X~.] Q.|.+X{.Y.P.+X@X].^.(.Q.",
"{.{.' h F F G G R T E ^  . .U.}.E.E.R.$XR.oXS % ; , =., 3.=.3.3.;.=.=.2.q.3.2.*.,.*.=.w.=.*.3., 6.7.7.1.# [ 5X0X>X_.u F + /.@X;X].+X(.+X+X+X+X`.^.+X`.@XrX+X].Q.",
"{.+.R F D H G G o.O.O.E / +. .}.oXE.R.R.$XW.}.t 2 9 ;.> *.2.*.2.t.=.*.*.=.;.=.9.q.9.q.y.q.3.t.*.u.7.u.3 y 4X*X,X8X&Xr H + .XyXOXE.OXOXOXOX@X+X`.@X[.@X].@X+XP.~.",
"+.+.) _ D h S R E E O.^ [  .U.{.}.Y.T.R.&X$XE.O.% 0 <.t.=.;.*.0.3.0.0.r.y.w.y.;.;.d.i.y.q.y.i.i.V.V.8.$ U.<X>X*X>X).e s O XX#X'.E.E.5X5X'.'.yXOX@X@X+X+X`.U.~.}.",
"+.+.@.@.R S F R _ Y [ O.{ +.^ ~.~.U.Y.I.&X$XW.{.3 4 6 q.3.3.9.0.-.0.t.q.r.g.g.y.;.-.x.y.a.g.g.V.g.V.2 & @X,X*X$X-X`.e a O $.@X3X1X1X5X2X'.OX@X@X#XXX{.{ ] { [ ] ",
"$.$.#.#.O.Y U U R O.O.+.+.^ Y ! { +./ P.L.T.W.Y.J < 9 2.q.q.r.r.e.9.e.r.i.y.9.0.q.y.q.y.r.g.V.V.j.8.% ` '.$X-X$X$X^.+ & O +.+X2X1XOXOX`.T.oX+X X{.+.O.` ` Y ! ! ",
"#..X#.O.} [ [ E E $.+.^ +.{ Y Y E Y Y I Q b L.Y.^ $ 4 2.-.f.c.f.e.:.:.e.d.r.e.r.f.d.d.a.r.g.V.ZXC.5.& eX!.R.-X&X_.Y.+ s + $.{.^./.{.~.] ~ |.#.} +.X.o.O.O.#.~.~.",
"{ {.{ } [ |..X{ E O.^ +.{ { ^ Y x g P P I W b W E A ; <.e.f.b.>.s.e.d.e.a.g.c.l.d.f.d.e.:.q.ZXC.V.4 y XXE.E.&X-X_.!.+ D + #.+.] [ } ' ) ( [ ) [ ` ` ` o.O.{.~.~.",
"{.{.{ $.#.#.$.$.O.[ +.^ ^ / / ^ x j k P W / P.W R & ; =.a.a.a.f.s.e.s.l.c.c.y.z.x.c.l.:.a.V.Z.C.m.7 ! '.'.R.W.3X<X].+ Z + #./.' ( R R F ( ( ) @.` o.` O.|.{.] U.",
"}. X/.~.~.{ } |.$.+.+.Y ^ +.+. .{.~ ^ / / }.Y.i D q 8 =.a.>.f.f.s.z.p.z.z.c.l.l.e.>.f.z.f.g.Z.C.0 & ].:X$XR.W.=X;X(.@ L e @.} ' Y J R S F U R U R O.O.O.$.+.] ~.",
"}.XX}.~.~.{ } #.{ [ ` U U O./ / P.`.Y.Y.Y.Y.I.W & h.j.= -.:.p.p.a.a.s.v.b.n.l.l.>.a.z.c.b.Z.ZXV.q t '.8X3XH.H.R._.M + L @ @.} n ) ) ` F U ( R R U ` ` ` } { } } ",
"U.~.}.}. X~./.|.[ [ Y P G U { ~.oX'.).'.D.D.W.{.N % . = :.f.f.f.f.f.a.c.z.f.z.f.z.f.a.c.Z.ZXVXk.q O.yX,XJ.H.H.R.!.n @ J + ` eX] ' [ @.[ Y [ [ ` R R S S U R [ [ ",
"Q.P.oX#X#XrX+X{ +.[ ( S h g ! |.}.Y.E.L._.)._. XK - 8 = &.f.a.p.f.f.s.f.s.l.s.l.b.b.z.b.Z.VXVXk.7 O.7X9XK.J.J.$XG.eX+ L @ ` |. X] ] /.|.] / ! ` ( h f h F _ _ ( ",
"+X}.#XOXY.Y.}.^./ { ( h h U Y ~.U.b D.G.;X_.).Y & 4 7., : f.a.a.z.s.a.r.y.x.3.x.b.c.c.b.VXZXVXu.t {.8X0X%XJ.$X'.c z $ %.e O.~.`.Y.Y.Y.].+X~.v Y P h D S F F R ( ",
"oX+X+XoX^.}.^.U.|.{ [ Y [ [ ] ~.n D.L.G.&X_.(.$ q w.=.*.: &.a.a.a.e.e.i.7.0 1.u.4.u.w.y.Z.n.V.8.B 5XwX,X%XH.Y.P O   @ B.y sXOX=XW.'.=X'.!.P.U.! Y U U U F S P S ",
"oX^.^.^.}. X XP.|.{.] ~ / ] ~ v m D.I.D.&X;Xy % j.t.-.;.: : a.a.a.;.,.0 7 % * * 2 2 4 u.k.t.x.h.Q $X%XJ.H.Y.V # 7 X   %.y }.1X>X-X&X'.OXE.P.~.! ! x I Y U R S S ",
"oX}.^.~.~.~./.~.~.{.~.P.oX}.U.P.F.'.).G.*X@X@ 0 4.q.2.&.&.: 9.0.5 . o O p p %.p @ O   . = j.f.1 E.wXJ.H.Q B & 5.8.j.  N.V +X;X-X-XH.R.'.I.b ! ! x P x I Y Y P g ",
"U.}.Q.~.~.] ] ~.|.] Q.U.oXoXI.P.`.).R.H.*X[.@ k.t.0.9.9.:.&.= = = 8 S.O M nXnXnXiXp lXA.1 - 1 B fX0XJ.L.S # 5.i.x.g.< B.P ^.).-X&X=XW.T.!.~ ~ Y k x k I I U S g ",
"{ ] ~./.~.P.Q.~./.~ ] {.}.U.P.P.I.)._.R.,XyXN 2 k.g.;.:.&.2.= 9 m.o o @ M nXMXMXhX@ 7 h.h.h.r fX7XJ.W.W # 8 1.l.b.u.2 B.S } !.).'.`.`.Y.`.^.~.! I x I x x k k g ",
"{ /.~.~.Q.U.U.] ! ] { ] ~.}. X^.`._.'.-X,X5X{.# 8.w.r.9.9.&.: = : - o o p p iXM & O - = - | r 5X7XW.U.r 2 <.y.c.l.i.2 B.S ] G.F.F.I.`.E.oXY.Q.W ! Y Y k U x P P ",
"^ / }./ ] / ~ ~.! ] ~ ~ Q.^.].^.`.[.T.3X7X8XyXP < 7.0.-.&.&.= : 4.2.u.4.0 q K q 8 5 ,.4.9   V 5XW.Y.B 1 7.q.l.z.z.l.7 N.W ^.;XH.H.G._._.).(.!.P.~.~.! ! ! Y x Y ",
"] |.XXQ { ~ ] / ~ ] { U.}.+X^.^.`.I.I.1X8XwX<XyX$ q 4.9.:.&.: -.a.e.c.c.y.i.k.V.y.t.d.x.g.. r .X}.V # 2.w.l.b.b.v.x.7 B.V rX<X>XJ.&XyX[.].).(.(.^.^.Q.Q.' ! I ! ",
"+.XXXXU.~ ~ Q.U.~ / Q./ ^.+X^.+X^.`.!.'.6X7X8XuX X$ 8.q.-.&.= &.r.c.b.f.n.l.l.c.s.z.g.CXV.= $  .| & 4 -.t.f.VXv.v.n.7 B.n yX>XK.%XJ.*XR.I.P.m ] !.^.`.Q.x x x x ",
".X X}.U.P.~  X^.~ ~ / / U.Q.P. X^.^.^.'.1X7X8X,X[.y 3 ,.2.&.= > 9.b.b.Z.z.l.f.b.b.b.c.VXV.= 1 L 3 - 2.0.c.NXVXBXNXc.q ..y ].tX0X,X,X<XR.).!.n m F.].].m n x x j ",
"XXXX+XXX/ P.^. X^.P.] }.^.P.Y.oX#X X^.`.R.1X8X-XJ.F.@ q ,.*.= > ;.f.a.f.y.z.y.z.b.c.x.C.g.. X 2 , 4 3.r.n.VXn.NXNXx.o * O e _.,X0X0X*X&X_.`.Q.F.!.].] M Q.Q.x x ",
"+.^ / ~. X^.^.^.+X}. X X^.^.oX}.^.}.~.P.I.R.6X8X,XtXU 2 1.0.> > ;.;.t.y.y.>.c.b.g.b.g.g.i.= = 9 , &.=.c.n.CXDXSXBXb.. S.lX+ u <X0X,XJ.H.'.).@X].[.].F.c ] /.n x ",
"D h k Y ! ~.Q.}.oX+X+X^.U.}.+X^.^.(.~.^.T.T.7X7XwX6X}.t 4 4.6 > ;.y.q.9.t.t.t.9.r.y.w.x.*.= ,.<.=.q.c.f.n.AXHXFXSXn.. S.KXw u ,XtX>XJ._.).F.@X;X'.).Q.c c Q.Q.! ",
"D h P Y ] }.+X+X+X+X+XU.U. X X|.~./. XQ.L.-X3X7X7X8XOXr 1 ,., : ;.=.t.r.r.t.i.g.x.;.6.4.: = 2.4.w.g.y.Z.AXDXFXFXDXx.8.# @ w tX,X>XK.tX&XG.).).G.).[.(.~.(.Q.' ] ",
"h H U Y ]  XoX+X+XXX~.Y ! } #.! ~ ~ Q.G._.;X-X<X8X-X$XU.# 4 ,.= *.-.0.:.6.y.k.q.;.t.6.=.= > 0.3.m.i.V.Z.C.ZXC.C.C.M.K ..U P.uXqX0X0X<X-X_.R.T.F.'.@X(.~ k x x ! ",
"h z k Y ! /.}. X X} ! x U Y ` ] ~.Q.F.G.H.H.H.H.<X*X&XY.$ 1 &.: > 9.&.-.t.y.t.y.w.6.k.7., u.3.4.4.u.j.h.q < C K A h e #.} P.,XqXqXwX*X&X:X;X[.`.`.!.~ n x k k ! ",
"k z Y [ ] / ! ! ' x x ) [ ' ' ] ^.T.D.D.G.G.R.'.H.&XH.I.E # , &.&.&.=.0.2.6.9.u.6.6.5 =.9.6.2.,.4 3 $ T ~ `.uXpXuXpXH.rX] m ,XqXwX8X&X_.3X3XOXOXP.v c ! ' x i W ",
"[ ' ! { |.|.' Y U Y Y } ' x ! ~.Y.OX'.`.@X].!.F.G.G.H.).{.$ 4 &.2.&.2.&.3.&.,.2.5 <.5 =., *.4 2 < B Q #XuXwXqXqXpXpXJ.rX[ b 7X8XwX6XH._.'.W.T.!.Q.m ! ~ ~ ! W / ",
"} { ! ] {. X+.} [ Y Y Y Y Y ! Q E.1XOXE.P.~ ] m F.G.G.G.oXy 1 2.2.-.-.;.&.5 2.2.=.5 , , &., X $ B U.E.$X*X,X,X,X,X3XI.eX} v 3X:X6X;XT.'.'.`.^.Y.+X^.~ ! / U./ {.",
"{ |.} /.^.}. X|.{ Y Y ! ! ~ ~ L.L.1X5XOX!.P.P.Q.I.D.G.H.E.Q $ 1.4 &.5 > > > - , , 9 , > , - $ E P.T.$X$X,XJ.K.J.*X=XP.|.o.y +X'.'.2X`.).`.!.P.!.I.`.P.P.Y.Y.Q.U.",
"Q./.] ~.^.}. X/.! ! W ! ~ / Y.OXOX1X1XW.'.!.!.I.L.E.H.H.$XL.w % 2 9 , , ; . 2 ; ; . ; ; , X V L.G.H.%X>X*XJ.$X-X-X'.~ $.@.y  X`.`.rX XP.P.U.Y.!.E.@X+X`.).`.^.P.",
"~.(.~.(.^.^.{.~./ ! W / ~.P.Y.+XW.1X'.OX@X`.T.I.D.L.H.>X>X<XU.y < X . ; = m.GXJXGX2 - - % N L.H.$XJ.,X>XJ.=X3X'.'.`.! [ X.e |.Q.P.Q.~.~.^.!.}.^.OX@XOX'.OXOX^.Y.",
"(.|. XQ.(.(.{ /.U.~.Q U.}.Q P.`.1X1X`.`.!.Y.L.I.G.R.,X,X,XK.>XI.R % . o C.S.S.GXGXlXq O X.XX-X%X%X>X,X-XG.].^.^./.~.U ` o.e #.] ~ ~./ ~ +X@X`.`.'.2X'.`.2X2XOX!.",
"/ ~. X/.|.~.] ~.}.{.U./ U.P.P.).5X1X`.`.Y.`.'.R.$X-X,X9X9X9XwXR.P % X m.M.C.m.M.A.S.S.7 B / uX8XwX,X*X;XI.^.P.~.] ^ Y @.N.w } ' .X{.U.U.4X5X4X2X1X5XOXOX#XyX#X!.",
"/ {.{.] ] { ~ { {./ / Q / P.I.OX4X1XOXOXOXOX;X:X%X,X9X9X9XqX7XsX@ % o m.m.8.m.q 5 8 q q # O ] uX7X$XH.&X'.oX X] ' } R o.B.t +.|.{ {.+X@X4X2X1X3X5X5X2X+X].+XrX(.",
"{ {.] / ] { { {.U.~./ P.~ L.Y.E.4XOX#X1X#X)._.:X>X,X,XwX8X7X}.w h.o o ; - ; . = . = = ; o o $ Y fX=X$X&X3X'.^.(.] ' h ..N.t +./ ~..X+X@X#X'.OX5X5X5XOXE.^.^.(.|.",
"/ / / ~ { { / U.~.^.P.Q.Y.Y.'.OXOXoXOXOX`.I.T.T.<X,X7X1X}.V # < 8 8 5 ; 6 ,.6.*.3.<.=.6 6 ; 2 * S }.'.7X,X>XH.`.F.! U e y t [ / { ~./.(.+X`.OXOX#X4XoXY.}.Y.~.(.",
"] / / ^ { {.Q U.^.`.Y.Y.Y.`.4XOXoX+XOXE.I.D.m b oX#X .r t q q 4 8.1.6 0 7.=.t.t.=.=.<.7.6.6.0 0 2 t I ).6X<X*X_.].(.R t L t E [ ] ~.^.^.oX`.`.OX+XoXY.Y.^.}. X+X",
"! ' [ { +..XoX#X4X1X'.`.`.).OXE.].@XoXL.m b l k | N 3 5.u.u.0.g.6.l.<.<.=.u.t.k.k.1.1.6 ;.3.6.V.k.u.% B Y [.<X<X;X(.e A D + y ) |.(.}.^.^.oX}.oXY.Y.P.Y.Y.oXrX4X",
"x Y ! ! / {.}.1X5X1X1X'.).OX#X@X].].@XP.~ Y U a < 4 u.g.a.f.a.r.6.q.;.5 u.8.0 q 8 q 8.9 6 q.y.l.n.Z.k.8.& y '.uXrXu y dXdXdXe o.{ {.~.] ^././.~.Q P.Y.U.P.oX#X@X",
"' } { x Y ! P.`.1X1X2X=X).'.4X@X[.4X`.Y.n P 3 - 0.r.a.:.:.e.9.q.6.;.4.*.8.4 3 & 8 * * 7 0 ;.q.y.c.s.c.x.u.% w  XeXw sXjXjXdX+ S Y / ~./ ~ ^ ~ / {.}.~.~ U.+X+X`.",
"' ' ! Y Y n ~ !.'.=X2X=X'.[.2XOX[.'.).I.~ y % q 4.r.a.a.-.-.;.=.5 5 9 : . # @ h H p * o 0 6 3.w.l.y.g.V.m.h.r +.I w jXhXjXsX@ w Y I ! ! [ { [ ] +.! v ! ~.^.^.^.",
"l x x ! ! n m ~.[.'.=X;X1X[.[.'.'.T.'.'.Y.V & # < ; 9 4.-.&.*.5 5 = . q h.K ( MXMXnXdX@ o ; 6 ;.t.t.1.5.% t P.+Xw d hXsXjXgXN.+ I i i x l I ! { { I I ~.}.`.`.oX",
"x ' ! ! /.n ' !.`.'.=X=X=X=X'.;X[.;X'.'.OX~ ! d y N $ 1 2 , ; ; o . . 0 K & @ nXnXnX%.@ 7 . ; 5 5 6 - 3 | {.2X@X+ dXhXsXhXsXzXr O.^ I Y Y x Y Y [ ^ { ~.^.oX+XOX",
"g x x m ~.F.Q.!.T.OX1X=X=X'.'.[.].yX'.`.`.).].].T.T.P.V $ $ # % X . . - 0 q % & Z * @ # 3 h.. . ; o $ +.#X5X+Xi + zXhXsXhXhXkXw P Y x P z U Y h j [ |.~.{.}.}.oX",
"d x n ' ~ !.(.).`.W.W.W.'.OX'.'.[.'.^.E.).).&X&X>X8X7X1XE ..A t N X , 2.u.u.0 8 q 4 2 - X 7 X X   $ T oXW.=X{.r $.jXsX.XjXhXgXw y ` Y I x Y ) P x ` { +.{ {.{.}.",
"d z x ! b m !.m !.P.D.L.'.).T.`.@X].`.+X]._.H.&X*X<X8XT.+ @ K B 7 - 4.a.c.b.c.y.u.0.4., -   & G E / E.1X=XI.{ w xXjXsXsXjXzXhX%.r } ^ x k k { ] k Y [ +.+.[ { +.",
"e d k c v m ^.b m b L.E.OXI.D.'.@X@X!.].].^.T.&X&X<X7X5Xy # & < K - r.f.v.NXz.z.f.f.V.2.X K T Y v D.T.OX'.^.g r jXxXaXsXxXcXhXsXe [ ^ x k k ! ^ k k ^ { ! ^ [ Y ",
"d h x x m ~.^.b v v Q Y.L.L.L.P.+X+X^.(.(.Q.)._.&X&XtXtXeXe 7 0 ,.2.n.NXSXBXNXv.n.AXZ., N | T ^ I v P.}.oX{ f %.hXvXN.hXcXxXsXhX$ R [ Y x x c x x x x ! ~ {.{ [ ",
"d g l j b !.Y.m v c v v Q Q ~ ~.~.Q.~ ~.~.^.).)._.&X*X:X2X! & 1.x.VXCXCXSXBXSXBXDXFXZ.2 | ^ U.Q v ! [ { ^ E a gXjXvXeXjXcXcXsXzXe y Y n x x x x Y ^ ! ! U.~ ~ #.",
"j c n b D.T.W.T.D.b ! Q Q U./ ] ! / U./ / /.}.+XyXyX_.R.&X1X/ & 8.n.VXSXSXSXSXBXFXFXt.q +.Y.).[.~.! ' [ | G @ gXzXvXeXxXcXbXfXvX..g { ~ ] ] n ' ] ~./.Q.^.] ! ] ",
"x ] !.E.W.W.&XR.I.b v ~ P.U.! Y ] ~.{.{ / ^ { /.+X+X_.;X7X8XfX+.% 8.VXAXSXSXBXSXFXVX; ..oX3X3X3X].~ Y ` o.A C B.xXcXiXcXbXMXaXvXN.y { ! m /.Q.] / P.Q.(.^.}.}.{.",
"~ ^.).E.T.$XR._.].!.D.Q.U.~ ^ [ {.XX+.^ E R ) Y ^ }.@X3X,X,X,X4XX.# V.b.VXSXFXDXDXg.K .X1X,X<X<X).`.~.[ | t %.lXvXvXsXcXbXKXsXjXdX+ [ ] ] eXeXQ.(.] ] ] P.U.^.}.",
"~ Y.oX'.W.=XT.G.[.`.F.U.U.U.^ ] eX.X+.E E ` @.[ ! / T.;X<X,X,X*XyXy < w.g.Z.VXZ.ZX1 V 4X7X%X6X-XH.T.(.{.E A N.xXmXmXhXvXcXmXjX%.B.e {  XQ.Q.!.(. X~.' M ~ P.Y.}.",
"Y.E.'.=X[._.).H.'.).E.E.W.}. X|.|..X#.O.[ @.#.} ~.#XyX;X[.tX<XtXuX^.+ 3 0 1.i.i.h.t oX7XwX8X7X$XR._.^.~.#.S t %.B.sXjXcXvXKX%.+ @ e {  X].!.!.^.].^.Q.n ] P./ ^.",
"Y.Y.W.=X_._.).].I.L.E.OXoX4XrX X|.} @.%.O.}  X(. X#XrXyX_.&X:XtX<X3X.XX.& % 8 3 $ .X5XwXwX7X7X=X'.[.!.~.{ [ _ @ e w d g U ^ e F ` M (.].@XyX!.G.!.^.(.~ m ~ ~ /.",
"v D.).1X1X'.2XOX@XP.m L.@X4XOX+X(.#.o.@.{ ^.rX[.oX+X'.'.1X3X'.R.-X'._.+XrXi + y @X5X8X<X7X7X&X).).].Q.(.~.] +X(.XX/.~.{ @.) U [ |. X+X`.`.OXOX`.!.oXP.Q.' ] { ^ ",
"l v P.`.`.).!.U.P.^.P.P.`.'.`.oX}.~.` O.|.rX@X`.].].OX2X1X5X;X`.T.'.&X;X[.rXrXrXuX6X:X3XW.T.I.P.P.Q.Q.~.] ~ ].@X[.+X~.~ ' Y l ~.}.!.`.].].[.[.'.oXoX^. X{ ! U U ",
"v l v ~ ~.~.] l l  ./ P.Y.].`.`.oX^.+.O.+. X!.F.^.^.2X5X1X'.2X@XoXOX`.`.oXoX X X+X!.Q.~.~ U.{ / / W ! ! / ^.+X@X@X^.~ ~ U.{.! ~ (.~.`.+X].].`.oXoX^. X|.} Y h A ",
"l Y x k x Y Y U k i / {.U.`.`.@XoX}.{ [ {.|.~.m Q.!.!.E.'.2X@X+X}.oX X]  X{.+.#.{ / ` ) [ O.[ ^ E E E [ ! ~.oX^.Y.U.b U.~.~.(.] ~ ~ (.].`.].+X`.+X^. X] ) S f s ",
"j x ) z z U U R f f ` [ ~.}.`.E.L.~ / +.{.~.] m ~.Q.m L.'.OX`.(.m { } ` R ) R h S R H ` ` U F _ | E _ R x ! U.U.P.^.Q.~.Q.Q.(.] ~ Q.Q.] F.(.(.^.^.}./.n z h G S ",
"k R h h ( Y S d s Z G F [ { ^.~ l ^ ! W ~ ] ~.] (.P.~ U.`.`.].~./.' ` o.G A S A R _ X.o.` R F _ ..R S h P ! U./ P.Q.^.Q.(.Q.P.~ ] { ~ n ] (.^.(.U././.[ z h h g ",
"x g d d R Y S s a Z Z Z f U } Y Y x Y x n !.eXQ.] ! U.^.`.oX].^.~ ! +.E @.E x g Y E [ O.^ ^ ` H J G F F Y / / Q ~ Q.Q.+X].Y.Q.U.! / { ~.~.~.Q.~.U.U.~ Y d d s A ",
"U y a s h U _ G a C a Z a F h x h g k l m !.!.Q.{ ' Y.Y.Y.!.`.P.P.}.+.$.+.O.) Y U E +..X! ^ o.H D H H F E  .^ W / ] Q.}.`.oX`.}.v ! ~.] c ! ~.{ Q.^.] { ( p s a "
};
