/* XPM */
static char *_7a6e8c158aa464feec32f729554f61cIjrun04CnjR3ql5O[] = {
/* columns rows colors chars-per-pixel */
"80 80 250 2 ",
"   c #1C030A",
".  c #0A041A",
"X  c #170718",
"o  c #19131C",
"O  c #2B0906",
"+  c #390A06",
"@  c #39140A",
"#  c #2A0C17",
"$  c #360D14",
"%  c #2A141A",
"&  c #361418",
"*  c #39241A",
"=  c #060827",
"-  c #170D26",
";  c #19152A",
":  c #0D1435",
">  c #1B1D3B",
",  c #171936",
"<  c #090D30",
"1  c #281727",
"2  c #361B27",
"3  c #251C35",
"4  c #2B1329",
"5  c #1C223D",
"6  c #19213A",
"7  c #242134",
"8  c #23233C",
"9  c #29283A",
"0  c #362738",
"q  c #31252F",
"w  c #450B05",
"e  c #47140B",
"r  c #471617",
"t  c #551A17",
"y  c #4F0E10",
"u  c #651E1B",
"i  c #670E04",
"p  c #4C251C",
"a  c #46261A",
"s  c #55241C",
"d  c #5B241C",
"f  c #5B291E",
"g  c #56261A",
"h  c #543212",
"j  c #64251D",
"k  c #6B251D",
"l  c #63291E",
"z  c #6A291E",
"x  c #642116",
"c  c #73261C",
"v  c #7B251C",
"b  c #742A1D",
"n  c #7B291D",
"m  c #702917",
"M  c #70371E",
"N  c #4A1C23",
"B  c #591D26",
"V  c #681C22",
"C  c #4D2A23",
"Z  c #482625",
"A  c #542522",
"S  c #5C2622",
"D  c #542A24",
"F  c #5C2B23",
"G  c #5D2D29",
"H  c #542A2A",
"J  c #5C312B",
"K  c #5B3225",
"L  c #492934",
"P  c #5A3634",
"I  c #542E35",
"U  c #632523",
"Y  c #6C2622",
"T  c #642B24",
"R  c #6B2C23",
"E  c #642D2A",
"W  c #6B2D2B",
"Q  c #662429",
"!  c #732522",
"~  c #742C24",
"^  c #7B2C24",
"/  c #732D2A",
"(  c #7C2E29",
")  c #792524",
"_  c #6C3126",
"`  c #64322B",
"'  c #6C322B",
"]  c #673326",
"[  c #743126",
"{  c #7D3125",
"}  c #74322B",
"|  c #7C332C",
" . c #7A392E",
".. c #792D32",
"X. c #6B3432",
"o. c #6C3934",
"O. c #673635",
"+. c #743431",
"@. c #7B3532",
"#. c #733932",
"$. c #7C3934",
"%. c #7C3A39",
"&. c #652E31",
"*. c #724733",
"=. c #171D46",
"-. c #1C2443",
";. c #1C244B",
":. c #1D2A4B",
">. c #1C2745",
",. c #1E2B55",
"<. c #1E335E",
"1. c #222543",
"2. c #232A45",
"3. c #232C4B",
"4. c #2B2D4B",
"5. c #262A46",
"6. c #2C324D",
"7. c #26314C",
"8. c #373549",
"9. c #232D53",
"0. c #272D54",
"q. c #253254",
"w. c #2B3454",
"e. c #25345C",
"r. c #2A355C",
"t. c #2C3A5B",
"y. c #2A3958",
"u. c #333B5C",
"i. c #363856",
"p. c #382C42",
"a. c #263A64",
"s. c #2C3C64",
"d. c #2C3C6A",
"f. c #263462",
"g. c #333E65",
"h. c #1F3662",
"j. c #443D56",
"k. c #4D3647",
"l. c #3A415D",
"z. c #2C426B",
"x. c #2C4165",
"c. c #33446B",
"v. c #384567",
"b. c #364A74",
"n. c #3C5279",
"m. c #2D4A7C",
"M. c #4A455B",
"N. c #534656",
"B. c #784A48",
"V. c #79504B",
"C. c #434868",
"Z. c #475679",
"A. c #4E5472",
"S. c #756572",
"D. c #675265",
"F. c #85251D",
"G. c #8C2A1C",
"H. c #86281C",
"J. c #96291C",
"K. c #A82A1D",
"L. c #B62F1F",
"P. c #832C24",
"I. c #8B2C24",
"U. c #832E2A",
"Y. c #8B2E2A",
"T. c #882622",
"R. c #942D24",
"E. c #9B2D24",
"W. c #922E29",
"Q. c #9B2D29",
"!. c #833126",
"~. c #8B3125",
"^. c #83332B",
"/. c #8C342C",
"(. c #84392E",
"). c #8B392E",
"_. c #943224",
"`. c #9B3225",
"'. c #93332C",
"]. c #9B342C",
"[. c #94392D",
"{. c #9C3A2E",
"}. c #843631",
"|. c #8C3531",
" X c #833A33",
".X c #8B3A33",
"XX c #8C3C39",
"oX c #843839",
"OX c #933532",
"+X c #9B3632",
"@X c #933A33",
"#X c #9B3B34",
"$X c #993C3A",
"%X c #A72E24",
"&X c #A33225",
"*X c #AC3325",
"=X c #A2352C",
"-X c #AB342A",
";X c #A33A2D",
":X c #AC3A2C",
">X c #B33325",
",X c #B43A2C",
"<X c #B8362A",
"1X c #A33632",
"2X c #A33A34",
"3X c #AA3B32",
"4X c #A23D39",
"5X c #AA3B39",
"6X c #B33B33",
"7X c #BB3B33",
"8X c #B53933",
"9X c #B32D22",
"0X c #C4301C",
"qX c #C4382B",
"wX c #C33B32",
"eX c #D13A2A",
"rX c #88443B",
"tX c #99423A",
"yX c #A8423A",
"uX c #B74338",
"iX c #B5402F",
"pX c #8C623A",
"aX c #C24437",
"sX c #8A4B41",
"dX c #885952",
"fX c #93584B",
"gX c #AD4546",
"hX c #9C6457",
"jX c #936755",
"kX c #A3685A",
"lX c #A37C53",
"zX c #AB7166",
"xX c #B87C71",
"cX c #AF7368",
"vX c #8D6F6E",
"bX c #C27E70",
"nX c #B68B55",
"mX c #BB886F",
"MX c #CB966B",
"NX c #385485",
"BX c #475A86",
"VX c #485E8E",
"CX c #566789",
"ZX c #496798",
"AX c #526B96",
"SX c #6077A3",
"DX c #8B778A",
"FX c #6F84B1",
"GX c #CDA199",
"HX c #9F899E",
/* pixels */
"a p f K  .{ ^.U.^.| b m | ^.~ Y |./.OX'.).P.P.( ! / ..W F K D K K X./ / }...W R R _ @.@.@.}.(.P.P.'./.Y.Y.Y.^ [ !.).~.b z j g l U j f a C a a a D ` T F p a d l ",
"A s g g b ^ U.U.!.^.^.^.!.^.( ~ U.~.I.OX).^.^.^ ^ ( ( Q S G K J K ` } ~ +.+./ E d l E #./ +.{ n /.@X'.'.|.~.^  .!.).^.n c R ] z R | F f D C C a p S ] T g p d l ",
"s f g l [ (./.^.|.).).{ m { | ^ ^ !.!./.!./.!.!.^ | / j S F E X.` F E ' o.` X.G A A A G X.} [ ^.^.'.'.'.P.^ { (.{ ^.!.) ~ ~ [ m ^ |.| } T D D p d d T W f f R z ",
"S K l l R (.).|./.)./.P.^ !.^.{ { ).!.^.^.!.~.P.P.^.~ Y W E E E ` T E ' ` ` T S T E X.E #.} @.~ /.'.#X].F.n !.!.b { (.(.@.( ^ n '.W.|.^.#.' s s E T T R l _ z t ",
"p s l _ { .X/.OX'.'.[.[.[.).^ ^ !.(.^.^.P.) Y.~.'.|.(.^ ' / W W W }  .' } _ ~ |  .|  X.X( |.OX|.@X#X2X`.W./.~.!.^ !. X}...( |.+X#X'.'.^ }.@.j u T E R z l z c ~ ",
"D F R  .(..X'.OXOX'.[.[.{.).!.).^ ~ ^.U.^ ^ '.@X#X#X!.^ ~ ~ ! ( ( | U.U.(.!.~.$XXXXXOX#X'.'.OX+X#X2X1X1X5X2X[./.H.~..X@.+.@.Y.OX].'.[.Y.T.) ( k z { ^.^.^ b u k ",
"T T ~ | .X)./.OX+X'.{.[.[.'./.|.| k z } ^ ^.#X#X+X@X^ !.^.!.!.P.I.T.R.Q.3X3X6XuXtXtXtX;X;X=X`.R._.;X4X;X2X+X'.)._.#X$X X#.} }.|.OX'.].OXP.) ).^ I.'.W.'.'.P.v c ",
"/ | | ~ !.!.'./.W.#X#X'.'.OX.X.X .T _ $.} ^.^.rX|.@X{ ^.).!.[.'._.`.6X8X<X7X5XOXy w u rX{.].=X].E.].yX=XQ.OX#XOX#X$X.X| o.o.| }.@X#X2X+XY.P.H.@X#X#X].=X=XW.n b ",
"^.^ ^ n ^ /./.~.I.I.tX;X[.(._ ' d e X.Y t g w e e T } | ^.I.{.].=X6X8XwXwX5XoX$ 4 0 4 & X.^.4X,XiXiX;X`.5X$X$XXX).). . .$.#.}  X.XtX4X+X+XY.F._.`._.`.`.1X].W.U.",
"}.^ ^ !.n { ).@X/././.[.).^.e @ + B.GXcXxXkXfXB.*.a T $.^./.`.`.&X,X7XwX8X$Xr p.l.r.5.q 2 + ~.uXiX*XiX;X2X4X$XU.^.*.#.} #.%.rX X X}.OXW.'.W.]._.G._.].].1XQ.W.I.",
"OXY.P.{ [ M ^.).)./.!.{ ). .e V.%.kXMXcXxXkXmXmXvX*.s ` }.OXR.J.:X7X>X8X5XQ 2 CXZ.BXBXg.i.1 t yX&X>X<X:X3X/.U.~ } $.' E W +.rXXX| / U.U.T.T.'.{.G._.`.=X`.'.~.^ ",
"|.).!.{ { !.{ /.^.rX).{ !.[ + dXkXsXMXbXcXfXbXcXvXB.r ` [ ^.~.`.,X<X>X3XoXN C.AXAXAXAXBXb.C.# +.yX<X<X<X3X+X(.{ E W E W / @..X^.} ~ ^ U.U.P.I.[.`.&XQ.R.Q.'.^.^ ",
"}.).)././.^.^ ^ { { (.n b ^.t B.xXrXGXbXcXsXxXcXdXZ Z o.' W ^ [.3X:X5XOXk.4 CXSXZXBXZXZXZXBX8.#  .yX7X<X;X`.{.@X^.( / ^ | }.@.( ~ ~ ( U.) v v I.E.Q.Q.Q._./.{ R ",
"| ) P.(.^.^.^.| ~ b { { ^ @.d X.mXrXbXbXzXsXxXzXjX@ S W } ~ b ^.@X`.U...L r.SXZXNXZXZXZXZXNXn.8.& | 2X-X`.`.yXtX$X.X^.{ U.( ^ ^ | ^ U.) b ! v v R.`.R.F.v c k j ",
" .^ U.^ ~ ~ [ b z z M z b W t e kXrXxXxXkXsXxXhXjXr W / | } [ m n ) ( O.; Z.AXAXNXNXZXZXZXVXNXC.p.& / 2X:X*X`.`._./.).(.!.{ { ^.{ ^ U.) b c ! c n _.I.v x x d d ",
"/ | }.( ~ z l z z m z z R } ` @ hXfXcXcXhXrXxXjX*.s @.OX|.P.b k ~ Y X.N 3 BXCXNXb.NXNXZXNXb.9.1.7 q y sX:X,X*X&X`._.~./.)./.OX@XI.) T.T.Y.v c c v /.^.) m z l h ",
"[ } / ~ / / U j ^ ~ j l k / [ e fXhXcXcXfXrXzXkXe j |.].1XR.F.c ! Q I X 9 v.x.x.d.d.NXb.d.r.- 0 2 $ # s 5X7X,X&X&XR./.[.[.~.#X#X].F.I.+XW.) v ) v ).n m c j g e ",
"@.| | @.@.} R j /  .j j k } #.y %.hXkXkXsXsXkXcXw ( I.=X].W.| ' G &   . , 6.7.x.g.b.d.d.f.0.# 2 H H $ + I.7X,X*X&XJ.`.@X@X'.[.#X_.R.'.].R.F.I.~.n ~.n v b k l p ",
"|.}.( @.|  .[ l l [ R j j ~ ' t e jXhXkXsXsXzX#.w |.+X%XOXQ $   X X 0 X 1 1 q 8.9 8 i.0.1., X Z N D P / +X7X7X>X&X&X_._.Y.'.].{.{.].#X].E.Q.Q.W./._.~.^ { z z g ",
"|.OX|.}.^. X} j d _ l T R U Y U e kXhXhXfXdXzXw u $X2X$X..$ - ; . . k.2 # % * q & % L 3 = . . X % # # + V T.W./.[.[.G.{.W.{.yX].].].].=X=X1X].R./.!.P.!.{ z z d ",
"$X@XOX/.}.| / } W R k k R Y / +.r kXdXkXfXhXdX+ #X4XoX&.2 o 5 6 > ; . 2 @ *.nXnXnX@ @ L 0 . . - ; ; ; 3 4 $ N t s ~ P.OX].+X2X{.=X].=X=X=X=X`.[.~.n b (.[ ~ b l ",
"OX'.Y.OX| k ! | } [ R Y Y x u Y w B.jXkXfXhXg + @XP.r # p.3.y.y.:.-.; X # pXnXMXMX*.H k.9 . - , 6 6 =.,.0.3 1 # # & u Y.].`.R.`.].=X{.1X;X=X].+X~.b b ~ ~ k ~ x ",
"/././.^.^ k ~ }.^ [ | } ~ ~ k R + @ fXkXgXkXw z $.r L M.C.g.y.x.r.4.1.9 % C h h f @ # . = 5 5 6 >.3.;.;.f.f.r.0.0 % t ^ I._.{.].{.#X{.].1X;X=X+X/.^ b R z R { [ ",
"/.OX@XU.^ ^..X^.| ^ ( ^ ( ( ( W d + dXzXkXfXw rX Xw % l.v.c.x.c.t.q.:.3 0 * % * & 4 p.6.>.7.7.7.w.0.9.,.,.f.r.4.- 2 T ) P._.yX#X4X$X].Q.].3X1X1X/.P.~ ~ R  . .[ ",
"#X#X@XY.Y.Y.U.) /.(./.(.U.(.(.| ' e dXdXdXt i yX3X{.t & 8.l.Z.n.x.y.q.6 9 0 8.9 0 9 i.i.-.:.2.7.f.f.f.f.g.i.3 4 p T Y ) P.#X{.[.$X2X#X`.].1X1X2X$XOX}.( ~ W z z ",
"4XtX@XP.Y.Y.U.U.OX|.'.|.^..X).}. .e + G A e (.#X,X,X;Xz r 4 i.M.C.9.7.2.5 7.9 l.i.y.u.8 2.>.x.7.g.0.i.i.p.2 r &.j k v ^ H.@X#X[.W.+X/.Y.'.].2X5X+X|.}.}.| | [ ~ ",
".XOX|./.Y.Y.OXOX+X'./.OX/.).^.( / W r P t ] (.[.`.&X,XuXW.Y r 2 9 7.2.2.7.2.6 5 y.y.5 7.2.5 8.6.9 0 L r y ..$XOXv n H.I.W.+XOXOX+X2X'.~.P.I.'./.U.( }.| ^ ( ( } ",
"(.^.^./.Y.OX4X2X2X+X'.OX/.(.!.^.( / r p + ] b H.[.J.>X<X8X].}.S & 1 7 6 2.5 2.7.>.7.2.5 ; 7 ; q 4 $ B OX4X8X<X,XG._.I.'.Q.+XOX$X+X+XY.Y.~.U.^.^.U.( | | ~ ( ( ^ ",
".X)././.~.+X5X5X5X+X].#X#X@X}.}.| +.r B.O.S [ { ).Y.].-X=XQ.=XgXY @ o o ; o = = = . ; o ; o ; I + oX6XwXqX<X<X>X:X`.'.$X$X2X$X4X].I.T.^ ( ^.^.^.}.| | ( ^ | ^.^.",
").tX$XOXOX#X5X5X2X1X2X4X$XXX}.U.}.@.r B.*.T  .[ ( @X[.{.&XJ.%X,X5X^ O # 9 8.7 7 0 M.l.M.M.o % @ $X6XqXqX0XqXL.>X:X;X].+X+X+X1X4X'.I.) U.) ) ( }.U./ { | | }.}.| ",
"/.$XyX2X#X+X5X1X2X4XyX4XY.U.}.}.(  .w B.o.R / | | U.^._.:X*X<XaXwXgX( S * S.S.N.A.N.M.M.M.X & Q _.qX0X0X0X<X>X&XE.].W.Y./.].1X1XW.P.P.U.U.) U.|.| { ^.(.(.|.}.^ ",
"I.+X#X2X].].1X].'.].#XOX^ ( | ( (  Xe *.X.j | /.Y.|.'.G.*X>X<XL.9X>XXXX.% 0 vXDXDXS.S.M.; X % G I.<XL.0X<X<XQ.T.T.G.Y.'.'.'.=X2X'.P.^ |.U.U.}.U.(.^.).).^.)..X(.",
"P.'.+X+X'.+X2X+X/.'././.{ (.!.P.!. Xt ] #.) '.].`.4X&XK.*X<X%X%XJ.T.N 4 - - 4 DXHXDXj.- < . o % t U.3X>X>XJ.F.F.R.I.[.].+X1XQ.'.+XI.U.| ^ ! ~ ^ ^.(.)./.).^.(.^.",
"P.~.'.'.'.OX#X'./.~.P.P.!..X#X[.'.(.t #.$.^ ].*X-X-XK.K.<X9XJ.T.T.V X ; ; ; . - - 4 = - , > > 1 # w I.%XJ.J.R.T.I.I./.].=X1X1X+X+XY.^ ^ ~ ~ R ^  X.X|./.^.{ (.!.",
"| ^./.U.P.U./.Y.~././.'._.[.4X].`.$Xt #.rX^ ;X*XK.*X9X<XK.%XR.T.W # - , , > 1.; , , : , : -.> 8 0 & ) R.G.G.G.G.!.P.!./.+X1X1XT.) ^ ^ [ ~ k ~  .oX}.|.^.(.(. X(.",
"^.U.P.P.~ ) ~.[.P.Y.W.`.'.J.1X6X:XyXk } XXI.,X0XqX<X<X%X%XQ.U.B $ X 3 =.: > -.1.1.1.-., 1.;.;.;.3.4 t OXJ.H.G.H.n ^ n !.W.1X1XW.P.^ R R W R R }  .}..X}.{ ~ } } ",
"( ) ! | ^ b ~ !.I.R.Q.`.`.J.6XwX<X8Xb | @X`.qXaXeXeXuXuX$X! B & 1 8 5 6 1.5 >.5 2.2.5 3.=.;.1.;.=.3 $ @.OXJ.G.G.H.~.[.{.OXQ.+XY.^.^ R _ #._ l z [ [ }. X| ~ ~ } ",
"~ u z ^ ^ c c P.OX2X3X3X`.&X7XqXeX<Xn | @X'.uXuXaXuXW.! V & 3 3 8 1.7.7.;.-.3.7.y.7.q.>.0.9.=.=.=.> # Q T.J.&XE.;X_.G.H.F.F.W.|.| [ ~ [ [ R z R ~ b | / { E T j ",
"R j j l b ^ ~.].'.;X3X3X&X*XwXeXeX7XH.} oXt B H H H 4 q k.M.8.5.4.3.y.6 6.y.7.y.t.y.t.w.=.=.,.: < 3 - r W.%X%X8XJ.J.J.J.G.H.P.^.| [ _ l j ~ }.XX.X(.}.^ R j l f ",
"~ j z z b .X#X[.G.G.R.&X&X,XqXqXqXaXP.T O.L M.A.A.A.CXA.Z.C.l.l.3.w.: = 2.7.y.:.3.v.u.3.9.0.;.-.= =.3 # U.&X3X8X<X-X;X`.G.!.^ ^ [  . .~ z ^.rX@X.XOX@X^ R T F f ",
"^ (  .(.!.~.{._.G._.~._.*XiX>X<X<X3Xw + O 0 n.AXSXSXSXCXBXu.u.w.3.3.= < 6.3.3.g.g.u.y.t.e.y.:.:.: 3 8 - y ].7X7X8X3X;XG.I..X^.^.|..X XU.P.@X.X#XOX.X X{ R l g D ",
"~ ^.!.n n !.[.`.].tXG.G.`.K.>X<X<Xi e GXS.. n.AXSXFXZXb.s.c.q.:.1.1.= 1.v.w.u.r.0.r.r.t.q.q.y.:.: =.5.0 r |.iXiX8X8XR.R./.^.|.).|.XXOXU./.@XOXOX|.~.U.) ~ l K S ",
"k b !.{ m n [.{.{.{._._.&XK.<XqX,Xi + vXS.. b.n.ZXAXVXn.c.;.=., > - . t.g.g.n.x.b.c.q.y.r.r.,.,.: , w.1.4 Q iX>X8X8XQ.T.P.U.(.Y.OXOX/./..X.X|.$X/./.)..X| ^ ( @.",
"j k { (.m !.[.~.H.!.'.].J.>X<XqX<X`.w + * ; c.NXm.n.NXn.y.3.5 ; 1 X = g.Z.v.x.b.x.e.c.a.s.r.s.;.: = -.5.0 & G.K.<X8X-XW./.|.OX$XOXU.P.~.(.^.P./.[./.^ U.XXXXXXXX",
"j z z b !.~.[.H.n n !._.J.iXiX0XqXiX[.t *.0 b.NXBXBXNXc.0.4.- 2 I 4 = C.BXg.b.c.b.s.x.x.n.b.n.9.: = =.:.8 q t tX,X7X-X3X{.~.'./.'.^.P.^.^ ^ ) ^ )..X^ P.U.|..X}.",
"j R k m !.[._.).P.^ H.I._.*XL.K.L.>X;X~ V.q b.m.m.NXz.y.1.3 2 I &.$ = A.VXd.z.s.c.s.c.n.c.b.g.r.=.= =.;.0.8.O XXuXwX8X6X]./.'./.).).OX.X| ^.^ ^ U.U.^ ) U..XXX@.",
"~ R ~ [ { { ~.).).).~.[.;XiX&XK.<X*XyXx sXq d.m.b.n.g.0.5.$ V Y.|.y = g.C.d.r.y.C.M.t.x.x.c.e.t.=.< =.9.9.4.0 + tX<X7X8X2XR.~.'.'./.|.).^ | ( ^ ( ^ ^ ^.( XX X} ",
"E k z [ [ { !.!.^ /.'._.[._.G.G.K.tX^.E B.2 v.a.z.s.q.5.4 B Y.1X5XV   8 0.1.> q 0 L 0 9 6.w.3.4.< = =.=.;.w.6.4 Y yX7X7X1X_.'.'./.'./.^.^ { { ^ | { ^ | ^ }.( ^ ",
"j j T k k z R ~ ~ U.Y.OXW.'.G.F.H.G.{ S V.1 l.z.z.y.2.1 y U.J.-X5Xy I X . o   @ M pXh * # 3 - - < = ;.0.;.r.r.p.# $.uX,X;XQ.'.[.'.).).^.^ | { ~ { P.!.^.^.^.^. .",
"j j j T j R R k ~ ^././.Y.].].[._.~. .F V.1 u.C.x.4.7 % ! Q.9X8XgXy k.N.M.q @ lXnXMXnXM # X - j.8 = 3.=.,.,.g.l.q r yX,X%XE.`.G.P.^.~./.^.| ^ (.{ ^.P.Y.^.^.| ^.",
"d j R Y Y U z j R ^ ^ ~.W.&X=X&X-X`.^.U V.4 i.v.i.p.$ S v %XqXgXB 4 X 4 D.vXh pXnXnXnXM O S.0 = = < : 0.9.9.q.w.8.& {.K.J.`.R.[.T.P.|.OX~.U.^.(.^.!.^ ^.^.^.|.^.",
"d j E E Y k l z ~ ~ v I.Q.J.R.*X%X;X$Xd B.X 8.i.p.# B ) J.9XqXW.4 g.i.. .   O @ h pXh a O X . , 0.,.< =.=.9.w.4.9 & tX*XG._.].F.P.U.OX|.^ U.}.| ^.(.^.^.^././.|.",
"S S T Y T Y R ~ ~ ^.F.'.+X`.&X-X-X3X/.V *.    0 $ B Y.J.K.9X-X) k.g.g.g.l.; o % * * * * 9 2.3.r.f.f.=.< ;.=.w.j.% t tXK.F.I.v n b ^ ( U./ | }..X^ .X@X|./.|.).OX",
"S U F F T T T z R ^.P./.+X=X].Q.=X+XsXt V.@   O Y W.J.9XqXwX5Xt p.C.Z.Z.x.x.l.6.k.9 9 7.t.q.f.e.f.f.=.< =.;.i.0 + ^.`.&XG.F.H.n ^.{ } } R [  . X!./.|.W.OX@XOXOX",
"T ] G G F F S T R b | OXOXI.I.~.'.^. .e *.# ] c +X%XK.9XqX7X}.N i.BXCXZ.z.z.z.z.v.7.x.x.f.f.f.z.f.f.f.< =.6.3 # ~ _.&X;XH.T.n U.| R l F d _ } | ^.|./.Y.#X#X|.@X",
"] ` T K A s f T / ~ ^ ^. X(.| | .X X' @ P + (.G.E.K.K.L.9X7X@.2 l.BXBXZ.n.z.n.n.x.x.x.y.d.a.a.d.f.d.d.=.= , o I .X].R.`.G.R.W.|..XR f g F _ / | ^..X$XtX$XOXP.U.",
"} } E T S S E T ' } } R [ #.} [ { rX' + P @ M ~.R.J.J.K.<XyX+.0 C.BXCXb.g.f.d.d.s.d.z.b.z.f.d.d.z.d.z.,.. . - Z  X'.F.G.`.W.'.OX}./ W F T E } | $.(.^..XOX|.^.U.",
" .|  .} ] W X.T T E ] T T ` ] ' [  .' @ P + b _.E.J.E.3XiX].r 0 C.BXBXn.b.d.f.f.x.x.n.z.NXf.f.a.<.f.<.:.= M.k.& c I.Y.Y.I./.OXT.U.( +.T T ' } +.$.$.| ^.^.|.XX|.",
"^.| }.$.+.+.X.W T ] T G F ` T ] ~  .#.w P @ [.:X=XQ.R.%X,X@X& 0 A.A.g.g.d.x.e.e.x.x.b.d.z.<.z.a.d.d.<.y.6 9 L A V U./.( ( / ( }.| @.@.Y ! +.@.$. X .| ^.^.}..X.X",
"P.^.oX@.} #.#.' #.' ` ] F T T W ^ .X*.+ C + [.:X5X%XQ.Q.].~ q M.A.A.C.d.<.s.c.z.c.y.c.c.d.a.h.a.f.f.e.y.>.o & Q ) P.( Y U j x Y / ( ../ / @.} @. X$.$.$.@.| }.}.",
"^.^.}.+.} X.] ' ' } } _ E [ } | { ^.%.+ D + I.&X=X&XE.Y.@Xt 9 v.Z.CXq.,.e.a.g.g.g.g.d.f.<.x.e.a.<.b.d.f.1.1 L / ) v ~ Y U Q j l z ^ @.| / +.} } @.oX$. .@. .@.@.",
"^.^. .#.#.o.X.@. . . X{ ^.^.}.(.^.}.$.+ p + I.`.%X=XE.W.rX$ 0 A.CXC.s.r.r.s.s.d.r.r.f.g.e.,.,.e.d.g.d.;.1.3 $ W U.T.F.) Y Y E _ W R } }...@.#./ W / } +.@.$. X$.",
"^ ~ ~ W ' +.@.}.XX@XOXI.'.+X+X1X#X$X+.O & + ~.&X%X-X%X].X.1 8.u.C.C.c.y.y.q.r.q.q.,.u.s.w.e.9.9.e.r.0.0.3.1.% &.U.Q.R.G.P.U.U. .~ R / @.@.+.#.U T T E } $.@.%.$.",
"| ( } | | }.XXtXOX2X].].5X5X1X+X5X#X XO a e '.-X%X*X,X#X@ 1 C.C.C.g.u.e.t.c.:.:.y.g.u.r.0.y.9.,.0.9.9.3.q.1.; 2 Y.E.Q.&XW.P.U.U.| } | @.+.} E ] T G j E #.#.@.@.",
"^.^.!.).OX@X#X#X#X4X].W.5X5X'.R.Q.$XrXO p e ].<X%X>X,XU.$ 8.C.g.u.u.t.q.t.u.t.:.:.t.r.w.q.9.0.3.w.-.:.>.w.2.7 % ..W.%X&XQ.R.Y.|.U.}.( | W +.W ' ` S D F ` ] @.@.",
"~.!.@X#X[.#X{.#X'.#X#X#X+X+X].'.+X4X.X+ ] e `.<X<X-X4Xt 2 i.8.i.>.w.9.w.t.q.9.0.9.:.:.:.-.-.;.w.>.;.1.=.> :.8 1 r |.+X%XJ.E.Q.OX|.( ..../ +.W o.F F K A F W @.}.",
"!..X{.#X#X'.'.)./.[.OX#XOX/.OX{.2X#X}.+ h y &X<XqX5X/ % 0 6.w.7.6 3.5 2.w.>.1.>.-.>.3.7.:.:.>.3.3.3.1.4.6 >.6 ; # S '.E.&XE.R.|.OX..}./ W W Q E G G G f l W (.^.",
"!.).).[.#X[.P.^..X@X X| | ^..XtX;X2X.X+ *.x `.>X8XOX$ q 9 6.2.>.7.3.> 5 6.-.2.> 1.> -.2.>.-.6 :.w.4.1.1.=.>., ; 3 $ ( W.Q.Q.I.Y.}.}...+.@.X.Q E F S S T ] } (.^.",
").(./.OX@XOXP.^ |  X( ~ [ } ^.OX2XtX.Xw O.t _.{.}.w 1 ; , i.8 6 7.5.2.7.2.4.2.8 5.1.6.2.5 y.-.1.5 5 5 6 >.>., , 7 % t }.T./.U.U./ ..@.X.@.+.&.&.U T T T z ~ | | ",
"!.^ !.|.$X@XU.}.| } ' #.#.E [ (.~.{..Xy o.g n n r % 1 7 5.5.6.9 2.2.9 >., 7 6 5.4.8 8.6.5.6.1.> , ; 6 9 6 6 , 3 9 2 r }.( U.) ! Q Q ....&.X.W W E E l k k ~  .{ ",
"^.(.~ ^..X( ) ^. X+.' #.] ] ' } { )..Xt B.a k ! O # q 1 9 9 9 7 7 ; 6 8 9 6 ; 9 9 4.5.7.9 p.9 ; ; , 7 9 7 9 7 1 1 $ B ) ( ! Y T Q Q X.W W X.U [ E R R [ [ #.} / ",
"( ~ z ~ ^ ^ ( }.$.} ] X.X.O.` E [ [ | R & + b ~ t # % 2 & 2 1 % 1 2 1 2 1 q 4 4 1 2 1 1 7 7 ; 1 % 2 & % % & % % Z N W ..( c U Q Q &.+.&.W } S } [ R j +.} W W ] ",
"j l T z z [ { rX_ _ K K J J J F W E U S e e k ^ / / R j x ! V S N y y r $ r B Q B r + & $ $ & $ r +.( ) u V S t F S ....../ Q S G G Q G W T j [ } E [ #.#.G S G ",
"E F l T ] M b [ #.#.` K A D D D G X.U S f f [ (.{ n m b n ^ ) }.XXXXoX%.+.+.@.oXoX@.#.` X.o.#.' W | |.OXXX^.| ~ U T ..}.....&.S G G S G E U T ] W T ] ] ` ` G J ",
"` T T R ] l l l [ ' ` s A s D D F W ' T f K l l z j k k Y j u V ) / ' T S s T U / / ] f F D J D F ' @.}.|  .}.} R E ..oX..+.' ] X.G G G G F ` ' E F G F A K K P ",
"E F T T l K l ] l _ F f A K G G S E } ' l ] ] l l l l l S U W ( | +.] ] H K D s W W ' o.` D p f f E +.@./ R } | [ S Q ..W ' [ ' ] S E E G ` E J G D D D D C D D ",
"S s l T T _ _ _ T T ] d T T _ ] E } [  ._ _ ' _ [ U R T F F R [ } W S D K D C a A A F X.O.G S F S G W / %./ } / U W T E +./ [ ' ` A J K E ` O.` G H C C C C C C ",
"F f f l _ _ T l S T f f d T _ } [ _ _ _ [ ' _ [ W j d T d j R ~ W E G D C a C C C A H ` ` o.O.` A ` E j / @.+.] U U G ` W W W F J A C D D &.O.` G C C * * C C C ",
"F f T T T E d p p g f g l T  .} } _ } } R _ W W W E d s t U / ~ W E ` J J C C C Z D J ` o.o.o.K K ` E T U ` T T E T J T X.` E J D D H H O.O.O.` G p C Z * C C H ",
"g f f ] ] E d s p p p f l z [ z _ _ E l T E Q W / R t s t W +.+.` ] X.` G J H H D D P o.X.` ` T T T k R ] T K T ` T F ` J ` O.` P G J J J ` J ] P p a * * q C C "
};
